<svg xmlns="http://www.w3.org/2000/svg" xmlns:svg="http://www.w3.org/2000/svg" id="svg2" width="765.48" height="275.985" version="1.0"><defs id="defs4"><marker style="overflow:visible" id="Arrow1Lstart" orient="auto" refX="0" refY="0"><path style="fill-rule:evenodd;stroke:#000;stroke-width:1pt;marker-start:none" id="path7339" d="M 0,0 L 5,-5 L -12.5,0 L 5,5 L 0,0 z" transform="matrix(0.8,0,0,0.8,10,0)"/></marker><marker style="overflow:visible" id="Arrow1Lend" orient="auto" refX="0" refY="0"><path style="fill-rule:evenodd;stroke:#000;stroke-width:1pt;marker-start:none" id="path7336" d="M 0,0 L 5,-5 L -12.5,0 L 5,5 L 0,0 z" transform="matrix(-0.8,0,0,-0.8,-10,0)"/></marker></defs><path style="fill:none;fill-rule:evenodd;stroke:#b4b4b4;stroke-width:1.75000119;stroke-linecap:butt;stroke-linejoin:miter;stroke-miterlimit:4;stroke-dasharray:none;stroke-opacity:.29019608" id="path6770" d="M 746.02381,0.8750006 L 746.02381,275.11007"/><path style="fill:none;fill-rule:evenodd;stroke:#b4b4b4;stroke-width:1.75000119;stroke-linecap:butt;stroke-linejoin:miter;stroke-miterlimit:4;stroke-dasharray:none;stroke-opacity:.29019608" id="path6772" d="M 628.75236,0.8750006 L 628.75236,275.11007"/><path style="fill:none;fill-rule:evenodd;stroke:#b4b4b4;stroke-width:1.75000119;stroke-linecap:butt;stroke-linejoin:miter;stroke-miterlimit:4;stroke-dasharray:none;stroke-opacity:.29019608" id="path6774" d="M 687.38813,0.8750006 L 687.38813,275.11007"/><path style="fill:none;fill-rule:evenodd;stroke:#b4b4b4;stroke-width:1.75000119;stroke-linecap:butt;stroke-linejoin:miter;stroke-miterlimit:4;stroke-dasharray:none;stroke-opacity:.29019608" id="path6776" d="M 276.93784,0.8750006 L 276.93784,275.11007"/><path style="fill:none;fill-rule:evenodd;stroke:#b4b4b4;stroke-width:1.75000119;stroke-linecap:butt;stroke-linejoin:miter;stroke-miterlimit:4;stroke-dasharray:none;stroke-opacity:.29019608" id="path6778" d="M 218.30207,0.8750006 L 218.30207,275.11007"/><path style="fill:none;fill-rule:evenodd;stroke:#b4b4b4;stroke-width:1.75000119;stroke-linecap:butt;stroke-linejoin:miter;stroke-miterlimit:4;stroke-dasharray:none;stroke-opacity:.29019608" id="path6780" d="M 42.394861,0.8750006 L 42.394861,275.11007"/><path style="fill:none;fill-rule:evenodd;stroke:#b4b4b4;stroke-width:1.75000119;stroke-linecap:butt;stroke-linejoin:miter;stroke-miterlimit:4;stroke-dasharray:none;stroke-opacity:.29019608" id="path6782" d="M 452.84514,0.8750006 L 452.84514,275.11007"/><path style="fill:none;fill-rule:evenodd;stroke:#b4b4b4;stroke-width:1.75000119;stroke-linecap:butt;stroke-linejoin:miter;stroke-miterlimit:4;stroke-dasharray:none;stroke-opacity:.29019608" id="path6784" d="M 335.57361,0.8750006 L 335.57361,275.11007"/><path style="fill:none;fill-rule:evenodd;stroke:#b4b4b4;stroke-width:1.75000119;stroke-linecap:butt;stroke-linejoin:miter;stroke-miterlimit:4;stroke-dasharray:none;stroke-opacity:.29019608" id="path6786" d="M 394.20938,0.8750006 L 394.20938,275.11007"/><path style="fill:none;fill-rule:evenodd;stroke:#b4b4b4;stroke-width:1.75000119;stroke-linecap:butt;stroke-linejoin:miter;stroke-miterlimit:4;stroke-dasharray:none;stroke-opacity:.29019608" id="path6788" d="M 159.66631,0.8750006 L 159.66631,275.11007"/><path style="fill:none;fill-rule:evenodd;stroke:#b4b4b4;stroke-width:1.75000119;stroke-linecap:butt;stroke-linejoin:miter;stroke-miterlimit:4;stroke-dasharray:none;stroke-opacity:.29019608" id="path6796" d="M 101.03054,0.8750006 L 101.03054,275.11007"/><path style="fill:none;fill-rule:evenodd;stroke:#b4b4b4;stroke-width:1.75000119;stroke-linecap:butt;stroke-linejoin:miter;stroke-miterlimit:4;stroke-dasharray:none;stroke-opacity:.29019608" id="path6802" d="M 511.48091,0.8750006 L 511.48091,275.11007"/><path style="fill:none;fill-rule:evenodd;stroke:#b4b4b4;stroke-width:1.75000119;stroke-linecap:butt;stroke-linejoin:miter;stroke-miterlimit:4;stroke-dasharray:none;stroke-opacity:.29019608" id="path6804" d="M 570.11659,0.8750006 L 570.11659,275.11007"/><path style="fill:none;fill-rule:evenodd;stroke:#b4b4b4;stroke-width:1.75000155;stroke-linecap:butt;stroke-linejoin:miter;stroke-miterlimit:4;stroke-dasharray:none;stroke-opacity:.29019608" id="path6756" d="M 0.87501077,86.787905 L 764.6049,86.787905"/><path style="fill:none;fill-rule:evenodd;stroke:#b4b4b4;stroke-width:1.75000155;stroke-linecap:butt;stroke-linejoin:miter;stroke-miterlimit:4;stroke-dasharray:none;stroke-opacity:.29019608" id="path6725" d="M 0.87502077,27.597435 L 764.6049,27.597435"/><path style="fill:none;fill-rule:evenodd;stroke:#b4b4b4;stroke-width:1.75000155;stroke-linecap:butt;stroke-linejoin:miter;stroke-miterlimit:4;stroke-dasharray:none;stroke-opacity:.29019608" id="path6752" d="M 0.87500077,145.97814 L 764.6049,145.97814"/><path style="fill:none;fill-rule:evenodd;stroke:#b4b4b4;stroke-width:1.75000155;stroke-linecap:butt;stroke-linejoin:miter;stroke-miterlimit:4;stroke-dasharray:none;stroke-opacity:.29019608" id="path6754" d="M 0.87503077,264.35889 L 764.60484,264.35889"/><path style="fill:none;fill-rule:evenodd;stroke:#b4b4b4;stroke-width:1.75000155;stroke-linecap:butt;stroke-linejoin:miter;stroke-miterlimit:4;stroke-dasharray:none;stroke-opacity:.29019608" id="path6766" d="M 0.87501077,205.16846 L 764.6049,205.16846"/><path style="fill:#6e2317;fill-opacity:1" id="path1916" d="M 420.61972,264.46255 C 419.63059,263.47489 418.35771,263.27773 415.77829,263.71297 C 408.31428,264.97219 414.05534,258.6626 421.79634,257.09901 C 424.52919,256.54706 427.63321,255.75572 428.69414,255.34038 C 431.55795,254.21964 433.54353,250.61412 433.3659,246.8572 C 433.27983,245.03672 433.23691,241.37736 433.27052,238.72537 C 433.34894,232.53873 430.32212,222.96178 426.49595,217.29027 C 424.85336,214.85543 422.80108,211.47935 421.93532,209.78768 C 419.58526,205.19571 409.32213,196.74694 400.42636,192.08122 C 398.49485,191.06808 393.9132,189.18846 390.24494,187.90413 L 383.57536,185.5689 L 379.19256,190.44935 C 374.6357,195.52362 372.88365,200.75803 374.67324,203.95109 C 375.34207,205.14456 375.08546,205.41156 373.26995,205.41156 C 371.55655,205.41156 370.93009,205.96324 370.53224,207.8225 C 369.59575,212.1987 363.97215,222.75588 361.83142,224.15646 C 360.6751,224.91301 359.60148,226.3985 359.44563,227.45749 C 358.99853,230.49524 357.02393,230.46046 356.41175,227.40392 C 355.73872,224.04374 355.15152,224.03491 351.39473,227.32859 C 349.74483,228.77512 347.52114,229.95863 346.45321,229.95863 C 345.24986,229.95863 344.33689,230.62544 344.05232,231.71196 C 343.46014,233.97317 340.28609,234.0671 340.28609,231.82338 C 340.28609,228.50449 343.82145,222.39122 348.20895,218.12345 C 354.19721,212.29859 355.52861,209.63553 356.07183,202.39595 L 356.52836,196.31198 L 360.47365,194.01293 C 362.64356,192.74859 366.18177,189.44709 368.33632,186.67643 L 372.25371,181.63909 L 367.81806,177.52598 C 365.37847,175.26366 362.64516,172.26915 361.74406,170.87118 C 358.85695,166.39248 352.03258,164.12486 338.96915,163.30358 C 326.1055,162.49476 321.55946,161.04489 316.60313,156.17048 L 313.55225,153.16993 L 309.14048,154.38609 C 302.55766,156.20052 282.11561,156.11942 277.18207,154.25933 C 270.93412,151.90355 270.15053,152.21361 262.56027,160.04337 C 255.09186,167.74768 253.36804,170.16456 253.36804,172.93187 C 253.36804,173.88596 252.82287,176.35697 252.15654,178.42306 C 251.49021,180.48914 250.03538,185.03973 248.92356,188.5355 C 247.81175,192.03128 246.57905,194.8914 246.18424,194.8914 C 245.78942,194.8914 245.44136,192.62295 245.41075,189.85052 C 245.36869,186.04134 245.16618,185.2779 244.58187,186.726 C 243.18222,190.19509 236.548,200.15148 235.6362,200.15148 C 235.14495,200.15148 234.95262,199.60613 235.2088,198.93951 C 235.46496,198.27288 236.49247,195.08326 237.49215,191.85142 C 238.49182,188.61958 239.86222,184.92413 240.53747,183.63915 C 244.64843,175.81664 245.83898,169.7668 242.06865,175.85849 C 240.04653,179.12558 231.4304,184.00334 226.15127,184.86954 C 222.75227,185.42726 222.63714,185.57838 229.32122,180.71039 C 230.82324,179.61662 232.9108,177.41354 233.96023,175.81506 C 235.00966,174.21639 236.76685,172.5674 237.8651,172.15039 C 238.96334,171.73347 241.2217,169.50696 242.88365,167.2027 C 244.5456,164.89835 247.30556,161.60522 249.01689,159.88444 C 253.03227,155.84703 257.75784,149.7426 257.75784,148.59284 C 257.75784,148.09948 255.8812,146.98664 253.58753,146.11997 C 248.3675,144.14753 240.02948,139.50181 235.17889,135.86319 C 230.48818,132.34444 228.78516,128.83574 228.78516,122.69067 L 228.78516,117.82091 L 222.85894,114.34382 C 217.33019,111.0998 210.01881,106.21749 198.6383,98.16973 C 193.34428,94.426016 187.99966,92.862965 183.42378,93.720239 C 179.91982,94.37654 176.6425,97.48823 168.78419,107.61927 C 165.81033,111.45329 161.20422,116.32054 158.54833,118.43545 C 151.75951,123.84154 150.21097,125.32443 142.51373,133.78966 C 134.77995,142.29507 131.0287,144.31958 127.40086,141.94613 C 125.4779,140.68793 124.60156,137.03052 126.22311,137.03052 C 126.58804,137.03052 126.64793,136.40919 126.35601,135.64975 C 125.97136,134.64889 126.28086,134.34738 127.48103,134.55393 C 128.47994,134.7258 129.04343,134.3856 128.90151,133.6961 C 128.59749,132.21842 130.90222,129.91705 132.38203,130.2206 C 133.07247,130.36224 133.41331,129.79968 133.24117,128.80226 C 133.03424,127.60376 133.33621,127.29473 134.33857,127.67882 C 135.3147,128.05295 135.72139,127.68988 135.72139,126.44443 C 135.72139,125.25049 136.2181,124.76345 137.25784,124.93783 C 138.36398,125.12318 138.87241,124.51607 139.07348,122.76972 C 139.22711,121.43545 139.72094,120.5711 140.17097,120.8489 C 140.98723,121.35258 141.3437,120.12126 141.03327,117.86983 C 140.94315,117.21594 141.3902,116.86292 142.02669,117.08546 C 142.66328,117.30801 144.2705,116.29245 145.59845,114.82891 C 149.32301,110.72361 148.58728,103.6717 143.87367,98.29668 C 142.4384,96.65997 140.11117,97.08814 140.11117,98.98878 C 140.11117,99.66052 139.81487,100.16328 139.45273,100.10618 C 137.05621,99.72832 135.58365,100.34035 136.03889,101.52499 C 136.3522,102.34022 136.03452,102.84001 135.203,102.84001 C 134.46542,102.84001 134.10598,103.23451 134.40441,103.71672 C 134.70285,104.19892 134.33113,104.59343 133.57829,104.59343 C 132.82546,104.59343 132.20952,104.19892 132.20952,103.71672 C 132.20952,103.23451 131.79111,102.84001 131.2798,102.84001 C 130.76839,102.84001 130.5942,103.23451 130.89264,103.71672 C 131.19108,104.19892 130.99354,104.59343 130.45359,104.59343 C 129.91372,104.59343 129.74353,105.03201 130.07536,105.56807 C 130.92742,106.94484 128.6492,108.12138 126.28068,107.52776 C 124.70953,107.134 124.40236,107.32577 124.82839,108.43451 C 125.26567,109.57227 124.85294,109.7805 122.66521,109.52624 C 120.62721,109.28927 119.83373,109.6145 119.44174,110.84768 C 118.84998,112.70944 118.0579,112.90539 116.68094,111.53048 C 116.02389,110.87437 115.55006,110.86246 115.16029,111.49217 C 114.84893,111.9953 114.0097,112.18297 113.29537,111.90927 C 112.33719,111.54211 112.15426,111.82204 112.59796,112.97645 C 113.06426,114.1901 112.86943,114.41497 111.7299,113.97824 C 110.78464,113.61601 110.26059,113.85567 110.26059,114.65026 C 110.26059,115.48224 109.47288,115.79193 107.84612,115.59932 C 106.51827,115.44215 104.58034,115.26852 103.53976,115.21347 C 101.16379,115.08792 97.091141,108.44716 97.091141,104.69852 C 97.091141,102.19933 102.17108,93.874991 107.10101,88.295642 C 108.11443,87.148673 110.32643,84.627071 112.01643,82.69202 C 113.70652,80.756876 115.53481,79.172714 116.07923,79.171691 C 116.62374,79.170575 117.56109,78.577886 118.16215,77.854625 C 118.7633,77.131364 119.99695,76.539698 120.9036,76.539698 C 121.81017,76.539698 122.55203,76.135427 122.55203,75.641318 C 122.55203,75.147209 123.53866,74.368334 124.74469,73.910495 C 126.09561,73.3976 127.70599,71.470547 128.93936,68.891192 C 130.63382,65.34752 131.27459,64.750181 133.11181,65.002025 C 134.30565,65.165705 136.09804,66.05339 137.0949,66.974555 C 139.24478,68.961221 142.59892,69.173168 143.29335,67.366178 C 143.87451,65.853905 157.84776,58.177964 165.24098,55.309472 C 169.71763,53.57279 171.97027,53.310437 182.25328,53.328944 C 193.7027,53.349497 194.29976,53.443334 199.81252,56.088533 C 202.95118,57.594668 210.01955,62.422949 215.51994,66.818129 C 229.08094,77.65421 234.51953,80.833787 241.45749,81.981779 C 246.58727,82.830497 247.79084,82.708109 254.41071,80.66462 C 270.02251,75.845267 286.96135,71.951264 300.95036,69.965714 C 311.36106,68.487944 335.50755,68.258792 346.43181,69.533915 C 350.53627,70.013144 359.42562,70.802621 366.18591,71.288639 C 378.90534,72.203015 388.29586,73.907705 402.62127,77.903357 C 426.39919,84.535559 451.42132,88.047332 478.56481,88.561808 C 501.84367,89.003093 507.51051,88.340003 540.02201,81.37049 C 563.61418,76.31315 570.99774,75.408539 589.18778,75.347252 C 607.54536,75.285407 618.43737,76.767362 637.4756,81.916958 C 692.54644,96.81305 720.86748,109.23682 744.59787,128.90921 C 751.45149,134.59076 755.9797,141.41399 752.89664,141.41399 C 752.39686,141.41399 748.74237,139.02184 744.77549,136.09811 C 738.30248,131.32721 728.74885,126.22811 710.34627,117.72214 C 700.87893,113.34621 700.14092,113.09883 678.95919,107.20598 C 669.72782,104.63769 657.52905,102.14706 644.49927,100.17007 C 638.22185,99.21766 629.72757,97.85855 625.62311,97.14989 C 605.37292,93.654116 567.58243,98.36596 547.26995,106.91954 C 543.28358,108.5981 536.86135,111.15374 532.99833,112.59877 C 529.1353,114.04381 521.83883,117.02325 516.78395,119.21963 C 505.2828,124.21708 483.63837,130.36038 470.79074,132.27395 C 463.09483,133.42008 457.8189,133.60896 446.08029,133.15838 C 432.94309,132.65422 430.05757,132.806 421.99499,134.42504 C 408.23896,137.18751 397.13016,143.34215 395.96788,148.84506 C 395.65995,150.30293 394.66079,152.30996 393.74754,153.30497 C 392.11,155.08908 392.12189,155.14739 394.60879,157.52651 C 395.99574,158.85335 398.57823,163.16789 400.34768,167.11426 C 407.62798,183.3515 410.90379,186.90466 425.56337,194.465 C 433.49251,198.5543 436.13245,201.31584 437.2851,206.72658 C 440.30656,220.91001 443.23022,226.89921 446.73876,226.09253 C 448.9814,225.57703 448.71674,228.78432 446.41514,230.01434 L 444.5551,231.00823 L 446.62686,232.0397 C 449.14707,233.29427 449.55911,234.9811 448.16982,238.35616 C 447.59002,239.76474 447.20723,241.45771 447.31918,242.11848 C 447.72564,244.51751 440.69815,259.69639 438.85381,260.4031 C 438.24103,260.63792 437.73967,261.55351 437.73967,262.43784 C 437.73967,264.31021 435.80768,265.81337 435.3115,264.32705 C 435.06729,263.59551 434.44926,263.6435 433.0648,264.5017 C 430.3709,266.17151 422.30577,266.14613 420.61972,264.46255 z"/><path style="fill:#000;fill-opacity:1" id="path2084" d="M 46.384981,271.3108 C 46.072781,271.1713 45.847081,270.9265 45.699581,270.5678 C 45.578781,270.2735 45.217381,269.8039 44.896681,269.5242 C 44.335681,269.035 44.312581,268.9814 44.286881,268.11 C 44.272181,267.6118 44.253481,267.1023 44.245281,266.9777 C 44.237081,266.8532 43.847881,266.3658 43.380581,265.8947 C 42.913181,265.4236 42.531881,264.9209 42.533181,264.7776 C 42.534481,264.6343 42.660881,264.0397 42.813981,263.4563 C 42.967381,262.8722 43.094681,261.919 43.097381,261.3348 C 43.100081,260.7514 43.164581,259.7013 43.240481,259.0012 C 43.391081,257.614 43.274981,256.46072 42.784881,254.47552 C 42.617881,253.79862 42.481781,252.66222 42.446181,251.64692 C 42.406781,250.52342 42.296181,249.66292 42.118981,249.10122 C 41.758481,247.95882 41.434681,246.45662 41.325281,245.41862 C 41.224981,244.46792 41.443581,242.13412 41.736781,241.02492 C 41.899581,240.40932 41.897681,240.23232 41.723881,239.82272 C 41.611781,239.55862 41.427581,238.99242 41.314481,238.56462 C 41.063181,237.61362 40.689791,232.87102 40.689591,230.62762 C 40.689391,228.68982 40.455491,227.22952 39.777291,224.93232 C 39.102491,222.64642 39.047091,222.61722 38.843991,224.44042 C 38.771491,225.09122 38.647591,225.89082 38.568691,226.21742 C 38.489791,226.54382 38.424891,226.95752 38.424591,227.13662 C 38.424291,227.31582 38.402191,229.18072 38.375491,231.28092 C 38.332191,234.68512 38.292491,235.23142 38.009491,236.31402 L 37.691891,237.52842 L 38.053291,238.71832 C 38.663591,240.72792 38.869991,242.39032 38.692691,243.86732 C 38.608691,244.56792 38.454491,245.52292 38.350091,245.98972 C 38.245791,246.45642 38.120091,247.28382 38.070891,247.82822 C 38.021691,248.37272 37.924791,249.10472 37.855491,249.45472 C 37.786191,249.80472 37.623591,250.63212 37.493891,251.29332 C 37.283891,252.36432 37.182691,255.67242 37.351591,255.94532 C 37.381991,255.99442 37.476591,257.05202 37.561891,258.2957 C 37.647191,259.5394 37.788191,261.1046 37.875291,261.7739 C 38.118391,263.6431 37.747991,264.1472 35.870391,264.5019 C 34.006791,264.854 33.601891,265.1908 32.451291,267.3456 C 32.165091,267.8816 31.359891,268.2924 30.432291,268.3756 C 30.026691,268.412 29.588991,268.5491 29.429391,268.6899 C 29.030191,269.0417 28.581791,269.1507 27.963091,269.0463 C 27.291291,268.933 26.419891,268.1752 26.239691,267.5477 C 26.058891,266.9185 26.284591,265.5599 26.674291,264.9303 C 27.060991,264.3056 27.799991,263.7406 28.238791,263.7341 C 28.426191,263.7314 28.727391,263.6472 28.908091,263.5471 C 29.464491,263.2389 32.023691,260.6129 32.291991,260.0749 C 32.637591,259.3821 32.600991,257.3804 32.203891,255.25342 C 31.823791,253.21722 31.379891,250.93602 31.130691,249.73762 C 30.803491,248.16462 30.608591,246.79972 30.651891,246.38622 C 30.674891,246.16802 30.647991,245.91572 30.592091,245.82552 C 30.344391,245.42522 30.315991,242.29762 30.545891,240.74382 C 30.748791,239.37352 30.752791,239.10342 30.578291,238.60932 C 30.291891,237.79892 29.783491,235.22752 29.783491,234.58982 C 29.783491,234.29222 29.692291,233.77602 29.580791,233.44272 C 28.920291,231.46762 28.819691,230.67772 28.637991,226.04802 C 28.561691,224.10342 28.440891,222.06682 28.369591,221.52232 C 28.298191,220.97782 28.195791,219.67142 28.141991,218.61922 C 28.037491,216.57232 28.181591,215.60982 28.829291,214.03012 C 29.037891,213.52162 29.151191,212.81632 29.227391,211.55142 C 29.430291,208.18692 29.590591,207.18942 30.204291,205.46992 C 30.865391,203.61772 30.954191,202.49672 30.557091,201.01492 C 30.202391,199.69152 29.925591,198.03752 29.791391,196.43872 C 29.723691,195.63322 29.598091,194.90392 29.512191,194.81812 C 29.398291,194.70442 29.173691,194.85232 28.683891,195.36352 C 28.151391,195.91922 27.740591,196.17492 26.705491,196.59522 C 25.986991,196.88692 25.322291,197.12552 25.228491,197.12552 C 25.134691,197.12552 24.416591,197.38812 23.632891,197.70912 C 22.267491,198.26812 22.160191,198.28942 21.073691,198.21622 C 19.762291,198.12782 18.581991,197.88942 18.258491,197.64752 C 18.115091,197.54042 17.903391,196.82422 17.676391,195.67822 C 17.083191,192.68532 17.221991,188.96882 18.110491,184.05532 C 18.376491,182.58382 18.594191,181.21552 18.594091,181.01452 C 18.594091,180.81342 18.459891,180.29892 18.295991,179.87112 C 17.929591,178.91442 17.603991,176.99432 17.603291,175.78562 C 17.602991,175.28882 17.533791,174.33422 17.449491,173.66422 C 17.314991,172.59542 17.327991,172.35062 17.555691,171.66812 C 17.844791,170.80122 18.247291,170.59032 18.748291,171.04312 C 19.071491,171.33512 19.026991,171.37612 19.483591,170.36522 C 19.764091,169.74392 19.937691,169.53482 20.234791,169.46042 C 20.524691,169.38772 20.672691,169.43052 20.827791,169.63192 C 20.941491,169.77952 21.062291,169.83662 21.096191,169.75882 C 21.500291,168.83362 21.664091,168.62742 21.994791,168.62742 C 22.289191,168.62742 22.354891,168.70332 22.391891,169.08702 C 22.435091,169.53392 22.725091,169.71062 22.914091,169.40522 C 23.098391,169.10732 23.433191,169.28512 23.646591,169.79422 C 23.831891,170.23642 23.852391,170.67932 23.769691,172.45992 C 23.675091,174.49742 23.799991,175.76962 24.094691,175.76962 C 24.153791,175.76962 24.452491,175.51362 24.758391,175.20082 C 25.672191,174.26632 27.262991,174.06982 27.463191,174.86672 C 27.539291,175.16942 27.429691,175.34162 26.747891,175.99062 C 26.195191,176.51672 25.809491,177.05042 25.517991,177.69232 C 25.284391,178.20672 24.801591,178.93892 24.445191,179.31942 C 23.659691,180.15792 23.339691,181.03692 23.034291,183.19472 C 22.643591,185.95522 22.938891,189.20882 23.579591,189.20412 C 23.680991,189.20332 24.039491,188.98402 24.376191,188.71662 C 24.712991,188.44932 25.191091,188.16372 25.438491,188.08202 C 25.776591,187.97032 26.029191,187.69762 26.454991,186.98432 C 27.222291,185.69862 28.795591,184.54522 30.359691,184.12152 C 30.949191,183.96182 31.604991,183.83112 31.817091,183.83112 C 32.201291,183.83112 32.744591,183.57912 33.820091,182.90202 C 34.131691,182.70582 34.848491,182.32372 35.412891,182.05282 C 35.977291,181.78192 36.531291,181.41892 36.643991,181.24602 C 36.756591,181.07322 36.891191,180.45452 36.942991,179.87112 C 37.020891,178.99322 36.986291,178.66672 36.742291,177.97692 C 36.580191,177.51842 36.357191,177.04112 36.246791,176.91612 C 36.019191,176.65852 35.308891,174.93322 35.304291,174.62712 C 35.301691,174.45402 34.999891,173.56232 34.431291,172.04812 C 34.312591,171.73222 34.343691,171.46212 34.582191,170.73692 C 34.747291,170.23462 34.882591,169.58632 34.882891,169.29622 C 34.883591,168.62322 35.295491,167.94732 35.842891,167.72092 C 36.096691,167.61592 36.446991,167.26052 36.704691,166.84652 C 37.154991,166.12312 37.570491,165.86952 38.304891,165.86952 C 38.547991,165.86952 39.082291,165.65562 39.534991,165.37702 C 41.208281,164.34732 42.775981,164.48852 43.903281,165.77052 C 44.135981,166.03512 44.485581,166.29162 44.680181,166.34032 C 45.269981,166.48822 45.752381,166.96802 46.021281,167.67422 C 46.161581,168.04292 46.516981,168.78262 46.811081,169.31812 C 47.592781,170.74182 47.708381,171.27862 47.405481,172.07822 C 47.269881,172.43602 47.064081,172.87552 46.948081,173.05482 C 46.832081,173.23402 46.744681,173.58412 46.753681,173.83262 C 46.778681,174.51362 46.524381,175.15312 46.124781,175.41452 C 45.477881,175.83782 44.655281,178.09272 44.655281,179.44272 C 44.655281,180.19862 45.292581,180.99512 46.785781,182.10572 C 47.444681,182.59572 48.241781,183.24872 48.557181,183.55682 C 49.135581,184.12192 49.373481,184.20382 51.229581,184.47802 C 51.658181,184.54132 51.986581,184.75402 52.674881,185.41402 C 53.457781,186.16462 53.644781,186.45532 54.219581,187.81512 L 54.873581,189.36222 L 54.835281,191.22852 C 54.812281,192.35362 54.856981,193.20712 54.947881,193.37762 C 55.323881,194.08252 55.482081,195.69962 55.459881,198.61062 C 55.438881,201.37972 55.462381,201.68102 55.806781,203.06562 C 56.299381,205.04562 56.321181,207.99542 55.857081,209.85432 C 55.692081,210.51542 55.435481,211.59742 55.286881,212.25862 C 55.138281,212.91972 54.943481,213.65172 54.853881,213.88502 C 54.618781,214.49802 53.708981,219.07242 53.574081,220.32012 C 53.300181,222.85392 53.038081,224.12312 52.691781,224.59312 C 52.503281,224.84882 52.212881,225.32752 52.046581,225.65692 C 51.880181,225.98632 51.461381,226.60222 51.115981,227.02572 C 50.422481,227.87572 50.393781,227.94192 50.188181,229.15952 C 49.913281,230.78852 49.480081,232.49222 49.171881,233.15692 C 48.919281,233.70152 48.854381,234.13052 48.823781,235.45312 C 48.803181,236.34762 48.713581,237.60962 48.624581,238.25732 C 48.521281,239.01022 48.511781,239.49492 48.598381,239.60092 C 48.672981,239.69212 48.903681,240.45992 49.111281,241.30702 C 49.585981,243.24452 49.839581,246.60702 49.635081,248.25262 C 49.320881,250.78052 48.757081,253.71872 48.020281,256.66762 C 47.755381,257.7278 47.568481,258.8602 47.553381,259.4962 C 47.539581,260.0796 47.480881,260.8321 47.423081,261.1684 C 47.332781,261.6938 47.378181,261.8928 47.745681,262.5827 C 47.980981,263.0243 48.340681,263.8311 48.545181,264.3756 C 48.749581,264.9201 49.097281,265.7475 49.317981,266.2142 C 50.229981,268.1442 50.320681,268.3691 50.319481,268.6985 C 50.317781,269.1168 49.633781,270.3339 49.145581,270.7871 C 48.535981,271.353 47.092481,271.6269 46.384981,271.3108 z M 50.288281,216.43532 C 50.573781,215.57922 50.769981,211.31012 50.593181,209.80042 C 50.510181,209.09112 50.456681,207.49242 50.474481,206.24782 C 50.504581,204.13932 50.482881,203.92212 50.156081,203.06432 C 49.790881,202.10562 49.371781,201.36852 49.191981,201.36852 C 49.044081,201.36852 48.478481,203.33252 48.478981,203.84442 C 48.479281,204.07832 48.541781,204.48662 48.617981,204.75192 C 48.877081,205.65402 49.098281,208.79422 48.935481,209.26032 C 48.816081,209.60222 48.843181,209.87342 49.067981,210.58552 C 49.268781,211.22162 49.388281,212.17652 49.480981,213.88502 C 49.626481,216.57122 49.705381,217.10662 49.944181,217.02852 C 50.034481,216.99902 50.189281,216.73202 50.288281,216.43532 z"/><path style="fill:#a02c2c;fill-opacity:1" id="path3179" d="M 484.8921,264.83451 C 484.09254,264.03614 483.06362,263.87677 480.97858,264.22859 C 474.94512,265.24647 479.58585,260.14617 485.84321,258.88226 C 488.05228,258.4361 490.56138,257.79643 491.41897,257.46069 C 493.73391,256.55475 495.33893,253.64027 495.19534,250.6034 C 495.12577,249.13183 495.09108,246.17382 495.11825,244.03011 C 495.18164,239.02921 492.73494,231.28777 489.64209,226.70327 C 488.31432,224.73509 486.65538,222.00607 485.95555,220.63862 C 484.0559,216.92675 475.7598,210.09727 468.569,206.32578 C 467.00768,205.50682 463.30415,203.98745 460.33895,202.94928 L 454.94766,201.06162 L 451.40487,205.00668 C 447.72138,209.10841 446.30512,213.3396 447.75172,215.92067 C 448.29236,216.8854 448.08493,217.10123 446.61738,217.10123 C 445.23238,217.10123 444.72598,217.54718 444.40438,219.05009 C 443.64738,222.58755 439.1016,231.12134 437.37116,232.25348 C 436.43646,232.86503 435.56861,234.06581 435.44263,234.92184 C 435.08123,237.37737 433.48508,237.34926 432.99023,234.87853 C 432.44619,232.16237 431.97153,232.15523 428.93477,234.81764 C 427.60109,235.98693 425.80359,236.94361 424.94034,236.94361 C 423.96763,236.94361 423.22964,237.48262 422.99961,238.36089 C 422.52092,240.18872 419.95521,240.26465 419.95521,238.45096 C 419.95521,235.76817 422.81298,230.82657 426.35958,227.37676 C 431.20013,222.66829 432.27635,220.51563 432.71546,214.66359 L 433.08449,209.74568 L 436.27362,207.88726 C 438.02765,206.86525 440.88773,204.19651 442.62933,201.95688 L 445.79592,197.88499 L 442.2104,194.5602 C 440.23839,192.73148 438.02894,190.3109 437.30055,189.18086 C 434.96678,185.56055 429.45037,183.72754 418.89068,183.06367 C 408.49247,182.40986 404.81773,181.23788 400.81133,177.2977 L 398.34518,174.87223 L 394.77897,175.8553 C 389.45781,177.32198 372.93369,177.25642 368.94571,175.75284 C 363.89524,173.84857 363.26183,174.0992 357.12632,180.42831 C 351.08931,186.65601 349.69587,188.60967 349.69587,190.8466 C 349.69587,191.61783 349.25519,193.61524 348.71657,195.28535 C 348.17795,196.95544 347.00195,200.63387 346.10322,203.45964 C 345.2045,206.28542 344.20806,208.59736 343.88892,208.59736 C 343.56977,208.59736 343.28842,206.76369 343.26368,204.52262 C 343.22968,201.44351 343.06598,200.82639 342.59366,201.99695 C 341.46227,204.80115 336.09956,212.8493 335.36252,212.8493 C 334.96542,212.8493 334.80995,212.40847 335.01703,211.86961 C 335.2241,211.33075 336.05468,208.75245 336.86276,206.14003 C 337.67083,203.5276 338.77858,200.54042 339.32441,199.50172 C 342.64747,193.17847 343.60983,188.28815 340.56213,193.2123 C 338.92757,195.85322 331.9628,199.79611 327.69547,200.49629 C 324.94792,200.94712 324.85486,201.06928 330.25787,197.13429 C 331.47201,196.25015 333.15947,194.46931 334.00777,193.1772 C 334.85606,191.88493 336.27647,190.55198 337.16423,190.2149 C 338.05198,189.87788 339.8775,188.07811 341.22092,186.21548 C 342.56434,184.35278 344.79533,181.69081 346.17867,180.29984 C 349.42446,177.03624 353.24433,172.10178 353.24433,171.17239 C 353.24433,170.77358 351.72736,169.87403 349.8733,169.17347 C 345.65374,167.57906 338.91378,163.82374 334.99286,160.8825 C 331.20117,158.03816 329.82455,155.20193 329.82455,150.23463 L 329.82455,146.2982 L 325.03415,143.48753 C 320.56504,140.86526 314.65496,136.9187 305.45564,130.41337 C 301.17627,127.38718 296.856,126.1237 293.15713,126.81667 C 290.32474,127.34718 287.67555,129.86249 281.32337,138.05181 C 278.91948,141.151 275.19617,145.0854 273.04931,146.79496 C 267.56164,151.16492 266.30989,152.3636 260.0879,159.20638 C 253.83638,166.08165 250.80409,167.71814 247.87156,165.79959 C 246.31716,164.78253 245.60878,161.8261 246.91954,161.8261 C 247.21453,161.8261 247.26294,161.32386 247.02697,160.70997 C 246.71604,159.90093 246.96622,159.65721 247.93637,159.82417 C 248.74383,159.9631 249.19932,159.68811 249.0846,159.13076 C 248.83885,157.93629 250.70185,156.076 251.89804,156.32137 C 252.45615,156.43586 252.73167,155.98112 252.59252,155.17487 C 252.42525,154.20607 252.66935,153.95627 253.47959,154.26675 C 254.26864,154.56917 254.59738,154.27569 254.59738,153.26894 C 254.59738,152.30383 254.99889,151.91014 255.83936,152.0511 C 256.73349,152.20092 257.14448,151.71017 257.30701,150.29853 C 257.4312,149.21998 257.83038,148.52129 258.19416,148.74585 C 258.85397,149.153 259.14212,148.15767 258.89119,146.33775 C 258.81834,145.80918 259.17971,145.52382 259.69421,145.70371 C 260.20879,145.88361 261.50797,145.06269 262.5814,143.87965 C 265.59212,140.56117 264.9974,134.86083 261.1872,130.51599 C 260.02701,129.19297 258.14582,129.53908 258.14582,131.07544 C 258.14582,131.61844 257.90631,132.02484 257.61357,131.97868 C 255.67637,131.67324 254.48604,132.16797 254.85403,133.12556 C 255.10729,133.78454 254.8505,134.18854 254.17835,134.18854 C 253.58213,134.18854 253.29158,134.50743 253.53281,134.89722 C 253.77406,135.28701 253.47358,135.6059 252.86503,135.6059 C 252.25649,135.6059 251.7586,135.28701 251.7586,134.89722 C 251.7586,134.50743 251.42038,134.18854 251.00707,134.18854 C 250.59367,134.18854 250.45287,134.50743 250.69411,134.89722 C 250.93535,135.28701 250.77567,135.6059 250.33921,135.6059 C 249.90281,135.6059 249.76524,135.96043 250.03347,136.39374 C 250.72222,137.50664 248.88065,138.45769 246.96608,137.97784 C 245.69605,137.65955 245.44776,137.81456 245.79213,138.7108 C 246.14561,139.6305 245.81198,139.79882 244.04355,139.59329 C 242.39615,139.40174 241.75475,139.66464 241.43789,140.66146 C 240.95955,142.1664 240.31928,142.32479 239.20622,141.2134 C 238.6751,140.68304 238.29209,140.67341 237.97702,141.18243 C 237.72534,141.58913 237.04695,141.74083 236.46953,141.51959 C 235.695,141.2228 235.54713,141.44908 235.90579,142.38223 C 236.28272,143.36328 236.12523,143.54505 235.2041,143.19202 C 234.44001,142.89922 234.0164,143.09294 234.0164,143.73524 C 234.0164,144.40776 233.37966,144.6581 232.06469,144.5024 C 230.99133,144.37536 229.42483,144.23501 228.58368,144.19051 C 226.66309,144.08902 223.37101,138.72103 223.37101,135.69085 C 223.37101,133.67066 227.47732,126.94176 231.46238,122.43175 C 232.28157,121.50461 234.06962,119.4663 235.43571,117.90212 C 236.80188,116.33787 238.27976,115.05733 238.71984,115.05649 C 239.15999,115.0556 239.91768,114.5765 240.40355,113.99186 C 240.88948,113.40722 241.88669,112.92895 242.61957,112.92895 C 243.35239,112.92895 243.95206,112.60216 243.95206,112.20276 C 243.95206,111.80335 244.74959,111.17375 245.72448,110.80366 C 246.81648,110.38907 248.11821,108.83135 249.1152,106.74636 C 250.4849,103.88186 251.00286,103.39901 252.48795,103.60259 C 253.45298,103.7349 254.90184,104.45245 255.70764,105.19707 C 257.44548,106.80296 260.15676,106.97429 260.7181,105.51363 C 261.18787,104.2912 272.48301,98.08643 278.45925,95.767709 C 282.0779,94.363879 283.8988,94.151809 292.21097,94.166769 C 301.46599,94.183389 301.94862,94.259239 306.40481,96.39745 C 308.94191,97.61493 314.65556,101.51782 319.10174,105.07062 C 330.06364,113.82985 334.45987,116.40004 340.0681,117.328 C 344.21471,118.01406 345.1876,117.91512 350.53871,116.26329 C 363.15835,112.36762 376.85069,109.21994 388.15857,107.61494 C 396.57395,106.4204 416.09253,106.23516 424.92304,107.2659 C 428.24084,107.65328 435.42646,108.29144 440.89107,108.68431 C 451.1727,109.42344 458.76343,110.80141 470.34323,114.03125 C 489.56387,119.39233 509.79026,122.23103 531.73143,122.6469 C 550.54867,123.00361 555.1294,122.46761 581.40974,116.83387 C 600.48024,112.74582 606.44867,112.01459 621.1524,111.96505 C 635.99157,111.91506 644.79602,113.11298 660.18538,117.27561 C 704.70134,129.31671 727.59437,139.35934 746.7766,155.26132 C 752.31665,159.85395 755.97698,165.36944 753.48482,165.36944 C 753.08083,165.36944 750.12676,163.43576 746.92017,161.0724 C 741.68778,157.21589 733.9652,153.09408 719.08966,146.21837 C 711.43683,142.68113 710.84026,142.48116 693.71823,137.71773 C 686.25614,135.64168 676.39539,133.62841 665.86289,132.03032 C 660.7886,131.26045 653.92234,130.16183 650.60454,129.58899 C 634.2355,126.76322 603.68793,130.57199 587.26854,137.48619 C 584.0462,138.84304 578.85486,140.90886 575.73222,142.07694 C 572.60958,143.24502 566.71155,145.65342 562.62549,147.42885 C 553.32865,151.46849 535.83259,156.43436 525.44734,157.98118 C 519.22643,158.90764 514.96168,159.06032 505.4729,158.6961 C 494.85357,158.28856 492.52109,158.41125 486.00378,159.71999 C 474.88423,161.953 465.90455,166.92804 464.96503,171.37627 C 464.71612,172.55472 463.90846,174.17708 463.17024,174.98139 C 461.84655,176.42356 461.85616,176.47069 463.86642,178.39383 C 464.98755,179.46637 467.07508,182.95398 468.5054,186.14399 C 474.39035,199.2692 477.03832,202.14136 488.88825,208.25269 C 495.29769,211.55823 497.43166,213.7905 498.36339,218.16421 C 500.80576,229.62925 503.16907,234.47056 506.00516,233.81848 C 507.81798,233.40179 507.60404,235.99437 505.74357,236.98864 L 504.24002,237.79204 L 505.91471,238.62582 C 507.9519,239.63994 508.28496,241.00347 507.16195,243.73167 C 506.69327,244.87028 506.38385,246.23877 506.47434,246.7729 C 506.8029,248.71213 501.1223,260.98183 499.63144,261.55309 C 499.13611,261.7429 498.73084,262.48301 498.73084,263.19785 C 498.73084,264.71136 497.16913,265.92643 496.76805,264.72498 C 496.57065,264.13364 496.07107,264.17244 494.95195,264.86615 C 492.77437,266.21593 486.255,266.19541 484.8921,264.83451 z"/><path style="fill:#954b23;fill-opacity:1" id="path4613" d="M 517.79612,264.83342 C 517.09422,264.13262 516.19098,263.99272 514.3606,264.30158 C 509.06408,265.19506 513.13798,260.71773 518.63105,259.60821 C 520.5703,259.21654 522.77293,258.65502 523.52578,258.36029 C 525.55795,257.56501 526.96695,255.00655 526.84088,252.3406 C 526.77983,251.04877 526.74937,248.45201 526.77322,246.57021 C 526.82885,242.18009 524.681,235.38423 521.96593,231.35969 C 520.80035,229.63192 519.34402,227.23619 518.72968,226.03579 C 517.06205,222.7773 509.77927,216.78201 503.46676,213.4712 C 502.09614,212.75222 498.84498,211.4184 496.24195,210.50701 L 491.50917,208.84993 L 488.39911,212.31312 C 485.16552,215.91391 483.92226,219.62826 485.19217,221.8941 C 485.66677,222.74095 485.48468,222.93047 484.19638,222.93047 C 482.98054,222.93047 482.536,223.32197 482.25368,224.6412 C 481.58914,227.74669 477.5986,235.23809 476.07952,236.23194 C 475.25898,236.76888 474.49714,237.82299 474.38654,238.57437 C 474.06928,240.73008 472.66809,240.70533 472.23368,238.53644 C 471.7561,236.15194 471.33941,236.14571 468.67357,238.48295 C 467.50279,239.50939 465.92485,240.34921 465.16703,240.34921 C 464.31314,240.34921 463.66528,240.82239 463.46335,241.59345 C 463.04313,243.19801 460.79081,243.26466 460.79081,241.67249 C 460.79081,239.31742 463.29952,234.97928 466.41292,231.9509 C 470.66224,227.81756 471.607,225.92777 471.99248,220.79055 L 472.31643,216.47332 L 475.11604,214.84189 C 476.65583,213.94473 479.16656,211.60194 480.69545,209.63592 L 483.47525,206.06138 L 480.32769,203.1426 C 478.59653,201.53734 476.65696,199.41236 476.01753,198.42034 C 473.96883,195.24222 469.12619,193.63309 459.85629,193.05033 C 450.72815,192.47642 447.50227,191.44761 443.98521,187.98864 L 441.82028,185.85944 L 438.68965,186.72245 C 434.01844,188.00998 419.51262,187.95246 416.01175,186.63252 C 411.57816,184.96078 411.02211,185.18077 405.63601,190.73688 C 400.33638,196.20385 399.11314,197.91897 399.11314,199.88272 C 399.11314,200.55972 398.72628,202.31314 398.25345,203.7793 C 397.78062,205.24536 396.74825,208.4745 395.95931,210.95507 C 395.17035,213.43572 394.29563,215.46524 394.01546,215.46524 C 393.73531,215.46524 393.48832,213.85558 393.46659,211.88824 C 393.43675,209.18523 393.29303,208.64347 392.87841,209.67114 C 391.88521,212.13274 387.17751,219.19786 386.53051,219.19786 C 386.18191,219.19786 386.04543,218.81092 386.22721,218.33783 C 386.40899,217.86483 387.13813,215.60145 387.84749,213.30812 C 388.55686,211.01479 389.52931,208.39248 390.00848,207.48065 C 392.92564,201.92971 393.77047,197.63672 391.09502,201.9594 C 389.66011,204.27776 383.54603,207.73901 379.79993,208.35366 C 377.38797,208.74947 377.30625,208.85669 382.04934,205.40238 C 383.11519,204.62615 384.59654,203.06286 385.34122,201.92857 C 386.08591,200.79411 387.33281,199.624 388.11214,199.32813 C 388.89147,199.03227 390.49401,197.4523 391.67334,195.81718 C 392.85267,194.18197 394.81116,191.84517 396.02554,190.62412 C 398.87488,187.75908 402.22817,183.42736 402.22817,182.6116 C 402.22817,182.26137 400.8965,181.47169 399.26889,180.85678 C 395.56472,179.4571 389.648,176.16042 386.20599,173.57843 C 382.87743,171.08154 381.66895,168.59174 381.66895,164.23122 L 381.66895,160.7755 L 377.46367,158.3082 C 373.54042,156.00626 368.35224,152.54159 360.27654,146.83092 C 356.51986,144.17427 352.72726,143.0652 349.48017,143.67343 C 346.99373,144.13924 344.66812,146.34729 339.09183,153.53633 C 336.98154,156.25708 333.713,159.71086 331.82841,161.21162 C 327.01099,165.04786 325.91214,166.10003 320.4501,172.10709 C 314.96216,178.14261 312.30025,179.57917 309.72592,177.89487 C 308.36138,177.00218 307.73955,174.40684 308.89019,174.40684 C 309.14917,174.40684 309.19163,173.9659 308.98452,173.42703 C 308.71156,172.71675 308.93119,172.50281 309.78283,172.64938 C 310.49165,172.77136 310.89149,172.52994 310.79081,172.04062 C 310.57505,170.99213 312.21053,169.35903 313.26059,169.57437 C 313.75057,169.67492 313.9924,169.27578 313.87023,168.56795 C 313.72345,167.7175 313.93768,167.49822 314.649,167.77072 C 315.34166,168.03619 315.63023,167.77863 315.63023,166.8948 C 315.63023,166.0476 315.98268,165.70194 316.72049,165.82568 C 317.50544,165.95724 317.86626,165.52639 318.00891,164.28725 C 318.1179,163.34046 318.46834,162.72712 318.78767,162.92419 C 319.36693,163.28162 319.61987,162.40781 319.39961,160.81028 C 319.33564,160.34624 319.65288,160.09577 320.10455,160.25368 C 320.55623,160.41158 321.69677,159.69092 322.63907,158.65237 C 325.28205,155.73929 324.75998,150.73513 321.41513,146.92093 C 320.39668,145.75952 318.74527,146.06337 318.74527,147.41211 C 318.74527,147.88879 318.535,148.24552 318.27801,148.20504 C 316.57747,147.93692 315.53249,148.37119 315.85554,149.2118 C 316.07786,149.79036 315.85243,150.14498 315.26241,150.14498 C 314.73897,150.14498 314.48395,150.42486 314.69573,150.7671 C 314.9075,151.10925 314.64369,151.38913 314.10949,151.38913 C 313.57529,151.38913 313.13821,151.10925 313.13821,150.7671 C 313.13821,150.42486 312.84131,150.14498 312.47844,150.14498 C 312.11555,150.14498 311.99193,150.42486 312.2037,150.7671 C 312.41547,151.10925 312.2753,151.38913 311.89219,151.38913 C 311.50909,151.38913 311.3883,151.70036 311.62375,152.0808 C 312.22839,153.05779 310.61176,153.8927 308.93105,153.47142 C 307.81613,153.19198 307.59816,153.32801 307.9005,154.11488 C 308.21077,154.92221 307.91793,155.07001 306.36549,154.88954 C 304.91929,154.72137 304.35625,154.95215 304.07811,155.82729 C 303.6582,157.14836 303.09606,157.28738 302.119,156.31179 C 301.65278,155.84616 301.31652,155.83774 301.03995,156.28456 C 300.81897,156.64164 300.22345,156.77478 299.71655,156.58052 C 299.03664,156.32004 298.90684,156.51869 299.22166,157.33788 C 299.5526,158.19904 299.41435,158.35861 298.60571,158.04869 C 297.93491,157.79164 297.56304,157.96175 297.56304,158.52565 C 297.56304,159.11597 297.00412,159.3357 295.84977,159.19905 C 294.90747,159.08751 293.53235,158.9643 292.79394,158.92523 C 291.1079,158.83617 288.21794,154.12384 288.21794,151.46377 C 288.21794,149.69034 291.8227,143.7833 295.32104,139.8242 C 296.04016,139.01028 297.60977,137.22095 298.80906,135.84779 C 300.00834,134.47464 301.30569,133.35055 301.69205,133.34975 C 302.07841,133.34896 302.74353,132.92839 303.1701,132.41517 C 303.59666,131.90195 304.47206,131.48209 305.11541,131.48209 C 305.75876,131.48209 306.28514,131.19518 306.28514,130.8446 C 306.28514,130.49393 306.98532,129.9412 307.8411,129.61635 C 308.79971,129.25242 309.94246,127.88498 310.81765,126.05463 C 312.02005,123.54 312.47477,123.11609 313.77848,123.2948 C 314.62562,123.41098 315.8975,124.04083 316.6049,124.69456 C 318.13047,126.10434 320.5106,126.25478 321.00337,124.97242 C 321.41575,123.89936 331.33125,118.4524 336.57752,116.417 C 339.75418,115.18453 341.35267,114.99844 348.64959,115.01153 C 356.77423,115.02611 357.19788,115.09277 361.10973,116.96983 C 363.33698,118.03851 368.35276,121.46472 372.25589,124.58356 C 381.87884,132.273 385.7381,134.52918 390.66133,135.3438 C 394.30145,135.94615 395.15552,135.85921 399.85302,134.40913 C 410.93127,130.98932 422.95119,128.22607 432.87788,126.81709 C 440.2654,125.76852 457.39992,125.60587 465.15184,126.51068 C 468.06441,126.85081 474.37235,127.41102 479.1695,127.75579 C 488.1953,128.40469 494.85888,129.61442 505.02428,132.44977 C 521.89727,137.15604 539.65316,139.64794 558.91437,140.01301 C 575.43321,140.32618 579.45444,139.85563 602.52482,134.91005 C 619.26599,131.32128 624.50541,130.67941 637.4132,130.63594 C 650.43988,130.59203 658.16893,131.64368 671.67859,135.29777 C 710.75724,145.86823 730.85407,154.68422 747.6933,168.64382 C 752.55666,172.67547 755.76992,177.51724 753.58218,177.51724 C 753.22754,177.51724 750.6343,175.81986 747.81934,173.7452 C 743.22607,170.35966 736.44674,166.74129 723.38814,160.70542 C 716.67002,157.60019 716.14634,157.42473 701.11568,153.24301 C 694.56498,151.42056 685.90869,149.65319 676.66264,148.25035 C 672.20817,147.57449 666.18054,146.61005 663.268,146.10728 C 648.89831,143.62654 622.08188,146.97019 607.66802,153.03979 C 604.83926,154.23098 600.282,156.04447 597.54077,157.06985 C 594.79954,158.09523 589.62191,160.20942 586.03494,161.76813 C 577.87364,165.3143 562.51459,169.6736 553.39783,171.03148 C 547.93675,171.84486 544.19292,171.97879 535.86312,171.65913 C 526.54086,171.30144 524.49328,171.40901 518.77202,172.55796 C 509.01065,174.5181 501.12776,178.88557 500.303,182.79048 C 500.08449,183.825 499.37548,185.2491 498.72742,185.95525 C 497.56541,187.22127 497.57385,187.26263 499.33858,188.95089 C 500.32276,189.8924 502.15531,192.95407 503.41093,195.75439 C 508.57708,207.27655 510.90162,209.79787 521.30417,215.1627 C 526.93073,218.06445 528.80405,220.02406 529.62199,223.86364 C 531.76603,233.92826 533.84069,238.17821 536.33037,237.60581 C 537.92177,237.24003 537.73396,239.51598 536.10074,240.38873 L 534.78082,241.09402 L 536.25096,241.82591 C 538.03932,242.71622 538.33172,243.91331 537.34586,246.30816 C 536.93443,247.30772 536.6628,248.5091 536.74224,248.97789 C 537.03067,250.68036 532.04391,261.45138 530.73515,261.95283 C 530.30032,262.11942 529.94456,262.76921 529.94456,263.39668 C 529.94456,264.7254 528.57359,265.79206 528.22151,264.73734 C 528.04821,264.21824 527.60965,264.25231 526.62723,264.86126 C 524.71562,266.04612 518.99254,266.02812 517.79612,264.83342 z"/><path style="fill:#be892c;fill-opacity:1" id="path4609" d="M 545.54664,264.94131 C 544.9283,264.32388 544.13257,264.20066 542.52007,264.47278 C 537.85401,265.25993 541.44298,261.31552 546.28219,260.33809 C 547.99061,259.99297 549.93105,259.49839 550.59428,259.23864 C 552.38456,258.53807 553.62583,256.28414 553.51478,253.93562 C 553.46098,252.79748 553.43415,250.50987 553.45516,248.85205 C 553.50418,244.98455 551.61199,238.99749 549.22011,235.45205 C 548.19326,233.92992 546.91029,231.81938 546.36907,230.76188 C 544.89995,227.89134 538.48406,222.60968 532.92296,219.69292 C 531.71549,219.0595 528.85132,217.88444 526.55814,217.08158 L 522.38872,215.62175 L 519.64886,218.67271 C 516.80018,221.84485 515.70491,225.11705 516.82366,227.11321 C 517.24177,227.85925 517.08135,228.02619 515.9464,228.02619 C 514.87528,228.02619 514.48367,228.37112 514.23495,229.53335 C 513.64951,232.26913 510.13398,238.86878 508.79572,239.74437 C 508.07285,240.21737 507.4017,241.14598 507.30426,241.80795 C 507.02477,243.70701 505.79037,243.68525 505.40767,241.77456 C 504.98693,239.67388 504.61984,239.66839 502.27132,241.72741 C 501.23991,242.63174 499.84979,243.37156 499.18218,243.37156 C 498.42993,243.37156 497.85919,243.78839 497.68129,244.46766 C 497.3111,245.88126 495.32687,245.93994 495.32687,244.53731 C 495.32687,242.46248 497.53696,238.64084 500.27977,235.97294 C 504.02327,232.33153 504.85558,230.66674 505.19517,226.14108 L 505.48056,222.33766 L 507.94693,220.90053 C 509.30343,220.11003 511.5153,218.04617 512.86219,216.31414 L 515.31111,213.16507 L 512.53821,210.5938 C 511.01312,209.17955 509.30442,207.30755 508.7411,206.43363 C 506.93626,203.63387 502.67007,202.21627 494.5036,201.70282 C 486.46202,201.19727 483.62011,200.2908 480.52171,197.24365 L 478.61448,195.36794 L 475.85651,196.12812 C 471.74131,197.26244 458.96217,197.21175 455.87802,196.04888 C 451.97219,194.57623 451.48233,194.77004 446.73736,199.66481 C 442.06855,204.48101 440.99093,205.99188 440.99093,207.72187 C 440.99093,208.31828 440.65011,209.86301 440.23357,211.15459 C 439.81703,212.44618 438.90754,215.29095 438.21251,217.47627 C 437.51746,219.66167 436.74685,221.4496 436.50004,221.4496 C 436.25323,221.4496 436.03564,220.03154 436.0165,218.29839 C 435.99022,215.91712 435.86361,215.43985 435.49833,216.34511 C 434.62336,218.51378 430.47604,224.73789 429.90604,224.73789 C 429.59894,224.73789 429.47871,224.39696 429.63885,223.98022 C 429.79899,223.56349 430.44133,221.56957 431.06627,219.54924 C 431.69121,217.52881 432.54789,215.21869 432.97002,214.41545 C 435.53995,209.52523 436.28421,205.74329 433.92722,209.55137 C 432.66311,211.59383 427.27682,214.64312 423.97663,215.18456 C 421.85178,215.53322 421.77979,215.62771 425.9583,212.58456 C 426.89727,211.90073 428.20229,210.52349 428.85832,209.5243 C 429.51437,208.52483 430.61285,207.49402 431.29942,207.23334 C 431.98598,206.97275 433.39776,205.58082 434.43671,204.14035 C 435.47567,202.69978 437.20103,200.64113 438.27085,199.5654 C 440.78103,197.04147 443.73516,193.22531 443.73516,192.5066 C 443.73516,192.19812 442.562,191.50248 441.12814,190.96067 C 437.86488,189.72758 432.65245,186.82337 429.62015,184.54869 C 426.68781,182.34905 425.62318,180.15565 425.62318,176.3141 L 425.62318,173.26974 L 421.91846,171.09614 C 418.46222,169.06819 413.89161,166.01602 406.77719,160.985 C 403.46768,158.64465 400.12652,157.6676 397.26595,158.20346 C 395.07548,158.61378 393.02669,160.55897 388.11416,166.89236 C 386.25508,169.28915 383.3756,172.33193 381.71534,173.65402 C 377.47136,177.03354 376.5033,177.96047 371.69144,183.25255 C 366.85674,188.56964 364.51169,189.83518 362.24378,188.35136 C 361.04167,187.56486 360.49387,185.27846 361.50754,185.27846 C 361.7357,185.27846 361.77309,184.89009 361.59064,184.41533 C 361.35018,183.78962 361.54365,183.60111 362.29393,183.73029 C 362.91838,183.8377 363.27062,183.62501 363.18192,183.19405 C 362.99184,182.27028 364.43265,180.83157 365.35771,181.02129 C 365.78937,181.10992 366.00241,180.75819 365.89479,180.13463 C 365.76548,179.38551 365.95421,179.19226 366.58086,179.43239 C 367.19107,179.66628 367.4453,179.43927 367.4453,178.66067 C 367.4453,177.91435 367.75579,177.60986 368.40578,177.71886 C 369.09728,177.83474 369.41515,177.45521 369.54083,176.36348 C 369.63684,175.52936 369.94557,174.98903 370.22688,175.16276 C 370.73719,175.47756 370.96002,174.7078 370.76599,173.30043 C 370.70963,172.8916 370.9891,172.67091 371.38702,172.81004 C 371.78493,172.94917 372.7897,172.31435 373.61984,171.39932 C 375.94822,168.83299 375.48828,164.42451 372.5416,161.06442 C 371.64437,160.04123 370.18953,160.30889 370.18953,161.49706 C 370.18953,161.91695 370.0043,162.23129 369.7779,162.19558 C 368.27977,161.95936 367.35917,162.34205 367.64377,163.08252 C 367.83963,163.59225 367.64105,163.90464 367.12125,163.90464 C 366.66011,163.90464 366.43546,164.15128 366.62203,164.45269 C 366.80858,164.7541 366.57619,165.00074 366.10557,165.00074 C 365.63495,165.00074 365.2499,164.7541 365.2499,164.45269 C 365.2499,164.15128 364.98834,163.90464 364.66866,163.90464 C 364.34899,163.90464 364.24006,164.15128 364.42663,164.45269 C 364.6132,164.7541 364.4897,165.00074 364.15221,165.00074 C 363.81471,165.00074 363.70829,165.2749 363.91571,165.61007 C 364.44838,166.4707 363.02418,167.20623 361.54353,166.83516 C 360.56133,166.58899 360.3693,166.70878 360.63565,167.40191 C 360.909,168.11326 360.65102,168.24337 359.28337,168.08443 C 358.00931,167.93628 357.51329,168.13967 357.26825,168.91055 C 356.89833,170.07445 356.40311,170.19693 355.54236,169.33742 C 355.13162,168.9272 354.83539,168.91976 354.59173,169.31343 C 354.39707,169.62795 353.87242,169.74532 353.42587,169.5742 C 352.82689,169.34468 352.71255,169.5197 352.98989,170.24129 C 353.28144,170.99998 353.15964,171.1406 352.44726,170.86755 C 351.85631,170.6411 351.5287,170.79092 351.5287,171.28772 C 351.5287,171.80778 351.03632,172.00141 350.01937,171.88097 C 349.18924,171.78267 347.9778,171.67414 347.32729,171.63982 C 345.84195,171.56133 343.29598,167.4099 343.29598,165.06649 C 343.29598,163.50409 346.47165,158.30027 349.55357,154.81231 C 350.1871,154.09537 351.56987,152.51902 352.6264,151.30928 C 353.68294,150.09953 354.82585,149.10927 355.16622,149.10862 C 355.50659,149.10797 356.09254,148.73746 356.46833,148.28529 C 356.84413,147.83312 357.61531,147.46326 358.18208,147.46326 C 358.74885,147.46326 359.21258,147.21049 359.21258,146.90164 C 359.21258,146.59278 359.82942,146.10584 360.58333,145.81958 C 361.42783,145.49901 362.43455,144.29438 363.20556,142.68185 C 364.26484,140.46659 364.66544,140.09311 365.81396,140.25056 C 366.56027,140.35295 367.68075,140.90779 368.30394,141.48364 C 369.64792,142.72566 371.74473,142.85818 372.17884,141.72851 C 372.54214,140.78317 381.27736,135.98455 385.89914,134.19142 C 388.69768,133.10574 390.10589,132.94169 396.53424,132.95331 C 403.69176,132.96605 404.06499,133.02483 407.5112,134.67846 C 409.47333,135.6199 413.89206,138.63831 417.33058,141.3859 C 425.80808,148.16002 429.20797,150.14762 433.54516,150.8653 C 436.752,151.39595 437.50439,151.31942 441.64274,150.04187 C 451.40231,147.02914 461.99145,144.59486 470.73654,143.35359 C 477.24468,142.42973 492.33961,142.28651 499.16881,143.08361 C 501.73467,143.38326 507.29175,143.87681 511.51789,144.18055 C 519.4693,144.75222 525.33971,145.81791 534.29508,148.3157 C 549.15962,152.46183 564.80196,154.65709 581.77043,154.97869 C 596.32298,155.25462 599.86554,154.84012 620.18977,150.48316 C 634.9382,147.32162 639.55394,146.75609 650.92527,146.71787 C 662.40135,146.67918 669.21034,147.60555 681.11193,150.82475 C 715.53892,160.13693 733.2435,167.90355 748.0783,180.2015 C 752.36282,183.75326 755.19355,188.0187 753.26624,188.0187 C 752.9538,188.0187 750.6692,186.52336 748.18938,184.69563 C 744.14284,181.71312 738.17047,178.52545 726.66628,173.20808 C 720.74787,170.47249 720.28651,170.31783 707.04497,166.63391 C 701.27407,165.02845 693.64813,163.47145 685.50271,162.23557 C 681.57845,161.64009 676.26834,160.79054 673.70247,160.34758 C 661.04324,158.16217 637.41892,161.10776 624.72074,166.45489 C 622.22872,167.50421 618.21393,169.10195 615.799,170.00525 C 613.38406,170.90856 608.82275,172.77107 605.66274,174.14422 C 598.47291,177.26828 584.94211,181.10871 576.91055,182.30497 C 572.09953,183.02153 568.80133,183.13955 561.46305,182.85785 C 553.25047,182.54268 551.44662,182.63763 546.40637,183.64975 C 537.80693,185.37657 530.86237,189.22408 530.13579,192.66424 C 529.94328,193.57564 529.31867,194.83021 528.74776,195.45229 C 527.72407,196.56764 527.73151,196.60409 529.28616,198.09135 C 530.15321,198.92081 531.76762,201.618 532.87377,204.08501 C 537.42498,214.23559 539.47282,216.4568 548.63712,221.18306 C 553.59393,223.73945 555.24426,225.4658 555.96484,228.84831 C 557.85367,237.71493 559.68137,241.45901 561.8747,240.95468 C 563.27666,240.63243 563.11121,242.63742 561.6724,243.40634 L 560.5096,244.02767 L 561.80474,244.67244 C 563.38023,245.45681 563.6378,246.51133 562.7693,248.62122 C 562.40685,249.50175 562.16756,250.56009 562.23754,250.97319 C 562.49163,252.47291 558.09846,261.96187 556.94549,262.40362 C 556.56243,262.55037 556.24901,263.12279 556.24901,263.67558 C 556.24901,264.84617 555.04124,265.78584 554.73105,264.85668 C 554.57839,264.39931 554.19203,264.42935 553.32656,264.96577 C 551.6425,266.00969 546.60066,265.99379 545.54664,264.94131 z"/></svg>