<svg 
  height="200.69495" 
  width="800" 
  viewBox="0,-100,1000, 600" 
  xmlns="http://www.w3.org/2000/svg" xmlns:svg="http://www.w3.org/2000/svg" xmlns:xlink="http://www.w3.org/1999/xlink">
 <!-- Created with SVG-edit - http://svg-edit.googlecode.com/ -->
 <defs>
  <symbol id="svg_158" 

    xmlns="http://www.w3.org/2000/svg" xmlns:svg="http://www.w3.org/2000/svg">

   <metadata id="svg_157">image/svg+xmlbike24.11.2006Krystof JetmarZS a MS Machovo nam.czbikedownhillkolofreeride</metadata>
   <g transform="translate(-126.507,-104.0945)" id="svg_105">
    <path fill="black" stroke="black" d="m71.381157,342.62955a58.124657,0 0 1 1 -116.249313,0a58.124657,0 0 1 1 116.249313,0z" id="svg_156"/>
    <g transform="translate(0,-2.845046e-6)" id="svg_106">
     <rect fill="black" stroke="black" stroke-width="2.55152" stroke-miterlimit="4" stroke-dashoffset="0" id="svg_155" width="9.352739" height="31.045532" x="293.88974" y="282.5545" transform="matrix(0.983899,-0.178724,0.219052,0.975713,0,0)"/>
     <rect fill="#c2c2c2" stroke="black" stroke-width="1.699999" stroke-miterlimit="4" stroke-dashoffset="0" id="svg_154" width="60.205273" height="3.965616" x="241.52957" y="516.88965" transform="matrix(0.928595,-0.371094,0.371094,0.928595,0,0)"/>
     <g stroke="black" id="svg_151" transform="matrix(0.605469,0.795869,-0.795869,0.605469,532.5595,-175.2438)">
      <rect fill="#616369" stroke="black" stroke-width="1.562712" stroke-linejoin="round" stroke-miterlimit="4" stroke-dashoffset="0" transform="matrix(-0.963107,0.26912,0.279779,0.960064,0,0)" y="537.3598" x="-325.35257" height="12.637286" width="96.945671" id="svg_153"/>
      <rect fill="black" stroke="black" stroke-width="2.637792" stroke-miterlimit="4" stroke-dashoffset="0" transform="matrix(-0.177925,0.984044,0.681337,0.73197,0,0)" y="556.50952" x="27.59313" height="14.625752" width="40.062759" id="svg_152"/>
     </g>
     <g stroke="black" id="svg_146" transform="translate(425.0673,121.4716)">
      <g stroke="black" id="svg_147" transform="translate(18.74657,4.326131)">
       <path fill="black" stroke="black" stroke-width="7.600323" stroke-miterlimit="4" id="svg_150" d="m150.92016,338.55063l-47.32851,-51.39911l33.08954,61.53811l-40.513293,-56.92565l25.115853,65.20008l-33.059161,-61.55444l16.746071,67.83381l-25.083664,-65.21247l8.112187,69.39776l-16.712576,-67.84207l-0.649626,69.86727l-8.077927,-69.40176l-9.401193,69.23492l0.684117,-69.86694l-18.004499,67.51071l9.435371,-69.23028l-26.323862,64.7218l18.037824,-67.5018l-34.228083,60.91219l26.35581,-64.7088l-41.592506,56.14197l34.258149,-60.89529l-48.300991,50.48635l41.620217,-56.12143l-54.24774,44.03453l48.325908,-50.4625l-59.33897,36.88826l54.269472,-44.00774l-63.494389,29.16023l59.357173,-36.85895l-66.648463,20.97234l63.508776,-29.12889l-68.751451,12.4537l66.658808,-20.93943l-69.770188,3.73865l68.757591,-12.41976l-69.688608,-5.03534l69.772025,-3.70422l-68.507996,-13.72993l69.686114,5.06974l-66.246973,-22.208l68.50121,13.76376l-62.941195,-30.33584l66.236001,22.24071l-58.642796,-37.98525l62.926211,30.3669l-53.419566,-45.03562l58.624037,38.0142l-47.353878,-51.37574l53.397328,45.06198l-40.541391,-56.90565l47.32851,51.39912l-33.089541,-61.53811l40.513293,56.92565l-25.115849,-65.20009l33.059157,61.55444l-16.746066,-67.833809l25.083659,65.212479l-8.112187,-69.397766l16.712576,67.842076l0.649626,-69.86727l8.077927,69.40176l9.401193,-69.234925l-0.684116,69.866935l18.004498,-67.5107l-9.435371,69.23027l26.323863,-64.721796l-18.037825,67.501806l34.228085,-60.91219l-26.355812,64.70879l41.592502,-56.14196l-34.25814,60.89528l48.30099,-50.48634l-41.62022,56.12142l54.24774,-44.03452l-48.32591,50.46249l59.33897,-36.88825l-54.26947,44.00774l63.49439,-29.16024l-59.35717,36.85896l66.64846,-20.97234l-63.50878,29.12888l68.75145,-12.4537l-66.6588,20.93944l69.77018,-3.73866l-68.75759,12.41976l69.68861,5.03535l-69.77203,3.70421l68.508,13.72994l-69.68611,-5.06975l66.24697,22.208l-68.50121,-13.76375l62.94119,30.33583l-66.236,-22.2407l58.6428,37.98525l-62.92621,-30.3669l53.41957,45.03561l-58.62404,-38.01419l47.35388,51.37574l-53.39733,-45.06198l40.54139,56.90564z" transform="matrix(1.021404,0,0,1.021404,-235.8368,141.7485)"/>
       <path fill="black" fill-rule="evenodd" stroke="black" stroke-width="1px" id="svg_149" d="m2.039459,283.48517a127.46635,136.64392 0 1 1 -254.932689,0a127.46635,136.64392 0 1 1 254.932689,0z" transform="matrix(1.055106,0,0,0.984241,-39.08068,98.34438)"/>
       <path fill="white" fill-rule="evenodd" stroke="black" stroke-width="1px" id="svg_148" d="m2.039459,283.48517a127.46635,136.64392 0 1 1 -254.932689,0a127.46635,136.64392 0 1 1 254.932689,0z" transform="matrix(0.800072,0,0,0.746336,-70.96418,165.7251)"/>
      </g>
     </g>
     <path fill="none" fill-rule="evenodd" stroke="black" stroke-width="3" stroke-miterlimit="4" stroke-dashoffset="0" d="m444.32613,415.66671l-184.06062,67.80864l-6.62792,13.25583l5.0984,17.84438l27.02149,9.17711l-12.23615,24.11467l4.07872,5.96585l152.44197,-58.63153l20.39358,5.60823l-6.10947,-85.14318z" id="svg_145"/>
     <path fill="#616369" stroke="black" stroke-width="1.7" stroke-linejoin="round" stroke-miterlimit="4" id="svg_144" d="m145.30423,356.10669a13.510744,14.275503 0 1 1 -27.02149,0a13.510744,14.275503 0 1 1 27.02149,0z" transform="matrix(1.324745,0,0,1.233431,94.63049,59.93993)"/>
     <rect fill="#616369" stroke="black" stroke-width="1.700003" stroke-linejoin="round" stroke-miterlimit="4" id="svg_143" width="4.830134" height="20.903448" x="-127.04951" y="559.35846" transform="matrix(0.76303,-0.646364,0.646364,0.76303,0,0)"/>
     <path fill="#c2c2c2" fill-rule="evenodd" stroke="black" stroke-width="3" stroke-miterlimit="4" d="m412.42446,461.48024c0,0 4.68664,-36.48806 4.68664,-38.6129c0,-2.12484 -15.50197,-36.01286 -15.50197,-36.01286l12.61788,-5.40766l20.18861,32.08547l-7.21022,46.86641l-16.43723,1.08154l1.65629,0z" id="svg_142"/>
     <path fill="#ff6a00" fill-rule="evenodd" stroke="black" stroke-width="3" stroke-miterlimit="4" d="m652.49404,232.31819l-10.11774,5.69123l-167.57512,239.66404l-211.72168,34.43195l-3.91667,-23.27476l185.1633,-36.17384l44.61115,-63.5722l-47.52294,-57.17205l-78.56046,-48.78038l-9.49526,-41.3286l12.82495,-0.25492l2.06083,8.84144l80.63006,28.0903l175.45167,-102.44215l28.16791,56.27994z" id="svg_141"/>
     <path fill="white" fill-rule="evenodd" stroke="black" stroke-width="3" stroke-miterlimit="4" d="m370.49787,261.97222c2.52944,0 66.63657,26.38088 66.63657,26.38088l-0.18813,24.42476l-63.34232,-38.13115l-3.10612,-12.67449z" id="svg_140"/>
     <path fill="white" fill-rule="evenodd" stroke="black" stroke-width="3" stroke-miterlimit="4" d="m501.0589,373.6543l-39.72866,-48.76706l-0.55307,-25.23796l152.44124,-88.76475l-112.15951,162.76977z" id="svg_139"/>
     <path fill="#616369" stroke="black" stroke-width="2.520793" stroke-linejoin="round" stroke-miterlimit="4" id="svg_138" d="m209.09632,151.41458a41.09824,43.261307 0 1 1 -82.19648,0a41.09824,43.261307 0 1 1 82.19648,0z" transform="matrix(1.223764,0,0,1.157365,261.6166,280.6729)"/>
     <path fill="black" stroke="black" stroke-width="0.460618" stroke-miterlimit="4" id="svg_137" d="m818.86838,407.25992a0.519806,0.346538 0 1 1 -1.03961,0a0.519806,0.346538 0 1 1 1.03961,0z" transform="matrix(5.323624,0,0,7.968065,-4085.098,-2746.813)"/>
     <rect fill="#616369" stroke="black" stroke-width="1.700001" stroke-linejoin="round" stroke-miterlimit="4" id="svg_136" width="4.830129" height="20.903427" x="446.54715" y="398.5141" transform="matrix(0.937849,0.347044,-0.347044,0.937849,0,0)"/>
     <path fill="#616369" stroke="black" stroke-width="3" stroke-linejoin="round" stroke-miterlimit="4" id="svg_135" d="m113.69418,351.77307a4.843474,4.843474 0 1 1 -9.68695,0a4.843474,4.843474 0 1 1 9.68695,0z" transform="translate(173.0829,174.7838)"/>
     <path fill="#616369" stroke="black" stroke-width="1.7" stroke-linejoin="round" stroke-miterlimit="4" id="svg_134" d="m113.69418,351.77307a4.843474,4.843474 0 1 1 -9.68695,0a4.843474,4.843474 0 1 1 9.68695,0z" transform="translate(169.2591,196.7878)"/>
     <path fill="#da8809" stroke="black" stroke-width="2" stroke-linejoin="round" stroke-miterlimit="4" stroke-dashoffset="0" id="svg_133" d="m96.869482,349.47879a8.157431,8.157431 0 1 1 -16.314861,0a8.157431,8.157431 0 1 1 16.314861,0z" transform="matrix(1.139187,0,0,1.139187,327.3246,104.3136)"/>
     <path fill="black" fill-rule="evenodd" stroke="black" stroke-width="1px" d="m446.86673,401.33782l5.09839,12.28954l-23.45261,20.90341l-9.17711,-6.62791l2.03009,-16.56504l25.50124,-10z" id="svg_132"/>
     <g stroke="black" stroke-width="3" stroke-miterlimit="4" id="svg_129" transform="matrix(0.793065,0.609137,-0.609137,0.793065,365.3628,-172.5595)">
      <rect fill="#616369" stroke="black" stroke-width="3" stroke-linejoin="round" stroke-miterlimit="4" stroke-dashoffset="0" y="429.31308" x="458.1351" height="12.657159" width="98.820015" id="svg_131"/>
      <rect fill="black" stroke="black" stroke-width="3.33507" stroke-miterlimit="4" stroke-dashoffset="0" transform="matrix(0.450479,0.892787,-0.457706,0.889104,0,0)" y="-375.09671" x="834.0719" height="14.636843" width="40.445957" id="svg_130"/>
     </g>
     <path fill="black" stroke="black" stroke-width="3" stroke-miterlimit="4" stroke-dashoffset="0" id="svg_128" d="m462.40985,364.54438c0.01099,0.04807 2.13118,-1.87478 2.14303,-1.82653c0.03075,0.12291 -1.26794,2.0037 -1.23681,2.12669c0.05419,0.19356 1.42545,-1.37302 1.47305,-1.1807c0.06016,0.24073 0.10395,0.47681 0.15592,0.71523c0.05853,0.28696 0.12377,0.57599 0.18564,0.86396c0.07576,0.34731 0.15671,0.69604 0.23506,1.04404c0.09534,0.41986 0.19597,0.84097 0.29395,1.26144c0.1133,0.4854 0.23241,0.97206 0.34861,1.45804c0.13906,0.55023 0.28892,1.1018 0.43338,1.65269c0.181,0.55979 0.24266,1.09378 0.36286,1.63562c0.08273,0.42401 0.02341,0.73577 0.03499,1.09958c-0.01766,0.34415 -0.0229,0.70101 -0.03434,1.05154c-0.00974,0.40118 -0.0182,0.80361 -0.02732,1.20541c-0.00559,0.42665 -0.02195,0.8425 -0.03292,1.26369c-0.00216,0.45021 -0.05614,0.84481 -0.08417,1.2666c-0.02628,0.43523 -0.13148,0.77111 -0.19698,1.15521c-0.06609,0.36737 -0.21678,0.60426 -0.32473,0.90508c-0.30875,2.39562 -1.7925,2.55989 -2.67342,3.8011c-0.17099,0.15807 -0.40913,0.13544 -0.61209,0.20262c-0.21317,0.03825 -0.46452,-0.06611 -0.69585,-0.09903c-0.22701,-0.0219 -0.48995,-0.25956 -0.73333,-0.38849c-0.25744,-0.15929 -0.51877,-0.49193 -0.77624,-0.73609c-0.2656,-0.27824 -0.52041,-0.64471 -0.78001,-0.96632c-0.27701,-0.34091 -0.52805,-0.78156 -0.79116,-1.17099c-0.29055,-0.44735 -0.54807,-0.96472 -0.82155,-1.44609c-0.30098,-0.55157 -0.57133,-1.14417 -0.85425,-1.71915c-0.29648,-0.61677 -0.57401,-1.25241 -0.85938,-1.87994c-0.2769,-0.59848 -0.51035,-1.22759 -0.76171,-1.84313c-0.21118,-0.53236 -0.39476,-1.0762 -0.59208,-1.61412c-0.15639,-0.42604 -0.2811,-0.85879 -0.42159,-1.28798c-0.09394,-0.29691 -0.18854,-0.59372 -0.28282,-0.89058c-0.05704,-0.17283 -0.10475,-0.3464 -0.15712,-0.51959c-0.03933,-0.15485 -0.1182,-0.29839 -0.1763,-0.44504c0.76238,-1.05877 1.21842,0.34591 1.98081,-0.71285c0.10087,0.13864 -0.33326,1.11873 -0.04796,0.60174c0.58357,-1.05746 0.80238,-1.1224 0.78981,-0.94493c-0.09759,1.37791 0.17488,-0.67278 0.25589,-0.43562c0.10293,0.30998 0.1953,0.6214 0.29292,0.93201c0.12476,0.38286 0.2144,0.76561 0.32143,1.1478c0.11322,0.42429 0.1967,0.84228 0.29501,1.26323c0.10015,0.44675 0.17809,0.88596 0.2671,1.32879c0.09909,0.47959 0.1595,0.94201 0.23913,1.41244c0.08076,0.49989 0.12344,0.97759 0.18509,1.46596c0.06163,0.51543 0.09033,1.00775 0.13549,1.51151c0.05912,0.52766 0.0626,1.01259 0.09386,1.5181c0.02794,0.50034 -0.01423,0.93385 -0.02132,1.39981c-0.01327,0.4622 -0.09128,0.84985 -0.13684,1.27403c-0.04947,0.4336 -0.16784,0.7745 -0.2516,1.16098c-0.09546,0.38701 -0.24088,0.69701 -0.36118,1.04515c-0.13067,0.35131 -0.30049,0.63554 -0.45374,0.94776c-0.8423,1.49523 -1.81782,2.74051 -2.73079,4.09973c-0.18527,0.27609 -0.43223,0.41947 -0.65345,0.61622c-0.20659,0.18484 -0.47809,0.20118 -0.7159,0.30126c-0.23913,0.0726 -0.52344,-0.00762 -0.78439,-0.01141c-0.26535,-0.01589 -0.56215,-0.17207 -0.84247,-0.2579c-0.28036,-0.08903 -0.58586,-0.35134 -0.87718,-0.52605c-0.29042,-0.19321 -0.58612,-0.50913 -0.87839,-0.76298c-0.30688,-0.27914 -0.60933,-0.65622 -0.91341,-0.98372c-0.30109,-0.30922 -0.5754,-0.77393 -0.86185,-1.15924c-0.24566,-0.3491 -0.46809,-0.76207 -0.70157,-1.14217c-0.2445,-0.41515 -0.46703,-0.86862 -0.70029,-1.30249c-0.24288,-0.4608 -0.45762,-0.95559 -0.68614,-1.43276c-0.22475,-0.48196 -0.42246,-0.98606 -0.63343,-1.4785c-0.20711,-0.49174 -0.37375,-1.00259 -0.56032,-1.50306c-0.14949,-0.43771 -0.28934,-0.87743 -0.43401,-1.31615c-0.10401,-0.31292 -0.20953,-0.62552 -0.31432,-0.93827c-0.06624,-0.20128 -0.13566,-0.40176 -0.20348,-0.60264c-0.02003,-0.05223 -0.03117,-0.10655 -0.04678,-0.15983c1.09887,2.31194 1.6622,-1.81617 2.36036,-2.98189c-0.036,0.02641 0.01406,0.17627 0.02005,0.25166c0.03538,0.19493 0.08282,0.39391 0.12421,0.59082c0.06166,0.27962 0.1288,0.56065 0.1932,0.84096c0.08255,0.35498 0.16914,0.71084 0.25371,1.06624c0.10948,0.43848 0.20811,0.87474 0.31213,1.31195c0.11024,0.48013 0.19094,0.9502 0.28634,1.425c0.09975,0.49212 0.15329,0.962 0.22986,1.44252c0.07836,0.49971 0.10398,0.96599 0.15587,1.44806c0.05042,0.49444 0.02907,0.92873 0.04358,1.39194c0.01139,0.46856 -0.0602,0.84867 -0.09021,1.27169c-0.03595,0.4252 -0.12157,0.78857 -0.18228,1.18236c-0.07152,0.38963 -0.18209,0.72395 -0.27313,1.08591c-0.08555,0.39086 -0.20867,0.72657 -0.31294,1.08961c-0.11038,0.37034 -0.26672,0.66646 -0.39997,0.99939c-0.7705,1.59256 -1.75715,2.80467 -2.65287,4.15634c-0.17913,0.27456 -0.40912,0.44218 -0.61777,0.65402c-0.19082,0.23488 -0.46869,0.25483 -0.70205,0.38171c-0.2206,0.10001 -0.49692,0.02219 -0.74434,0.03324c-0.23514,0.01071 -0.51115,-0.15945 -0.76519,-0.23868c-0.25312,-0.09933 -0.5242,-0.33678 -0.78506,-0.50438c-0.26561,-0.18812 -0.52707,-0.55868 -0.78858,-0.83586c-0.25629,-0.29918 -0.50362,-0.65358 -0.75513,-0.97995c-0.26322,-0.34776 -0.50913,-0.75901 -0.76329,-1.13791c-0.2635,-0.40451 -0.50836,-0.85378 -0.76236,-1.28035c-0.26917,-0.45454 -0.51892,-0.94497 -0.77818,-1.41709c-0.27066,-0.50016 -0.52026,-1.03 -0.78023,-1.5447c-0.26989,-0.54193 -0.51941,-1.1063 -0.77901,-1.6592c-0.24229,-0.5497 -0.49428,-1.09043 -0.74134,-1.63545c-0.18372,-0.40902 -0.38786,-0.79442 -0.58152,-1.19108c-0.12083,-0.25844 -0.27281,-0.44982 -0.40799,-0.67272c-0.0836,-0.15126 -0.18002,-0.173 -0.26063,-0.25046c-0.11975,-0.13739 -0.05449,0.11774 -0.07902,0.17072c1.213,0.41677 1.49894,-1.0662 2.18205,-2.13094c0.01408,0.24092 -0.03278,-0.51939 0.00908,-0.26369c0.0666,0.34614 0.14287,0.69564 0.2143,1.04344c0.08353,0.40015 0.17385,0.80235 0.26077,1.20354c0.09805,0.44861 0.20159,0.89873 0.30237,1.34809c0.11124,0.49302 0.22699,0.98716 0.34048,1.48074c0.13346,0.55031 0.24009,1.09339 0.36008,1.63981c0.12645,0.55128 0.18156,1.07177 0.2721,1.6063c0.08594,0.52371 0.08302,0.9863 0.12436,1.47778c0.03258,0.48101 -0.00604,0.89572 -0.00905,1.34253c-0.01194,0.44771 -0.0952,0.81232 -0.1427,1.21757c-0.05582,0.40586 -0.16843,0.73404 -0.25251,1.10051c-0.07989,0.36648 -0.23312,0.61775 -0.34939,0.92581c-0.78587,1.51601 -1.74614,2.73599 -2.62576,4.06022c-0.18272,0.23289 -0.40413,0.38159 -0.60598,0.57217c-0.20679,0.20203 -0.48237,0.22926 -0.72271,0.3435c-0.28018,0.07163 -0.6007,0.00591 -0.9045,-0.0036c-0.31305,-0.00021 -0.6602,-0.14034 -0.99294,-0.22344c-0.32672,-0.09317 -0.67316,-0.29454 -1.01096,-0.45088c-0.33442,-0.15741 -0.68395,-0.45103 -1.02665,-0.68695c-0.33987,-0.24469 -0.68351,-0.59249 -1.02516,-0.89686c-0.3376,-0.30859 -0.67145,-0.70665 -1.00651,-1.0669c-0.33466,-0.36768 -0.65962,-0.81078 -0.98834,-1.22194c-0.33167,-0.42061 -0.6484,-0.90753 -0.97108,-1.36606c-0.31743,-0.45365 -0.60248,-0.99308 -0.90293,-1.48834c-0.27905,-0.46844 -0.5207,-0.99703 -0.78055,-1.49463c-0.24306,-0.46925 -0.44568,-0.97998 -0.66806,-1.46898c-0.10361,-0.23988 -0.19869,-0.48544 -0.29797,-0.72807l2.28144,-3.16273c0.0934,0.2308 0.18234,0.46461 0.28028,0.69266c0.20682,0.46071 0.39366,0.94263 0.62137,1.38421c0.24476,0.4699 0.47165,0.96998 0.7352,1.41149c0.28181,0.46168 0.54821,0.96922 0.84721,1.38799c0.3105,0.43091 0.61365,0.90018 0.93253,1.29416c0.31591,0.38262 0.62743,0.80976 0.94872,1.14905c0.3207,0.3294 0.64075,0.71132 0.96325,0.98942c0.3258,0.27152 0.65565,0.60382 0.97874,0.81572c0.32368,0.19745 0.65847,0.47041 0.97295,0.59356c0.32308,0.13152 0.6556,0.30975 0.96605,0.37581c0.31769,0.05562 0.64952,0.16503 0.94915,0.14904c0.28201,-0.02766 0.59249,0.02824 0.83634,-0.11795c0.22019,-0.14779 0.47472,-0.21709 0.66209,-0.44443c0.18526,-0.21799 0.40364,-0.37058 0.55658,-0.65495c-3.70834,5.59617 -2.48852,3.79461 -1.69791,2.53837c0.13103,-0.27591 0.29036,-0.50447 0.39341,-0.82843c0.09549,-0.34051 0.21706,-0.64394 0.28673,-1.02247c0.06177,-0.37354 0.15305,-0.71074 0.18555,-1.12196c0.01935,-0.41096 0.07695,-0.78493 0.05817,-1.23633c-0.02229,-0.45174 -0.00783,-0.87567 -0.06703,-1.35776c-0.0741,-0.50132 -0.11047,-0.98519 -0.22276,-1.50702c-0.11274,-0.52977 -0.20785,-1.05498 -0.33853,-1.59051c-0.11515,-0.49515 -0.23227,-0.99077 -0.34546,-1.48543c-0.10284,-0.45158 -0.20801,-0.90376 -0.30853,-1.35474c-0.08955,-0.40437 -0.18186,-0.80957 -0.26863,-1.21316c-0.07519,-0.35309 -0.15359,-0.70715 -0.2256,-1.05924c-0.05942,-0.28752 -0.11816,-0.57484 -0.17824,-0.86256c0.38774,-0.71693 -0.4142,-5.00642 4.0575,0.76498c0.11447,0.09754 -1.69151,-4.45458 -1.57379,-4.3177c0.1336,0.17257 -0.1244,1.3239 0.00191,1.53919c0.16174,0.27869 0.74245,-0.49194 0.88824,-0.17917c0.20158,0.41799 0.41475,0.82387 0.6052,1.255c0.24795,0.54946 0.49909,1.09618 0.74391,1.64867c0.25296,0.5389 0.49593,1.08917 0.75908,1.61721c0.25196,0.49817 0.49361,1.01142 0.75617,1.49508c0.25086,0.45485 0.49221,0.92822 0.75296,1.36525c0.24365,0.40583 0.47816,0.8351 0.73135,1.21819c0.24011,0.35186 0.47235,0.73706 0.72124,1.05688c0.23861,0.30189 0.47355,0.63288 0.71655,0.9066c0.22474,0.21249 0.45533,0.53306 0.67959,0.64261c0.23797,0.12743 0.48855,0.32865 0.71557,0.38318c0.23014,0.03938 0.48061,0.15222 0.69272,0.11854c0.22341,-0.04944 0.47893,-0.00964 0.67229,-0.14884c0.21156,-0.16017 0.45797,-0.24342 0.63644,-0.48187c0.19414,-0.23642 0.41009,-0.4299 0.57535,-0.72484c-3.69767,5.59116 -2.44145,3.75596 -1.66128,2.44913c0.14199,-0.31238 0.30525,-0.5895 0.4262,-0.93766c0.11203,-0.34461 0.24954,-0.65124 0.33633,-1.03463c0.09502,-0.35233 0.18507,-0.71179 0.28503,-1.05692c0.07127,-0.36984 0.17225,-0.70169 0.21405,-1.1108c0.04438,-0.39207 0.11262,-0.75631 0.13318,-1.17655c0.00103,-0.42998 0.03763,-0.82836 0.00311,-1.29218c-0.03896,-0.4538 -0.04514,-0.88523 -0.117,-1.36305c-0.06648,-0.45896 -0.10798,-0.90556 -0.19963,-1.37802c-0.08746,-0.45684 -0.15491,-0.90668 -0.26258,-1.3714c-0.09829,-0.4226 -0.17785,-0.84203 -0.29531,-1.26957c-0.08684,-0.35683 -0.17508,-0.71393 -0.26048,-1.07049c-0.06752,-0.28348 -0.13653,-0.56728 -0.20257,-0.85041c-0.04776,-0.20615 -0.0971,-0.41268 -0.14334,-0.61844c-0.03391,-0.13621 -0.05679,-0.27202 -0.1019,-0.40944c0.24966,-0.43025 0.98711,-5.93623 2.39079,-3.06973c0.04949,0.12405 0.11866,0.24333 0.15099,0.37846c0.06663,0.20343 0.13042,0.40719 0.19988,0.61014c0.10369,0.31597 0.20476,0.63235 0.31108,0.94784c0.13933,0.4321 0.27915,0.86413 0.41802,1.29631c0.17209,0.4726 0.32434,0.95484 0.517,1.41985c0.20001,0.47065 0.38619,0.9534 0.60068,1.41353c0.2152,0.45125 0.41619,0.92077 0.64633,1.35537c0.22181,0.41049 0.43276,0.84116 0.66593,1.23236c0.21734,0.35016 0.42514,0.72948 0.65301,1.05198c0.26067,0.34097 0.51076,0.76441 0.7853,1.02726c0.2884,0.29851 0.57615,0.65006 0.86653,0.89693c0.27287,0.21909 0.55112,0.50264 0.82035,0.65869c0.26827,0.1348 0.55181,0.35291 0.80703,0.40548c0.26161,0.05415 0.54181,0.17956 0.78641,0.16276c0.23916,-0.03241 0.50703,0.01903 0.71941,-0.0975c0.21681,-0.13348 0.46375,-0.19626 0.65165,-0.40117c0.20386,-0.22523 0.42905,-0.40685 0.60451,-0.6913c-0.53619,0.81562 -2.13862,3.2742 -1.60816,2.44764c0.15991,-0.29443 0.3434,-0.54761 0.48007,-0.88398c0.12979,-0.32606 0.28223,-0.61614 0.38963,-0.9788c0.09651,-0.35735 0.2262,-0.66811 0.28985,-1.07317c0.05844,-0.39576 0.14755,-0.75467 0.1755,-1.18865c0.02134,-0.43536 0.07686,-0.83654 0.0641,-1.30796c-0.0192,-0.47987 -0.00173,-0.93094 -0.0577,-1.44194c-0.04118,-0.49401 -0.07703,-0.98407 -0.12352,-1.48187c-0.05377,-0.47067 -0.09281,-0.93216 -0.16134,-1.41231c-0.07092,-0.45089 -0.12081,-0.89157 -0.21283,-1.35304c-0.08345,-0.42994 -0.1573,-0.85652 -0.25041,-1.29012c-0.08928,-0.40093 -0.16699,-0.79922 -0.26795,-1.20338c-0.09515,-0.35599 -0.17422,-0.71122 -0.28564,-1.06869c-0.09366,-0.29913 -0.18305,-0.59886 -0.28098,-0.89751c-0.0734,-0.21894 -0.14227,-0.43907 -0.22026,-0.65697c-0.04626,-0.12014 -0.08412,-0.24583 -0.13912,-0.36137c0.02934,0.04948 0.06125,0.09457 0.08801,0.14846c0.75249,-1.05078 3.61162,-1.11859 2.41217,-1.23908c0.04728,0.16807 -0.0952,-0.19879 -0.05143,-0.03081c0.09185,0.29759 0.13906,-0.93601 0.235,-0.63877c0.12963,0.41287 0.24927,0.82735 0.38891,1.23868c0.18846,0.52453 0.3632,1.05459 0.56556,1.57407c0.23899,0.58791 0.45254,1.1948 0.71796,1.76624c0.2786,0.61372 0.54883,1.23612 0.83922,1.83844c0.27125,0.5495 0.53,1.11684 0.81919,1.64273c0.2579,0.44931 0.50035,0.93515 0.77496,1.35009c0.24422,0.35248 0.47841,0.75308 0.73457,1.06025c0.24035,0.28575 0.47677,0.62298 0.72258,0.85909c0.2244,0.18472 0.45818,0.46819 0.67771,0.55785c0.21305,0.07761 0.44762,0.24682 0.64322,0.2343c0.20613,-0.00899 0.4396,0.06574 0.62058,-0.02712c0.17863,-0.10751 0.3855,-0.14899 0.53727,-0.32335c-0.5744,0.89542 -1.10718,1.87146 -1.71926,2.69374c0.12682,-0.26006 0.2973,-0.44792 0.38129,-0.78184c0.08284,-0.3455 0.21479,-0.6254 0.24917,-1.03916c0.03949,-0.3962 0.11206,-0.75586 0.11868,-1.19024c0.01321,-0.41535 0.04263,-0.81413 0.03965,-1.24591c0.00885,-0.40065 0.01815,-0.80083 0.02658,-1.20191c0.00769,-0.35592 0.01431,-0.71274 0.02309,-1.06756c0.01616,-0.30962 0.03701,-0.61424 0.04854,-0.92882c-0.08205,-0.46239 -0.06875,-0.91386 -0.25297,-1.42543c-0.14787,-0.5555 -0.29642,-1.11108 -0.44362,-1.66653c-0.12095,-0.49249 -0.25053,-0.98729 -0.36309,-1.47855c-0.10037,-0.42223 -0.20267,-0.8449 -0.30117,-1.26674c-0.08115,-0.35095 -0.16506,-0.70258 -0.24351,-1.05289c-0.06523,-0.29228 -0.133,-0.5853 -0.19567,-0.87689c-0.0485,-0.22908 -0.09619,-0.45809 -0.14547,-0.68711c-0.04164,-0.17796 -0.07551,-0.35371 -0.12472,-0.53291c-0.03213,-0.12178 -0.06384,-0.24353 -0.09637,-0.36533c-0.01279,-0.04705 -0.02476,-0.09405 -0.03839,-0.14115l0.29235,-1.01719z"/>
     <path fill="#b7b7b7" fill-rule="evenodd" stroke="black" stroke-width="1px" d="m366.82194,241.81148l-14.2755,0l1.01968,4.33364l14.2755,-0.25492l-1.01968,-4.07872z" id="svg_127"/>
     <path fill="black" stroke="black" stroke-width="3.452227" stroke-linejoin="round" stroke-miterlimit="2" stroke-dashoffset="0" id="svg_126" d="m309.67797,211.62538c0.04784,0.0021 0.09577,0.00183 0.14366,0.00276c0.13612,0.00225 0.27227,0.00217 0.40842,0.00325c0.21384,-0.00837 0.42173,0.05706 0.6305,0.0853c0.27065,0.03937 0.50568,0.18413 0.75694,0.27562c0.26931,0.114 0.51605,0.2733 0.77378,0.40978c0.28248,0.17959 0.56341,0.36164 0.84516,0.54251c0.32304,0.20061 0.62848,0.42768 0.9425,0.64136c0.33916,0.23796 0.65935,0.50122 0.98905,0.75187c0.34205,0.28309 0.71391,0.52657 1.07059,0.78965c0.38806,0.27503 0.81005,0.49572 1.21491,0.74348c0.43954,0.28554 0.91515,0.50793 1.37226,0.76162c0.51653,0.27875 1.05282,0.51777 1.57911,0.77657c0.55954,0.2802 1.1399,0.51475 1.71137,0.76849c0.59821,0.26453 1.21801,0.4742 1.82841,0.70712c0.65849,0.2392 1.33038,0.43811 1.99658,0.65381c0.69349,0.22237 1.39875,0.40418 2.09895,0.60313c0.73274,0.20222 1.47351,0.37284 2.21089,0.55666c0.76816,0.19012 1.54403,0.34571 2.31748,0.51205c0.81298,0.1723 1.63108,0.31847 2.44757,0.47267c0.81576,0.16028 1.64179,0.25693 2.4645,0.37202c0.80323,0.11001 1.6128,0.14602 2.42004,0.20706c0.78904,0.05084 1.57974,0.03779 2.36964,0.04545c0.75669,0.01332 1.5055,-0.10136 2.25687,-0.16252c0.73938,-0.07248 1.46823,-0.21862 2.20109,-0.33562c0.73759,-0.125 1.46981,-0.2785 2.20442,-0.41874c0.73577,-0.1299 1.44978,-0.35133 2.1725,-0.53546c0.74002,-0.20337 1.48779,-0.37628 2.23227,-0.56195c0.76468,-0.18657 1.53488,-0.34879 2.30335,-0.51861c0.7907,-0.17455 1.58702,-0.32108 2.38157,-0.47649c0.81938,-0.1578 1.6423,-0.2959 2.46412,-0.44016c0.82047,-0.13091 1.62947,-0.31879 2.44247,-0.48628c0.77494,-0.17113 1.52417,-0.43266 2.28088,-0.66707c0.76024,-0.21085 1.48954,-0.51063 2.22836,-0.78237c0.71924,-0.26613 1.38846,-0.6421 2.07801,-0.97189c1.55472,-0.86992 -3.08834,1.77707 -4.63422,2.6626c0.62588,-0.38887 1.21076,-0.83787 1.81192,-1.26242c0.59673,-0.41985 1.13105,-0.91746 1.69117,-1.38216c0.55667,-0.46987 1.04412,-1.01202 1.56025,-1.52338c0.51155,-0.53195 0.97923,-1.10304 1.46596,-1.65688c0.4713,-0.57372 0.94306,-1.14705 1.41454,-1.72065c0.47218,-0.57604 0.97947,-1.12154 1.47217,-1.67961c0.50564,-0.56385 1.01866,-1.12106 1.52749,-1.682c0.51312,-0.5729 1.10066,-1.07022 1.6571,-1.59841c0.5655,-0.52974 1.19293,-0.98514 1.79384,-1.47167c0.62143,-0.4869 1.28736,-0.91075 1.93895,-1.35455c2.80515,-1.79875 5.77229,-3.33982 8.66195,-4.98412c0.75307,-0.38446 1.5439,-0.68325 2.32194,-1.0102c0.82392,-0.34169 1.682,-0.5854 2.52931,-0.859c0.92306,-0.28387 1.855,-0.53708 2.78412,-0.79988c0.97414,-0.27409 1.96176,-0.49507 2.9452,-0.73207c1.02238,-0.23958 2.04935,-0.4586 3.07555,-0.68109c1.02543,-0.22091 2.05474,-0.42293 3.08338,-0.62815c0.34333,-0.06221 0.68444,-0.13566 1.02665,-0.20351l-6.08632,4.60809c-0.34244,0.0676 -0.68491,0.13499 -1.02731,0.2028c-1.02605,0.20841 -2.05278,0.41359 -3.07547,0.638c-1.02348,0.22617 -2.04794,0.44806 -3.06689,0.69413c-0.9797,0.24711 -1.96413,0.47649 -2.9339,0.76162c-0.92532,0.26868 -1.8547,0.52426 -2.77116,0.82266c-0.83759,0.29354 -1.68726,0.55537 -2.50085,0.91445c-0.7661,0.34407 -1.54449,0.66312 -2.28492,1.06226c1.48581,-0.86477 5.938,-3.4677 4.46286,-2.58486c-0.65775,0.42592 -1.32966,0.831 -1.95715,1.30228c-0.60818,0.46708 -1.2435,0.90034 -1.81528,1.41402c-0.56378,0.50793 -1.15328,0.9887 -1.68202,1.53497c-0.51231,0.55422 -1.04829,1.08713 -1.53317,1.66674c-0.4951,0.54969 -1.00483,1.08617 -1.48284,1.65115c-0.47288,0.57049 -0.95498,1.13353 -1.41842,1.71194c-0.47963,0.56745 -0.93281,1.15835 -1.44965,1.69393c-0.50638,0.53335 -0.97931,1.10027 -1.53206,1.58898c-0.55173,0.48569 -1.07669,1.00352 -1.66652,1.44518c-0.59558,0.44038 -1.17633,0.90161 -1.79273,1.31376c-2.8198,1.65187 -5.57431,3.45019 -8.50345,4.91626c-0.70487,0.30882 -1.39124,0.66366 -2.12318,0.90915c-0.75009,0.25457 -1.49457,0.52641 -2.2559,0.74736c-0.76943,0.21607 -1.53119,0.46368 -2.31896,0.60967c-0.81943,0.15622 -1.637,0.32326 -2.46038,0.45851c-0.81951,0.14838 -1.64026,0.29017 -2.45708,0.45303c-0.79169,0.1614 -1.58518,0.31445 -2.37319,0.49364c-0.76533,0.17514 -1.53255,0.34237 -2.29383,0.53493c-0.74208,0.19082 -1.48661,0.37219 -2.22555,0.57518c-0.73273,0.16952 -1.45768,0.37584 -2.20129,0.49759c-0.73979,0.13494 -1.47759,0.28134 -2.22049,0.39881c-0.74229,0.1036 -1.47997,0.24546 -2.22915,0.29749c-0.76617,0.03841 -1.5314,0.12803 -2.30052,0.09588c-0.79835,-0.02005 -1.59765,-0.02122 -2.39447,-0.08421c-0.8172,-0.07642 -1.63695,-0.13218 -2.44964,-0.25273c-0.82932,-0.12755 -1.66166,-0.23743 -2.48437,-0.40527c-0.82105,-0.15833 -1.6438,-0.30824 -2.46115,-0.48532c-0.77942,-0.17186 -1.56143,-0.33262 -2.33542,-0.52846c-0.74246,-0.18932 -1.48856,-0.36481 -2.22601,-0.57347c-0.7067,-0.20601 -1.41857,-0.39501 -2.11838,-0.62439c-0.67376,-0.22393 -1.35392,-0.42949 -2.01892,-0.6794c-0.62004,-0.24417 -1.24928,-0.46618 -1.85724,-0.74068c-0.57714,-0.26162 -1.161,-0.50886 -1.72979,-0.78887c-0.5338,-0.26568 -1.07454,-0.51783 -1.60159,-0.79715c-0.46609,-0.26364 -0.94345,-0.5081 -1.39865,-0.79116c-0.41717,-0.26422 -0.85602,-0.49598 -1.25227,-0.79315c-0.3633,-0.27047 -0.7348,-0.53023 -1.0901,-0.81152c-0.32638,-0.24268 -0.63942,-0.50352 -0.97919,-0.72805c-0.30758,-0.2 -0.60725,-0.41264 -0.92298,-0.60009c-0.27521,-0.16755 -0.53431,-0.36235 -0.82572,-0.5027c-0.24267,-0.11 -0.47177,-0.25202 -0.72867,-0.33037c-0.2166,-0.03921 -0.42945,-0.12186 -0.65359,-0.11836c-0.1914,0.00184 -0.38238,-0.00759 -0.57332,0.0055c-0.13913,0.00109 -0.27827,0.00101 -0.41739,0.00327c-0.05041,0.00092 -0.10084,0.00071 -0.15123,0.00273l6.28137,-4.56367z"/>
     <path fill="#555c53" fill-rule="evenodd" stroke="black" stroke-width="3" stroke-miterlimit="4" d="m299.02976,227.75147l43.98198,-14.73375l73.76046,-16.97666l-0.12479,-2.9682l-2.34582,-5.35265l-3.09293,-2.84341l-8.51383,-2.11995l-9.46162,-1.08898l-16.71568,3.18057l-19.55434,6.38714l-15.71028,3.51999l-20.0954,5.30488l-17.21366,3.12407l-5.80831,3.29502l-3.74962,5.11333l-0.76065,5.48323l0.25106,5.9719l2.59676,2.82868l2.55667,1.87479z" id="svg_125"/>
     <g stroke="black" id="svg_121" transform="translate(953.6368,104.3445)">
      <path fill="black" stroke="black" stroke-width="7.600323" stroke-miterlimit="4" transform="matrix(1.021404,0,0,1.021404,-235.8368,141.7485)" d="m150.92016,338.55063l-47.32851,-51.39911l33.08954,61.53811l-40.513293,-56.92565l25.115853,65.20008l-33.059161,-61.55444l16.746071,67.83381l-25.083664,-65.21247l8.112187,69.39776l-16.712576,-67.84207l-0.649626,69.86727l-8.077927,-69.40176l-9.401193,69.23492l0.684117,-69.86694l-18.004499,67.51071l9.435371,-69.23028l-26.323862,64.7218l18.037824,-67.5018l-34.228083,60.91219l26.35581,-64.7088l-41.592506,56.14197l34.258149,-60.89529l-48.300991,50.48635l41.620217,-56.12143l-54.24774,44.03453l48.325908,-50.4625l-59.33897,36.88826l54.269472,-44.00774l-63.494389,29.16023l59.357173,-36.85895l-66.648463,20.97234l63.508776,-29.12889l-68.751451,12.4537l66.658808,-20.93943l-69.770188,3.73865l68.757591,-12.41976l-69.688608,-5.03534l69.772025,-3.70422l-68.507996,-13.72993l69.686114,5.06974l-66.246973,-22.208l68.50121,13.76376l-62.941195,-30.33584l66.236001,22.24071l-58.642796,-37.98525l62.926211,30.3669l-53.419566,-45.03562l58.624037,38.0142l-47.353878,-51.37574l53.397328,45.06198l-40.541391,-56.90565l47.32851,51.39912l-33.089541,-61.53811l40.513293,56.92565l-25.115849,-65.20009l33.059157,61.55444l-16.746066,-67.833809l25.083659,65.212479l-8.112187,-69.397766l16.712576,67.842076l0.649626,-69.86727l8.077927,69.40176l9.401193,-69.234925l-0.684116,69.866935l18.004498,-67.5107l-9.435371,69.23027l26.323863,-64.721796l-18.037825,67.501806l34.228085,-60.91219l-26.355812,64.70879l41.592502,-56.14196l-34.25814,60.89528l48.30099,-50.48634l-41.62022,56.12142l54.24774,-44.03452l-48.32591,50.46249l59.33897,-36.88825l-54.26947,44.00774l63.49439,-29.16024l-59.35717,36.85896l66.64846,-20.97234l-63.50878,29.12888l68.75145,-12.4537l-66.6588,20.93944l69.77018,-3.73866l-68.75759,12.41976l69.68861,5.03535l-69.77203,3.70421l68.508,13.72994l-69.68611,-5.06975l66.24697,22.208l-68.50121,-13.76375l62.94119,30.33583l-66.236,-22.2407l58.6428,37.98525l-62.92621,-30.3669l53.41957,45.03561l-58.62404,-38.01419l47.35388,51.37574l-53.39733,-45.06198l40.54139,56.90564z" id="svg_124"/>
      <path fill="black" fill-rule="evenodd" stroke="black" stroke-width="1px" transform="matrix(1.055106,0,0,0.984241,-39.08068,98.34438)" d="m2.039459,283.48517a127.46635,136.64392 0 1 1 -254.932689,0a127.46635,136.64392 0 1 1 254.932689,0z" id="svg_123"/>
      <path fill="white" fill-rule="evenodd" stroke="black" stroke-width="1px" transform="matrix(0.800072,0,0,0.746336,-70.96418,165.7251)" d="m2.039459,283.48517a127.46635,136.64392 0 1 1 -254.932689,0a127.46635,136.64392 0 1 1 254.932689,0z" id="svg_122"/>
     </g>
     <rect fill="#9d7f20" stroke="black" stroke-width="3" stroke-miterlimit="4" id="svg_120" width="25.739452" height="125.49562" x="472.67468" y="423.35056" transform="matrix(0.908471,-0.417949,0.417949,0.908471,0,0)"/>
     <rect fill="#9d7f20" stroke="black" stroke-width="3" stroke-miterlimit="4" id="svg_119" width="25.739407" height="125.49538" x="472.47333" y="503.77005" transform="matrix(0.908471,-0.417949,0.417949,0.908471,0,0)"/>
     <path fill="#616369" fill-rule="evenodd" stroke="black" stroke-width="3" stroke-miterlimit="4" d="m792.48678,486.82932l-5.40297,-10.74266l-17.81505,-9.00998l-50.59449,-103.96128l1.03962,-27.37647l-10.04959,2.07923l-0.69308,18.36649l-22.52494,11.78228l71.0402,145.89232l28.55771,-11.43573l-4.64661,-10.04959l11.0892,-5.54461z" id="svg_118"/>
     <path fill="black" stroke="black" stroke-width="0.517816" stroke-miterlimit="4" id="svg_117" d="m818.86838,407.25992a0.519806,0.346538 0 1 1 -1.03961,0a0.519806,0.346538 0 1 1 1.03961,0z" transform="matrix(5.323624,0,0,7.968065,-3572.589,-2760.665)"/>
     <rect fill="black" stroke="black" stroke-width="3" stroke-linejoin="round" stroke-miterlimit="4" id="svg_116" width="28.626198" height="14.799578" x="468.67218" y="491.46112" transform="matrix(0.906497,-0.422212,0.422212,0.906497,0,0)"/>
     <rect fill="black" stroke="black" stroke-width="3" stroke-linejoin="round" stroke-miterlimit="4" id="svg_115" width="28.626186" height="14.799572" x="469.04413" y="410.71796" transform="matrix(0.906497,-0.422212,0.422212,0.906497,0,0)"/>
     <path fill="#616369" fill-rule="evenodd" stroke="black" stroke-width="1.7" stroke-miterlimit="4" d="m597.3518,175.00055l27.95637,-12.93279l5.15534,-8.12387l2.87851,-13.16142l-13.68013,-17.43325l-14.91264,13.02499l-19.01409,14.3249l11.61664,24.30144z" id="svg_114"/>
     <path fill="#616369" stroke="black" stroke-width="2.050318" stroke-linejoin="round" stroke-miterlimit="4" id="svg_113" d="m492.19519,152.6051a4.988465,6.176194 0 1 1 -9.97693,0a4.988465,6.176194 0 1 1 9.97693,0z" transform="matrix(0.700921,-0.293197,0.236813,0.566129,218.4167,209.9397)"/>
     <path fill="#616369" stroke="black" stroke-width="2.005108" stroke-linejoin="round" stroke-miterlimit="4" id="svg_112" d="m492.19519,152.6051a4.988465,6.176194 0 1 1 -9.97693,0a4.988465,6.176194 0 1 1 9.97693,0z" transform="matrix(0.700921,-0.293197,0.236813,0.566129,222.7981,220.8727)"/>
     <path fill="black" stroke="black" stroke-width="1.7" stroke-linejoin="round" stroke-miterlimit="2" stroke-dashoffset="0" id="svg_111" d="m638.82528,98.05896a10.815327,10.094305 0 1 1 -21.63066,0a10.815327,10.094305 0 1 1 21.63066,0z" transform="matrix(0.999836,0,0,1.004343,-10.35183,43.98891)"/>
     <rect fill="black" stroke="black" stroke-width="1.699998" stroke-linejoin="round" stroke-miterlimit="2" stroke-dashoffset="0" id="svg_110" width="30.643379" height="8.29174" x="620.15356" y="-159.63254" transform="matrix(0.908313,0.41829,-0.41829,0.908313,0,0)"/>
     <path fill="#666" stroke="black" stroke-width="1.7" stroke-linejoin="round" stroke-miterlimit="2" stroke-dashoffset="0" id="svg_109" d="m638.82528,98.05896a10.815327,10.094305 0 1 1 -21.63066,0a10.815327,10.094305 0 1 1 21.63066,0z" transform="matrix(1.540576,0,0,1.54752,-343.9933,-30.72014)"/>
     <path fill="black" stroke="black" stroke-width="1.7" stroke-linejoin="round" stroke-miterlimit="2" stroke-dashoffset="0" id="svg_108" d="m638.82528,98.05896a10.815327,10.094305 0 1 1 -21.63066,0a10.815327,10.094305 0 1 1 21.63066,0z" transform="matrix(0.999836,0,0,1.004343,-7.828219,32.76742)"/>
     <path fill="black" stroke="black" stroke-width="1.7" stroke-linejoin="round" stroke-miterlimit="2" stroke-dashoffset="0" id="svg_107" d="m638.82528,98.05896a10.815327,10.094305 0 1 1 -21.63066,0a10.815327,10.094305 0 1 1 21.63066,0z" transform="matrix(0.999836,0,0,1.004343,-4.666591,22.31261)"/>
    </g>
   </g>
  </symbol>
 </defs>
 <g>
  <title>Layer 1</title>
  <g id="svg_57"/>
  <g id="svg_103"/>
  <use stroke="null" x="169.589074" y="-33.423494" transform="matrix(0.8104516863822937,0,0,0.7324067950248718,27.78776657960043,-9.450405837751532) " xlink:href="#svg_158" id="svg_159"/>
  <g id="svg_160"/>
 </g>
</svg>