<?xml version="1.0" encoding="UTF-8" standalone="no"?>
<!-- Created with Inkscape (http://www.inkscape.org/) -->
<svg
   xmlns:dc="http://purl.org/dc/elements/1.1/"
   xmlns:cc="http://web.resource.org/cc/"
   xmlns:rdf="http://www.w3.org/1999/02/22-rdf-syntax-ns#"
   xmlns:svg="http://www.w3.org/2000/svg"
   xmlns="http://www.w3.org/2000/svg"
   xmlns:sodipodi="http://sodipodi.sourceforge.net/DTD/sodipodi-0.dtd"
   xmlns:inkscape="http://www.inkscape.org/namespaces/inkscape"
   width="801.91614"
   height="244.69495"
   viewBox="-200,-100,1200,800"
   id="svg2"
   inkscape:label="Pozad  "
   sodipodi:version="0.32"
   inkscape:version="0.44.1"
   version="1.0"
   sodipodi:docbase="D:\_petr_\School\INKSCAPE\svg\08.Dopravni prostredky a znacky"
   sodipodi:docname="bike.svg"
   inkscape:export-filename="/home/lamatin/Desktop/Projekt_Kliparty/tom/ Klipy PNG/Dopravn   prost  edky, zna  ky/bike.png"
   inkscape:export-xdpi="45"
   inkscape:export-ydpi="45">
  <defs
     id="defs3" />
  <sodipodi:namedview
     id="base"
     pagecolor="#ffffff"
     bordercolor="#666666"
     borderopacity="1.0"
     inkscape:pageopacity="0.0"
     inkscape:pageshadow="2"
     inkscape:zoom="0.69346032"
     inkscape:cx="801.18109"
     inkscape:cy="372.04724"
     inkscape:document-units="px"
     inkscape:current-layer="layer1"
     showgrid="false"
     width="1052.3622px"
     height="744.09448px"
     inkscape:window-width="1024"
     inkscape:window-height="710"
     inkscape:window-x="0"
     inkscape:window-y="0"
     showguides="true"
     inkscape:guide-bbox="true" />
  <metadata
     id="metadata6">
    <rdf:RDF>
      <cc:Work
         rdf:about="">
        <dc:format>image/svg+xml</dc:format>
        <dc:type
           rdf:resource="http://purl.org/dc/dcmitype/StillImage" />
        <dc:title>bike</dc:title>
        <dc:date>24.11.2006</dc:date>
        <dc:creator>
          <cc:Agent>
            <dc:title>Krystof Jetmar</dc:title>
          </cc:Agent>
        </dc:creator>
        <dc:publisher>
          <cc:Agent>
            <dc:title>ZS a MS Machovo nam.</dc:title>
          </cc:Agent>
        </dc:publisher>
        <dc:language>cz</dc:language>
        <dc:subject>
          <rdf:Bag>
            <rdf:li>bike</rdf:li>
            <rdf:li>downhill</rdf:li>
            <rdf:li>kolo</rdf:li>
            <rdf:li>freeride</rdf:li>
          </rdf:Bag>
        </dc:subject>
        <cc:license
           rdf:resource="http://web.resource.org/cc/PublicDomain" />
      </cc:Work>
      <cc:License
         rdf:about="http://web.resource.org/cc/PublicDomain">
        <cc:permits
           rdf:resource="http://web.resource.org/cc/Reproduction" />
        <cc:permits
           rdf:resource="http://web.resource.org/cc/Distribution" />
        <cc:permits
           rdf:resource="http://web.resource.org/cc/DerivativeWorks" />
      </cc:License>
    </rdf:RDF>
  </metadata>
  <g
     inkscape:label="Vrstva 1"
     inkscape:groupmode="layer"
     id="layer1"
     transform="translate(-126.507,-104.0945)">
    <path
       sodipodi:type="arc"
       style="fill:black;fill-opacity:1;stroke:black;stroke-opacity:1"
       id="path2760"
       sodipodi:cx="13.2565"
       sodipodi:cy="342.62955"
       sodipodi:rx="58.124657"
       sodipodi:ry="0"
       d="M 71.381157 342.62955 A 58.124657 0 0 1 1  -44.868156,342.62955 A 58.124657 0 0 1 1  71.381157 342.62955 z" />
    <g
       id="g1919"
       transform="translate(0,-2.845046e-6)">
      <rect
         transform="matrix(0.983899,-0.178724,0.219052,0.975713,0,0)"
         y="282.5545"
         x="293.88974"
         height="31.045532"
         width="9.3527393"
         id="rect19737"
         style="fill:black;fill-opacity:1;stroke:black;stroke-width:2.55152035;stroke-linejoin:miter;stroke-miterlimit:4;stroke-dasharray:none;stroke-dashoffset:0;stroke-opacity:1" />
      <rect
         transform="matrix(0.928595,-0.371094,0.371094,0.928595,0,0)"
         y="516.88965"
         x="241.52957"
         height="3.9656162"
         width="60.205273"
         id="rect21525"
         style="fill:#c2c2c2;fill-opacity:1;stroke:black;stroke-width:1.69999862;stroke-linejoin:miter;stroke-miterlimit:4;stroke-dasharray:none;stroke-dashoffset:0;stroke-opacity:1" />
      <g
         transform="matrix(0.605469,0.795869,-0.795869,0.605469,532.5595,-175.2438)"
         inkscape:transform-center-y="-30.255597"
         inkscape:transform-center-x="40.539839"
         id="g19731"
         style="stroke:black;stroke-opacity:1">
        <rect
           style="fill:#616369;fill-opacity:1;stroke:black;stroke-width:1.56271243;stroke-linejoin:round;stroke-miterlimit:4;stroke-dasharray:none;stroke-dashoffset:0;stroke-opacity:1"
           id="rect19725"
           width="96.945671"
           height="12.637286"
           x="-325.35257"
           y="537.3598"
           transform="matrix(-0.963107,0.26912,0.279779,0.960064,0,0)" />
        <rect
           style="fill:black;fill-opacity:1;stroke:black;stroke-width:2.63779211;stroke-linejoin:miter;stroke-miterlimit:4;stroke-dasharray:none;stroke-dashoffset:0;stroke-opacity:1"
           id="rect19727"
           width="40.062759"
           height="14.625752"
           x="27.59313"
           y="556.50952"
           transform="matrix(-0.177925,0.984044,0.681337,0.73197,0,0)" />
      </g>
      <g
         transform="translate(425.0673,121.4716)"
         id="g3656"
         style="stroke:black;stroke-opacity:1">
        <g
           transform="translate(18.74657,4.326131)"
           id="g12606"
           style="stroke:black;stroke-opacity:1">
          <path
             transform="matrix(1.021404,0,0,1.021404,-235.8368,141.7485)"
             d="M 150.92016,338.55063 L 103.59165,287.15152 L 136.68119,348.68963 L 96.167897,291.76398 L 121.28375,356.96406 L 88.224589,295.40962 L 104.97066,363.24343 L 79.886996,298.03096 L 87.999183,367.42872 L 71.286607,299.58665 L 70.636981,369.45392 L 62.559054,300.05216 L 53.157861,369.28708 L 53.841978,299.42014 L 35.837479,366.93085 L 45.27285,297.70057 L 18.948988,362.42237 L 36.986812,294.92057 L 2.7587291,355.83276 L 29.114539,291.12396 L -12.477967,347.26593 L 21.780182,286.37064 L -26.520809,336.85699 L 15.099408,280.73556 L -39.148332,324.77009 L 9.1775759,274.30759 L -50.161394,311.19585 L 4.1080777,267.18811 L -59.386311,296.34834 L -0.029137922,259.48939 L -66.677601,280.46173 L -3.1688247,251.33284 L -71.920276,263.78654 L -5.2614679,242.84711 L -75.031656,246.58576 L -6.2740653,234.166 L -75.962673,229.13066 L -6.1906476,225.42644 L -74.698644,211.69651 L -5.0125303,216.76625 L -71.259503,194.55825 L -2.758293,208.32201 L -65.699488,177.98617 L 0.53651346,200.22688 L -58.106283,162.24163 L 4.8199282,192.60853 L -48.599638,147.57291 L 10.024399,185.58711 L -37.329479,134.21137 L 16.067849,179.27335 L -24.473542,122.3677 L 22.854968,173.76682 L -10.234573,112.22871 L 30.27872,169.15436 L 5.1628706,103.95427 L 38.222028,165.50871 L 21.475962,97.674901 L 46.559621,162.88738 L 38.447434,93.489614 L 55.16001,161.33169 L 55.809636,91.46442 L 63.887563,160.86618 L 73.288756,91.631255 L 72.60464,161.49819 L 90.609138,93.98749 L 81.173767,163.21776 L 107.49763,98.495964 L 89.459805,165.99777 L 123.68789,105.08558 L 97.332078,169.79437 L 138.92458,113.65241 L 104.66644,174.54769 L 152.96743,124.06135 L 111.34721,180.18277 L 165.59495,136.14825 L 117.26904,186.61074 L 176.60801,149.72249 L 122.33854,193.73023 L 185.83293,164.56999 L 126.47576,201.42895 L 193.12422,180.45661 L 129.61544,209.58549 L 198.36689,197.13179 L 131.70809,218.07123 L 201.47827,214.33257 L 132.72068,226.75233 L 202.40929,231.78768 L 132.63726,235.49189 L 201.14526,249.22183 L 131.45915,244.15208 L 197.70612,266.36008 L 129.20491,252.59633 L 192.1461,282.93216 L 125.9101,260.69146 L 184.5529,298.67671 L 121.62669,268.30981 L 175.04626,313.34542 L 116.42222,275.33123 L 163.7761,326.70697 L 110.37877,281.64499 L 150.92016,338.55063 z "
             inkscape:randomized="0"
             inkscape:rounded="0"
             inkscape:flatsided="false"
             sodipodi:arg2="0.95202235"
             sodipodi:arg1="0.8891905"
             sodipodi:r2="69.596161"
             sodipodi:r1="139.19232"
             sodipodi:cy="230.45917"
             sodipodi:cx="63.223309"
             sodipodi:sides="50"
             id="path3658"
             style="fill:black;fill-opacity:1;stroke:black;stroke-width:7.60032272;stroke-miterlimit:4;stroke-dasharray:none;stroke-opacity:1"
             sodipodi:type="star" />
          <path
             transform="matrix(1.055106,0,0,0.984241,-39.08068,98.34438)"
             d="M 2.0394592 283.48517 A 127.46635 136.64392 0 1 1  -252.89323,283.48517 A 127.46635 136.64392 0 1 1  2.0394592 283.48517 z"
             sodipodi:ry="136.64392"
             sodipodi:rx="127.46635"
             sodipodi:cy="283.48517"
             sodipodi:cx="-125.42689"
             id="path3660"
             style="fill:black;fill-opacity:1;fill-rule:evenodd;stroke:black;stroke-width:1px;stroke-linecap:butt;stroke-linejoin:miter;stroke-opacity:1"
             sodipodi:type="arc" />
          <path
             transform="matrix(0.800072,0,0,0.746336,-70.96418,165.7251)"
             d="M 2.0394592 283.48517 A 127.46635 136.64392 0 1 1  -252.89323,283.48517 A 127.46635 136.64392 0 1 1  2.0394592 283.48517 z"
             sodipodi:ry="136.64392"
             sodipodi:rx="127.46635"
             sodipodi:cy="283.48517"
             sodipodi:cx="-125.42689"
             id="path3662"
             style="fill:white;fill-opacity:1;fill-rule:evenodd;stroke:black;stroke-width:1px;stroke-linecap:butt;stroke-linejoin:miter;stroke-opacity:1"
             sodipodi:type="arc" />
        </g>
      </g>
      <path
         id="path14397"
         d="M 444.32613,415.66671 L 260.26551,483.47535 L 253.63759,496.73118 L 258.73599,514.57556 L 285.75748,523.75267 L 273.52133,547.86734 L 277.60005,553.83319 L 430.04202,495.20166 L 450.4356,500.80989 L 444.32613,415.66671 z "
         style="fill:none;fill-rule:evenodd;stroke:black;stroke-width:3;stroke-linecap:butt;stroke-linejoin:miter;stroke-miterlimit:4;stroke-dasharray:none;stroke-dashoffset:0;stroke-opacity:1" />
      <path
         transform="matrix(1.324745,0,0,1.233431,94.63049,59.93993)"
         d="M 145.30423 356.10669 A 13.510744 14.275503 0 1 1  118.28274,356.10669 A 13.510744 14.275503 0 1 1  145.30423 356.10669 z"
         sodipodi:ry="14.275503"
         sodipodi:rx="13.510744"
         sodipodi:cy="356.10669"
         sodipodi:cx="131.79349"
         id="path14395"
         style="fill:#616369;fill-opacity:1;stroke:black;stroke-width:1.70000005;stroke-linejoin:round;stroke-miterlimit:4;stroke-dasharray:none;stroke-opacity:1"
         sodipodi:type="arc" />
      <rect
         transform="matrix(0.76303,-0.646364,0.646364,0.76303,0,0)"
         y="559.35846"
         x="-127.04951"
         height="20.903448"
         width="4.8301339"
         id="rect14387"
         style="fill:#616369;fill-opacity:1;stroke:black;stroke-width:1.70000255;stroke-linejoin:round;stroke-miterlimit:4;stroke-dasharray:none;stroke-opacity:1" />
      <path
         id="path20638"
         d="M 412.42446,461.48024 C 412.42446,461.48024 417.1111,424.99218 417.1111,422.86734 C 417.1111,420.7425 401.60913,386.85448 401.60913,386.85448 L 414.22701,381.44682 L 434.41562,413.53229 L 427.2054,460.3987 L 410.76817,461.48024 L 412.42446,461.48024 z "
         style="fill:#c2c2c2;fill-opacity:1;fill-rule:evenodd;stroke:black;stroke-width:3;stroke-linecap:butt;stroke-linejoin:miter;stroke-miterlimit:4;stroke-dasharray:none;stroke-opacity:1" />
      <path
         inkscape:export-ydpi="90"
         inkscape:export-xdpi="90"
         sodipodi:nodetypes="ccccccccccccccc"
         id="path12600"
         d="M 652.49404,232.31819 L 642.3763,238.00942 L 474.80118,477.67346 L 263.0795,512.10541 L 259.16283,488.83065 L 444.32613,452.65681 L 488.93728,389.08461 L 441.41434,331.91256 L 362.85388,283.13218 L 353.35862,241.80358 L 366.18357,241.54866 L 368.2444,250.3901 L 448.87446,278.4804 L 624.32613,176.03825 L 652.49404,232.31819 z "
         style="fill:#ff6a00;fill-opacity:1;fill-rule:evenodd;stroke:black;stroke-width:3;stroke-linecap:butt;stroke-linejoin:miter;stroke-miterlimit:4;stroke-dasharray:none;stroke-opacity:1" />
      <path
         sodipodi:nodetypes="ccccc"
         id="path12602"
         d="M 370.49787,261.97222 C 373.02731,261.97222 437.13444,288.3531 437.13444,288.3531 L 436.94631,312.77786 L 373.60399,274.64671 L 370.49787,261.97222 z "
         style="fill:white;fill-opacity:1;fill-rule:evenodd;stroke:black;stroke-width:3;stroke-linecap:butt;stroke-linejoin:miter;stroke-miterlimit:4;stroke-dasharray:none;stroke-opacity:1" />
      <path
         sodipodi:nodetypes="ccccc"
         id="path12604"
         d="M 501.0589,373.6543 L 461.33024,324.88724 L 460.77717,299.64928 L 613.21841,210.88453 L 501.0589,373.6543 z "
         style="fill:white;fill-opacity:1;fill-rule:evenodd;stroke:black;stroke-width:3;stroke-linecap:butt;stroke-linejoin:miter;stroke-miterlimit:4;stroke-dasharray:none;stroke-opacity:1" />
      <path
         transform="matrix(1.223764,0,0,1.157365,261.6166,280.6729)"
         d="M 209.09632 151.41458 A 41.09824 43.261307 0 1 1  126.89984,151.41458 A 41.09824 43.261307 0 1 1  209.09632 151.41458 z"
         sodipodi:ry="43.261307"
         sodipodi:rx="41.09824"
         sodipodi:cy="151.41458"
         sodipodi:cx="167.99808"
         id="path13496"
         style="fill:#616369;fill-opacity:1;stroke:black;stroke-width:2.52079344;stroke-linejoin:round;stroke-miterlimit:4;stroke-dasharray:none;stroke-opacity:1"
         sodipodi:type="arc" />
      <path
         transform="matrix(5.323624,0,0,7.968065,-4085.098,-2746.813)"
         d="M 818.86838 407.25992 A 0.51980639 0.34653759 0 1 1  817.82877,407.25992 A 0.51980639 0.34653759 0 1 1  818.86838 407.25992 z"
         sodipodi:ry="0.34653759"
         sodipodi:rx="0.51980639"
         sodipodi:cy="407.25992"
         sodipodi:cx="818.34857"
         id="path14385"
         style="fill:black;fill-opacity:1;stroke:black;stroke-width:0.46061823;stroke-miterlimit:4;stroke-dasharray:none;stroke-opacity:1"
         sodipodi:type="arc" />
      <rect
         transform="matrix(0.937849,0.347044,-0.347044,0.937849,0,0)"
         y="398.5141"
         x="446.54715"
         height="20.903427"
         width="4.8301287"
         id="rect14389"
         style="fill:#616369;fill-opacity:1;stroke:black;stroke-width:1.70000076;stroke-linejoin:round;stroke-miterlimit:4;stroke-dasharray:none;stroke-opacity:1" />
      <path
         transform="translate(173.0829,174.7838)"
         d="M 113.69418 351.77307 A 4.8434744 4.8434744 0 1 1  104.00723,351.77307 A 4.8434744 4.8434744 0 1 1  113.69418 351.77307 z"
         sodipodi:ry="4.8434744"
         sodipodi:rx="4.8434744"
         sodipodi:cy="351.77307"
         sodipodi:cx="108.85071"
         id="path14391"
         style="fill:#616369;fill-opacity:1;stroke:black;stroke-width:3;stroke-linejoin:round;stroke-miterlimit:4;stroke-dasharray:none;stroke-opacity:1"
         sodipodi:type="arc" />
      <path
         transform="translate(169.2591,196.7878)"
         d="M 113.69418 351.77307 A 4.8434744 4.8434744 0 1 1  104.00723,351.77307 A 4.8434744 4.8434744 0 1 1  113.69418 351.77307 z"
         sodipodi:ry="4.8434744"
         sodipodi:rx="4.8434744"
         sodipodi:cy="351.77307"
         sodipodi:cx="108.85071"
         id="path14393"
         style="fill:#616369;fill-opacity:1;stroke:black;stroke-width:1.70000005;stroke-linejoin:round;stroke-miterlimit:4;stroke-dasharray:none;stroke-opacity:1"
         sodipodi:type="arc" />
      <path
         transform="matrix(1.139187,0,0,1.139187,327.3246,104.3136)"
         d="M 96.869482 349.47879 A 8.1574306 8.1574306 0 1 1  80.554621,349.47879 A 8.1574306 8.1574306 0 1 1  96.869482 349.47879 z"
         sodipodi:ry="8.1574306"
         sodipodi:rx="8.1574306"
         sodipodi:cy="349.47879"
         sodipodi:cx="88.712051"
         id="path17056"
         style="fill:#da8809;fill-opacity:1;stroke:black;stroke-width:2;stroke-linejoin:round;stroke-miterlimit:4;stroke-dasharray:none;stroke-dashoffset:0;stroke-opacity:1"
         sodipodi:type="arc" />
      <path
         id="path17943"
         d="M 446.86673,401.33782 L 451.96512,413.62736 L 428.51251,434.53077 L 419.3354,427.90286 L 421.36549,411.33782 L 446.86673,401.33782 z "
         style="fill:black;fill-opacity:1;fill-rule:evenodd;stroke:black;stroke-width:1px;stroke-linecap:butt;stroke-linejoin:miter;stroke-opacity:1" />
      <g
         inkscape:transform-center-y="35.676226"
         transform="matrix(0.793065,0.609137,-0.609137,0.793065,365.3628,-172.5595)"
         inkscape:transform-center-x="-38.015972"
         id="g19719"
         style="stroke:black;stroke-width:3;stroke-miterlimit:4;stroke-dasharray:none;stroke-opacity:1">
        <rect
           style="fill:#616369;fill-opacity:1;stroke:black;stroke-width:3;stroke-linejoin:round;stroke-miterlimit:4;stroke-dasharray:none;stroke-dashoffset:0;stroke-opacity:1"
           id="rect18830"
           width="98.820015"
           height="12.657159"
           x="458.1351"
           y="429.31308" />
        <rect
           style="fill:black;fill-opacity:1;stroke:black;stroke-width:3.33507013;stroke-linejoin:miter;stroke-miterlimit:4;stroke-dasharray:none;stroke-dashoffset:0;stroke-opacity:1"
           id="rect18832"
           width="40.445957"
           height="14.636843"
           x="834.0719"
           y="-375.09671"
           transform="matrix(0.450479,0.892787,-0.457706,0.889104,0,0)" />
      </g>
      <path
         inkscape:transform-center-x="1.5563074"
         inkscape:transform-center-y="-16.757383"
         sodipodi:nodetypes="csssssssscsssssssccssssssssssssssccssssssssssssssscsssssssssssssssssccssssssssssssscsssssssssssssssssccsssssssssssccscsssssssssssccsssssssssssssccsssssssssssccssssssssssssssssccsssssssssssssccssssssssssssssssscsssssssssssssssccsssssssssssssccssssssccsssssssscc"
         d="M 462.40985,364.54438 C 462.42084,364.59245 464.54103,362.6696 464.55288,362.71785 C 464.58363,362.84076 463.28494,364.72155 463.31607,364.84454 C 463.37026,365.0381 464.74152,363.47152 464.78912,363.66384 C 464.84928,363.90457 464.89307,364.14065 464.94504,364.37907 C 465.00357,364.66603 465.06881,364.95506 465.13068,365.24303 C 465.20644,365.59034 465.28739,365.93907 465.36574,366.28707 C 465.46108,366.70693 465.56171,367.12804 465.65969,367.54851 C 465.77299,368.03391 465.8921,368.52057 466.0083,369.00655 C 466.14736,369.55678 466.29722,370.10835 466.44168,370.65924 C 466.62268,371.21903 466.68434,371.75302 466.80454,372.29486 C 466.88727,372.71887 466.82795,373.03063 466.83953,373.39444 C 466.82187,373.73859 466.81663,374.09545 466.80519,374.44598 C 466.79545,374.84716 466.78699,375.24959 466.77787,375.65139 C 466.77228,376.07804 466.75592,376.49389 466.74495,376.91508 C 466.74279,377.36529 466.68881,377.75989 466.66078,378.18168 C 466.6345,378.61691 466.5293,378.95279 466.4638,379.33689 C 466.39771,379.70426 466.24702,379.94115 466.13907,380.24197 C 465.83032,382.63759 464.34657,382.80186 463.46565,384.04307 C 463.29466,384.20114 463.05652,384.17851 462.85356,384.24569 C 462.64039,384.28394 462.38904,384.17958 462.15771,384.14666 C 461.9307,384.12476 461.66776,383.8871 461.42438,383.75817 C 461.16694,383.59888 460.90561,383.26624 460.64814,383.02208 C 460.38254,382.74384 460.12773,382.37737 459.86813,382.05576 C 459.59112,381.71485 459.34008,381.2742 459.07697,380.88477 C 458.78642,380.43742 458.5289,379.92005 458.25542,379.43868 C 457.95444,378.88711 457.68409,378.29451 457.40117,377.71953 C 457.10469,377.10276 456.82716,376.46712 456.54179,375.83959 C 456.26489,375.24111 456.03144,374.612 455.78008,373.99646 C 455.5689,373.4641 455.38532,372.92026 455.188,372.38234 C 455.03161,371.9563 454.9069,371.52355 454.76641,371.09436 C 454.67247,370.79745 454.57787,370.50064 454.48359,370.20378 C 454.42655,370.03095 454.37884,369.85738 454.32647,369.68419 C 454.28714,369.52934 454.20827,369.3858 454.15017,369.23915 C 454.91255,368.18038 455.36859,369.58506 456.13098,368.5263 C 456.23185,368.66494 455.79772,369.64503 456.08302,369.12804 C 456.66659,368.07058 456.8854,368.00564 456.87283,368.18311 C 456.77524,369.56102 457.04771,367.51033 457.12872,367.74749 C 457.23165,368.05747 457.32402,368.36889 457.42164,368.6795 C 457.5464,369.06236 457.63604,369.44511 457.74307,369.8273 C 457.85629,370.25159 457.93977,370.66958 458.03808,371.09053 C 458.13823,371.53728 458.21617,371.97649 458.30518,372.41932 C 458.40427,372.89891 458.46468,373.36133 458.54431,373.83176 C 458.62507,374.33165 458.66775,374.80935 458.7294,375.29772 C 458.79103,375.81315 458.81973,376.30547 458.86489,376.80923 C 458.92401,377.33689 458.92749,377.82182 458.95875,378.32733 C 458.98669,378.82767 458.94452,379.26118 458.93743,379.72714 C 458.92416,380.18934 458.84615,380.57699 458.80059,381.00117 C 458.75112,381.43477 458.63275,381.77567 458.54899,382.16215 C 458.45353,382.54916 458.30811,382.85916 458.18781,383.2073 C 458.05714,383.55861 457.88732,383.84284 457.73407,384.15506 C 456.89177,385.65029 455.91625,386.89557 455.00328,388.25479 C 454.81801,388.53088 454.57105,388.67426 454.34983,388.87101 C 454.14324,389.05585 453.87174,389.07219 453.63393,389.17227 C 453.3948,389.24487 453.11049,389.16465 452.84954,389.16086 C 452.58419,389.14497 452.28739,388.98879 452.00707,388.90296 C 451.72671,388.81393 451.42121,388.55162 451.12989,388.37691 C 450.83947,388.1837 450.54377,387.86778 450.2515,387.61393 C 449.94462,387.33479 449.64217,386.95771 449.33809,386.63021 C 449.037,386.32099 448.76269,385.85628 448.47624,385.47097 C 448.23058,385.12187 448.00815,384.7089 447.77467,384.3288 C 447.53017,383.91365 447.30764,383.46018 447.07438,383.02631 C 446.8315,382.56551 446.61676,382.07072 446.38824,381.59355 C 446.16349,381.11159 445.96578,380.60749 445.75481,380.11505 C 445.5477,379.62331 445.38106,379.11246 445.19449,378.61199 C 445.045,378.17428 444.90515,377.73456 444.76048,377.29584 C 444.65647,376.98292 444.55095,376.67032 444.44616,376.35757 C 444.37992,376.15629 444.3105,375.95581 444.24268,375.75493 C 444.22265,375.7027 444.21151,375.64838 444.1959,375.5951 C 445.29477,377.90704 445.8581,373.77893 446.55626,372.61321 C 446.52026,372.63962 446.57032,372.78948 446.57631,372.86487 C 446.61169,373.0598 446.65913,373.25878 446.70052,373.45569 C 446.76218,373.73531 446.82932,374.01634 446.89372,374.29665 C 446.97627,374.65163 447.06286,375.00749 447.14743,375.36289 C 447.25691,375.80137 447.35554,376.23763 447.45956,376.67484 C 447.5698,377.15497 447.6505,377.62504 447.7459,378.09984 C 447.84565,378.59196 447.89919,379.06184 447.97576,379.54236 C 448.05412,380.04207 448.07974,380.50835 448.13163,380.99042 C 448.18205,381.48486 448.1607,381.91915 448.17521,382.38236 C 448.1866,382.85092 448.11501,383.23103 448.085,383.65405 C 448.04905,384.07925 447.96343,384.44262 447.90272,384.83641 C 447.8312,385.22604 447.72063,385.56036 447.62959,385.92232 C 447.54404,386.31318 447.42092,386.64889 447.31665,387.01193 C 447.20627,387.38227 447.04993,387.67839 446.91668,388.01132 C 446.14618,389.60388 445.15953,390.81599 444.26381,392.16766 C 444.08468,392.44222 443.85469,392.60984 443.64604,392.82168 C 443.45522,393.05656 443.17735,393.07651 442.94399,393.20339 C 442.72339,393.3034 442.44707,393.22558 442.19965,393.23663 C 441.96451,393.24734 441.6885,393.07718 441.43446,392.99795 C 441.18134,392.89862 440.91026,392.66117 440.6494,392.49357 C 440.38379,392.30545 440.12233,391.93489 439.86082,391.65771 C 439.60453,391.35853 439.3572,391.00413 439.10569,390.67776 C 438.84247,390.33 438.59656,389.91875 438.3424,389.53985 C 438.0789,389.13534 437.83404,388.68607 437.58004,388.2595 C 437.31087,387.80496 437.06112,387.31453 436.80186,386.84241 C 436.5312,386.34225 436.2816,385.81241 436.02163,385.29771 C 435.75174,384.75578 435.50222,384.19141 435.24262,383.63851 C 435.00033,383.08881 434.74834,382.54808 434.50128,382.00306 C 434.31756,381.59404 434.11342,381.20864 433.91976,380.81198 C 433.79893,380.55354 433.64695,380.36216 433.51177,380.13926 C 433.42817,379.988 433.33175,379.96626 433.25114,379.8888 C 433.13139,379.75141 433.19665,380.00654 433.17212,380.05952 C 434.38512,380.47629 434.67106,378.99332 435.35417,377.92858 C 435.36825,378.1695 435.32139,377.40919 435.36325,377.66489 C 435.42985,378.01103 435.50612,378.36053 435.57755,378.70833 C 435.66108,379.10848 435.7514,379.51068 435.83832,379.91187 C 435.93637,380.36048 436.03991,380.8106 436.14069,381.25996 C 436.25193,381.75298 436.36768,382.24712 436.48117,382.7407 C 436.61463,383.29101 436.72126,383.83409 436.84125,384.38051 C 436.9677,384.93179 437.02281,385.45228 437.11335,385.98681 C 437.19929,386.51052 437.19637,386.97311 437.23771,387.46459 C 437.27029,387.9456 437.23167,388.36031 437.22866,388.80712 C 437.21672,389.25483 437.13346,389.61944 437.08596,390.02469 C 437.03014,390.43055 436.91753,390.75873 436.83345,391.1252 C 436.75356,391.49168 436.60033,391.74295 436.48406,392.05101 C 435.69819,393.56702 434.73792,394.787 433.8583,396.11123 C 433.67558,396.34412 433.45417,396.49282 433.25232,396.6834 C 433.04553,396.88543 432.76995,396.91266 432.52961,397.0269 C 432.24943,397.09853 431.92891,397.03281 431.62511,397.0233 C 431.31206,397.02309 430.96491,396.88296 430.63217,396.79986 C 430.30545,396.70669 429.95901,396.50532 429.62121,396.34898 C 429.28679,396.19157 428.93726,395.89795 428.59456,395.66203 C 428.25469,395.41734 427.91105,395.06954 427.5694,394.76517 C 427.2318,394.45658 426.89795,394.05852 426.56289,393.69827 C 426.22823,393.33059 425.90327,392.88749 425.57455,392.47633 C 425.24288,392.05572 424.92615,391.5688 424.60347,391.11027 C 424.28604,390.65662 424.00099,390.11719 423.70054,389.62193 C 423.42149,389.15349 423.17984,388.6249 422.91999,388.1273 C 422.67693,387.65805 422.47431,387.14732 422.25193,386.65832 C 422.14832,386.41844 422.05324,386.17288 421.95396,385.93025 L 424.2354,382.76752 C 424.3288,382.99832 424.41774,383.23213 424.51568,383.46018 C 424.7225,383.92089 424.90934,384.40281 425.13705,384.84439 C 425.38181,385.31429 425.6087,385.81437 425.87225,386.25588 C 426.15406,386.71756 426.42046,387.2251 426.71946,387.64387 C 427.02996,388.07478 427.33311,388.54405 427.65199,388.93803 C 427.9679,389.32065 428.27942,389.74779 428.60071,390.08708 C 428.92141,390.41648 429.24146,390.7984 429.56396,391.0765 C 429.88976,391.34802 430.21961,391.68032 430.5427,391.89222 C 430.86638,392.08967 431.20117,392.36263 431.51565,392.48578 C 431.83873,392.6173 432.17125,392.79553 432.4817,392.86159 C 432.79939,392.91721 433.13122,393.02662 433.43085,393.01063 C 433.71286,392.98297 434.02334,393.03887 434.26719,392.89268 C 434.48738,392.74489 434.74191,392.67559 434.92928,392.44825 C 435.11454,392.23026 435.33292,392.07767 435.48586,391.7933 C 431.77752,397.38947 432.99734,395.58791 433.78795,394.33167 C 433.91898,394.05576 434.07831,393.8272 434.18136,393.50324 C 434.27685,393.16273 434.39842,392.8593 434.46809,392.48077 C 434.52986,392.10723 434.62114,391.77003 434.65364,391.35881 C 434.67299,390.94785 434.73059,390.57388 434.71181,390.12248 C 434.68952,389.67074 434.70398,389.24681 434.64478,388.76472 C 434.57068,388.2634 434.53431,387.77953 434.42202,387.2577 C 434.30928,386.72793 434.21417,386.20272 434.08349,385.66719 C 433.96834,385.17204 433.85122,384.67642 433.73803,384.18176 C 433.63519,383.73018 433.53002,383.278 433.4295,382.82702 C 433.33995,382.42265 433.24764,382.01745 433.16087,381.61386 C 433.08568,381.26077 433.00728,380.90671 432.93527,380.55462 C 432.87585,380.2671 432.81711,379.97978 432.75703,379.69206 C 433.14477,378.97513 432.34283,374.68564 436.81453,380.45704 C 436.929,380.55458 435.12302,376.00246 435.24074,376.13934 C 435.37434,376.31191 435.11634,377.46324 435.24265,377.67853 C 435.40439,377.95722 435.9851,377.18659 436.13089,377.49936 C 436.33247,377.91735 436.54564,378.32323 436.73609,378.75436 C 436.98404,379.30382 437.23518,379.85054 437.48,380.40303 C 437.73296,380.94193 437.97593,381.4922 438.23908,382.02024 C 438.49104,382.51841 438.73269,383.03166 438.99525,383.51532 C 439.24611,383.97017 439.48746,384.44354 439.74821,384.88057 C 439.99186,385.2864 440.22637,385.71567 440.47956,386.09876 C 440.71967,386.45062 440.95191,386.83582 441.2008,387.15564 C 441.43941,387.45753 441.67435,387.78852 441.91735,388.06224 C 442.14209,388.27473 442.37268,388.5953 442.59694,388.70485 C 442.83491,388.83228 443.08549,389.0335 443.31251,389.08803 C 443.54265,389.12741 443.79312,389.24025 444.00523,389.20657 C 444.22864,389.15713 444.48416,389.19693 444.67752,389.05773 C 444.88908,388.89756 445.13549,388.81431 445.31396,388.57586 C 445.5081,388.33944 445.72405,388.14596 445.88931,387.85102 C 442.19164,393.44218 443.44786,391.60698 444.22803,390.30015 C 444.37002,389.98777 444.53328,389.71065 444.65423,389.36249 C 444.76626,389.01788 444.90377,388.71125 444.99056,388.32786 C 445.08558,387.97553 445.17563,387.61607 445.27559,387.27094 C 445.34686,386.9011 445.44784,386.56925 445.48964,386.16014 C 445.53402,385.76807 445.60226,385.40383 445.62282,384.98359 C 445.62385,384.55361 445.66045,384.15523 445.62593,383.69141 C 445.58697,383.23761 445.58079,382.80618 445.50893,382.32836 C 445.44245,381.8694 445.40095,381.4228 445.3093,380.95034 C 445.22184,380.4935 445.15439,380.04366 445.04672,379.57894 C 444.94843,379.15634 444.86887,378.73691 444.75141,378.30937 C 444.66457,377.95254 444.57633,377.59544 444.49093,377.23888 C 444.42341,376.9554 444.3544,376.6716 444.28836,376.38847 C 444.2406,376.18232 444.19126,375.97579 444.14502,375.77003 C 444.11111,375.63382 444.08823,375.49801 444.04312,375.36059 C 444.29278,374.93034 445.03023,369.42436 446.43391,372.29086 C 446.4834,372.41491 446.55257,372.53419 446.5849,372.66932 C 446.65153,372.87275 446.71532,373.07651 446.78478,373.27946 C 446.88847,373.59543 446.98954,373.91181 447.09586,374.2273 C 447.23519,374.6594 447.37501,375.09143 447.51388,375.52361 C 447.68597,375.99621 447.83822,376.47845 448.03088,376.94346 C 448.23089,377.41411 448.41707,377.89686 448.63156,378.35699 C 448.84676,378.80824 449.04775,379.27776 449.27789,379.71236 C 449.4997,380.12285 449.71065,380.55352 449.94382,380.94472 C 450.16116,381.29488 450.36896,381.6742 450.59683,381.9967 C 450.8575,382.33767 451.10759,382.76111 451.38213,383.02396 C 451.67053,383.32247 451.95828,383.67402 452.24866,383.92089 C 452.52153,384.13998 452.79978,384.42353 453.06901,384.57958 C 453.33728,384.71438 453.62082,384.93249 453.87604,384.98506 C 454.13765,385.03921 454.41785,385.16462 454.66245,385.14782 C 454.90161,385.11541 455.16948,385.16685 455.38186,385.05032 C 455.59867,384.91684 455.84561,384.85406 456.03351,384.64915 C 456.23737,384.42392 456.46256,384.2423 456.63802,383.95785 C 456.10183,384.77347 454.4994,387.23205 455.02986,386.40549 C 455.18977,386.11106 455.37326,385.85788 455.50993,385.52151 C 455.63972,385.19545 455.79216,384.90537 455.89956,384.54271 C 455.99607,384.18536 456.12576,383.8746 456.18941,383.46954 C 456.24785,383.07378 456.33696,382.71487 456.36491,382.28089 C 456.38625,381.84553 456.44177,381.44435 456.42901,380.97293 C 456.40981,380.49306 456.42728,380.04199 456.37131,379.53099 C 456.33013,379.03698 456.29428,378.54692 456.24779,378.04912 C 456.19402,377.57845 456.15498,377.11696 456.08645,376.63681 C 456.01553,376.18592 455.96564,375.74524 455.87362,375.28377 C 455.79017,374.85383 455.71632,374.42725 455.62321,373.99365 C 455.53393,373.59272 455.45622,373.19443 455.35526,372.79027 C 455.26011,372.43428 455.18104,372.07905 455.06962,371.72158 C 454.97596,371.42245 454.88657,371.12272 454.78864,370.82407 C 454.71524,370.60513 454.64637,370.385 454.56838,370.1671 C 454.52212,370.04696 454.48426,369.92127 454.42926,369.80573 C 454.4586,369.85521 454.49051,369.9003 454.51727,369.95419 C 455.26976,368.90341 458.12889,368.8356 456.92944,368.71511 C 456.97672,368.88318 456.83424,368.51632 456.87801,368.6843 C 456.96986,368.98189 457.01707,367.74829 457.11301,368.04553 C 457.24264,368.4584 457.36228,368.87288 457.50192,369.28421 C 457.69038,369.80874 457.86512,370.3388 458.06748,370.85828 C 458.30647,371.44619 458.52002,372.05308 458.78544,372.62452 C 459.06404,373.23824 459.33427,373.86064 459.62466,374.46296 C 459.89591,375.01246 460.15466,375.5798 460.44385,376.10569 C 460.70175,376.555 460.9442,377.04084 461.21881,377.45578 C 461.46303,377.80826 461.69722,378.20886 461.95338,378.51603 C 462.19373,378.80178 462.43015,379.13901 462.67596,379.37512 C 462.90036,379.55984 463.13414,379.84331 463.35367,379.93297 C 463.56672,380.01058 463.80129,380.17979 463.99689,380.16727 C 464.20302,380.15828 464.43649,380.23301 464.61747,380.14015 C 464.7961,380.03264 465.00297,379.99116 465.15474,379.8168 C 464.58034,380.71222 464.04756,381.68826 463.43548,382.51054 C 463.5623,382.25048 463.73278,382.06262 463.81677,381.7287 C 463.89961,381.3832 464.03156,381.1033 464.06594,380.68954 C 464.10543,380.29334 464.178,379.93368 464.18462,379.4993 C 464.19783,379.08395 464.22725,378.68517 464.22427,378.25339 C 464.23312,377.85274 464.24242,377.45256 464.25085,377.05148 C 464.25854,376.69556 464.26516,376.33874 464.27394,375.98392 C 464.2901,375.6743 464.31095,375.36968 464.32248,375.0551 C 464.24043,374.59271 464.25373,374.14124 464.06951,373.62967 C 463.92164,373.07417 463.77309,372.51859 463.62589,371.96314 C 463.50494,371.47065 463.37536,370.97585 463.2628,370.48459 C 463.16243,370.06236 463.06013,369.63969 462.96163,369.21785 C 462.88048,368.8669 462.79657,368.51527 462.71812,368.16496 C 462.65289,367.87268 462.58512,367.57966 462.52245,367.28807 C 462.47395,367.05899 462.42626,366.82998 462.37698,366.60096 C 462.33534,366.423 462.30147,366.24725 462.25226,366.06805 C 462.22013,365.94627 462.18842,365.82452 462.15589,365.70272 C 462.1431,365.65567 462.13113,365.60867 462.1175,365.56157 L 462.40985,364.54438 z "
         id="path20630"
         style="fill:black;fill-opacity:1;stroke:black;stroke-width:3;stroke-linejoin:miter;stroke-miterlimit:4;stroke-dasharray:none;stroke-dashoffset:0;stroke-opacity:1" />
      <path
         id="path22412"
         d="M 366.82194,241.81148 L 352.54644,241.81148 L 353.56612,246.14512 L 367.84162,245.8902 L 366.82194,241.81148 z "
         style="fill:#b7b7b7;fill-opacity:1;fill-rule:evenodd;stroke:black;stroke-width:1px;stroke-linecap:butt;stroke-linejoin:miter;stroke-opacity:1" />
      <path
         d="M 309.67797,211.62538 C 309.72581,211.62748 309.77374,211.62721 309.82163,211.62814 C 309.95775,211.63039 310.0939,211.63031 310.23005,211.63139 C 310.44389,211.62302 310.65178,211.68845 310.86055,211.71669 C 311.1312,211.75606 311.36623,211.90082 311.61749,211.99231 C 311.8868,212.10631 312.13354,212.26561 312.39127,212.40209 C 312.67375,212.58168 312.95468,212.76373 313.23643,212.9446 C 313.55947,213.14521 313.86491,213.37228 314.17893,213.58596 C 314.51809,213.82392 314.83828,214.08718 315.16798,214.33783 C 315.51003,214.62092 315.88189,214.8644 316.23857,215.12748 C 316.62663,215.40251 317.04862,215.6232 317.45348,215.87096 C 317.89302,216.1565 318.36863,216.37889 318.82574,216.63258 C 319.34227,216.91133 319.87856,217.15035 320.40485,217.40915 C 320.96439,217.68935 321.54475,217.9239 322.11622,218.17764 C 322.71443,218.44217 323.33423,218.65184 323.94463,218.88476 C 324.60312,219.12396 325.27501,219.32287 325.94121,219.53857 C 326.6347,219.76094 327.33996,219.94275 328.04016,220.1417 C 328.7729,220.34392 329.51367,220.51454 330.25105,220.69836 C 331.01921,220.88848 331.79508,221.04407 332.56853,221.21041 C 333.38151,221.38271 334.19961,221.52888 335.0161,221.68308 C 335.83186,221.84336 336.65789,221.94001 337.4806,222.0551 C 338.28383,222.16511 339.0934,222.20112 339.90064,222.26216 C 340.68968,222.313 341.48038,222.29995 342.27028,222.30761 C 343.02697,222.32093 343.77578,222.20625 344.52715,222.14509 C 345.26653,222.07261 345.99538,221.92647 346.72824,221.80947 C 347.46583,221.68447 348.19805,221.53097 348.93266,221.39073 C 349.66843,221.26083 350.38244,221.0394 351.10516,220.85527 C 351.84518,220.6519 352.59295,220.47899 353.33743,220.29332 C 354.10211,220.10675 354.87231,219.94453 355.64078,219.77471 C 356.43148,219.60016 357.2278,219.45363 358.02235,219.29822 C 358.84173,219.14042 359.66465,219.00232 360.48647,218.85806 C 361.30694,218.72715 362.11594,218.53927 362.92894,218.37178 C 363.70388,218.20065 364.45311,217.93912 365.20982,217.70471 C 365.97006,217.49386 366.69936,217.19408 367.43818,216.92234 C 368.15742,216.65621 368.82664,216.28024 369.51619,215.95045 C 371.07091,215.08053 366.42785,217.72752 364.88197,218.61305 C 365.50785,218.22418 366.09273,217.77518 366.69389,217.35063 C 367.29062,216.93078 367.82494,216.43317 368.38506,215.96847 C 368.94173,215.4986 369.42918,214.95645 369.94531,214.44509 C 370.45686,213.91314 370.92454,213.34205 371.41127,212.78821 C 371.88257,212.21449 372.35433,211.64116 372.82581,211.06756 C 373.29799,210.49152 373.80528,209.94602 374.29798,209.38795 C 374.80362,208.8241 375.31664,208.26689 375.82547,207.70595 C 376.33859,207.13305 376.92613,206.63573 377.48257,206.10754 C 378.04807,205.5778 378.6755,205.1224 379.27641,204.63587 C 379.89784,204.14897 380.56377,203.72512 381.21536,203.28132 C 384.02051,201.48257 386.98765,199.9415 389.87731,198.2972 C 390.63038,197.91274 391.42121,197.61395 392.19925,197.287 C 393.02317,196.94531 393.88125,196.7016 394.72856,196.428 C 395.65162,196.14413 396.58356,195.89092 397.51268,195.62812 C 398.48682,195.35403 399.47444,195.13305 400.45788,194.89605 C 401.48026,194.65647 402.50723,194.43745 403.53343,194.21496 C 404.55886,193.99405 405.58817,193.79203 406.61681,193.58681 C 406.96014,193.5246 407.30125,193.45115 407.64346,193.3833 L 401.55714,197.99139 C 401.2147,198.05899 400.87223,198.12638 400.52983,198.19419 C 399.50378,198.4026 398.47705,198.60778 397.45436,198.83219 C 396.43088,199.05836 395.40642,199.28025 394.38747,199.52632 C 393.40777,199.77343 392.42334,200.00281 391.45357,200.28794 C 390.52825,200.55662 389.59887,200.8122 388.68241,201.1106 C 387.84482,201.40414 386.99515,201.66597 386.18156,202.02505 C 385.41546,202.36912 384.63707,202.68817 383.89664,203.08731 C 385.38245,202.22254 389.83464,199.61961 388.3595,200.50245 C 387.70175,200.92837 387.02984,201.33345 386.40235,201.80473 C 385.79417,202.27181 385.15885,202.70507 384.58707,203.21875 C 384.02329,203.72668 383.43379,204.20745 382.90505,204.75372 C 382.39274,205.30794 381.85676,205.84085 381.37188,206.42046 C 380.87678,206.97015 380.36705,207.50663 379.88904,208.07161 C 379.41616,208.6421 378.93406,209.20514 378.47062,209.78355 C 377.99099,210.351 377.53781,210.9419 377.02097,211.47748 C 376.51459,212.01083 376.04166,212.57775 375.48891,213.06646 C 374.93718,213.55215 374.41222,214.06998 373.82239,214.51164 C 373.22681,214.95202 372.64606,215.41325 372.02966,215.8254 C 369.20986,217.47727 366.45535,219.27559 363.52621,220.74166 C 362.82134,221.05048 362.13497,221.40532 361.40303,221.65081 C 360.65294,221.90538 359.90846,222.17722 359.14713,222.39817 C 358.3777,222.61424 357.61594,222.86185 356.82817,223.00784 C 356.00874,223.16406 355.19117,223.3311 354.36779,223.46635 C 353.54828,223.61473 352.72753,223.75652 351.91071,223.91938 C 351.11902,224.08078 350.32553,224.23383 349.53752,224.41302 C 348.77219,224.58816 348.00497,224.75539 347.24369,224.94795 C 346.50161,225.13877 345.75708,225.32014 345.01814,225.52313 C 344.28541,225.69265 343.56046,225.89897 342.81685,226.02072 C 342.07706,226.15566 341.33926,226.30206 340.59636,226.41953 C 339.85407,226.52313 339.11639,226.66499 338.36721,226.71702 C 337.60104,226.75543 336.83581,226.84505 336.06669,226.8129 C 335.26834,226.79285 334.46904,226.79168 333.67222,226.72869 C 332.85502,226.65227 332.03527,226.59651 331.22258,226.47596 C 330.39326,226.34841 329.56092,226.23853 328.73821,226.07069 C 327.91716,225.91236 327.09441,225.76245 326.27706,225.58537 C 325.49764,225.41351 324.71563,225.25275 323.94164,225.05691 C 323.19918,224.86759 322.45308,224.6921 321.71563,224.48344 C 321.00893,224.27743 320.29706,224.08843 319.59725,223.85905 C 318.92349,223.63512 318.24333,223.42956 317.57833,223.17965 C 316.95829,222.93548 316.32905,222.71347 315.72109,222.43897 C 315.14395,222.17735 314.56009,221.93011 313.9913,221.6501 C 313.4575,221.38442 312.91676,221.13227 312.38971,220.85295 C 311.92362,220.58931 311.44626,220.34485 310.99106,220.06179 C 310.57389,219.79757 310.13504,219.56581 309.73879,219.26864 C 309.37549,218.99817 309.00399,218.73841 308.64869,218.45712 C 308.32231,218.21444 308.00927,217.9536 307.6695,217.72907 C 307.36192,217.52907 307.06225,217.31643 306.74652,217.12898 C 306.47131,216.96143 306.21221,216.76663 305.9208,216.62628 C 305.67813,216.51628 305.44903,216.37426 305.19213,216.29591 C 304.97553,216.2567 304.76268,216.17405 304.53854,216.17755 C 304.34714,216.17939 304.15616,216.16996 303.96522,216.18305 C 303.82609,216.18414 303.68695,216.18406 303.54783,216.18632 C 303.49742,216.18724 303.44699,216.18703 303.3966,216.18905 L 309.67797,211.62538 z "
         id="path22414"
         style="fill:black;fill-opacity:1;stroke:black;stroke-width:3.45222735;stroke-linejoin:round;stroke-miterlimit:2;stroke-dasharray:none;stroke-dashoffset:0;stroke-opacity:1" />
      <path
         sodipodi:nodetypes="ccccccccccccccccccc"
         id="path23301"
         d="M 299.02976,227.75147 L 343.01174,213.01772 L 416.7722,196.04106 L 416.64741,193.07286 L 414.30159,187.72021 L 411.20866,184.8768 L 402.69483,182.75685 L 393.23321,181.66787 L 376.51753,184.84844 L 356.96319,191.23558 L 341.25291,194.75557 L 321.15751,200.06045 L 303.94385,203.18452 L 298.13554,206.47954 L 294.38592,211.59287 L 293.62527,217.0761 L 293.87633,223.048 L 296.47309,225.87668 L 299.02976,227.75147 z "
         style="fill:#555c53;fill-opacity:1;fill-rule:evenodd;stroke:black;stroke-width:3;stroke-linecap:butt;stroke-linejoin:miter;stroke-miterlimit:4;stroke-dasharray:none;stroke-opacity:1" />
      <g
         style="stroke:black;stroke-opacity:1"
         transform="translate(953.6368,104.3445)"
         id="g3651">
        <path
           sodipodi:type="star"
           style="fill:black;fill-opacity:1;stroke:black;stroke-width:7.60032272;stroke-miterlimit:4;stroke-dasharray:none;stroke-opacity:1"
           id="path3647"
           sodipodi:sides="50"
           sodipodi:cx="63.223309"
           sodipodi:cy="230.45917"
           sodipodi:r1="139.19232"
           sodipodi:r2="69.596161"
           sodipodi:arg1="0.8891905"
           sodipodi:arg2="0.95202235"
           inkscape:flatsided="false"
           inkscape:rounded="0"
           inkscape:randomized="0"
           d="M 150.92016,338.55063 L 103.59165,287.15152 L 136.68119,348.68963 L 96.167897,291.76398 L 121.28375,356.96406 L 88.224589,295.40962 L 104.97066,363.24343 L 79.886996,298.03096 L 87.999183,367.42872 L 71.286607,299.58665 L 70.636981,369.45392 L 62.559054,300.05216 L 53.157861,369.28708 L 53.841978,299.42014 L 35.837479,366.93085 L 45.27285,297.70057 L 18.948988,362.42237 L 36.986812,294.92057 L 2.7587291,355.83276 L 29.114539,291.12396 L -12.477967,347.26593 L 21.780182,286.37064 L -26.520809,336.85699 L 15.099408,280.73556 L -39.148332,324.77009 L 9.1775759,274.30759 L -50.161394,311.19585 L 4.1080777,267.18811 L -59.386311,296.34834 L -0.029137922,259.48939 L -66.677601,280.46173 L -3.1688247,251.33284 L -71.920276,263.78654 L -5.2614679,242.84711 L -75.031656,246.58576 L -6.2740653,234.166 L -75.962673,229.13066 L -6.1906476,225.42644 L -74.698644,211.69651 L -5.0125303,216.76625 L -71.259503,194.55825 L -2.758293,208.32201 L -65.699488,177.98617 L 0.53651346,200.22688 L -58.106283,162.24163 L 4.8199282,192.60853 L -48.599638,147.57291 L 10.024399,185.58711 L -37.329479,134.21137 L 16.067849,179.27335 L -24.473542,122.3677 L 22.854968,173.76682 L -10.234573,112.22871 L 30.27872,169.15436 L 5.1628706,103.95427 L 38.222028,165.50871 L 21.475962,97.674901 L 46.559621,162.88738 L 38.447434,93.489614 L 55.16001,161.33169 L 55.809636,91.46442 L 63.887563,160.86618 L 73.288756,91.631255 L 72.60464,161.49819 L 90.609138,93.98749 L 81.173767,163.21776 L 107.49763,98.495964 L 89.459805,165.99777 L 123.68789,105.08558 L 97.332078,169.79437 L 138.92458,113.65241 L 104.66644,174.54769 L 152.96743,124.06135 L 111.34721,180.18277 L 165.59495,136.14825 L 117.26904,186.61074 L 176.60801,149.72249 L 122.33854,193.73023 L 185.83293,164.56999 L 126.47576,201.42895 L 193.12422,180.45661 L 129.61544,209.58549 L 198.36689,197.13179 L 131.70809,218.07123 L 201.47827,214.33257 L 132.72068,226.75233 L 202.40929,231.78768 L 132.63726,235.49189 L 201.14526,249.22183 L 131.45915,244.15208 L 197.70612,266.36008 L 129.20491,252.59633 L 192.1461,282.93216 L 125.9101,260.69146 L 184.5529,298.67671 L 121.62669,268.30981 L 175.04626,313.34542 L 116.42222,275.33123 L 163.7761,326.70697 L 110.37877,281.64499 L 150.92016,338.55063 z "
           transform="matrix(1.021404,0,0,1.021404,-235.8368,141.7485)" />
        <path
           sodipodi:type="arc"
           style="fill:black;fill-opacity:1;fill-rule:evenodd;stroke:black;stroke-width:1px;stroke-linecap:butt;stroke-linejoin:miter;stroke-opacity:1"
           id="path1871"
           sodipodi:cx="-125.42689"
           sodipodi:cy="283.48517"
           sodipodi:rx="127.46635"
           sodipodi:ry="136.64392"
           d="M 2.0394592 283.48517 A 127.46635 136.64392 0 1 1  -252.89323,283.48517 A 127.46635 136.64392 0 1 1  2.0394592 283.48517 z"
           transform="matrix(1.055106,0,0,0.984241,-39.08068,98.34438)" />
        <path
           sodipodi:type="arc"
           style="fill:white;fill-opacity:1;fill-rule:evenodd;stroke:black;stroke-width:1px;stroke-linecap:butt;stroke-linejoin:miter;stroke-opacity:1"
           id="path2758"
           sodipodi:cx="-125.42689"
           sodipodi:cy="283.48517"
           sodipodi:rx="127.46635"
           sodipodi:ry="136.64392"
           d="M 2.0394592 283.48517 A 127.46635 136.64392 0 1 1  -252.89323,283.48517 A 127.46635 136.64392 0 1 1  2.0394592 283.48517 z"
           transform="matrix(0.800072,0,0,0.746336,-70.96418,165.7251)" />
      </g>
      <rect
         transform="matrix(0.908471,-0.417949,0.417949,0.908471,0,0)"
         y="423.35056"
         x="472.67468"
         height="125.49562"
         width="25.739452"
         id="rect8119"
         style="fill:#9d7f20;fill-opacity:1;stroke:black;stroke-width:3;stroke-miterlimit:4;stroke-dasharray:none;stroke-opacity:1" />
      <rect
         transform="matrix(0.908471,-0.417949,0.417949,0.908471,0,0)"
         y="503.77005"
         x="472.47333"
         height="125.49538"
         width="25.739407"
         id="rect6343"
         style="fill:#9d7f20;fill-opacity:1;stroke:black;stroke-width:3;stroke-miterlimit:4;stroke-dasharray:none;stroke-opacity:1" />
      <path
         sodipodi:nodetypes="cccccccccccc"
         id="path3684"
         d="M 792.48678,486.82932 L 787.08381,476.08666 L 769.26876,467.07668 L 718.67427,363.1154 L 719.71389,335.73893 L 709.6643,337.81816 L 708.97122,356.18465 L 686.44628,367.96693 L 757.48648,513.85925 L 786.04419,502.42352 L 781.39758,492.37393 L 792.48678,486.82932 z "
         style="fill:#616369;fill-opacity:1;fill-rule:evenodd;stroke:black;stroke-width:3;stroke-linecap:butt;stroke-linejoin:miter;stroke-miterlimit:4;stroke-dasharray:none;stroke-opacity:1" />
      <path
         transform="matrix(5.323624,0,0,7.968065,-3572.589,-2760.665)"
         d="M 818.86838 407.25992 A 0.51980639 0.34653759 0 1 1  817.82877,407.25992 A 0.51980639 0.34653759 0 1 1  818.86838 407.25992 z"
         sodipodi:ry="0.34653759"
         sodipodi:rx="0.51980639"
         sodipodi:cy="407.25992"
         sodipodi:cx="818.34857"
         id="path4571"
         style="fill:black;fill-opacity:1;stroke:black;stroke-width:0.51781553;stroke-miterlimit:4;stroke-dasharray:none;stroke-opacity:1"
         sodipodi:type="arc" />
      <rect
         transform="matrix(0.906497,-0.422212,0.422212,0.906497,0,0)"
         y="491.46112"
         x="468.67218"
         height="14.799578"
         width="28.626198"
         id="rect8115"
         style="fill:black;fill-opacity:1;stroke:black;stroke-width:3;stroke-linejoin:round;stroke-miterlimit:4;stroke-dasharray:none;stroke-opacity:1" />
      <rect
         transform="matrix(0.906497,-0.422212,0.422212,0.906497,0,0)"
         y="410.71796"
         x="469.04413"
         height="14.799572"
         width="28.626186"
         id="rect8117"
         style="fill:black;fill-opacity:1;stroke:black;stroke-width:3;stroke-linejoin:round;stroke-miterlimit:4;stroke-dasharray:none;stroke-opacity:1" />
      <path
         id="path8121"
         d="M 597.3518,175.00055 L 625.30817,162.06776 L 630.46351,153.94389 L 633.34202,140.78247 L 619.66189,123.34922 L 604.74925,136.37421 L 585.73516,150.69911 L 597.3518,175.00055 z "
         style="fill:#616369;fill-opacity:1;fill-rule:evenodd;stroke:black;stroke-width:1.70000005;stroke-linecap:butt;stroke-linejoin:miter;stroke-miterlimit:4;stroke-dasharray:none;stroke-opacity:1"
         sodipodi:nodetypes="cccccccc" />
      <path
         transform="matrix(0.700921,-0.293197,0.236813,0.566129,218.4167,209.9397)"
         d="M 492.19519 152.6051 A 4.9884648 6.1761942 0 1 1  482.21826,152.6051 A 4.9884648 6.1761942 0 1 1  492.19519 152.6051 z"
         sodipodi:ry="6.1761942"
         sodipodi:rx="4.9884648"
         sodipodi:cy="152.6051"
         sodipodi:cx="487.20673"
         id="path8123"
         style="fill:#616369;fill-opacity:1;stroke:black;stroke-width:2.05031753;stroke-linejoin:round;stroke-miterlimit:4;stroke-dasharray:none;stroke-opacity:1"
         sodipodi:type="arc" />
      <path
         transform="matrix(0.700921,-0.293197,0.236813,0.566129,222.7981,220.8727)"
         d="M 492.19519 152.6051 A 4.9884648 6.1761942 0 1 1  482.21826,152.6051 A 4.9884648 6.1761942 0 1 1  492.19519 152.6051 z"
         sodipodi:ry="6.1761942"
         sodipodi:rx="4.9884648"
         sodipodi:cy="152.6051"
         sodipodi:cx="487.20673"
         id="path11711"
         style="fill:#616369;fill-opacity:1;stroke:black;stroke-width:2.00510788;stroke-linejoin:round;stroke-miterlimit:4;stroke-dasharray:none;stroke-opacity:1"
         sodipodi:type="arc" />
      <path
         transform="matrix(0.999836,0,0,1.004343,-10.35183,43.98891)"
         d="M 638.82528 98.05896 A 10.815327 10.094305 0 1 1  617.19462,98.05896 A 10.815327 10.094305 0 1 1  638.82528 98.05896 z"
         sodipodi:ry="10.094305"
         sodipodi:rx="10.815327"
         sodipodi:cy="98.05896"
         sodipodi:cx="628.00995"
         id="path25083"
         style="fill:black;fill-opacity:1;stroke:black;stroke-width:1.70000005;stroke-linejoin:round;stroke-miterlimit:2;stroke-dasharray:none;stroke-dashoffset:0;stroke-opacity:1"
         sodipodi:type="arc" />
      <rect
         transform="matrix(0.908313,0.41829,-0.41829,0.908313,0,0)"
         y="-159.63254"
         x="620.15356"
         height="8.2917395"
         width="30.643379"
         id="rect26861"
         style="fill:black;fill-opacity:1;stroke:black;stroke-width:1.69999754;stroke-linejoin:round;stroke-miterlimit:2;stroke-dasharray:none;stroke-dashoffset:0;stroke-opacity:1" />
      <path
         transform="matrix(1.540576,0,0,1.54752,-343.9933,-30.72014)"
         d="M 638.82528 98.05896 A 10.815327 10.094305 0 1 1  617.19462,98.05896 A 10.815327 10.094305 0 1 1  638.82528 98.05896 z"
         sodipodi:ry="10.094305"
         sodipodi:rx="10.815327"
         sodipodi:cy="98.05896"
         sodipodi:cx="628.00995"
         id="path25974"
         style="fill:#666;fill-opacity:1;stroke:black;stroke-width:1.70000005;stroke-linejoin:round;stroke-miterlimit:2;stroke-dasharray:none;stroke-dashoffset:0;stroke-opacity:1"
         sodipodi:type="arc" />
      <path
         transform="matrix(0.999836,0,0,1.004343,-7.828219,32.76742)"
         d="M 638.82528 98.05896 A 10.815327 10.094305 0 1 1  617.19462,98.05896 A 10.815327 10.094305 0 1 1  638.82528 98.05896 z"
         sodipodi:ry="10.094305"
         sodipodi:rx="10.815327"
         sodipodi:cy="98.05896"
         sodipodi:cx="628.00995"
         id="path25970"
         style="fill:black;fill-opacity:1;stroke:black;stroke-width:1.70000005;stroke-linejoin:round;stroke-miterlimit:2;stroke-dasharray:none;stroke-dashoffset:0;stroke-opacity:1"
         sodipodi:type="arc" />
      <path
         transform="matrix(0.999836,0,0,1.004343,-4.666591,22.31261)"
         d="M 638.82528 98.05896 A 10.815327 10.094305 0 1 1  617.19462,98.05896 A 10.815327 10.094305 0 1 1  638.82528 98.05896 z"
         sodipodi:ry="10.094305"
         sodipodi:rx="10.815327"
         sodipodi:cy="98.05896"
         sodipodi:cx="628.00995"
         id="path25972"
         style="fill:black;fill-opacity:1;stroke:black;stroke-width:1.70000005;stroke-linejoin:round;stroke-miterlimit:2;stroke-dasharray:none;stroke-dashoffset:0;stroke-opacity:1"
         sodipodi:type="arc" />
    </g>
  </g>
</svg>
