<svg xmlns="http://www.w3.org/2000/svg" xmlns:xlink="http://www.w3.org/1999/xlink" width="800.526" height="200.095" enable-background="new 0 0 448.526 347.095" overflow="visible" viewBox="0 0 448.526 340.095" xml:space="preserve"><metadata><rdf:RDF xmlns="http://web.resource.org/cc/" xmlns:dc="http://purl.org/dc/elements/1.1/" xmlns:rdf="http://www.w3.org/1999/02/22-rdf-syntax-ns#"><Work><dc:title>Bird</dc:title><dc:description>Bird</dc:description><dc:subject><rdf:Bag><rdf:li>animal</rdf:li><rdf:li>bird</rdf:li></rdf:Bag></dc:subject><dc:publisher><Agent rdf:about="http://www.openclipart.org/"><dc:title>Open Clip Art Project</dc:title></Agent></dc:publisher><dc:creator><Agent><dc:title>ArtFavor</dc:title></Agent></dc:creator><dc:rights><Agent rdf:about="http://web.resource.org/cc/PublicDomain"><dc:title>Public Domain</dc:title></Agent></dc:rights><dc:date>2005/10/03</dc:date><dc:format>image/svg+xml</dc:format><dc:type>http://purl.org/dc/dcmitype/StillImage</dc:type><license rdf:resource="http://web.resource.org/cc/PublicDomain"/></Work><License rdf:about="http://web.resource.org/cc/PublicDomain"><permits rdf:resource="http://web.resource.org/cc/Reproduction"/><permits rdf:resource="http://web.resource.org/cc/Distribution"/><permits rdf:resource="http://web.resource.org/cc/DerivativeWorks"/></License></rdf:RDF><variableSets xmlns="http://ns.adobe.com/Variables/1.0/"><variableSet locked="none" varSetName="binding1"><variables/><v:sampleDataSets xmlns="http://ns.adobe.com/GenericCustomNamespace/1.0/" xmlns:v="http://ns.adobe.com/Variables/1.0/"/></variableSet></variableSets><sfw xmlns="http://ns.adobe.com/SaveForWeb/1.0/"><slices/><sliceSourceBounds width="448.526" height="347.095" x="75.08" y="308.791" bottomLeftOrigin="true"/></sfw></metadata><switch><g><g id="Layer_1"><g><path fill="#D8C49A" fill-rule="evenodd" stroke="#000" stroke-linecap="round" stroke-miterlimit="2.414" stroke-width=".36" d="M258.456,234.874c-5.415,4.211-0.904,11.278,1.052,14.134c1.953,2.706,17.891,26.761,21.65,29.769 c3.607,2.857,8.118,3.456,9.32,5.712c0,0,10.374,9.923,43.603,7.067c0,0,7.065,2.405,0.9,5.413c0,0-2.104,1.805-5.111,0.15 c-3.007-1.653-3.759-0.15-5.263,0.3c-1.653,0.602-4.961,0.3-6.915-0.752c-1.805-0.901-2.254,0-3.908,0.15 c-4.663,0.302-9.924-1.954-9.473-1.653c1.353,1.503,10.673,3.156,14.733,3.909c5.563,1.052,13.08,1.805,12.478,6.615 c-0.449,3.008-4.659,5.112-7.967,2.104c-4.961-4.811-5.563-0.602-8.871-3.308c0,0-4.06-3.308-6.766-2.706 c-2.857,0.753-5.262-0.901-7.066-2.555c-2.104-1.654-4.662,0-6.164-1.806c-1.654-1.653-7.066-4.81-8.72,1.053 c-1.053,3.609-1.654,5.263-2.706,6.014c-2.707,2.255-3.609,4.211-6.015,4.36c-2.254,0-2.856,3.158-5.713,2.706 c-2.707-0.451-4.36-2.405-0.752-4.21c4.06-1.804,5.263-1.502,7.367-4.06c1.956-2.556,4.209-6.313,3.156-10.223 c-1.2-3.909-2.855-7.668-4.508-9.772c-1.656-1.653-20.901-27.364-25.712-32.175c0,0-4.961-4.36-7.217-8.42 c-1.352-2.706,3.008-6.766,3.008-6.766S263.565,230.814,258.456,234.874z" clip-rule="evenodd"/><path fill="none" fill-rule="evenodd" stroke="#F1DAAC" stroke-linecap="round" stroke-miterlimit="2.414" stroke-width="2.376" d="M252.441,242.243c0.751,3.758,19.245,31.722,26.761,38.038c4.961,4.36,6.917,2.555,12.329,8.269 c5.413,5.563,6.915,6.165,12.329,8.571c5.412,2.404,21.951,4.962,23.905,7.215" clip-rule="evenodd"/><path fill="none" fill-rule="evenodd" stroke="#F1DAAC" stroke-linecap="round" stroke-miterlimit="2.414" stroke-width="2.376" d="M301.152,292.157c0,0,11.879,2.106,23.155,1.505c0,0,9.471-1.354,10.073,0" clip-rule="evenodd"/><path fill="none" fill-rule="evenodd" stroke="#F1DAAC" stroke-linecap="round" stroke-miterlimit="2.414" stroke-width="2.376" d="M283.863,291.256c1.203,5.864-2.705,10.976-3.757,12.479c-1.805,2.706-7.52,3.607-8.723,5.262" clip-rule="evenodd"/><path fill="none" fill-rule="evenodd" stroke="#665C49" stroke-linecap="round" stroke-miterlimit="2.414" stroke-width=".144" d="M273.488,309.297c0,0,4.06-2.254,4.963-2.556c0.751-0.3,3.908-2.406,4.963-4.359c0.9-1.954,2.403-7.668,3.607-8.571 c1.052-0.9,2.705-1.954,4.661-0.75c2.254,1.352,5.411,2.706,7.066,3.308c1.503,0.602,4.511,2.706,8.419,3.458 c3.908,0.602,7.816,2.256,10.524,2.707c2.707,0.299,8.119,2.104,9.322,4.51" clip-rule="evenodd"/><path fill="none" fill-rule="evenodd" stroke="#665C49" stroke-linecap="round" stroke-miterlimit="2.414" stroke-width=".144" d="M248.079,238.031c-0.45,1.204-3.456,4.511,0.151,6.766c3.609,2.105,4.662,3.909,5.563,5.413 c1.053,1.354,20.447,27.815,23.455,30.672c3.158,2.706,3.308,6.615,3.91,8.871" clip-rule="evenodd"/><path fill="none" fill-rule="evenodd" stroke="#665C49" stroke-linecap="round" stroke-miterlimit="2.414" stroke-width=".144" d="M301.905,293.511c0,0,2.556,0,3.61,0.451c0.9,0.302,9.62,1.052,12.327,1.052c2.705-0.149,7.667,0,9.172-0.3 c1.352-0.15,3.908-0.15,5.261,0.3c1.354,0.302,2.706,0.753,3.459,0.602" clip-rule="evenodd"/><path fill="none" fill-rule="evenodd" stroke="#665C49" stroke-linecap="round" stroke-miterlimit="2.414" stroke-width=".144" d="M271.835,306.893c0.752-0.151,2.405-0.451,3.008,0.901" clip-rule="evenodd"/><path fill="#B2A26F" fill-rule="evenodd" stroke="#000" stroke-miterlimit="2.414" stroke-width=".36" d="M270.633,308.697c1.202,0,2.405,2.253-0.301,2.855c-2.707,0.452-4.812,0.902-5.563,3.909c0,0-0.3,1.653-0.451,0 C264.167,313.808,265.22,309.297,270.633,308.697z" clip-rule="evenodd"/><path fill="none" fill-rule="evenodd" stroke="#E5D08E" stroke-linecap="round" stroke-miterlimit="2.414" stroke-width=".792" d="M270.783,309.599c-1.053,0.3-3.458,0.45-4.963,2.556" clip-rule="evenodd"/><path fill="none" fill-rule="evenodd" stroke="#665C49" stroke-linecap="round" stroke-miterlimit="2.414" stroke-width=".144" d="M274.843,305.689c1.052-0.15,2.556,0,2.705,1.203" clip-rule="evenodd"/><path fill="none" fill-rule="evenodd" stroke="#665C49" stroke-linecap="round" stroke-miterlimit="2.414" stroke-width=".144" d="M277.999,304.035c1.505-0.45,2.256-0.3,2.557,0.901" clip-rule="evenodd"/><path fill="none" fill-rule="evenodd" stroke="#665C49" stroke-linecap="round" stroke-miterlimit="2.414" stroke-width=".144" d="M279.354,301.932c1.202-0.753,2.705-0.151,3.006,1.052" clip-rule="evenodd"/><path fill="none" fill-rule="evenodd" stroke="#665C49" stroke-linecap="round" stroke-miterlimit="2.414" stroke-width=".144" d="M280.706,299.976c1.202-0.901,2.708-0.602,2.856,0.602" clip-rule="evenodd"/><path fill="none" fill-rule="evenodd" stroke="#665C49" stroke-linecap="round" stroke-miterlimit="2.414" stroke-width=".144" d="M281.759,297.12c1.202-0.752,2.556-0.752,3.007,0.451" clip-rule="evenodd"/><path fill="none" fill-rule="evenodd" stroke="#665C49" stroke-linecap="round" stroke-miterlimit="2.414" stroke-width=".144" d="M282.21,293.962c1.204-1.503,3.308-1.203,4.059,0" clip-rule="evenodd"/><path fill="none" fill-rule="evenodd" stroke="#665C49" stroke-linecap="round" stroke-miterlimit="2.414" stroke-width=".144" d="M328.968,301.932c-1.653-0.603-3.909-1.053-4.061,2.705" clip-rule="evenodd"/><path fill="none" fill-rule="evenodd" stroke="#665C49" stroke-linecap="round" stroke-miterlimit="2.414" stroke-width=".144" d="M322.804,299.976c-1.053-0.3-3.608-0.602-3.909,2.406" clip-rule="evenodd"/><path fill="none" fill-rule="evenodd" stroke="#665C49" stroke-linecap="round" stroke-miterlimit="2.414" stroke-width=".144" d="M316.639,298.774c-0.902-0.151-2.254-0.151-2.555,2.404" clip-rule="evenodd"/><path fill="none" fill-rule="evenodd" stroke="#665C49" stroke-linecap="round" stroke-miterlimit="2.414" stroke-width=".144" d="M313.933,298.173c-0.901-0.302-2.104,0.148-2.256,1.953" clip-rule="evenodd"/><path fill="none" fill-rule="evenodd" stroke="#665C49" stroke-linecap="round" stroke-miterlimit="2.414" stroke-width=".144" d="M306.113,296.368c-1.052-0.151-2.104,0.15-2.253,1.953" clip-rule="evenodd"/><path fill="none" fill-rule="evenodd" stroke="#665C49" stroke-linecap="round" stroke-miterlimit="2.414" stroke-width=".144" d="M303.108,294.714c-0.9-0.15-2.406,0.15-2.706,2.256" clip-rule="evenodd"/><path fill="none" fill-rule="evenodd" stroke="#665C49" stroke-linecap="round" stroke-miterlimit="2.414" stroke-width=".144" d="M298.298,291.856c-1.053-0.601-3.308,0.151-3.609,2.407" clip-rule="evenodd"/><path fill="none" fill-rule="evenodd" stroke="#665C49" stroke-linecap="round" stroke-miterlimit="2.414" stroke-width=".144" d="M295.741,290.354c-1.053-0.602-3.308,0.3-4.059,2.256" clip-rule="evenodd"/><path fill="none" fill-rule="evenodd" stroke="#665C49" stroke-linecap="round" stroke-miterlimit="2.414" stroke-width=".144" d="M281.759,291.557c0.3-0.752,2.707-1.202,4.059-1.054c1.354,0.302,3.759-0.599,4.512-1.201c0.9-0.602,1.354-0.753,2.405-0.453 c0.902,0.151,1.352-1.052,2.404-0.9" clip-rule="evenodd"/><path fill="none" fill-rule="evenodd" stroke="#665C49" stroke-linecap="round" stroke-miterlimit="2.414" stroke-width=".144" d="M292.434,286.597c-0.3,0-1.204,0.299-1.204,0.299s-1.653-0.45-2.706,0.3c-0.901,0.753-1.502,1.054-2.404,1.054 c-1.053,0.149-2.856-0.301-4.661,1.053" clip-rule="evenodd"/><path fill="none" fill-rule="evenodd" stroke="#665C49" stroke-linecap="round" stroke-miterlimit="2.414" stroke-width=".144" d="M290.329,284.941c0,0-0.603-0.15-1.203,0.149c-0.3,0-0.451,0.903-3.309,0.752c-0.901,0-3.607,1.204-4.659,0.902" clip-rule="evenodd"/><path fill="none" fill-rule="evenodd" stroke="#665C49" stroke-linecap="round" stroke-miterlimit="2.414" stroke-width=".144" d="M333.778,291.856c-1.2,0-1.653,1.054-1.653,2.556" clip-rule="evenodd"/><path fill="none" fill-rule="evenodd" stroke="#665C49" stroke-linecap="round" stroke-miterlimit="2.414" stroke-width=".144" d="M328.066,292.157c-1.203,0-1.354,1.054-1.354,2.255" clip-rule="evenodd"/><path fill="none" fill-rule="evenodd" stroke="#665C49" stroke-linecap="round" stroke-miterlimit="2.414" stroke-width=".144" d="M322.954,292.157c-1.203,0-1.503,1.203-1.654,2.406" clip-rule="evenodd"/><path fill="none" fill-rule="evenodd" stroke="#665C49" stroke-linecap="round" stroke-miterlimit="2.414" stroke-width=".144" d="M314.235,292.157c-1.204,0-1.355,1.203-1.355,2.406" clip-rule="evenodd"/><path fill="none" fill-rule="evenodd" stroke="#665C49" stroke-linecap="round" stroke-miterlimit="2.414" stroke-width=".144" d="M307.769,291.256c-1.201,0-1.655,1.354-1.655,2.706" clip-rule="evenodd"/><path fill="none" fill-rule="evenodd" stroke="#665C49" stroke-linecap="round" stroke-miterlimit="2.414" stroke-width=".144" d="M301.605,289.602c-1.203,0-1.805,1.203-1.354,2.556" clip-rule="evenodd"/><path fill="none" fill-rule="evenodd" stroke="#665C49" stroke-linecap="round" stroke-miterlimit="2.414" stroke-width=".144" d="M284.466,281.033c-0.903,0.148-3.459-0.453-4.813,2.404" clip-rule="evenodd"/><path fill="none" fill-rule="evenodd" stroke="#665C49" stroke-linecap="round" stroke-miterlimit="2.414" stroke-width=".144" d="M279.804,277.424c-1.203-0.151-2.856,0.302-3.607,1.653" clip-rule="evenodd"/><path fill="none" fill-rule="evenodd" stroke="#665C49" stroke-linecap="round" stroke-miterlimit="2.414" stroke-width=".144" d="M277.248,274.267c-1.202,0-2.856,0.451-3.457,1.805" clip-rule="evenodd"/><path fill="none" fill-rule="evenodd" stroke="#665C49" stroke-linecap="round" stroke-miterlimit="2.414" stroke-width=".144" d="M274.543,270.959c-1.055-0.15-2.708,0.451-3.459,1.653" clip-rule="evenodd"/><path fill="none" fill-rule="evenodd" stroke="#665C49" stroke-linecap="round" stroke-miterlimit="2.414" stroke-width=".144" d="M271.535,266.898c-0.902,0-2.556,0.602-3.459,1.654" clip-rule="evenodd"/><path fill="none" fill-rule="evenodd" stroke="#665C49" stroke-linecap="round" stroke-miterlimit="2.414" stroke-width=".144" d="M267.928,261.938c-1.055-0.15-2.708,0.45-3.459,1.653" clip-rule="evenodd"/><path fill="none" fill-rule="evenodd" stroke="#665C49" stroke-linecap="round" stroke-miterlimit="2.414" stroke-width=".144" d="M264.019,256.525c-0.903,0-2.558,0.602-3.459,1.654" clip-rule="evenodd"/><path fill="none" fill-rule="evenodd" stroke="#665C49" stroke-linecap="round" stroke-miterlimit="2.414" stroke-width=".144" d="M259.057,249.459c-1.052-0.302-3.608,1.352-4.511,2.255" clip-rule="evenodd"/><path fill="none" fill-rule="evenodd" stroke="#665C49" stroke-linecap="round" stroke-miterlimit="2.414" stroke-width=".144" d="M256.5,244.047c-1.052-0.15-4.21,0.901-5.113,1.954" clip-rule="evenodd"/><path fill="none" fill-rule="evenodd" stroke="#665C49" stroke-linecap="round" stroke-miterlimit="2.414" stroke-width=".144" d="M255.448,240.739c-1.807,1.503-6.767,2.253-8.422,1.654" clip-rule="evenodd"/><path fill="none" fill-rule="evenodd" stroke="#665C49" stroke-linecap="round" stroke-miterlimit="2.414" stroke-width=".144" d="M255.448,239.235c-1.204,0.903-3.309,1.654-6.015,1.354" clip-rule="evenodd"/><path fill="#B2A26F" fill-rule="evenodd" stroke="#000" stroke-miterlimit="2.414" stroke-width=".36" d="M327.163,303.134c0.752-0.601,2.857-0.15,4.662,3.006c1.805,3.157,2.104,6.917,1.653,9.473c0,0-0.449,1.503-0.752,0 c-0.148-1.503-1.804-5.412-3.006-6.315C328.668,308.396,324.907,305.239,327.163,303.134z" clip-rule="evenodd"/><path fill="#B2A26F" fill-rule="evenodd" stroke="#000" stroke-miterlimit="2.414" stroke-width=".36" d="M334.53,292.459c-1.352,0-2.255,3.308,0.753,3.308c3.157-0.151,5.713-0.3,7.066,3.156c0,0,0.752,1.805,0.603-0.148 C342.801,296.668,340.996,291.856,334.53,292.459z" clip-rule="evenodd"/><path fill="none" fill-rule="evenodd" stroke="#E5D08E" stroke-linecap="round" stroke-miterlimit="2.414" stroke-width=".792" d="M335.133,293.36c1.053,0,4.061,0,5.863,2.255" clip-rule="evenodd"/><path fill="none" fill-rule="evenodd" stroke="#E5D08E" stroke-linecap="round" stroke-miterlimit="2.414" stroke-width=".792" d="M328.215,304.187c1.204,0.602,3.91,3.909,4.363,7.517" clip-rule="evenodd"/><path fill="#D8C49A" fill-rule="evenodd" stroke="#000" stroke-linecap="round" stroke-miterlimit="2.414" stroke-width=".36" d="M221.319,237.43c-3.91,4.362-1.503,12.178,0,15.486c1.502,3.458,12.028,32.477,15.485,36.084 c3.308,3.759,6.767,6.615,7.066,9.173c0,0,5.563,12.777,35.783,17.14c0,0,7.817,4.811,0.302,5.563c0,0-4.961,0.75-7.368-1.806 c-2.406-2.406-3.308-1.052-4.811-0.752c-1.503,0.151-4.812-0.901-6.164-2.404c-1.354-1.653-3.459-1.805-4.963-2.106 c-6.013-0.901-8.87-6.465-8.719-4.511c0,1.956,9.771,12.48,14.733,14.735c4.961,2.104,10.824,8.269,9.32,11.126 c-1.652,2.706-5.711,3.607-7.516-0.752c-2.705-6.767-4.512-2.556-6.464-6.615c0,0-2.407-4.962-4.964-5.262 c-2.556-0.452-4.059-2.857-5.11-5.263c-1.204-2.556-3.909-1.805-4.813-4.061c-0.6-2.404-4.059-4.811-5.863-0.149 c-1.354,3.457-2.104,6.465-4.06,7.066c-3.308,0.901-3.007,1.954-4.961,2.555c-2.105,0.451-2.255,3.91-4.962,3.91 c-2.555,0-6.915,0.45-4.66-3.157c2.104-3.759,8.269-4.36,10.074-6.767c1.953-2.706,5.412-8.269,5.712-12.779 c0.301-4.511-2.104-9.621-3.607-12.179c-1.204-2.104-13.533-32.024-17.291-38.038c0,0-4.06-5.563-5.563-10.374 c-0.901-3.157,3.308-6.615,3.308-6.615S225.379,232.619,221.319,237.43z" clip-rule="evenodd"/><path fill="none" fill-rule="evenodd" stroke="#F1DAAC" stroke-linecap="round" stroke-miterlimit="2.414" stroke-width="2.376" d="M216.206,244.797c0.753,5.113,14.585,40.595,18.344,45.406c3.757,4.811,6.315,5.563,7.064,9.171 c0.753,3.76,3.759,10.826,9.322,17.29c5.563,6.165,13.381,10.976,14.435,11.729c1.202,0.9,3.457,3.758,3.757,4.961" clip-rule="evenodd"/><path fill="none" fill-rule="evenodd" stroke="#F1DAAC" stroke-linecap="round" stroke-miterlimit="2.414" stroke-width="2.376" d="M247.48,305.539c4.81,4.06,16.387,8.119,20.898,9.172c4.359,1.203,10.823,2.556,11.576,3.759" clip-rule="evenodd"/><path fill="none" fill-rule="evenodd" stroke="#F1DAAC" stroke-linecap="round" stroke-miterlimit="2.414" stroke-width="2.376" d="M236.804,306.14c-1.052,6.015-5.262,10.074-6.765,11.879c-1.503,1.953-8.27,3.759-8.27,5.261" clip-rule="evenodd"/><path fill="none" fill-rule="evenodd" stroke="#665C49" stroke-linecap="round" stroke-miterlimit="2.414" stroke-width=".144" d="M218.612,242.542c-2.104,0.45-5.112-0.751-8.571,1.654" clip-rule="evenodd"/><path fill="none" fill-rule="evenodd" stroke="#665C49" stroke-linecap="round" stroke-miterlimit="2.414" stroke-width=".144" d="M218.761,246.902c-1.201-0.3-5.412,0-6.464,1.804" clip-rule="evenodd"/><path fill="none" fill-rule="evenodd" stroke="#665C49" stroke-linecap="round" stroke-miterlimit="2.414" stroke-width=".144" d="M210.492,242.243c-0.902,0.75-1.052,2.104-0.148,3.758c0.901,1.805,1.502,3.008,2.856,4.511 c1.503,1.502,3.759,4.81,6.013,10.074c2.255,5.11,9.923,24.956,12.029,27.664c1.953,2.855,4.359,9.471,3.908,13.08" clip-rule="evenodd"/><path fill="none" fill-rule="evenodd" stroke="#665C49" stroke-linecap="round" stroke-miterlimit="2.414" stroke-width=".144" d="M224.175,323.431c0.751-1.653,3.308-2.555,4.811-2.856c1.354-0.451,2.856-1.204,4.81-3.157c1.806-2.104,2.407-6.315,4.062-8.57 c1.653-2.256,2.856-1.654,4.06-0.751c0,0,2.404,3.006,3.758,4.509c1.203,1.505,5.563,7.067,7.366,8.271 c1.956,1.352,8.42,7.215,9.623,7.815c1.052,0.602,4.811,5.113,4.961,6.316" clip-rule="evenodd"/><path fill="none" fill-rule="evenodd" stroke="#665C49" stroke-linecap="round" stroke-miterlimit="2.414" stroke-width=".144" d="M247.026,307.643c0-0.45,1.053-0.901,2.858,0.603c1.955,1.504,6.013,2.856,8.269,4.21c2.104,1.353,7.818,3.459,9.623,3.607 c1.805,0.151,5.262,1.053,6.615,1.654c1.203,0.602,3.156,1.955,4.811,2.255" clip-rule="evenodd"/><path fill="none" fill-rule="evenodd" stroke="#665C49" stroke-linecap="round" stroke-miterlimit="2.414" stroke-width=".144" d="M265.521,331.999c0-1.953,3.007-3.456,4.812-1.2" clip-rule="evenodd"/><path fill="none" fill-rule="evenodd" stroke="#665C49" stroke-linecap="round" stroke-miterlimit="2.414" stroke-width=".144" d="M267.625,327.791c-1.653-0.602-2.705-1.053-4.06,1.502" clip-rule="evenodd"/><path fill="none" fill-rule="evenodd" stroke="#665C49" stroke-linecap="round" stroke-miterlimit="2.414" stroke-width=".144" d="M261.912,324.032c-1.654-0.45-2.855,0-3.456,1.353" clip-rule="evenodd"/><path fill="none" fill-rule="evenodd" stroke="#665C49" stroke-linecap="round" stroke-miterlimit="2.414" stroke-width=".144" d="M260.258,322.979c-1.201-0.15-2.104,0-2.854,1.504" clip-rule="evenodd"/><path fill="none" fill-rule="evenodd" stroke="#665C49" stroke-linecap="round" stroke-miterlimit="2.414" stroke-width=".144" d="M254.244,317.568c-0.902-0.151-2.255-0.151-2.555,1.502" clip-rule="evenodd"/><path fill="none" fill-rule="evenodd" stroke="#665C49" stroke-linecap="round" stroke-miterlimit="2.414" stroke-width=".144" d="M253.041,316.514c-0.451-0.149-2.404-0.451-2.404,1.654" clip-rule="evenodd"/><path fill="none" fill-rule="evenodd" stroke="#665C49" stroke-linecap="round" stroke-miterlimit="2.414" stroke-width=".144" d="M247.026,308.697c-0.749-0.602-2.705-1.203-3.757,0.6" clip-rule="evenodd"/><path fill="none" fill-rule="evenodd" stroke="#665C49" stroke-linecap="round" stroke-miterlimit="2.414" stroke-width=".144" d="M249.282,312.305c-0.75-0.3-1.802-0.752-3.005,0.752" clip-rule="evenodd"/><path fill="none" fill-rule="evenodd" stroke="#665C49" stroke-linecap="round" stroke-miterlimit="2.414" stroke-width=".144" d="M232.294,311.403c0.901-0.903,2.705-0.302,3.458,0.901" clip-rule="evenodd"/><path fill="none" fill-rule="evenodd" stroke="#665C49" stroke-linecap="round" stroke-miterlimit="2.414" stroke-width=".144" d="M230.64,314.409c1.052-0.751,3.607-0.602,3.607,1.805" clip-rule="evenodd"/><path fill="none" fill-rule="evenodd" stroke="#665C49" stroke-linecap="round" stroke-miterlimit="2.414" stroke-width=".144" d="M229.286,316.966c0.902-0.452,2.557-0.302,3.008,1.353" clip-rule="evenodd"/><path fill="none" fill-rule="evenodd" stroke="#665C49" stroke-linecap="round" stroke-miterlimit="2.414" stroke-width=".144" d="M226.881,318.47c1.053-0.151,2.555,0.15,2.405,1.502" clip-rule="evenodd"/><path fill="none" fill-rule="evenodd" stroke="#665C49" stroke-linecap="round" stroke-miterlimit="2.414" stroke-width=".144" d="M222.371,320.574c0.752-0.151,2.705-0.151,2.856,1.503" clip-rule="evenodd"/><path fill="none" fill-rule="evenodd" stroke="#665C49" stroke-linecap="round" stroke-miterlimit="2.414" stroke-width=".144" d="M234.699,306.441c1.504-0.601,2.404,0.3,3.308,1.053" clip-rule="evenodd"/><path fill="none" fill-rule="evenodd" stroke="#665C49" stroke-linecap="round" stroke-miterlimit="2.414" stroke-width=".144" d="M241.614,307.343c0.303-0.901,3.309-1.804,4.36-1.203c1.203,0.451,2.857-1.203,2.406-1.953" clip-rule="evenodd"/><path fill="none" fill-rule="evenodd" stroke="#665C49" stroke-linecap="round" stroke-miterlimit="2.414" stroke-width=".144" d="M250.485,308.245c0.451-1.053,0.901-1.353,1.654-1.504" clip-rule="evenodd"/><path fill="none" fill-rule="evenodd" stroke="#665C49" stroke-linecap="round" stroke-miterlimit="2.414" stroke-width=".144" d="M253.793,310.2c0.303-1.053,1.204-1.805,1.655-1.805" clip-rule="evenodd"/><path fill="none" fill-rule="evenodd" stroke="#665C49" stroke-linecap="round" stroke-miterlimit="2.414" stroke-width=".144" d="M257.854,312.005c0.451-0.903,0.902-1.354,1.954-1.505" clip-rule="evenodd"/><path fill="none" fill-rule="evenodd" stroke="#665C49" stroke-linecap="round" stroke-miterlimit="2.414" stroke-width=".144" d="M266.123,312.755c-0.752,0.151-1.503,0.753-1.503,1.956" clip-rule="evenodd"/><path fill="none" fill-rule="evenodd" stroke="#665C49" stroke-linecap="round" stroke-miterlimit="2.414" stroke-width=".144" d="M270.032,313.658c-0.753,0.149-1.505,0.902-1.505,1.954" clip-rule="evenodd"/><path fill="none" fill-rule="evenodd" stroke="#665C49" stroke-linecap="round" stroke-miterlimit="2.414" stroke-width=".144" d="M273.94,314.711c-0.752,0-1.505,0.751-1.505,1.953" clip-rule="evenodd"/><path fill="none" fill-rule="evenodd" stroke="#665C49" stroke-linecap="round" stroke-miterlimit="2.414" stroke-width=".144" d="M279.504,315.462c-2.856-0.149-2.405,2.255-2.405,3.458" clip-rule="evenodd"/><path fill="none" fill-rule="evenodd" stroke="#665C49" stroke-linecap="round" stroke-miterlimit="2.414" stroke-width=".144" d="M246.577,302.533c-0.451,0.45-0.603,0.9-1.504,0.75c-0.9-0.149-2.706-0.602-4.511,0.452c-1.953,0.901-4.06-1.504-5.715-0.752" clip-rule="evenodd"/><path fill="none" fill-rule="evenodd" stroke="#665C49" stroke-linecap="round" stroke-miterlimit="2.414" stroke-width=".144" d="M244.021,299.524c-0.303,0.602-0.603,0.602-0.903,0.602c-0.3-0.15,0,1.203-3.759,0.451c0,0-2.556-1.352-3.909-0.602" clip-rule="evenodd"/><path fill="none" fill-rule="evenodd" stroke="#665C49" stroke-linecap="round" stroke-miterlimit="2.414" stroke-width=".144" d="M243.27,297.42c-0.151,0.602-1.353,1.806-3.158,1.354c-1.955-0.602-4.359-1.055-4.81-0.753" clip-rule="evenodd"/><path fill="none" fill-rule="evenodd" stroke="#665C49" stroke-linecap="round" stroke-miterlimit="2.414" stroke-width=".144" d="M237.255,290.203c-0.451-0.299-2.407-1.203-4.06,1.203" clip-rule="evenodd"/><path fill="none" fill-rule="evenodd" stroke="#665C49" stroke-linecap="round" stroke-miterlimit="2.414" stroke-width=".144" d="M235.752,288.099c-0.904-0.15-2.405-0.302-3.758,0.901" clip-rule="evenodd"/><path fill="none" fill-rule="evenodd" stroke="#665C49" stroke-linecap="round" stroke-miterlimit="2.414" stroke-width=".144" d="M233.796,284.189c-0.9-0.15-2.856-0.302-4.208,0.901" clip-rule="evenodd"/><path fill="none" fill-rule="evenodd" stroke="#665C49" stroke-linecap="round" stroke-miterlimit="2.414" stroke-width=".144" d="M231.542,279.379c-0.751-0.151-2.406-0.151-3.759,1.053" clip-rule="evenodd"/><path fill="none" fill-rule="evenodd" stroke="#665C49" stroke-linecap="round" stroke-miterlimit="2.414" stroke-width=".144" d="M228.234,271.86c-0.75-0.15-2.405-0.3-3.607,1.052" clip-rule="evenodd"/><path fill="none" fill-rule="evenodd" stroke="#665C49" stroke-linecap="round" stroke-miterlimit="2.414" stroke-width=".144" d="M225.228,264.344c-0.752-0.151-2.255-0.302-3.459,1.053" clip-rule="evenodd"/><path fill="none" fill-rule="evenodd" stroke="#665C49" stroke-linecap="round" stroke-miterlimit="2.414" stroke-width=".144" d="M222.371,256.224c-0.752-0.149-2.858-0.149-4.06,1.203" clip-rule="evenodd"/><path fill="#CCC" fill-rule="evenodd" stroke="#000" stroke-miterlimit="2.414" stroke-width=".36" d="M270.933,230.364c0,0-6.313,2.255-8.42,4.36c-2.255,2.255-6.915,2.255-8.417,2.706l2.705-1.503c0,0-3.308,1.052-4.812,1.203 c-1.504,0.3-4.21-0.451-4.21-0.451l1.503-0.602c0,0-1.802-0.451-3.308,0.151c-1.653,0.601-5.261-0.302-5.261-0.302 s1.953-0.3,3.308-0.901c1.352-0.752,2.856-1.503,2.856-1.503l-3.459,0.75c0,0,3.459-3.005,4.062-3.759 c0.45-0.752,4.209-3.458,4.209-3.458L270.933,230.364z" clip-rule="evenodd"/><path fill="#E6E6E6" fill-rule="evenodd" stroke="#000" stroke-miterlimit="2.414" stroke-width=".36" d="M321,230.514c-2.405,0.753-11.728,1.954-14.284,1.954c-2.556,0-10.823,1.354-10.823,1.354l2.554-1.203c0,0-10.976-0.3-13.079,0 c-2.256,0.451-19.695-0.751-22.703-1.053c-3.007-0.299-10.223-2.104-12.479-2.406c-2.255-0.148-5.112,0-5.112,0l2.857-0.9 c0,0-4.212-1.503-7.065-1.204c-2.709,0-8.723,2.557-11.278,4.662c-2.707,2.255-6.615,6.766-8.871,7.667 c-2.256,0.901-5.713,0.752-5.713,0.752l1.956-0.903c0,0-2.558,0.601-4.211,0.903c-1.655,0.149-4.36,0-4.36,0l2.104-0.903 c0,0-3.759,0.302-4.21,0.601c-0.601,0.451-2.405,0.753-2.405,0.753s1.204-1.503,2.105-2.407c1.054-0.9,2.106-3.606,2.106-3.606 l-2.558,2.255c0,0,1.806-4.211,2.708-5.865c0.902-1.503,2.555-3.459,2.555-3.459s-2.705,2.107-4.06,3.761 c0,0,2.407-4.211,3.61-5.264c1.052-1.052,2.404-2.405,2.404-2.405l-3.759,2.105l4.211-3.758l-3.008,0.599l3.607-2.253 c0,0-3.456,0.751-5.412,0.6c0,0,5.713-1.502,6.615-2.404c0,0-6.615-1.052-7.967-1.956l5.712,0.451c0,0-1.352-1.201-2.256-1.654 c-0.902-0.6-4.66-1.803-4.66-1.803l2.556-0.302c0,0-0.451-1.052-1.955-2.104c-1.503-0.902-3.909-1.503-3.909-1.503l3.909,0.151 c0,0-1.653-1.956-3.008-2.857c-1.203-0.903-3.308-2.557-3.308-2.557l3.91,1.203c0,0-0.151-1.654-3.308-4.961 c-3.308-3.458-5.863-7.667-8.421-9.473c-2.555-1.953-24.505-24.055-27.513-29.016c0,0-7.516-10.675-8.568-10.975 c-1.204-0.452-2.557-1.956-2.557-1.956s4.51,2.406,5.263,3.157c0.75,0.752-6.014-10.975-8.27-12.63 c-2.255-1.653-12.48-11.876-12.48-11.876l4.511,1.953c0,0-2.555-4.961-6.014-7.516c-3.607-2.706-11.277-13.533-11.277-13.533 l4.06,3.159c0,0-3.308-4.211-4.511-6.017c-1.353-1.953-8.119-12.478-10.223-13.83c-2.105-1.203-4.662-2.558-4.662-2.558 l4.06,0.904c0,0-2.406-3.31-4.811-4.813c-2.406-1.502-9.021-8.118-11.126-8.42l5.412,2.256c0,0-3.308-3.006-5.714-4.059 c-2.404-1.203-5.863-3.159-5.863-3.159l3.308,0.752c0,0-3.308-4.06-5.563-5.863c-2.255-1.653-28.114-17.139-34.729-19.696 c-6.767-2.556-23.906-10.374-23.906-10.374l3.758,0.752c0,0-10.374-5.263-13.681-6.766C17.745,29.498,9.176,21.68,9.176,21.68 S112.314,67.836,132.01,85.729c19.697,17.893,171.7,80.436,185.833,89.908C331.976,185.26,368.659,215.93,321,230.514z" clip-rule="evenodd"/><path fill="#B3B3B3" fill-rule="evenodd" d="M299.649,232.619 c0,0,15.638-1.203,20.448-2.706c8.87-2.707,9.623-6.616,9.623-7.819c0,0-13.833,7.969-43.302,7.519 c0,0,16.689-2.107,20.599-3.159c0,0-14.434,1.654-19.696,1.505c0,0-10.374,0-14.283-1.505c0,0,18.793-0.149,22.403-1.201 c0,0-17.894,0.45-24.809-0.302c-6.466-0.753-10.375-1.503-10.375-1.503s8.87,0.45,13.683,0c0,0-14.283-0.904-17.44-1.502 c0,0-7.218-1.355-10.525-2.107c0,0,7.667,0.602,10.975,0.453c0,0-9.469-1.203-12.326-1.804 c-2.706-0.752-12.629-3.159-12.629-3.159s12.027,1.354,18.794,1.805c0,0-17.741-2.706-22.404-4.209 c-5.563-2.104-8.117-3.156-8.117-3.156l-6.467-3.008c0,0,10.225,1.354,13.983,2.406c0,0-16.387-6.467-19.094-7.667 c-3.909-1.656-6.165-4.362-6.165-4.362l13.381,4.961c0,0-6.465-3.608-8.12-4.961c-1.653-1.202-9.17-5.563-11.876-6.916 c-2.858-1.503-9.923-8.871-9.923-8.871l9.17,4.511c0,0-12.629-8.72-14.434-10.225c-1.654-1.503-7.516-6.765-9.17-8.72 l11.126,5.563c0,0-11.428-8.42-12.63-10.074c-1.354-1.654-6.013-6.165-6.013-6.165l11.725,7.67c0,0-5.412-5.263-6.764-6.165 c-1.203-0.903-6.164-5.414-6.767-6.315c-0.752-0.901-4.36-7.818-6.013-9.17c-1.655-1.203-6.467-6.917-6.467-6.917l5.714,3.759 c0,0-6.915-6.163-8.119-7.667c-1.354-1.352-6.014-7.366-8.42-9.622c-2.407-2.255-7.969-7.068-7.969-7.068 s3.76,4.511,6.616,7.068c3.008,2.555,6.766,8.569,7.669,10.223l-2.708-1.502c0,0,3.308,3.308,5.563,5.261 c2.106,1.805,7.969,7.368,9.624,11.577c1.653,4.06,3.308,6.466,3.308,6.466l-1.503-0.302c0,0,1.953,1.805,3.005,3.609 c1.054,1.954,5.866,9.321,10.074,13.08c4.06,3.459,15.486,16.238,20.297,20.148c3.458,2.706,4.211,4.36,5.412,5.863 c1.053,1.502,5.864,6.315,7.519,10.525l-2.255-0.602c0,0,3.008,2.555,4.511,4.51l-1.956-0.301c0,0,2.106,1.203,3.609,3.158 l-1.503,0.3c0,0,3.759,0.904,6.163,3.458l-2.255,0.151l4.962,1.052l-3.608,1.352l2.256-0.148l-2.104,1.502h1.802l-2.253,1.503 h1.653c0,0-3.308,2.856-4.361,4.06l2.256-1.354c0,0,5.112-2.404,7.969-2.706c0,0-4.209,1.203-5.112,2.558 c0,0,5.864-2.558,10.074-1.655l-5.113,1.655c0,0,5.866-0.753,7.668-0.753c1.955,0,4.06,0.151,4.06,0.151l-3.91,1.954 c0,0,5.264-1.053,6.315-1.053c1.353,0,3.158,0.3,3.158,0.3l-3.158,0.753c0,0,5.263-0.151,6.615-0.151 c2.556,0,6.166,0.752,7.968,1.805l-0.901,0.45c0,0,2.104,0,2.857,0c0.751,0.15,6.464,1.354,7.518,1.654 c1.052,0.302,4.06,0.752,6.615,0.904c2.557,0,10.523,0.75,15.787,0.9c5.261,0.151,19.694-0.3,19.694-0.3L299.649,232.619z" clip-rule="evenodd"/><path fill="#C95D3B" fill-rule="evenodd" d="M139.828,85.427 c12.33,7.818,202.673,99.531,199.966,115.47c-2.557,16.086-5.563,16.086-5.563,16.086c-2.557,2.106-4.51,2.557-7.367,3.309 c-3.008,0.751-7.065,1.202-7.065,1.202l6.164-3.608c0,0-8.57,1.805-10.826,2.556c-2.256,0.752-7.818,0.302-7.818,0.302 s8.27-3.008,10.226-3.459c1.804-0.301,7.818-2.555,7.818-2.555s-6.015,1.052-12.33,1.802 c-6.315,0.752-21.349,0.451-21.349,0.451l15.786-4.509c0,0,8.87-2.256,0-0.752c-8.42,1.354-8.568,1.502-16.69,2.255 c-8.269,0.753-21.348-0.601-21.348-0.601l16.087-3.459c0,0-16.39,1.956-22.702,1.204c0,0-17.442-1.204-26.764-4.511 l11.728-0.45c0,0-11.576-2.104-16.84-2.857c-5.111-0.75-14.132-6.766-14.132-6.766s5.264,1.805,7.368,2.256 c2.256,0.302,11.577,1.804-1.354-2.706c-3.909-1.352-11.876-5.261-15.636-7.819c-3.759-2.555-11.124-6.615-11.124-6.615 l4.36,1.504c0,0-2.858-3.458-7.369-6.466c-4.51-2.855-18.643-19.094-21.199-22.102c-2.707-3.006-9.02-9.622-9.02-9.622 l3.005,1.052c0,0-3.308-6.014-6.615-9.321c-3.458-3.308-11.125-12.178-15.936-15.637c0,0-11.426-7.216-13.983-10.975 c0,0-11.726-17.442-14.283-18.944l1.354,0.15c0,0-3.459-4.662-5.113-5.563c-1.654-0.901-7.216-5.263-7.216-5.263l2.406,0.903 c0,0-4.36-5.714-10.225-7.818l1.502,0.151c0,0-3.606-3.909-5.11-5.112L139.828,85.427z" clip-rule="evenodd"/><path fill="#312F2D" fill-rule="evenodd" stroke="#000" stroke-miterlimit="2.414" stroke-width=".36" d="M429.099,128.277c-1.502-6.014-2.553-11.577-5.109-17.591c-4.66-9.923-16.237-19.997-29.921-23.004 c-14.884-3.308-25.709-1.803-35.48,3.308c0,0-4.961,2.106-8.723,6.165l3.008-1.052c0,0-3.008,2.255-6.315,4.961 c-6.913,5.563-15.635,6.014-15.635,6.014s-10.523,0.302-36.084-10.525c0,0-36.834-14.131-56.229-15.184 c0,0-12.178-3.008-19.849-2.255c0,0-16.086-3.308-20.447-1.503c0,0-10.824-1.804-16.838-3.308 c-5.863-1.504-15.938-1.203-18.643-2.255c-2.557-1.052-5.112-1.052-5.563,0.451c0,0-43.903-26.162-51.722-31.274 c-7.667-5.261-43.9-27.212-47.659-30.52C54.279,7.397,44.958,1.834,41.2,0.631c-3.609-1.204-0.302,1.954-0.302,1.954 S30.074-0.573,26.014,0.18c-3.458,0.602-5.412,1.654-7.516,4.51l-0.302,1.954l-7.066,0.3c0,0-11.426,0.302-10.074,4.511 c0,0-0.149,1.654,1.052,2.406c1.505,0.901-3.758,0.901-1.352,3.156C2.86,19.273,19.7,29.348,23.758,30.85 c0,0,44.653,21.952,50.217,24.508c5.563,2.555,43.902,26.761,49.015,30.521c0,0,8.27,6.313,10.074,10.374 c1.954,4.061,6.014,7.819,6.014,7.819l-6.315-4.06c0,0,7.368,7.818,8.871,8.571c1.503,0.75,5.563,5.563,5.563,5.563 l-5.113-3.458l5.113,6.766c0,0,7.065,6.014,10.524,10.072c3.308,4.06,9.624,16.991,13.832,21.049 c4.06,4.211,38.64,37.889,58.936,42.25c0,0,20.448,6.766,32.024,4.208l-9.771-4.208c0,0,7.818,1.203,10.824,0.75 c0,0,0.453-1.654-4.81-3.456c-4.66-1.655-4.512-2.857-4.512-2.857s6.615,3.458,12.329,3.458c2.555,0,4.359-0.752,1.806-1.956 c-2.559-1.052-1.806-1.502-1.806-1.502l6.315,1.203l-1.956-1.804c0,0,6.015,1.804,8.571,1.804c0,0,6.465,0.3,3.457-1.203 c-3.006-1.354-2.706-1.354-2.706-1.354s5.263,0.302,7.818,1.052c2.705,0.752,5.563,1.504,5.563,1.504s-4.061-3.308-6.615-4.06 c-2.707-0.752-3.459-0.752-3.459-0.752s3.459-0.451,9.774,2.255c6.313,2.557,9.62,2.856,9.62,2.856l-4.811-3.308 c0,0,7.518,1.503,9.622,3.008c2.255,1.503,7.216,3.007,9.774,3.759c2.555,0.602,8.87,4.811,8.87,4.811l-4.813-5.563 c0,0,4.813,3.308,7.068,4.812c2.255,1.503,4.511,6.313,4.511,6.313v-4.51c0,0,2.254,2.856,2.254,5.263 c0,3.308-1.202,7.366-1.202,11.126c0,3.006-5.111,10.071-5.111,10.071s-6.767,5.865-9.772,8.571 c0,0,20.146-1.805,37.888-16.087c7.517-5.863,17.291-11.728,29.167-33.228c0,0,2.407-4.66,9.472-11.728 c1.354-1.502,5.264-8.569,7.668-10.223c0.753-0.602-0.75,2.857,0.151,2.255c1.503-0.602,2.706-4.06,3.607-5.112 c0.903-1.053-1.653,6.315,1.055,2.255c0.3-0.301,2.104-5.112,10.521-8.42C428.648,147.071,429.099,128.277,429.099,128.277z" clip-rule="evenodd"/><path fill="#E6E6E6" fill-rule="evenodd" d="M228.535,190.521 c0,0-9.172-6.464-10.827-10.674c-1.653-4.21-0.75-5.563-2.404-9.922c-1.805-4.662-3.609-4.662-3.609-4.662 s-4.059,3.156-8.27,2.255c-4.511-1.052-8.119-3.008-13.23-6.766c-5.863-4.36-12.78-7.967-12.78-7.967 s10.524,9.621,13.382,12.78C193.806,168.722,213.2,185.861,228.535,190.521z" clip-rule="evenodd"/><g><path fill="#363431" fill-rule="evenodd" d="M370.165,111.288 c-19.997,2.857-23.005-4.359-17.292-11.577c2.556-3.308,9.773-8.42,14.134-10.074c3.158-1.053,9.32-4.36,25.409-1.203 c16.087,3.308,27.062,16.538,29.169,23.304c3.456,12.78-13.382,3.909-16.841,2.706 C401.888,113.544,387.904,108.881,370.165,111.288z" clip-rule="evenodd"/><path fill="#3B3A36" fill-rule="evenodd" d="M371.667,109.333 c-17.892,2.255-21.351-3.157-16.238-9.923c2.559-3.758,9.474-8.269,14.283-9.772c3.91-0.901,7.97-3.609,22.554-0.602 c14.433,2.856,24.809,14.283,26.912,20.598c3.759,11.426-11.727,3.758-15.787,2.555 C400.685,111.288,388.506,107.229,371.667,109.333z" clip-rule="evenodd"/><path fill="#3D3C38" fill-rule="evenodd" d="M373.171,107.229 c-15.638,1.804-19.847-2.105-15.335-8.27c2.856-4.209,9.472-7.969,14.584-9.321c4.51-0.901,6.615-3.008,19.696-0.302 c12.928,2.708,22.551,12.33,24.807,18.194c3.759,9.923-10.374,3.457-14.734,2.254 C399.483,109.033,389.108,105.574,373.171,107.229z" clip-rule="evenodd"/><path fill="#41403B" fill-rule="evenodd" d="M374.825,105.124 c-13.682,1.203-18.493-0.903-14.435-6.616c2.857-4.51,9.321-7.818,14.735-8.87c5.261-0.901,5.261-2.255,16.839,0.151 c11.276,2.404,20.146,10.223,22.551,15.486c3.91,8.72-8.72,3.457-13.681,2.255 C398.28,106.777,389.709,103.921,374.825,105.124z" clip-rule="evenodd"/><path fill="#46443F" fill-rule="evenodd" d="M376.327,103.168 c-11.576,0.602-16.838,0-13.53-5.11c3.006-4.813,9.321-7.519,15.036-8.42c6.013-0.901,3.908-1.503,13.98,0.752 c9.623,1.954,17.893,7.967,20.448,12.778c4.06,7.368-7.218,3.159-12.63,1.956C397.076,104.521,390.16,102.417,376.327,103.168 z" clip-rule="evenodd"/></g><path fill="#4B4A43" fill-rule="evenodd" d="M398.429,102.717 c-2.556-0.451-7.517-1.954-20.447-1.654c-9.622,0.302-15.486,1.203-12.63-3.458c3.159-5.11,9.174-7.215,15.187-7.967 c6.767-0.901,2.556-0.753,11.127,1.052c7.967,1.805,15.635,6.165,18.343,10.223 C414.066,107.077,404.294,103.921,398.429,102.717z" clip-rule="evenodd"/><path fill="#312F2D" fill-rule="evenodd" d="M380.689,133.991 c-7.818-0.903-18.343-6.917-19.848-13.532c-1.053-4.811,5.714-4.511,11.428-3.909c5.563,0.602,11.425,4.36,13.08,11.878 C385.95,130.833,396.324,135.794,380.689,133.991z" clip-rule="evenodd"/><g><path fill="#363431" fill-rule="evenodd" d="M362.646,120.458 c-1.052-4.06,4.511-3.909,9.623-3.307c5.261,0.601,10.524,4.06,12.327,10.975c0.602,2.104,9.021,6.615-4.059,4.662 C372.871,130.833,364.3,126.323,362.646,120.458z" clip-rule="evenodd"/><path fill="#3B3A36" fill-rule="evenodd" d="M364.451,120.458 c-1.053-3.307,3.308-3.607,8.118-2.857c4.813,0.903,9.472,3.91,11.276,10.225c0.603,1.953,7.218,5.862-3.308,3.758 C373.02,128.577,366.256,125.42,364.451,120.458z" clip-rule="evenodd"/><path fill="#41403B" fill-rule="evenodd" d="M366.104,120.458 c-1.053-2.555,2.255-3.006,6.465-2.255c4.51,0.903,8.571,3.758,10.524,9.321c0.601,1.804,5.264,5.263-2.707,2.856 C373.171,126.473,368.21,124.667,366.104,120.458z" clip-rule="evenodd"/><path fill="#46443F" fill-rule="evenodd" d="M367.91,120.458 c-1.053-1.954,1.052-2.555,4.961-1.654c4.059,0.901,7.516,3.459,9.621,8.269c0.602,1.654,3.308,4.662-2.255,2.255 C373.322,124.368,370.165,123.917,367.91,120.458z" clip-rule="evenodd"/></g><path fill="#4B4A43" fill-rule="evenodd" d="M380.237,128.126 c-6.765-5.863-7.968-4.961-10.525-7.517c-1.201-1.203-0.148-2.255,3.459-1.203c3.759,1.052,6.464,3.459,8.57,7.517 C382.343,128.277,383.094,130.683,380.237,128.126z" clip-rule="evenodd"/><path fill="#151413" fill-rule="evenodd" d="M425.041,115.799 c3.607,13.981,2.705,18.643,1.053,13.23c-0.149-0.903-2.404-4.961-2.404-4.961s1.052,3.759,1.352,5.261 c1.053,5.714-0.148,4.811-1.052,3.157c-1.053-1.654-2.104-4.811-2.104-4.811s0.901,3.91,1.052,5.113 c0.45,1.654-0.602,4.36-2.555-0.451c-0.451-1.203-3.308-7.518-3.308-7.518l1.503,6.615c0,0,1.354,5.865-2.407-0.602 c-1.654-2.555-4.208-6.915-4.208-6.915l1.502,4.06c0,0,2.105,9.17-5.261-3.458c-1.354-2.558-2.707-3.759-3.759-4.813 c-1.203-1.201-3.458-2.253-3.458-2.253l2.404,2.555c0,0,4.361,5.863-6.465-2.555c-1.653-1.354-4.81-1.505-4.81-1.505 l4.06,1.805c0,0,2.404,2.857-0.752,1.503c-1.807-0.751-3.459-1.503-4.663-1.503c-1.052,0-1.652-0.752-3.308-0.901 c0,0,2.557,1.802,3.308,1.802c0.904,0-0.3,0.602-0.3,0.602s-1.652,0-3.008-0.3c-1.352-0.451-5.11-1.654-5.11-1.654 s3.457,1.805,4.21,2.104c1.352,0.753,0.151,1.654-0.753,1.954c-0.901,0.151-10.072-3.907-10.072-3.907s3.907,2.253,6.765,4.059 c1.053,0.752,3.008,2.255,3.008,2.255l1.053,1.805c0,0-3.91-2.104-6.315-2.406c0,0,4.961,2.104,7.067,5.112 c0.901,1.354,1.504,2.555,1.504,2.555l-5.563-2.405c0,0,4.359,2.405,7.367,5.111c0,0,2.256,2.255,5.412,2.708 c0,0-1.503,0.901-5.715-1.354l-3.757-1.503c0,0,4.661,2.405,5.412,2.857c0.752,0.3,4.211,1.352,6.916,1.052 c0,0,4.962-0.302,6.314-0.602c10.675-2.706,3.308,0.902,1.203,1.204c-1.954,0.149-4.21,0.901-4.21,0.901s2.556,0.3,4.059,0 c8.12-2.105,3.159,0.901,0.302,1.654c-2.706,0.752-3.308,0.602-4.36,0.602c-1.202,0-4.06-0.151-4.06-0.151 s3.91,1.203,4.962,1.052c6.164-0.601,0.15,1.204-1.654,0.904c-1.805-0.151-3.607,0.3-4.661-0.151 c-1.052-0.301-3.007-0.301-3.007-0.301l2.707,0.903c0,0,2.556,0.3,3.758,0.451c1.354,0.3,1.052,0.451-1.202,1.203 c-2.256,0.751-4.51,0.751-6.015,0.602c-1.352-0.302-4.059,0.149-4.059,0.149l2.707-1.352c0,0-5.715,1.653-6.917,1.653 c-1.354,0-4.21,0.602-4.21,0.602l5.112-2.104c0,0-6.164,1.654-8.12,1.654c-1.803,0-5.563-0.453-5.563-0.453 s4.663-0.901,6.918-2.104c0,0-8.118,1.956-10.675,1.354c0,0,4.81-1.203,5.713-1.654c0,0-5.412,0.902-8.571,0.3 c-2.555-0.451-6.464-0.151-6.464-0.151s6.015,0.904,7.97,0.904l-3.761,0.15c0,0,3.159,0.75,4.211,1.052 c1.203,0.149,3.007,0.3,3.007,0.3l-2.404,0.302l-2.256,0.602l7.517-0.151c0,0,3.908,0.75,4.962,0.3l-5.563,1.354 c0,0,6.766-0.601,8.571-0.752c1.953-0.151,6.313-1.052,6.313-1.052l-11.876,3.156c0,0,12.929-2.854,15.486-3.005 c2.404-0.151,3.606,0.151,5.712-0.451c2.105-0.453,4.51-0.903,4.51-0.903l-6.164,2.857c0,0,9.323-2.857,10.978-3.006 c1.653-0.151,9.62-4.511,13.53-1.805c2.406,1.503,10.072-2.856,9.772-9.021C429.25,128.277,424.438,113.393,425.041,115.799z" clip-rule="evenodd"/><path fill="#050504" fill-rule="evenodd" d="M403.091,126.021 c0,0,1.653,4.209,3.008,5.413c1.953,1.653,0.45,0.451-1.203,0.903c-1.805,0.3-3.759,1.654-5.264,1.503 c-1.953-0.302-7.667-3.758-8.418-5.263c-0.753-1.503-2.405-3.457-3.458-4.058c-1.203-0.451-0.603-0.753,1.805-0.151 c1.352,0.3,3.757-0.3,5.109-0.602C396.024,123.615,400.986,123.467,403.091,126.021z" clip-rule="evenodd"/><path fill="#151413" fill-rule="evenodd" d="M402.64,157.293 c-1.805,1.956-3.459,2.407-4.961,3.61c-1.503,1.353-4.211,2.857-4.211,2.857l2.405-3.159c0,0-2.556,2.107-3.908,3.009 c-1.353,0.752-4.512,1.502-4.512,1.502l4.36-3.456c0,0-5.261,3.156-7.065,3.909c-1.954,0.751-4.811,1.201-4.811,1.201 l4.06-2.255c0,0-4.06,1.354-6.315,1.956c-2.256,0.753-5.715,1.503-5.715,1.503l2.858-1.654c0,0-4.21,0.903-6.166,0.903 L364,167.669c0,0,2.707-1.505,3.607-1.505c0.903,0,3.008-0.6,3.008-0.6s-3.608-0.301-5.563,0.3 c-2.104,0.451-18.643-0.451-18.643-0.451s11.275,1.503,16.688,1.352l-10.072,2.106c0,0,10.072-0.301,12.179-0.453 c1.954-0.148,5.712-0.75,5.712-0.75l-6.313,2.404c0,0,5.563-1.201,7.064-1.352c1.504-0.151,6.916-1.805,6.916-1.805 l-5.261,3.008c0,0,5.261-1.654,6.767-2.107c1.502-0.3,5.411-1.802,5.411-1.802s-0.602,1.654-1.806,2.404 c-1.052,0.752-2.705,2.406-2.705,2.406s5.112-4.06,6.915-4.81c1.805-0.752,3.909-1.505,3.909-1.505l-2.855,3.008 c0,0,6.163-3.758,7.218-4.51c1.2-0.752,3.607-2.256,3.607-2.256l-4.06,4.36c0,0-6.314,5.563-8.271,6.917 c-1.803,1.502-9.923,5.711-9.923,5.711l3.61-3.006c0,0-6.015,2.857-8.421,3.608c-2.104,0.752-6.766,2.557-9.923,3.159 c0,0,10.374-2.256,12.78-3.61l-3.91,2.557c0,0,6.916-1.955,8.57-2.708c1.653-0.75,6.467-3.456,6.467-3.456l-4.361,3.607 c0,0,6.163-3.308,7.218-4.209c1.052-1.052,6.313-6.917,7.667-7.519c1.201-0.6,4.058-4.66,4.36-5.261 c0.451-0.601,1.803-2.406,2.555-2.706l0.302,2.404c0,0,2.556-5.26,3.607-6.013c0,0,0,3.008-0.3,3.761 c0,0,2.104-2.857,3.456-3.91c1.654-1.203,4.511-3.008,6.767-3.76c2.256-0.751-1.805-2.855-4.659-0.902 c-2.557,1.654-4.061,4.36-4.061,4.36l0.901-2.706c0,0-2.104,2.104-2.856,3.008c-0.901,0.902-2.707,2.556-2.707,2.556 l2.407-3.459L402.64,157.293z" clip-rule="evenodd"/><path fill="#151413" fill-rule="evenodd" d="M380.387,135.192 c-1.653,0-5.112-0.451-6.613-0.149c-1.354,0.149-4.812,0.149-4.812,0.149l2.856-0.75c0,0-2.856-0.753-4.06-0.753 c-1.354,0-4.511-0.75-4.511-0.75h4.811c0,0-1.654-1.204-3.156-1.354c-1.504-0.151-4.512-1.354-4.512-1.354l4.813,0.602 c0,0-2.406-1.803-3.76-2.706c-1.504-0.901-2.855-2.405-2.855-2.405l4.209,1.803c0,0-2.555-3.607-3.308-4.511 c-0.753-0.901-2.255-3.156-2.255-3.156l2.555,1.502c0,0-0.901-3.456-2.555-4.058c-0.753-0.45-2.555-1.354-2.555-1.354 s4.508,0,6.313,0.752l-1.953,0.451c0,0,0.75,2.255,1.203,3.458c0.75,1.954,3.308,3.458,3.308,3.458l-3.308-1.203 c0,0,2.104,4.36,7.214,6.464l-4.961-1.052c0,0,1.956,1.805,5.112,2.706c1.052,0.451,4.06,0.902,4.06,0.902l-3.308,0.15 c0,0,1.204,0.602,3.308,1.204c2.256,0.602,6.166,0.602,6.166,0.602l-3.759,0.602L380.387,135.192z" clip-rule="evenodd"/><path fill="#151413" fill-rule="evenodd" d="M388.958,173.232 c-2.254,1.803-5.112,5.11-6.315,6.764c-1.354,1.654-9.17,13.23-11.276,14.433c-1.954,1.053-9.02,5.413-9.02,5.413 s7.365-3.157,9.472-4.509c1.955-1.354,3.007-1.505,0.602,0.751c-2.405,2.255-3.761,4.06-8.271,7.068 c-4.359,3.006-6.914,4.208-6.914,4.208l9.623-4.36c0,0-5.263,5.261-10.525,7.967c-1.504,0.753-4.961,2.407-4.961,2.407 s7.968-3.308,10.224-4.511c0,0-8.57,6.316-12.479,8.42c-3.91,1.954-7.668,3.607-10.376,4.061l5.563-5.714 c0,0-7.218,4.061-14.885,6.915c0,0-6.165,4.211-9.321,5.865c0,0-5.862,2.857-9.021,3.006c0,0,9.172-0.602,14.584-2.104 c5.263-1.352,8.57-1.654,22.553-8.72c0,0,13.982-8.57,23.153-18.793c9.323-10.225,12.479-18.344,13.382-19.396 c0.752-0.752,4.961-7.367,6.766-9.021c1.804-1.502,6.315-7.517,6.315-7.517L388.958,173.232z" clip-rule="evenodd"/><path fill="#B3B3B3" fill-rule="evenodd" d="M282.961,215.329 c-3.308,1.203-19.996,1.354-27.212,0.151c0,0,5.412,1.654,11.275,1.654C276.496,216.833,282.961,215.329,282.961,215.329z" clip-rule="evenodd"/><path fill="#B3B3B3" fill-rule="evenodd" d="M276.046,221.493 c7.668,0,21.799-0.602,27.514-1.803c0,0-8.118,1.803-14.733,2.256C282.059,222.396,276.046,221.493,276.046,221.493z" clip-rule="evenodd"/><path fill="#B3B3B3" fill-rule="evenodd" d="M252.14,212.474 c-10.825,0.75-18.944-2.406-21.951-3.458c0,0,10.074,2.104,12.781,2.406C245.524,211.57,252.14,212.474,252.14,212.474z" clip-rule="evenodd"/><path fill="#151413" fill-rule="evenodd" d="M415.419,144.063 c0,0-2.705,0.752-5.111,2.106c-1.504,0.901-4.661,3.456-4.661,3.456l1.354-2.255c0,0-1.805,1.054-3.459,2.255 c-1.202,0.753-4.81,1.956-4.81,1.956l1.052-1.052c0,0-2.407,1.352-3.759,1.954c-1.503,0.602-5.715,1.956-5.715,1.956 s6.315-1.505,7.369-1.956c0,0-1.955,1.654-2.857,2.104c0,0,5.262-1.803,6.165-2.555c0.901-0.753,3.308-1.954,3.308-1.954 l-1.354,2.706c0,0,3.308-2.557,4.36-3.609c2.557-2.555,4.662-3.006,4.662-3.006l-1.654,2.404c0,0,3.908-3.91,5.563-2.556 C417.074,146.92,417.675,143.312,415.419,144.063z" clip-rule="evenodd"/><path fill="#464A4B" fill-rule="evenodd" stroke="#000" stroke-linecap="round" stroke-miterlimit="2.414" stroke-width=".36" d="M447.744,151.431c0.3,0.602-1.505,0.902-2.857,0.752c-1.503,0-26.31-2.706-30.371-2.255c-1.352,0.151-2.554,0.602-2.854,0.3 c-0.903-1.052,2.705-4.511,5.412-6.014c3.607-2.406,4.811-1.654,7.516-1.204C440.225,145.568,447.744,151.431,447.744,151.431z" clip-rule="evenodd"/><g><path fill="#4E5455" fill-rule="evenodd" d="M415.419,149.024 c-1.353,0.151-2.705,0.601-2.557,0c-0.3-1.053,3.609-3.607,6.315-4.811c4.66-1.503,6.616-0.451,8.868,0 c12.932,2.255,19.547,7.217,18.945,6.917c0,0.602-2.856,0.3-4.962,0C440.225,150.98,418.727,148.725,415.419,149.024z" clip-rule="evenodd"/><path fill="#575D5F" fill-rule="evenodd" d="M416.321,148.123 c-1.352,0.151-2.857,0.602-2.255-0.151c0.301-1.352,4.511-3.006,7.216-3.758c5.712-0.451,8.419,0.752,10.223,1.203 c10.524,1.954,15.938,6.014,14.734,5.714c-0.148,0.148-4.21-0.602-6.915-1.052 C437.37,149.777,419.178,147.972,416.321,148.123z" clip-rule="evenodd"/><path fill="#636A6B" fill-rule="evenodd" d="M417.223,147.371 c-1.353,0.151-3.156,0.453-1.953-0.451c0.9-1.503,5.562-2.256,8.117-2.706c6.767,0.45,10.074,2.104,11.426,2.406 c7.971,1.503,12.48,4.961,10.676,4.36c-0.451,0-5.713-1.204-9.022-1.805C434.212,148.725,419.329,147.222,417.223,147.371z" clip-rule="evenodd"/><path fill="#6C7375" fill-rule="evenodd" d="M418.126,146.469 c-1.354,0.151-3.308,0.451-1.654-0.752c1.503-1.503,6.465-1.503,9.02-1.503c7.669,1.354,11.879,3.308,12.78,3.459 c5.412,1.352,8.72,3.909,6.465,3.156c-0.901-0.15-7.066-1.805-11.127-2.706C431.205,147.521,419.629,146.318,418.126,146.469z" clip-rule="evenodd"/><path fill="#757D7F" fill-rule="evenodd" d="M419.027,145.568 c-1.353,0.149-3.608,0.602-1.504-0.904c2.105-1.654,7.518-0.901,10.073-0.45c8.72,2.104,13.532,4.511,13.982,4.662 c2.857,0.901,5.261,2.706,2.256,1.654c-1.052-0.15-8.421-2.406-12.931-3.458C428.197,146.469,419.931,145.568,419.027,145.568 z" clip-rule="evenodd"/></g><path fill="#7E8789" fill-rule="evenodd" d="M445.037,150.079 c0.451,0.6,1.654,1.503-1.805,0.3c-1.354-0.451-9.923-3.008-15.035-4.361c-2.854-0.752-7.815-1.354-8.267-1.203 c-1.354,0.15-3.761,0.451-1.204-1.354c2.858-1.803,8.57-0.149,11.126,0.752C439.476,147.371,445.037,150.079,445.037,150.079z" clip-rule="evenodd"/><path fill="#464A4B" fill-rule="evenodd" stroke="#000" stroke-linecap="round" stroke-miterlimit="2.414" stroke-width=".36" d="M428.197,127.525c-0.3,1.203-2.104,4.06-1.651,5.563c0.3,1.354,1.352,2.105-1.505,2.557c-2.706,0.3-2.404,2.706-4.511,3.308 c-1.953,0.602-2.556,3.758-4.812,4.36c-2.255,0.751-4.359,3.006-0.3,1.503c9.924-3.909,18.342,1.354,26.61,4.51 c4.811,1.805,7.367,4.209,6.015,1.353c-1.353-2.707-8.269-10.825-10.074-12.479 C431.354,132.486,428.648,125.12,428.197,127.525z" clip-rule="evenodd"/><path fill="#464A4B" fill-rule="evenodd" d="M430.302,130.231 c2.559,4.511,3.61,4.812,5.415,6.766c1.653,1.654,8.118,8.121,10.071,11.879c1.203,2.105-1.953,0.3-3.909-0.904 c-1.803-1.352-15.333-6.464-19.093-6.014c-3.759,0.302-0.451-4.058,1.353-4.51c1.806-0.3,7.366,1.052,3.907-3.457 C427.445,133.239,427.597,125.27,430.302,130.231z" clip-rule="evenodd"/><g><path fill="#4E5455" fill-rule="evenodd" d="M424.741,137.75 c1.953-0.302,7.665,1.203,3.759-3.458c-0.603-0.902-0.903-8.27,1.802-3.758c2.407,4.06,3.61,4.66,5.415,6.464 c1.503,1.805,7.516,7.969,9.471,11.277c1.203,2.105-1.804,0.451-3.608-0.903c-2.555-1.654-14.434-6.013-18.041-5.712 C419.779,142.109,422.937,138.049,424.741,137.75z" clip-rule="evenodd"/><path fill="#575D5F" fill-rule="evenodd" d="M425.343,138.049 c2.403-0.3,7.967,1.505,3.756-3.607c-0.75-0.753-1.201-7.819,1.354-3.459c2.104,3.459,3.308,4.36,5.112,6.165 c1.654,1.654,7.218,7.368,8.871,10.525c1.203,2.104-1.204,0.601-3.159-0.753c-3.308-2.104-13.531-5.862-17.139-5.563 C420.382,141.808,423.538,138.351,425.343,138.049z" clip-rule="evenodd"/><path fill="#636A6B" fill-rule="evenodd" d="M425.794,138.351 c2.706-0.301,8.418,1.654,3.759-3.609c-0.754-0.901-1.655-7.366,0.9-3.308c1.805,2.857,3.008,4.06,4.961,5.714 c1.654,1.654,6.767,7.066,8.421,9.923c1.202,2.104-1.052,0.602-3.008-0.602c-3.91-2.555-12.479-5.714-16.086-5.261 C420.982,141.508,423.989,138.5,425.794,138.351z" clip-rule="evenodd"/><path fill="#6C7375" fill-rule="evenodd" d="M426.395,138.65 c3.007-0.3,8.721,1.956,3.759-3.758c-0.752-0.902-2.107-6.915,0.451-3.157c1.502,2.405,2.856,3.909,4.659,5.563 c1.805,1.503,6.466,6.615,7.969,9.17c1.204,2.104-0.752,0.752-2.705-0.451c-4.662-2.856-11.429-5.412-15.185-5.112 C421.733,141.208,424.59,138.802,426.395,138.65z" clip-rule="evenodd"/><path fill="#757D7F" fill-rule="evenodd" d="M426.994,138.952 c3.308-0.15,9.022,2.105,3.61-3.76c-0.752-0.901-2.256-6.465,0-3.006c1.352,1.804,2.705,3.607,4.511,5.261 c1.802,1.504,6.014,6.165,7.517,8.42c1.203,2.104-0.451,0.903-2.407-0.3c-5.412-3.308-10.523-5.264-14.131-4.813 C422.335,141.058,425.192,139.102,426.994,138.952z" clip-rule="evenodd"/></g><path fill="#7E8789" fill-rule="evenodd" d="M430.753,132.486 c0.903,1.354,2.407,3.458,4.211,4.961c1.953,1.354,5.714,5.864,6.915,7.818c1.354,2.104,0,1.052-1.954-0.149 c-6.164-3.76-9.472-5.113-13.23-4.662c-3.758,0.3-0.9-1.203,0.902-1.354c3.457-0.149,9.32,2.557,3.457-3.909 C430.453,134.442,428.5,129.48,430.753,132.486z" clip-rule="evenodd"/><g><path fill="#363431" fill-rule="evenodd" d="M291.531,133.239 c-11.425-4.811-29.318-5.412-48.713-6.165c-19.245-0.75-56.382-10.524-82.692-32.475 c-27.664-22.552-7.519-23.002,21.198-17.441c16.69,3.008,35.483,1.354,60.893,6.165c25.711,4.813,46.458,13.23,52.773,15.637 c6.313,2.104,17.59,8.871,32.925,9.772c6.166,0.302-11.276,0.903-1.804,12.78c8.722,10.826,16.538,19.395,5.411,20.749 C322.353,144.365,308.221,140.304,291.531,133.239z" clip-rule="evenodd"/><path fill="#3B3A36" fill-rule="evenodd" d="M290.479,129.631 c-11.276-4.963-29.018-5.713-48.413-6.466c-19.093-0.751-53.374-10.525-77.579-29.467 c-26.763-20.148-10.524-21.2,17.289-16.088c16.689,3.006,35.333,1.352,60.892,6.163c25.561,4.812,44.804,12.779,51.119,15.035 c6.314,2.255,17.441,9.021,32.776,10.073c6.164,0.451-10.826,0.451-2.707,11.577c7.519,10.827,16.841,19.096,3.76,18.343 C318.895,139.854,306.113,136.247,290.479,129.631z" clip-rule="evenodd"/><path fill="#3D3C38" fill-rule="evenodd" d="M289.427,126.021 c-11.276-4.81-28.567-5.862-47.963-6.766c-19.244-0.751-50.817-10.375-72.618-26.311 c-25.859-17.893-13.681-19.546,13.23-14.734c16.689,3.006,35.332,1.352,60.893,6.163 c25.558,4.812,43.299,12.329,49.614,14.584c6.316,2.104,16.988,8.871,32.475,10.225c6.315,0.451-10.374,0-3.759,10.522 c6.466,10.525,17.44,18.494,2.407,15.486C315.287,135.192,303.86,132.187,289.427,126.021z" clip-rule="evenodd"/><path fill="#41403B" fill-rule="evenodd" d="M288.375,122.414 c-11.428-4.813-28.267-6.164-47.661-6.917c-19.095-0.752-47.96-10.374-67.507-23.453 c-24.958-15.486-16.841-17.742,9.169-13.232c16.689,2.856,35.332,1.203,60.742,6.016 c25.861,4.811,41.798,11.725,48.111,14.132c6.315,2.104,16.991,8.871,32.326,10.374c6.314,0.602-9.923-0.451-4.661,9.472 c5.264,10.374,17.892,18.042,1.052,12.931C311.677,130.533,301.754,128.126,288.375,122.414z" clip-rule="evenodd"/><path fill="#46443F" fill-rule="evenodd" d="M287.321,118.805 c-11.427-4.66-27.965-6.464-47.21-7.217c-19.244-0.75-45.254-10.374-62.544-20.447c-24.056-13.08-19.997-16.088,5.112-11.877 c16.688,2.855,35.332,1.202,60.891,6.163c25.558,4.812,40.144,11.125,46.459,13.381c6.313,2.255,16.538,9.021,32.173,10.675 c6.164,0.602-9.474-0.752-5.712,8.42c3.909,10.223,18.343,17.59-0.451,10.374 C308.069,125.871,299.649,123.917,287.321,118.805z" clip-rule="evenodd"/></g><path fill="#4B4A43" fill-rule="evenodd" d="M320.851,109.634 c6.164,0.75-9.022-1.203-6.767,7.366c2.856,10.074,18.794,17.14-1.805,7.819c-7.668-3.459-14.583-4.961-26.011-9.621 c-11.426-4.662-27.513-6.615-46.909-7.368c-19.244-0.752-42.549-10.524-57.433-17.439 c-23.154-10.977-23.002-14.434,1.052-10.525c16.688,2.706,35.332,1.202,60.891,6.014c25.711,4.811,38.64,10.673,44.956,12.929 C295.139,101.063,305.213,107.83,320.851,109.634z" clip-rule="evenodd"/><path fill="#292825" fill-rule="evenodd" d="M140.881,75.053 C12.632,16.268,21.503,7.246,21.503,7.246s0-4.06,6.315-5.563c6.315-1.502,22.703,6.767,28.266,10.525 c85.999,56.079,102.237,61.042,96.674,59.839C140.581,69.341,140.881,75.053,140.881,75.053z" clip-rule="evenodd"/><path fill="#292825" fill-rule="evenodd" d="M135.317,87.983 C0.605,18.221,6.619,18.07,6.619,18.07S-1.5,8.449,13.085,8.749c11.125,0.301,18.942,5.412,24.506,8.57 c84.045,48.863,105.245,57.434,102.99,58.184C131.41,78.211,135.317,87.983,135.317,87.983z" clip-rule="evenodd"/><g><path fill="#2F2E2A" fill-rule="evenodd" d="M24.209,8.298c0,0-1.202-4.359,4.961-5.412 c6.466-1.052,21.65,6.766,27.213,10.374c84.798,55.027,100.886,59.688,95.474,58.636c-10.525-2.406-10.675,2.556-10.675,2.556 C18.046,16.117,24.209,8.298,24.209,8.298z" clip-rule="evenodd"/><path fill="#34332F" fill-rule="evenodd" d="M26.917,9.35c0,0-2.708-4.66,3.758-5.412 c6.465-0.752,20.448,6.915,26.011,10.524c83.592,53.675,99.531,58.186,93.968,57.282c-8.571-1.953-9.321,2.256-9.321,2.256 C23.458,16.117,26.917,9.35,26.917,9.35z" clip-rule="evenodd"/><path fill="#3B3A35" fill-rule="evenodd" d="M29.623,10.402c0,0-4.06-4.961,2.404-5.412 c6.467-0.3,19.247,7.066,24.959,10.675c82.391,52.473,98.328,56.833,92.765,55.931c-7.066-1.504-8.118,2.104-8.118,2.104 C28.871,16.117,29.623,10.402,29.623,10.402z" clip-rule="evenodd"/><path fill="#41403B" fill-rule="evenodd" d="M32.179,11.455 c0,0-5.261-5.261,1.203-5.261c6.615,0,18.192,7.066,23.906,10.675c81.188,51.118,96.974,55.478,91.411,54.577 c-5.261-0.904-6.915,1.804-6.915,1.804C34.283,16.268,32.179,11.455,32.179,11.455z" clip-rule="evenodd"/></g><path fill="#474640" fill-rule="evenodd" d="M142.083,72.798 C39.846,16.268,35.035,12.507,35.035,12.507s-6.766-5.563,0-5.11c6.313,0.299,16.838,7.216,22.552,10.673 c80.136,49.917,95.623,54.125,90.059,53.224C144.188,70.844,142.083,72.798,142.083,72.798z" clip-rule="evenodd"/><path fill="#E6E6E6" fill-rule="evenodd" d="M35.637,1.683 c0.75,0.3,15.335,8.42,16.237,9.171c1.054,0.752-4.209-3.909-4.209-3.909l7.668,4.961c0,0,6.315,2.708,5.263,1.505 c-1.203-1.053-8.722-6.466-10.225-7.368c-1.503-1.052-15.036-9.021-8.118-2.856L35.637,1.683z" clip-rule="evenodd"/><g><path fill="#2F2E2A" fill-rule="evenodd" d="M14.588,10.252 c10.675,0.602,17.139,4.813,22.702,7.969c84.046,48.713,104.642,56.832,102.389,57.584 c-7.519,2.406-4.362,10.675-4.362,10.675C6.619,20.177,9.926,18.823,9.926,18.823S1.206,9.501,14.588,10.252z" clip-rule="evenodd"/><path fill="#34332F" fill-rule="evenodd" d="M16.242,11.605 c10.073,0.902,15.335,4.36,20.898,7.517c84.045,48.864,103.891,56.081,101.787,56.983c-6.165,1.955-3.758,8.722-3.758,8.722 C12.632,22.13,13.085,19.724,13.085,19.724S3.912,10.554,16.242,11.605z" clip-rule="evenodd"/><path fill="#3B3A35" fill-rule="evenodd" d="M18.046,13.109 c9.471,1.203,13.379,3.909,18.942,7.068c84.046,48.711,103.141,55.478,101.037,56.381c-4.362,1.654-3.008,6.916-3.008,6.916 C18.498,24.084,16.393,20.477,16.393,20.477S6.619,11.757,18.046,13.109z" clip-rule="evenodd"/><path fill="#41403B" fill-rule="evenodd" d="M19.7,14.463 c8.871,1.654,11.426,3.458,16.989,6.766c84.196,48.713,102.688,54.577,100.584,55.779c-2.857,1.203-2.407,4.811-2.407,4.811 C24.511,26.04,19.55,21.229,19.55,21.229S9.325,12.809,19.7,14.463z" clip-rule="evenodd"/></g><path fill="#474640" fill-rule="evenodd" d="M134.866,80.465 C30.675,28.144,22.857,22.13,22.857,22.13s-10.827-8.269-1.503-6.165c8.418,1.956,9.772,3.008,15.335,6.165 c84.046,48.864,101.787,54.125,99.831,55.329C135.317,78.211,134.866,80.465,134.866,80.465z" clip-rule="evenodd"/><path fill="none" fill-rule="evenodd" stroke="#404040" stroke-miterlimit="2.414" stroke-width="2.736" d="M398.881,123.014c7.968,1.956,5.863,13.082-2.256,11.428C387.604,132.637,390.612,121.06,398.881,123.014z" clip-rule="evenodd"/><path fill="#8B4620" fill-rule="evenodd" stroke="#000" stroke-miterlimit="2.414" stroke-width=".36" d="M398.881,123.014c7.968,1.956,5.863,13.082-2.256,11.428C387.604,132.637,390.612,121.06,398.881,123.014z" clip-rule="evenodd"/><path fill="#72391A" fill-rule="evenodd" d="M398.28,123.467 c3.607,0.601,4.961,3.006,5.11,5.412c0,1.352-0.751,1.352-0.902,0.752c-0.3-0.602-2.555-1.804-4.208-1.956 c-1.655-0.3-3.909-0.15-4.663,0.151c-0.749,0.3-2.403,1.052-1.804-0.753C392.266,125.571,394.22,122.714,398.28,123.467z" clip-rule="evenodd"/><path fill-rule="evenodd" d="M398.28,126.473c2.706,0.45,2.555,4.961-1.053,4.36 C394.22,130.381,394.67,125.871,398.28,126.473z" clip-rule="evenodd"/><path fill="#F2F2F2" fill-rule="evenodd" d="M399.632,125.871 c1.203,0.452,0.302,1.956-0.751,1.654C397.679,127.074,398.129,125.27,399.632,125.871z" clip-rule="evenodd"/><path fill="#0E0E0D" fill-rule="evenodd" d="M427.597,134.742 c-0.151-0.602,2.104,0.151,3.008,1.955c0.3,0.3-0.603-0.15-1.052-0.45C428.197,135.343,427.597,135.794,427.597,134.742z" clip-rule="evenodd"/><path fill="#151413" fill-rule="evenodd" d="M391.514,152.633 c-1.953,0.753-5.112,2.407-8.119,2.707h-2.705c0,0,4.059-0.602,5.261-1.204C387.153,153.535,391.514,152.633,391.514,152.633z" clip-rule="evenodd"/><path fill="#151413" fill-rule="evenodd" d="M380.387,154.137 c1.806-0.602-3.457,1.654-8.269,1.354l-2.706-0.15c0,0,3.008-0.451,4.061-0.451S379.035,154.438,380.387,154.137z" clip-rule="evenodd"/><path fill="none" fill-rule="evenodd" stroke="#3D3D37" stroke-linecap="round" stroke-miterlimit="2.414" stroke-width=".36" d="M252.741,195.482c3.459,0.151,6.916,0.151,9.623-0.451l-9.623-4.208c0,0,7.818,1.203,10.824,0.75c0,0,0.302-1.654-4.961-3.456 c-4.509-1.655-4.36-2.857-4.36-2.857s6.466,3.458,12.179,3.458c2.705,0,4.51-0.752,1.956-1.956 c-2.559-1.052-1.956-1.502-1.956-1.502l6.466,1.203l-1.956-1.804c0,0,6.015,1.804,8.571,1.804c0,0,6.313,0.3,3.457-1.203 c-3.006-1.354-2.706-1.354-2.706-1.354s5.263,0.302,7.818,1.052c2.556,0.752,5.563,1.504,5.563,1.504s-4.061-3.308-6.615-4.06 c-2.707-0.752-3.459-0.752-3.459-0.752s3.459-0.451,9.774,2.255c6.313,2.557,9.62,2.856,9.62,2.856l-4.811-3.308 c0,0,7.369,1.503,9.622,3.008c2.255,1.503,7.067,3.007,9.623,3.759c2.706,0.602,9.021,4.811,9.021,4.811l-4.813-5.563 c0,0,4.813,3.308,7.068,4.812c2.255,1.503,4.511,6.313,4.511,6.313v-4.51c0,0,2.104,2.856,2.104,5.112 c0,3.458-1.053,7.517-1.053,11.277c0,2.855-5.263,10.071-5.263,10.071s-6.615,5.865-9.621,8.42" clip-rule="evenodd"/><path fill="none" fill-rule="evenodd" stroke="#C4D1D4" stroke-linecap="round" stroke-miterlimit="2.414" stroke-width=".36" d="M430.753,132.788c0.752,1.352,3.308,4.208,4.06,4.811c0.602,0.602,2.407,2.104,3.008,3.008" clip-rule="evenodd"/><path fill="#E36943" fill-rule="evenodd" d="M316.188,191.875 c2.407-0.151-6.164-3.157-7.516-4.06c-1.654-1.053-5.412-2.105-5.412-2.105s2.854,1.956,3.758,2.706 C307.619,189.018,313.933,192.026,316.188,191.875z" clip-rule="evenodd"/><path fill="#E36943" fill-rule="evenodd" d="M293.337,184.658 c1.802,0.602,8.72,3.157,10.823,4.662c2.256,1.503,6.916,2.855,4.663,3.006c-2.107,0.151-6.166-0.901-8.121-2.406 C298.598,188.416,293.337,184.658,293.337,184.658z" clip-rule="evenodd"/><path fill="#E36943" fill-rule="evenodd" d="M312.131,192.175 c0,0,5.861,1.052,7.516,2.406c1.653,1.204,2.104,2.406-1.052,1.204C315.438,194.732,312.131,192.175,312.131,192.175z" clip-rule="evenodd"/><path fill="#E36943" fill-rule="evenodd" d="M284.916,185.26 c5.113,1.203,7.518,1.502,10.223,3.006c2.558,1.354,3.762,2.856,2.406,2.558C296.19,190.372,284.916,185.26,284.916,185.26z" clip-rule="evenodd"/><path fill="#E36943" fill-rule="evenodd" d="M281.307,189.77 c0,0-7.216-2.406-9.923-2.706c-2.856-0.453,0.451,0.751,3.308,1.803C286.722,193.227,281.307,189.77,281.307,189.77z" clip-rule="evenodd"/><path fill="#E36943" fill-rule="evenodd" d="M296.793,192.927 c0,0-6.015-2.555-10.824-2.857c0,0,3.758,2.105,5.412,2.857C293.186,193.529,298.598,193.979,296.793,192.927z" clip-rule="evenodd"/><path fill="#E36943" fill-rule="evenodd" d="M307.018,195.032 c-1.956-0.151-3.308-1.503-4.81-1.503c0,0,3.456,2.706,6.013,3.308c2.556,0.602,3.607,0.901,3.607,0.901L307.018,195.032z" clip-rule="evenodd"/><path fill="#E36943" fill-rule="evenodd" d="M314.084,196.235 c0,0,7.216,1.954,8.87,3.308c1.805,1.354,2.104,2.406,2.104,2.406s-1.653-1.654-4.059-2.255 C318.595,199.243,314.084,196.235,314.084,196.235z" clip-rule="evenodd"/><path fill="#E36943" fill-rule="evenodd" d="M327.466,194.581 c-1.956-1.052,0.9,0.151,1.804,5.863c0.451,2.255,0.601,3.308,0.601,3.308s0.752-3.607,2.105-3.308 C331.976,200.444,329.57,195.633,327.466,194.581z" clip-rule="evenodd"/><path fill="#E36943" fill-rule="evenodd" d="M286.722,194.281 c0,0-5.112-1.354-8.121-1.504c-3.006-0.149-4.209-0.3-4.209-0.3s3.308,1.953,5.112,2.104 C281.458,194.732,286.722,194.281,286.722,194.281z" clip-rule="evenodd"/><path fill="#E36943" fill-rule="evenodd" d="M300.853,197.737 c0,0-2.555-1.052-4.511-1.052c-2.104,0-3.908,0-3.908,0s1.052,0.602,2.557,1.203c1.503,0.752,2.104,0.902,4.51,0.902 C301.754,198.791,303.26,198.641,300.853,197.737z" clip-rule="evenodd"/><path fill="#E36943" fill-rule="evenodd" d="M273.188,190.823 c0,0-8.117-1.204-9.473-1.503c0,0,1.204,1.503,3.759,1.503C270.032,190.974,273.188,190.823,273.188,190.823z" clip-rule="evenodd"/><path fill="#E36943" fill-rule="evenodd" d="M326.563,199.542 c0,0-0.601-3.308-1.955-4.209c-1.502-0.904-4.359-1.805-4.359-1.805s1.954,1.204,3.006,2.556 C324.308,197.438,326.563,199.542,326.563,199.542z" clip-rule="evenodd"/><path fill="none" fill-rule="evenodd" stroke="#050504" stroke-linecap="round" stroke-miterlimit="2.414" stroke-width=".36" d="M236.955,94.599c0,0,10.374,15.938,54.274,36.687c0,0,20.299,9.17,26.162,11.425" clip-rule="evenodd"/><path fill="none" fill-rule="evenodd" stroke="#050504" stroke-linecap="round" stroke-miterlimit="2.414" stroke-width=".36" d="M214.552,94.599c0,0,5.264,19.396,49.013,40.294c0,0,20.598,10.073,26.612,12.478" clip-rule="evenodd"/><path fill="none" fill-rule="evenodd" stroke="#050504" stroke-linecap="round" stroke-miterlimit="2.414" stroke-width=".36" d="M194.255,102.868c8.119,10.075,23.906,26.011,75.024,49.465" clip-rule="evenodd"/><path fill="none" fill-rule="evenodd" stroke="#050504" stroke-linecap="round" stroke-miterlimit="2.414" stroke-width=".36" d="M179.371,113.091c8.119,10.074,29.167,26.463,80.286,49.917" clip-rule="evenodd"/><path fill="none" fill-rule="evenodd" stroke="#050504" stroke-linecap="round" stroke-miterlimit="2.414" stroke-width=".36" d="M167.344,124.819c9.62,8.42,32.023,27.214,83.141,50.518" clip-rule="evenodd"/><path fill="none" fill-rule="evenodd" stroke="#050504" stroke-linecap="round" stroke-miterlimit="2.414" stroke-width=".36" d="M171.704,135.192c10.824,10.375,29.167,30.372,80.285,53.675" clip-rule="evenodd"/><path fill="#292825" fill-rule="evenodd" d="M279.202,100.162 c-20.897-9.772-39.392-12.931-47.66-10.827c0,0-15.938-7.667-21.198-3.307c0,0-17.141-7.517-25.409-3.759 c0,0-19.997-9.17-25.712-1.352c0,0-11.425-6.014-18.491-4.961c-4.662,0.751-9.172,4.209-4.211,15.937 c0,0,15.187,26.912,21.953,33.979c0,0,4.208,5.563,5.863,8.571c1.653,3.006,3.458,6.165,5.563,9.472 c2.254,3.457,6.164,9.17,10.975,13.832c4.81,4.66,22.251,19.995,35.331,27.514c13.081,7.667,29.319,9.473,33.379,9.923 c0,0-24.509-3.909-36.385-12.931c-11.728-8.871-21.802-16.989-29.62-23.904c-7.819-7.217-11.426-12.48-12.78-14.736 c-1.204-2.255-4.059-7.818-6.014-10.673c-2.104-2.708-10.524-13.683-11.125-15.035c-0.751-1.204-16.539-25.711-17.44-29.469 c-0.904-3.759-0.904-7.667,0.901-9.923c1.956-2.256,3.759-2.256,5.714-1.805c1.805,0.301,15.335,3.758,19.395,13.532 c0,0-3.609-7.518-1.954-9.172c3.008-2.855,4.661-2.105,9.472-1.803c3.157,0.149,8.72,2.855,10.827,4.36 c1.953,1.352,5.563,7.967,5.563,7.967s-4.511-8.418,0.75-9.02c1.956-0.15,4.06-0.452,6.615,0 c3.156,0.75,6.767,1.654,11.278,3.607c4.36,2.104,10.373,9.021,10.373,9.021s-6.915-7.969-2.705-9.021 c1.502-0.45,8.871-0.901,20.898,5.714l8.419,7.517c0,0-9.021-7.667-5.411-9.473c1.952-0.901,3.308-0.148,8.417,0.151 C253.793,90.39,279.202,100.162,279.202,100.162z" clip-rule="evenodd"/><path fill="#E6E6E6" fill-rule="evenodd" d="M168.545,141.208 c0,0-1.052-5.865-3.007-8.871c-1.804-3.008-6.315-9.623-6.315-9.623l3.759,3.308c0,0-6.764-8.569-8.568-10.524 c-1.806-1.805-11.577-14.434-12.629-16.989c0,0,8.871,15.937,10.374,18.492c1.503,2.706,8.269,10.074,9.321,12.631 C162.682,132.337,168.545,141.208,168.545,141.208z" clip-rule="evenodd"/><path fill="#E6E6E6" fill-rule="evenodd" d="M185.987,90.99 c-1.956-4.209,11.275,21.2,37.137,36.837C223.124,127.827,195.458,112.491,185.987,90.99z" clip-rule="evenodd"/><path fill="#E6E6E6" fill-rule="evenodd" d="M161.179,88.585 c-1.805-4.21,6.314,16.388,34.882,39.393C196.061,127.978,170.8,111.137,161.179,88.585z" clip-rule="evenodd"/><path fill="#E6E6E6" fill-rule="evenodd" d="M213.8,94.148 c-1.803-4.06,13.381,22.401,40.145,35.631C253.944,129.78,223.873,115.497,213.8,94.148z" clip-rule="evenodd"/><path fill="#E6E6E6" fill-rule="evenodd" d="M238.156,96.252 c-2.706-3.758,14.585,16.69,50.818,33.83C288.975,130.082,250.485,113.091,238.156,96.252z" clip-rule="evenodd"/><path fill="#E6E6E6" fill-rule="evenodd" d="M136.52,88.435 c-2.104-4.209,11.577,19.695,41.197,44.955C177.717,133.389,148.399,112.189,136.52,88.435z" clip-rule="evenodd"/><path fill="#E6E6E6" fill-rule="evenodd" d="M143.586,101.365 c-2.104-4.06,11.428,19.695,41.197,45.104C184.783,146.469,155.465,125.27,143.586,101.365z" clip-rule="evenodd"/><path fill="none" fill-rule="evenodd" stroke="#050504" stroke-linecap="round" stroke-miterlimit="2.414" stroke-width=".36" d="M163.284,130.082c4.51,4.811,36.383,41.645,88.705,64.499" clip-rule="evenodd"/><path fill="none" fill-rule="evenodd" stroke="#050504" stroke-linecap="round" stroke-miterlimit="2.414" stroke-width=".36" d="M167.344,137.599c9.32,9.623,37.285,40.744,72.015,55.178" clip-rule="evenodd"/><path fill="#312F2D" fill-rule="evenodd" d="M252.59,167.669 c7.668-1.654,31.876,9.771,19.697,15.035C260.56,187.515,241.614,170.073,252.59,167.669z" clip-rule="evenodd"/><g><path fill="#363431" fill-rule="evenodd" d="M252.741,167.969 c7.367-1.503,28.868,8.72,17.591,13.381C259.057,185.861,242.519,170.073,252.741,167.969z" clip-rule="evenodd"/><path fill="#3B3A36" fill-rule="evenodd" d="M252.893,168.12 c7.064-1.502,25.858,7.819,15.635,11.877C257.702,184.057,243.57,170.073,252.893,168.12z" clip-rule="evenodd"/><path fill="#41403B" fill-rule="evenodd" d="M252.893,168.271 c6.765-1.354,22.702,6.915,13.681,10.374C256.049,182.402,244.321,170.073,252.893,168.271z" clip-rule="evenodd"/><path fill="#46443F" fill-rule="evenodd" d="M253.041,168.419 c6.616-1.352,19.697,6.014,11.728,8.871C254.694,180.749,245.373,169.925,253.041,168.419z" clip-rule="evenodd"/></g><path fill="#4B4A43" fill-rule="evenodd" d="M253.041,168.571 c6.315-1.203,16.84,5.112,9.774,7.368C253.192,179.095,246.277,169.925,253.041,168.571z" clip-rule="evenodd"/><path fill="#E6E6E6" fill-rule="evenodd" d="M263.716,169.172 c-2.555-0.752-11.274-1.654-12.779-0.15c-1.654,1.654-1.352,4.211,0.753,5.112c1.952,0.902,3.005-1.052,4.511-2.255 C259.508,169.021,273.34,171.727,263.716,169.172z" clip-rule="evenodd"/><path fill="#312F2D" fill-rule="evenodd" d="M260.258,164.51 c8.57-1.802,35.184,10.676,21.65,16.39C269.128,186.312,248.23,167.067,260.258,164.51z" clip-rule="evenodd"/><g><path fill="#363431" fill-rule="evenodd" d="M260.408,164.662 c8.271-1.805,31.874,9.771,19.547,14.733C267.475,184.358,249.282,167.067,260.408,164.662z" clip-rule="evenodd"/><path fill="#3B3A36" fill-rule="evenodd" d="M260.56,164.812 c7.819-1.654,28.415,8.72,17.291,13.08C265.82,182.402,250.334,166.917,260.56,164.812z" clip-rule="evenodd"/><path fill="#41403B" fill-rule="evenodd" d="M260.71,164.963 c7.518-1.505,25.107,7.667,15.033,11.425C264.317,180.598,251.387,166.917,260.71,164.963z" clip-rule="evenodd"/><path fill="#46443F" fill-rule="evenodd" d="M260.859,165.263 c7.217-1.503,21.65,6.615,12.78,9.623C262.664,178.795,252.441,166.917,260.859,165.263z" clip-rule="evenodd"/></g><path fill="#4B4A43" fill-rule="evenodd" d="M260.859,165.414 c6.917-1.354,18.494,5.712,10.676,8.118C261.01,176.839,253.493,166.917,260.859,165.414z" clip-rule="evenodd"/><path fill="#E6E6E6" fill-rule="evenodd" d="M271.235,165.564 c-2.557-0.601-11.428-1.653-12.779-0.151c-1.807,1.654-2.107,4.66,0,5.563c1.952,0.901,3.757-1.354,5.109-2.706 C267.024,165.414,280.855,168.12,271.235,165.564z" clip-rule="evenodd"/><path fill="#312F2D" fill-rule="evenodd" d="M268.379,160.302 c9.32-1.954,38.639,12.027,23.903,18.041C277.999,184.208,254.997,163.158,268.379,160.302z" clip-rule="evenodd"/><g><path fill="#363431" fill-rule="evenodd" d="M268.527,160.452 c9.021-1.804,34.881,10.975,21.351,16.237C276.196,182.252,256.2,163.158,268.527,160.452z" clip-rule="evenodd"/><path fill="#3B3A36" fill-rule="evenodd" d="M268.679,160.752 c8.569-1.804,31.273,9.624,18.943,14.283C274.392,180.147,257.252,163.008,268.679,160.752z" clip-rule="evenodd"/><path fill="#41403B" fill-rule="evenodd" d="M268.828,160.903 c8.271-1.654,27.514,8.569,16.539,12.629C272.738,178.043,258.456,163.008,268.828,160.903z" clip-rule="evenodd"/><path fill="#46443F" fill-rule="evenodd" d="M268.979,161.054 c7.968-1.505,23.905,7.517,13.981,10.975C270.933,176.087,259.657,163.008,268.979,161.054z" clip-rule="evenodd"/></g><path fill="#4B4A43" fill-rule="evenodd" d="M268.979,161.354 c7.668-1.503,20.297,6.315,11.727,9.021C269.128,173.983,260.859,162.856,268.979,161.354z" clip-rule="evenodd"/><path fill="#E6E6E6" fill-rule="evenodd" d="M278.902,161.656 c-2.557-0.602-11.277-1.505-12.779-0.151c-1.654,1.654-2.104,4.66,0,5.563c2.104,0.902,3.758-1.354,5.261-2.557 C274.691,161.504,288.523,164.21,278.902,161.656z" clip-rule="evenodd"/><path fill="#312F2D" fill-rule="evenodd" d="M276.196,154.587 c10.223-2.255,42.398,13.23,26.16,19.846C286.722,181.048,261.461,157.746,276.196,154.587z" clip-rule="evenodd"/><g><path fill="#363431" fill-rule="evenodd" d="M299.801,172.631 c-14.885,6.014-37.137-14.885-23.604-17.893C286.269,152.633,314.685,166.766,299.801,172.631z" clip-rule="evenodd"/><path fill="#3B3A36" fill-rule="evenodd" d="M297.394,171.125 c-14.433,5.415-33.375-13.379-20.897-16.085C286.119,153.084,310.776,165.864,297.394,171.125z" clip-rule="evenodd"/><path fill="#41403B" fill-rule="evenodd" d="M294.839,169.323 c-13.832,4.961-29.619-11.577-18.191-13.983C285.817,153.387,307.018,164.812,294.839,169.323z" clip-rule="evenodd"/><path fill="#46443F" fill-rule="evenodd" d="M292.282,167.518 c-13.231,4.511-25.709-9.923-15.483-12.027C285.518,153.687,303.108,163.76,292.282,167.518z" clip-rule="evenodd"/></g><path fill="#4B4A43" fill-rule="evenodd" d="M276.947,155.791 c8.269-1.654,22.253,6.917,12.779,9.923C276.947,169.925,267.776,157.595,276.947,155.791z" clip-rule="evenodd"/><path fill="#E6E6E6" fill-rule="evenodd" d="M286.57,156.092 c-2.557-0.602-11.278-1.505-12.779-0.151c-1.655,1.654-2.104,4.659,0,5.563c1.952,0.901,3.757-1.354,5.26-2.557 C282.359,155.941,296.19,158.648,286.57,156.092z" clip-rule="evenodd"/><path fill="#312F2D" fill-rule="evenodd" d="M286.119,149.326 c10.374-2.104,42.549,13.382,26.312,20.146C296.793,175.787,271.535,152.483,286.119,149.326z" clip-rule="evenodd"/><g><path fill="#363431" fill-rule="evenodd" d="M310.325,167.969 c-15.035,5.864-37.738-15.486-23.906-18.344C296.342,147.371,325.361,161.804,310.325,167.969z" clip-rule="evenodd"/><path fill="#3B3A36" fill-rule="evenodd" d="M308.221,166.466 c-14.735,5.714-34.581-13.983-21.802-16.689C296.042,147.673,322.202,160.903,308.221,166.466z" clip-rule="evenodd"/><path fill="#3D3C38" fill-rule="evenodd" d="M306.113,164.963 c-14.131,5.261-31.422-12.48-19.543-15.036C295.893,147.972,318.895,160.15,306.113,164.963z" clip-rule="evenodd"/><path fill="#41403B" fill-rule="evenodd" d="M304.01,163.458 c-13.681,4.961-28.267-10.975-17.288-13.23C295.741,148.274,315.736,159.249,304.01,163.458z" clip-rule="evenodd"/><path fill="#46443F" fill-rule="evenodd" d="M301.905,162.106 c-13.23,4.36-25.106-9.773-15.184-11.727C295.441,148.574,312.431,158.497,301.905,162.106z" clip-rule="evenodd"/></g><path fill="#4B4A43" fill-rule="evenodd" d="M286.87,150.529 c8.42-1.654,22.402,6.915,12.931,9.923C287.021,164.662,277.851,152.333,286.87,150.529z" clip-rule="evenodd"/><path fill="#E6E6E6" fill-rule="evenodd" d="M296.793,151.131 c-2.556-0.602-11.275-1.654-12.779-0.15c-1.654,1.653-2.105,4.51,0,5.563c2.105,0.901,3.76-1.354,5.263-2.706 C292.584,150.98,306.416,153.687,296.793,151.131z" clip-rule="evenodd"/><path fill="#E6E6E6" fill-rule="evenodd" d="M326.713,155.791 c2.857-1.654-16.236-4.511-11.426-0.75C317.843,156.994,321.15,159.098,326.713,155.791z" clip-rule="evenodd"/><path fill="#E6E6E6" fill-rule="evenodd" d="M317.843,164.362 c9.32-3.761-15.938-4.813-11.127-1.052C309.272,165.112,314.084,165.864,317.843,164.362z" clip-rule="evenodd"/><path fill="#E6E6E6" fill-rule="evenodd" d="M307.018,173.081 c10.074-3.609-17.441-4.359-9.624-1.052C300.402,173.081,303.26,174.433,307.018,173.081z" clip-rule="evenodd"/><path fill="#292825" fill-rule="evenodd" d="M141.333,74.152 c-7.068-3.157-109.004-57.134-118.627-64.5c0,0,113.515,65.252,116.671,66.454l-5.412-4.209L141.333,74.152z" clip-rule="evenodd"/><path fill="#E6E6E6" fill-rule="evenodd" d="M31.728,33.858 c1.654,0.901-3.308-4.51-6.014-6.615c-2.557-1.956-22.252-12.48-22.252-12.48s17.291,9.021,18.343,8.722 c0.901-0.302-6.014-4.662-6.014-4.662L1.808,10.252c0,0-0.752,2.255,1.354,4.06c0,0-0.151,0.451-0.453,0.451 c-0.451,0.151-3.006,0.752-0.901,2.406C9.325,23.032,26.615,31.152,31.728,33.858z" clip-rule="evenodd"/><path fill="none" stroke="#919697" stroke-linecap="round" stroke-miterlimit="2.414" stroke-width=".144" d="M133.965,79.413L32.027,25.889"/><path fill="none" stroke="#919697" stroke-linecap="round" stroke-miterlimit="2.414" stroke-width=".36" d="M134.718,83.173l-43.15-21.801"/><path fill="none" stroke="#919697" stroke-linecap="round" stroke-miterlimit="2.414" stroke-width=".144" d="M136.52,77.308L98.933,57.613"/><path fill="none" stroke="#919697" stroke-linecap="round" stroke-miterlimit="2.414" stroke-width=".144" d="M143.889,71.294L73.675,29.647"/><path fill="none" stroke="#919697" stroke-linecap="round" stroke-miterlimit="2.414" stroke-width=".144" d="M105.999,50.847L46.162,17.771"/><path fill="none" stroke="#919697" stroke-linecap="round" stroke-miterlimit="2.414" stroke-width=".144" d="M47.214,13.26L27.066,2.134"/><path fill="none" stroke="#919697" stroke-linecap="round" stroke-miterlimit="2.414" stroke-width=".144" d="M21.956,3.938l12.179,7.065"/><path fill="none" stroke="#919697" stroke-linecap="round" stroke-miterlimit="2.414" stroke-width=".144" d="M8.575,8.449l17.741,9.17"/><path fill="none" fill-rule="evenodd" stroke="#919697" stroke-linecap="round" stroke-miterlimit="2.414" stroke-width=".36" d="M140.13,86.179c0,0,12.328,19.245,22.4,28.566" clip-rule="evenodd"/><path fill="none" stroke="#919697" stroke-linecap="round" stroke-miterlimit="2.414" stroke-width=".36" d="M163.284,111.137l10.073,8.871"/><path fill="none" fill-rule="evenodd" stroke="#919697" stroke-linecap="round" stroke-miterlimit="2.414" stroke-width=".36" d="M187.791,117.752c0,0,17.439,14.884,30.52,21.2" clip-rule="evenodd"/><path fill="none" fill-rule="evenodd" stroke="#919697" stroke-linecap="round" stroke-miterlimit="2.414" stroke-width=".36" d="M183.731,112.64c0,0-11.577-11.577-13.682-15.937" clip-rule="evenodd"/><path fill="none" fill-rule="evenodd" stroke="#665C49" stroke-linecap="round" stroke-miterlimit="2.414" stroke-width=".144" d="M218.612,241.49c-0.904,0.302-6.014,0.903-7.667,0" clip-rule="evenodd"/><path fill="#B2A26F" fill-rule="evenodd" stroke="#000" stroke-miterlimit="2.414" stroke-width=".36" d="M221.167,322.529c1.354,0,2.256,3.156-0.602,3.607c-3.005,0.3-5.412,0.753-6.615,4.511c0,0-0.75,1.953-0.601-0.15 C213.5,328.393,215.153,322.529,221.167,322.529z" clip-rule="evenodd"/><path fill="#B2A26F" fill-rule="evenodd" stroke="#000" stroke-miterlimit="2.414" stroke-width=".36" d="M268.828,332.301c0.603-0.45,2.556,0.3,4.061,4.062c1.503,3.606,1.654,7.667,0.902,10.071c0,0-0.451,1.505-0.603,0 c0-1.654-1.354-6.014-2.405-7.217C269.73,338.016,266.423,333.955,268.828,332.301z" clip-rule="evenodd"/><path fill="#B2A26F" fill-rule="evenodd" stroke="#000" stroke-miterlimit="2.414" stroke-width=".36" d="M279.804,316.364c-1.203,0-1.805,3.308,1.203,3.457c2.856,0,5.412,0.15,6.915,3.761c0,0,0.904,1.953,0.602-0.151 C288.225,321.326,285.817,315.763,279.804,316.364z" clip-rule="evenodd"/><path fill="none" fill-rule="evenodd" stroke="#E5D08E" stroke-linecap="round" stroke-miterlimit="2.414" stroke-width=".792" d="M279.955,317.568c1.203,0,3.759-0.151,6.014,2.104" clip-rule="evenodd"/><path fill="none" fill-rule="evenodd" stroke="#E5D08E" stroke-linecap="round" stroke-miterlimit="2.414" stroke-width=".792" d="M269.881,333.955c1.052,1.654,2.406,2.857,3.459,9.473" clip-rule="evenodd"/><path fill="none" fill-rule="evenodd" stroke="#E5D08E" stroke-linecap="round" stroke-miterlimit="2.414" stroke-width=".792" d="M221.017,323.882c-1.201,0.302-3.909,0.302-5.712,3.156" clip-rule="evenodd"/><path fill="none" fill-rule="evenodd" stroke="#151413" stroke-linecap="round" stroke-miterlimit="2.414" stroke-width=".36" d="M351.672,140.906c0,0-4.36,0-7.368-0.752" clip-rule="evenodd"/><path fill="none" fill-rule="evenodd" stroke="#151413" stroke-linecap="round" stroke-miterlimit="2.414" stroke-width=".36" d="M345.355,137.599c0,0-4.811,0-7.667-1.204" clip-rule="evenodd"/><path fill="none" stroke="#151413" stroke-linecap="round" stroke-miterlimit="2.414" stroke-width=".36" d="M338.289,132.337l-4.359-1.504"/><path fill="none" fill-rule="evenodd" stroke="#151413" stroke-linecap="round" stroke-miterlimit="2.414" stroke-width=".36" d="M336.034,127.525c0,0-4.812,0-6.615-1.503" clip-rule="evenodd"/><path fill="none" fill-rule="evenodd" stroke="#151413" stroke-linecap="round" stroke-miterlimit="2.414" stroke-width=".36" d="M331.976,123.467c0,0-5.563-0.453-6.315-1.505" clip-rule="evenodd"/><path fill="none" fill-rule="evenodd" stroke="#151413" stroke-linecap="round" stroke-miterlimit="2.414" stroke-width=".36" d="M331.976,119.256c0,0-3.308,0.45-5.112-0.3" clip-rule="evenodd"/><path fill="none" fill-rule="evenodd" stroke="#151413" stroke-linecap="round" stroke-miterlimit="2.414" stroke-width=".36" d="M330.923,114.896c0,0-3.76,1.052-6.315,0.302" clip-rule="evenodd"/><path fill="none" fill-rule="evenodd" stroke="#151413" stroke-linecap="round" stroke-miterlimit="2.414" stroke-width=".36" d="M332.727,111.437c0,0-2.556,1.054-5.111,0.752" clip-rule="evenodd"/><path fill="none" fill-rule="evenodd" stroke="#151413" stroke-linecap="round" stroke-miterlimit="2.414" stroke-width=".36" d="M334.981,108.431c0,0-4.059,1.503-5.862,1.052" clip-rule="evenodd"/><path fill="none" fill-rule="evenodd" stroke="#151413" stroke-linecap="round" stroke-miterlimit="2.414" stroke-width=".36" d="M368.059,153.837c0,0-5.563,1.052-8.871,0.75" clip-rule="evenodd"/><path fill="none" fill-rule="evenodd" stroke="#151413" stroke-linecap="round" stroke-miterlimit="2.414" stroke-width=".36" d="M358.437,153.084c0,0-3.457,0.451-5.563,0.451" clip-rule="evenodd"/><path fill="none" fill-rule="evenodd" stroke="#151413" stroke-linecap="round" stroke-miterlimit="2.414" stroke-width=".36" d="M350.919,152.033c0,0-3.607,0.752-5.563,0.3" clip-rule="evenodd"/><path fill="none" fill-rule="evenodd" stroke="#151413" stroke-linecap="round" stroke-miterlimit="2.414" stroke-width=".36" d="M373.773,116.852c0,0-6.166-1.654-8.422-1.654" clip-rule="evenodd"/><path fill="none" stroke="#151413" stroke-linecap="round" stroke-miterlimit="2.414" stroke-width=".36" d="M380.538,116.55l-4.359-0.902"/><path fill="none" fill-rule="evenodd" stroke="#151413" stroke-linecap="round" stroke-miterlimit="2.414" stroke-width=".36" d="M381.44,115.046c0,0,3.758,0.451,4.81,0.901" clip-rule="evenodd"/><path fill="none" fill-rule="evenodd" stroke="#151413" stroke-linecap="round" stroke-miterlimit="2.414" stroke-width=".36" d="M387.904,114.896c0,0,3.008,0.45,4.361,1.052" clip-rule="evenodd"/><path fill="none" fill-rule="evenodd" stroke="#151413" stroke-linecap="round" stroke-miterlimit="2.414" stroke-width=".36" d="M385.049,135.645c0,0-4.06,0-5.111,0.3" clip-rule="evenodd"/><path fill="none" stroke="#151413" stroke-linecap="round" stroke-miterlimit="2.414" stroke-width=".36" d="M387.904,136.395l-2.404,0.151"/><path fill="none" stroke="#151413" stroke-linecap="round" stroke-miterlimit="2.414" stroke-width=".36" d="M364,179.395l-6.315,2.558"/><path fill="none" stroke="#151413" stroke-linecap="round" stroke-miterlimit="2.414" stroke-width=".36" d="M357.234,180.449l-4.811,2.256"/><path fill="none" fill-rule="evenodd" stroke="#151413" stroke-linecap="round" stroke-miterlimit="2.414" stroke-width=".36" d="M308.972,155.041c0,0,3.308,1.502,5.563,1.802" clip-rule="evenodd"/><path fill="none" fill-rule="evenodd" stroke="#151413" stroke-linecap="round" stroke-miterlimit="2.414" stroke-width=".36" d="M311.828,154.288c0,0-1.805,0-3.607-1.805" clip-rule="evenodd"/><path fill="none" fill-rule="evenodd" stroke="#151413" stroke-linecap="round" stroke-miterlimit="2.414" stroke-width=".36" d="M322.353,146.169c0,0-5.112-3.76-5.112-5.563" clip-rule="evenodd"/><path fill="none" stroke="#151413" stroke-linecap="round" stroke-miterlimit="2.414" stroke-width=".36" d="M325.66,147.222l-2.856-3.458"/><path fill="none" fill-rule="evenodd" stroke="#151413" stroke-linecap="round" stroke-miterlimit="2.414" stroke-width=".36" d="M359.489,197.137c0,0-4.061,3.76-7.065,4.812" clip-rule="evenodd"/><path fill="none" fill-rule="evenodd" stroke="#151413" stroke-linecap="round" stroke-miterlimit="2.414" stroke-width=".36" d="M364.3,195.785c0,0-2.856,3.308-4.36,4.058" clip-rule="evenodd"/><path fill="none" fill-rule="evenodd" stroke="#151413" stroke-linecap="round" stroke-miterlimit="2.414" stroke-width=".36" d="M352.424,198.339c0,0-3.61,2.557-4.813,2.557" clip-rule="evenodd"/></g></g></g></switch></svg>