<svg xmlns="http://www.w3.org/2000/svg" xmlns:svg="http://www.w3.org/2000/svg" width="1040" height="280" viewBox="-250 50 1200 300"><defs><pattern id="gridpattern" width="100" height="100" x="0" y="0" patternUnits="userSpaceOnUse"><image id="svg_1" width="100" height="100" x="0" y="0"/></pattern><pattern id="gridpattern" width="100" height="100" x="0" y="0" patternUnits="userSpaceOnUse"><image id="svg_3" width="100" height="100" x="0" y="0"/></pattern><pattern id="gridpattern" width="100" height="100" x="0" y="0" patternUnits="userSpaceOnUse"><image width="100" height="100" x="0" y="0"/></pattern></defs><g><title>Layer 1</title><g id="svg_17"><path id="svg_21" fill="#007f3f" stroke="#fcf9f9" stroke-dasharray="null" stroke-linecap="null" stroke-linejoin="null" stroke-width="5" d="m392.82498,216.125l77.83497,-73.23359l77.83497,73.23359l-77.83497,73.23359l-77.83497,-73.23359z" transform="rotate(18.608373641967773 470.659973144531,216.12499999999991)"/><g id="svg_20" stroke="null"><g id="svg_24"><rect id="svg_5" width="145.445" height="64.806" x="263.993" y="204.43" fill="#3f007f" stroke="#fcf9f9" stroke-dasharray="null" stroke-linecap="null" stroke-linejoin="null" stroke-width="5"/><rect id="svg_11" width="120.671" height="39.447" x="80.189" y="215.701" fill="#3f007f" stroke="#fcf9f9" stroke-dasharray="null" stroke-linecap="null" stroke-linejoin="null" stroke-width="5"/><rect id="svg_6" width="104.688" height="64.806" x="170.493" y="204.43" fill="#3f007f" stroke="#fcf9f9" stroke-dasharray="null" stroke-linecap="null" stroke-linejoin="null" stroke-width="5"/><rect id="svg_7" width="80.714" height="10.566" x="237.621" y="224.858" fill="#3f007f" stroke="#fcf9f9" stroke-dasharray="null" stroke-linecap="null" stroke-linejoin="null" stroke-width="5"/><rect id="svg_12" width="210.176" height="67.623" x="328.324" y="195.273" fill="#3f007f" stroke="#fcf9f9" stroke-dasharray="null" stroke-linecap="null" stroke-linejoin="null" stroke-width="5"/><circle id="svg_15" cx="135.73" cy="277.689" r="21.562" fill="#aad4ff" stroke="#fcf9f9" stroke-dasharray="null" stroke-linecap="null" stroke-linejoin="null" stroke-width="5"/><rect id="svg_16" width="16.782" height="39.447" x="126.14" y="236.129" fill="#3f007f" stroke="#fcf9f9" stroke-dasharray="null" stroke-linecap="null" stroke-linejoin="null" stroke-width="5"/><path id="svg_18" fill="#3f007f" stroke="#fcf9f9" stroke-dasharray="null" stroke-linecap="null" stroke-linejoin="null" stroke-width="5" d="m79.55355,258.71875l-42.16589,-20.80397l41.74127,-21.45895l0.42461,42.26292l0.00001,0z"/><circle id="svg_19" cx="472.57" cy="263.248" r="42.296" fill="#aad4ff" stroke="#fcf9f9" stroke-dasharray="null" stroke-linecap="null" stroke-linejoin="null" stroke-width="5"/><circle id="svg_9" cx="339.912" cy="265.714" r="29.968" fill="#aad4ff" stroke="#fcf9f9" stroke-dasharray="null" stroke-linecap="null" stroke-linejoin="null" stroke-width="5"/></g></g><text id="svg_23" x="507.027" y="195.029" fill="#fff" stroke="#fcf9f9" stroke-dasharray="null" stroke-linecap="null" stroke-linejoin="null" stroke-width="0" font-family="serif" font-size="24" text-anchor="middle" transform="matrix(0.7021524310112,0,0,0.5223880410194397,101.98486916907132,107.94030272960663)" xml:space="preserve">cheng-Jun Wang</text></g><polygon id="svg_8" cx="101" cy="27" fill="#7f00ff" edge="0" orient="x" shape="regularPoly" sides="3" strokeWidth="5" strokecolor="#fcf9f9"/><polygon id="svg_14" cx="362" cy="85" fill="#7f00ff" edge="0" orient="x" shape="regularPoly" sides="3" strokeWidth="5" strokecolor="none"/></g></svg>