<?xml version="1.0" standalone="no"?>
<!DOCTYPE svg PUBLIC "-//W3C//DTD SVG 20010904//EN"
 "http://www.w3.org/TR/2001/REC-SVG-20010904/DTD/svg10.dtd">
<svg version="1.0" xmlns="http://www.w3.org/2000/svg"
 width="1615.000000pt" height="602.000000pt" 
 viewBox="-500 0 1615.000000 602.000000"
 preserveAspectRatio="xMidYMid meet">

<g transform="translate(0.000000,602.000000) scale(0.100000,-0.100000)"
fill="#000000" stroke="none">
<path d="M1633 5965 c-3 -9 2 -24 10 -33 15 -16 15 -21 -3 -50 -22 -36 -23
-36 -51 -22 -13 7 -19 21 -19 43 0 58 -12 58 -79 -4 -35 -33 -61 -62 -57 -66
3 -4 28 -1 55 6 44 11 53 10 76 -5 l26 -17 -71 -72 c-46 -46 -68 -75 -61 -80
15 -8 95 43 140 89 32 33 35 34 61 21 15 -8 46 -30 69 -49 l43 -36 39 28 c49
34 52 62 7 62 -31 0 -117 22 -138 35 -6 4 -3 16 7 29 16 21 20 22 38 10 29
-20 41 -17 64 15 29 40 19 57 -37 65 -26 3 -62 15 -80 26 -28 17 -33 18 -39 5z"/>
<path d="M2469 5909 c-30 -56 -58 -87 -105 -115 -15 -9 -16 -15 -7 -24 18 -20
111 14 154 57 l37 35 33 -23 c19 -13 44 -33 57 -44 l24 -20 34 37 c49 54 45
64 -27 72 -73 9 -89 14 -89 31 0 12 -58 55 -73 55 -3 0 -20 -27 -38 -61z"/>
<path d="M1950 5897 c0 -21 -8 -41 -20 -52 -29 -26 -26 -47 7 -43 20 2 29 -2
31 -15 3 -15 -2 -17 -37 -11 l-40 6 3 -38 c4 -39 4 -39 45 -36 38 2 41 0 41
-23 0 -27 -30 -45 -75 -45 -33 0 -39 -14 -20 -49 15 -30 15 -30 50 -15 45 19
45 19 45 -16 0 -27 -3 -30 -30 -30 -20 0 -30 -5 -30 -15 0 -16 24 -28 78 -38
l32 -6 0 84 c0 82 1 85 25 91 30 7 28 28 -3 32 -14 2 -22 11 -22 23 0 17 6 20
42 17 38 -3 43 -6 52 -36 8 -28 6 -35 -13 -48 -69 -49 -73 -91 -5 -55 44 24
54 26 54 10 0 -23 75 -179 87 -179 16 0 24 14 46 78 20 60 15 82 -13 57 -23
-21 -33 -15 -54 29 -22 46 -20 54 9 68 25 11 31 31 19 62 -8 20 -28 20 -44 1
-11 -13 -15 -13 -21 -3 -15 22 -10 28 21 28 23 0 30 5 30 19 0 37 -19 73 -35
67 -8 -3 -22 -9 -30 -12 -10 -4 -16 3 -21 23 -13 61 -15 63 -42 62 -15 -1 -47
8 -72 19 -25 12 -55 22 -67 22 -19 0 -23 -5 -23 -33z m129 -108 c-23 -15 -44
-5 -47 22 -2 19 3 28 20 36 21 9 24 7 32 -19 7 -22 6 -32 -5 -39z"/>
<path d="M3145 5918 c-2 -7 -5 -26 -7 -42 -2 -16 -8 -31 -14 -33 -7 -2 -9 8
-6 26 3 25 0 33 -22 42 -14 7 -28 10 -30 8 -3 -3 -12 -40 -21 -83 -16 -78 -33
-132 -39 -125 -1 2 0 40 4 84 4 44 6 83 3 88 -2 4 -26 7 -54 7 -27 0 -49 5
-49 10 0 6 -15 10 -34 10 l-33 0 -6 -137 c-3 -92 -11 -156 -23 -191 -9 -29
-14 -56 -10 -60 12 -11 55 49 70 98 7 25 18 45 25 44 6 -1 18 -2 26 -2 23 -3
19 -49 -5 -57 -11 -3 -20 -10 -20 -15 0 -15 39 -31 68 -28 29 3 39 26 41 96 1
41 4 44 39 42 4 -1 6 -12 4 -25 -3 -22 0 -25 27 -25 26 0 31 -4 31 -24 0 -30
-10 -37 -51 -38 -23 -1 -33 -7 -40 -26 -14 -36 -4 -55 23 -46 13 4 71 6 131 5
l107 -1 11 27 c16 43 7 50 -55 45 l-56 -4 0 36 c0 34 1 35 26 25 33 -12 34
-10 41 40 l6 41 -35 0 c-33 0 -34 2 -30 29 3 23 10 31 31 33 20 2 27 9 29 31
3 23 0 27 -23 27 -21 0 -25 4 -24 23 4 47 0 57 -26 57 -14 0 -28 -6 -30 -12z
m-201 -84 c23 -9 20 -34 -4 -34 -13 0 -20 7 -20 20 0 22 1 23 24 14z m186 -69
c0 -34 -2 -35 -36 -35 -35 0 -36 1 -22 23 8 12 18 28 22 35 15 26 36 13 36
-23z m-180 -31 c0 -8 -8 -14 -18 -14 -23 0 -32 8 -26 25 7 17 44 7 44 -11z"/>
<path d="M2176 5888 c-12 -45 -8 -49 36 -46 53 4 58 20 15 47 -43 26 -43 26
-51 -1z"/>
<path d="M2517 5809 c-3 -12 -3 -35 0 -52 3 -16 0 -67 -7 -113 -7 -46 -11 -87
-8 -90 9 -8 86 17 91 30 2 6 0 43 -4 81 -4 39 -5 87 -2 107 5 34 3 39 -21 48
-38 14 -43 13 -49 -11z"/>
<path d="M1558 5697 c-36 -39 -64 -75 -62 -79 3 -4 21 0 40 8 65 27 71 8 13
-41 -29 -25 -56 -45 -61 -45 -4 0 -8 -7 -8 -15 0 -8 5 -15 11 -15 14 0 89 52
113 79 11 11 23 21 28 21 5 0 21 14 35 30 14 17 28 28 31 25 4 -3 -28 -39 -71
-79 -98 -93 -105 -120 -20 -72 72 41 64 9 -16 -66 -56 -52 -69 -69 -57 -74 11
-4 40 14 86 51 57 47 73 55 85 45 11 -9 19 -8 39 7 29 21 34 48 9 57 -14 6
-12 12 15 39 39 40 42 67 8 67 -24 0 -51 30 -57 65 -2 10 -17 23 -34 28 -16 6
-34 16 -38 23 -4 8 -11 14 -15 14 -4 -1 -37 -33 -74 -73z m90 -7 c-13 -20 -28
-27 -28 -12 0 10 22 32 32 32 5 0 3 -9 -4 -20z m54 -122 c-6 -6 -15 -8 -19 -4
-4 4 -1 11 7 16 19 12 27 3 12 -12z"/>
<path d="M2498 5475 c-4 -4 -2 -20 4 -36 6 -17 7 -33 4 -37 -6 -6 -52 -6 -101
1 -17 2 -20 -4 -20 -38 l0 -40 53 3 c49 4 53 2 49 -15 -3 -10 -8 -29 -12 -43
-13 -47 -59 -145 -72 -153 -7 -4 -13 -17 -13 -27 0 -64 99 42 145 156 l21 53
34 -57 c19 -31 50 -78 70 -103 19 -26 40 -55 46 -65 9 -16 15 -14 62 21 59 45
68 72 23 73 -58 1 -133 54 -188 131 l-33 46 77 3 c43 2 80 8 84 14 6 9 1 76
-6 85 -1 2 -20 -6 -43 -17 -22 -11 -52 -20 -66 -20 -21 0 -25 5 -28 33 -3 30
-6 32 -43 35 -23 2 -44 0 -47 -3z"/>
<path d="M3148 5445 c-3 -3 -3 -26 -1 -50 6 -48 6 -47 -87 -57 -21 -3 -25 -8
-25 -33 0 -30 5 -32 38 -20 13 6 17 2 17 -15 0 -12 8 -44 17 -70 16 -45 16
-50 -1 -94 -10 -26 -29 -60 -43 -77 -17 -20 -22 -34 -16 -40 11 -11 79 52 89
84 9 29 20 20 45 -38 13 -30 27 -55 32 -55 12 0 81 45 95 63 12 14 14 58 2 48
-8 -7 -84 35 -104 58 -19 21 -19 23 5 114 9 35 12 37 49 37 39 0 40 1 40 34 0
39 -24 66 -42 48 -24 -24 -38 -13 -38 28 0 39 -1 40 -33 40 -19 0 -36 -2 -39
-5z m-2 -171 c-3 -9 -6 -21 -6 -27 0 -16 -20 14 -20 31 0 6 7 12 16 12 11 0
14 -5 10 -16z"/>
<path d="M2944 5383 c-1 -48 -44 -202 -81 -290 -7 -19 18 -16 34 5 8 9 23 35
34 57 l20 40 -5 -117 c-2 -65 -2 -118 1 -118 3 0 18 10 35 21 l30 22 -3 161
c-3 140 -1 164 14 186 17 25 23 65 10 73 -5 3 -26 8 -48 11 l-40 7 -1 -58z"/>
<path d="M1986 5353 c-14 -4 -17 -11 -12 -34 7 -35 -15 -49 -47 -30 -27 17
-38 3 -30 -43 6 -38 6 -38 44 -33 37 5 39 4 39 -22 0 -25 -6 -30 -51 -44 -28
-10 -58 -17 -65 -17 -19 0 -17 -17 6 -67 17 -39 40 -58 40 -34 0 6 18 31 40
56 l40 46 2 -35 c0 -20 1 -42 2 -48 1 -7 -11 -14 -26 -16 -29 -3 -38 -26 -14
-35 7 -3 35 -9 61 -13 l48 -7 -6 39 c-4 22 -9 75 -13 119 l-6 80 31 0 c25 0
31 -4 31 -22 0 -27 2 -28 40 -8 l29 15 6 -54 c10 -75 -1 -133 -26 -139 -33 -9
-22 -34 19 -41 77 -12 72 -21 65 120 -7 136 -4 144 46 144 22 0 23 2 17 47 -3
25 -8 48 -10 50 -2 3 -21 -7 -43 -21 -43 -28 -97 -36 -130 -18 -13 7 -34 10
-47 6 -22 -5 -25 -2 -28 28 -3 33 -15 41 -52 31z"/>
<path d="M1655 5301 c-3 -6 -3 -15 0 -21 3 -5 1 -19 -5 -30 -17 -31 -3 -42 31
-24 25 13 30 20 27 47 -2 24 -8 33 -25 35 -11 2 -24 -2 -28 -7z"/>
<path d="M3026 4849 c-3 -39 -4 -75 0 -80 8 -13 31 7 40 34 3 12 13 37 21 54
20 42 11 63 -25 63 -29 0 -29 -1 -36 -71z"/>
<path d="M2018 4854 c-2 -25 0 -48 4 -50 4 -3 32 2 63 10 46 12 55 12 55 1 0
-16 -18 -29 -40 -30 -12 0 -14 -13 -12 -70 4 -82 -9 -125 -37 -125 -25 0 -35
-15 -18 -28 21 -17 117 -25 122 -10 2 7 6 61 8 120 3 96 6 110 30 145 44 64
41 66 -105 77 l-66 5 -4 -45z"/>
<path d="M2484 4806 c-9 -25 25 -114 53 -136 38 -30 60 -6 27 31 -8 9 -23 38
-33 65 -20 51 -37 66 -47 40z"/>
<path d="M3005 4744 c-19 -19 -16 -43 7 -57 20 -13 48 6 48 34 0 28 -35 43
-55 23z"/>
<path d="M3276 4614 c-40 -52 -109 -128 -125 -138 -6 -4 -55 -14 -108 -22 -54
-8 -105 -16 -113 -19 -19 -6 -94 104 -105 153 -3 17 -10 32 -14 32 -11 0 -56
-69 -66 -100 -15 -51 -67 -130 -104 -159 -21 -17 -52 -56 -69 -88 -37 -70 -76
-216 -68 -258 8 -44 -41 -88 -116 -104 -37 -8 -58 -17 -58 -26 0 -11 6 -12 26
-5 41 16 77 13 70 -6 -3 -9 -6 -17 -6 -20 0 -2 -24 -16 -52 -31 -35 -18 -47
-28 -36 -31 9 -2 26 2 37 7 28 15 34 14 26 -6 -19 -50 -35 -193 -35 -316 l0
-139 -31 -29 c-30 -28 -31 -32 -25 -82 8 -61 33 -108 64 -122 12 -5 22 -14 22
-19 0 -5 13 -35 30 -67 l30 -59 -128 -2 c-161 -3 -195 -2 -312 10 -107 11
-102 14 -125 -66 -9 -29 -31 -86 -50 -127 -37 -82 -35 -81 -140 -74 -22 1 -58
3 -80 4 -88 4 -85 3 -85 34 0 16 -10 42 -23 58 -12 15 -28 41 -35 57 -9 20
-18 27 -31 23 -14 -3 -20 2 -25 23 -3 16 -25 65 -50 109 -36 65 -41 81 -28 81
62 0 252 22 275 31 38 16 34 53 -6 57 -23 3 -27 7 -22 23 7 22 -10 49 -31 49
-8 0 -22 -13 -32 -30 l-19 -30 -23 25 c-12 13 -25 23 -29 22 -3 -1 -27 6 -53
16 -34 13 -48 24 -48 38 0 25 27 24 35 -2 9 -28 66 -23 79 7 9 19 20 22 90 26
69 4 92 10 153 42 40 20 80 47 88 59 20 29 19 80 -2 99 -25 22 -195 68 -248
68 -43 0 -45 1 -45 29 0 20 -15 46 -47 85 -26 31 -51 56 -55 56 -16 0 -48 -41
-48 -60 0 -12 10 -34 22 -50 12 -16 19 -32 16 -35 -3 -3 -17 10 -32 30 -33 43
-63 46 -73 8 l-6 -28 -13 30 c-16 36 -18 95 -4 95 6 0 19 -9 31 -21 26 -26 49
-11 49 32 0 29 13 38 25 19 9 -15 25 -12 25 4 0 8 -8 21 -19 28 -10 7 -22 29
-26 48 -4 19 -13 42 -20 50 -7 8 -25 44 -40 79 -31 75 -66 133 -109 181 -17
19 -45 56 -61 82 -39 62 -63 61 -87 -5 -10 -27 -21 -85 -24 -130 -3 -45 -7
-83 -9 -85 -2 -2 -19 20 -38 50 -34 54 -137 158 -156 158 -5 0 -13 -4 -16 -10
-25 -40 -38 -397 -15 -424 6 -9 9 -19 6 -24 -2 -4 0 -69 5 -142 7 -107 7 -136
-3 -139 -30 -10 -143 -131 -182 -196 -133 -219 -210 -379 -221 -460 -3 -27
-12 -68 -20 -90 -13 -41 -24 -131 -30 -265 -2 -41 -7 -101 -10 -132 -4 -38 0
-81 10 -125 9 -38 18 -77 20 -87 2 -11 -9 -49 -25 -85 -29 -68 -60 -205 -60
-270 0 -22 -12 -60 -29 -92 -34 -62 -50 -140 -46 -213 4 -53 -10 -204 -21
-243 -11 -39 14 -26 46 25 16 26 36 68 44 93 11 38 62 155 72 167 4 6 58 -25
97 -56 21 -17 43 -33 50 -35 8 -3 4 -21 -15 -60 l-27 -56 16 -81 c14 -71 18
-80 38 -80 20 0 23 -6 28 -67 4 -38 7 -114 7 -170 0 -81 3 -103 14 -103 11 0
13 30 9 170 l-5 170 41 0 41 0 2 -163 c2 -104 7 -160 13 -157 6 3 10 67 10
162 -1 145 1 158 17 158 17 0 18 -14 18 -165 0 -95 4 -165 9 -165 17 0 20 32
18 145 -2 61 0 123 3 139 l5 29 95 -2 c52 -1 125 -4 162 -7 l68 -7 -46 -86
c-43 -82 -45 -89 -39 -143 4 -32 10 -58 13 -59 4 0 41 -2 82 -5 41 -2 107 -8
145 -13 39 -6 112 -13 162 -17 81 -5 93 -4 93 10 0 12 -12 16 -52 18 -77 3
-127 6 -278 20 l-135 13 -3 31 c-5 47 2 48 213 22 55 -6 142 -12 193 -12 77
-1 92 1 89 14 -2 12 -16 14 -72 12 -39 -2 -121 4 -183 12 -62 9 -140 16 -172
16 -33 0 -60 3 -60 7 0 21 136 278 166 314 35 42 74 109 74 128 0 19 190 414
203 419 4 2 7 11 7 20 1 10 11 33 23 52 12 20 31 50 42 68 16 25 27 32 51 32
18 0 38 8 48 19 10 11 30 21 44 23 15 2 31 12 37 24 6 12 16 29 23 37 35 41 2
141 -50 152 -36 8 -36 25 2 100 16 33 30 68 30 78 0 16 9 18 107 14 71 -2 108
-7 111 -15 2 -7 11 -19 19 -27 11 -11 12 -19 5 -28 -19 -22 -71 -168 -59 -164
6 2 26 39 43 83 31 76 33 79 65 79 21 1 45 -8 62 -22 42 -34 89 -9 107 56 8
29 6 47 -13 95 -28 75 -59 99 -189 142 -57 19 -108 36 -114 38 -8 3 -5 19 10
48 11 25 27 60 35 79 7 19 20 48 27 64 7 17 14 39 16 49 4 24 53 30 121 15 26
-6 139 -12 250 -13 197 -1 203 -2 234 -25 18 -13 63 -32 101 -41 64 -16 90
-16 323 -4 277 14 353 21 384 34 11 4 28 11 38 14 9 3 22 17 27 31 l9 25 178
2 c98 2 198 0 221 -4 24 -4 83 -10 130 -13 48 -3 121 -9 162 -14 42 -5 294 -7
578 -5 313 3 502 1 502 -5 0 -5 -13 -49 -29 -98 -15 -48 -39 -122 -51 -163
-20 -65 -45 -126 -56 -139 -2 -2 -22 13 -44 33 -23 21 -48 36 -57 34 -9 -2
-28 -38 -47 -86 -26 -68 -35 -84 -56 -88 -14 -3 -44 -12 -67 -20 -40 -15 -43
-14 -105 18 -34 18 -65 35 -68 38 -3 3 -21 6 -40 5 l-35 0 3 -90 c2 -87 1 -91
-26 -123 -25 -29 -31 -31 -42 -17 -14 17 -46 20 -55 5 -3 -6 5 -14 18 -19 34
-13 41 -27 14 -26 -30 0 -38 -19 -9 -23 12 -2 22 -4 22 -6 0 -1 -9 -27 -20
-59 -11 -31 -20 -67 -20 -81 0 -15 -13 -35 -35 -55 -34 -30 -45 -64 -25 -76 6
-3 10 -15 10 -26 0 -74 142 -173 280 -195 22 -4 37 -11 34 -16 -10 -16 -78 0
-175 41 -68 30 -100 50 -126 81 -48 56 -90 71 -209 77 -306 16 -518 -98 -501
-270 4 -45 10 -56 46 -88 24 -22 37 -40 31 -44 -22 -13 -40 -77 -34 -119 15
-102 111 -187 342 -301 39 -19 73 -43 76 -52 2 -10 8 -33 11 -52 16 -79 51
-136 106 -172 91 -60 144 -71 236 -47 33 8 50 19 62 39 10 19 24 29 39 29 13
0 33 5 44 11 20 11 20 9 14 -47 -4 -33 -16 -120 -27 -194 -30 -202 -33 -226
-22 -215 6 6 18 51 27 100 19 108 57 343 59 368 1 9 5 17 9 17 4 0 8 -32 8
-71 0 -44 4 -68 10 -64 6 3 10 23 10 43 0 63 12 112 26 112 11 0 14 -25 14
-122 0 -67 3 -119 6 -116 3 4 9 55 12 115 l7 108 62 0 c89 0 94 -9 113 -200 5
-55 10 -153 10 -217 0 -67 4 -119 10 -123 23 -14 1 457 -24 516 -6 14 3 17 61
22 46 3 70 1 76 -6 13 -22 30 -92 32 -142 2 -27 8 -86 14 -131 8 -57 8 -101 1
-154 -6 -40 -8 -75 -5 -78 22 -22 38 135 26 243 -6 50 -15 124 -20 165 -5 41
-12 83 -16 92 -4 11 -3 18 4 18 6 0 15 -10 20 -23 17 -45 51 -314 51 -404 0
-56 4 -93 10 -93 20 0 16 159 -6 294 -8 48 -13 90 -11 93 3 2 -2 34 -10 70 -7
37 -10 70 -6 73 5 4 27 12 50 17 l42 11 19 -47 c33 -77 40 -112 47 -216 13
-198 46 -287 140 -380 66 -65 108 -88 188 -105 71 -14 110 -3 157 45 27 27 34
43 33 71 -2 53 -11 58 -92 44 -40 -7 -78 -10 -85 -7 -9 4 -15 35 -20 99 -12
165 -45 364 -66 393 -4 6 -21 51 -38 101 -17 51 -46 122 -64 158 l-33 67 23
39 c26 46 29 108 7 170 -9 24 -14 60 -13 79 3 29 -1 37 -17 39 -19 3 -20 9
-17 103 l4 99 -41 81 c-29 57 -41 92 -41 123 0 30 -8 55 -25 80 l-26 38 17 79
c15 70 16 88 4 147 -7 37 -18 78 -26 92 -17 34 -101 114 -144 138 -45 24 -44
35 10 182 35 95 44 137 55 240 7 69 10 131 7 139 -4 10 -41 13 -186 11 -316
-3 -319 -3 -312 15 3 9 15 82 26 163 10 81 24 170 29 197 5 28 7 78 4 113 -4
43 -2 71 7 87 18 33 0 112 -47 219 -33 74 -35 81 -22 118 10 31 10 49 1 84
-32 118 -63 132 -467 210 -72 14 -98 24 -132 51 -23 18 -48 33 -56 33 -8 0
-20 6 -26 14 -17 20 -132 41 -141 26 -5 -9 -13 -9 -27 -2 -32 18 -230 52 -297
52 -56 0 -66 3 -79 23 -8 13 -40 35 -71 48 -40 17 -56 29 -56 44 -2 46 -37
199 -47 202 -6 2 -27 -17 -47 -43z m14 -92 l-11 -70 -37 9 c-20 4 -41 5 -46 1
-6 -3 -2 6 9 20 11 14 36 46 55 71 19 24 37 43 39 42 1 -2 -2 -35 -9 -73z
m-481 -84 c1 -36 0 -37 -49 -47 -28 -6 -53 -11 -55 -11 -3 0 9 22 25 49 17 26
30 51 30 55 0 4 7 23 17 44 l16 37 8 -45 c4 -25 8 -62 8 -82z m476 -14 c33 -8
77 -19 98 -25 57 -14 84 -36 117 -94 35 -61 37 -75 11 -75 -10 0 -29 -8 -42
-19 -13 -10 -35 -21 -49 -25 -24 -7 -24 -7 -5 9 11 9 29 22 40 30 19 13 19 14
2 14 -26 1 -79 -39 -73 -54 8 -22 -81 -29 -134 -11 -92 31 -126 30 -190 -9
-80 -48 -85 -57 -85 -136 0 -37 -3 -70 -6 -74 -4 -3 -30 -12 -58 -20 l-51 -13
0 84 c0 97 -9 108 -95 119 -47 6 -53 4 -97 -29 -54 -42 -101 -48 -118 -16 -25
47 54 249 95 242 9 -2 24 3 33 11 19 16 83 39 89 33 3 -2 0 -13 -6 -24 -29
-53 5 -57 46 -5 l30 36 18 -99 c17 -96 36 -144 55 -144 5 0 32 44 59 98 28 53
70 119 94 147 43 49 44 49 69 33 14 -9 31 -30 38 -47 8 -20 20 -31 32 -31 22
0 22 9 -6 73 -16 37 -16 37 6 37 13 0 50 -7 83 -16z m-287 -49 c-12 -24 -23
-43 -25 -41 -7 6 29 86 38 86 5 0 -1 -20 -13 -45z m-50 -12 c-5 -21 -12 -40
-15 -43 -6 -6 7 61 14 73 10 17 11 4 1 -30z m787 -73 c167 -35 185 -41 191
-67 9 -35 -16 -217 -43 -311 -12 -45 -23 -89 -23 -97 0 -31 -38 -55 -88 -55
-26 0 -52 -4 -57 -9 -6 -4 -39 -5 -75 -1 -73 8 -92 3 -65 -17 11 -8 45 -13 84
-13 50 0 62 -3 53 -12 -8 -8 -48 -12 -112 -12 -94 0 -120 -6 -84 -20 30 -12
165 -6 199 8 20 9 37 11 40 5 13 -21 12 -139 -2 -217 -14 -80 -12 -112 6 -83
10 15 30 135 34 196 l2 40 19 -39 c15 -31 17 -53 13 -106 -7 -85 -25 -179 -48
-255 -18 -61 -18 -72 0 -61 21 13 70 237 72 332 1 28 4 38 6 24 3 -14 10 -28
17 -32 26 -17 13 -336 -15 -354 -5 -3 -9 -14 -9 -25 0 -35 24 -15 37 30 17 60
36 236 30 282 l-5 38 26 -31 c42 -50 47 -125 16 -221 -15 -43 -34 -111 -43
-150 -16 -71 -17 -72 -49 -71 -17 0 -122 1 -233 2 -179 2 -200 4 -195 18 3 9
9 40 12 69 l7 53 -42 26 c-43 27 -78 32 -238 35 l-72 1 36 63 c19 34 43 76 53
92 9 17 29 75 44 130 15 55 32 113 37 129 5 16 9 48 9 72 0 56 7 72 40 89 l27
14 -18 -98 c-24 -130 -58 -274 -80 -340 -21 -60 -24 -80 -10 -66 24 26 116
374 125 476 2 27 10 45 21 52 16 9 17 4 13 -72 -3 -44 -1 -81 2 -81 11 0 20
55 20 115 0 53 0 54 64 109 35 31 67 68 71 83 5 23 9 25 40 19 19 -3 51 -9 70
-12 53 -10 43 11 -12 26 -27 6 -54 14 -61 16 -8 2 -12 12 -10 21 3 16 17 18
101 21 53 1 97 7 97 12 0 9 -120 16 -172 11 -13 -2 -17 5 -15 28 2 24 8 32 27
35 14 3 54 11 90 17 36 6 71 15 79 19 27 14 -5 17 -64 5 -134 -27 -135 -27
-135 -8 0 10 -6 27 -13 38 -8 11 -19 34 -24 50 -6 17 -14 38 -18 48 -7 17 -3
18 51 12 33 -3 100 -14 149 -25z m-2668 -57 c-3 -10 -5 -4 -5 12 0 17 2 24 5
18 2 -7 2 -21 0 -30z m2955 2 c9 -19 7 -42 -6 -105 -17 -75 -16 -104 0 -87 4
4 15 44 24 89 11 50 20 76 24 66 3 -10 8 -25 11 -33 7 -22 23 -18 28 8 l4 22
10 -24 c18 -44 -27 -258 -75 -351 -28 -55 -28 -55 -73 -53 -66 3 -89 11 -89
31 0 10 11 54 24 98 26 88 60 322 50 348 -5 13 0 16 25 16 24 0 34 -6 43 -25z
m-2917 -77 c2 -47 0 -64 -5 -48 -9 29 -13 136 -4 128 3 -4 7 -39 9 -80z m-230
-10 c25 -28 53 -66 62 -82 8 -17 23 -40 32 -50 9 -11 10 -16 4 -12 -31 17 -3
-49 31 -76 25 -20 20 -29 -10 -18 -15 6 -28 26 -39 60 -12 35 -21 50 -31 46
-9 -4 -18 12 -30 52 -10 31 -24 62 -31 68 -7 6 -13 16 -13 21 0 6 -10 18 -22
26 -13 9 -18 16 -11 16 6 1 32 -22 58 -51z m162 -15 c-2 -16 -4 -5 -4 22 0 28
2 40 4 28 2 -13 2 -35 0 -50z m140 -30 l0 -28 -12 28 c-6 16 -16 32 -22 35 -6
4 -14 18 -18 32 -7 24 -6 23 23 -7 18 -20 29 -42 29 -60z m-375 2 c3 -45 7
-59 17 -57 8 2 18 -3 22 -10 18 -28 17 1 -2 56 -30 93 -16 76 26 -29 38 -96
54 -122 56 -88 0 11 7 5 16 -17 8 -19 23 -46 33 -60 19 -28 24 -110 6 -110 -6
0 -19 27 -29 60 -10 34 -22 58 -27 55 -6 -4 -13 8 -16 25 -4 17 -11 33 -15 36
-17 10 -8 -51 15 -108 23 -56 23 -58 5 -74 -18 -16 -19 -16 -25 15 -9 41 -24
50 -25 14 l-1 -28 -10 29 c-7 20 -7 30 1 35 7 5 8 17 1 41 -6 19 -10 44 -9 55
0 11 8 -9 17 -44 9 -36 22 -66 28 -68 6 -2 1 33 -11 84 -19 78 -24 88 -43 85
-15 -2 -21 3 -24 20 -2 13 -9 22 -16 21 -13 -3 -16 38 -5 102 8 48 11 39 15
-40z m280 -70 c-7 -11 -21 63 -20 110 0 17 6 1 13 -35 7 -36 10 -69 7 -75z
m2122 119 c22 -9 20 -22 -10 -61 -35 -46 -75 -65 -132 -61 -43 3 -47 5 -50 32
-2 16 1 33 7 39 8 8 11 4 11 -15 0 -26 22 -53 33 -41 12 11 7 71 -5 76 -8 2 0
11 17 20 30 16 100 22 129 11z m291 -14 c3 -5 2 -10 -3 -10 -5 0 -20 -9 -33
-21 -13 -11 -25 -16 -27 -11 -3 11 -62 -8 -62 -19 0 -12 74 -6 90 7 8 7 27 16
43 19 38 10 36 -15 -4 -39 -36 -21 -172 -27 -191 -8 -17 17 -28 15 -28 -4 0
-21 58 -43 126 -49 46 -4 64 -1 93 17 l36 21 -39 -40 c-21 -23 -53 -49 -72
-59 -19 -10 -34 -22 -34 -26 0 -20 26 -16 76 12 31 17 58 29 61 26 8 -8 -64
-73 -122 -111 -27 -17 -92 -53 -142 -78 -76 -38 -108 -49 -175 -56 -51 -6 -84
-6 -86 0 -5 12 -32 12 -32 -1 0 -16 -34 -12 -81 10 -24 11 -64 20 -88 20 -35
0 -58 9 -112 45 -38 25 -69 47 -69 49 0 2 8 3 18 2 12 -1 17 6 16 23 -1 15 9
33 24 46 42 36 18 49 -38 20 -27 -14 -55 -25 -63 -25 -11 0 -37 51 -37 72 0 4
25 20 54 36 l55 30 26 -39 c31 -47 63 -57 116 -36 l40 16 -6 -31 c-9 -39 11
-77 50 -94 l30 -13 -33 -1 c-75 -1 -42 -62 44 -81 63 -14 118 -1 166 39 28 24
57 96 44 109 -4 4 -42 -5 -85 -20 -98 -35 -112 -35 -78 1 14 15 30 45 35 67
l8 40 64 6 c36 3 75 11 86 17 24 13 79 73 86 93 3 9 26 14 69 15 35 0 80 6 99
12 46 13 77 14 85 2z m-682 -57 c12 -7 8 -70 -7 -82 -7 -6 -31 -12 -51 -14
-34 -2 -41 2 -62 32 l-23 34 22 24 c20 22 29 24 68 18 25 -4 48 -9 53 -12z
m1428 -20 c1 -10 1 -23 0 -30 -1 -6 3 -14 8 -17 5 -3 6 -21 1 -41 -10 -44 7
-62 42 -43 32 18 34 23 47 89 7 33 16 59 22 59 18 0 26 -42 15 -81 -7 -28 -7
-42 2 -51 15 -15 38 4 60 50 31 63 74 72 53 11 -16 -47 1 -56 33 -17 14 18 34
43 43 55 l18 22 38 -22 c68 -38 97 -127 57 -167 -26 -26 -38 -19 -32 18 3 23
-1 30 -23 40 -35 16 -75 15 -75 -2 0 -8 15 -17 35 -20 26 -5 35 -12 35 -26 0
-31 -32 -40 -137 -39 -54 1 -166 -2 -250 -6 l-152 -8 21 69 c23 77 32 94 27
49 -2 -16 -8 -33 -14 -37 -6 -5 -6 -11 0 -17 21 -21 53 16 65 76 7 31 17 67
23 80 12 27 36 31 38 6z m-3231 -118 c0 -5 -5 -3 -10 5 -5 8 -10 20 -10 25 0
6 5 3 10 -5 5 -8 10 -19 10 -25z m1515 -5 c4 -6 -5 -10 -20 -10 -15 0 -24 4
-20 10 3 6 12 10 20 10 8 0 17 -4 20 -10z m-1705 -64 c-7 -7 -10 1 -9 25 0 32
1 33 10 10 6 -16 6 -28 -1 -35z m-33 12 c-3 -7 -5 -2 -5 12 0 14 2 19 5 13 2
-7 2 -19 0 -25z m512 3 c12 -8 12 -12 -2 -26 -10 -9 -17 -24 -17 -33 0 -10 -3
-12 -9 -6 -10 10 -3 74 8 74 3 0 12 -4 20 -9z m1586 -1 c3 -5 1 -10 -4 -10 -6
0 -11 5 -11 10 0 6 2 10 4 10 3 0 8 -4 11 -10z m-395 -14 c-38 -14 -46 -13
-35 3 3 6 21 11 38 10 l32 -1 -35 -12z m-1693 -28 c-3 -8 -6 -5 -6 6 -1 11 2
17 5 13 3 -3 4 -12 1 -19z m1737 -1 c-38 -11 -92 -52 -82 -63 5 -4 16 0 26 9
10 9 37 23 59 31 39 14 42 13 60 -6 10 -11 31 -27 48 -35 16 -9 43 -26 58 -39
16 -13 38 -24 50 -24 12 0 42 -11 67 -25 25 -14 110 -57 189 -96 l143 -70 -7
-37 c-10 -54 -84 -221 -119 -269 -17 -23 -38 -42 -47 -43 -21 0 -33 28 -18 46
15 18 3 49 -24 61 -22 10 -57 88 -57 126 0 34 -129 263 -158 281 -27 17 -17
-16 24 -74 55 -80 87 -147 107 -225 9 -33 19 -68 22 -78 6 -13 3 -16 -9 -11
-9 3 -16 10 -16 14 0 4 -15 25 -34 45 -53 58 -60 67 -98 136 -20 35 -46 73
-58 84 -11 10 -30 34 -41 52 -19 31 -39 43 -39 24 0 -4 23 -39 51 -77 28 -38
62 -89 75 -114 25 -46 63 -102 90 -131 13 -15 6 -16 -83 -17 -54 0 -119 -5
-144 -11 -26 -6 -76 -8 -112 -4 l-65 6 -5 41 c-11 85 7 352 29 425 13 45 18
51 57 65 62 22 71 24 82 18 5 -4 -4 -10 -21 -15z m-1310 -8 c5 -5 0 -16 -14
-27 -16 -13 -24 -32 -28 -70 -5 -58 3 -102 20 -102 7 0 9 18 5 59 -5 49 -3 63
12 82 16 20 22 22 42 12 l24 -12 -23 0 c-33 -1 -47 -44 -33 -101 7 -25 18 -50
26 -56 8 -6 15 -19 15 -28 0 -10 5 -14 10 -11 6 3 10 -4 10 -17 0 -26 33 -86
58 -105 10 -8 11 -13 3 -13 -6 0 -23 11 -37 25 -30 30 -34 31 -34 6 0 -10 11
-26 25 -35 71 -46 158 25 120 98 -21 41 -19 51 10 32 16 -11 47 -16 95 -16 39
0 85 -6 103 -13 18 -8 49 -17 70 -21 l38 -7 -21 -29 c-14 -20 -20 -41 -18 -62
3 -30 -1 -35 -46 -57 -45 -23 -58 -24 -196 -22 l-148 2 -36 -32 c-44 -38 -45
-59 -6 -92 37 -32 107 -52 230 -68 87 -12 92 -14 55 -20 -22 -4 -87 -11 -145
-14 -123 -8 -158 -23 -277 -114 l-76 -59 -16 21 c-9 12 -27 45 -39 72 l-23 50
20 78 c11 43 30 110 42 150 23 76 28 108 33 222 5 106 24 222 41 254 27 54 76
71 109 40z m1823 -1 c-3 -8 -6 -5 -6 6 -1 11 2 17 5 13 3 -3 4 -12 1 -19z
m-1714 -27 c-4 -4 -11 -10 -15 -15 -5 -5 -8 3 -8 19 0 24 2 26 15 15 9 -7 12
-16 8 -19z m1577 -7 c0 -8 -5 -12 -10 -9 -6 4 -8 11 -5 16 9 14 15 11 15 -7z
m105 -11 c-11 -7 -28 -13 -39 -13 -18 0 -16 3 9 19 33 20 59 16 30 -6z m1251
4 c-51 -38 -127 -109 -229 -211 -93 -94 -99 -98 -121 -86 -14 7 -32 32 -41 57
-10 24 -23 47 -31 50 -16 6 -64 85 -64 105 0 24 87 40 149 28 80 -15 86 -13
115 30 l26 39 92 4 c51 1 102 4 113 4 17 2 15 -2 -9 -20z m-2956 -33 c0 -8 -5
-12 -10 -9 -6 4 -8 11 -5 16 9 14 15 11 15 -7z m-473 -16 c-3 -8 -6 -5 -6 6
-1 11 2 17 5 13 3 -3 4 -12 1 -19z m2423 -45 c-1 -36 -21 -126 -54 -236 -26
-90 -89 -211 -134 -259 -35 -38 -49 -35 -22 5 12 17 33 57 46 87 14 30 36 78
49 105 12 28 26 61 30 75 4 14 12 31 17 37 6 7 8 18 6 25 -3 7 -1 47 3 88 6
52 13 79 26 87 25 19 33 16 33 -14z m-1825 -20 c5 -10 7 -26 6 -36 -2 -10 5
-27 15 -38 20 -22 8 -25 -19 -4 -19 13 -40 79 -29 89 10 11 20 6 27 -11z
m1745 -10 c0 -51 -10 -55 -73 -29 -74 30 -79 36 -31 37 21 1 50 5 64 9 39 12
40 12 40 -17z m-108 -40 c54 -26 98 -53 98 -60 0 -20 -10 -17 -141 46 -107 51
-119 60 -90 60 22 1 71 -17 133 -46z m1273 7 c-9 -16 -18 -30 -21 -30 -2 0 2
14 11 30 9 17 18 30 21 30 2 0 -2 -13 -11 -30z m208 -25 c-15 -30 -33 -55 -40
-55 -17 0 -103 -62 -103 -74 0 -6 -5 -4 -10 4 -9 12 -20 4 -66 -44 -48 -50
-54 -54 -39 -25 16 30 102 147 128 174 6 6 1 -7 -11 -27 -26 -46 -10 -63 23
-23 12 16 30 30 41 31 10 1 37 23 58 48 22 25 41 46 43 46 1 0 -9 -25 -24 -55z
m-3239 20 c-4 -8 -8 -15 -10 -15 -2 0 -4 7 -4 15 0 8 4 15 10 15 5 0 7 -7 4
-15z m66 -57 c0 -5 -4 -8 -10 -8 -5 0 -10 -11 -10 -25 0 -15 6 -25 15 -25 9 0
12 -6 9 -15 -9 -23 -28 -18 -47 14 -17 29 -23 82 -11 94 7 7 53 -24 54 -35z
m3191 -55 c-5 -10 -24 -31 -42 -48 -35 -32 -31 -20 10 32 28 35 48 45 32 16z
m188 -110 c1 -24 -5 -82 -13 -130 -8 -49 -22 -141 -32 -205 l-17 -118 -72 0
c-40 0 -93 -3 -117 -6 l-46 -6 -5 38 c-3 22 -9 64 -13 94 -4 30 -11 58 -16 61
-11 7 -27 73 -28 111 0 20 4 26 15 22 8 -4 15 -2 15 3 0 6 17 16 39 23 42 14
159 102 142 108 -5 2 -36 -15 -68 -37 -32 -23 -73 -44 -92 -47 -52 -11 -31 11
52 51 40 19 97 48 127 65 30 16 65 29 77 30 12 0 25 5 29 12 11 17 22 -18 23
-69z m-4016 -35 c7 -52 134 -303 191 -377 22 -30 65 -89 93 -130 51 -73 53
-78 47 -126 -8 -61 -130 -325 -151 -325 -8 0 -11 5 -8 10 4 6 2 16 -3 23 -5 7
-13 38 -17 71 -4 32 -13 77 -21 99 -10 30 -11 43 -3 53 23 28 -29 283 -76 373
-34 65 -69 106 -84 97 -9 -6 -7 -13 8 -28 54 -50 131 -282 131 -393 l-1 -40
-23 45 c-31 61 -93 157 -107 165 -26 17 -17 -10 31 -84 69 -107 106 -199 118
-291 6 -41 15 -93 21 -115 10 -38 9 -41 -17 -62 -34 -29 -46 -29 -85 1 -33 25
-122 55 -132 44 -12 -12 8 -38 26 -33 19 6 67 -14 106 -45 20 -15 21 -19 7
-24 -38 -15 -100 -6 -137 20 -21 14 -42 23 -45 19 -12 -12 58 -63 94 -70 19
-3 32 -10 29 -15 -13 -21 -218 -80 -278 -80 -12 0 -28 22 -50 70 -17 38 -38
70 -44 70 -17 0 -17 2 17 -76 28 -62 29 -66 9 -48 -38 34 -67 136 -40 146 5 2
5 34 0 73 -5 38 -6 79 -2 90 3 11 8 40 9 65 4 74 21 208 28 219 4 6 12 39 17
72 21 132 271 579 323 579 8 0 16 -17 19 -42z m697 -68 c0 -11 -7 -20 -15 -20
-27 0 -18 30 13 39 1 1 2 -8 2 -19z m1020 -30 c47 0 125 5 174 10 127 15 321
-18 300 -51 -3 -5 -62 -9 -130 -9 -96 0 -125 -3 -122 -12 3 -9 41 -15 123 -18
77 -3 120 -9 122 -17 6 -17 -18 -21 -197 -28 -91 -4 -190 -11 -220 -16 -30 -5
-74 -9 -98 -9 -37 0 -45 4 -62 33 -11 18 -20 50 -20 73 0 43 17 71 34 54 6 -5
48 -10 96 -10z m1931 -125 c6 -33 17 -79 25 -102 7 -23 11 -56 8 -73 l-6 -30
-92 -2 c-50 0 -98 -1 -106 0 -101 9 -150 16 -150 22 0 4 40 39 88 78 49 38
117 102 153 140 54 59 64 66 67 48 1 -11 7 -48 13 -81z m-3492 15 c17 -28 31
-54 31 -58 0 -8 -35 41 -56 81 -24 45 -8 30 25 -23z m661 30 c0 -11 -4 -20
-10 -20 -5 0 -10 9 -10 20 0 11 5 20 10 20 6 0 10 -9 10 -20z m1838 -72 c17
-11 32 -24 32 -29 0 -12 -17 -12 -25 1 -10 17 -85 12 -85 -5 0 -10 10 -15 34
-15 44 0 60 -20 52 -65 -7 -38 -17 -43 -36 -20 -15 18 -74 21 -68 3 3 -7 15
-15 29 -17 48 -6 46 -43 -3 -60 -56 -20 -216 -35 -493 -47 -165 -8 -249 12
-326 76 -50 43 -66 70 -28 49 20 -10 21 -9 17 9 -6 20 -5 21 20 4 25 -16 25
-16 20 6 -5 17 -3 22 7 19 7 -3 22 3 33 14 12 10 26 19 32 19 5 0 10 5 10 10
0 6 7 10 15 10 8 0 36 10 60 21 25 12 49 19 52 15 4 -3 -1 -6 -10 -6 -19 0
-24 -30 -4 -30 22 -1 -26 -30 -50 -30 -16 0 -27 -8 -33 -25 -6 -17 -20 -27
-40 -32 -19 -3 -29 -11 -26 -18 2 -7 -4 -15 -15 -18 -10 -3 -19 -10 -19 -15 0
-13 113 -3 118 10 2 4 12 8 23 8 10 0 19 5 19 10 0 6 6 10 13 10 17 0 75 28
82 40 3 5 20 12 37 15 18 4 40 18 51 31 21 28 33 30 53 10 12 -13 11 -18 -11
-40 -14 -14 -30 -26 -35 -26 -6 0 -10 -8 -10 -18 0 -9 -10 -22 -21 -27 -12 -6
-20 -14 -18 -20 5 -13 93 -9 97 4 2 6 9 11 16 11 6 0 23 14 36 30 76 93 120
124 143 101 8 -8 7 -11 -3 -11 -18 0 -60 -40 -60 -57 0 -7 -4 -13 -10 -13 -5
0 -10 -7 -10 -15 0 -19 21 -19 66 0 37 15 94 66 94 84 0 6 5 11 10 11 6 0 10
5 10 10 0 6 8 19 18 30 14 16 25 18 62 14 25 -3 60 -15 78 -26z m-2086 -75
c58 -67 105 -227 82 -281 -11 -28 -92 -142 -100 -142 -2 0 13 33 32 74 20 41
34 83 31 93 -3 13 -11 3 -26 -32 -12 -27 -31 -68 -41 -90 l-20 -40 0 37 c0 21
8 59 19 85 24 61 33 173 14 173 -9 0 -13 -16 -14 -52 0 -29 -6 -71 -13 -93
l-12 -40 -7 85 c-4 47 -13 108 -21 135 -8 28 -16 56 -17 64 -4 15 35 41 62 41
9 0 23 -8 31 -17z m-165 -100 c-3 -10 -5 -4 -5 12 0 17 2 24 5 18 2 -7 2 -21
0 -30z m72 -30 c25 -121 12 -538 -18 -617 -6 -16 -10 -30 -8 -33 2 -2 41 32
87 76 72 69 86 79 110 74 24 -4 148 7 247 23 37 6 37 7 -2 -81 -12 -27 -25
-60 -29 -71 -6 -21 -15 -22 -154 -29 -149 -8 -394 -2 -422 9 -23 10 -42 63
-24 70 19 7 113 201 119 246 13 99 19 135 35 195 11 39 22 100 26 137 4 37 10
65 14 63 4 -2 12 -30 19 -62z m3970 -139 c-10 -78 -47 -209 -83 -296 -11 -26
-14 -27 -26 -13 -12 14 -11 24 4 63 10 26 28 83 42 127 41 134 68 214 71 211
2 -1 -2 -43 -8 -92z m-3734 45 c12 -36 -3 -81 -59 -179 -30 -52 -52 -98 -49
-103 9 -15 29 14 87 124 30 59 57 104 60 101 37 -37 -94 -278 -206 -381 l-48
-44 0 54 c0 30 7 75 14 101 8 25 12 49 8 52 -3 4 19 32 50 64 31 31 72 79 93
107 32 43 36 54 31 87 -7 40 8 53 19 17z m548 -328 c-5 -3 -8 -26 -8 -50 0
-28 -5 -46 -13 -49 -11 -3 -12 0 -3 17 7 12 10 41 7 67 -5 41 -4 45 10 34 8
-7 11 -16 7 -19z m49 -101 c6 0 8 -3 5 -6 -14 -15 -34 17 -28 44 6 27 6 27 9
-5 2 -18 8 -33 14 -33z m-1095 -26 c9 -25 -25 -81 -90 -147 -32 -33 -55 -62
-52 -65 12 -12 59 26 103 84 26 35 50 63 55 64 17 1 4 -34 -37 -98 -50 -77
-163 -180 -208 -189 -15 -3 -31 -10 -34 -14 -7 -12 -51 -11 -76 2 -26 14 -136
97 -142 108 -7 10 61 31 100 31 40 1 135 41 187 80 23 17 71 50 107 73 51 33
64 47 63 65 -3 25 15 30 24 6z m3613 -9 c23 -61 23 -75 1 -75 -19 0 -21 6 -21
50 0 56 6 63 20 25z m-2485 5 c3 -5 1 -10 -4 -10 -6 0 -11 5 -11 10 0 6 2 10
4 10 3 0 8 -4 11 -10z m2835 -65 c-7 -8 -17 -15 -23 -15 -6 0 -2 7 9 15 25 19
30 19 14 0z m-3247 -133 c15 -15 27 -32 27 -38 0 -5 -8 1 -18 12 -9 12 -30 29
-47 37 -25 13 -26 16 -9 17 11 0 32 -13 47 -28z m-88 -32 c4 -7 -3 -8 -22 -4
-38 9 -42 14 -10 14 14 0 29 -5 32 -10z m2995 -30 c8 -14 8 -20 0 -20 -6 0
-13 7 -17 16 -3 8 -12 13 -19 10 -8 -3 -14 -1 -14 4 0 18 39 10 50 -10z
m-2921 -15 c17 10 13 -11 -4 -25 -18 -15 -17 -15 -34 25 -13 29 -12 29 8 11
11 -10 25 -15 30 -11z m2852 -6 c-9 -22 -10 -22 -10 -3 -1 11 2 24 6 27 12 12
14 0 4 -24z m-4118 -11 c12 -7 23 -13 25 -14 1 -1 -14 -35 -33 -76 -38 -79
-73 -224 -61 -254 10 -25 17 -12 22 42 10 107 82 281 112 269 8 -3 18 -5 23
-5 4 0 -7 -26 -26 -57 -43 -71 -84 -196 -92 -281 -5 -58 -8 -62 -27 -56 -38
11 -46 33 -46 128 0 101 19 202 49 271 22 50 22 50 54 33z m4247 2 c0 -5 -7
-7 -15 -4 -8 4 -15 8 -15 10 0 2 7 4 15 4 8 0 15 -4 15 -10z m-3043 -37 c-9
-9 -28 -13 -53 -11 -21 2 -32 6 -24 10 72 27 104 28 77 1z m3013 10 c0 -14
-15 -30 -38 -42 -27 -15 -27 -15 -36 22 -6 26 -5 27 34 27 22 0 40 -3 40 -7z
m-3235 -23 c0 -1 23 -4 50 -7 61 -6 69 -13 54 -46 -15 -33 -29 -33 -116 -5
-96 30 -121 53 -65 60 28 3 77 2 77 -2z m-760 -50 c7 0 18 -6 25 -14 6 -8 18
-12 25 -10 29 11 107 -78 152 -173 24 -51 49 -93 54 -93 13 0 5 27 -38 120
-23 52 -49 89 -85 122 -41 40 -47 48 -29 48 11 0 21 -4 21 -10 0 -5 13 -7 31
-3 24 5 36 0 60 -23 33 -31 68 -94 88 -156 13 -39 31 -51 31 -20 -1 31 -46
130 -80 173 l-34 42 64 -5 c38 -3 66 -10 68 -17 2 -7 21 -32 42 -56 47 -54 57
-81 37 -103 -7 -9 -28 -42 -46 -73 -33 -59 -48 -69 -113 -69 -33 0 -41 5 -63
40 l-26 41 -28 -17 c-22 -13 -35 -34 -52 -87 -13 -39 -29 -72 -35 -74 -6 -2
-26 7 -45 20 -51 34 -63 78 -64 242 -1 80 -7 152 -13 168 l-12 29 26 -21 c15
-12 32 -21 39 -21z m572 4 c12 -7 36 -44 54 -81 17 -38 38 -76 47 -85 31 -36
-3 -16 -38 22 -38 41 -65 49 -101 30 -16 -9 -21 -6 -31 17 -7 15 -23 45 -35
65 -27 44 -28 48 -10 48 8 0 41 -25 75 -56 73 -66 82 -55 15 18 -41 43 -44 50
-23 43 14 -4 35 -13 47 -21z m-727 -178 c-10 -88 -37 -197 -60 -246 -4 -8 -16
-15 -26 -15 -14 0 -20 8 -22 33 -2 24 1 32 12 32 12 0 16 10 16 41 0 58 28
175 58 244 34 75 39 55 22 -89z m4805 21 c-25 -54 -98 -124 -136 -132 -19 -4
-50 -15 -69 -25 -57 -28 -158 -44 -233 -36 -37 4 -67 12 -67 17 0 9 21 13 54
10 27 -2 172 26 231 46 68 22 145 74 192 127 42 49 53 46 28 -7z m59 11 c9
-44 -27 -117 -75 -151 -19 -14 -62 -35 -95 -45 -70 -24 -158 -36 -149 -22 3 6
13 10 20 10 8 0 29 6 47 14 18 8 49 20 67 27 65 24 161 132 161 181 0 30 17
20 24 -14z m-1063 -28 c20 -6 53 -25 73 -43 31 -26 39 -41 43 -78 3 -29 1 -49
-6 -53 -6 -4 -11 -19 -11 -35 0 -56 -103 -130 -223 -160 -74 -18 -235 -16
-256 3 -10 9 -25 16 -34 16 -9 0 -17 4 -17 8 0 5 -25 19 -56 31 -71 30 -88 56
-82 122 7 74 54 118 167 158 47 17 100 32 116 34 65 8 252 6 286 -3z m-3031
-20 c8 -5 11 -10 5 -10 -5 0 -17 5 -25 10 -8 5 -10 10 -5 10 6 0 17 -5 25 -10z
m-160 -24 c0 -8 -4 -18 -10 -21 -5 -3 -10 3 -10 14 0 12 5 21 10 21 6 0 10 -6
10 -14z m190 -6 c-6 -11 -12 -20 -14 -20 -2 0 -2 9 1 20 3 11 9 20 15 20 5 0
4 -9 -2 -20z m4097 -62 c30 -57 43 -102 43 -153 l0 -50 -19 36 c-11 19 -29 51
-40 70 -26 42 -29 129 -5 129 2 0 11 -15 21 -32z m-4554 -9 c4 -16 3 -18 -9
-8 -16 13 -19 29 -5 29 5 0 11 -9 14 -21z m3642 -6 c19 -9 35 -20 35 -25 0 -4
9 -17 20 -28 19 -19 18 -50 -3 -50 -6 0 -18 -7 -28 -16 -16 -14 -20 -14 -43 1
-34 23 -35 55 -1 55 32 0 34 27 3 32 -15 2 -24 11 -26 26 -4 26 -2 27 43 5z
m850 -40 c3 -21 17 -55 31 -76 31 -47 64 -131 64 -161 0 -14 -8 -26 -17 -30
-31 -10 -125 -64 -147 -84 -28 -25 -170 -122 -179 -122 -4 0 0 18 9 40 32 79
6 63 -39 -26 -28 -53 -64 -106 -89 -129 -23 -22 -37 -33 -30 -24 13 18 72 172
72 189 0 31 -21 -1 -49 -74 -21 -56 -53 -112 -94 -168 -52 -69 -76 -91 -142
-130 -84 -51 -108 -55 -221 -30 -106 23 -192 131 -215 271 -11 65 -10 79 6
127 19 56 56 94 112 114 24 9 22 4 -20 -34 -56 -53 -45 -73 13 -23 39 33 78
80 182 215 47 61 140 142 161 142 7 0 44 -9 82 -20 50 -14 103 -19 187 -20
106 0 123 3 196 31 44 16 86 37 92 45 19 22 27 17 35 -23z m-4998 -80 c-3 -10
-5 -4 -5 12 0 17 2 24 5 18 2 -7 2 -21 0 -30z m4183 -59 c17 -4 29 -10 28 -15
-2 -5 -23 -36 -47 -69 -34 -47 -50 -60 -70 -60 -15 0 -51 -16 -80 -36 -47 -30
-56 -33 -63 -20 -10 17 -53 22 -62 7 -7 -10 -57 0 -98 19 -29 14 -28 30 2 30
51 0 203 99 274 179 l19 21 33 -25 c18 -14 47 -28 64 -31z m-4225 -61 c-10
-19 -14 -21 -11 -8 2 11 8 38 12 60 l8 40 4 -32 c2 -18 -4 -45 -13 -60z m3609
-29 c3 -8 26 -24 51 -35 25 -11 45 -25 45 -32 0 -7 14 -20 30 -29 33 -19 53
-57 39 -72 -29 -32 10 -153 65 -199 19 -16 16 -16 -19 2 -40 20 -54 36 -87
103 -18 37 -18 38 2 58 24 24 26 57 4 88 -12 18 -25 22 -69 22 -54 0 -54 0
-64 -37 -6 -21 -11 -56 -11 -78 l0 -39 -50 49 c-54 54 -61 66 -30 58 29 -8 24
10 -10 35 -16 13 -30 30 -30 39 0 13 3 13 15 3 22 -18 31 -4 15 24 -21 40 -8
54 48 54 36 1 52 -4 56 -14z m248 -20 c-41 -18 -127 -23 -142 -8 -7 7 12 11
67 12 42 2 79 5 82 7 2 3 9 5 15 4 6 0 -4 -7 -22 -15z m-3573 -8 c36 -19 283
-40 469 -40 78 0 142 -2 142 -3 0 -2 -9 -22 -20 -44 l-21 -39 -107 6 c-59 3
-123 10 -142 14 -19 5 -98 11 -175 15 -137 6 -215 19 -215 37 0 12 29 68 36
68 3 0 18 -6 33 -14z m4895 -48 c3 -18 11 -61 18 -96 15 -79 5 -109 -47 -139
-22 -13 -43 -23 -46 -23 -4 0 3 18 14 40 20 41 14 71 -7 36 -36 -60 -55 -81
-95 -104 l-44 -26 37 54 c25 36 33 57 27 63 -6 6 -12 9 -14 6 -87 -132 -112
-151 -217 -168 -77 -13 -147 -14 -154 -3 -2 4 20 35 50 67 30 33 57 67 60 77
3 9 11 15 18 12 7 -3 32 10 57 29 100 75 226 156 253 163 16 4 37 15 47 25 27
27 36 24 43 -13z m-5204 14 c0 -5 -7 -17 -16 -28 -8 -10 -14 -14 -11 -9 2 6 7
18 10 28 7 17 17 23 17 9z m286 -72 c16 -5 94 -11 174 -14 80 -2 172 -9 205
-15 33 -6 92 -11 131 -12 l71 -2 -21 -39 -21 -39 -165 6 c-91 3 -183 10 -205
15 -22 5 -77 10 -121 10 l-81 0 -7 31 c-14 70 -10 76 40 59z m3722 2 c9 -7 8
-13 -7 -26 -11 -10 -32 -49 -47 -86 l-26 -68 26 -93 c29 -99 74 -193 113 -235
34 -37 22 -40 -32 -9 -54 32 -84 83 -116 202 -46 170 9 365 89 315z m-21 -129
c-3 -10 -5 -4 -5 12 0 17 2 24 5 18 2 -7 2 -21 0 -30z m13 -90 c15 -89 68
-185 122 -221 66 -44 101 -61 128 -62 14 0 32 -4 40 -10 11 -7 9 -11 -13 -19
-69 -26 -188 9 -195 57 -2 12 -9 22 -16 22 -42 0 -122 261 -89 293 10 11 10
11 23 -60z m1184 -2 c7 -10 -86 -47 -141 -56 l-38 -7 40 26 c22 14 51 26 65
26 14 0 32 5 40 10 19 12 27 12 34 1z m-59 -71 c-22 -10 -45 -19 -51 -19 -6
-1 -38 -13 -70 -27 -95 -42 -424 -74 -424 -41 0 28 19 33 80 23 41 -7 78 -6
118 1 150 29 233 46 297 62 90 24 99 24 50 1z m80 -17 c-37 -29 -180 -90 -255
-109 -52 -12 -114 -18 -200 -18 -126 -1 -232 5 -224 13 2 2 64 5 137 6 196 3
431 51 512 105 36 24 59 26 30 3z m49 -35 c8 -18 17 -44 21 -58 7 -24 7 -24
-12 -7 -24 21 -72 22 -120 2 -43 -18 -43 -18 -43 -2 0 8 22 24 50 37 27 13 57
32 67 42 21 24 22 23 37 -14z m-166 -93 c14 -31 16 -73 3 -59 -5 5 -16 26 -25
47 -12 29 -12 37 -2 37 7 0 18 -11 24 -25z m259 -170 c31 -132 63 -428 42
-390 -7 11 -20 27 -30 35 -35 29 -52 123 -55 310 -3 167 -3 173 13 140 8 -19
22 -62 30 -95z m-121 68 c16 -21 19 -119 4 -128 -5 -3 -10 -15 -10 -26 0 -10
-7 -19 -15 -19 -8 0 -15 -9 -15 -20 0 -13 -7 -20 -18 -20 -11 0 -22 -11 -28
-27 l-10 -28 -5 38 c-4 33 -3 37 17 37 27 0 39 14 55 67 11 39 10 45 -7 64
-10 11 -26 18 -36 16 -14 -4 -18 1 -18 25 0 16 4 27 9 23 5 -3 12 -1 16 5 10
16 47 12 61 -7z m53 -240 c1 -7 -5 -13 -13 -13 -29 0 -38 -126 -10 -137 10 -4
22 1 29 11 11 15 14 13 24 -15 6 -18 11 -33 11 -35 0 -1 -14 -6 -32 -9 -27 -6
-36 -3 -55 19 -24 29 -31 91 -14 124 5 9 18 36 28 58 14 32 20 38 25 25 4 -9
7 -22 7 -28z"/>
<path d="M3285 4373 c-3 -14 -15 -38 -26 -51 -20 -26 -25 -52 -10 -52 5 0 14
15 22 33 7 17 19 36 26 40 15 9 18 57 4 57 -5 0 -12 -12 -16 -27z"/>
<path d="M3319 4319 c-12 -17 -32 -41 -45 -54 -13 -13 -24 -30 -24 -37 0 -7
25 13 55 45 30 33 55 63 55 68 0 18 -19 8 -41 -22z"/>
<path d="M3375 4330 c-10 -11 -16 -22 -14 -25 7 -6 49 24 49 36 0 15 -16 10
-35 -11z"/>
<path d="M3425 4330 c-10 -11 -15 -23 -12 -27 8 -7 47 25 47 39 0 14 -16 9
-35 -12z"/>
<path d="M3047 4306 c-8 -17 -18 -45 -21 -62 -6 -28 -4 -32 20 -37 36 -6 50 9
58 63 6 41 4 46 -18 56 -23 11 -26 9 -39 -20z"/>
<path d="M3146 4316 c-3 -13 -9 -31 -12 -40 -3 -9 -2 -16 3 -16 11 0 33 44 33
65 0 24 -17 17 -24 -9z"/>
<path d="M2677 4303 c-10 -10 -8 -66 3 -83 7 -11 10 0 10 38 0 53 -1 57 -13
45z"/>
<path d="M3345 4270 c-10 -11 -16 -22 -14 -25 7 -6 49 24 49 36 0 15 -16 10
-35 -11z"/>
<path d="M2770 4251 c0 -42 17 -81 35 -81 17 0 28 35 23 76 -2 23 -9 30 -30
32 -25 3 -28 0 -28 -27z"/>
<path d="M3162 4268 c-14 -14 -16 -28 -2 -28 5 0 14 9 20 20 12 22 1 27 -18 8z"/>
<path d="M3440 4265 c0 -9 6 -12 15 -9 8 4 15 10 15 15 0 5 -7 9 -15 9 -8 0
-15 -7 -15 -15z"/>
<path d="M2627 4263 c-11 -10 -8 -63 3 -63 6 0 10 -6 10 -14 0 -17 18 -31 27
-22 4 3 -2 15 -12 26 -11 13 -16 30 -13 50 4 29 -1 37 -15 23z"/>
<path d="M2720 4245 c0 -15 34 -69 37 -59 5 16 -15 64 -27 64 -5 0 -10 -2 -10
-5z"/>
<path d="M3353 4228 c-28 -16 -44 -38 -29 -38 7 0 96 52 96 56 0 10 -38 0 -67
-18z"/>
<path d="M2700 4201 c0 -10 39 -59 40 -49 0 17 -20 58 -30 58 -5 0 -10 -4 -10
-9z"/>
<path d="M2840 4161 c0 -13 29 -35 37 -28 7 8 -15 37 -28 37 -5 0 -9 -4 -9 -9z"/>
<path d="M2570 4131 c0 -13 29 -35 37 -28 7 8 -15 37 -28 37 -5 0 -9 -4 -9 -9z"/>
<path d="M2636 4131 c-3 -5 1 -11 9 -15 9 -3 15 0 15 9 0 16 -16 20 -24 6z"/>
<path d="M2906 3995 c-8 -23 -8 -35 3 -35 13 0 23 32 13 42 -6 6 -12 3 -16 -7z"/>
<path d="M2870 3970 c0 -11 5 -20 10 -20 6 0 10 9 10 20 0 11 -4 20 -10 20 -5
0 -10 -9 -10 -20z"/>
<path d="M3029 3968 c-9 -19 -5 -58 5 -58 8 0 13 13 14 30 0 17 -4 30 -9 30
-5 0 -10 -1 -10 -2z"/>
<path d="M3060 3945 c0 -9 5 -15 11 -13 6 2 11 8 11 13 0 5 -5 11 -11 13 -6 2
-11 -4 -11 -13z"/>
<path d="M2773 3875 c0 -28 13 -31 40 -10 18 13 18 14 -2 24 -30 17 -38 13
-38 -14z"/>
<path d="M2712 4070 c-11 -29 -1 -65 19 -65 20 0 23 46 5 70 -14 20 -15 20
-24 -5z"/>
<path d="M2802 3657 c4 -19 158 -151 166 -143 6 7 -147 155 -161 156 -5 0 -7
-6 -5 -13z"/>
<path d="M1548 3529 c-24 -14 -23 -33 2 -26 10 3 20 1 22 -4 4 -11 91 -15 107
-5 19 12 3 23 -27 18 -18 -2 -35 2 -45 12 -18 18 -35 20 -59 5z"/>
<path d="M1201 3504 c-17 -14 -31 -33 -31 -42 0 -12 7 -9 28 11 15 15 33 27
40 27 14 0 16 16 3 24 -5 4 -23 -6 -40 -20z"/>
<path d="M1211 3454 c-31 -39 -14 -50 20 -13 33 36 34 39 15 39 -8 0 -24 -12
-35 -26z"/>
<path d="M1606 3443 c-12 -12 -6 -25 9 -19 9 3 15 0 15 -9 0 -8 5 -15 10 -15
6 0 10 6 10 13 0 14 -35 39 -44 30z"/>
<path d="M1660 3440 c0 -5 5 -10 10 -10 6 0 10 5 10 10 0 6 -4 10 -10 10 -5 0
-10 -4 -10 -10z"/>
<path d="M1580 3395 c0 -9 5 -15 11 -13 6 2 11 8 11 13 0 5 -5 11 -11 13 -6 2
-11 -4 -11 -13z"/>
<path d="M1267 3373 c-65 -34 -100 -139 -59 -176 18 -16 42 -23 42 -12 0 3 -9
19 -21 34 -21 29 -21 29 -2 72 15 33 30 49 61 64 23 11 42 23 42 28 0 11 -32
6 -63 -10z"/>
<path d="M1187 3360 c-53 -42 -86 -170 -45 -178 15 -3 17 3 12 47 -4 50 -3 52
41 96 25 25 45 48 45 50 0 12 -30 3 -53 -15z"/>
<path d="M4535 3314 c-27 -18 -60 -34 -72 -34 -14 0 -23 -6 -23 -15 0 -28 45
-16 109 29 78 55 79 56 55 55 -10 0 -41 -16 -69 -35z"/>
<path d="M4526 3191 c-36 -54 -66 -102 -66 -106 0 -18 23 6 74 78 69 96 79
114 67 122 -5 3 -39 -39 -75 -94z"/>
<path d="M4536 3124 c-35 -46 -43 -64 -28 -64 10 1 76 100 69 106 -3 3 -21
-16 -41 -42z"/>
<path d="M4535 3050 c-16 -16 -26 -32 -22 -36 8 -8 67 44 67 58 0 15 -15 7
-45 -22z"/>
<path d="M3878 1742 c-42 -20 -86 -46 -98 -57 -26 -23 -54 -74 -46 -83 3 -3 1
-11 -5 -18 -17 -21 -3 -44 27 -44 14 0 33 -9 42 -21 17 -20 61 -34 167 -50
143 -23 218 1 299 93 51 58 55 81 26 131 -37 62 -106 84 -235 76 -11 -1 -38 1
-60 4 -33 5 -53 0 -117 -31z m120 -3 c-7 -5 -21 -9 -30 -9 -9 0 -23 -6 -30
-13 -13 -13 -76 -47 -86 -47 -16 0 49 55 81 70 39 18 93 16 65 -1z m130 -12
c-11 -19 -13 -20 -16 -4 -2 9 -11 17 -20 18 -10 1 -7 4 8 8 34 11 42 4 28 -22z
m-39 -11 c-2 -2 -17 -6 -34 -10 -22 -5 -26 -4 -15 4 14 9 59 15 49 6z m50 -30
c-22 -20 -219 -136 -230 -136 -7 0 6 12 30 25 24 14 78 48 119 76 41 27 77 47
80 44 3 -3 3 -7 1 -9z m-114 -31 c-32 -26 -145 -89 -145 -81 0 8 153 106 165
106 5 0 -3 -11 -20 -25z m188 1 c-21 -37 -190 -156 -223 -156 -18 0 -10 17 14
28 13 6 41 25 61 44 38 33 133 96 148 97 4 1 4 -5 0 -13z m32 -8 c-35 -43
-145 -145 -150 -139 -5 5 153 159 164 161 2 0 -4 -10 -14 -22z m-355 9 c0 -8
-132 -99 -136 -94 -3 3 23 26 57 51 55 41 79 53 79 43z m35 -21 c-37 -30 -85
-59 -85 -52 0 6 102 76 110 76 3 0 -8 -11 -25 -24z m214 20 c-2 -2 -33 -26
-69 -53 -71 -54 -102 -73 -121 -73 -6 0 33 29 87 65 85 56 119 76 103 61z m75
-107 c-10 -11 -28 -25 -39 -31 -11 -5 -4 4 15 21 41 36 51 40 24 10z m-373
-12 c-1 -12 -15 -9 -19 4 -3 6 1 10 8 8 6 -3 11 -8 11 -12z"/>
<path d="M4277 1156 c-7 -18 16 -96 40 -137 37 -63 209 -151 263 -134 34 11
22 25 -20 25 -43 0 -120 34 -179 79 -38 28 -81 110 -81 154 0 29 -14 37 -23
13z"/>
<path d="M4460 1060 c0 -28 151 -52 200 -32 21 9 16 11 -36 11 -33 1 -83 8
-110 16 -59 18 -54 17 -54 5z"/>
<path d="M3603 2908 c-5 -7 -18 -33 -28 -58 -9 -25 -19 -51 -22 -57 -3 -7 -1
-13 5 -13 11 0 68 128 60 135 -3 3 -10 0 -15 -7z"/>
<path d="M1979 2883 c-34 -86 -29 -117 6 -36 11 26 22 51 23 55 2 4 -1 8 -7 8
-7 0 -16 -12 -22 -27z"/>
<path d="M4930 2881 c-19 -48 -7 -56 18 -12 18 32 20 41 9 41 -8 0 -20 -13
-27 -29z"/>
<path d="M2149 2843 c-14 -38 -23 -83 -15 -83 6 0 27 47 40 88 11 33 -13 27
-25 -5z"/>
<path d="M3672 2840 c-12 -19 -22 -38 -22 -42 0 -10 -65 -153 -92 -203 -24
-44 -61 -158 -49 -150 5 2 16 26 26 52 10 26 51 117 92 202 69 146 92 219 45
141z"/>
<path d="M2270 2835 c-5 -13 -25 -63 -45 -111 -20 -48 -35 -94 -33 -103 2 -8
24 34 50 94 63 147 62 145 49 145 -6 0 -16 -11 -21 -25z"/>
<path d="M4802 2847 c-11 -13 -31 -61 -37 -87 -2 -8 -7 -24 -11 -34 -5 -12 -4
-17 3 -13 5 4 18 28 28 54 10 26 25 58 33 71 15 23 2 31 -16 9z"/>
<path d="M3412 2837 c-6 -6 -19 -35 -30 -62 -11 -28 -31 -75 -46 -105 -14 -30
-39 -89 -56 -130 -17 -41 -34 -81 -37 -87 -3 -7 -1 -13 3 -13 10 0 26 34 112
230 75 170 87 207 54 167z"/>
<path d="M4300 2824 c0 -14 3 -14 15 -4 8 7 15 14 15 16 0 2 -7 4 -15 4 -8 0
-15 -7 -15 -16z"/>
<path d="M4589 2795 c-29 -66 -18 -77 14 -15 31 59 31 60 16 60 -5 0 -19 -20
-30 -45z"/>
<path d="M2448 2816 c-38 -20 -122 -104 -141 -141 -8 -17 -21 -58 -27 -92 -12
-59 -11 -65 24 -168 20 -59 36 -110 36 -114 0 -4 -29 -7 -64 -8 -46 0 -79 -8
-120 -26 -53 -25 -56 -28 -56 -63 0 -41 37 -98 69 -109 13 -4 21 -17 23 -37 2
-27 9 -33 36 -40 19 -5 55 -8 80 -6 43 3 47 6 50 30 2 17 19 39 46 62 31 25
47 48 57 80 14 47 27 55 84 56 43 0 49 7 84 88 83 190 92 331 24 398 -18 19
-42 34 -53 34 -10 0 -22 9 -25 20 -16 49 -71 65 -127 36z m75 -33 c7 -6 -11
-33 -22 -33 -4 0 -7 9 -7 20 0 19 16 27 29 13z m-69 -42 c-2 -3 -12 3 -22 13
-16 17 -16 18 5 5 12 -7 20 -15 17 -18z m96 -50 c0 -5 -7 -12 -16 -15 -23 -9
-154 -7 -154 2 0 4 27 5 59 4 33 -2 68 1 78 7 22 13 33 14 33 2z m65 -79 c-22
-19 -150 -44 -132 -26 7 7 102 32 127 33 8 1 10 -2 5 -7z m-162 -29 c-7 -2
-19 -2 -25 0 -7 3 -2 5 12 5 14 0 19 -2 13 -5z m64 -65 c-6 -4 -37 -7 -67 -7
-34 0 -48 3 -36 8 25 10 119 9 103 -1z m13 -98 c-8 -5 -28 -9 -45 -9 -30 2
-30 2 5 9 51 11 57 11 40 0z m69 -87 c-10 -21 -19 -42 -19 -49 0 -26 -100 -31
-156 -8 -45 19 -53 29 -47 55 5 17 16 19 92 20 47 1 97 5 111 9 14 4 28 8 31
9 4 1 -2 -16 -12 -36z m-191 -83 c37 -22 42 -54 12 -70 -16 -8 -20 -8 -20 3 0
28 -95 35 -178 13 -45 -12 -54 -12 -67 0 -30 30 6 54 100 67 75 10 121 6 153
-13z m-58 -72 c30 -10 32 -12 14 -19 -25 -10 -127 -11 -151 -2 -14 5 -7 10 27
19 59 16 71 16 110 2z m-13 -123 c-4 -12 -71 -19 -104 -10 -42 10 -16 22 47
21 35 0 59 -5 57 -11z"/>
<path d="M4072 2818 c-17 -21 -104 -209 -99 -214 5 -6 51 73 92 159 26 55 30
82 7 55z"/>
<path d="M4376 2763 c-16 -38 -54 -122 -84 -188 -30 -66 -59 -131 -64 -145 -6
-14 -17 -38 -25 -53 -8 -16 -12 -31 -9 -34 5 -6 86 152 138 272 17 39 44 98
59 133 30 65 34 82 21 82 -4 0 -21 -30 -36 -67z"/>
<path d="M2947 2786 c-78 -26 -99 -48 -91 -91 8 -37 41 -82 65 -88 12 -3 19
-14 19 -31 0 -32 21 -38 110 -34 64 3 65 3 76 37 6 19 18 39 27 46 32 24 77
88 77 111 0 27 -22 41 -95 60 -70 19 -110 17 -188 -10z m226 -32 c30 -16 33
-24 16 -41 -9 -9 -16 -7 -28 9 -28 34 -98 36 -166 4 -54 -26 -58 -26 -82 -11
-29 19 -26 24 30 46 50 19 187 14 230 -7z m-29 -54 c7 -7 -17 -10 -74 -10 -46
0 -81 2 -78 5 2 3 22 11 44 18 39 14 87 8 108 -13z m-104 -68 c66 3 75 1 57
-9 -43 -24 -151 -11 -187 24 -11 10 -6 9 18 -3 25 -12 53 -15 112 -12z m57
-57 c-4 -12 -70 -19 -104 -11 -43 11 -24 21 42 21 41 1 64 -3 62 -10z"/>
<path d="M3453 2658 c-15 -24 -82 -192 -78 -196 4 -4 64 112 90 176 13 31 5
45 -12 20z"/>
<path d="M4243 2648 c-20 -25 -44 -80 -40 -91 2 -7 16 12 31 41 26 51 31 77 9
50z"/>
<path d="M2828 2573 c-28 -45 -148 -291 -148 -304 0 -5 -14 -31 -31 -59 -17
-28 -29 -53 -26 -56 7 -8 54 77 149 270 84 170 107 233 56 149z"/>
<path d="M3630 2505 c-6 -19 -10 -43 -8 -52 2 -11 10 0 20 29 9 26 13 50 8 53
-5 3 -14 -11 -20 -30z"/>
<path d="M3056 2457 c-28 -36 -52 -95 -43 -104 3 -3 22 27 41 66 20 39 34 71
32 71 -3 0 -16 -15 -30 -33z"/>
<path d="M4347 2453 c-4 -3 -7 -15 -7 -25 0 -11 -9 -36 -20 -56 -11 -20 -32
-64 -46 -97 -15 -33 -29 -63 -31 -67 -2 -5 0 -8 5 -8 9 0 93 172 111 228 9 29
4 41 -12 25z"/>
<path d="M2950 2447 c0 -1 -9 -26 -19 -55 -11 -28 -17 -52 -15 -52 4 0 54 96
54 105 0 3 -4 5 -10 5 -5 0 -10 -1 -10 -3z"/>
<path d="M3350 2429 c0 -5 5 -7 10 -4 6 3 10 8 10 11 0 2 -4 4 -10 4 -5 0 -10
-5 -10 -11z"/>
<path d="M3226 2413 c-6 -14 -5 -15 5 -6 7 7 10 15 7 18 -3 3 -9 -2 -12 -12z"/>
<path d="M3611 2414 c0 -11 3 -14 6 -6 3 7 2 16 -1 19 -3 4 -6 -2 -5 -13z"/>
<path d="M2996 2325 c-3 -8 -1 -15 4 -15 6 0 10 7 10 15 0 8 -2 15 -4 15 -2 0
-6 -7 -10 -15z"/>
<path d="M1770 2288 c-15 -42 -22 -78 -15 -78 5 0 27 50 39 88 12 35 -11 25
-24 -10z"/>
<path d="M2778 2191 c-20 -42 -50 -105 -66 -141 -16 -36 -41 -90 -54 -120 -33
-73 -39 -90 -30 -90 4 0 19 26 34 58 136 296 165 362 160 366 -4 2 -24 -31
-44 -73z"/>
<path d="M1972 2223 c-12 -23 -25 -83 -18 -83 4 0 46 87 46 96 0 11 -21 1 -28
-13z"/>
<path d="M3640 2199 c0 -5 5 -7 10 -4 6 3 10 8 10 11 0 2 -4 4 -10 4 -5 0 -10
-5 -10 -11z"/>
<path d="M2021 2138 c-27 -58 -61 -161 -61 -184 0 -34 19 -10 30 39 7 28 26
81 41 116 30 67 34 81 21 81 -4 0 -18 -24 -31 -52z"/>
<path d="M2879 2136 c-25 -41 -45 -96 -34 -96 8 0 66 121 63 130 -2 4 -15 -11
-29 -34z"/>
<path d="M2541 2160 c-18 -11 -171 -352 -163 -364 5 -9 86 154 139 279 14 33
30 66 35 73 14 16 7 24 -11 12z"/>
<path d="M3044 2162 c-17 -12 -63 -122 -50 -122 6 0 67 122 63 126 -1 2 -7 0
-13 -4z"/>
<path d="M3609 2143 c-19 -54 -19 -58 0 -33 23 29 33 60 20 60 -5 0 -14 -12
-20 -27z"/>
<path d="M2090 1990 c-6 -12 -10 -33 -8 -48 3 -25 4 -24 20 15 17 44 8 70 -12
33z"/>
<path d="M1800 1962 c0 -5 16 -23 35 -41 20 -18 38 -45 42 -61 3 -16 12 -35
19 -41 12 -9 14 -3 14 36 0 42 -4 51 -37 81 -34 32 -73 45 -73 26z"/>
<path d="M1692 1933 c-36 -72 -67 -198 -33 -136 23 43 59 153 51 153 -5 0 -13
-8 -18 -17z"/>
<path d="M2147 1893 c-21 -42 -30 -73 -19 -73 11 0 47 89 39 97 -3 2 -12 -8
-20 -24z"/>
<path d="M1500 1765 c-34 -80 -59 -151 -57 -158 3 -7 14 8 25 33 106 237 119
270 107 270 -7 0 -40 -65 -75 -145z"/>
<path d="M2247 1883 c-6 -21 -7 -87 -2 -81 10 9 22 89 15 93 -5 3 -11 -3 -13
-12z"/>
<path d="M2146 1631 c-9 -44 -28 -95 -42 -116 -34 -50 -16 -70 20 -23 14 18
39 50 56 72 l30 39 1 -69 c1 -38 2 -103 3 -144 l1 -75 -32 -3 c-18 -2 -33 -9
-33 -16 0 -11 90 -46 120 -46 10 0 11 35 5 170 -7 153 -6 170 9 170 19 0 21
-35 6 -75 -6 -15 -8 -31 -4 -36 6 -11 44 7 44 22 0 5 9 22 20 37 11 15 23 42
26 60 7 36 11 35 -94 33 -58 -1 -63 1 -57 18 4 14 -3 25 -24 40 -16 12 -31 21
-33 21 -3 0 -12 -36 -22 -79z"/>
<path d="M2031 1657 c-5 -12 -21 -61 -36 -109 -14 -48 -35 -98 -46 -112 -38
-48 -16 -64 26 -18 l26 27 -2 -97 c-3 -92 4 -126 19 -102 4 6 21 16 37 21 34
11 34 12 11 126 -16 78 -11 151 12 166 14 9 32 48 32 68 0 12 -13 26 -35 36
-35 17 -36 16 -44 -6z"/>
<path d="M2520 1656 c-16 -42 -3 -59 39 -51 20 3 44 8 54 11 23 7 23 -22 0
-35 -15 -8 -17 -26 -18 -113 l0 -103 -40 -3 c-76 -6 -61 -30 39 -62 35 -11 41
-11 53 6 7 10 13 41 13 70 0 29 5 77 11 105 10 44 9 54 -3 63 -13 10 -12 16 7
44 12 17 25 29 28 26 3 -4 12 5 18 20 7 14 10 28 8 30 -2 2 -48 7 -101 11
l-98 7 -10 -26z"/>
<path d="M1602 1648 c-7 -7 -12 -18 -12 -25 0 -28 -90 -192 -119 -216 -17 -14
-31 -28 -31 -31 0 -14 36 -4 64 17 61 46 59 48 54 -47 -4 -79 -3 -88 15 -98
36 -19 42 4 42 151 0 135 0 138 28 170 31 38 36 71 9 71 -10 0 -22 5 -28 10
-7 7 -14 6 -22 -2z"/>
<path d="M3155 1641 c-27 -3 -80 -6 -117 -5 -70 1 -81 -6 -68 -41 6 -18 16
-20 116 -21 60 0 116 -2 124 -5 11 -3 15 5 15 35 0 45 -1 45 -70 37z"/>
<path d="M1747 1634 c-4 -4 -7 -38 -7 -76 l0 -68 -45 0 c-51 0 -61 -12 -45
-54 9 -25 14 -28 50 -24 l40 4 0 -99 0 -98 42 5 c51 6 60 19 40 60 -9 17 -18
57 -20 89 l-4 57 45 0 c46 0 57 10 57 51 0 26 -20 33 -64 21 l-36 -10 0 69 c0
38 -4 69 -9 69 -5 0 -16 2 -23 5 -8 3 -17 2 -21 -1z"/>
<path d="M3555 1605 c-3 -11 -11 -31 -17 -45 -40 -98 -48 -164 -10 -78 29 66
44 117 39 131 -3 7 -7 4 -12 -8z"/>
<path d="M1384 1513 c-42 -98 -77 -167 -94 -188 -20 -24 -56 -88 -116 -205
-24 -47 -54 -97 -66 -112 -12 -15 -19 -31 -15 -34 14 -14 49 33 97 130 60 122
89 174 115 207 11 14 35 59 54 100 19 41 42 91 53 111 12 24 15 39 8 43 -6 4
-21 -18 -36 -52z"/>
<path d="M2973 1513 c-3 -6 0 -21 7 -32 9 -18 20 -21 73 -21 34 -1 86 -2 114
-3 56 -3 64 4 56 44 -4 24 -5 24 -125 24 -83 0 -122 -4 -125 -12z"/>
<path d="M2135 1458 c4 -23 0 -45 -15 -73 -11 -21 -16 -43 -12 -47 13 -13 73
45 86 82 18 53 11 70 -30 70 -34 0 -35 -1 -29 -32z"/>
<path d="M2288 1454 c-5 -5 36 -111 47 -123 2 -2 17 7 34 20 39 31 40 56 1 64
-17 4 -35 15 -40 26 -10 18 -31 25 -42 13z"/>
<path d="M3268 1428 c-53 -28 -210 -35 -298 -14 -36 8 -68 12 -71 8 -4 -4 -2
-23 4 -42 l12 -35 114 3 c62 1 147 -2 189 -8 43 -6 79 -7 84 -2 5 5 8 32 6 59
l-3 50 -37 -19z"/>
<path d="M3575 1390 c-10 -22 -16 -42 -13 -45 3 -3 13 13 23 35 10 22 16 42
13 45 -3 3 -13 -13 -23 -35z"/>
<path d="M1435 1203 c-36 -76 -73 -152 -82 -169 -9 -17 -13 -37 -11 -45 4 -11
178 328 178 347 0 2 -4 4 -10 4 -5 0 -39 -62 -75 -137z"/>
<path d="M3034 1231 c-6 -26 -10 -30 -30 -25 -32 8 -52 -10 -46 -41 4 -21 10
-25 43 -25 21 0 40 -4 43 -9 10 -16 -5 -41 -25 -41 -10 0 -19 -7 -19 -15 0 -8
5 -15 10 -15 6 0 10 -18 10 -40 0 -26 -5 -40 -13 -40 -9 0 -12 11 -9 34 3 28
0 34 -20 39 -12 4 -28 7 -34 7 -13 0 -14 -133 -1 -142 6 -3 26 -4 46 -1 25 4
33 2 26 -5 -5 -6 -30 -12 -55 -14 -41 -3 -45 -6 -48 -30 -2 -20 1 -28 12 -28
24 0 19 -32 -10 -75 -20 -30 -23 -40 -12 -46 33 -21 52 -1 73 80 14 58 41 71
31 15 -10 -51 -40 -110 -82 -157 -19 -20 -34 -42 -34 -47 0 -14 32 -12 53 5
23 16 117 164 117 182 0 7 4 13 10 13 5 0 10 -33 12 -72 l3 -73 83 -3 82 -3 0
38 c0 43 16 78 24 53 2 -8 14 -47 27 -87 21 -68 39 -91 60 -78 16 11 79 112
79 129 0 21 -6 20 -37 -4 -14 -11 -29 -20 -32 -20 -12 0 -40 68 -47 111 -6 34
-3 45 23 77 46 58 47 61 27 98 -23 42 -37 39 -45 -10 -10 -62 -26 -64 -32 -4
-6 62 -1 73 33 73 21 0 25 5 25 28 -1 15 3 27 7 27 4 0 8 -7 8 -15 0 -22 37
-18 50 4 15 29 13 54 -4 48 -9 -4 -21 5 -31 20 -15 22 -19 24 -32 10 -11 -11
-12 -19 -4 -35 9 -17 8 -19 -8 -15 -10 3 -22 0 -26 -7 -5 -8 -10 -8 -21 1 -12
10 -12 13 0 23 16 13 29 73 17 80 -4 3 -17 -1 -27 -9 -10 -8 -31 -15 -46 -15
-26 0 -28 3 -28 40 0 27 -4 40 -14 40 -18 0 -37 -24 -39 -49 -1 -17 -8 -21
-33 -21 -30 0 -33 3 -36 33 -2 24 -8 33 -26 35 -18 3 -23 -2 -28 -27z m113
-104 c8 -10 5 -42 -4 -41 -7 1 -22 2 -33 3 -15 1 -20 8 -20 27 0 24 3 25 27
19 16 -4 29 -7 30 -8z m77 -3 c18 -7 10 -34 -10 -34 -8 0 -14 9 -14 20 0 22 1
23 24 14z m11 -84 c4 -6 -18 -10 -59 -10 -37 0 -66 4 -66 10 0 6 26 10 59 10
33 0 63 -4 66 -10z m9 -82 c3 -13 6 -32 6 -43 -1 -18 -2 -18 -10 -3 -6 10 -18
14 -30 11 -16 -4 -20 0 -20 19 0 14 3 28 7 31 14 15 41 6 47 -15z m-102 -13
c-2 -14 -6 -25 -7 -25 -1 0 -5 11 -7 25 -3 16 -1 25 7 25 8 0 10 -9 7 -25z
m58 -80 c0 -10 -10 -15 -34 -15 -21 0 -36 6 -40 15 -4 12 3 15 34 15 29 0 40
-4 40 -15z m50 -75 c-7 -16 -9 -34 -5 -40 5 -8 -1 -11 -16 -8 -32 4 -39 43 -9
51 12 3 24 16 27 28 4 13 8 18 11 11 2 -7 -1 -26 -8 -42z m-100 -20 c0 -16 -4
-30 -10 -30 -5 0 -10 14 -10 30 0 17 5 30 10 30 6 0 10 -13 10 -30z"/>
<path d="M2632 1237 c-6 -6 -13 -24 -17 -40 -7 -27 -7 -27 43 -27 33 0 56 6
66 16 15 14 12 18 -31 40 -57 28 -48 27 -61 11z"/>
<path d="M2284 1226 c-3 -8 -32 -34 -65 -57 -32 -24 -58 -48 -56 -54 2 -5 20
-8 40 -7 21 2 37 -1 37 -7 0 -14 -44 -24 -70 -16 -19 6 -21 4 -18 -27 2 -18 8
-32 13 -32 6 1 25 5 43 9 30 6 32 5 32 -20 0 -21 -4 -25 -18 -21 -36 12 -48
-13 -44 -97 l4 -78 56 2 c31 1 81 -2 110 -6 50 -8 52 -7 52 16 0 13 8 46 17
73 l18 48 -29 25 c-20 17 -36 23 -52 19 -31 -8 -54 3 -54 25 0 17 8 19 60 19
59 0 60 1 60 28 0 47 -11 55 -54 37 -49 -21 -75 -13 -68 21 2 14 15 32 28 41
30 19 30 30 2 54 -28 22 -37 23 -44 5z m4 -286 c22 0 27 -5 27 -25 0 -22 -4
-25 -37 -25 -21 0 -38 3 -38 8 0 4 -3 18 -7 31 -5 20 -3 23 11 18 10 -4 30 -7
44 -7z"/>
<path d="M1306 1200 c-5 -14 -26 -60 -47 -103 -40 -80 -45 -97 -31 -97 15 0
94 178 90 202 l-4 23 -8 -25z"/>
<path d="M2036 1178 c-9 -18 -13 -35 -8 -40 13 -13 115 -5 119 8 3 9 -77 64
-93 64 -1 0 -10 -14 -18 -32z"/>
<path d="M2768 1173 c-12 -11 -42 -16 -113 -19 -54 -3 -101 -7 -106 -10 -5 -3
-6 -22 -3 -43 7 -46 -10 -136 -41 -213 -13 -32 -19 -60 -15 -63 14 -8 69 72
76 110 6 32 7 32 65 34 69 2 79 -14 14 -23 -29 -5 -45 -12 -45 -22 0 -10 13
-14 45 -14 25 0 45 -4 45 -10 0 -5 -16 -10 -36 -10 l-37 0 7 -72 c3 -39 8 -72
9 -73 1 0 44 2 96 5 l95 5 8 30 c20 74 18 94 -11 108 -16 8 -43 12 -62 9 -46
-6 -28 10 24 23 35 8 43 14 45 38 3 24 8 27 38 27 33 0 34 1 34 40 0 41 -21
57 -34 25 -10 -28 -36 -17 -36 16 0 30 -1 31 -36 25 -19 -4 -42 -10 -50 -13
-9 -3 -14 2 -14 17 0 16 5 21 23 19 31 -5 47 8 47 36 0 31 -13 38 -32 18z
m-88 -78 c0 -10 -11 -15 -35 -15 -35 0 -40 -5 -29 -34 4 -11 19 -16 42 -16 48
0 29 -17 -23 -22 -36 -3 -40 0 -43 21 -7 46 6 69 41 74 17 2 35 5 40 5 4 1 7
-5 7 -13z m110 -54 c0 -8 -52 -23 -59 -16 -1 2 0 8 4 14 8 13 55 15 55 2z
m-15 -71 c-3 -5 -13 -10 -21 -10 -8 0 -14 5 -14 10 0 6 9 10 21 10 11 0 17 -4
14 -10z m-29 -123 c1 -1 5 -12 8 -24 7 -20 4 -23 -23 -23 -41 0 -61 9 -61 29
0 26 12 33 44 27 16 -4 30 -7 32 -9z"/>
<path d="M1724 1153 c-30 -93 -120 -223 -155 -223 -22 0 -26 -38 -9 -71 10
-17 13 -18 38 -5 15 8 54 17 87 20 33 4 70 9 82 11 16 4 23 -2 32 -25 6 -17
17 -30 27 -30 19 0 84 38 84 49 0 4 -15 15 -34 24 -23 10 -43 33 -63 68 -31
57 -49 62 -47 11 1 -36 -17 -46 -77 -40 l-33 3 72 75 c40 41 72 76 72 78 0 9
-54 72 -62 72 -5 0 -11 -8 -14 -17z"/>
<path d="M1637 1153 c-3 -5 -8 -22 -11 -40 -4 -17 -21 -50 -37 -72 -16 -23
-29 -43 -29 -46 0 -31 115 62 124 101 9 35 -32 83 -47 57z"/>
<path d="M1452 1050 c-22 -29 -29 -60 -14 -60 4 0 18 20 30 45 25 51 16 59
-16 15z"/>
<path d="M2017 1074 c-10 -10 -9 -82 1 -88 12 -7 112 56 112 71 0 8 -13 13
-32 13 -18 0 -42 3 -53 6 -11 3 -24 2 -28 -2z"/>
<path d="M2057 975 c-15 -19 -41 -42 -57 -50 l-30 -15 17 -43 c9 -23 21 -45
27 -49 18 -12 36 -9 36 6 0 8 14 49 30 90 28 69 31 96 12 96 -4 0 -20 -16 -35
-35z"/>
<path d="M3453 987 c-10 -16 7 -19 134 -22 70 -1 197 -8 281 -15 105 -8 157
-9 164 -2 12 12 -13 16 -202 34 -146 14 -370 17 -377 5z"/>
<path d="M3420 872 c0 -7 10 -14 23 -16 33 -8 681 -35 689 -29 15 8 8 18 -14
20 -13 1 -120 7 -238 12 -118 5 -270 13 -337 17 -89 5 -123 4 -123 -4z"/>
<path d="M4863 797 c12 -30 29 -313 24 -387 -3 -41 -2 -84 2 -95 12 -28 23
166 18 290 -3 55 -7 107 -10 115 -4 8 -8 30 -9 49 -2 19 -9 37 -17 39 -10 3
-12 0 -8 -11z"/>
<path d="M1622 734 c-24 -17 -26 -22 -12 -44 8 -13 11 -12 24 5 11 16 17 17
27 8 9 -9 8 -17 -5 -37 -18 -29 -22 -111 -5 -122 14 -9 29 14 29 46 0 14 9 39
20 55 26 39 25 51 -5 80 -28 29 -42 31 -73 9z"/>
<path d="M2080 723 l-55 -4 0 -69 c0 -78 11 -98 44 -81 17 10 21 9 21 -3 0
-11 -14 -16 -47 -18 l-48 -3 0 -112 c0 -106 1 -113 20 -113 33 0 47 15 52 56
3 21 11 47 18 57 12 17 13 16 23 -12 13 -35 18 -37 44 -14 16 14 18 14 18 1 0
-9 -12 -19 -26 -22 -14 -4 -24 -12 -22 -18 4 -10 107 -53 112 -46 2 1 6 51 9
111 l5 107 -27 7 c-14 4 -39 7 -55 7 -44 1 -46 26 -2 26 40 0 41 2 51 73 6 43
4 48 -17 56 -39 14 -61 17 -118 14z m63 -62 c6 -25 0 -31 -35 -31 -29 0 -33 6
-22 34 9 23 51 20 57 -3z m-70 -181 c-3 -12 -8 -19 -11 -16 -5 6 5 36 12 36 2
0 2 -9 -1 -20z m90 0 c6 -23 3 -24 -24 -10 -24 14 -25 30 0 30 10 0 21 -9 24
-20z"/>
<path d="M2337 684 c-3 -3 -3 -69 0 -145 l6 -139 -36 0 c-21 0 -37 -4 -37 -9
0 -5 25 -30 56 -56 78 -67 76 -74 75 189 0 82 -2 150 -3 151 -9 7 -56 14 -61
9z"/>
<path d="M2248 648 c-3 -7 -1 -31 3 -53 5 -22 8 -64 9 -94 0 -44 3 -52 16 -47
9 3 22 6 30 6 10 0 13 19 11 89 -2 83 -4 91 -25 100 -30 14 -39 14 -44 -1z"/>
<path d="M3065 550 c-30 -11 -48 -37 -41 -56 6 -15 9 -14 31 6 20 19 28 21 37
12 10 -10 9 -19 -4 -45 -21 -39 -28 -119 -11 -124 6 -2 14 10 18 28 4 18 16
46 26 63 23 38 24 74 3 104 -16 23 -27 26 -59 12z"/>
<path d="M3187 553 c-4 -3 -7 -29 -7 -57 -1 -28 -5 -70 -9 -93 -13 -67 24 -82
42 -18 27 93 9 204 -26 168z"/>
<path d="M1642 498 c-15 -15 -16 -45 -2 -53 15 -9 47 4 54 22 12 31 -28 55
-52 31z"/>
<path d="M3152 299 c-26 -27 -27 -33 -6 -53 12 -12 20 -13 35 -6 22 12 25 39
6 64 -13 18 -15 18 -35 -5z"/>
<path d="M3052 298 c-18 -18 -15 -36 9 -48 26 -14 51 4 47 34 -3 24 -37 33
-56 14z"/>
</g>
</svg>
