<?xml version="1.0" standalone="no"?>
<!DOCTYPE svg PUBLIC "-//W3C//DTD SVG 20010904//EN"
 "http://www.w3.org/TR/2001/REC-SVG-20010904/DTD/svg10.dtd">
<svg version="1.0" xmlns="http://www.w3.org/2000/svg"
 width="1766.000000pt" height="700.000000pt"
 viewBox="-500 0 1766.000000 700.000000"
 preserveAspectRatio="xMidYMid meet">
<g transform="translate(0.000000,640.000000) scale(0.100000,-0.100000)"
fill="#000000" stroke="none">
<path d="M550 6277 c0 -7 5 -18 11 -24 9 -9 6 -19 -10 -42 -13 -17 -26 -31
-30 -31 -15 0 -61 41 -61 55 0 7 -6 18 -14 24 -11 9 -19 3 -40 -35 -29 -53
-28 -62 8 -46 20 9 29 8 48 -7 19 -16 20 -21 9 -35 -17 -20 -129 -76 -153 -76
-41 0 -9 -25 35 -28 51 -3 88 12 142 60 20 17 39 27 43 23 8 -8 -69 -79 -110
-101 -51 -27 -29 -45 28 -24 21 9 31 8 42 -4 14 -14 10 -18 -34 -37 -27 -11
-59 -25 -71 -30 -27 -10 -30 -29 -5 -29 37 1 135 41 175 72 l42 32 -30 -33
c-16 -18 -51 -45 -77 -59 -27 -15 -48 -30 -48 -34 0 -13 33 -8 60 7 32 18 50
19 50 1 0 -24 -67 -68 -121 -80 -49 -11 -66 -28 -35 -34 26 -6 120 26 160 53
20 14 42 25 49 25 16 1 90 108 82 120 -3 6 -13 10 -21 10 -22 0 -54 37 -48 55
4 8 0 23 -7 32 -13 14 -11 14 19 -1 32 -16 34 -16 74 6 47 26 60 48 28 48 -29
0 -152 29 -169 39 -11 7 -11 13 3 32 13 20 25 24 64 24 43 0 47 2 50 25 3 23
0 25 -37 26 -22 1 -52 9 -65 18 -30 19 -36 20 -36 3z m45 -208 c-11 -17 -35
-9 -35 11 0 18 3 19 20 10 11 -6 18 -15 15 -21z m-26 -44 c-9 -9 -23 -13 -32
-9 -24 9 -11 24 21 24 24 0 25 -2 11 -15z m46 -105 c-10 -11 -20 -18 -23 -15
-7 6 18 35 31 35 5 0 2 -9 -8 -20z"/>
<path d="M1695 6205 c-61 -16 -330 -36 -517 -38 -86 -1 -137 -6 -135 -12 5
-22 490 -3 664 27 57 9 83 9 125 -1 29 -7 136 -15 238 -17 102 -2 227 -7 278
-10 90 -6 94 -7 88 -28 -3 -11 -6 -34 -6 -49 0 -25 -3 -27 -22 -20 -13 4 -149
8 -303 8 -174 0 -324 5 -395 14 -87 10 -169 11 -335 5 -121 -4 -246 -7 -277
-6 -56 2 -85 -12 -53 -25 10 -3 130 -1 269 6 191 9 276 9 356 0 58 -6 250 -14
427 -18 177 -3 325 -10 329 -14 5 -4 9 -256 11 -560 l3 -551 -27 37 c-14 20
-34 39 -44 42 -12 4 -19 16 -19 31 0 13 -4 32 -9 42 -5 9 -12 24 -14 33 -3 8
-22 21 -43 27 -24 8 -49 25 -64 46 -53 73 -153 117 -223 99 l-42 -11 38 33
c22 19 59 42 83 52 24 10 44 22 44 26 0 16 -78 -17 -135 -57 l-30 -21 16 25
c9 14 40 43 68 65 29 21 48 41 42 43 -12 4 -95 -59 -117 -87 -9 -12 -18 -1
-46 60 -33 71 -64 105 -111 122 -9 4 -16 10 -15 14 1 4 -5 19 -14 33 -9 14
-22 49 -29 78 -7 28 -18 52 -23 51 -6 0 -35 -29 -65 -65 -41 -47 -61 -64 -80
-64 -14 0 -56 -3 -93 -5 l-68 -5 -23 38 c-13 20 -27 47 -31 60 -12 35 -28 22
-63 -49 -22 -47 -44 -75 -75 -98 -52 -38 -103 -101 -120 -147 l-12 -33 -38 34
c-21 19 -44 35 -51 35 -6 -1 4 -15 24 -33 68 -60 82 -117 15 -63 -62 51 -68
44 -12 -13 51 -51 53 -71 8 -71 -63 -1 -172 -82 -172 -128 0 -25 -44 -84 -77
-103 -16 -9 -30 -27 -33 -45 -9 -40 -32 -82 -38 -66 -2 6 -12 12 -23 12 -10 0
-19 5 -19 10 0 7 -30 9 -82 7 -94 -5 -101 -12 -85 -82 6 -28 6 -55 -1 -81
l-10 -39 -1 58 c-1 53 -4 62 -32 88 -29 27 -34 29 -66 18 -19 -6 -40 -8 -48
-6 -29 12 -38 -19 -26 -81 7 -31 14 -70 15 -87 2 -16 4 -33 5 -37 0 -4 17 -5
36 -2 19 2 51 6 70 8 40 5 44 -7 20 -54 -8 -16 -11 -31 -6 -34 14 -9 40 28 60
83 10 28 21 48 24 44 4 -3 7 -30 7 -59 0 -63 19 -88 62 -82 24 4 31 0 39 -19
5 -13 15 -26 24 -29 8 -3 13 -10 10 -14 -10 -16 -8 -149 2 -162 6 -7 14 -38
18 -68 4 -30 14 -84 22 -119 9 -40 11 -66 4 -70 -5 -3 -12 -22 -16 -42 -7 -39
12 -66 40 -56 8 4 17 2 19 -2 8 -13 115 -11 123 2 5 7 25 12 46 12 29 0 36 -3
31 -15 -3 -8 -14 -44 -24 -80 -16 -60 -66 -187 -117 -300 -12 -25 -37 -97 -57
-161 -40 -125 -92 -223 -161 -305 -61 -71 -71 -101 -47 -133 25 -34 69 -38
122 -11 51 26 158 133 166 166 7 29 10 29 33 7 15 -15 19 -39 23 -140 3 -68 2
-123 -2 -123 -4 0 -5 -11 -2 -25 3 -17 -1 -27 -12 -31 -24 -9 -56 -77 -56
-117 0 -28 5 -36 28 -45 34 -13 110 -26 137 -23 35 3 99 34 128 60 24 22 27
32 27 85 1 34 9 89 18 123 14 50 20 60 32 53 8 -5 166 -9 358 -10 189 0 347
-2 352 -5 5 -3 7 -12 4 -19 -3 -8 -1 -17 5 -20 7 -4 8 -35 4 -84 -7 -89 10
-136 53 -152 57 -22 199 -3 241 32 30 24 9 111 -36 152 -22 20 -25 42 -15 93
l6 29 96 -4 c54 -2 104 -8 114 -13 9 -5 53 -11 99 -14 45 -3 85 -8 90 -10 4
-3 153 -7 331 -10 362 -5 532 -16 761 -50 l27 -4 0 155 0 155 30 -16 c37 -19
84 -19 136 1 74 28 87 103 28 162 -30 30 -35 41 -30 66 18 96 18 103 -5 157
-13 30 -33 64 -46 76 -15 14 -23 34 -23 55 0 19 -6 42 -13 53 -38 56 -47 119
-47 341 0 170 3 215 12 206 18 -18 56 -15 61 6 3 9 8 35 12 57 10 68 47 220
55 229 5 4 22 5 39 1 28 -6 31 -10 31 -46 0 -28 5 -42 16 -46 21 -8 44 22 44
55 0 22 3 24 28 18 63 -16 80 -17 86 -7 11 17 -3 49 -22 54 -18 4 -13 7 33 22
20 6 19 44 0 51 -12 5 -13 9 -4 21 9 10 9 17 1 25 -9 9 -28 8 -77 -5 -60 -16
-66 -16 -99 0 -28 13 -36 23 -36 44 0 14 -7 32 -15 39 -8 7 -15 21 -15 32 0
11 -15 35 -32 54 -18 19 -42 45 -54 58 -11 12 -28 27 -38 33 -16 9 -16 15 -2
99 24 140 38 305 42 484 2 91 6 180 9 198 3 18 10 92 15 165 5 72 13 146 19
162 5 17 12 45 15 63 l6 33 -43 -5 c-23 -3 -93 -8 -154 -12 -93 -5 -113 -4
-113 7 0 11 -24 14 -117 13 -65 -1 -138 -6 -163 -12 -25 -5 -92 -10 -150 -11
-58 -1 -141 -4 -185 -7 -141 -8 -474 -10 -477 -3 -2 4 -131 10 -288 14 -157 3
-301 10 -320 14 -69 17 -116 19 -165 6z m1749 -77 c12 -101 13 -127 6 -175 -4
-26 -3 -174 2 -328 10 -285 13 -437 21 -1105 3 -291 8 -391 20 -445 8 -38 21
-117 28 -175 6 -58 16 -109 20 -114 6 -6 9 -4 9 5 0 40 -32 279 -41 314 -7 25
-13 189 -15 425 -3 212 -8 410 -13 440 -6 34 -5 105 2 182 8 96 8 147 -1 205
-8 49 -12 187 -11 368 0 160 0 328 -1 374 l-1 83 28 -7 c15 -3 30 -8 31 -10 2
-2 6 -95 9 -207 3 -112 9 -210 14 -219 4 -9 9 -68 10 -131 1 -118 7 -168 18
-168 10 0 2 271 -9 310 -5 19 -11 119 -12 223 l-3 187 28 0 c31 0 32 -7 17
-145 -5 -47 -5 -84 1 -89 5 -6 9 -1 10 15 0 13 2 31 3 39 2 8 6 42 10 75 11
101 14 105 53 105 l36 0 -7 -72 c-12 -138 -25 -403 -26 -543 0 -77 -9 -255
-18 -395 l-18 -255 -18 150 c-10 82 -18 187 -17 232 0 45 -4 85 -10 88 -22 14
9 -469 32 -485 4 -3 4 -39 -1 -80 -20 -175 -30 -475 -29 -925 1 -264 -2 -522
-6 -574 l-7 -93 -20 53 c-94 253 -142 450 -153 622 -2 40 -13 115 -24 168 -11
53 -39 208 -61 345 -23 137 -44 251 -46 253 -20 21 50 -447 101 -674 7 -33 11
-72 8 -87 -3 -15 2 -62 10 -105 9 -43 23 -118 32 -168 14 -83 31 -139 114
-365 17 -47 31 -96 31 -111 0 -14 4 -29 9 -35 10 -9 16 -74 13 -131 -2 -32 -4
-33 -44 -33 -90 0 -84 -8 -118 182 -5 26 -13 55 -18 65 -6 10 -13 41 -17 68
-4 28 -11 55 -15 60 -4 6 -14 30 -21 55 -7 25 -21 57 -30 71 -10 14 -21 50
-24 80 -4 30 -18 88 -30 130 -16 51 -25 106 -26 165 -1 49 -11 118 -21 154
-10 36 -25 142 -34 235 -13 143 -14 193 -4 318 10 116 10 178 0 298 -9 101
-16 147 -23 140 -7 -7 -7 -45 1 -118 14 -123 14 -249 3 -372 -10 -106 11 -407
33 -476 9 -27 20 -104 25 -170 5 -66 18 -154 29 -195 11 -41 25 -97 30 -125 5
-27 25 -88 44 -135 20 -47 40 -107 46 -135 6 -27 15 -68 20 -90 6 -22 17 -75
25 -117 l15 -78 -24 0 c-19 0 -24 5 -24 25 0 35 -37 171 -60 220 -79 170 -115
270 -129 367 -6 40 -22 107 -36 148 -25 79 -59 264 -58 315 11 386 14 506 17
538 1 20 -1 37 -5 37 -10 0 -18 -126 -23 -340 -3 -110 -11 -205 -21 -255 -9
-44 -21 -98 -25 -120 -5 -22 -13 -51 -18 -65 -5 -14 -14 -90 -21 -170 -12
-152 -35 -366 -51 -485 -5 -38 -9 -98 -10 -132 l0 -63 -40 0 c-47 0 -49 10
-26 100 17 66 31 265 16 235 -5 -11 -16 -66 -24 -122 -18 -119 -50 -213 -73
-213 -13 0 -14 7 -9 38 3 20 10 62 15 93 5 31 13 65 19 75 6 12 8 76 5 164 -5
178 -5 194 3 247 3 23 2 49 -3 58 -7 13 -12 -1 -18 -51 -4 -38 -7 -80 -7 -94
5 -188 2 -312 -6 -345 -6 -22 -16 -65 -22 -95 -20 -96 -16 -91 -68 -88 -53 4
-53 1 -37 126 12 96 -10 77 -31 -28 -18 -88 -19 -90 -47 -90 -24 0 -28 3 -22
18 8 22 28 287 22 310 -6 27 -13 0 -31 -128 -27 -196 -26 -193 -62 -184 -20 5
-22 16 -30 147 -5 78 -8 201 -7 272 2 88 -1 121 -7 102 -13 -42 -16 -212 -6
-366 l9 -134 -24 6 c-13 4 -30 7 -36 7 -16 0 -17 490 -2 705 5 77 12 185 14
240 9 182 13 203 47 237 34 34 17 76 -34 80 -23 2 -24 4 -17 43 5 22 8 67 9
99 0 41 7 74 24 110 34 70 47 189 28 253 -11 33 -16 107 -18 243 -1 107 -3
247 -4 310 -1 63 -2 214 -2 335 0 121 -1 258 -2 305 -3 90 3 131 21 137 6 2
13 -36 17 -104 6 -99 11 -150 16 -163 1 -3 2 -16 1 -30 -2 -35 23 -123 36
-127 19 -7 35 110 36 274 1 104 6 162 12 160 10 -4 12 -60 18 -372 4 -224 19
-497 29 -520 5 -12 6 61 1 175 -4 107 -7 269 -8 360 -1 91 -4 171 -8 177 -4 6
-4 50 -1 97 l7 86 69 0 c61 0 69 -2 64 -17 -25 -80 -38 -588 -16 -623 6 -10
10 70 10 225 0 211 7 310 25 393 4 17 12 22 36 22 19 0 28 -4 23 -11 -8 -14
-7 -437 2 -451 18 -29 36 67 49 257 3 50 8 105 12 123 3 18 1 32 -5 32 -12 0
-20 -49 -28 -178 -4 -56 -9 -100 -12 -97 -5 5 -4 237 1 295 3 31 18 38 80 39
l47 1 -6 -42 c-6 -44 -57 -374 -75 -487 -5 -35 -17 -77 -25 -92 -7 -15 -14
-34 -14 -42 0 -12 -85 -107 -95 -107 -2 0 -6 18 -10 40 -7 40 -25 56 -25 21 0
-29 21 -81 33 -81 6 0 30 18 53 41 l42 41 -13 -56 c-13 -55 -20 -65 -84 -113
-13 -9 -4 -23 65 -90 45 -43 88 -92 97 -108 8 -17 37 -50 63 -74 42 -39 48
-42 57 -26 14 25 105 127 188 210 38 39 69 74 69 78 0 10 -41 46 -53 47 -4 0
-32 25 -62 55 -29 30 -60 55 -69 55 -8 0 -29 20 -46 45 -17 25 -36 45 -43 45
-7 0 -19 -13 -28 -28 -17 -30 -127 -128 -134 -120 -3 3 11 67 30 143 19 76 35
153 35 170 0 17 12 99 26 181 14 82 28 167 30 189 12 98 14 105 36 105 19 0
20 -4 14 -57 -3 -32 -19 -125 -35 -208 -17 -82 -40 -207 -53 -277 -12 -71 -26
-128 -30 -128 -4 0 -8 -7 -8 -16 0 -9 7 -14 18 -12 12 2 19 16 23 48 11 77 39
241 59 335 10 50 27 140 36 200 10 61 19 112 21 114 2 2 16 5 33 6 l30 2 -6
-56 c-3 -31 -10 -92 -15 -136 -11 -101 -11 -125 0 -105 5 8 14 60 20 114 14
119 30 186 44 186 6 0 8 -21 4 -58 -4 -32 -8 -121 -11 -198 -6 -163 5 -115 24
109 13 147 13 147 38 147 l25 0 -7 -82 c-4 -46 -10 -114 -14 -153 -9 -89 -8
-388 2 -437 4 -21 12 -38 17 -38 6 0 8 9 4 20 -3 11 -8 82 -10 157 -2 76 -4
143 -6 148 -1 6 0 33 4 60 4 28 10 82 13 120 19 223 16 210 50 213 l31 3 1
-188 c0 -115 5 -199 12 -217 6 -17 14 -81 17 -143 3 -63 10 -116 16 -120 11
-7 2 217 -12 267 -14 54 -21 194 -14 308 l6 102 33 0 c31 0 32 -1 38 -52z
m382 0 c-3 -18 -10 -94 -16 -168 -5 -74 -14 -178 -20 -230 -5 -52 -10 -140
-10 -196 0 -101 -26 -409 -35 -424 -17 -28 -26 -275 -26 -710 1 -331 -4 -578
-14 -745 -9 -137 -17 -348 -18 -469 l-2 -218 -26 -14 -26 -13 -8 92 c-4 51 -6
205 -4 342 1 138 3 446 4 685 1 409 15 730 34 810 5 19 12 87 15 150 15 267
18 306 22 330 4 23 11 233 15 485 1 61 8 155 15 210 7 55 13 103 14 108 0 4
21 7 46 7 l46 0 -6 -32z m-1262 -15 c9 -53 5 -298 -6 -335 -15 -52 -29 -37
-28 30 0 32 -6 110 -14 175 -8 66 -12 125 -9 132 4 12 18 19 45 24 3 0 9 -11
12 -26z m-808 -571 c-2 -2 -16 0 -31 4 -25 6 -27 9 -21 47 10 63 18 65 37 6
10 -29 16 -55 15 -57z m-416 48 c0 -46 -2 -50 -24 -50 l-24 0 19 40 c10 21 19
44 19 50 0 5 2 10 5 10 3 0 5 -22 5 -50z m179 -78 c0 -24 -1 -25 -9 -7 -12 28
-12 47 0 40 6 -3 10 -18 9 -33z m41 -4 c0 -36 -4 -35 -14 5 -4 16 -2 27 4 27
5 0 10 -14 10 -32z m49 25 c-1 -17 -28 -77 -28 -67 -2 24 12 74 20 74 5 0 9
-3 8 -7z m-233 -44 c-9 -19 -15 -28 -16 -21 0 6 -4 12 -10 12 -11 0 -14 -43
-3 -54 4 -4 6 -23 4 -42 -5 -65 30 -34 43 38 4 20 15 47 25 59 l18 22 26 -35
c28 -37 77 -146 77 -173 0 -17 2 -18 24 -9 9 3 16 12 16 20 0 8 17 55 39 105
41 95 45 97 66 25 14 -49 41 -57 37 -11 -1 17 -10 47 -18 69 -14 35 -13 38 1
32 9 -3 21 -6 26 -6 5 0 9 -12 9 -26 0 -14 6 -32 14 -40 13 -12 14 -10 9 21
-7 42 10 46 50 15 23 -18 25 -24 15 -46 -9 -18 -9 -27 0 -36 9 -9 13 -4 18 21
4 17 11 30 16 29 5 -2 23 -34 40 -72 33 -75 32 -116 -2 -116 -11 0 -20 -4 -20
-8 0 -15 -119 5 -154 26 l-34 20 -46 -31 c-41 -29 -46 -36 -46 -72 0 -56 -8
-65 -50 -56 -34 7 -35 9 -32 46 3 34 -2 45 -30 71 l-33 32 -55 -14 c-30 -8
-62 -17 -70 -20 -8 -4 -28 -7 -45 -9 -16 -1 -50 -6 -75 -9 -41 -7 -48 -5 -73
20 -15 14 -27 32 -27 40 0 26 39 102 71 139 l33 37 18 -41 c10 -23 22 -40 28
-36 6 4 6 13 0 25 -6 11 -14 29 -20 40 -7 13 -6 21 3 27 11 7 138 32 145 28 1
-1 -4 -17 -12 -36z m1729 -119 c-11 -5 -29 -9 -40 -9 -17 -1 -17 1 -5 9 8 5
26 9 40 9 23 0 23 -1 5 -9z m-140 -20 c-3 -5 -16 -10 -28 -9 -21 0 -21 1 -2 9
28 12 37 12 30 0z m130 -31 c-11 -17 6 -31 21 -18 11 9 11 15 3 25 -9 11 -7
14 10 14 25 0 26 -8 5 -38 -18 -26 -36 -28 -54 -7 -14 17 -6 50 10 40 6 -4 8
-11 5 -16z m-115 -23 c0 -2 -7 -6 -15 -10 -8 -3 -15 -1 -15 4 0 6 7 10 15 10
8 0 15 -2 15 -4z m-1201 -62 c5 -5 -50 -64 -58 -64 -3 0 -6 14 -7 31 -1 16 -6
35 -12 41 -16 16 -45 -52 -30 -69 19 -23 -10 -14 -32 9 -27 29 -22 47 19 75
l33 22 42 -21 c22 -11 43 -22 45 -24z m-304 10 c22 -23 33 -54 21 -54 -2 0
-11 -2 -19 -5 -9 -4 -13 1 -13 16 1 29 -31 50 -44 29 -5 -8 -10 -25 -10 -38 0
-19 -4 -22 -22 -17 -57 17 -63 67 -10 82 59 17 71 15 97 -13z m1472 4 c-3 -8
-6 -5 -6 6 -1 11 2 17 5 13 3 -3 4 -12 1 -19z m221 -40 c4 -59 -23 -88 -80
-88 -54 0 -68 41 -43 125 1 6 29 10 61 9 l59 0 3 -46z m-1051 20 l48 -21 -42
-10 c-32 -7 -44 -16 -54 -39 -10 -24 -9 -31 5 -47 9 -9 16 -25 16 -33 0 -32
12 -47 46 -58 27 -9 34 -17 34 -37 0 -15 -7 -34 -16 -44 -8 -9 -19 -41 -23
-71 -4 -29 -10 -59 -15 -66 -14 -23 -59 -12 -113 28 -54 41 -81 82 -103 157
-12 40 -11 43 17 80 21 26 34 58 41 102 7 36 17 68 24 73 24 14 86 8 135 -14z
m790 -25 c-3 -10 -5 -4 -5 12 0 17 2 24 5 18 2 -7 2 -21 0 -30z m-1575 -7 c19
-40 78 -60 131 -45 18 5 33 9 34 9 2 0 3 -11 3 -24 0 -14 10 -30 25 -40 35
-23 31 -50 -11 -75 -19 -12 -34 -27 -32 -34 7 -18 89 -21 113 -3 20 14 20 15
-2 38 -27 28 -31 78 -7 78 8 0 20 13 25 30 9 25 14 28 29 20 42 -22 79 -12
131 37 30 28 53 43 57 36 4 -5 21 -17 38 -26 17 -9 36 -23 43 -31 11 -13 9
-17 -15 -27 -16 -6 -44 -9 -62 -7 -25 3 -32 1 -30 -11 3 -12 15 -16 46 -16 53
0 49 -17 -6 -28 -54 -10 -58 -37 -6 -37 19 0 33 -4 30 -8 -6 -10 -112 -54
-184 -76 -100 -31 -275 -37 -396 -14 -70 14 -82 20 -120 58 -26 27 -32 37 -16
27 30 -19 82 -26 86 -12 2 6 -15 18 -39 28 -41 18 -42 19 -17 28 13 6 34 8 45
5 25 -6 50 8 41 23 -4 6 -16 11 -27 11 -28 0 -77 27 -89 49 -9 17 -6 20 23 26
17 4 41 13 53 20 18 12 43 19 80 24 6 0 17 -14 26 -33z m-243 -63 c7 -38 28
-101 48 -141 32 -65 35 -80 30 -128 -6 -57 -35 -109 -66 -119 -34 -11 -68 11
-75 48 -4 19 -16 47 -28 62 -11 15 -21 42 -22 61 -1 28 4 35 25 43 15 5 31 22
39 42 8 19 20 39 28 44 8 7 12 24 10 40 -3 28 -7 31 -61 39 -64 10 -78 4 -82
-37 -4 -35 -16 -68 -33 -95 -13 -20 -16 -21 -32 -7 -15 14 -15 19 13 77 16 35
37 72 46 82 21 25 89 56 122 56 25 0 28 -4 38 -67z m1848 30 c-3 -10 -5 -4 -5
12 0 17 2 24 5 18 2 -7 2 -21 0 -30z m-767 -7 c0 -31 -13 -46 -40 -46 -34 0
-41 9 -33 38 4 17 13 22 39 22 23 0 34 -5 34 -14z m101 -51 c20 -7 20 -7 -3
-29 -31 -30 -51 -22 -66 24 -18 59 -15 64 18 37 16 -14 39 -29 51 -32z m-1236
-9 c28 -4 17 -31 -16 -39 -33 -8 -65 13 -56 38 6 13 13 15 35 10 15 -4 32 -8
37 -9z m1149 -34 c-15 -23 -52 -28 -61 -7 -3 10 0 21 8 26 20 13 29 11 29 -6
0 -8 5 -15 11 -15 6 0 8 9 4 23 -6 18 -5 20 6 9 10 -9 11 -17 3 -30z m116 -17
c-7 -8 -17 -12 -22 -9 -5 3 -1 15 9 26 20 22 32 6 13 -17z m-1313 -30 c12 15
33 17 33 2 0 -20 -22 -37 -47 -37 -19 0 -23 5 -23 32 0 30 1 31 15 12 9 -12
18 -15 22 -9z m1331 -22 c-10 -22 -21 -29 -50 -31 -43 -4 -78 12 -78 34 0 18
41 36 55 23 14 -14 53 -11 67 5 18 20 22 2 6 -31z m-740 12 c-2 -1 -19 -5 -38
-8 -34 -6 -34 -6 -11 7 14 8 31 12 38 9 8 -3 13 -7 11 -8z m262 -31 c-50 -43
-132 -81 -189 -89 -47 -6 -52 -5 -49 10 2 12 24 24 68 37 76 23 171 59 184 70
5 4 12 6 14 3 3 -2 -10 -16 -28 -31z m-982 -20 c-10 -10 -28 6 -28 24 0 15 1
15 17 -1 9 -9 14 -19 11 -23z m1509 10 c3 -8 -2 -23 -11 -32 -10 -10 -16 -12
-16 -4 0 7 -4 12 -10 12 -5 0 -10 -8 -10 -19 0 -23 -25 -47 -35 -31 -10 16
-27 1 -20 -20 6 -20 -16 -33 -41 -23 -12 4 -14 0 -9 -20 7 -28 -12 -48 -21
-23 -6 17 -34 22 -34 7 0 -5 7 -14 15 -21 23 -19 0 -44 -25 -28 -10 7 -16 17
-12 22 3 6 9 35 13 64 10 71 59 128 59 68 0 -14 4 -27 9 -30 8 -6 76 43 111
79 18 19 29 19 37 -1z m-446 -90 c15 -18 -107 -35 -226 -32 l-100 3 58 13 c70
16 151 53 192 86 l30 25 18 -42 c10 -22 22 -46 28 -53z m1874 32 c-4 -23 -16
-85 -26 -139 -10 -54 -19 -110 -19 -125 0 -54 17 -3 39 116 13 67 28 125 33
128 5 3 18 -2 29 -12 15 -14 18 -25 13 -48 -16 -71 -31 -172 -27 -179 10 -17
21 6 28 59 4 32 11 67 15 78 7 18 9 16 9 -12 1 -18 -19 -114 -44 -214 -25
-100 -45 -192 -45 -204 0 -28 -10 -35 -38 -27 -22 5 -22 7 -22 263 0 141 3
284 6 318 7 60 7 60 31 49 22 -10 23 -15 18 -51z m-2982 47 c3 -5 0 -19 -5
-33 -9 -23 -10 -24 -19 -7 -16 28 8 67 24 40z m144 -30 c5 -15 -24 -42 -53
-49 -34 -9 -74 11 -74 36 0 15 7 20 29 20 17 0 32 4 35 9 8 12 58 -1 63 -16z
m348 -5 c33 -7 90 -12 128 -12 56 0 67 -3 67 -17 0 -23 -33 -27 -121 -17 -81
9 -152 32 -171 55 -9 12 -7 13 13 9 13 -3 51 -11 84 -18z m1105 2 c9 -16 7
-27 -10 -50 -12 -17 -30 -30 -40 -30 -12 0 -17 -5 -14 -13 3 -8 -2 -20 -11
-27 -12 -10 -18 -10 -31 1 -14 12 -16 10 -12 -16 3 -26 0 -30 -20 -27 -19 2
-22 -2 -17 -17 8 -25 -21 -35 -48 -16 -21 15 -19 17 82 115 57 55 105 100 107
100 2 0 8 -9 14 -20z m-870 -31 c0 -11 -4 -17 -10 -14 -5 3 -10 13 -10 21 0 8
5 14 10 14 6 0 10 -9 10 -21z m27 -1 c-3 -8 -6 -5 -6 6 -1 11 2 17 5 13 3 -3
4 -12 1 -19z m-185 -41 c73 -8 98 -15 98 -25 0 -11 -10 -13 -42 -8 -24 3 -88
8 -143 11 -54 3 -101 8 -103 10 -2 2 -1 17 3 34 l7 31 41 -21 c25 -13 77 -25
139 -32z m-599 13 c-6 -22 -18 -26 -28 -10 -8 13 14 42 25 35 5 -3 6 -14 3
-25z m-153 -20 c0 -27 -3 -30 -34 -30 -30 0 -33 2 -29 24 4 18 13 26 32 29 14
2 27 5 29 6 1 0 2 -12 2 -29z m223 6 c12 -13 28 -31 35 -40 23 -28 42 -19 42
19 0 29 4 35 21 35 14 0 26 -12 39 -43 20 -44 17 -87 -4 -87 -21 0 -25 11 -16
36 7 18 6 24 -5 24 -7 0 -15 -9 -17 -20 -3 -20 -4 -20 -56 6 -42 21 -51 30
-47 45 7 20 -9 27 -20 9 -11 -18 -25 -10 -25 15 0 32 24 33 53 1z m1596 -12
c13 -29 6 -48 -15 -40 -10 4 -14 -2 -14 -20 0 -21 -4 -24 -20 -19 -16 5 -20 2
-18 -17 3 -20 -1 -23 -25 -20 -25 3 -28 0 -22 -18 6 -19 4 -20 -22 -14 -15 4
-32 9 -36 11 -8 5 141 163 153 163 4 0 12 -12 19 -26z m-869 -45 c0 -37 -4
-58 -10 -54 -5 3 -10 31 -10 61 0 30 5 54 10 54 6 0 10 -27 10 -61z m-710 -29
c36 -18 74 -38 85 -44 11 -6 21 -12 23 -13 2 -1 -2 -11 -8 -23 -9 -17 -14 -19
-25 -10 -8 6 -11 18 -8 26 6 16 -12 20 -22 4 -10 -16 -37 1 -32 21 3 12 0 19
-9 19 -8 0 -14 -5 -14 -11 0 -16 -25 -5 -26 12 -2 31 -5 33 -18 16 -17 -22
-46 -13 -39 14 6 21 -12 27 -20 7 -8 -23 -40 17 -32 41 l6 21 37 -23 c20 -13
66 -38 102 -57z m669 28 c1 -29 3 -62 3 -73 1 -11 0 -60 -1 -110 -3 -87 -4
-88 -12 -40 -14 83 -16 275 -3 275 7 0 13 -20 13 -52z m-1115 11 c11 -54 8
-69 -14 -69 -17 0 -20 7 -20 43 0 64 23 81 34 26z m1565 9 l36 -23 -35 -6
c-203 -37 -286 -49 -334 -49 l-56 0 0 35 c0 20 6 37 13 40 11 3 216 19 306 23
20 1 48 -7 70 -20z m-516 -23 c11 -4 17 -18 17 -37 0 -30 0 -30 -47 -24 -27 3
-82 7 -123 7 -41 1 -96 3 -122 6 l-48 5 16 30 16 31 136 -5 c76 -3 145 -9 155
-13z m-797 -42 c-3 -8 -6 -18 -6 -22 0 -11 -41 -7 -82 9 -54 20 -38 36 33 32
49 -3 59 -7 55 -19z m159 -46 l109 -54 -27 -27 -27 -27 -40 21 c-33 17 -40 25
-35 40 7 23 -13 28 -21 6 -10 -25 -36 -6 -30 20 7 27 -8 32 -22 8 -13 -24 -55
3 -48 31 3 11 6 28 6 39 0 14 3 16 13 7 7 -6 62 -35 122 -64z m1235 47 c15
-39 13 -44 -22 -44 -17 0 -65 -6 -107 -14 -121 -23 -231 -36 -294 -36 -56 0
-58 1 -51 23 9 31 7 30 76 33 86 5 255 31 343 54 45 12 45 12 55 -16z m118
-37 c15 -9 51 -25 80 -34 28 -9 52 -21 52 -26 0 -4 8 -6 18 -4 44 13 112 18
112 8 0 -19 -108 -33 -172 -22 -70 12 -152 60 -173 101 -19 37 -8 44 27 17 16
-12 42 -30 56 -40z m282 18 l0 -45 -47 0 -46 0 44 45 c24 24 45 44 47 45 1 0
2 -20 2 -45z m-1439 -42 c-56 -125 -176 -184 -315 -154 -16 3 -31 11 -33 18
-3 8 11 7 46 -3 44 -13 55 -13 105 1 66 19 142 83 171 144 23 45 47 40 26 -6z
m2948 17 c10 -5 21 -6 25 -3 3 4 14 8 24 9 9 1 26 5 37 8 18 7 18 6 3 -4 -26
-16 -22 -30 10 -30 15 0 34 -5 42 -10 11 -7 6 -10 -21 -10 -19 0 -44 -6 -54
-14 -18 -13 -16 -15 21 -34 21 -12 33 -21 26 -22 -7 0 -22 5 -34 11 -30 16
-68 3 -68 -24 0 -12 -5 -29 -10 -37 -7 -11 -10 -4 -10 27 0 41 -1 43 -40 53
-43 12 -45 16 -30 72 10 35 13 37 36 28 14 -6 33 -14 43 -20z m-2616 4 l127
-6 0 -31 0 -30 -152 6 c-157 7 -278 23 -278 37 0 5 7 15 15 24 11 11 32 13 87
10 40 -2 130 -7 201 -10z m725 -51 c2 -14 -3 -23 -15 -27 -62 -18 -358 -56
-440 -56 -39 0 -43 2 -43 25 0 22 4 25 34 25 34 0 279 32 371 49 71 13 89 10
93 -16z m-1265 -86 c-43 -9 -110 -2 -130 15 -7 6 -13 28 -13 49 l0 38 91 -47
90 -47 -38 -8z m744 -4 c-2 -21 -4 -4 -4 37 0 41 2 58 4 38 2 -21 2 -55 0 -75z
m-913 82 c-4 -8 -12 -15 -20 -15 -8 0 -14 7 -14 15 0 8 9 15 20 15 13 0 18 -5
14 -15z m671 -23 l170 -7 3 -28 4 -29 -214 6 c-281 9 -290 11 -253 62 13 19
19 20 67 12 29 -6 130 -13 223 -16z m894 -64 c6 -18 -33 9 -69 47 l-35 38 50
-38 c28 -20 52 -42 54 -47z m-119 8 c0 -23 -6 -36 -17 -41 -37 -15 -170 -15
-219 0 -27 8 -64 15 -82 15 -49 0 -29 20 21 21 23 0 92 9 152 19 153 25 145
26 145 -14z m-793 -25 c116 -1 194 -5 198 -11 4 -6 -7 -10 -25 -10 -29 0 -115
-17 -205 -42 -48 -13 -130 -12 -207 3 -56 11 -58 13 -58 44 l0 31 53 -7 c28
-4 138 -8 244 -8z m852 -48 c11 -12 29 -24 41 -28 16 -5 20 -15 20 -53 1 -26
5 -67 10 -92 7 -37 5 -49 -11 -71 -10 -15 -19 -33 -19 -41 0 -7 -8 -3 -19 11
-13 16 -17 37 -15 72 1 33 -4 61 -18 86 -12 23 -21 65 -24 108 -2 46 -1 63 5
50 5 -11 18 -30 30 -42z m-1210 -7 c-24 -25 -46 -41 -47 -35 -3 9 8 20 67 66
32 25 24 12 -20 -31z m956 4 c81 -23 181 -67 172 -76 -3 -3 -49 6 -104 19
-201 50 -344 59 -534 32 -153 -21 -232 -46 -331 -102 -34 -18 -58 -27 -58 -20
0 22 117 86 187 103 123 29 197 44 243 50 25 3 72 9 105 14 93 13 230 5 320
-20z m198 -59 c-2 -2 -11 3 -20 12 -10 8 -32 21 -48 28 l-30 11 45 12 45 11 5
-35 c3 -19 4 -37 3 -39z m293 3 c-18 -18 -21 -34 -6 -34 6 0 10 -7 10 -15 0
-8 -7 -15 -16 -15 -14 0 -16 8 -10 52 4 29 13 56 19 60 19 12 21 -30 3 -48z
m-1298 18 l54 -5 -61 -38 c-34 -21 -62 -44 -62 -51 -2 -21 -17 45 -18 81 -1
28 2 32 17 26 9 -4 41 -10 70 -13z m1254 -32 c-2 -27 -7 -50 -11 -50 -7 0 -4
62 4 88 8 23 10 12 7 -38z m-747 -17 c6 -51 -3 -308 -11 -301 -2 2 -5 83 -7
181 -4 175 4 229 18 120z m177 42 c32 -13 9 -23 -68 -30 -77 -8 -93 -2 -94 32
0 12 129 11 162 -2z m528 -30 c0 -36 -4 -45 -17 -45 -13 0 -14 3 -5 12 8 8 8
17 1 30 -8 14 -14 16 -29 8 -17 -9 -20 -7 -20 9 0 18 13 25 58 30 8 1 12 -14
12 -44z m-810 5 c0 -35 -5 -36 -96 -19 -81 15 -87 26 -18 34 53 5 83 9 107 14
4 0 7 -12 7 -29z m64 -32 c7 -61 -1 -278 -10 -287 -2 -3 -9 0 -16 7 -12 12
-21 265 -11 315 10 50 30 31 37 -35z m366 33 c39 -11 59 -21 50 -25 -68 -28
-260 -87 -300 -92 l-50 -7 0 42 c0 40 1 41 33 41 51 0 187 37 187 52 0 11 5
10 80 -11z m-565 -37 c33 -7 77 -14 98 -14 36 0 37 -1 37 -36 l0 -36 -57 6
c-82 10 -205 44 -226 64 -18 16 -17 17 15 29 18 6 42 9 53 6 11 -3 47 -11 80
-19z m719 -7 c18 -13 17 -15 -10 -34 -59 -42 -350 -143 -412 -143 -31 0 -32 2
-32 40 l0 40 40 0 c38 0 297 78 330 100 21 14 63 12 84 -3z m-1075 -130 c0
-43 7 -93 15 -112 14 -32 13 -38 -10 -82 -13 -26 -21 -37 -19 -23 4 15 -3 41
-15 65 -27 54 -29 222 -3 262 l18 27 6 -29 c4 -17 7 -65 8 -108z m1251 123 c0
-5 -4 -10 -10 -10 -5 0 -10 5 -10 10 0 6 5 10 10 10 6 0 10 -4 10 -10z m-1080
-8 c0 -23 142 -68 248 -78 71 -6 72 -7 72 -35 0 -26 -3 -29 -32 -29 -97 1
-304 46 -366 79 -27 15 -22 25 26 51 41 21 52 24 52 12z m1213 -19 c-7 -2 -21
-2 -30 0 -10 3 -4 5 12 5 17 0 24 -2 18 -5z m-54 -7 c-11 -9 -90 -16 -84 -6 3
5 25 10 47 10 23 0 39 -2 37 -4z m-1399 -71 l0 -65 -29 0 c-28 0 -30 3 -37 45
-8 57 -2 73 33 78 15 2 29 5 31 6 1 0 2 -28 2 -64z m1164 43 c-15 -52 -59 -89
-143 -123 -69 -28 -223 -70 -293 -79 l-48 -7 0 34 c0 34 1 35 48 41 89 12 274
74 376 127 65 33 69 34 60 7z m30 -35 c-3 -22 -17 -53 -29 -69 -20 -25 -24
-27 -30 -12 -5 12 2 28 19 49 14 17 29 42 32 55 10 38 15 22 8 -23z m-1364 12
c0 -14 -5 -25 -11 -25 -6 0 -9 -5 -7 -11 2 -6 8 -10 13 -9 9 2 23 -25 24 -47
2 -23 -36 -14 -43 10 -12 45 -7 107 9 107 9 0 15 -9 15 -25z m54 -55 c6 -52 5
-53 -9 -30 -8 14 -14 45 -14 70 0 59 14 34 23 -40z m24 39 c-3 -20 -5 -19 -9
9 -3 20 -2 29 4 23 5 -5 7 -19 5 -32z m1522 31 c-14 -4 -45 -8 -70 -8 -40 0
-42 1 -15 8 17 4 48 8 70 8 34 0 36 -1 15 -8z m-1195 -55 c44 -13 133 -31 198
-39 65 -8 120 -16 122 -18 1 -2 6 -25 9 -52 l8 -48 -74 6 c-40 4 -120 19 -178
33 -158 39 -220 76 -220 131 0 38 8 44 34 27 11 -9 57 -26 101 -40z m1258 20
c31 -6 36 -30 7 -38 -13 -3 -20 -14 -20 -29 0 -33 -23 -63 -44 -55 -9 4 -16
13 -16 22 0 8 -7 15 -15 15 -8 0 -15 -8 -15 -19 0 -10 -6 -24 -14 -30 -12 -10
-17 -8 -25 8 -6 11 -11 27 -11 35 0 22 -9 20 -29 -5 -15 -19 -18 -19 -30 -6
-10 13 -9 21 3 45 22 42 40 53 98 61 54 7 62 7 111 -4z m-1576 -67 c-3 -8 -6
-5 -6 6 -1 11 2 17 5 13 3 -3 4 -12 1 -19z m1311 0 c16 -20 26 -88 13 -88 -6
0 -11 5 -11 10 0 6 -4 10 -10 10 -5 0 -10 -6 -10 -14 0 -21 -20 -30 -33 -17
-17 17 -30 13 -24 -8 3 -15 -3 -23 -26 -32 -24 -10 -32 -10 -35 -1 -4 14 -32
16 -32 2 0 -5 6 -10 13 -10 6 -1 -1 -8 -17 -17 -27 -14 -30 -14 -42 1 -12 17
-31 5 -20 -13 3 -5 -4 -11 -15 -14 -15 -4 -27 1 -39 16 -18 21 -18 22 42 40
66 20 152 71 195 116 32 34 37 36 51 19z m-1058 -80 c0 -15 -4 -28 -9 -28 -13
0 -61 51 -61 66 0 7 -3 20 -6 28 -4 12 6 9 35 -11 32 -21 41 -33 41 -55z m940
57 c0 -14 -4 -25 -10 -25 -11 0 -14 33 -3 43 11 11 13 8 13 -18z m-1122 -12
c-10 -2 -26 -2 -35 0 -10 3 -2 5 17 5 19 0 27 -2 18 -5z m1082 -13 c0 -11 -10
-26 -22 -34 -25 -16 -132 -49 -190 -60 -35 -6 -38 -5 -38 17 0 23 8 27 98 51
54 15 104 31 112 37 24 14 40 10 40 -11z m-1182 3 c-10 -2 -26 -2 -35 0 -10 3
-2 5 17 5 19 0 27 -2 18 -5z m1450 -36 c23 -21 31 -21 53 -1 14 12 22 13 38 4
12 -6 26 -8 32 -4 8 4 9 -19 5 -77 -14 -195 -26 -499 -29 -706 -2 -123 -5
-224 -8 -227 -2 -2 -39 -7 -81 -11 l-78 -7 0 26 c0 16 6 26 14 26 38 0 78 151
76 290 -1 36 -1 119 0 185 1 114 -9 201 -32 290 -6 22 -17 67 -24 100 -7 33
-17 76 -22 95 -8 33 -7 35 14 35 13 -1 32 -9 42 -18z m-1425 3 c-29 -4 -60
-10 -68 -14 -8 -3 -15 -1 -15 4 0 12 27 18 85 18 l50 0 -52 -8z m284 -27 c-3
-10 -5 -4 -5 12 0 17 2 24 5 18 2 -7 2 -21 0 -30z m152 1 c32 -5 42 -12 50
-35 l10 -29 -47 1 c-52 0 -138 30 -136 48 1 6 2 19 3 30 1 17 4 18 41 5 21 -8
57 -17 79 -20z m-337 -1 c23 -21 25 -83 2 -83 -9 0 -18 9 -21 20 -7 25 -33 26
-33 2 0 -18 -18 -42 -32 -42 -4 0 -5 14 -1 30 3 19 1 30 -5 30 -7 0 -18 -13
-27 -30 -20 -38 -29 -38 -22 0 9 41 -7 46 -33 9 -27 -37 -45 -26 -29 18 10 29
15 32 87 46 42 8 81 15 86 16 5 0 18 -6 28 -16z m785 -23 c-1 -11 -5 -20 -9
-20 -3 0 -6 9 -5 20 1 11 5 20 9 20 3 0 6 -9 5 -20z m478 -37 c5 -27 3 -33
-10 -33 -8 0 -18 7 -21 15 -9 23 -27 18 -21 -5 7 -26 -30 -50 -39 -25 -9 22
-27 19 -21 -4 7 -27 -51 -42 -65 -17 -14 25 -31 19 -24 -8 8 -32 -29 -47 -48
-20 -9 12 -15 14 -20 6 -4 -7 -4 -16 -1 -22 3 -5 -3 -10 -14 -10 -17 0 -21 6
-21 34 0 33 1 34 73 56 39 13 83 29 97 36 121 61 121 61 135 -3z m-1056 12
c49 -19 97 -35 106 -35 8 0 15 -5 15 -11 0 -7 -9 -9 -22 -5 -13 4 -32 8 -43
10 -45 8 -80 20 -88 30 -6 8 -10 7 -14 -1 -8 -22 -33 -14 -33 10 -1 21 -2 21
-14 4 -12 -16 -14 -16 -20 -1 -7 17 0 34 14 34 4 0 49 -16 99 -35z m231 5 c0
-16 -4 -30 -10 -30 -5 0 -10 3 -10 8 0 4 -3 17 -6 30 -5 16 -2 22 10 22 11 0
16 -9 16 -30z m310 11 c0 -16 -9 -20 -59 -23 -34 -2 -57 1 -54 6 4 5 -2 15
-12 23 -16 11 -10 13 53 13 64 0 72 -2 72 -19z m-154 0 c-4 -5 0 -11 6 -14 26
-9 0 -16 -67 -19 -66 -3 -70 -2 -73 20 -3 21 0 22 68 22 40 0 69 -4 66 -9z
m330 -76 c26 -64 -7 -174 -58 -194 -13 -5 -36 -13 -53 -17 -28 -9 -30 -14 -42
-84 -13 -82 -57 -186 -82 -195 -8 -3 -20 0 -26 8 -5 7 -18 16 -27 20 -27 10
-45 46 -69 137 -24 97 -32 110 -66 110 -14 0 -37 13 -54 29 -25 25 -29 37 -29
83 0 75 16 102 62 106 41 3 78 -12 78 -31 0 -7 -7 -22 -16 -33 -11 -14 -14
-15 -11 -3 7 22 -56 24 -78 3 -39 -40 7 -117 68 -114 65 4 64 4 76 -67 15 -86
38 -158 56 -173 20 -17 51 3 64 42 6 18 12 69 15 113 2 44 5 81 5 81 1 1 19 4
41 8 57 9 83 23 108 60 27 40 28 66 1 100 -27 34 -45 33 -80 -5 -24 -26 -29
-28 -29 -12 0 23 46 69 75 75 30 7 55 -10 71 -47z m-711 -1 c55 -9 119 -18
143 -21 36 -4 42 -8 42 -29 0 -21 -5 -24 -35 -24 -24 0 -35 5 -35 15 0 8 -4
15 -10 15 -5 0 -10 -7 -10 -16 0 -10 -7 -14 -22 -12 -17 2 -22 9 -20 26 4 27
-18 30 -25 2 -3 -13 -14 -20 -29 -20 -17 0 -24 6 -24 20 0 11 -4 20 -10 20 -5
0 -10 -7 -10 -15 0 -22 -31 -18 -37 5 -6 23 -14 25 -31 8 -18 -18 -46 13 -37
40 5 17 10 19 28 12 12 -6 67 -17 122 -26z m549 0 c-8 -20 -13 -43 -10 -50 9
-22 44 -16 62 11 35 53 89 12 59 -45 -19 -37 -48 -56 -100 -65 -59 -10 -65
-19 -66 -99 0 -75 -16 -137 -36 -143 -14 -5 -38 71 -53 162 -5 32 -14 63 -19
68 -6 6 -31 10 -56 9 -68 -1 -109 46 -70 78 13 10 19 10 33 -4 25 -22 38 -20
56 6 18 25 22 78 6 78 -5 0 -10 4 -10 10 0 8 30 11 177 18 l42 2 -15 -36z
m-344 6 c0 -12 -27 -12 -55 0 -16 7 -13 9 18 9 20 1 37 -3 37 -9z m863 -37 c6
-36 -1 -61 -10 -35 -6 17 -23 15 -23 -2 0 -24 -20 -29 -35 -10 -13 18 -14 18
-24 -7 -11 -31 -58 -45 -64 -20 -4 13 -6 11 -12 -6 -8 -24 -55 -39 -55 -17 0
8 -4 14 -10 14 -5 0 -10 -9 -10 -19 0 -19 -18 -31 -46 -31 -8 0 -14 7 -14 15
0 8 -4 15 -10 15 -5 0 -10 -9 -10 -19 0 -20 -17 -37 -27 -28 -2 3 1 21 8 40
11 30 19 36 58 45 64 15 182 57 227 81 22 11 42 20 45 21 4 0 9 -17 12 -37z
m895 -133 c7 -36 22 -99 35 -140 14 -41 27 -103 31 -138 7 -65 47 -178 111
-317 35 -77 75 -208 75 -248 0 -18 -5 -19 -107 -12 -60 4 -110 9 -112 11 -7 6
21 94 32 101 15 9 37 -26 37 -58 0 -25 15 -47 25 -37 9 9 -18 98 -36 114 -18
16 -20 16 -39 -1 -10 -9 -24 -42 -31 -71 -10 -45 -16 -54 -34 -54 -22 0 -22 0
-8 73 24 127 51 178 88 163 18 -7 59 -91 75 -156 12 -46 36 -88 45 -78 3 3 -1
21 -9 39 -8 19 -23 60 -32 93 -58 196 -163 152 -191 -81 l-6 -53 -48 0 c-58 0
-56 -6 -45 120 4 41 13 121 21 177 8 56 19 170 25 255 15 235 15 234 61 398
l13 45 6 -40 c4 -22 12 -69 18 -105z m-2091 106 c48 -19 127 -33 225 -41 69
-6 77 -9 82 -30 3 -13 9 -30 12 -39 5 -12 0 -16 -19 -16 -36 0 -57 10 -57 26
0 19 -16 18 -24 -1 -3 -8 -17 -15 -31 -15 -22 0 -25 3 -20 28 l6 27 -23 -27
c-18 -21 -29 -25 -51 -21 -21 4 -26 10 -22 23 3 10 1 21 -5 25 -7 4 -14 -2
-17 -14 -6 -25 -38 -28 -47 -4 -5 11 -10 13 -17 6 -14 -14 -49 -5 -49 12 0 19
12 75 16 75 2 0 21 -6 41 -14z m1219 -70 c11 -46 2 -61 -39 -60 -23 1 -37 -3
-37 -11 0 -7 -11 -15 -24 -17 -18 -4 -26 0 -31 16 -6 20 -7 20 -14 -4 -8 -28
-41 -41 -41 -16 0 9 -4 16 -10 16 -5 0 -10 -8 -10 -19 0 -22 -38 -35 -56 -20
-9 7 -15 6 -21 -4 -12 -22 -63 -28 -63 -8 -1 15 -2 15 -13 0 -18 -24 -57 -34
-57 -15 0 9 -4 16 -10 16 -5 0 -10 -7 -10 -16 0 -25 -64 -15 -68 12 -2 17 6
23 57 37 34 9 69 17 78 17 18 0 258 73 298 90 38 17 64 11 71 -14z m-1184 -50
c40 -8 129 -20 197 -26 74 -7 133 -17 145 -26 11 -8 31 -14 43 -14 16 0 23 -6
23 -20 0 -16 -7 -20 -30 -20 -17 0 -29 3 -29 8 4 21 -3 23 -22 6 -26 -23 -25
-23 -42 0 -10 13 -16 15 -21 8 -11 -18 -66 -15 -66 3 0 19 -14 19 -29 1 -12
-14 -55 -10 -46 4 3 5 1 11 -4 14 -5 4 -12 2 -16 -4 -3 -5 -22 -10 -40 -10
-26 0 -33 3 -29 15 8 20 -13 19 -24 -1 -11 -21 -56 -9 -48 12 6 17 -15 19 -31
3 -19 -19 -52 -2 -46 24 9 43 13 49 28 44 7 -3 47 -13 87 -21z m2708 -131 c0
-22 -7 -75 -15 -118 -18 -94 -18 -94 -4 -80 6 6 19 44 28 85 l17 73 19 -28
c15 -24 16 -33 7 -48 -7 -10 -12 -24 -12 -31 0 -33 -24 -92 -56 -139 -41 -62
-35 -79 10 -28 35 41 66 118 66 164 1 28 2 29 15 12 7 -11 12 -29 11 -40 -5
-42 -30 -117 -39 -117 -5 0 -32 -23 -60 -51 -32 -32 -53 -46 -56 -38 -2 7 2
127 9 267 l14 255 22 -49 c13 -27 23 -67 24 -89z m-1504 18 c-7 -18 -26 -17
-26 1 0 16 -18 31 -26 23 -3 -3 -1 -15 5 -26 10 -18 8 -21 -15 -27 -17 -4 -29
-2 -34 6 -6 9 -11 7 -19 -9 -15 -26 -31 -27 -38 -1 -7 28 -23 25 -23 -4 0 -26
-41 -49 -48 -27 -4 13 -32 15 -32 2 0 -16 -38 -19 -45 -3 -6 16 -20 8 -20 -11
0 -7 -15 -13 -32 -15 -30 -3 -33 -1 -33 23 0 15 -4 24 -10 20 -5 -3 -10 -17
-10 -31 0 -21 -4 -24 -40 -24 -36 0 -40 3 -40 25 0 14 -4 25 -10 25 -5 0 -10
-11 -10 -25 0 -18 -5 -25 -20 -25 -18 0 -20 4 -14 43 4 23 7 43 8 43 1 1 42 4
91 7 93 5 279 43 375 75 l55 19 8 -35 c4 -20 5 -42 3 -49z m-1226 21 c47 -8
112 -17 145 -19 33 -3 89 -8 125 -12 36 -3 86 -7 112 -7 54 -1 63 -8 73 -53 6
-32 5 -33 -24 -33 -24 0 -31 4 -31 20 0 11 -4 20 -9 20 -5 0 -11 -9 -14 -20
-3 -11 -13 -20 -22 -20 -11 0 -15 5 -11 15 3 9 0 15 -9 15 -8 0 -15 -7 -15
-15 0 -10 -10 -15 -26 -15 -21 0 -25 4 -21 20 3 13 0 20 -9 20 -8 0 -14 -7
-14 -15 0 -9 -10 -15 -26 -15 -19 0 -25 4 -20 15 3 9 0 15 -9 15 -8 0 -15 -7
-15 -15 0 -10 -10 -15 -31 -15 -26 0 -31 3 -26 20 6 24 -18 28 -27 5 -3 -8
-16 -15 -30 -15 -19 0 -23 4 -19 20 6 24 -5 26 -22 4 -15 -22 -70 -11 -61 11
6 17 -15 20 -31 4 -6 -6 -20 -8 -31 -5 -18 6 -20 29 -7 74 5 15 1 15 105 -4z
m1218 -165 c-8 -5 -17 -3 -24 6 -14 19 -24 19 -24 0 0 -21 -30 -31 -42 -14 -7
11 -11 11 -15 2 -7 -18 -32 -16 -39 2 -9 22 -27 18 -21 -5 4 -16 0 -20 -18
-20 -13 0 -27 5 -30 10 -4 6 -11 8 -16 4 -5 -3 -7 -9 -4 -14 3 -4 -7 -11 -22
-15 -19 -4 -29 -2 -35 9 -11 20 -32 21 -25 2 8 -19 -40 -27 -58 -10 -18 18
-25 18 -25 -1 0 -9 -9 -15 -25 -15 -18 0 -25 5 -25 19 0 11 -4 23 -10 26 -6 4
-10 -5 -10 -21 0 -22 -3 -25 -22 -20 -13 3 -28 6 -34 6 -10 0 -34 41 -34 58 0
4 40 8 89 9 104 3 283 33 396 66 l80 23 3 -50 c2 -32 -1 -52 -10 -57z m-1364
73 c2 -4 0 -30 -6 -57 -10 -45 -12 -47 -24 -30 -17 22 -17 35 -4 69 9 26 24
33 34 18z m124 -22 c94 -20 429 -44 469 -34 15 4 25 0 33 -16 16 -30 5 -38
-63 -46 -54 -6 -57 -6 -57 15 0 26 -11 27 -33 1 -9 -11 -25 -20 -36 -20 -14 0
-18 5 -14 20 3 12 0 20 -7 20 -6 0 -14 -9 -17 -20 -6 -24 -53 -28 -53 -5 0 8
-4 15 -9 15 -5 0 -11 -7 -15 -15 -3 -9 -18 -15 -35 -15 -23 0 -29 4 -25 15 4
8 1 15 -5 15 -7 0 -14 -7 -17 -15 -9 -23 -55 -19 -61 5 -5 20 -23 28 -23 10 0
-12 -40 -13 -59 -1 -7 5 -10 14 -7 20 4 6 1 11 -8 11 -8 0 -17 -4 -20 -9 -3
-5 -15 -7 -27 -4 -15 4 -19 11 -15 27 3 11 6 27 6 34 0 15 -11 16 98 -8z m257
-124 c218 1 209 -5 -40 -30 -204 -19 -335 -1 -335 48 0 13 2 25 5 28 3 3 42
-7 88 -21 77 -24 94 -26 282 -25z m536 -9 c46 1 140 8 209 17 128 17 138 19
203 31 42 8 53 -10 14 -24 -43 -17 -432 -48 -519 -43 -30 2 -52 31 -42 56 5
12 10 10 28 -11 21 -24 28 -26 107 -26z m-251 25 c0 -22 -34 -52 -73 -63 -90
-26 -434 -41 -554 -24 -44 7 -50 10 -38 22 12 12 23 11 76 -2 71 -19 272 -14
414 10 99 17 131 29 147 55 16 25 28 26 28 2z m29 -106 c-15 -39 -46 -74 -80
-92 -37 -19 -93 -30 -266 -55 -134 -19 -157 -20 -250 -8 -91 11 -103 15 -103
32 0 17 4 18 33 12 134 -30 200 -31 369 -5 181 28 227 50 249 119 6 20 21 50
33 66 l21 30 3 -34 c2 -18 -2 -47 -9 -65z m67 67 c7 -10 14 -27 14 -38 0 -31
29 -65 69 -83 82 -35 283 -52 373 -33 77 17 148 28 148 22 -1 -35 -66 -50
-235 -57 -151 -7 -238 6 -313 46 -65 34 -73 45 -81 104 -8 58 0 71 25 39z
m604 -46 c-1 -41 -3 -48 -11 -34 -6 9 -15 15 -20 11 -6 -4 -6 -10 1 -19 8 -9
5 -14 -12 -18 -26 -7 -38 -1 -38 19 0 8 -4 14 -10 14 -5 0 -10 -8 -10 -19 0
-10 -9 -21 -20 -24 -13 -3 -20 0 -20 9 0 8 -7 14 -16 14 -11 0 -14 -6 -9 -20
5 -16 2 -20 -19 -20 -18 0 -24 4 -20 14 3 8 0 17 -6 21 -7 4 -14 -2 -17 -14
-5 -19 -12 -21 -50 -21 -5 0 -8 7 -8 14 0 25 -16 31 -22 8 -4 -16 -13 -22 -34
-22 -24 0 -29 4 -29 25 0 14 -4 25 -10 25 -5 0 -10 -9 -10 -20 0 -21 -10 -24
-47 -14 -17 5 -23 14 -23 36 0 17 -4 27 -10 23 -5 -3 -10 -17 -10 -31 0 -24 0
-24 -32 -8 -36 19 -48 31 -48 54 0 12 20 15 108 17 129 2 389 23 417 33 30 11
35 4 35 -53z m-1410 8 c5 -14 16 -25 24 -25 9 0 12 -7 9 -20 -7 -25 -11 -25
-34 1 -10 11 -23 18 -28 14 -6 -3 -11 0 -11 9 0 8 -3 21 -6 30 -4 12 0 16 15
16 14 0 25 -9 31 -25z m658 -39 c-11 -25 -53 -56 -76 -56 -5 0 -12 9 -15 21
-3 12 -10 18 -17 14 -6 -4 -8 -15 -5 -26 5 -15 1 -19 -20 -19 -14 0 -28 7 -31
15 -9 22 -27 18 -21 -5 3 -13 0 -20 -8 -20 -7 0 -20 -3 -29 -6 -11 -4 -16 -1
-16 10 0 9 -4 16 -10 16 -5 0 -10 -6 -10 -14 0 -14 -29 -26 -62 -26 -10 0 -18
7 -18 15 0 8 -4 15 -10 15 -5 0 -10 -7 -10 -15 0 -23 -80 -21 -80 3 -1 16 -1
16 -14 0 -7 -10 -23 -18 -36 -18 -19 0 -21 4 -16 25 4 15 2 25 -5 25 -6 0 -13
-9 -16 -20 -6 -24 -5 -23 -55 -8 -27 8 -37 16 -33 26 3 7 5 21 5 30 0 15 24
17 238 20 131 2 268 8 307 15 39 7 71 12 73 11 1 -1 -3 -14 -10 -28z m82 -91
c0 -28 -4 -35 -19 -35 -28 0 -32 22 -8 48 11 12 22 22 24 22 2 0 3 -16 3 -35z
m68 2 c3 -28 22 -38 22 -12 0 8 5 15 10 15 11 0 13 -20 4 -44 -7 -19 -60 -22
-67 -3 -8 21 5 78 17 74 6 -2 12 -16 14 -30z m-875 -6 c-4 -15 3 -19 36 -25
48 -7 53 -14 37 -45 -11 -20 -15 -21 -27 -8 -8 8 -29 13 -47 12 -28 -2 -32 2
-38 31 -7 39 -2 49 24 51 14 1 18 -3 15 -16z m737 -24 c0 -20 -28 -54 -49 -60
-20 -5 -61 17 -61 32 0 19 35 22 47 5 13 -17 14 -17 17 6 1 11 25 30 39 30 4
0 7 -6 7 -13z m243 7 c9 -3 13 -13 10 -25 -6 -22 12 -26 21 -4 3 8 13 15 21
15 12 0 15 -6 10 -22 -12 -39 -33 -49 -66 -33 -35 18 -39 26 -32 53 6 23 12
26 36 16z m472 -60 c-15 -40 -19 -43 -43 -38 -34 9 -32 6 -39 48 -5 34 -4 36
21 36 20 0 26 -5 26 -21 0 -11 5 -17 10 -14 6 3 10 15 10 25 0 19 22 34 29 18
2 -5 -4 -29 -14 -54z m-567 -3 c15 2 46 -7 69 -19 49 -26 66 -27 82 -8 10 12
17 11 46 -7 27 -17 34 -29 35 -53 l0 -31 -257 -6 c-141 -4 -295 -7 -343 -7
l-87 0 5 29 c2 17 12 37 21 45 16 14 21 14 60 -1 l42 -16 34 33 c27 26 38 31
47 22 21 -21 58 -13 89 18 16 16 36 27 44 24 7 -3 21 -1 31 4 12 7 22 4 36
-10 12 -12 30 -18 46 -17z m312 18 c0 -33 -19 -59 -44 -59 -22 0 -23 3 -16 35
6 27 5 35 -6 35 -9 0 -14 -11 -14 -32 0 -30 0 -31 -20 -13 -11 10 -20 26 -20
37 0 15 8 18 60 18 54 0 60 -2 60 -21z m70 6 c0 -8 5 -15 10 -15 6 0 10 7 10
15 0 9 9 15 25 15 20 0 25 -5 25 -25 0 -30 -32 -65 -59 -65 -40 0 -51 11 -51
51 0 32 3 39 20 39 11 0 20 -7 20 -15z m1719 -16 c17 -5 20 -8 8 -8 -18 -1
-77 25 -77 35 0 2 10 -1 22 -7 12 -6 33 -15 47 -20z m-2389 4 c0 -24 -30 -53
-54 -53 -28 0 -42 11 -50 38 -6 19 -4 22 18 22 20 0 26 -5 26 -21 0 -12 5 -19
13 -16 6 2 12 14 11 26 0 14 5 21 18 21 10 0 18 -7 18 -17z m-450 -24 c0 -10
-6 -19 -14 -19 -15 0 -29 27 -21 40 9 15 35 -1 35 -21z m44 6 c-4 -8 -10 -15
-15 -15 -5 0 -9 7 -9 15 0 8 7 15 15 15 9 0 12 -6 9 -15z m206 -16 c0 -10 5
-19 10 -19 6 0 10 11 10 25 0 20 5 25 24 25 19 0 23 -4 19 -20 -7 -26 -41 -50
-70 -50 -27 0 -44 47 -22 60 17 11 29 3 29 -21z m-120 1 c0 -11 5 -20 10 -20
6 0 10 9 10 20 0 11 7 20 15 20 20 0 19 -19 -2 -42 -29 -32 -83 -20 -83 18 0
19 5 24 25 24 18 0 25 -5 25 -20z m1068 -117 c-5 -59 -10 -109 -13 -111 -3 -3
-5 40 -5 94 0 65 4 104 12 112 7 7 12 12 13 12 0 0 -3 -48 -7 -107z m-1152 75
c-4 -13 -9 -69 -13 -125 -3 -56 -9 -100 -13 -98 -11 7 -22 167 -15 208 6 28
12 37 27 37 16 0 19 -5 14 -22z m1045 -16 c-19 -6 -41 6 -41 23 0 14 3 13 26
-2 15 -9 21 -19 15 -21z m-845 -3 c25 0 26 -2 9 -9 -28 -12 -123 -12 -130 0
-3 6 3 10 13 10 11 0 25 7 32 15 12 14 15 14 30 0 9 -8 30 -15 46 -16z m997
-36 c-3 -32 -12 -80 -19 -108 -12 -49 -12 -49 -7 35 5 103 10 130 23 130 6 0
8 -22 3 -57z m-1153 30 c-1 -46 -27 -214 -34 -220 -9 -8 2 199 11 223 7 20 23
17 23 -3z m981 -13 c18 0 28 -6 32 -20 5 -18 0 -20 -38 -20 -49 0 -76 20 -68
50 5 18 7 18 26 5 12 -8 33 -15 48 -15z m83 -7 c8 -49 8 -168 0 -160 -3 3 -11
49 -18 101 -10 74 -10 96 -1 96 7 0 15 -17 19 -37z m-899 -32 c-6 -20 -26 -25
-100 -24 -40 1 -45 3 -45 24 0 19 4 21 33 16 17 -2 50 -2 72 2 48 9 49 8 40
-18z m1175 -11 l0 -30 -80 0 c-63 0 -82 3 -87 15 -8 23 -3 25 83 34 44 5 80 9
82 10 1 0 2 -12 2 -29z m-456 -1 c3 -3 7 -15 8 -26 3 -21 1 -21 -316 -27 -299
-5 -396 -2 -396 13 1 30 22 35 202 40 234 8 495 8 502 0z m138 -29 c4 -8 7
-30 7 -48 l1 -33 -47 3 c-25 2 -48 8 -50 15 -3 8 8 10 36 6 33 -5 41 -3 41 10
0 11 -12 17 -41 19 -32 2 -44 8 -50 25 -8 21 -6 22 44 20 35 -1 54 -7 59 -17z
m-870 -22 c-9 -35 -142 -35 -142 0 0 14 12 17 73 17 64 0 73 -2 69 -17z m-15
-61 c-5 -16 -76 -21 -111 -8 -43 17 -23 26 49 23 44 -3 65 -8 62 -15z m-57
-48 c19 -5 12 -7 -27 -8 -41 -1 -53 2 -53 14 0 16 12 15 80 -6z m1000 11 c30
0 32 -2 16 -11 -11 -7 -42 -9 -82 -4 -74 8 -87 22 -16 18 26 -1 63 -2 82 -3z
m-1053 -39 c87 -4 81 -21 -7 -21 -63 0 -103 17 -109 45 -3 20 -3 20 19 0 17
-15 40 -21 97 -24z m1145 -32 c16 -19 28 -45 28 -61 0 -15 -2 -28 -4 -28 -2 0
-11 -3 -20 -6 -12 -5 -16 0 -16 21 0 21 -4 26 -16 21 -9 -3 -20 -6 -25 -6 -18
0 -9 -40 9 -40 15 -1 15 -2 -2 -15 -11 -8 -28 -15 -38 -15 -14 0 -17 6 -13 28
5 29 -9 61 -21 49 -4 -4 -8 -22 -8 -40 -1 -36 -17 -44 -59 -28 -42 16 -60 53
-52 108 l6 48 102 -1 101 -1 28 -34z m-1074 -86 c-41 -46 -137 -79 -153 -53
-3 5 -1 19 5 31 21 39 -5 43 -28 5 -26 -43 -46 -48 -40 -8 3 15 9 35 13 46 15
34 -19 12 -37 -25 -21 -42 -24 -15 -4 33 24 57 35 61 119 48 60 -9 81 -8 108
3 l34 14 3 -35 c2 -25 -3 -41 -20 -59z"/>
<path d="M3310 5708 c0 -79 5 -170 10 -203 22 -132 51 -282 71 -374 5 -25 12
-166 15 -315 3 -149 9 -309 14 -356 6 -47 10 -121 11 -165 1 -44 5 -91 9 -105
11 -32 10 187 -1 290 -4 41 -10 170 -12 285 -6 246 -22 431 -43 497 -8 26 -16
68 -19 93 -2 25 -11 82 -20 128 -8 46 -16 143 -16 220 -1 76 -6 140 -10 143
-5 3 -9 -59 -9 -138z"/>
<path d="M2488 5729 c-3 -8 0 -65 8 -125 8 -60 21 -206 28 -324 13 -202 30
-310 48 -310 10 0 10 3 -3 37 -6 15 -17 132 -25 258 -20 319 -42 501 -56 464z"/>
<path d="M3547 5193 c-6 -201 4 -428 21 -472 14 -39 21 -10 10 44 -6 28 -10
177 -10 338 1 158 -3 287 -7 287 -4 0 -11 -89 -14 -197z"/>
<path d="M2747 5105 c-8 -43 -1 -374 8 -383 10 -10 33 32 49 88 21 72 56 234
56 260 0 39 -18 19 -24 -27 -4 -27 -19 -97 -33 -158 -28 -119 -46 -124 -37
-10 3 33 1 107 -4 165 -7 89 -9 99 -15 65z"/>
<path d="M2600 4985 c-1 -22 -3 -58 -4 -80 -2 -22 1 -94 5 -160 5 -66 11 -306
14 -534 3 -229 10 -421 15 -430 12 -21 12 95 -2 614 -5 226 -10 453 -10 505 1
51 -3 101 -8 110 -7 11 -10 4 -10 -25z"/>
<path d="M2860 4925 c0 -69 -20 -222 -44 -340 -8 -38 -17 -104 -20 -145 -2
-41 -9 -93 -15 -115 -6 -22 -13 -69 -16 -105 -3 -36 -10 -89 -15 -118 -13 -75
-23 -272 -12 -247 5 11 12 58 16 105 9 119 24 240 42 340 9 47 20 123 24 170
4 47 20 152 34 233 27 152 34 287 16 287 -6 0 -10 -28 -10 -65z"/>
<path d="M3056 4858 c-3 -35 -10 -137 -16 -228 -10 -157 -24 -322 -36 -420 -4
-30 -2 -42 4 -35 11 10 33 222 52 495 6 85 13 176 16 203 3 26 1 47 -4 47 -5
0 -12 -28 -16 -62z"/>
<path d="M2918 4795 c-3 -5 -13 -93 -22 -195 -9 -102 -19 -193 -22 -202 -3
-10 -1 -18 4 -18 12 0 17 33 37 228 16 150 17 207 3 187z"/>
<path d="M3270 4700 c0 -11 4 -20 9 -20 5 0 7 9 4 20 -3 11 -7 20 -9 20 -2 0
-4 -9 -4 -20z"/>
<path d="M2696 4423 c-4 -109 -9 -274 -11 -368 -2 -93 -8 -197 -13 -230 -11
-72 0 -309 12 -282 5 10 6 65 4 121 -3 56 -1 127 4 157 5 29 11 137 13 239 2
102 7 269 11 373 5 122 4 187 -3 187 -6 0 -13 -78 -17 -197z"/>
<path d="M2937 4233 c-9 -67 -8 -151 1 -156 4 -3 9 39 11 94 2 100 -3 130 -12
62z"/>
<path d="M2551 4110 c-13 -101 -17 -841 -5 -902 13 -65 20 -19 17 105 -4 160
-4 496 0 627 3 81 -6 214 -12 170z"/>
<path d="M2856 4013 c-4 -49 -11 -106 -16 -128 -13 -53 -13 -165 0 -165 10 0
13 27 10 91 -1 20 3 54 9 75 15 60 25 214 14 214 -6 0 -13 -39 -17 -87z"/>
<path d="M2930 4049 c0 -5 5 -7 10 -4 6 3 10 8 10 11 0 2 -4 4 -10 4 -5 0 -10
-5 -10 -11z"/>
<path d="M2477 3793 c-10 -97 -8 -233 1 -233 5 0 10 21 11 48 1 26 3 93 6 150
4 114 -9 139 -18 35z"/>
<path d="M2706 3504 c-7 -265 -6 -317 8 -303 8 8 14 599 6 599 -4 0 -10 -133
-14 -296z"/>
<path d="M2830 3690 c0 -11 5 -20 10 -20 6 0 10 9 10 20 0 11 -4 20 -10 20 -5
0 -10 -9 -10 -20z"/>
<path d="M2779 3508 c-1 -2 -5 -59 -10 -128 -14 -219 -27 -354 -34 -372 -8
-20 10 -25 21 -6 15 24 43 508 29 508 -3 0 -5 -1 -6 -2z"/>
<path d="M3509 3174 c-3 -25 3 -85 13 -132 13 -62 35 -86 24 -26 -4 21 -11 65
-15 96 -6 51 -19 87 -22 62z"/>
<path d="M1291 5473 c1 -27 15 -58 21 -47 8 13 -2 64 -13 64 -5 0 -9 -8 -8
-17z"/>
<path d="M1416 5452 c-3 -5 1 -19 8 -33 7 -15 9 -37 5 -59 -4 -19 -4 -39 1
-43 15 -16 43 -2 53 27 8 24 6 32 -17 53 -14 13 -26 30 -26 38 0 17 -17 29
-24 17z"/>
<path d="M1650 5435 c0 -14 5 -25 10 -25 6 0 10 11 10 25 0 14 -4 25 -10 25
-5 0 -10 -11 -10 -25z"/>
<path d="M1217 5394 c-8 -9 20 -64 45 -88 23 -21 26 -19 34 20 3 18 0 37 -10
49 -22 30 -30 12 -11 -25 11 -22 13 -31 4 -28 -7 2 -20 19 -30 37 -21 40 -24
43 -32 35z"/>
<path d="M1628 5375 c-12 -26 1 -75 20 -75 18 0 32 49 22 75 -12 32 -27 32
-42 0z"/>
<path d="M1779 5373 c-6 -16 -6 -30 -1 -35 6 -6 14 3 21 23 13 39 13 39 1 39
-6 0 -15 -12 -21 -27z"/>
<path d="M1310 5386 c0 -15 31 -79 36 -74 9 9 -11 71 -24 76 -7 2 -12 1 -12
-2z"/>
<path d="M1740 5364 c0 -14 4 -23 10 -19 6 3 10 15 10 26 0 10 -4 19 -10 19
-5 0 -10 -12 -10 -26z"/>
<path d="M1829 5361 c-38 -37 -54 -71 -35 -71 8 0 18 9 21 20 3 11 13 20 21
20 12 0 34 36 34 56 0 10 -17 0 -41 -25z"/>
<path d="M1172 5363 c2 -10 11 -19 21 -21 16 -3 17 -1 7 17 -13 25 -33 28 -28
4z"/>
<path d="M1737 5315 c-9 -23 11 -28 23 -5 8 16 8 20 -4 20 -7 0 -16 -7 -19
-15z"/>
<path d="M1835 5309 c-4 -6 -5 -13 -2 -16 7 -7 27 6 27 18 0 12 -17 12 -25 -2z"/>
<path d="M3065 5230 c-8 -14 3 -30 21 -30 16 0 16 2 8 24 -7 18 -20 21 -29 6z"/>
<path d="M3115 5193 c0 -26 5 -38 15 -38 10 0 16 13 18 38 3 31 0 37 -16 37
-15 0 -19 -7 -17 -37z"/>
<path d="M3067 5176 c-6 -16 16 -40 26 -29 4 3 7 15 7 25 0 21 -25 24 -33 4z"/>
<path d="M1995 5070 c-24 -47 -20 -112 10 -140 33 -31 42 -19 14 19 -21 28
-22 35 -12 74 7 23 15 50 18 60 12 29 -13 19 -30 -13z"/>
<path d="M1945 5056 c-19 -45 -19 -70 0 -106 17 -32 43 -43 30 -12 -14 32 -17
81 -7 112 16 43 -5 49 -23 6z"/>
<path d="M2056 5074 c-20 -52 3 -124 40 -124 20 0 17 13 -7 34 -17 14 -20 25
-16 57 5 40 -6 62 -17 33z"/>
<path d="M1617 5093 c-4 -3 -1 -13 6 -21 9 -13 9 -14 0 -8 -7 4 -13 2 -13 -3
0 -6 11 -11 25 -11 28 0 30 7 11 33 -14 19 -19 20 -29 10z"/>
<path d="M1439 5088 c-7 -24 -7 -48 0 -48 18 0 41 12 41 22 0 6 -7 4 -16 -3
-15 -12 -16 -11 -10 9 5 13 3 22 -3 22 -6 0 -11 -1 -12 -2z"/>
<path d="M1060 4990 c0 -24 -7 -35 -30 -48 -35 -20 -38 -32 -10 -32 32 0 60
36 60 75 0 19 -4 35 -10 35 -5 0 -10 -14 -10 -30z"/>
<path d="M1099 4975 c-1 -3 -3 -9 -4 -15 -1 -5 -3 -17 -4 -25 0 -8 -10 -23
-21 -32 -24 -20 -26 -33 -6 -33 22 0 56 49 56 81 0 16 -4 29 -10 29 -5 0 -11
-2 -11 -5z"/>
<path d="M1130 4921 c0 -30 -11 -51 -26 -51 -8 0 -14 -4 -14 -10 0 -14 33 -13
48 2 15 15 16 64 2 73 -5 3 -10 -3 -10 -14z"/>
<path d="M855 4639 c-4 -6 -5 -13 -2 -16 7 -7 27 6 27 18 0 12 -17 12 -25 -2z"/>
<path d="M890 4256 c0 -17 14 -29 23 -20 8 8 -3 34 -14 34 -5 0 -9 -6 -9 -14z"/>
<path d="M1877 4114 c-9 -10 2 -24 19 -24 8 0 14 7 14 15 0 15 -21 21 -33 9z"/>
<path d="M1222 4078 c3 -7 13 -15 22 -16 12 -3 17 1 14 10 -3 7 -13 15 -22 16
-12 3 -17 -1 -14 -10z"/>
<path d="M1598 3968 c-18 -6 -31 -21 -39 -45 -11 -33 -10 -38 11 -55 26 -21
59 -23 84 -5 13 9 17 23 14 51 -4 48 -30 68 -70 54z m40 -30 c29 -29 -4 -76
-42 -62 -30 11 -13 74 19 74 6 0 16 -5 23 -12z"/>
<path d="M3105 3560 c4 -68 3 -123 -5 -155 -6 -27 -20 -99 -30 -160 -11 -60
-26 -137 -34 -170 -8 -33 -11 -66 -6 -74 9 -18 31 72 70 294 22 127 27 180 23
255 -2 52 -9 100 -14 105 -7 7 -8 -25 -4 -95z"/>
<path d="M2037 2763 c-11 -10 -8 -43 3 -43 6 0 10 11 10 25 0 26 -2 29 -13 18z"/>
<path d="M930 2750 c-9 -16 -8 -20 5 -20 8 0 15 9 15 20 0 11 -2 20 -5 20 -2
0 -9 -9 -15 -20z"/>
<path d="M1005 2739 c-4 -6 -5 -13 -2 -16 7 -7 27 6 27 18 0 12 -17 12 -25 -2z"/>
<path d="M432 5709 c-54 -21 -64 -41 -24 -47 34 -5 27 -32 -7 -32 -17 0 -33 5
-36 10 -12 20 -25 9 -25 -20 0 -27 3 -30 30 -30 17 0 30 -4 30 -9 0 -5 -26
-32 -57 -60 -31 -28 -54 -54 -50 -57 8 -8 62 13 99 38 l27 18 -6 -55 -6 -55
31 0 31 0 -4 68 c-5 65 -5 66 8 32 16 -42 38 -45 51 -8 8 23 6 30 -15 47 -18
16 -20 20 -8 21 14 0 28 26 29 53 0 4 -13 7 -29 7 -17 0 -31 6 -35 16 -9 23
-8 24 13 24 21 0 30 16 23 43 -5 21 -4 21 -70 -4z"/>
<path d="M560 5592 c0 -30 -5 -72 -12 -93 -6 -22 -9 -41 -7 -43 2 -2 43 -6 90
-10 l87 -7 5 33 c3 18 9 54 13 80 l6 47 -43 20 c-24 10 -65 21 -91 24 l-48 5
0 -56z m96 -28 c8 -42 -3 -55 -35 -43 -18 7 -22 14 -17 32 3 12 6 28 6 35 0 6
9 12 20 12 14 0 21 -9 26 -36z"/>
<path d="M531 5376 c-6 -7 -9 -21 -5 -30 3 -9 2 -22 -4 -29 -5 -6 -12 -75 -15
-152 -4 -77 -9 -155 -13 -174 l-7 -33 34 7 c72 15 100 53 48 65 -22 6 -24 10
-20 60 5 89 15 93 50 20 16 -36 44 -80 60 -98 29 -31 31 -32 63 -19 20 8 34
22 36 34 2 16 -4 22 -32 27 -52 10 -52 22 1 48 46 22 48 25 51 71 3 53 -7 60
-34 20 -18 -29 -31 -41 -73 -70 -22 -16 -24 -16 -42 8 -28 36 -24 42 26 36 48
-6 49 -6 60 63 4 26 0 41 -15 58 -17 20 -23 22 -54 13 -20 -5 -44 -8 -53 -6
-10 2 -27 4 -38 5 -18 1 -17 2 4 11 13 5 33 7 43 3 34 -10 17 26 -24 52 -30
19 -38 21 -47 10z m124 -106 c4 -6 -12 -9 -42 -9 l-48 2 40 7 c22 4 41 8 42 9
1 0 5 -3 8 -9z m-14 -50 c24 0 25 -16 0 -23 -19 -5 -81 17 -81 29 0 3 14 4 31
0 17 -3 40 -6 50 -6z"/>
<path d="M359 5342 c0 -4 0 -26 1 -49 2 -45 -6 -51 -41 -33 -16 9 -21 7 -28
-12 -11 -31 -4 -47 26 -54 22 -6 24 -11 21 -53 -3 -41 -1 -46 20 -49 27 -4 28
-12 2 -45 -40 -50 -15 -52 33 -2 28 29 40 35 60 30 20 -6 26 -2 31 20 4 14 4
41 1 58 -4 18 -2 44 4 59 5 14 7 35 4 47 -7 27 -39 27 -46 1 -9 -35 -24 -22
-23 21 1 36 -2 42 -31 54 -18 8 -33 11 -34 7z m62 -174 c-9 -24 -31 -37 -31
-18 0 20 21 51 30 45 5 -3 6 -15 1 -27z"/>
<path d="M464 4433 c-45 -37 -40 -82 10 -83 14 0 17 6 14 25 -7 34 15 51 36
30 16 -17 14 -27 -11 -57 -9 -9 -13 -32 -11 -55 3 -39 20 -49 27 -16 1 10 10
26 19 36 17 19 21 102 6 117 -20 20 -68 21 -90 3z"/>
<path d="M501 4207 c-8 -10 -7 -18 2 -31 11 -14 15 -15 31 -3 12 9 17 20 13
31 -8 19 -30 21 -46 3z"/>
<path d="M3122 2810 c-49 -30 -162 -121 -162 -130 0 -5 -21 -15 -48 -22 -74
-22 -154 -91 -202 -174 -57 -100 -80 -171 -80 -249 0 -82 15 -119 75 -179 l47
-48 -70 -64 c-76 -69 -124 -138 -197 -283 -36 -72 -46 -103 -44 -135 2 -45 -8
-94 -23 -113 -12 -15 -48 -148 -48 -175 0 -10 -21 -38 -46 -61 -71 -67 -92
-149 -114 -440 -11 -155 -25 -199 -84 -265 -20 -22 -61 -51 -91 -66 -41 -19
-56 -32 -61 -52 -10 -38 26 -68 70 -59 54 11 119 48 168 93 37 35 52 60 76
125 16 45 33 116 37 157 7 77 37 227 52 268 18 48 31 -3 44 -168 14 -180 14
-265 0 -440 -9 -122 -5 -136 34 -124 11 3 33 8 48 11 30 6 47 34 47 79 l0 24
125 0 125 0 0 -45 c0 -32 6 -52 22 -70 19 -22 27 -24 72 -19 28 3 52 7 53 8 4
3 22 182 27 256 2 36 7 112 12 168 l7 104 30 -6 c16 -3 58 -6 92 -6 l62 0 2
-86 c1 -52 7 -96 16 -113 18 -37 98 -90 145 -97 31 -5 39 -13 56 -47 18 -40
21 -42 64 -42 34 0 54 -7 82 -28 35 -27 37 -27 103 -17 71 11 113 28 134 54
15 18 6 73 -16 98 -11 12 -12 21 -4 37 16 29 13 62 -9 106 -23 46 -24 71 -7
139 l13 50 13 -32 c18 -42 37 -58 54 -43 8 6 17 8 20 4 4 -3 16 2 28 12 l20
19 -4 -83 c-3 -78 -1 -88 26 -140 17 -31 44 -74 62 -96 18 -22 37 -50 44 -62
21 -40 81 -63 204 -78 30 -4 37 -2 37 13 0 14 -9 18 -52 19 -29 0 -62 5 -73 9
-19 8 -20 14 -12 53 8 39 11 43 34 38 34 -6 81 10 93 33 5 10 12 89 15 177 3
87 8 195 10 241 5 74 3 82 -13 82 -9 0 -33 11 -53 24 -31 21 -38 36 -66 127
-31 100 -67 262 -93 419 -7 41 -24 120 -37 175 -14 55 -29 118 -33 140 -5 22
-11 48 -15 57 -10 26 48 46 146 50 l86 4 -24 -34 c-61 -91 -76 -298 -33 -464
6 -21 14 -53 19 -72 17 -66 78 -160 131 -201 28 -22 65 -52 82 -67 17 -15 46
-34 65 -43 41 -20 53 -11 53 41 0 34 -14 49 -72 79 -28 14 -38 26 -38 43 0 24
8 23 40 -3 8 -7 25 -16 38 -19 37 -12 26 17 -15 39 l-36 20 53 10 c29 6 55 16
58 24 3 10 -3 12 -24 7 -112 -22 -115 -21 -168 33 l-49 50 39 7 c119 21 158
32 162 43 4 13 1 13 -143 -14 l-70 -14 -27 32 c-15 18 -28 34 -28 37 0 7 195
40 233 40 17 0 27 5 27 15 0 19 -25 19 -115 1 -150 -30 -153 -29 -117 13 13
17 40 24 132 37 109 16 141 26 128 39 -3 4 -56 -1 -117 -11 -61 -9 -113 -15
-115 -13 -2 2 -6 16 -10 30 -7 30 -6 30 147 45 49 5 67 10 67 21 0 12 -9 13
-47 8 -26 -3 -50 -8 -54 -10 -3 -3 -38 -5 -75 -6 -55 -1 -74 -5 -93 -23 l-24
-21 6 39 c3 21 8 40 10 42 4 4 124 27 201 39 23 4 35 10 30 15 -9 9 -50 5
-205 -17 l-37 -5 5 49 c6 53 23 73 62 73 40 0 102 20 96 31 -4 5 -16 7 -28 5
-12 -3 -44 -8 -70 -11 l-48 -6 15 29 c15 28 37 50 82 79 18 11 18 12 -3 12
-12 1 -34 -9 -50 -22 -21 -17 -42 -23 -88 -25 -170 -6 -217 -20 -236 -70 -14
-35 -46 -182 -65 -300 -15 -87 -18 -96 -60 -141 -50 -54 -78 -63 -168 -50 -39
5 -61 15 -87 39 -60 56 -65 60 -78 60 -7 0 -22 12 -33 26 -14 17 -27 24 -40
21 -13 -4 -23 3 -34 26 -9 18 -22 39 -29 47 -7 8 -27 56 -46 105 -18 50 -48
109 -66 131 l-32 41 67 6 c83 6 197 54 207 88 6 16 2 26 -14 38 -27 20 -11 41
31 41 31 0 47 21 68 89 14 44 14 44 -16 70 -28 24 -32 34 -42 119 -7 63 -18
105 -33 128 -30 49 -117 117 -141 110 -18 -4 -18 -3 -4 19 15 22 22 55 12 55
-2 0 -18 -6 -36 -13 -28 -12 -39 -12 -91 6 -67 24 -68 26 -40 116 10 34 16 63
12 66 -4 2 -22 -5 -39 -15z m-12 -95 c-9 -33 -17 -44 -27 -41 -8 4 -16 6 -19
6 -2 0 9 20 23 45 15 24 29 42 32 40 2 -3 -2 -25 -9 -50z m0 -116 c0 -5 -4 -7
-10 -4 -27 16 -142 -83 -142 -122 0 -15 -6 -23 -18 -23 -10 0 -23 -6 -29 -14
-10 -11 -7 -17 9 -29 15 -11 20 -21 16 -35 -5 -14 -1 -24 9 -29 9 -5 17 -19
18 -31 1 -12 5 -22 10 -22 5 0 16 -9 26 -21 11 -14 33 -23 66 -27 28 -3 60
-11 71 -19 19 -12 26 -12 51 4 51 32 93 67 93 77 0 5 7 17 15 26 8 9 16 32 18
51 2 28 7 34 27 37 49 5 119 -57 99 -89 -7 -11 -9 -11 -9 4 0 20 -16 23 -23 5
-3 -7 -6 -2 -6 12 l-1 25 -21 -25 c-27 -33 -59 -96 -59 -114 0 -8 12 -28 26
-45 l26 -31 -26 0 c-19 0 -26 -5 -26 -20 0 -12 -10 -25 -22 -30 l-23 -9 23 -7
c12 -3 22 -10 22 -15 0 -5 9 -9 20 -9 28 0 70 21 70 35 0 7 10 19 23 28 21 14
21 15 4 34 -16 18 -16 22 -2 33 12 10 15 10 15 -4 0 -9 9 -25 19 -35 19 -19
19 -20 2 -26 -23 -7 -71 -75 -71 -101 -1 -27 -74 -79 -113 -79 -18 -1 -43 -7
-56 -14 -13 -7 -21 -9 -18 -4 6 10 -53 9 -94 -2 -18 -4 -40 1 -74 19 -26 14
-55 26 -64 26 -9 0 -34 20 -55 45 -25 31 -43 44 -54 41 -10 -3 -22 -2 -29 2
-16 10 -28 62 -14 63 6 1 17 2 24 3 15 1 23 46 8 46 -6 0 -11 20 -11 44 0 47
-13 67 -27 41 -7 -12 -12 -8 -22 20 -7 19 -17 35 -22 35 -18 0 -8 23 27 62 28
32 33 42 23 54 -6 8 -7 14 -2 14 5 0 25 24 45 54 31 46 34 55 20 58 -9 2 10
12 43 22 33 10 65 20 70 21 26 8 105 4 105 -6z m153 -26 c-26 -64 -42 -91 -69
-118 -35 -35 -40 -26 -16 28 16 37 86 127 98 127 1 0 -4 -17 -13 -37z m194
-315 c-2 -13 -4 -5 -4 17 -1 22 1 32 4 23 2 -10 2 -28 0 -40z m-39 30 c13 -13
17 -49 5 -47 -21 3 -32 -3 -38 -21 -9 -28 -23 -25 -31 6 -13 52 31 95 64 62z
m102 -108 c0 -5 -5 -10 -11 -10 -5 0 -7 5 -4 10 3 6 8 10 11 10 2 0 4 -4 4
-10z m-724 -261 c24 -23 32 -24 147 -22 140 3 181 -10 234 -70 18 -20 36 -37
40 -37 5 0 19 -30 31 -67 44 -127 133 -263 172 -263 14 0 20 -13 28 -57 16
-101 -11 -273 -65 -411 -23 -58 -25 -97 -3 -62 14 21 65 184 81 254 15 67 18
206 6 251 -11 40 7 20 22 -24 14 -42 14 -202 0 -256 -5 -22 -18 -76 -29 -121
-10 -44 -30 -116 -45 -159 -14 -43 -23 -80 -20 -84 9 -9 22 17 45 94 12 38 25
79 30 90 4 11 18 57 30 102 23 85 32 258 17 318 l-7 30 20 -24 c36 -42 53
-125 46 -220 -19 -232 -26 -272 -64 -348 -55 -107 -99 -136 -174 -114 -78 24
-156 118 -228 277 l-29 64 32 -23 c18 -12 44 -33 60 -46 22 -20 27 -22 27 -8
0 14 -163 160 -182 163 -5 1 -12 2 -17 3 -15 2 -56 73 -90 155 -33 80 -35 90
-47 319 -4 68 -9 97 -17 94 -8 -3 -11 -26 -10 -66 2 -40 -1 -60 -7 -56 -19 11
-50 84 -50 115 0 16 -4 30 -10 30 -17 0 -11 -69 11 -112 11 -22 29 -43 40 -45
12 -3 19 -14 19 -29 0 -23 -1 -23 -37 -8 -107 45 -188 126 -213 214 -8 28 -5
38 19 74 31 44 90 102 131 130 24 16 25 16 28 -2 2 -11 14 -30 28 -43z m54 38
c19 -9 51 -21 70 -26 31 -9 27 -10 -33 -8 -45 2 -72 8 -83 19 -15 15 -11 43 4
34 4 -2 23 -10 42 -19z m1334 -497 c10 -19 29 -49 42 -67 27 -35 35 -94 10
-74 -7 6 -30 44 -50 84 -32 62 -38 85 -43 163 -3 50 -2 122 3 160 8 66 9 62
14 -81 4 -120 9 -157 24 -185z m-1577 205 c29 -48 114 -110 190 -140 44 -18
53 -34 53 -98 0 -21 7 -53 14 -72 l15 -35 -56 0 c-55 0 -58 2 -104 49 -35 36
-50 61 -56 93 -10 51 -29 52 -26 2 3 -35 2 -35 -30 -29 -47 10 -65 31 -72 86
-9 61 -29 55 -22 -7 l4 -43 -29 15 c-27 14 -29 19 -24 52 4 20 28 80 53 132
43 89 46 93 53 67 5 -15 21 -48 37 -72z m1319 -22 c8 -31 20 -53 28 -53 10 0
13 -14 13 -49 l-1 -50 -19 42 c-24 54 -47 144 -46 177 1 20 2 21 6 5 2 -11 11
-44 19 -72z m307 -39 c3 -17 -3 -40 -16 -62 l-21 -36 -8 38 c-6 29 -4 43 10
61 22 31 29 31 35 -1z m-353 -135 c0 -6 14 -24 31 -40 l31 -29 -25 0 c-19 0
-30 9 -41 32 -19 36 -20 48 -6 48 6 0 10 -5 10 -11z m124 -85 c5 -14 9 -14 23
-3 14 12 15 11 9 -8 -4 -11 -10 -41 -14 -64 l-8 -44 -13 50 c-7 28 -19 58 -28
67 -9 10 -12 22 -7 30 4 7 7 26 6 43 -1 26 1 24 12 -13 8 -23 17 -50 20 -58z
m-1454 41 c8 -7 47 -30 85 -50 89 -47 91 -49 18 -24 -62 20 -197 101 -187 111
6 6 61 -18 84 -37z m-19 -43 c72 -43 262 -110 327 -116 50 -4 69 -16 26 -16
-44 0 -186 36 -256 66 -70 29 -188 104 -164 104 2 0 33 -17 67 -38z m-101 -72
c-20 -78 -26 -218 -10 -255 11 -25 12 -18 10 77 -1 76 22 200 43 226 23 29 30
-6 17 -88 -19 -124 1 -330 32 -330 5 0 7 8 4 18 -28 91 -33 199 -15 298 15 83
31 94 29 19 -4 -95 1 -105 16 -36 8 36 16 66 18 68 3 3 53 -17 84 -33 1 -1 -1
-27 -6 -58 -9 -54 -2 -189 13 -256 10 -47 24 -26 14 22 -10 54 -10 225 1 258
6 19 8 9 9 -37 1 -79 17 -153 47 -222 34 -75 41 -57 11 26 -27 73 -44 209 -29
231 6 9 20 11 44 7 30 -6 34 -10 31 -29 -8 -42 38 -248 52 -234 3 3 -2 40 -10
84 -20 104 -19 177 1 84 19 -91 94 -239 144 -284 56 -50 73 -45 23 7 -73 75
-143 226 -143 309 0 46 1 48 28 48 21 -1 33 -10 54 -45 15 -25 43 -54 61 -65
28 -16 43 -39 76 -116 24 -53 55 -117 71 -144 l28 -47 -57 -13 c-31 -8 -63
-15 -71 -18 -43 -12 -280 -5 -347 10 -139 32 -264 116 -297 199 -32 80 -15
337 25 385 19 23 19 12 -1 -66z m1494 60 c-11 -11 -164 -33 -172 -25 -10 10
51 25 99 24 27 -1 53 1 56 5 3 3 11 6 17 6 7 0 7 -3 0 -10z m-265 -66 c20 -26
37 -81 27 -91 -3 -3 -15 5 -26 18 l-21 24 5 -37 c3 -25 1 -37 -7 -35 -6 1 -13
-8 -15 -20 -8 -54 -20 -16 -24 75 -2 53 -8 106 -13 116 -8 19 -6 18 23 -2 17
-13 40 -34 51 -48z m41 36 c13 -8 13 -10 -2 -10 -9 0 -20 5 -23 10 -8 13 5 13
25 0z m160 -20 c0 -10 -24 -17 -82 -23 -54 -4 -47 9 10 21 64 13 72 14 72 2z
m72 -40 c28 -56 14 -79 -17 -27 -10 18 -23 35 -28 38 -11 8 -2 39 11 39 5 0
20 -22 34 -50z m427 -54 l1 -29 -47 44 c-27 24 -48 47 -47 52 1 4 2 14 3 23 1
13 12 7 45 -22 32 -28 44 -47 45 -68z m-584 -46 c-6 -44 -15 -83 -18 -87 -4
-3 -7 -1 -7 6 0 6 -7 28 -16 49 -9 20 -18 54 -18 74 -2 34 0 37 28 40 17 2 34
2 37 1 3 -1 0 -38 -6 -83z m270 26 c13 -44 13 -46 -5 -46 -13 0 -20 7 -20 19
0 31 -11 51 -29 51 -11 0 -8 5 9 13 14 8 26 13 28 11 2 -1 10 -23 17 -48z
m-207 -22 c17 -25 29 -35 42 -31 16 4 17 1 8 -24 -5 -16 -12 -29 -14 -29 -8 0
-74 94 -74 106 0 24 14 15 38 -22z m75 1 c-3 -9 -8 -14 -10 -11 -3 3 -2 9 2
15 9 16 15 13 8 -4z m-178 -110 c27 -106 11 -299 -36 -418 -20 -50 -23 -130
-4 -125 5 2 8 18 6 36 -3 43 4 40 29 -8 37 -72 26 -83 -108 -109 -194 -38
-333 -19 -390 54 -37 47 -41 215 -6 215 8 0 14 4 14 10 0 5 16 0 35 -11 80
-47 158 -42 206 13 26 31 68 112 89 173 l17 50 8 -50 c7 -44 -2 -132 -31 -305
-12 -67 15 -17 31 60 34 156 30 327 -7 304 -8 -5 -9 3 -5 26 4 18 7 47 7 66 0
18 7 39 15 46 28 26 40 34 58 41 9 3 17 12 17 19 0 32 41 -33 55 -87z m356 33
c-23 -63 -22 -115 3 -174 14 -33 20 -51 13 -40 -7 10 -25 38 -40 62 -16 24
-33 44 -38 44 -16 0 -31 -54 -26 -94 4 -24 22 -63 48 -99 25 -36 35 -58 26
-54 -22 8 -37 -21 -37 -70 0 -31 6 -44 31 -66 18 -15 29 -34 27 -44 -2 -13
-20 3 -62 56 -32 40 -67 76 -77 78 -21 6 -21 6 -13 28 5 13 10 10 25 -14 47
-78 86 -1 47 93 -12 28 -25 56 -30 63 -6 7 -3 45 8 98 14 65 20 81 26 65 14
-39 43 -20 46 30 2 25 9 48 15 52 17 11 17 10 8 -14z m-134 -199 c-24 -118
-33 -145 -35 -115 -5 54 15 161 39 212 24 53 25 72 4 54 -18 -15 -20 1 -3 18
27 27 26 -21 -5 -169z m-1589 117 c3 -13 -1 -16 -22 -10 -15 4 -26 2 -26 -4 0
-6 -3 -17 -6 -25 -3 -9 4 -25 16 -37 14 -14 19 -28 15 -38 -5 -13 -13 -4 -33
35 l-25 51 29 26 c32 28 47 29 52 2z m1432 -98 c0 -15 7 -34 16 -43 13 -13 15
-28 9 -85 -4 -39 -11 -72 -16 -75 -4 -3 -17 13 -28 36 -18 36 -19 50 -11 113
5 39 10 80 10 91 1 31 20 -4 20 -37z m385 -20 c-15 -115 -49 -318 -52 -314 -2
2 5 77 16 166 12 89 21 165 21 171 0 5 4 9 9 9 6 0 8 -15 6 -32z m-1722 -201
c3 -69 1 -95 -6 -88 -6 6 -12 64 -14 128 -3 143 13 110 20 -40z m93 111 c71
-37 183 -64 286 -70 41 -3 47 -6 52 -29 5 -25 32 -46 44 -34 3 3 5 18 5 35 0
17 6 30 13 30 11 0 12 -13 5 -79 -1 -12 -25 -13 -138 -8 -76 3 -165 13 -198
21 -33 9 -77 15 -97 16 -42 0 -43 2 -52 103 -2 32 -2 57 2 55 4 -2 39 -20 78
-40z m-296 -2 c0 -8 5 -16 11 -18 15 -5 24 -84 10 -92 -7 -5 -11 3 -11 23 0
21 -5 31 -15 31 -10 0 -15 11 -15 35 0 19 5 35 10 35 6 0 10 -6 10 -14z m949
-40 l23 -24 -51 -11 c-45 -9 -178 -5 -167 6 2 2 35 11 72 19 37 7 72 18 78 24
14 14 20 13 45 -14z m911 -36 c0 -5 -2 -10 -4 -10 -3 0 -8 5 -11 10 -3 6 -1
10 4 10 6 0 11 -4 11 -10z m-1850 -58 c0 -4 -9 -13 -20 -20 -17 -10 -20 -10
-20 2 0 8 8 17 18 19 9 3 18 5 20 6 1 0 2 -2 2 -7z m328 -17 c50 -12 277 -34
350 -35 8 0 12 -8 10 -17 -2 -12 -17 -20 -43 -24 -22 -4 -42 -4 -45 0 -3 3
-41 6 -85 7 -44 0 -128 4 -187 8 l-108 8 0 34 c0 40 10 42 108 19z m1431 -164
c49 -52 51 -55 51 -112 0 -33 -4 -59 -9 -59 -10 0 -102 124 -125 169 -10 17
-16 54 -16 88 l1 58 24 -45 c13 -25 46 -69 74 -99z m-1486 81 c3 -4 -1 -79 -9
-166 -13 -148 -20 -175 -45 -176 -11 0 -20 132 -14 204 9 114 14 134 33 139
28 7 31 7 35 -1z m285 -18 c2 -1 1 -32 -3 -68 l-7 -66 -42 0 c-41 0 -208 19
-213 24 -2 1 0 30 3 63 l7 61 126 -5 c69 -3 128 -7 129 -9z m1299 -21 c-3 -10
-5 -4 -5 12 0 17 2 24 5 18 2 -7 2 -21 0 -30z m-1178 -50 c0 -38 -6 -115 -12
-173 l-12 -105 -35 0 c-40 0 -37 -18 -26 175 10 168 11 170 51 170 l35 0 -1
-67z m-709 -3 c-18 -33 -90 -57 -90 -30 0 6 10 10 23 10 12 0 33 9 47 20 31
25 33 25 20 0z m1877 -22 c-3 -8 -6 -5 -6 6 -1 11 2 17 5 13 3 -3 4 -12 1 -19z
m-1392 -58 c39 0 77 -5 85 -10 18 -12 -45 -13 -167 -3 -54 4 -83 10 -83 18 0
9 13 10 48 4 26 -4 79 -8 117 -9z m45 -47 c73 -7 71 -7 -70 -14 -79 -4 -146
-6 -149 -4 -2 2 -1 10 2 18 5 14 63 14 217 0z m-323 -100 c-2 -21 -4 -6 -4 32
0 39 2 55 4 38 2 -18 2 -50 0 -70z m1233 60 c-11 -17 -11 -17 -6 0 3 10 6 24
7 30 0 9 2 9 5 0 3 -7 0 -20 -6 -30z m-850 -40 c-11 -17 -11 -17 -6 0 3 10 7
26 7 35 1 15 2 15 6 0 2 -10 -1 -25 -7 -35z"/>
<path d="M3200 2220 c-14 -11 -21 -20 -17 -20 11 0 67 29 67 35 0 11 -27 3
-50 -15z"/>
<path d="M3224 2205 c-16 -12 -16 -14 -3 -15 9 0 22 7 29 15 16 19 0 19 -26 0z"/>
<path d="M2972 2070 c-13 -11 -22 -24 -20 -30 2 -6 16 3 33 20 32 33 23 40
-13 10z"/>
<path d="M2988 2041 c-24 -22 -37 -41 -30 -41 17 0 89 67 80 75 -4 4 -26 -11
-50 -34z"/>
<path d="M3009 2020 c-19 -16 -29 -29 -22 -30 15 0 70 47 62 54 -3 3 -21 -8
-40 -24z"/>
<path d="M3026 1995 c-11 -8 -15 -15 -9 -15 19 0 43 12 43 21 0 13 -12 11 -34
-6z"/>
<path d="M3060 1985 c-10 -12 -10 -15 3 -15 8 0 20 7 27 15 10 12 10 15 -3 15
-8 0 -20 -7 -27 -15z"/>
<path d="M3090 1970 c-12 -7 -12 -12 -2 -22 14 -14 35 1 24 19 -5 8 -13 9 -22
3z"/>
<path d="M2890 1144 c0 -51 134 -235 160 -219 5 3 -8 21 -30 41 -23 21 -54 67
-77 114 -37 77 -53 96 -53 64z"/>
<path d="M3627 1084 c-3 -4 1 -20 9 -37 19 -36 23 -157 11 -327 -10 -142 5
-129 22 18 13 123 14 232 1 286 -9 40 -31 71 -43 60z"/>
<path d="M3244 684 c-9 -36 8 -137 24 -142 10 -3 11 3 5 25 -4 15 -7 54 -7 86
1 59 -11 76 -22 31z"/>
<path d="M3314 626 c-9 -23 10 -99 25 -104 10 -3 12 0 8 12 -4 10 -7 38 -7 62
0 42 -15 59 -26 30z"/>
<path d="M2540 765 c-13 -41 -4 -60 24 -49 13 5 16 16 14 42 -4 48 -23 51 -38
7z"/>
<path d="M455 2533 c3 -16 11 -29 16 -31 27 -10 -2 -92 -33 -92 -23 0 -53 26
-40 34 22 13 13 45 -18 61 -38 20 -38 20 -54 -17 -7 -18 -30 -51 -50 -72 -32
-33 -35 -41 -24 -53 12 -11 20 -11 50 2 20 8 40 19 43 25 9 15 65 -27 65 -49
0 -21 -96 -115 -128 -125 -25 -8 -30 -26 -7 -26 30 0 90 38 143 90 29 29 55
50 58 47 6 -6 -7 -23 -77 -98 -27 -28 -49 -56 -49 -60 0 -15 21 -10 47 11 14
11 30 17 35 13 13 -7 -55 -67 -94 -84 -16 -6 -28 -15 -28 -20 0 -17 33 -9 89
23 59 34 55 14 -5 -23 -63 -39 -33 -54 37 -19 36 19 59 20 59 2 0 -12 -123
-90 -152 -96 -34 -8 -37 -26 -5 -26 45 1 230 107 274 159 28 32 29 48 3 56
-14 4 -20 15 -20 35 0 34 -15 47 -35 30 -12 -10 -15 -9 -15 8 0 12 -6 25 -13
29 -18 11 -29 43 -15 43 6 0 30 -10 53 -21 l43 -22 41 33 c55 44 53 60 -5 60
-49 0 -131 18 -139 30 -3 5 -2 16 1 24 6 15 9 15 30 1 12 -8 30 -12 38 -9 22
8 77 92 66 99 -5 3 -26 3 -48 -1 -34 -5 -43 -2 -74 25 -46 40 -73 42 -63 4z
m35 -301 c0 -13 -12 -22 -22 -16 -10 6 -1 24 13 24 5 0 9 -4 9 -8z m10 -55 c0
-2 -10 -12 -22 -23 l-23 -19 19 23 c18 21 26 27 26 19z m50 -42 c-7 -9 -15
-13 -18 -10 -3 2 1 11 8 20 7 9 15 13 18 10 3 -2 -1 -11 -8 -20z"/>
<path d="M974 2535 c-10 -25 1 -60 16 -56 8 2 32 6 53 8 51 8 46 25 -14 45
-41 14 -51 14 -55 3z"/>
<path d="M1560 2511 c-8 -15 -17 -17 -57 -10 -26 4 -54 9 -62 11 -18 4 -25
-24 -16 -59 5 -23 10 -25 50 -21 46 3 53 0 35 -18 -7 -7 -7 -38 -1 -94 5 -46
7 -89 4 -97 -3 -7 -20 -13 -39 -13 -50 0 -43 -25 16 -55 77 -39 80 -37 81 53
0 42 2 100 4 129 3 40 1 54 -11 61 -12 7 -7 16 30 46 25 21 46 43 46 50 0 7
-16 17 -35 23 -30 10 -37 9 -45 -6z"/>
<path d="M4147 2490 c-14 -11 -29 -20 -34 -20 -15 0 -53 -45 -53 -63 0 -9 9
-21 20 -27 15 -8 19 -17 14 -35 -7 -29 18 -75 42 -75 23 0 27 -25 9 -59 -17
-34 -12 -53 24 -85 13 -12 21 -31 21 -53 0 -38 15 -45 22 -9 6 30 -15 81 -36
89 -20 8 -21 36 -1 64 21 30 5 68 -34 81 -37 13 -43 51 -11 59 27 7 25 33 -2
33 -13 0 -29 4 -37 9 -12 8 -12 12 -2 25 8 9 18 16 23 16 6 0 23 11 40 25 36
31 46 31 50 3 2 -19 9 -22 31 -20 36 4 48 -25 21 -47 -31 -25 -35 -48 -17 -87
17 -34 17 -37 -5 -77 -27 -52 -28 -91 -2 -124 11 -14 20 -37 20 -50 0 -14 4
-21 10 -18 17 10 11 51 -10 78 -25 32 -25 58 0 99 23 38 25 59 8 105 -11 30
-10 35 10 49 38 27 24 94 -20 94 -9 0 -22 9 -28 20 -6 11 -19 20 -29 20 -10 0
-30 -9 -44 -20z"/>
<path d="M795 2478 c-2 -13 -6 -34 -7 -48 -2 -18 -10 -26 -28 -29 -43 -6 -56
-48 -16 -53 l23 -3 -14 -58 c-8 -32 -13 -61 -10 -63 3 -3 19 -6 36 -6 38 -1
39 -16 5 -57 -35 -42 -21 -61 18 -24 16 15 36 41 45 56 13 26 18 28 48 23 27
-5 33 -3 38 14 7 28 -3 60 -19 60 -10 0 -13 7 -9 23 2 12 6 49 7 82 3 53 1 60
-17 60 -12 0 -21 -9 -25 -24 -3 -14 -11 -26 -18 -29 -13 -4 -8 36 9 69 11 21
2 29 -32 29 -22 0 -30 -6 -34 -22z m61 -150 c-3 -13 -6 -28 -6 -34 0 -7 -9
-14 -20 -17 -17 -4 -19 -1 -14 21 10 47 13 52 30 52 12 0 15 -6 10 -22z"/>
<path d="M1100 2480 c-8 -5 -47 -12 -88 -16 l-74 -7 7 -176 c4 -97 10 -179 14
-183 3 -4 26 10 50 31 45 38 48 61 10 61 -10 0 -19 6 -20 13 0 6 -2 33 -4 60
-2 26 0 47 5 47 5 0 26 -21 47 -47 21 -26 61 -72 89 -101 l52 -53 34 21 c19
11 45 31 58 45 20 21 21 25 6 31 -9 3 -23 3 -32 0 -16 -6 -63 14 -102 45 l-23
17 38 12 c54 18 59 24 62 75 2 48 -11 59 -29 24 -16 -28 -25 -16 -25 34 0 35
-4 43 -30 58 -20 12 -35 15 -45 9z m0 -49 c0 -5 -13 -11 -29 -14 -16 -3 -40
-9 -55 -13 -15 -3 -26 -2 -26 4 0 5 17 14 38 20 49 13 72 14 72 3z m-32 -58
c-10 -2 -26 -2 -35 0 -10 3 -2 5 17 5 19 0 27 -2 18 -5z m92 -38 c0 -2 -11
-12 -25 -21 -21 -14 -27 -14 -45 -1 -16 11 -18 16 -8 20 17 7 78 9 78 2z"/>
<path d="M859 2093 c-17 -19 -39 -57 -39 -67 0 -3 25 -6 55 -6 64 0 68 10 27
59 -26 32 -28 32 -43 14z"/>
<path d="M1047 2092 c-14 -3 -17 -10 -13 -25 4 -12 9 -35 13 -51 6 -28 5 -29
-23 -22 -16 4 -33 8 -39 9 -5 1 -12 -11 -14 -28 -4 -29 -4 -30 -10 -5 -6 23
-12 25 -76 28 -38 2 -75 8 -83 14 -16 14 -32 -5 -32 -39 0 -19 5 -23 34 -23
67 0 70 -7 24 -64 -23 -28 -57 -67 -75 -86 -56 -58 -38 -68 34 -19 l45 31 -3
-53 c-4 -52 -3 -54 23 -57 19 -2 28 2 33 17 3 12 4 25 0 31 -3 5 -3 26 1 46
l7 37 14 -26 c7 -15 19 -27 25 -27 6 0 8 -11 5 -30 -7 -34 4 -38 47 -18 18 8
27 22 32 47 3 20 7 40 8 45 1 5 9 -2 18 -16 16 -24 15 -26 -29 -72 -26 -28
-42 -51 -36 -57 8 -8 23 0 87 45 l27 19 32 -32 c18 -17 36 -31 41 -31 4 0 23
12 42 26 37 29 47 59 15 49 -10 -3 -35 2 -55 11 l-35 17 29 41 c32 43 38 69
16 64 -26 -5 -22 9 12 46 17 19 32 40 32 45 0 20 -37 31 -71 21 -19 -6 -35
-10 -36 -10 -2 0 -3 17 -3 39 0 42 -28 71 -63 63z m89 -149 c-4 -16 -7 -36 -7
-45 0 -10 -7 -18 -14 -18 -14 0 -13 32 1 78 8 26 26 12 20 -15z m-76 -28 c0
-24 -5 -35 -15 -35 -10 0 -15 11 -15 35 0 24 5 35 15 35 10 0 15 -11 15 -35z
m-90 -22 c0 -28 -14 -37 -40 -23 l-21 11 22 30 c23 33 39 26 39 -18z m119 -64
c-9 -17 -13 -19 -20 -8 -14 22 -11 29 11 29 18 0 19 -3 9 -21z"/>
<path d="M4206 2031 c-6 -10 20 -48 28 -41 7 8 -5 50 -15 50 -4 0 -10 -4 -13
-9z"/>
<path d="M1407 2023 c-4 -3 -7 -24 -7 -45 0 -44 12 -48 59 -20 41 22 39 38 -5
57 -42 17 -39 17 -47 8z"/>
<path d="M1504 1976 c-3 -8 -4 -29 -2 -48 l3 -33 74 3 c73 4 74 4 68 -20 -3
-12 -9 -78 -13 -145 l-7 -123 -43 0 c-24 0 -44 -4 -44 -9 0 -12 118 -71 142
-71 13 0 18 8 19 28 4 176 10 263 19 292 11 37 13 90 5 112 -4 10 -24 12 -80
10 -41 -2 -88 1 -105 7 -24 8 -32 7 -36 -3z"/>
<path d="M457 1920 c-13 -34 -22 -37 -35 -14 -12 22 -28 0 -37 -53 l-7 -43 36
0 36 0 0 -46 c0 -32 -4 -44 -12 -41 -12 4 -14 9 -17 50 -1 17 -26 24 -34 10
-3 -5 -8 -32 -12 -61 l-7 -54 68 6 c129 12 154 17 155 35 2 20 0 40 -7 69 -7
33 -38 24 -44 -12 -8 -49 -26 -41 -21 10 3 44 4 46 31 42 22 -3 30 0 34 16 11
39 6 61 -14 74 -27 16 -43 6 -37 -24 2 -13 0 -24 -4 -24 -5 0 -9 20 -9 45 0
42 -2 45 -26 45 -19 0 -28 -7 -37 -30z"/>
<path d="M1414 1902 c-7 -4 -14 -70 -18 -170 l-6 -163 32 3 33 3 2 70 c1 39 4
114 8 168 6 96 6 97 -17 97 -13 0 -28 -4 -34 -8z"/>
<path d="M995 1658 c-28 -79 -55 -180 -50 -188 10 -16 22 -3 56 60 17 33 35
60 39 60 12 0 20 -58 20 -151 l0 -89 -26 0 c-42 0 -22 -23 31 -37 27 -6 51
-10 54 -7 2 2 4 34 3 70 l-2 66 39 -31 c21 -17 43 -31 48 -31 12 0 53 43 53
56 0 6 -30 19 -67 30 l-68 19 4 55 c3 57 7 68 17 57 4 -3 2 -25 -4 -49 -16
-61 -5 -66 39 -17 75 84 61 111 -53 102 -63 -5 -70 -4 -84 16 -17 23 -42 28
-49 9z"/>
<path d="M460 1630 c0 -26 -4 -30 -27 -31 -16 -1 -36 0 -46 1 -15 1 -18 -5
-15 -32 3 -31 5 -33 40 -33 22 0 40 -6 43 -13 6 -16 -4 -20 -74 -29 -47 -7
-55 -11 -56 -31 -2 -31 5 -33 59 -23 51 9 51 8 -3 -52 -22 -24 -23 -29 -11
-37 19 -12 106 -13 148 -1 28 9 32 7 32 -10 0 -27 22 -24 51 7 l24 25 -50 44
-50 44 46 1 c31 0 51 6 60 17 11 13 11 17 2 20 -7 3 -13 14 -13 25 0 15 -4 18
-17 13 -10 -3 -37 -10 -60 -14 -34 -7 -43 -5 -43 5 0 9 12 14 34 14 26 0 36 5
41 20 9 28 -2 40 -36 40 -26 0 -29 3 -23 24 4 18 1 25 -18 30 -36 9 -38 8 -38
-24z m35 -238 c-46 -4 -53 2 -30 28 l18 20 25 -22 24 -23 -37 -3z"/>
<path d="M1863 1643 c-28 -11 -10 -32 40 -48 64 -20 110 -17 115 8 3 14 -4 17
-35 17 -21 1 -49 7 -63 15 -26 15 -37 17 -57 8z"/>
<path d="M850 1551 c-24 -50 -41 -93 -38 -97 4 -3 18 2 32 11 l26 17 0 -82 c0
-79 1 -81 23 -78 21 3 22 6 19 104 -4 94 -2 103 22 139 28 41 33 65 14 65 -7
0 -22 3 -33 6 -17 4 -27 -8 -65 -85z"/>
<path d="M1003 1489 c-3 -12 -16 -41 -28 -65 -28 -56 -14 -67 31 -23 40 39 49
61 34 89 -14 26 -30 26 -37 -1z"/>
<path d="M1611 1485 c-13 -7 -62 -19 -108 -25 -65 -9 -83 -16 -84 -29 -1 -9
-2 -72 -4 -141 -2 -101 -16 -223 -38 -333 -1 -6 5 -12 13 -12 10 0 26 31 47
95 30 88 32 104 31 217 -1 67 1 125 4 128 4 4 39 11 79 16 107 13 109 14 109
60 0 42 -8 46 -49 24z"/>
<path d="M1689 1385 c-3 -3 -47 -6 -97 -7 -96 -1 -109 -7 -108 -45 1 -28 -3
-27 99 -17 45 4 93 8 107 9 20 1 25 7 25 30 0 26 -14 42 -26 30z"/>
<path d="M625 1274 c-9 -14 -33 -16 -150 -17 -77 -1 -152 2 -168 7 l-27 8 0
-78 c0 -44 -1 -90 -2 -103 -2 -18 3 -26 25 -34 16 -5 31 -6 35 -3 3 4 8 34 10
69 4 60 13 77 40 77 9 0 12 -27 12 -100 l0 -100 28 1 c15 0 52 4 82 8 30 5 56
8 57 7 0 0 4 -27 8 -58 7 -56 6 -58 -19 -68 -33 -12 -33 -28 0 -40 66 -26 94
-4 94 72 0 24 4 59 10 77 8 30 7 38 -12 55 -18 17 -33 19 -99 17 -73 -2 -78
-1 -76 19 1 17 8 20 49 20 42 0 48 3 54 24 9 37 -1 44 -54 38 -44 -4 -50 -2
-55 17 -6 23 -7 23 101 38 l62 9 0 -36 c0 -20 -5 -41 -10 -46 -14 -14 -5 -36
21 -52 17 -11 25 -11 45 3 24 16 25 19 18 88 -3 40 -11 78 -17 85 -14 17 -50
15 -62 -4z"/>
<path d="M1647 1284 c-3 -4 -34 -8 -69 -9 l-63 -2 -7 -99 c-4 -54 -6 -100 -4
-101 2 -2 47 -4 101 -6 l98 -2 7 27 c5 14 11 58 15 97 6 64 5 71 -11 77 -11 3
-27 10 -36 15 -21 11 -23 11 -31 3z m-7 -84 c0 -35 -3 -40 -22 -40 -57 1 -74
65 -19 73 14 2 29 5 34 6 4 0 7 -17 7 -39z"/>
<path d="M915 1238 c-2 -7 -6 -33 -7 -58 l-3 -45 -42 -3 c-26 -2 -43 -9 -47
-18 -10 -25 2 -34 45 -34 32 0 39 -3 39 -20 0 -14 -7 -20 -24 -20 -13 0 -38
-3 -56 -6 -29 -6 -31 -9 -26 -37 9 -42 11 -43 54 -22 20 11 40 21 45 23 4 2 7
-6 7 -17 0 -15 -9 -22 -35 -27 -19 -3 -35 -12 -35 -19 0 -16 101 -46 115 -33
5 5 12 45 14 88 3 77 4 80 27 80 13 0 24 5 24 11 0 5 5 7 10 4 6 -3 10 -43 10
-89 0 -45 2 -85 5 -88 3 -2 31 -1 63 3 31 4 73 9 92 11 30 4 35 8 38 34 2 16
10 55 17 87 13 56 13 58 -10 73 -12 8 -33 13 -46 10 -54 -12 -99 -15 -99 -7 0
4 9 16 20 26 28 25 25 53 -6 65 -14 6 -27 10 -28 10 -2 0 -8 -25 -15 -54 -9
-41 -16 -53 -27 -49 -8 3 -14 12 -14 20 0 11 -7 13 -24 9 -24 -6 -25 -4 -28
46 -3 46 -6 53 -26 56 -12 2 -24 -3 -27 -10z m243 -180 c-2 -6 -18 -12 -36
-12 -34 -1 -43 10 -14 17 33 9 54 7 50 -5z m-3 -73 c0 -15 -8 -21 -32 -23 -27
-3 -33 0 -33 17 0 21 15 31 45 28 13 -1 20 -9 20 -22z"/>
<path d="M4559 993 c-13 -16 -12 -17 4 -4 16 13 21 21 13 21 -2 0 -10 -8 -17
-17z"/>
<path d="M445 979 c-80 -18 -107 -19 -190 -7 -16 2 -20 -2 -18 -26 4 -50 1
-49 208 -25 55 7 103 17 107 23 12 18 9 56 -4 55 -7 0 -53 -9 -103 -20z"/>
<path d="M975 856 c-2 -6 -5 -22 -7 -36 -4 -29 -29 -37 -51 -15 -22 21 -24 20
-37 -20 -13 -41 -2 -65 31 -65 11 0 19 -4 19 -8 0 -15 -57 -97 -89 -126 -29
-28 -41 -56 -23 -56 4 0 24 14 45 31 21 17 39 30 41 28 2 -2 0 -35 -5 -73 -5
-38 -8 -71 -6 -72 1 -1 14 0 29 3 18 3 28 13 33 30 4 18 10 23 22 19 9 -4 80
-9 157 -13 l141 -6 11 37 c14 46 -2 65 -38 42 -13 -8 -48 -16 -78 -18 -49 -3
-55 -1 -58 17 -2 17 5 23 39 30 34 8 44 15 50 36 10 40 -4 55 -32 35 -13 -9
-32 -16 -42 -16 -15 0 -18 7 -15 48 l3 47 42 -3 c34 -3 44 1 53 17 10 20 5 67
-10 76 -4 2 -25 -4 -46 -14 -36 -17 -70 -25 -101 -22 -8 1 -11 11 -7 29 5 24
2 28 -31 38 -27 9 -38 9 -40 0z m69 -142 c3 -9 6 -27 6 -41 0 -25 0 -25 -26
-8 -22 14 -28 15 -35 4 -7 -11 -9 -9 -9 5 0 22 27 56 45 56 7 0 16 -7 19 -16z
m-28 -130 c12 -3 24 -14 27 -25 4 -16 0 -19 -34 -19 l-39 0 1 48 c0 41 2 44
11 24 6 -12 21 -25 34 -28z"/>
<path d="M517 784 c-4 -4 -7 -22 -7 -41 0 -29 -3 -33 -25 -33 -23 0 -24 2 -15
21 7 11 10 22 8 23 -2 1 -16 8 -31 16 -35 17 -44 7 -52 -60 -3 -25 -10 -53
-16 -62 -23 -43 8 -54 38 -13 11 16 32 28 54 31 31 5 37 3 42 -16 5 -21 3 -22
-39 -17 -49 5 -59 -2 -50 -39 6 -21 12 -24 51 -24 39 0 45 -3 45 -21 0 -19 -5
-20 -72 -17 -40 2 -80 6 -88 8 -11 4 -15 -4 -15 -30 0 -29 3 -35 20 -32 11 2
94 3 183 4 111 1 165 4 167 12 11 38 13 63 5 76 -7 12 -13 9 -34 -13 -19 -21
-34 -27 -66 -27 -29 0 -40 4 -40 15 0 8 9 15 19 15 21 0 44 50 35 75 -7 17
-24 20 -24 5 0 -5 -9 -10 -20 -10 -20 0 -26 16 -12 35 4 6 21 12 37 14 42 4
45 8 45 47 0 38 -14 44 -30 14 -17 -31 -40 -25 -40 10 0 17 -5 30 -12 30 -7 0
-22 3 -33 6 -11 3 -24 2 -28 -2z"/>
<path d="M399 415 c-1 0 -3 -17 -4 -37 -4 -39 3 -45 33 -29 9 4 33 11 52 15
29 5 32 4 19 -6 -13 -11 -15 -27 -10 -85 6 -68 5 -73 -14 -73 -25 0 -52 -17
-42 -26 13 -13 110 -42 124 -37 17 7 19 173 2 190 -9 9 -3 19 21 41 18 17 29
35 26 41 -5 7 -42 10 -107 9 -54 -2 -99 -3 -100 -3z"/>
</g>
</svg>
