<svg xmlns="http://www.w3.org/2000/svg" width="1024" height="300"><path style="fill:#383f34;stroke:none" d="M0 0L0 44C6.14294 44.1798 11.0528 48.9834 17 48C20.585 54.5641 26.0949 51.2686 32 51C31.8241 49.1219 31.5618 47.8005 31 46C36.9856 44.7173 31.1815 37.8661 31 34L28 34L28 32L33 32C35.6568 27.1782 41.1753 27.6333 46 26C47.1254 28.029 48.3358 29.3428 50 31C53.5834 30.0827 56.5455 31.9973 60 33C59.0143 34.4785 59 34.2032 59 36C67.4676 37.9635 74.1917 41.6647 78 31C71.8065 25.7902 76.3776 19.5096 78 13C75.5664 11.869 73.909 10.8792 72 9C69.6197 11.1656 68.504 12.8109 68 16C66.3025 16.3763 63.8898 17.4926 62.1867 16.7137C56.3465 14.0429 57.1744 2.465 50.8526 0.433655C45.9206 -1.15112 39.1414 0 34 0L0 0z"/><path style="fill:#84ae74;stroke:none" d="M52 0C54.2828 3.99457 56.2208 8.22107 58.4213 12.2809C59.3684 14.0283 60.1134 16.539 62.1867 17.2678C64.0206 17.9124 66.3115 16.5968 68 16C68.7948 13.1475 70.1618 11.3272 72 9C73.6805 11.4184 75.1983 12.0842 78 13C75.9332 18.7405 71.0376 27.1578 78 31C77.3714 32.2368 76.7831 33.7472 75.9151 34.8557C70.7691 41.4279 65.4285 36.8697 59 36L60 33C56.4712 31.4913 53.6016 29.0957 50 31L46 26C41.2832 27.2203 34.7174 26.8215 33 32L28 32C28.9803 33.7834 28.9076 33.5943 31 34C30.0143 35.4785 30 35.2032 30 37C32.7048 39.8019 34.7486 43.4045 31 46L32 51C25.782 50.8415 21.6545 53.6246 17 48C10.9753 48.0685 6.22775 44.0693 0 44C0 69.3479 -2.17744 95.858 1 121C2.79684 121 2.52146 120.986 4 120C5.38386 123.552 6.9729 126.773 9 130L0 131L0 236C6.1845 236.51 15.417 240.322 20.0972 244.468C22.826 246.885 24.49 251.154 27.6127 252.998C31.0149 255.006 38.0768 253.97 42 254C41.2321 252.686 41.3141 252.768 40 252C41.8006 251.438 43.1218 251.176 45 251C40.9505 258.822 33.1051 267.308 24 265C25.7165 257.458 13.6682 257.173 8 256C10.0515 262.156 7.0544 265.035 1 266C-0.461669 277.566 -0.518615 288.7 2 300L14 300C10.3797 294.42 12 287.426 12 281C13.1952 282.223 13.3164 282.42 14 284L23 284C20.6446 286.399 18.2515 287.816 17 291L19 292C24.0301 288.919 30.1466 287.974 36 288C34.6733 290.521 33.4461 291.504 31 293C29.5735 291.51 29.1327 291.707 27 292C28.2484 292.685 28.5484 292.749 30 293C28.8078 302.298 39.6154 300 46 300L102 300C101.22 293.826 102.365 290.754 104 285C107.823 287.887 111.468 290.371 116 292C115.499 294.686 115.117 297.27 115 300C118.108 298.695 120.724 299.865 124.015 299.981C129.663 300.181 135.348 300 141 300C139.55 298.392 138.949 297.936 137 297C138.85 293.959 139.765 291.555 140 288C141.684 288.224 142.314 288.218 144 288L143 293L146 293C144.995 295.585 144.02 297.104 142 299C150.118 302.407 163.203 300 172 300L239 300L261 300C264.146 300 268.672 300.796 271.586 299.397C284.685 293.105 269.699 269.478 283 266C281.569 262.518 281.173 259.788 281.444 255.986C281.638 253.254 282.92 251.062 281 249C282.459 244.394 283.919 239.713 285 235C283.203 235 283.479 235.014 282 236C283.538 232.159 283.37 229.874 282 226L286 224C285.794 220.864 288.748 214.642 287 213C291.013 209.18 292.921 206.449 294 201L291 202C294.363 198.335 296.531 196.157 297 191C302.066 190.931 308.382 187.367 311 183C306.581 184.26 302.064 185.841 298 188C299.383 185.296 300.391 183.539 303 182L302 178C307.449 176.599 312.294 173.04 317 170L318 176L314 174L313 183L317 179C315.545 181.656 314.069 184.168 313 187C316.953 183.712 320.365 179.473 323.935 175.741C325.422 174.187 327.843 171.516 325 171C327.372 167.704 329.481 165.73 327 162L331 160L332 165L334 165C334.97 163.4 335.72 162.337 337 161L335 166C338.531 164.287 340.936 161.412 344 159L343 155L338 157L340 153C336.618 154.351 333.549 156.086 330 157C330.646 151.207 336.224 151.522 339.282 147.519C340.666 145.709 340.02 143.109 340 141C335.451 142.234 332.69 144.162 329 147L330 152C327.508 152.97 326.854 153.475 326 156L321 155C321 159.956 316.861 153.635 316 152C319.223 150.022 321.356 147.295 325 146L322 152L327 151C327.864 146.242 330.599 143.057 330 138C328.203 138 328.479 138.014 327 139L328 136L324 132C327.273 127.425 329.542 123.445 331 118C329.898 113.64 333.263 108.977 335 105C334.121 103.402 334.442 102.847 335 101L331 101C331 103.942 325.399 104.868 323 107C319.081 110.484 315.159 116.876 310.833 119.5C308.341 121.012 301.883 122.688 299 123C300.911 119.327 300.997 116.086 301 112C298.517 111.814 297.129 111.299 295 110C293.814 111.186 293.472 111.584 293 113C288.045 106.358 292.521 102.626 295 96C295.986 97.4785 296 97.2032 296 99C299.678 96.3993 298.752 92.1305 299 88C301.017 89.2526 301.623 89.3109 304 89C303.035 92.5103 303.55 95.4226 304 99C304.685 97.7516 304.749 97.4516 305 96L309 96L308 93C309.314 92.2321 309.232 92.3141 310 91C311.479 91.9857 311.203 92 313 92C314.683 85.7034 318.215 77.4424 317 71L322 72C317.342 63.4288 327.319 61.965 332.316 57.8557C335.21 55.4751 335.806 52.5425 336 49C334.339 49.2077 334.46 49.4955 334 48C332.203 48 332.479 48.0143 331 49L330 46C327.855 46.3094 325.093 46.2557 323.32 47.6782C320.949 49.5808 321.659 52.3696 320.995 54.9606C320.3 57.6768 318.211 60.5166 316.485 62.6991C313.789 66.1104 309.461 66.7314 308 71C301.342 71.4417 295.267 78.7019 289 77L288 80L285 76C292.59 74.6889 299.923 71.4716 300.87 63.0008C301.197 60.068 298.964 54.9117 300.871 52.5247C303.174 49.642 310.544 48.2291 314 47C314.492 40.705 314.322 38.7089 310 34L297 34C296.885 31.2557 293.693 27.7049 294.914 25.1844C296.113 22.7063 299.939 21.1632 302.17 19.7724C310.472 14.5966 321.378 11.4367 322 0C317.269 0 311.795 -0.763702 307.17 0.298584C302.21 1.43768 297.635 4.74731 293 6.72607C288.954 8.45303 285.014 7.70004 282.823 12.189C279.31 19.3875 277.78 30.2441 280.529 37.8704C281.694 41.1007 286.152 43.2195 285.688 46.9815C285.237 50.628 280.864 51.2241 278 52C277.581 50.0046 277.254 47.8902 276.347 46.0394C270.995 35.1161 259.016 44.1039 251.83 46.4514C248.059 47.6833 243.189 45.907 240.434 49.5725C234.83 57.0263 241.646 65.3139 249 66.4198C252.671 66.9718 256.294 67.0169 260 66.9992C265.131 66.9748 269.316 66.0816 274 64C274.93 68.2396 277.009 71.234 279 75C275.078 77.0101 273.511 79.9376 272 84C273.661 85.7572 273.983 86.5768 274 89C277.454 90.8681 281.924 97.4622 278.357 101.258C275.747 104.037 271.192 102.785 269.623 107.044C268.391 110.388 271.185 113.856 272 117C274.866 118.733 275.615 121.193 277.609 123.816C279.724 126.597 283.048 128.254 284.925 131.21C289.661 138.665 285.64 147.18 285 155C278.052 153.853 271.832 155.636 265.039 155.687C262.601 155.705 259.756 153.622 257.397 154.656C255.032 155.693 255.63 158.054 256 160C253.208 162.454 254.674 165.638 255 169C257.283 170.446 257.582 171.311 258 174C252.501 174.395 246.516 176.855 242 180C240.474 173.593 239.031 164.089 232 162C231.775 157.071 231.156 148.354 227.852 144.533C224.008 140.088 215.57 139.491 217 147C213.049 146.256 208.988 145.104 205 144.684C202.377 144.407 199.643 145.26 197.09 144.397C194.162 143.409 191.974 141.046 189 140L190 143C186.287 140.71 183.377 139.349 179 139L180 133C177.046 132.946 174.934 132.188 176 129C174.021 128.218 172.136 128.177 170 128C166.853 130.845 163.18 132.345 159 133C161.095 131.957 162.699 131.397 165 131C163.093 129.331 161.297 128.061 159 127C159.885 125.038 160.617 123.616 162 122L161 120C164.295 117.541 164.883 113.958 165 110C167.351 109.992 170.295 110.353 172.427 109.143C176.731 106.699 173.351 103.866 170 104C170.252 100.048 170.838 98.591 174 96C173.232 94.6859 173.314 94.7679 172 94C172.454 88.4174 168.205 86.8934 166.654 81.9846C165.165 77.2735 166.874 71.9286 166 67C163.546 67.7084 161.55 68.0381 159 68C159.277 70.1673 159.11 71.009 161 72C155.777 74.6363 156.269 78.8512 153 83C153.986 81.5215 154 81.7968 154 80C146.307 81.1896 143.278 69.9399 141 64L145 63L145 61C142.071 59.3705 139.256 57.7983 136 57L136 54C146.884 50.4505 143.039 38.2231 139 31C142.887 30.1671 141.463 27.458 142.611 24.2222C143.83 20.7861 146.482 16.7387 146.361 13C146.204 8.13989 142.747 7.1554 145 2C147.903 3.89844 149.764 2.71204 153 2L153 0L52 0z"/><path style="fill:#383f34;stroke:none" d="M145 2C142.493 6.99506 145.807 8.57483 145.867 13.4244C145.918 17.6422 142.37 28.8159 139 31C142.408 39.4731 146.323 48.4516 136 54L136 57L145 61L145 63L141 64C142.396 69.8358 146.6 82.8896 154 80L153 83C156.757 79.8434 155.523 74.7246 161 73L159 68C161.876 68.4037 163.342 68.1735 166 67C166.543 72.1343 165.035 78.0474 166.653 82.9568C168.116 87.3987 172.169 88.9393 172 94L174 94L174 96C171.878 96.7073 167.661 98.8747 169 102C169.846 103.973 170.672 101.312 170 104C172.911 104.054 175.933 106.076 172.409 108.686C170.332 110.224 167.433 109.973 165 110C164.742 113.974 163.678 117.034 161 120L162 122C160.157 123.453 159.741 124.735 159 127C161.035 128.297 162.695 129.333 165 130L159 132C162.957 133.405 167.555 131.28 170 128C172.121 128.246 173.874 128.231 176 128C173.869 131.72 176.221 133.148 180 133L179 139C183.128 139.738 186.21 141.361 190 143C190 141.203 189.986 141.479 189 140C191.425 141.285 193.606 143.462 196.17 144.411C198.661 145.334 201.414 144.759 204 144.938C208.351 145.24 212.669 146.45 217 147C216.719 139.5 224.113 140.648 227.852 145.329C230.946 149.203 231.576 157.139 232 162C238.939 165.397 239.555 173.332 242 180C246.977 177.473 252.451 174.791 258 174C257.936 171.007 258.054 169.654 255 169C254.954 165.53 253.888 162.943 256 160C255.934 158.249 255.587 156.22 257.434 155.152C259.552 153.928 262.739 155.879 265.039 155.853C271.761 155.776 278.151 154.428 285 155C285.964 147.109 289.706 138.969 285.505 131.153C283.871 128.114 280.42 126.506 278.264 123.861C276.014 121.1 275.564 118.038 272 117C271.535 113.879 268.635 110.116 270.086 107.044C271.852 103.304 275.703 104.079 278.393 101.826C282.545 98.3479 277.922 90.3027 274 89C274.133 86.3778 274.1 85.5542 272 84C273.933 80.3776 275.735 77.5269 279 75L274 64C269.249 65.5219 265.055 66.9376 260 66.9961C256.628 67.0352 253.337 66.9208 250 66.4198C242.648 65.3158 234.373 57.0957 241.032 49.5725C244.177 46.0204 248.746 47.7814 252.715 46.4514C260.188 43.9466 269.818 35.8537 275.861 46.0394C276.936 47.8511 277.414 49.9993 278 52C280.761 51.4543 285.238 51.1813 286.093 47.8673C287.232 43.4467 281.804 40.6696 280.529 36.946C278.02 29.6133 279.462 17.9042 283.729 11.3441C285.765 8.21478 288.762 8.38 292.001 7.43597C296.069 6.25024 302.733 3.54108 305 0L188 0C177.758 0 167.253 -0.680511 157.039 0.0540161C152.624 0.371521 149.327 3.81223 145 2M322 0C320.769 11.3109 309.527 14.4992 301.285 19.7724C299.087 21.1792 295.278 22.6567 294.174 25.1844C292.931 28.0319 296.62 31.1366 297 34L310 34C313.209 39.037 314.244 40.8142 314 47C310.576 47.774 302.286 49.5146 300.233 52.5247C298.538 55.0094 301.085 59.1622 300.852 62.0039C300.124 70.8595 292.531 73.9245 285 76C285.959 77.5969 286.726 78.6589 288 80C288.986 78.5215 289 78.7968 289 77C294.461 79.929 301.93 71.7906 308 71C310.065 67.3648 313.866 66.5704 316.485 63.4576C318.223 61.3921 320.374 58.4947 321.191 55.9105C322.002 53.3475 321.194 50.5379 323.356 48.4846C325.033 46.8912 327.867 46.6234 330 46C330 47.7969 330.014 47.5215 331 49L334 48C334.69 49.5372 334.328 49.3382 336 49C335.008 57.9344 328.592 57.6188 323.059 62.7137C320.415 65.1481 319.117 68.4797 322 71C320.153 71.2103 318.857 71.194 317 71C317.254 78.1235 314.18 85.0561 313 92L310 91C309.013 93.0175 308.767 93.8014 309 96C306.261 96.2107 305.578 96.3025 305 99C303.683 95.4588 303.276 92.7215 304 89C302.023 88.9537 300.823 88.7453 299 88C298.376 90.8545 299.723 100.421 295 96C291.984 101.646 287.217 107.499 293 113C294.186 111.814 294.528 111.416 295 110C297.228 111.897 298.109 112.319 301 112C300.986 116.058 300.448 119.22 299 123C309.845 121.856 315.329 114.944 323 108.06C325.465 105.848 330.543 104.121 331 101L335 101C334.15 102.999 333.67 103.429 335 105C333.077 108.098 328.329 114.914 331 118C329.227 122.887 327.031 126.764 324 131C325.264 133.573 325.044 135.357 328 136C327.014 137.479 327 137.203 327 139L330 138C329.965 142.808 326.83 146.395 327 151L322 152C323.273 149.997 324.172 148.223 325 146C320.967 146.855 319.002 149.334 316 152C316.722 153.873 320.285 159.351 321 155L326 156C327.155 153.867 327.882 153.218 330 152L329 147C332.82 145.013 335.868 142.536 340 141C339.766 143.159 339.909 145.743 338.438 147.506C335.191 151.397 330.264 151.083 330 157C333.801 156.399 336.677 154.897 340 153L338 157L343 155L344 159C340.609 160.809 338.118 163.757 335 166C335.89 164.255 336.453 162.875 337 161C335.267 162.222 334.849 163.009 334 165L332 165L331 160L327 162C328.734 165.743 326.674 167.605 325 171C328.322 171 325.542 173.504 324 175C320.208 178.679 315.974 181.998 314 187L317 179C315.392 180.45 314.936 181.051 314 183C313.59 179.961 313.807 177.059 314 174L318 176L317 170L302 178L303 182C299.89 183.111 299.088 184.937 298 188L311 183C307.667 186.702 302.065 190.589 297 191C296.222 195.884 293.45 198.041 291 202C292.797 202 292.522 201.986 294 201C292.615 206.104 290.108 208.867 287 213C288.366 215.133 285.371 220.592 286 224L282 226C282.874 229.706 282.964 232.303 282 236L285 235C283.516 239.632 281.839 244.202 281 249C283.138 254.595 279.618 260.22 283 266C273.399 267.411 278.133 278.954 277.662 285.576C277.306 290.588 274.231 295.207 273 300L526 300C525.329 289.892 520.242 280.758 518.13 271C517.339 267.349 518.33 263.658 517.62 260C516.761 255.569 514.667 251.391 513.597 247C511.352 237.78 510.395 228.256 508 219C511.969 216.747 514.138 213.847 519 214C519.979 210.326 519.798 208.26 516 207C516.004 202.233 516.155 198.955 519 195C519.16 195.729 519.004 197.477 520.333 197.417C522.704 197.309 524.786 195.496 527 194.722C530.007 193.671 532.884 193.83 536 194C534.278 186.084 526.317 182.275 527 174L529 174C529 175.797 529.014 175.521 530 177L534 175L533 171C539.883 174.743 549.51 173.373 547.333 183.975C546.985 185.671 546.468 187.335 546 189L543 188C541.441 190.598 541.013 191.503 539 191C540.771 193.503 542.036 193.578 545 193C543.703 195.035 542.667 196.695 542 199L538 199C537.595 201.127 536.775 202.965 536 205C540.331 204.658 544.847 204.239 549 203C549.915 205.24 551.332 207.521 551.532 209.975C551.941 215.005 548.863 219.908 553.652 224.147C556.231 226.429 560.727 227.319 564 228C565.056 225.248 567.085 222.71 567.722 219.83C569.832 210.294 570.403 199.068 581.004 194.293C584.971 192.506 589.741 193.979 594 193C593.232 191.686 593.314 191.768 592 191C592.986 189.521 593 189.797 593 188C591.521 187.014 591.797 187 590 187C593.812 180.239 593.94 173.197 596 166L592 165L596 163C595.372 150.994 600.649 136.098 607.103 126C611.54 119.059 617.85 112.584 621 105L625 106C628.571 104.48 630.643 107.375 633 110C636.987 108.175 638.993 110.245 642 113L636 110C635.161 116.616 640.581 120.831 644 126C640.104 124.179 637.482 121.493 635 118C634.742 120.603 635.933 122.581 637 125C631.656 125.675 636.831 134.166 637 138L627 136C629.075 134.047 630.065 132.684 631 130C628.658 131.363 627.508 132.732 626 135C623.49 132.758 621.018 130.694 619 128C615.53 133.929 612.875 134.98 606 135C606.589 139.662 606.911 144.43 608 149C617.718 147.355 625.421 143.688 634 139L635 143L626 145C628.89 146.213 631.874 145.998 635 146C632.734 148.04 630.763 149.721 628 151L629 148L623 149C625.244 151.116 626.931 151.668 630 152L630 154C627.216 154.058 624.709 154.352 622 155L623 158C618.254 156.995 613.802 157.007 609 157L608 160C605.616 157.79 604.396 156.246 604 153L598 153C598 157.472 596.413 165.883 599.742 169.401C602.69 172.518 606.704 171.754 609 176L600 175C602.297 178.017 605.41 177.78 609 178.166C617.495 179.08 625.535 178.07 634 177C629.001 179.659 624.644 180.822 619 180C615.565 185.298 603.58 182.903 598 182C598.687 187.1 598.809 196.81 603 200C602.149 202.673 601.41 205.225 601 208L596 207C596.986 205.521 597 205.797 597 204C593.357 203.585 591.225 204.291 588 206C588.986 204.521 589 204.797 589 203C584.852 205.15 583.45 208.752 580.985 212.557C579.416 214.98 577.044 216.774 575.608 219.259C572.645 224.388 571.466 230.089 568 235C569.206 236.958 570.36 238.384 572 240C569.958 240.895 568.172 241.536 566 242L565 247L572 250C571.582 252.689 571.283 253.554 569 255C570.735 256.05 570.931 256.046 573 256C576.255 260.276 583.106 258.824 588 259L587 255C589.403 252.917 589.845 249.014 591 246L597 249C598.586 242.41 601.232 240.08 608 240C608.511 241.952 608.733 242.457 610 244C606.389 249.437 607 256.703 607 263C611.531 262.987 617.687 260.54 621.91 261.657C629.972 263.79 626.203 270.568 621 273C621.047 277.044 621.454 280.675 624.725 283.505C627.228 285.669 630.217 286.123 632.021 289.189C634.088 292.701 633.355 296.178 633 300L854 300C852.772 296.989 851.571 294.208 851 291L853 294C853.956 289.88 852.399 286.989 851.344 283C849.398 275.64 846.717 268.422 845 261C846.873 260.992 847.612 260.886 849 262C849.896 258.84 848.116 256.169 851 254C849.59 246.378 850.117 240.785 859 241L858 236C859.878 235.824 861.199 235.562 863 235C862.904 233.547 862.705 232.391 863.083 230.956C866.388 218.39 876.096 230.266 882.259 233.124C885.603 234.675 889.451 234.296 893 234C893 232.203 892.986 232.478 892 231C896.85 231.603 901.165 231.977 906 231C906.378 234.085 906.111 236.096 905 239L911 240C912.788 238.579 913.706 238.303 916 238C916.899 235.876 916.876 235.899 919 235C917.752 234.315 917.452 234.251 916 234C916.895 231.958 917.536 230.172 918 228C913.207 223.64 911.402 217.122 907.147 212.545C904.207 209.383 900.063 208.342 899.858 203.289C899.667 198.602 903.675 194.841 904 190L909 200C910.797 200 910.522 199.986 912 199C913.099 200.84 912.83 200.542 915 200C916.447 202.844 918.001 203.95 921 205C920.064 206.949 919.608 207.55 918 209C919.408 219.829 925.896 227.498 937 229L938 238L945 238C944.014 239.479 944 239.203 944 241C949.396 238.032 953.964 238 960 238C959.543 240.041 959.559 243.313 958.092 244.928C956.1 247.12 949.905 247.61 947 249C945.25 246.552 943.996 246.225 941 246C940.728 249.564 940.068 251.121 937 253C935.686 251.382 935.123 251.307 933 251C932.082 245.592 924.001 242.417 919.589 246.606C914.804 251.15 916.386 260.718 912 266L913 261C910.641 260.52 909.337 260.481 907 261C905.369 259.372 904.332 259.695 902 260C903.08 263.409 901.342 267.585 904 270C903.091 272.487 902.445 275.323 903.5 277.972C904.811 281.263 907.309 281.207 908 278C912.478 280.322 914.627 282.906 915 288C907.594 288.026 900.265 291.92 900 300L919 300C918.771 295.239 920.946 290.874 921 286C922.701 287.154 924.762 289.165 926.921 289.292C931.822 289.581 935.53 282.614 941 282C940.846 277.275 939.923 274.785 935 274C934.971 265.811 929.095 261.04 929 253L934 253C935.559 257.653 939.412 254.977 941.822 258.357C943.938 261.325 942.238 266.685 946.274 268.377C953.331 271.336 956.032 259.509 955 255L961 258L960 262C964.436 262.905 966.328 264.841 968 269C966.217 269.98 966.406 269.908 966 272C964.591 271.595 963.452 271.122 961.959 271.188C950.774 271.682 957.312 282.63 950 287C947.902 283.904 945.117 284.696 943.318 288.059C941.46 291.533 941.905 296.201 941 300L956 300C956.508 293.361 962.161 293.043 961 300C964.907 299.874 967.479 298.495 971 297C972.04 301.853 979.911 300 984 300L1024 300L1024 214L1021 215C1021.6 216.195 1021.47 215.977 1023 217C1013.04 218.528 1012.45 209.755 1013 202C1010.65 202.953 1009.26 203.81 1008 206C1005.43 205.437 1003.61 205.564 1001 206L1000 201C1002.03 199.774 1002.33 199.297 1003 197C1001.69 197.768 1001.77 197.686 1001 199L996 197C1000.02 192.495 1001.5 189.384 1008 190C1008.75 187.054 1009.2 185.689 1006 185C1007.19 183.814 1007.53 183.416 1008 182C1003.98 179.727 1001.44 175.721 1005 172L1001 161L1006 160C1005.69 152.79 1008.64 146.111 1009 139L1005 140C1005.01 135.92 1005.49 132.037 1006 128C1008.72 129.958 1010.66 131.472 1014 132C1014.35 128.605 1014.92 126.13 1012 124L1012 122C1017.02 118.664 1015.52 114.397 1017.15 109.439C1019.59 101.997 1023.9 97.4028 1024 89C1024.35 59.3428 1024 29.6596 1024 0L852 0L809 0C804.589 0 797.086 -1.53128 794 2C795.797 2 795.522 1.98563 797 1C798.54 2.80304 799.597 2.83197 802 3C800.964 4.18643 800.661 4.60352 800 6C802.481 4.98273 803.264 4.56149 804 2C806.638 2.76489 808.031 4.59076 810.455 5.59644C814.238 7.16559 816.494 5.29037 818 10C819.607 8.99576 820.035 8.80353 822 9L825 6C825.7 9.07074 826.802 11.8424 827 15C836.888 13.8146 839.435 21.825 847 26L847 23C850.95 23.9533 853.572 25.93 857 28C858.906 25.6766 860.108 24.806 863 24L864 17C865.111 18.7425 865.27 19.1193 867 20L867 16C868.817 17.1569 868.835 17.1453 871 17C870.402 15.8046 870.534 16.0226 869 15C872.027 14.985 874.108 15.5687 876 13L880 14L886 10L888 10C891.897 15.9839 899.197 18.2904 906 19L903 21C905.267 22.0214 906.196 22.7195 908 21C908.026 23.5173 907.604 23.5222 905 24C906.649 26.2906 907.984 28.3654 909 31C911.315 27.2096 912.788 23.9148 917 22L916 29L920 28C919.5 29.5278 919.56 31.6866 918.806 33.1111C918.085 34.4717 916.508 35.0173 915.722 36.3055C913.791 39.472 914.278 45.2024 918 46C916.184 48.4548 915.063 49.9581 915 53L914 54C911.905 53.7618 910.111 53.8159 908 54L908 60L912 59C911.256 63.5244 911.17 68.9169 915 72C914.231 74.5954 914.22 77.2257 913.541 79.8295C912.554 83.6123 908.327 87.7806 912 91L912 93C909.026 95.3427 909.806 98.4668 910.146 101.999C910.828 109.092 914.017 117.856 912.478 124.942C911.524 129.33 907.586 130.922 907 136C906.014 134.522 906 134.797 906 133L897 132C896.877 129.096 897.17 126.787 898 124L894 124C895.479 123.014 895.203 123 897 123L897 120C894.443 119.246 892.631 118.76 890 119C891.392 117.567 892.233 116.955 894 116C890.836 109.967 886.53 113.608 882 116L883 114C881.203 114 881.479 114.014 880 115C879.474 112.457 879.122 111.465 877 110L878 107C876.949 105.031 877.313 104.175 878 102C872.631 102 878.297 95.1778 879 93C880.715 94.5505 881.823 95.2439 884 96C882.777 94.8047 882.58 94.6836 881 94C882.218 91.882 882.867 91.1553 885 90C884.543 88.0633 884.419 87.792 885 86C883.752 85.3151 883.452 85.2513 882 85C883.036 83.8137 883.339 83.3963 884 82C880.748 82.9138 878.352 83.7489 875 83C872.275 84.6134 868.828 83.4109 867 81C865.686 81.768 865.768 81.6858 865 83C863.529 79.9515 861.608 77.1908 863 74C861.231 73.2211 859.964 73.0876 858 73C858 74.7969 858.014 74.5214 859 76L856 75L856 80C854.32 78.5451 854.057 78.0308 853 80C852.119 77.9786 851.504 76.1458 851 74C848.214 74.5572 848.691 76.7654 848 74C845.808 76.0902 843.998 76.5193 841 77C843.688 81.7104 840.491 83.1425 837 86L839 78C836.618 78.9175 834.539 79.6756 832 80L832 86C830.521 85.0142 830.797 85 829 85L828 90L831 89C831.094 91.2049 831.356 92.8941 832 95C829.137 95.6118 820.799 103.144 825 103C823.896 104.457 823.457 104.896 822 106C823.615 109.802 824.073 116.456 827 119C824.703 121.875 825.049 126.153 829 127C825.569 130.928 824.76 134.197 823 139C825.511 139.359 827.498 139.402 830 139C830.178 142.846 832.203 146.597 834 150C830.698 151.88 829.508 154.271 829 158C827.365 157.455 827.545 157.635 827 156C826.317 157.506 826.174 158.315 826 160C824.521 159.014 824.797 159 823 159C821.723 160.915 821.723 160.085 823 162C817.82 160.753 807.071 160.865 809 153L797 148C798.847 147.79 800.143 147.806 802 148L799 143C793.437 142.539 788.503 139.824 783 139C783.986 137.521 784 137.797 784 136C782.203 136 782.479 136.014 781 137C779.006 133.221 777.648 131.255 779 127C774.784 123.908 771.768 120.26 771 115L773 119C774.697 114.604 770.589 109.222 769 105C773.857 104.19 767.436 91.549 767 88C765.392 91.8313 764.973 96.8577 764 101C761.718 99.6855 759.695 98.6411 756.998 98.473C754.108 98.2929 751.143 99.4375 748.618 97.4823C744.435 94.2427 747.399 90.1695 751.005 88.0903C755.388 85.5632 759.441 86.9608 764 88C761.759 77.3148 750.599 63.3571 738 67.8194C731.158 70.2427 726.774 76.739 720 79C719.535 64.1615 741.203 61.5673 751 67.4792C756.511 70.8045 759.904 76.2493 765 80C763.787 72.7618 754.942 66.9659 750.12 61.7292C747.771 59.1774 746.125 56.5863 743 55L744 51C740.576 46.4804 742.287 40.197 743.424 35C745.987 23.2968 750.056 11.9665 751 0L700 0L700 4L697 4C696.579 6.84296 696.061 8.01199 694 10C694.406 12.0924 694.217 12.0198 696 13C694.763 14.9489 694.763 15.0511 696 17C693.752 19.9223 693.462 23.3694 693 27C687.241 26.7489 681.8 25.048 676 25C676.562 23.1993 676.824 21.8782 677 20L673 19C673.986 17.5216 674 17.7967 674 16L668 18C669.059 15.882 670.43 14.5697 672 13L672 15C673.485 12.7637 674.287 10.591 675 8C672.217 7.55502 669.8 7.70322 667 8C666.101 10.1236 666.124 10.1007 664 11C664.768 12.3142 664.686 12.2321 666 13C663.002 18.3896 664.235 22.5768 670 25C662.792 27.589 655.39 31.2285 648 33C648.511 31.0476 648.733 30.5432 650 29C646.844 17.9353 647.081 11.1628 650 0L509 0C513.241 5.59113 515.913 8.96213 517 16C514.568 16.2894 511.522 17.554 509.104 17.0023C504.079 15.8556 503.499 9.17462 497.576 13.0015C496.729 13.5482 495.772 14.4041 495 15L496 19L492 20C493.248 20.6848 493.548 20.7488 495 21C494.255 23.279 493.334 25.0055 492 27C490.186 24.8484 488.48 22.9061 488.184 19.9854C487.775 15.9586 489.752 12.6844 486 10C488.453 9.8609 488.676 9.92935 490 12L495 11C496.156 6.65311 499.336 4.05811 501 0L322 0z"/><path style="fill:#84ae74;stroke:none" d="M495 11C493.122 11.1759 491.801 11.4382 490 12C489.422 9.30252 488.739 9.21063 486 9C489.659 14.7844 487.032 21.1257 491 27C493.972 25.4856 496.64 21.9993 492 21L496 19L495 15C496.915 13.987 499.374 11.6855 501.686 12.1705C504.796 12.823 505.786 16.8635 509.104 17.4383C511.63 17.8757 514.545 16.5025 517 16C516.699 10.0905 515.757 5.45825 510.575 1.74228C503.41 -3.39594 496.128 4.07651 495 11M650 29C648.382 30.314 648.307 30.8772 648 33C655.708 31.8404 662.141 26.9585 670 26C667.985 23.946 665.314 22.0921 664.56 19.152C663.818 16.2543 665.172 13.9641 664 11C666.364 10.5175 666.518 10.364 667 8L675 8C674.132 10.3546 673.426 12.5309 673 15C671.977 13.4661 672.195 13.5977 671 13L668 18C670.33 17.6845 671.918 17.0978 674 16L673 19L677 20L676 25C681.772 25.1198 687.228 26.8802 693 27C693.68 23.4034 694.25 20.2278 696 17C695.209 15.2391 695.038 15.4546 696 14L694 10C696.545 8.36539 696.779 7.00656 697 4L700 4L700 0L664 0C660.393 0 653.63 -1.27481 650.588 1.02777C648.878 2.32217 648.418 5.06705 647.851 7.00076C645.577 14.7628 647.023 21.6915 650 29M751 0C749.406 12.6111 745.198 24.4895 742.805 37C742.006 41.1766 740.504 47.9449 744 51L743 55C748.323 59.0314 752.366 65.1804 757.039 69.9969C760.152 73.205 763.674 75.6476 765 80C759.258 74.0003 754.388 67.2002 746 64.7894C736.7 62.1164 717.968 66.51 720 79C727.323 77.5186 731.856 70.2119 739 67.8333C750.798 63.9052 761.254 78.6016 764 88C759.188 86.4752 754.684 85.3218 750.019 88.0895C746.719 90.0477 744.314 93.4752 747.292 96.8519C750.53 100.524 759.31 98.9288 764 101C765.602 96.5154 765.999 92.7654 766 88C767.313 90.6257 767.068 93.2043 768 96C768.479 97.4377 770.509 98.5262 771 100C771.667 102.001 770.892 104.514 770 106L769 105C770.296 109.83 773.272 114.116 774 119C773.043 117.483 772.613 116.661 772 115C770.067 120.161 774.603 124.817 779 127C776.901 131.263 778.302 133.376 781 137L784 136L783 139C788.32 140.26 793.522 143.479 799 143C799.684 145.209 800.08 145.703 802 147L797 147C800.295 150.47 804.444 151.779 809 153C804.934 160.71 818.277 161.12 823 162C823 159.458 823.521 159.793 826 160L826 156C827.186 157.036 827.604 157.339 829 158C829.825 154.498 831.257 152.317 834 150C832.741 146.224 831.484 142.484 829 140L830 139L823 139L829 127C826.156 125.172 825.523 123.077 827 120C824.475 115.466 824.789 110.514 822 106C824.124 105.101 824.101 105.124 825 103C822.915 103 823.276 103.138 823 101C826.493 99.7489 828.413 96.4847 832 95L831 89C829.203 89 829.478 89.0144 828 90L829 85L832 86L832 80C834.724 79.8179 836.583 79.2646 839 78C838.009 80.7059 837.287 83.132 837 86C838.784 85.0197 838.594 85.0925 839 83C842.4 82.8246 843.766 80.4233 841 78C843.885 76.7233 846.342 77.3427 847 74C848.023 75.5339 847.805 75.4023 849 76C849.545 74.3649 849.365 74.545 851 74L852 80C853.761 79.2087 853.545 79.0383 855 80C855.779 78.2311 855.912 76.964 856 75C857.478 75.9856 857.203 76 859 76L858 73L863 73C860.826 76.5448 862.855 79.2706 864 83L867 81C867.693 84.1851 873.171 85.628 875 83C876.635 83.545 876.455 83.3649 877 85L884 82C883.455 83.6353 883.635 83.4549 882 84C883.248 84.6847 883.549 84.7488 885 85C883.714 87.2772 883.881 87.5894 885 90C882.475 90.8543 881.97 91.5083 881 94L884 95C881.873 94.5826 881.622 94.4492 880 93C877.733 94.8642 872.883 101.185 878 102C876.804 104.233 875.835 105.423 878 107C877.014 108.479 877 108.203 877 110C878.656 111.686 879.251 112.746 880 115L883 114L882 116C887.043 114.204 889.912 110.798 894 116C891.868 116.776 891.229 117.13 890 119L897 120L897 123L894 123C895.506 123.683 896.315 123.826 898 124C896.908 126.867 896.695 128.947 897 132C900.282 132.086 905.539 132.424 906 136C907.201 134.227 907.502 131.898 908.853 130.258C910.171 128.658 911.938 128.031 912.552 125.856C913.562 122.282 912.513 116.701 912.16 113C911.589 107.018 907.532 97.907 912 93L912 91C909.402 87.2207 912.485 84.6214 913.541 80.7106C914.304 77.8831 914.317 74.8688 915 72C911.851 68.1703 911.612 63.8091 912 59L908 60C908.184 57.8892 908.238 56.0948 908 54L914 54L915 53C915.277 50.2589 916.709 48.4143 918 46C911.091 41.5205 919.155 33.8385 920 28L916 29L917 22C912.418 23.2783 910.614 26.4208 910 31C908.574 28.3922 907.524 26.5622 905 25C907.462 23.8416 908.432 23.6655 909 21C906.666 21.7854 905.401 21.6129 903 21L906 19C898.931 17.0807 893.249 15.4313 888 10L886 10L886 12C882.966 11.4758 881.72 11.3997 880 14L876 13C873.78 14.9425 871.892 14.7269 869 15C869.598 16.1954 869.466 15.9775 871 17C869.048 17.0697 869.06 17.3537 868 16C867.317 17.506 867.174 18.3148 867 20C865.805 18.7773 865.684 18.58 865 17C863.607 19.311 863.235 21.3086 863 24C859.793 24.4969 858.557 25.1504 857 28C853.742 25.319 851.211 23.5922 847 23C845.723 24.915 845.723 24.085 847 26C840.798 20.8919 836.11 12.4187 827 15C827.331 11.539 826.228 9.20825 825 6C823.076 7.00122 822.902 7.07742 822 9C819.884 8.71927 820.062 8.39984 819 10C816.573 5.21017 815.088 6.94794 810.835 5.38889C808.157 4.40726 807.06 2.49487 804 2C802.849 4.01913 801.985 4.72342 800 6C800.545 4.36496 800.365 4.54504 802 4C800.192 3.03265 798.582 2.30161 797 1L794 2C791.281 -1.11188 785.891 0 782 0L751 0M599 9C598.908 7.83289 599.025 6.37057 598.397 5.29553C593.049 -3.85974 584.285 8.02939 593.995 8.94138C595.641 9.09604 597.349 8.99872 599 9M355 7L355 15C357.124 15.8993 357.101 15.8764 358 18C360.428 17.7381 362.572 17.7381 365 18C363.777 16.8048 363.58 16.6836 362 16C363.694 13.4584 362.929 13.4823 365 14C366.495 5.42841 361.997 5.87405 355 7M409 11C406.879 13.6622 404.505 15.948 403 19C407.801 18.4589 411.05 16.0669 409 11M458 11L458 13L460 13L460 11L458 11M450 13L450 15C451.635 14.455 451.455 14.6351 452 13L450 13M412 15L418 24C414.763 25.2625 413.416 27.6261 411 30C414.452 31.0309 416.535 29.8165 419 33C416.835 34.5771 417.804 35.7673 419 38C417.521 37.0143 417.797 37 416 37L419 51C420.797 51 420.521 50.9857 422 50L422 54C423.314 53.2321 423.232 53.3141 424 52C425.733 53.7567 426.341 54.642 427 57L423 56C426.158 59.6138 432.498 58.5247 434 54C435.479 54.9857 435.203 55 437 55C435.46 53.1969 434.402 53.168 432 53C431.808 47.7433 433.616 43.2988 433 38L430 39L426 29L423 30C422.707 24.568 419.914 20.8938 418 16L412 15M442 15C443.248 15.6848 443.548 15.7488 445 16C443.752 15.3152 443.452 15.2512 442 15M430 21C428.316 20.7761 427.687 20.7817 426 21C427.402 22.3507 428.176 23.2544 429 25C431.268 22.5789 432.685 20.043 434 17C431.374 17.8387 430.839 18.3735 430 21M440.667 19.3333C440.222 19.7777 441.278 19.7223 441.333 19.6667C441.778 19.2222 440.722 19.2778 440.667 19.3333M365 21C362.656 24.0897 360.21 34.0908 367.05 34.267C368.832 34.3129 370.571 32.8764 372 32C372.313 36.3465 372.068 39.8965 367 40C363.522 45.5416 360.751 54.6302 354.625 57.8827C351.626 59.4748 346.443 58.2747 343 59.0147C330.606 61.678 324.035 69.4407 324 82C325.517 78.8492 325.627 75.0762 327.728 72.1744C337.1 59.2279 352.295 69.4651 364 70C364.378 66.9153 364.111 64.9039 363 62C365.43 64.3106 366.062 65.6541 366 69C368.34 67.2145 368.419 65.8705 368 63C371.197 62.3114 370.746 60.9459 370 58C368.203 58 368.479 58.0143 367 59C366.232 57.6859 366.314 57.7679 365 57C369.846 50.1134 375.598 43.6083 381.177 37.2855C383.461 34.6975 385.048 31.7679 388 30C386.937 23.6135 380.394 23.1964 376 27C373.348 24.5834 371.595 23.3327 368 24L367 21L365 21M480.333 21.6667C480.278 21.7223 480.222 22.7777 480.667 22.3333C480.722 22.2778 480.778 21.2222 480.333 21.6667z"/><path style="fill:#383f34;stroke:none" d="M119 23C116.399 31.3362 119.395 37.2577 123 45C127.88 41.4771 124.929 31.6339 125 26C123.061 25.1083 122.481 24.5982 121 23L119 23z"/><path style="fill:#84ae74;stroke:none" d="M432 23C431.014 24.4785 431 24.2032 431 26C432.289 24.5573 432.401 24.7663 432 23M411 24L411 26L413 26L413 24L411 24M436.667 24.3333C436.222 24.7777 437.278 24.7222 437.333 24.6667C437.778 24.2223 436.722 24.2778 436.667 24.3333M424.333 25.6667C424.278 25.7223 424.222 26.7777 424.667 26.3333C424.722 26.2778 424.778 25.2221 424.333 25.6667M582 40C582.237 36.9998 583.868 32.3187 581.968 29.6528C578.516 24.8092 567.123 28.0707 569.786 34.7261C571.429 38.83 578.299 39.2799 582 40M354 38L355 28C350.823 28 344.358 26.7867 340.765 29.3179C337.149 31.8651 336.146 37.8715 341.133 39.4229C345.26 40.7063 349.831 38.265 354 38M940 28C937.359 32.3651 933.449 36.4796 929 39C927 36.7364 924.418 37.851 923.877 41.0193C923.429 43.6387 925.388 46.4985 926 49C932.692 50.2381 939.901 49.603 939 41C943.219 44.1465 946.588 47.602 947 53L955 53C954.719 55.1163 954.4 54.9374 956 56C953.723 58.0598 951.969 60.4109 949 59L947 59C945.663 60.2798 944.6 61.0304 943 62C946.033 67.7856 951.658 64.836 957 65L956 70L962 70C962.774 65.6135 965.863 55.2564 960 54C960.986 52.5214 961 52.7968 961 51L958 48L955 49C957.07 42.53 959.025 37.6809 957 31C952.811 31.6923 952.324 35.3237 948.776 36.5178C945.762 37.5323 941.344 36.3907 938 37C939.354 33.8107 941.324 31.4313 940 28M405 29C403.457 30.2666 402.952 30.4893 401 31C399.339 34.0724 397.375 35.2021 394 36L395 39L392 40C394.274 40.4087 395.781 39.7883 398 39C397.105 41.0417 396.464 42.8278 396 45C397.806 44.8047 400.929 44.2735 398 43C400.906 40.4665 403.714 38.0333 407 36L407 34C405.365 33.4549 405.545 33.6352 405 32C406.797 32 406.521 31.9857 408 31C406.777 29.8048 406.58 29.6836 405 29M685.333 31.6667C685.278 31.7223 685.222 32.7779 685.667 32.3333C685.722 32.2779 685.778 31.2222 685.333 31.6667M702.667 32.3333C702.222 32.7776 703.278 32.7223 703.333 32.6667C703.778 32.222 702.722 32.2779 702.667 32.3333M705.667 33.3333C705.222 33.7776 706.278 33.7223 706.333 33.6667C706.778 33.222 705.722 33.2779 705.667 33.3333M546 44C549.571 44.8416 552.516 48.0123 556.086 48.3958C560.411 48.8603 567.036 43.1642 564.623 38.6196C559.423 28.8224 547.32 35.7166 546 44z"/><path style="fill:#383f34;stroke:none" d="M768 35C765.796 38.9751 761.744 49.1624 765.028 53.4005C767.461 56.5404 773.701 55.7173 777 55L776 51C780.796 50.2831 778.092 38.0051 773 41L772 35C770.258 35.5839 769.742 35.5839 768 35z"/><path style="fill:#84ae74;stroke:none" d="M170 38C171.855 40.0589 173.576 41.668 176 43C174.716 46.5683 172.082 50.9397 173.747 54.7863C175.918 59.8019 184.423 61.3894 186.836 55.892C188.789 51.4443 184.872 46.7447 185 42C182.315 41.0034 180.122 39.9187 178 38C175.267 38.293 172.738 38.2298 170 38z"/><path style="fill:#383f34;stroke:none" d="M423 40L420 49C422.536 49.8837 424.323 50.1687 427 50C426.162 46.3803 425.235 42.9878 423 40z"/><path style="fill:#84ae74;stroke:none" d="M473 40L474 41L473 40M192 41C191.667 44.5172 191.136 47.2014 195 48C193.686 51.3677 190.202 57.1026 196 57C196.423 59.9855 198.223 62.9976 198.093 66C197.947 69.3391 196.299 72.6004 196 76C189.711 73.7985 184.558 73.869 178 74C176.074 80.1735 175.416 84.9014 178 91C180.812 90.5314 184.32 89.2978 187 89C187.761 88.9155 189.452 90.3869 191 90C194.248 89.1881 195.876 88.1237 198 86L199 87L199 80C205.993 80.441 208.62 77.5526 210 71L208 72C208.868 69.6453 209.574 67.4691 210 65L203 64C205.29 60.7518 206.453 57.9415 207 54C204.486 52.7254 201.445 50.7795 200.599 47.8719C200.046 45.9719 201.064 43.5019 199.354 42.0278C197.577 40.496 194.155 41.0076 192 41M390 42C390.614 44.8508 391.303 44.8543 394 44C392.623 43.0886 391.56 42.5962 390 42M149 47C146.272 48.9267 145.87 52.2388 144 55C145.926 57.2162 147.391 58.6943 150 60L149 56C151.035 54.7741 151.326 54.2973 152 52L153 56L159 57C160.338 53.8382 161.191 51.4501 161 48C158.488 47.8944 156.268 47.7691 157 45C153.624 43.3941 149.876 42.768 149 47M649 44C647.622 46.8334 645.383 49.7558 645.203 52.9954C644.931 57.873 649.041 59.4206 652.906 57.1559C654.763 56.0676 656.349 54.3678 658 53C657.014 54.4786 657 54.2032 657 56C658.82 53.8674 659.829 51.562 661 49C658.904 47.6059 658.668 47.1484 660 45C656.955 44.1621 653.583 46.0051 651 44L649 44M344 52C345.924 50.9989 346.099 50.9225 347 49C349.268 50.8167 350.531 52.4829 352 55C352.888 52.3181 352.094 50.597 351 48L353 49C352.108 46.9217 351.375 45.7536 350 48L348 45C345.542 47.1557 344.641 48.7901 344 52M633 46L633 48L635 48L635 46L633 46M545 58C541.239 50.1648 530.462 46.1926 522 47.554C518.405 48.1324 507.552 51.4941 512.323 57.088C516.036 61.4426 525.814 53.0505 530 52.3549C536.075 51.3455 539.969 55.6276 545 58M566.333 47.6667C566.278 47.7221 566.222 48.7779 566.667 48.3333C566.722 48.2777 566.778 47.2222 566.333 47.6667M416.667 48.3333C416.222 48.7777 417.278 48.7223 417.333 48.6667C417.778 48.2221 416.722 48.2778 416.667 48.3333M391.667 49.3333C391.222 49.7777 392.278 49.7223 392.333 49.6667C392.778 49.2221 391.722 49.2778 391.667 49.3333M434 49L434 51C435.635 50.455 435.455 50.6351 436 49L434 49M633 52C635.209 51.3161 635.703 50.9201 637 49C634.868 49.7765 634.229 50.1302 633 52M711 50L711 53L713 53L713 50L711 50M680 51L680 55L682 55L682 51L680 51M635 58L639 54C638.387 58.0434 640.266 58.993 644 60C643.598 57.4982 643.641 55.5107 644 53C638.942 52.4189 636.148 52.4999 635 58M418.667 53.3333C418.222 53.7777 419.278 53.7223 419.333 53.6667C419.778 53.2221 418.722 53.2778 418.667 53.3333M628 53L629 57C627.814 55.8136 627.416 55.4721 626 55L624 61C626.167 60.3346 627.888 59.3415 630 60C631.177 56.9633 630.661 54.8783 628 53M398 57C399.923 56.0984 399.999 55.9239 401 54C399.077 54.9015 399.001 55.0762 398 57M439 54L439 56L441 56L441 54L439 54M165 56C164.326 58.2974 164.035 58.7741 162 60C164.227 61.2581 166.597 62.096 169 63L171 57C168.969 56.4436 167.101 56.1653 165 56M418 57L418 59L422 59L422 57L418 57M501 57C501.684 58.58 501.805 58.7772 503 60L503 57L501 57M507 59C507.211 61.7386 507.302 62.422 510 63C509.224 60.8683 508.87 60.2292 507 59M658.333 59.6667C658.278 59.7221 658.222 60.7778 658.667 60.3333C658.722 60.2777 658.778 59.2221 658.333 59.6667M426 60C427.769 60.7789 429.036 60.9124 431 61C429.231 60.2211 427.964 60.0876 426 60M647 60C648.103 61.4566 648.543 61.8966 650 63C649.101 60.8764 649.124 60.8993 647 60M640 61C641.927 63.8949 643.987 63.8198 646 61C643.879 61.2465 642.126 61.2305 640 61M701 61C700.413 66.9683 702.784 71.5982 705 77C705.916 74.6995 705.879 73.6232 704 72L704 70C707.713 66.7529 704.48 62.8845 701 61M602 83C603.416 80.9584 603.745 79.489 604 77C606.419 77.2007 608.591 77.2717 611 77C611.424 79.6802 614.348 79.7612 617 79.9398C621.998 80.2764 630.654 80.191 635 78L635 81L639 79L638 82C640.613 83.0289 642.119 83.9296 644 86L648 85C648.482 88.8409 656.605 90.3159 658.912 86.6759C662.527 80.9708 647.978 74.3168 644 75C640.44 69.1808 629.823 70.4086 624 72L623 66L628 66C628.219 63.7384 628.004 63.9743 630 63C624.537 60.7757 621.659 64.8015 617.331 67.4475C609.859 72.0153 602.471 72.866 602 83M425 63C426.81 64.2397 426.777 64.1837 429 64C427.494 63.317 426.685 63.1741 425 63M504 63L504 65L506 65L506 63L504 63M562 63C557.218 70.5341 551.715 79.3266 555.603 88.8295C556.977 92.1877 561.285 93.6213 562.188 97.1705C563.918 103.973 555.161 114.233 563.34 119.701C565.554 121.181 568.525 122.026 571 123C571.81 114.012 579.23 108.475 581.66 100C583.778 92.6122 579.512 84.2608 578.553 77C578.108 73.6311 578.893 70.3657 576.343 67.6343C572.495 63.5107 567.185 63.3251 562 63M635 64L634 66L636 66C636 64.1467 636.3 64.6499 635 64M638 65L638 67L640 67L640 65L638 65M380 95C388.386 93.8941 388.956 84.4445 396.425 81.1373C400.49 79.3378 404.78 81.2262 409 81.2824C413.885 81.3474 419.263 80.1408 424 79L423 85C424.195 83.7772 424.316 83.58 425 82C431.513 85.388 432.821 82.1315 438 79C437.014 80.4785 437 80.2032 437 82L441 83L441 77C443.205 76.9059 444.894 76.6438 447 76C449.665 79.05 454.228 77.8336 458 77.8758C461.697 77.9171 465.302 78.8392 469 79C470.588 83.8147 475.984 87.7665 479 82C476.563 80.7232 473.128 75.7376 471 78C466.898 71.6422 455.738 67.3238 448.17 68.2994C444.355 68.7912 440.946 70.6505 437 70.9097C431.358 71.2803 425.673 70.0038 420 70C424.043 68.8045 428.538 69.7979 431 66C425.158 66.2547 420.42 68.3387 414.91 69.9097C401.319 73.7853 382.237 77.9193 380 95M504 67C504.776 69.1318 505.13 69.7708 507 71C506.326 68.7027 506.035 68.2259 504 67M930 68L930 73C931.952 73.5107 932.457 73.7334 934 75L939 74C939 70.3627 938.103 70.103 936 68L937 67L930 68M959 72C957.777 73.1953 957.58 73.3164 956 74L957 78C959.597 76.6702 960.591 75.5643 962 73L959 72z"/><path style="fill:#383f34;stroke:none" d="M427 73C428.506 73.683 429.315 73.8259 431 74C429.494 73.317 428.685 73.1741 427 73z"/><path style="fill:#84ae74;stroke:none" d="M502 74L502 77L504 77L504 74L502 74M510 75L511 81C511.889 78.4919 511.495 77.1851 510 75M506.333 76.6667C506.278 76.7223 506.222 77.7777 506.667 77.3333C506.722 77.278 506.778 76.2221 506.333 76.6667M682 77L682 79L684 79L684 77L682 77M687 77L686 81C687.656 79.5957 687.751 79.0465 687 77M1016 77C1015.39 77.1071 1013.94 77.0922 1013.31 77.6042C1007.09 82.7137 1019.22 91.2203 1017.12 81.0401C1016.84 79.7007 1016.35 78.3214 1016 77M921 79C920.657 83.3178 921.672 86.5672 926 88C926.176 89.8782 926.438 91.1994 927 93C925.078 93.9014 925.001 94.0763 924 96C921.291 95.3521 918.784 95.0583 916 95C916.032 97.875 915.792 100.075 918 102L917 106C920.616 110.207 914.44 116.691 922.028 117.954C922.928 118.104 923.866 118.17 924.778 118.188C926.295 118.216 926.719 117.727 928 117C929.937 122.886 931.77 125.637 938 127C939.496 124.554 940.479 123.327 943 122C943.385 118.558 943.976 116.763 947 115C944.057 112.077 940.578 112.792 937 111C939.897 106.87 941.395 99.9284 943 95C941.085 93.7233 941.915 93.7233 940 95C938.769 89.3738 934.836 95.8631 933 98C933.3 94.5601 934.232 91.3569 935 88L932 89C930.111 84.8047 925.602 79.7617 921 79z"/><path style="fill:#383f34;stroke:none" d="M145 80C144.274 82.1792 144.561 81.7803 143 81C144.145 84.6766 146.321 86.082 150 87C148.918 83.6998 147.891 81.9535 145 80z"/><path style="fill:#84ae74;stroke:none" d="M512.667 85.3333C512.222 85.7779 513.278 85.7221 513.333 85.6667C513.778 85.2223 512.722 85.2777 512.667 85.3333M661.333 86.6667C661.278 86.7221 661.222 87.7779 661.667 87.3333C661.722 87.2777 661.778 86.2222 661.333 86.6667M396 89C397.58 88.3164 397.777 88.1952 399 87C396.908 87.4057 396.98 87.2166 396 89M671.333 87.6667C671.278 87.7221 671.222 88.7778 671.667 88.3333C671.722 88.2777 671.778 87.2221 671.333 87.6667M704.333 87.6667C704.278 87.722 704.222 88.7778 704.667 88.3333C704.722 88.2777 704.778 87.2222 704.333 87.6667M316 94C319.228 94.6448 321.799 94.768 325 94L325 90C320.384 88.9525 317.724 89.311 316 94M985 90C983.605 92.0385 982.651 93.6271 982 96C985.492 94.9433 986.432 93.5824 987 90L985 90M365.333 93.6667C365.278 93.7223 365.222 94.7777 365.667 94.3333C365.722 94.2779 365.778 93.2222 365.333 93.6667M948 101C948.685 99.7515 948.749 99.4517 949 98C950.478 98.9856 950.203 99 952 99L953 94C947.424 93.0624 946.899 96.152 948 101M1023 95C1022.09 100.271 1018.95 103.79 1017.07 108.615C1015.06 113.787 1016.38 117.651 1012 122L1012 124C1014.13 126.578 1014.08 128.694 1014 132C1011 131.155 1008.77 129.377 1006 128C1005.25 132.036 1005 135.899 1005 140L1009 139C1008.3 146.071 1005.29 152.796 1006 160L1001 161C1001.62 165.098 1003.46 168.235 1005 172C1000.37 174.997 1003.68 180.516 1008 182C1006.81 183.186 1006.47 183.584 1006 185C1008.15 186.529 1008.12 187.339 1008 190C1001.34 188.833 999.456 191.7 996 197C998.889 198.266 1000.13 198.323 1003 197C1002.06 198.949 1001.61 199.55 1000 201L1001 206C1003.42 205.799 1005.59 205.728 1008 206C1009.55 204.344 1011.07 203.203 1013 202C1012.02 209.912 1012.7 219.333 1023 217C1022.4 215.804 1022.53 216.023 1021 215C1026.8 211.243 1024 196.366 1024 190C1019.35 192.763 1016.05 196.697 1011 199C1011.74 194.376 1014.63 194.087 1016.99 190.586C1019.29 187.162 1020.04 181.842 1022 178C1016.27 174.752 1020.78 170.594 1022.5 166C1024.63 160.281 1023.03 153.688 1017 152L1017 157C1014.7 155.739 1012.5 154.791 1010 154C1014.26 147.975 1013.7 145.645 1011 139C1013.2 139.481 1013.8 139.481 1016 139C1015.67 143.296 1016.67 144.654 1021 145C1020.72 140.613 1021.69 136.36 1021 132L1017 133C1019 129.183 1019.19 124.949 1021 121C1022.11 122.743 1022.27 123.119 1024 124C1023.96 120.327 1022.63 116.6 1022.85 113C1023.23 107.05 1025.43 100.796 1023 95z"/><path style="fill:#383f34;stroke:none" d="M155 96C154.401 100.741 152.846 108.488 160 105L160 103L155 96z"/><path style="fill:#84ae74;stroke:none" d="M361 96C359.994 98.969 359.401 101.889 359 105C361.417 102.312 362.386 99.5514 363 96L361 96M321 103C323.209 102.316 323.703 101.92 325 100C322.868 100.776 322.229 101.13 321 103z"/><path style="fill:#383f34;stroke:none" d="M121 101C119.216 103.007 117.405 104.71 116 107C121.236 106.338 125.021 105.891 130 108C129.579 105.157 129.061 103.988 127 102L123 105C122.404 103.44 121.911 102.377 121 101z"/><path style="fill:#84ae74;stroke:none" d="M607 103L607 107L609 107L609 103L607 103M625 106L621 105C616.584 112.297 610.871 118.655 606.478 126C603.17 131.533 601.281 137.957 599.142 144C596.968 150.143 594.891 156.445 596 163C594.248 163.564 593.458 163.919 592 165L596 166C595.455 167.635 595.635 167.455 594 168C595.221 174.701 592.53 180.81 590 187L593 188C592.922 190.083 593.158 191.081 594 193C589.424 193.755 584.256 192.258 580.015 194.279C570.061 199.023 569.678 209.807 567.722 218.91C567.026 222.152 564.781 224.732 564 228C560.695 226.941 556.149 226.039 553.652 223.487C549.448 219.19 552.122 214.926 551.758 209.975C551.567 207.359 550.27 205.215 549 203C544.745 204.016 540.34 204.452 536 205C537.151 202.808 537.758 201.421 538 199L542 199L545 193C542.158 193.138 541.121 192.882 539 191C541.463 190.919 541.942 190.269 543 188C544.479 188.986 544.203 189 546 189C547.368 185.348 549.823 178.409 546.107 175.318C543.356 173.031 536.561 172.392 533 171L534 175C532.018 175.465 531.594 175.704 530 177L529 174L527 174C525.456 182.299 533.649 186.436 536 194C531.334 193.337 521.62 197.97 519 195C515.519 198.409 516.001 202.356 516 207C519.249 208.806 519.599 210.383 519 214C513.86 213.163 511.71 215.845 508 219C509.857 228.578 511.299 238.563 513.597 248C514.663 252.376 516.834 256.569 517.607 261C518.19 264.347 517.099 267.648 517.799 271C519.852 280.827 524.719 289.938 526 300L633 300C633.839 295.679 634.699 292.291 632.039 288.344C630.335 285.817 627.689 285.323 625.445 283.505C622.056 280.758 621.131 277.138 621 273C626.784 271.347 630.526 264.175 622.826 261.579C618.291 260.05 611.832 262.959 607 263C607 256.382 607.399 250.179 610 244C609.043 242.483 608.613 241.661 608 240C600.96 240.025 598.09 241.767 597 249L591 246C589.434 249.003 589.032 252.345 587 255L588 259C582.715 258.441 577.223 259.668 573 256L569 256C570.479 255.014 570.203 255 572 255L572 250C569.618 248.929 567.525 247.683 565 247L566 242C568.447 241.691 569.834 241.195 572 240C570.749 238.424 569.573 237.255 568 236C575.454 225.438 578.325 211.358 589 203L588 206C591.099 204.921 593.699 204.053 597 204L596 207L601 208L603 200C599.109 195.526 599.184 187.738 598 182C602.232 183.476 617.876 185.245 619 180C624.513 181.492 628.757 179.77 634 178C623.63 174.281 609.675 183.414 600 175C603.011 175.712 605.906 175.923 609 176C607.354 171.045 602.654 172.272 599.742 168.683C596.656 164.879 598 157.58 598 153L604 153C603.014 154.479 603 154.203 603 156L608 160C608.986 158.521 609 158.797 609 157L623 158C623 156.203 622.986 156.478 622 155C624.686 154.499 627.27 154.117 630 154L630 152C627.531 151.574 625.355 150.868 623 150L629 148C628.014 149.478 628 149.203 628 151C630.854 150.194 632.66 148.817 635 147C632.11 145.787 629.126 146.002 626 146L635 143L634 139C629.371 140.739 625.359 143.697 620.83 145.624C616.886 147.302 612.158 147.899 608 149L606 135C612.19 134.996 617.176 135.221 618 128L625 135L631 130C629.855 132.218 628.551 134.041 627 136L637 138C636.984 134.315 632.318 125.69 637 125C636.223 122.511 635.183 120.328 634 118C636.982 121.552 639.425 124.708 644 126C641.469 120.321 636.101 116.53 636 110C638.003 111.253 639.767 112.242 642 113C639.387 109.569 636.964 107.392 633 110C631.244 107.238 628.118 102.862 625 106z"/><path style="fill:#383f34;stroke:none" d="M923 104L922 110C924.921 108.897 925.897 107.921 927 105L923 104z"/><path style="fill:#84ae74;stroke:none" d="M952 125C956.073 123.98 959.82 123.85 964 124C964.581 127.49 965.44 128.547 969 128C968.232 126.686 968.314 126.768 967 126C968.968 119.136 964.335 114.7 960.451 109.421C959.252 107.792 958.398 104.912 955.981 104.863C950.55 104.752 947.151 114.741 948.167 118.909C948.726 121.2 950.654 123.138 952 125M177 107L180 112C177.475 110.364 175.967 110.521 173 111C173.143 115.487 174.76 118.207 177 122L183 121C182.014 122.479 182 122.203 182 124L185 123C182.817 116.446 183.665 113.732 185 107C182.175 106.385 179.873 106.656 177 107M766 106L766 108L768 108L768 106L766 106M357 107L356 109L358 109C358 107.147 358.3 107.65 357 107M361 107L361 111C361.71 109.241 361.71 108.759 361 107M985 107C981.788 113.057 982.704 122.42 984 129C994.236 128.184 989.151 112.377 985 107M606 110C606.263 113.41 606.679 114.901 610 116L607 112L611 112C609.25 110.745 608.143 110.386 606 110M763.333 110.667C763.278 110.722 763.222 111.778 763.667 111.333C763.722 111.278 763.778 110.222 763.333 110.667z"/><path style="fill:#383f34;stroke:none" d="M1023 110C1022.41 112.688 1022.32 114.341 1023 117C1024.06 114.466 1024.06 112.534 1023 110z"/><path style="fill:#84ae74;stroke:none" d="M534 133C534.18 130.353 533.819 128.532 533 126C537.75 122.364 533.254 111.478 527.275 111.832C523.71 112.043 522.253 116.113 523.286 119.004C525.086 124.04 529.257 130.57 534 133M406 146L403 146C403.008 149.169 403.1 151.959 404 155C406.598 154.32 408.675 153.339 411 152C409.209 155.078 406.039 155.129 404.027 157.727C401.252 161.31 401.202 170.459 400 175C403.838 176.55 405.633 178.661 408 182L405 183L406 189C407.431 191.183 407.328 192.375 407 195C408.6 195.97 409.663 196.72 411 198L414 197C413.339 195.604 413.036 195.186 412 194L421 192C418.559 193.878 417.104 195.125 416 198C419.483 197.412 420.647 196.237 422 193C435.537 195.155 448.211 190.288 461 186.615C466.482 185.04 475.413 181.304 469 175C460.292 187.225 442.482 185.629 429 187.285C422.398 188.096 414.982 189.233 410 184C417.996 186.364 426.844 183.648 435 183.09C441.072 182.674 447.06 183.513 452.999 181.794C457.39 180.523 461.676 179.082 464 175C462.203 175 462.479 175.014 461 176L460 172C464.275 170.979 469.809 171.226 473.088 167.826C477.958 162.775 468.539 160.27 465 161C467.341 162.524 469.861 163.156 472 165C467.076 164.608 462.664 162.82 458 165C461.28 157.271 459.139 149.838 461 142C462.825 143.336 463.753 143.69 466 144L465 136L461 137L463 134C461.521 133.014 461.797 133 460 133C457.711 138.741 452.11 148.44 447 139L451 139L452 133C446.872 135.052 442.6 138.226 439.599 143C437.691 146.035 438.129 148.973 435 151C437 148.094 436.086 138.712 432 143C427.864 141.166 424.558 140.051 420 140C420.742 137.316 421.14 135.878 419 134C420.844 130.593 422.221 128.178 426 127L427 134C430.352 134 434.667 136.389 438 135C440.586 133.923 440.813 131.979 442 130L443 131L442 126C445.502 126.825 447.683 128.257 450 131C453.024 129.911 454.261 128.701 456 126C456.845 128.852 457.018 130.364 460 131C457.777 124.299 450.634 114.323 442.999 113.364C439.373 112.909 435.591 114.464 432 114.829C428.096 115.226 424.502 114.919 421.043 117.148C413.292 122.145 406.596 137.02 406 146M449 113C452.917 118.729 457.056 124.187 464 126C461.36 121.408 453.8 115.027 449 113M637 113C639.639 118.031 647.581 124.81 652 118C645.092 119.135 642.784 115.751 637 113M644 115C646.3 115.916 647.377 115.879 649 114L644 115M761 114C756.806 119.388 750.693 124.208 744.911 127.867C741.398 130.09 738.102 130.176 736 134C747.611 131.346 761.421 128.259 763 114L761 114z"/><path style="fill:#383f34;stroke:none" d="M0 117L0 131L9 130L4 120L1 121C0.825888 119.315 0.683041 118.506 0 117z"/><path style="fill:#84ae74;stroke:none" d="M336 118L336 120C337.635 119.455 337.455 119.635 338 118L336 118M415 118C409.19 123.625 405.313 123.285 398 125L399 131C401.85 130.979 404.271 130.81 407 130C405.121 133.416 404.124 136.09 404 140C405.967 136.589 408.886 132.7 407 129C410.751 126.547 415.674 122.909 415 118M728 121C731.17 120.827 733.136 120.644 735 118C731.802 118.23 730.234 118.704 728 121M654 120L653 122L655 122C655 120.147 655.3 120.65 654 120z"/><path style="fill:#383f34;stroke:none" d="M432 121C432.052 123.528 432.278 125.582 433 128C433.985 125.668 433.981 123.543 434 121L432 121M1020 121L1017 133L1021 132L1021 145C1016.99 144.375 1015.93 143.02 1016 139C1014.15 139.202 1012.85 139.202 1011 139C1011.66 141.559 1013.61 144.238 1013.5 146.921C1013.39 149.516 1011.1 151.751 1010 154L1017 157L1017 152C1022.21 154.191 1022.89 157.657 1023 163C1024.59 159.715 1024 155.643 1024 152C1024 144.668 1024.07 137.332 1024 130C1023.97 126.107 1023.52 123.032 1020 121z"/><path style="fill:#84ae74;stroke:none" d="M347 124L347 126L349 126L349 124L347 124z"/><path style="fill:#383f34;stroke:none" d="M621 127C623.132 126.223 623.771 125.87 625 124C623.051 124.936 622.45 125.392 621 127z"/><path style="fill:#84ae74;stroke:none" d="M342 125L341 129C342.303 127.332 342.553 127.008 342 125M339.333 126.667C339.278 126.722 339.222 127.778 339.667 127.333C339.722 127.278 339.778 126.222 339.333 126.667M637 126C638.48 128.412 639.524 129.661 642 131C640.591 128.436 639.597 127.33 637 126M461 127L463 132C463.893 129.415 463.175 128.549 461 127M342 130L342 132L344 132L344 130L342 130M638 131L639 135C639.553 132.992 639.303 132.668 638 131M333 136L332 140C333.303 138.332 333.553 138.008 333 136z"/><path style="fill:#383f34;stroke:none" d="M412 137C412.21 143.463 415.431 146.783 422 145C420.994 143.269 420.454 141.947 420 140C417.703 139.326 417.226 139.035 416 137C414.258 137.584 413.742 137.584 412 137M460 141L464 141L463 138C461.076 139.001 460.902 139.077 460 141z"/><path style="fill:#84ae74;stroke:none" d="M550 138C549.101 140.124 549.124 140.101 547 141L548 148L555 151C557.207 143.824 559.901 138.118 550 138z"/><path style="fill:#383f34;stroke:none" d="M603 138L604 143C604.916 140.7 604.879 139.623 603 138z"/><path style="fill:#84ae74;stroke:none" d="M640 141C641.457 139.896 641.897 139.457 643 138C640.877 138.899 640.899 138.876 640 141M636.667 140.333C636.222 140.778 637.278 140.722 637.333 140.667C637.778 140.222 636.722 140.278 636.667 140.333M934 141L934 147C937.924 148.389 941.336 149.739 943 145L939 145L939 141C937.805 141.598 938.023 141.466 937 143L936 141L934 141z"/><path style="fill:#383f34;stroke:none" d="M455 145L455 151C456.225 148.987 456.645 147.341 457 145L455 145z"/><path style="fill:#84ae74;stroke:none" d="M638 145C636.451 147.136 635.136 148.451 633 150C634.139 151.015 634.612 151.309 636 152L641 145L638 145M926 145C925.11 146.745 924.547 148.125 924 150C927.529 149.629 929.281 149.216 931 146C929.686 146.768 929.768 146.686 929 148C927.889 146.258 927.729 145.881 926 145M462 158C464.197 155.045 464.747 152.592 464 149C465.783 148.02 465.594 148.092 466 146C460.857 147.701 462.247 153.386 462 158M767.333 148.667C767.278 148.722 767.222 149.778 767.667 149.333C767.722 149.278 767.778 148.222 767.333 148.667M357 150L356 154C357.303 152.332 357.553 152.008 357 150z"/><path style="fill:#383f34;stroke:none" d="M166 152C166 155.347 165.742 159.517 162 160C165.143 165.716 172.165 172.041 179 171C177.137 162.533 168.612 161.406 168 152L166 152z"/><path style="fill:#84ae74;stroke:none" d="M360 152L359 154L361 154C361 152.147 361.3 152.65 360 152M641 152L641 155C642.195 153.777 642.316 153.58 643 152L641 152z"/><path style="fill:#383f34;stroke:none" d="M454 153L454 157C454.71 155.24 454.71 154.759 454 153z"/><path style="fill:#84ae74;stroke:none" d="M632 153L632 155C633.635 154.455 633.455 154.635 634 153L632 153M648 156L651 155C649.222 154.045 648.979 154.234 648 156M644 155L645 156L644 155z"/><path style="fill:#383f34;stroke:none" d="M449 156L450 169C451.726 164.887 451.285 159.815 449 156M333 160C335.124 159.101 335.101 159.124 336 157C333.876 157.899 333.899 157.876 333 160z"/><path style="fill:#84ae74;stroke:none" d="M469.667 157.333C469.222 157.778 470.278 157.722 470.333 157.667C470.778 157.222 469.722 157.278 469.667 157.333M648 159C650.093 158.594 650.02 158.783 651 157C649.42 157.684 649.223 157.805 648 159M375 158L375 160L380 160L380 158L375 158M522 158L522 162C522.71 160.24 522.71 159.76 522 158M637.333 158.667C637.278 158.722 637.222 159.778 637.667 159.333C637.722 159.278 637.778 158.222 637.333 158.667z"/><path style="fill:#383f34;stroke:none" d="M326.667 159.333C326.222 159.778 327.278 159.722 327.333 159.667C327.778 159.222 326.722 159.278 326.667 159.333z"/><path style="fill:#84ae74;stroke:none" d="M643 162C644.924 160.999 645.099 160.922 646 159C643.877 159.899 643.899 159.876 643 162z"/><path style="fill:#383f34;stroke:none" d="M427 160L427 168C428.161 165.23 428.161 162.77 427 160z"/><path style="fill:#84ae74;stroke:none" d="M346 161L345 163L347 163C347 161.147 347.3 161.65 346 161M380.667 161.333C380.222 161.778 381.278 161.722 381.333 161.667C381.778 161.222 380.722 161.278 380.667 161.333M784 161C785.223 162.195 785.42 162.316 787 163C785.777 161.805 785.58 161.684 784 161z"/><path style="fill:#383f34;stroke:none" d="M322 162C320.964 163.186 320.661 163.604 320 165C321.994 164.153 322.699 163.993 322 162z"/><path style="fill:#84ae74;stroke:none" d="M600 162C601.393 163.434 602.233 164.045 604 165C602.771 163.13 602.132 162.777 600 162M647 162C646.455 163.635 646.635 163.455 645 164C646.769 164.779 648.036 164.912 650 165C650 163.203 649.986 163.478 649 162L647 162M814 162C815.226 164.035 815.703 164.326 818 165C816.771 163.13 816.132 162.777 814 162M634.333 163.667C634.278 163.722 634.222 164.778 634.667 164.333C634.722 164.278 634.778 163.222 634.333 163.667z"/><path style="fill:#383f34;stroke:none" d="M1023 164C1020.95 168.401 1015 175.668 1022 178C1019.36 181.745 1019.27 186.087 1016.99 189.776C1014.54 193.719 1011.4 193.818 1011 199C1022.99 195.542 1024 186.859 1024 176C1024 172.017 1024.55 167.699 1023 164z"/><path style="fill:#84ae74;stroke:none" d="M389 165L390 166L389 165M600 165C601.811 167.631 604.055 168.802 607 170C607.545 168.365 607.365 168.545 609 168C606.117 166.774 603.022 165.869 600 165M371 166L371 171C372.421 169.212 372.697 168.294 373 166L371 166M613 167C613.545 168.635 613.365 168.455 615 169L615 167L613 167z"/><path style="fill:#383f34;stroke:none" d="M454 173L458 171C458 169.203 457.986 169.479 457 168C454.821 169.539 454.427 170.355 454 173z"/><path style="fill:#84ae74;stroke:none" d="M608 169C609.413 173.356 613.696 175.145 618 176C615.784 172.722 611.581 170.654 608 169M348 171L347 175C348.146 173.36 348.393 172.924 348 171M473 171L473 173L475 173L475 171L473 171M328 172L328 175C329.797 175 329.522 174.986 331 174C329.777 172.805 329.58 172.684 328 172M462 172L462 174L464 174L464 172L462 172M341 173L341 176C342.195 174.777 342.316 174.58 343 173L341 173M364 173L364 176C365.195 174.777 365.316 174.58 366 173L364 173M374 175C373.344 178.534 372.055 182.423 375 185C375 183.203 374.986 183.478 374 182L377 183C376.563 179.83 376.033 177.48 374 175M358.667 176.333C358.222 176.778 359.278 176.722 359.333 176.667C359.778 176.222 358.722 176.278 358.667 176.333M380.333 176.667C380.278 176.722 380.222 177.778 380.667 177.333C380.722 177.278 380.778 176.222 380.333 176.667z"/><path style="fill:#383f34;stroke:none" d="M196 177C195.357 180.702 198.117 191.287 203 186C204.85 186.202 206.15 186.202 208 186C208.578 188.697 209.261 188.789 212 189L212 184C210.203 184 210.479 184.014 209 185C207.266 182.997 205.645 183.077 203 183L204 179C200.714 179.086 198.746 178.849 196 177z"/><path style="fill:#84ae74;stroke:none" d="M326 177C325.528 178.416 325.186 178.814 324 180C324.745 181.823 324.954 183.023 325 185C326.874 182.567 327.255 179.98 328 177L326 177M335 178L335 182C336.87 180.771 337.224 180.132 338 178L335 178M388.333 178.667C388.278 178.722 388.222 179.778 388.667 179.333C388.722 179.278 388.778 178.222 388.333 178.667M355 180C356.377 180.911 357.44 181.404 359 182C358.386 179.149 357.697 179.146 355 180M369.333 179.667C369.278 179.722 369.222 180.778 369.667 180.333C369.722 180.278 369.778 179.222 369.333 179.667M343 180L341 189C343.376 186.283 344.245 183.507 345 180L343 180M394 180C394.307 182.123 394.382 182.686 396 184C395.489 182.048 395.267 181.543 394 180M323 182C323.031 183.832 322.921 183.559 324 185C323.749 183.548 323.685 183.248 323 182M389 182L390 191C388.175 189.664 387.247 189.31 385 189L389 194C392.231 189.965 392.452 185.97 389 182M318 183L318 185C319.635 184.455 319.455 184.635 320 183L318 183M330 183L330 186C331.015 184.861 331.309 184.388 332 183L330 183M336 186C337.923 185.098 337.999 184.924 339 183C336.876 183.899 336.899 183.876 336 186M376.333 185.667C376.278 185.722 376.222 186.778 376.667 186.333C376.722 186.278 376.778 185.222 376.333 185.667M333 186L333 192C334.968 190.536 335.352 189.394 336 187C334.263 187.062 334.36 187.02 333 186M358.333 186.667C358.278 186.722 358.222 187.778 358.667 187.333C358.722 187.278 358.778 186.222 358.333 186.667M365 186C365.406 188.092 365.217 188.02 367 189C366.309 187.612 366.015 187.139 365 186M324 187L324 189L326 189L326 187L324 187M394 187L394 191C398.147 192.27 399.818 193.125 402 197C403.242 193.415 400.44 190.294 399 187C397.686 187.768 397.768 187.686 397 189C395.814 187.964 395.396 187.661 394 187M351 188C349.056 192.017 346.649 198.096 351 201C350.789 196.745 352.422 191.965 351 188M949 195L945 193L945 200C948.593 200.476 956.897 198.38 956.208 193.103C955.92 190.904 952.974 188.205 950.843 189.885C949.362 191.053 949.273 193.327 949 195M630 189C630.684 190.58 630.805 190.777 632 192C631.316 190.42 631.195 190.223 630 189M904 190C903.337 194.974 899.249 198.9 899.474 204.003C899.702 209.189 904.304 209.927 907.147 213.299C911.097 217.983 912.483 224.638 918 228C917.144 230.941 915.344 233.196 919 234C916.934 235.339 916.475 235.635 916 238C913.598 238.168 912.54 238.197 911 240C908.894 239.356 907.205 239.094 905 239C906.548 235.995 906.697 234.307 906 231C901.249 231.377 896.746 231.336 892 231L893 234C890.017 234.112 886.9 234.431 884.015 233.453C877.254 231.162 866.034 216.865 862.703 230.956C862.333 232.52 862.7 233.466 863 235L858 236L859 241C849.872 240.064 849.142 246.19 851 254C846.578 254.952 849.201 258.663 850 262C848.047 260.907 847.265 260.837 845 261C846.58 271.696 854.261 283.089 853 294C852.014 292.521 852 292.797 852 291C847.961 302.679 866.656 300.013 873 300C875.487 299.995 878.223 300.238 880.536 299.147C885.333 296.884 887.924 292.033 893 290C893.412 293.492 893.575 296.516 893 300L900 300C900.564 292.61 908.075 288.082 915 288C914.83 282.684 913.121 279.782 908 278C903.889 283.253 903.392 272.656 904 270C902.054 266.935 903.332 263.438 902 260C904.11 259.992 905.17 260.051 907 261C909.121 260.754 910.874 260.769 913 261L912 266C917.557 261.569 915.012 252.389 919.589 247.333C923.686 242.805 931.464 246.038 933 251C934.952 251.511 935.457 251.733 937 253C940.576 251.563 940.877 249.714 941 246C943.806 246.426 944.948 247.035 947 249C949.813 248.086 956.267 247.427 958.183 245.383C959.847 243.607 959.703 240.264 960 238C954.076 238 948.987 237.413 944 241L945 238L938 238L937 229C926.188 226.493 920.129 219.783 918 209C920.035 207.774 920.326 207.297 921 205C918.405 203.655 916.761 202.333 915 200C913.355 199.823 913.353 199.859 912 199L909 200C907.633 196.484 906.374 192.959 904 190M377 192C376.519 194.201 376.519 194.799 377 197C377.83 194.97 377.83 194.03 377 192M371 193L371 195L373 195C372.455 193.365 372.635 193.545 371 193M499 193C499.482 195.364 499.636 195.518 502 196C500.999 194.076 500.923 193.902 499 193M338 194L337 198C338.656 196.596 338.751 196.046 338 194M624 194L624 196L626 196L626 194L624 194M371.333 196.667C371.278 196.722 371.222 197.778 371.667 197.333C371.722 197.278 371.778 196.222 371.333 196.667M383 196C383.513 198.475 383.604 198.575 386 198C384.861 196.985 384.388 196.691 383 196M921 199C922.478 199.986 922.203 200 924 200C923.615 202.621 925.43 207.762 928.683 204.087C930.303 202.256 929.975 199.25 930 197C926.661 197.071 923.889 197.269 921 199M360.333 198.667C360.278 198.722 360.222 199.778 360.667 199.333C360.722 199.278 360.778 198.222 360.333 198.667M363 198L363 200L365 200L365 198L363 198M408 198L408 201L410 201L410 198L408 198M377 199C377.899 201.124 377.876 201.101 380 202C379.101 199.876 379.124 199.899 377 199M398.333 199.667C398.278 199.722 398.222 200.778 398.667 200.333C398.722 200.278 398.778 199.222 398.333 199.667M403 199L406 205C404.521 204.014 404.797 204 403 204L405 208L408 207C407.46 202.999 406.666 200.873 403 199M301 203C303.132 202.224 303.771 201.87 305 200C303.051 200.936 302.45 201.392 301 203M384 202L384 204L386 204L386 202L384 202M772 203C772.899 205.124 772.876 205.101 775 206C774.101 203.876 774.124 203.899 772 203M813.667 203.333C813.222 203.778 814.278 203.722 814.333 203.667C814.778 203.222 813.722 203.278 813.667 203.333M425.333 204.667C425.278 204.722 425.222 205.778 425.667 205.333C425.722 205.278 425.778 204.222 425.333 204.667M332.333 205.667C332.278 205.722 332.222 206.778 332.667 206.333C332.722 206.278 332.778 205.222 332.333 205.667M376 205C376.951 209.418 378.233 214.261 382 217C380.696 212.796 378.921 208.299 376 205M388 205C388.531 207.738 389.103 210.362 390 213C393.552 209.57 391.716 207.32 388 205M415 206L415 208L417 208L417 206L415 206M372 208L373 212C373.683 210.494 373.826 209.685 374 208L372 208M381 209C381.684 210.58 381.805 210.777 383 212C382.316 210.42 382.195 210.223 381 209M399 209C399.937 211.664 400.694 213.375 403 215L403 211L399 209M385 210L385 212L387 212L387 210L385 210M970 210L969 217C971.664 219.497 972.927 222.959 975.619 225.451C980.679 230.136 985.359 232.804 989 239C989.685 237.752 989.749 237.451 990 236L994 237C993.414 234.07 990.857 233.571 993 230L994 231C992.351 226.982 992.164 223.099 991 219L986 220C984.195 212.589 976.966 210.305 970 210M767 211C768.343 214.284 769.665 215.756 773 217C771.656 213.711 770.475 211.978 767 211M374.333 213.667C374.278 213.722 374.222 214.778 374.667 214.333C374.722 214.278 374.778 213.222 374.333 213.667M393 213C392.598 216.493 391.883 218.92 395 221L394 217L396 217C395.224 214.868 394.87 214.229 393 213M815 213C816.229 214.87 816.868 215.224 819 216C817.771 214.13 817.132 213.777 815 213M313 214L314 215L313 214M371 216L371 218L373 218L373 216L371 216M635 216L634 217L635 222C637.503 220.229 637.578 218.964 637 216L635 216M762.667 217.333C762.222 217.778 763.278 217.722 763.333 217.667C763.778 217.222 762.722 217.278 762.667 217.333M839 217C840.103 218.457 840.543 218.897 842 220C841.518 217.636 841.364 217.482 839 217M1008 223C1002.97 222.199 999.649 223.363 1001 229L1006 229L1004 236L1008 237C1010.81 231.963 1013.04 228.204 1019 227C1019.85 224.62 1020.67 222.512 1021 220C1018.42 220.322 1016.4 220.973 1014 222L1013 217C1009.72 218.252 1008.73 219.575 1008 223M367.333 218.667C367.278 218.722 367.222 219.778 367.667 219.333C367.722 219.278 367.778 218.222 367.333 218.667M399 218C399.406 220.092 399.217 220.02 401 221C400.316 219.42 400.195 219.223 399 218M759 218L759 220L761 220L761 218L759 218M409 220L409 223C410.195 221.777 410.316 221.58 411 220L409 220M610 223C608.562 226.565 608.768 228.424 610 232C611.935 229.801 612.981 228.161 616 229C616.89 227.255 617.453 225.875 618 224C616.686 224.768 616.768 224.686 616 226C614.034 224.488 612.37 223.759 610 223M689 223L690 224L689 223z"/><path style="fill:#383f34;stroke:none" d="M537 225L539 230L545 229L547 225C543.508 225.412 540.484 225.575 537 225z"/><path style="fill:#84ae74;stroke:none" d="M757 225C758.654 228.199 760.533 229.965 764 231C762.503 227.346 760.881 225.82 757 225M638 226L638 230C635.753 230.31 634.826 230.664 633 232C632.455 230.365 632.635 230.545 631 230C629.243 231.733 628.358 232.341 626 233C625.763 236.977 626.241 239.074 629 242C627.169 244.663 627.937 246.866 628 250L634 251C635.36 247.191 635.986 244.068 636 240L633 241C636.237 235.808 639.785 232.137 641 226L638 226M366.333 227.667C366.278 227.722 366.222 228.778 366.667 228.333C366.722 228.278 366.778 227.222 366.333 227.667M792.667 227.333C792.222 227.778 793.278 227.722 793.333 227.667C793.778 227.222 792.722 227.278 792.667 227.333M694 230L695 236C695.889 233.492 695.495 232.185 694 230M758 233L761 238C761.611 235.184 760.444 234.325 758 233M687 235L687 241C688.063 239.031 688.532 237.202 689 235L687 235M692 235C692.376 239.566 693.778 243.021 696 247C697.955 242.198 695.027 238.627 692 235M711 235C711.545 236.635 711.365 236.455 713 237L713 235L711 235z"/><path style="fill:#383f34;stroke:none" d="M0 236L0 270C0.683041 268.494 0.825891 267.685 1 266C7.25818 265.43 11.0766 262.31 8 256C13.669 257.609 24.6426 257.579 24 265C26.0799 265.753 28.4484 266.959 30.7122 266.307C35.9128 264.81 43.4439 255.93 45 251L40 251L42 254C38.2199 253.922 31.7457 254.575 28.3796 252.923C25.1231 251.325 23.4498 246.895 20.8302 244.468C16.0169 240.006 6.48644 236.284 0 236z"/><path style="fill:#84ae74;stroke:none" d="M751 240L751 242L754 242L754 240L751 240M973 241C971.03 244.92 969.824 247.67 971 252C975.959 250.006 974.724 245.64 975 241L973 241M713.333 242.667C713.278 242.722 713.222 243.778 713.667 243.333C713.722 243.278 713.778 242.222 713.333 242.667M767 242L767 244L769 244L769 242L767 242M691 243L691 247C692.084 245.137 692.073 244.882 691 243M998 243L998 245L1000 245L1000 243L998 243M833 244L834 245L833 244M755.667 245.333C755.222 245.778 756.278 245.722 756.333 245.667C756.778 245.222 755.722 245.278 755.667 245.333M688 246L688 252L690 252C689.826 249.387 689.582 248.057 688 246M1011 250L1011 256L1014 255C1013.47 252.457 1013.12 251.465 1011 250M708 252L708 256C709.797 256 709.522 255.986 711 255C709.897 253.543 709.456 253.103 708 252M415 253L415 255L417 255L417 253L415 253M822 253C823.223 254.195 823.42 254.316 825 255C823.777 253.805 823.58 253.684 822 253M929 253C929.029 261.189 934.905 265.96 935 274C939.377 275.27 940.663 277.546 941 282C934.942 282.334 932.93 287.788 927.753 288.713C925.494 289.117 922.946 286.91 921 286C920.897 289.474 917.975 294.572 918.827 297.682C919.431 299.888 922.172 299.9 924.005 299.981C927.846 300.15 938.326 301.728 940.972 298.397C943.433 295.3 941.593 290.471 944.509 287.205C946.55 284.92 947.983 285.374 950 287C958.205 283.851 950.559 272.208 961.959 271.367C963.336 271.265 964.681 271.714 966 272C966.684 270.42 966.805 270.223 968 269C966.753 264.34 964.815 262.542 960 262L961 258C958.997 256.748 957.233 255.758 955 255C955.625 258.976 952.664 271.313 946.274 267.914C942.295 265.797 944.248 260.569 941.822 257.617C939.548 254.852 936.107 256.629 934 253L929 253M753 255L752 260C753.879 258.377 753.916 257.3 753 255M976 260C974.174 258.664 973.247 258.31 971 258C971.162 261.539 971.932 264.631 973 268C978.734 266.425 984.169 262.204 982 256C979.415 257.005 977.896 257.98 976 260M694.333 257.667C694.278 257.722 694.222 258.778 694.667 258.333C694.722 258.278 694.778 257.222 694.333 257.667M746 260L746 262L748 262L748 260L746 260z"/><path style="fill:#383f34;stroke:none" d="M567 268C568.351 270.684 569.364 276.152 571.738 277.958C574.504 280.062 578.07 278.433 581 281L591 279L590 272C584.568 271.391 580.568 268.297 579 263C574.815 264.972 571.661 267.077 567 268z"/><path style="fill:#84ae74;stroke:none" d="M411 264C410.503 267.79 411.135 269.328 415 270L413 264L411 264z"/><path style="fill:#383f34;stroke:none" d="M957 267L954 272C956.747 270.706 958.027 269.884 959 267L957 267z"/><path style="fill:#84ae74;stroke:none" d="M280 268C279.014 269.479 279 269.203 279 271C280.289 269.557 280.401 269.766 280 268M404.333 268.667C404.278 268.722 404.222 269.778 404.667 269.333C404.722 269.278 404.778 268.222 404.333 268.667M714 269L714 271L716 271L716 269L714 269M991 270L993 278L995 278C995.889 274.769 995.602 272.284 995 269L991 270M387.333 271.667C387.278 271.722 387.222 272.778 387.667 272.333C387.722 272.278 387.778 271.222 387.333 271.667M406 272L409 279C410.075 276.261 409.64 273.845 409 271C407.203 271 407.479 271.014 406 272M399 273C397.442 275.633 397.514 277.111 400 279C399.825 276.869 399.712 274.993 399 273M403 273C403.776 275.132 404.13 275.771 406 277C405.326 274.703 405.035 274.226 403 273z"/><path style="fill:#383f34;stroke:none" d="M552 276C554.36 277.313 556.391 278.341 559 279L561 275C557.269 274.245 554.544 272.614 552 276z"/><path style="fill:#84ae74;stroke:none" d="M758 276C761.306 275.727 763.975 275.389 767 274C763.619 272.621 760.256 273.036 758 276M416 275C416.307 277.123 416.382 277.686 418 279C417.436 277.248 417.081 276.458 416 275z"/><path style="fill:#383f34;stroke:none" d="M532 275L529 282L536 285C535.86 282.408 536.263 281.293 537 279C535.203 279 535.479 279.014 534 280L534 275L532 275z"/><path style="fill:#84ae74;stroke:none" d="M979 275C979.208 279.082 978.671 282.554 983 284C983.899 281.876 983.876 281.899 986 281C985.291 276.556 983.394 275.335 979 275M412.333 278.667C412.278 278.722 412.222 279.778 412.667 279.333C412.722 279.278 412.778 278.222 412.333 278.667M292.333 279.667C292.278 279.722 292.222 280.778 292.667 280.333C292.722 280.278 292.778 279.222 292.333 279.667z"/><path style="fill:#383f34;stroke:none" d="M12 281C12 285.301 9.83552 293.964 12.1937 297.566C15.1322 302.056 26.357 300 31 300C29.9955 296.895 30.4139 293.743 27 293C29.0762 292.375 29.0868 292.241 31 293C33.8901 291.787 35.0456 290.994 36 288C31.2445 287.419 23.0509 287.992 20 292C18.5215 291.014 18.7968 291 17 291L23 284C18.0648 284 16.1061 283.004 12 281z"/><path style="fill:#84ae74;stroke:none" d="M375 281L375 285C375.71 283.241 375.71 282.759 375 281M960.332 283.072C956.496 285.485 960.889 291.612 964.41 288.954C967.85 286.356 964.128 280.684 960.332 283.072z"/><path style="fill:#383f34;stroke:none" d="M104 285C101.516 290.551 100.868 293.902 102 300L115 300L116 292L104 285M140 288C139.569 291.309 138.348 293.962 137 297C141.991 299.493 144.639 298.582 146 293L143 293L144 288L140 288z"/><path style="fill:#84ae74;stroke:none" d="M948 288C947.455 289.635 947.635 289.455 946 290C945.823 291.645 945.859 291.647 945 293C948.73 295.354 952.064 296.835 954 292L951 293C950.383 290.697 949.743 289.628 948 288z"/><path style="fill:#383f34;stroke:none" d="M881 300C889.733 300 894.871 300.237 893 290C887.937 291.357 883.477 295.397 881 300M861 293C861.899 295.124 861.876 295.101 864 296C863.518 293.636 863.364 293.482 861 293z"/><path style="fill:#84ae74;stroke:none" d="M956 300C956.753 299.941 958.209 300.023 959.012 299.682C965.069 297.113 957.821 290.045 956.148 296.899C955.931 297.789 956.028 299.159 956 300z"/><path style="fill:#383f34;stroke:none" d="M0 296L0 300L2 300L2 296L0 296z"/><path style="fill:#84ae74;stroke:none" d="M967 300C969.739 299.789 970.422 299.697 971 297C968.703 297.674 968.226 297.965 967 300z"/><path style="fill:#383f34;stroke:none" d="M116 298L116 300L119 300L119 298L116 298z"/></svg>