<?xml version="1.0" encoding="utf-8"?>
<!-- Generator: Adobe Illustrator 21.0.2, SVG Export Plug-In . SVG Version: 6.00 Build 0)  -->
<svg version="1.1" id="Layer_1" xmlns="http://www.w3.org/2000/svg" xmlns:xlink="http://www.w3.org/1999/xlink" x="0px" y="0px"
	 viewBox="0 0 1579.9 200" style="enable-background:new 0 0 1579.9 200;" xml:space="preserve">
<style type="text/css">
	.st0{fill:none;}
	.st1{fill:#A8DAEC;}
	.st2{clip-path:url(#SVGID_2_);}
	.st3{fill:#FFFFFF;}
	.st4{fill:#D6D6D5;}
	.st5{fill:none;stroke:#D6D6D5;stroke-width:2;stroke-miterlimit:10;}
	.st6{clip-path:url(#SVGID_4_);}
	.st7{fill:none;stroke:#5879DA;stroke-width:2;stroke-miterlimit:10;}
	.st8{fill:none;stroke:#010101;stroke-width:2;stroke-miterlimit:10;}
	.st9{fill:#5797D1;}
	.st10{fill:none;stroke:#D6D6D6;stroke-width:2;stroke-miterlimit:10;}
	.st11{clip-path:url(#SVGID_6_);}
	.st12{fill:none;stroke:#000000;stroke-width:2;stroke-miterlimit:10;}
	.st13{fill:none;stroke:#161E37;stroke-width:2;stroke-miterlimit:10;}
	.st14{fill:url(#SVGID_7_);}
	.st15{fill:none;stroke:#FFFFFF;stroke-width:2;stroke-miterlimit:10;}
	.st16{fill:url(#SVGID_8_);}
	.st17{clip-path:url(#SVGID_10_);}
	.st18{fill:url(#SVGID_11_);}
	.st19{fill:url(#SVGID_12_);}
	.st20{fill:#2874BB;}
	.st21{fill:#F5F5F5;}
	.st22{fill:url(#SVGID_13_);}
</style>
<pattern  y="200" width="4" height="4" patternUnits="userSpaceOnUse" id="_2x2_-_Black" viewBox="0 -4 4 4" style="overflow:visible;">
	<g>
		<rect y="-4" class="st0" width="4" height="4"/>
		<rect y="-4" class="st0" width="4" height="4"/>
		<rect y="-2" width="2" height="2"/>
	</g>
</pattern>
<title>Asset 3</title>
<g id="Layer_2">
	<g id="Layer_2-2">
		<path class="st1" d="M1579.9,200L1579.9,200c0-108.5-88-196.5-196.5-196.5h-226.8c-11.9,0-23.4,4.5-32.2,12.6
			c-8.8,8.1-20.3,12.6-32.2,12.6H989.9c-22.3,0-43.7,8.2-59.4,22.7l0,0c-15.8,14.5-37.1,22.7-59.5,22.7H739.5
			c-34.8,0-68.3,13.1-93.8,36.8c-26.1,24.3-61.6,38.1-98.7,38.1h-16.6c-26.2,0-51.5,9.9-70.8,27.7L434.4,200H1579.9z"/>
		<g>
			<defs>
				<path id="SVGID_1_" d="M1579.9,200L1579.9,200c0-108.5-88-196.5-196.5-196.5h-226.8c-11.9,0-23.4,4.5-32.2,12.6
					c-8.8,8.1-20.3,12.6-32.2,12.6H989.9c-22.3,0-43.7,8.2-59.4,22.7l0,0c-15.8,14.5-37.1,22.7-59.5,22.7H739.5
					c-34.8,0-68.3,13.1-93.8,36.8c-26.1,24.3-61.6,38.1-98.7,38.1h-16.6c-26.2,0-51.5,9.9-70.8,27.7L434.4,200H1579.9z"/>
			</defs>
			<clipPath id="SVGID_2_">
				<use xlink:href="#SVGID_1_"  style="overflow:visible;"/>
			</clipPath>
			<g class="st2">
				<path d="M1555.9,176c-27.4-27.4-64.5-42.8-103.2-42.8h-209.5c-22.1,0-43.2,8.8-58.8,24.4c-15.6,15.6-36.7,24.4-58.8,24.4H999.3
					c-16.3,0-32,6.5-43.5,18h624.2L1555.9,176z"/>
			</g>
		</g>
		<path d="M548.8,200c20.9,0,40.9-8.3,55.6-23l0,0c17.8-17.8,41.9-27.8,67-27.8h66c14.4,0,28.2-5.7,38.4-15.9s24-15.9,38.4-15.9
			h111.3c19.4,0,38.1-7.7,51.8-21.5l0,0c13.7-13.7,32.4-21.5,51.8-21.5h184.6c34.1,0,66.9,13.6,91,37.7l87.8,87.8H548.8z"/>
		<rect x="1041.9" y="32.1" class="st3" width="25.1" height="86.1"/>
		<rect x="1067.1" y="32.1" class="st4" width="17.9" height="86.1"/>
		<rect x="1119.3" y="53.3" class="st4" width="23.6" height="146.7"/>
		<path class="st3" d="M1095.4,53.3h23.9l0,0V200l0,0h-44l0,0V73.3c0-11,8.9-20,20-20C1095.3,53.3,1095.3,53.3,1095.4,53.3z"/>
		<line class="st5" x1="1092.1" y1="61.3" x2="1092.1" y2="153.4"/>
		<line class="st5" x1="1099.5" y1="61.3" x2="1099.5" y2="153.4"/>
		<line class="st5" x1="1106.9" y1="61.3" x2="1106.9" y2="153.4"/>
		<line class="st5" x1="1114.3" y1="61.3" x2="1114.3" y2="153.4"/>
		<rect x="1101.6" y="153.5" class="st4" width="17.8" height="46.5"/>
		<polygon class="st4" points="1101.6,118.2 1136.9,153.5 1101.6,153.5 		"/>
		<g>
			<defs>
				<polygon id="SVGID_3_" points="1101.6,118.2 1136.9,153.5 1101.6,153.5 				"/>
			</defs>
			<clipPath id="SVGID_4_">
				<use xlink:href="#SVGID_3_"  style="overflow:visible;"/>
			</clipPath>
			<g class="st6">
				<line class="st7" x1="1092.1" y1="61.3" x2="1092.1" y2="153.4"/>
				<line class="st7" x1="1099.5" y1="61.3" x2="1099.5" y2="153.4"/>
				<line class="st8" x1="1106.9" y1="61.3" x2="1106.9" y2="153.4"/>
				<line class="st8" x1="1114.3" y1="61.3" x2="1114.3" y2="153.4"/>
			</g>
		</g>
		<rect x="850.3" y="44.6" class="st3" width="48" height="155.4"/>
		<rect x="898.3" y="44.6" class="st4" width="27.3" height="155.4"/>
		<rect x="860.1" y="34.1" class="st3" width="43.2" height="10.5"/>
		<line class="st5" x1="854.8" y1="53.3" x2="861.7" y2="53.3"/>
		<line class="st5" x1="865.5" y1="53.3" x2="872.4" y2="53.3"/>
		<line class="st5" x1="876.2" y1="53.3" x2="883.2" y2="53.3"/>
		<line class="st5" x1="887" y1="53.3" x2="893.9" y2="53.3"/>
		<line class="st5" x1="854.8" y1="59.2" x2="861.7" y2="59.2"/>
		<line class="st5" x1="865.5" y1="59.2" x2="872.4" y2="59.2"/>
		<line class="st5" x1="876.2" y1="59.2" x2="883.2" y2="59.2"/>
		<line class="st5" x1="887" y1="59.2" x2="893.9" y2="59.2"/>
		<line class="st5" x1="854.8" y1="65.1" x2="861.7" y2="65.1"/>
		<line class="st5" x1="865.5" y1="65.1" x2="872.4" y2="65.1"/>
		<line class="st5" x1="876.2" y1="65.1" x2="883.2" y2="65.1"/>
		<line class="st5" x1="887" y1="65.1" x2="893.9" y2="65.1"/>
		<line class="st5" x1="854.8" y1="71" x2="861.7" y2="71"/>
		<line class="st5" x1="865.5" y1="71" x2="872.4" y2="71"/>
		<line class="st5" x1="876.2" y1="71" x2="883.2" y2="71"/>
		<line class="st5" x1="887" y1="71" x2="893.9" y2="71"/>
		<line class="st5" x1="854.8" y1="76.9" x2="861.7" y2="76.9"/>
		<line class="st5" x1="865.5" y1="76.9" x2="872.4" y2="76.9"/>
		<line class="st5" x1="876.2" y1="76.9" x2="883.2" y2="76.9"/>
		<line class="st5" x1="887" y1="76.9" x2="893.9" y2="76.9"/>
		<line class="st5" x1="854.8" y1="82.8" x2="861.7" y2="82.8"/>
		<line class="st5" x1="865.5" y1="82.8" x2="872.4" y2="82.8"/>
		<line class="st5" x1="876.2" y1="82.8" x2="883.2" y2="82.8"/>
		<line class="st5" x1="887" y1="82.8" x2="893.9" y2="82.8"/>
		<line class="st5" x1="854.8" y1="88.7" x2="861.7" y2="88.7"/>
		<line class="st5" x1="865.5" y1="88.7" x2="872.4" y2="88.7"/>
		<line class="st5" x1="876.2" y1="88.7" x2="883.2" y2="88.7"/>
		<line class="st5" x1="887" y1="88.7" x2="893.9" y2="88.7"/>
		<line class="st5" x1="854.8" y1="94.6" x2="861.7" y2="94.6"/>
		<line class="st5" x1="865.5" y1="94.6" x2="872.4" y2="94.6"/>
		<line class="st5" x1="876.2" y1="94.6" x2="883.2" y2="94.6"/>
		<line class="st5" x1="887" y1="94.6" x2="893.9" y2="94.6"/>
		<line class="st5" x1="854.8" y1="100.5" x2="861.7" y2="100.5"/>
		<line class="st5" x1="865.5" y1="100.5" x2="872.4" y2="100.5"/>
		<line class="st5" x1="876.2" y1="100.5" x2="883.2" y2="100.5"/>
		<line class="st5" x1="887" y1="100.5" x2="893.9" y2="100.5"/>
		<line class="st5" x1="854.8" y1="106.4" x2="861.7" y2="106.4"/>
		<line class="st5" x1="865.5" y1="106.4" x2="872.4" y2="106.4"/>
		<line class="st5" x1="876.2" y1="106.4" x2="883.2" y2="106.4"/>
		<line class="st5" x1="887" y1="106.4" x2="893.9" y2="106.4"/>
		<line class="st5" x1="854.8" y1="112.2" x2="861.7" y2="112.2"/>
		<line class="st5" x1="865.5" y1="112.2" x2="872.4" y2="112.2"/>
		<line class="st5" x1="876.2" y1="112.2" x2="883.2" y2="112.2"/>
		<line class="st5" x1="887" y1="112.2" x2="893.9" y2="112.2"/>
		<line class="st5" x1="854.8" y1="118.2" x2="861.7" y2="118.2"/>
		<line class="st5" x1="865.5" y1="118.2" x2="872.4" y2="118.2"/>
		<line class="st5" x1="876.2" y1="118.2" x2="883.2" y2="118.2"/>
		<line class="st5" x1="887" y1="118.2" x2="893.9" y2="118.2"/>
		<line class="st5" x1="854.8" y1="124" x2="861.7" y2="124"/>
		<line class="st5" x1="865.5" y1="124" x2="872.4" y2="124"/>
		<line class="st5" x1="876.2" y1="124" x2="883.2" y2="124"/>
		<line class="st5" x1="887" y1="124" x2="893.9" y2="124"/>
		<line class="st5" x1="854.8" y1="129.9" x2="861.7" y2="129.9"/>
		<line class="st5" x1="865.5" y1="129.9" x2="872.4" y2="129.9"/>
		<line class="st5" x1="876.2" y1="129.9" x2="883.2" y2="129.9"/>
		<line class="st5" x1="887" y1="129.9" x2="893.9" y2="129.9"/>
		<line class="st5" x1="854.8" y1="135.8" x2="861.7" y2="135.8"/>
		<line class="st5" x1="865.5" y1="135.8" x2="872.4" y2="135.8"/>
		<line class="st5" x1="876.2" y1="135.8" x2="883.2" y2="135.8"/>
		<line class="st5" x1="887" y1="135.8" x2="893.9" y2="135.8"/>
		<line class="st5" x1="854.8" y1="141.7" x2="861.7" y2="141.7"/>
		<line class="st5" x1="865.5" y1="141.7" x2="872.4" y2="141.7"/>
		<line class="st5" x1="876.2" y1="141.7" x2="883.2" y2="141.7"/>
		<line class="st5" x1="887" y1="141.7" x2="893.9" y2="141.7"/>
		<line class="st5" x1="854.8" y1="147.6" x2="861.7" y2="147.6"/>
		<line class="st5" x1="865.5" y1="147.6" x2="872.4" y2="147.6"/>
		<line class="st5" x1="876.2" y1="147.6" x2="883.2" y2="147.6"/>
		<line class="st5" x1="887" y1="147.6" x2="893.9" y2="147.6"/>
		<line class="st8" x1="903.3" y1="53.3" x2="910.2" y2="53.3"/>
		<line class="st8" x1="914" y1="53.3" x2="921" y2="53.3"/>
		<line class="st8" x1="903.3" y1="59.2" x2="910.2" y2="59.2"/>
		<line class="st8" x1="914" y1="59.2" x2="921" y2="59.2"/>
		<line class="st8" x1="903.3" y1="65.1" x2="910.2" y2="65.1"/>
		<line class="st8" x1="914" y1="65.1" x2="921" y2="65.1"/>
		<line class="st8" x1="903.3" y1="71" x2="910.2" y2="71"/>
		<line class="st8" x1="914" y1="71" x2="921" y2="71"/>
		<line class="st8" x1="903.3" y1="76.9" x2="910.2" y2="76.9"/>
		<line class="st8" x1="914" y1="76.9" x2="921" y2="76.9"/>
		<line class="st8" x1="903.3" y1="82.8" x2="910.2" y2="82.8"/>
		<line class="st8" x1="914" y1="82.8" x2="921" y2="82.8"/>
		<line class="st8" x1="903.3" y1="88.7" x2="910.2" y2="88.7"/>
		<line class="st8" x1="914" y1="88.7" x2="921" y2="88.7"/>
		<line class="st8" x1="903.3" y1="94.6" x2="910.2" y2="94.6"/>
		<line class="st8" x1="914" y1="94.6" x2="921" y2="94.6"/>
		<line class="st8" x1="903.3" y1="100.5" x2="910.2" y2="100.5"/>
		<line class="st8" x1="914" y1="100.5" x2="921" y2="100.5"/>
		<line class="st8" x1="903.3" y1="106.4" x2="910.2" y2="106.4"/>
		<line class="st8" x1="914" y1="106.4" x2="921" y2="106.4"/>
		<line class="st8" x1="903.3" y1="112.2" x2="910.2" y2="112.2"/>
		<line class="st8" x1="914" y1="112.2" x2="921" y2="112.2"/>
		<line class="st8" x1="903.3" y1="118.2" x2="910.2" y2="118.2"/>
		<line class="st8" x1="914" y1="118.2" x2="921" y2="118.2"/>
		<line class="st8" x1="903.3" y1="124" x2="910.2" y2="124"/>
		<line class="st8" x1="914" y1="124" x2="921" y2="124"/>
		<line class="st8" x1="903.3" y1="129.9" x2="910.2" y2="129.9"/>
		<line class="st8" x1="914" y1="129.9" x2="921" y2="129.9"/>
		<line class="st8" x1="903.3" y1="135.8" x2="910.2" y2="135.8"/>
		<line class="st8" x1="914" y1="135.8" x2="921" y2="135.8"/>
		<line class="st8" x1="903.3" y1="141.7" x2="910.2" y2="141.7"/>
		<line class="st8" x1="914" y1="141.7" x2="921" y2="141.7"/>
		<line class="st8" x1="903.3" y1="147.6" x2="910.2" y2="147.6"/>
		<line class="st8" x1="914" y1="147.6" x2="921" y2="147.6"/>
		<rect x="908.3" y="155.6" class="st3" width="66.2" height="44.4"/>
		<polygon class="st4" points="908.3,155.6 908.3,200 952.8,200 		"/>
		<rect x="942.8" y="94.6" class="st3" width="31.8" height="63.5"/>
		<line class="st5" x1="947.8" y1="102.6" x2="974.5" y2="102.6"/>
		<line class="st5" x1="947.8" y1="108.7" x2="974.5" y2="108.7"/>
		<line class="st5" x1="947.8" y1="114.7" x2="974.5" y2="114.7"/>
		<line class="st5" x1="947.8" y1="120.7" x2="974.5" y2="120.7"/>
		<line class="st5" x1="947.8" y1="126.8" x2="974.5" y2="126.8"/>
		<line class="st5" x1="947.8" y1="132.8" x2="974.5" y2="132.8"/>
		<line class="st5" x1="947.8" y1="138.9" x2="974.5" y2="138.9"/>
		<line class="st5" x1="947.8" y1="144.9" x2="974.5" y2="144.9"/>
		<rect x="974.5" y="94.6" class="st4" width="74.3" height="105.4"/>
		<line class="st8" x1="974.5" y1="102.6" x2="1048.9" y2="102.6"/>
		<line class="st8" x1="974.5" y1="108.7" x2="1048.9" y2="108.7"/>
		<line class="st8" x1="974.5" y1="114.7" x2="1048.9" y2="114.7"/>
		<line class="st8" x1="974.5" y1="120.7" x2="1048.9" y2="120.7"/>
		<line class="st8" x1="974.5" y1="126.8" x2="1048.9" y2="126.8"/>
		<line class="st8" x1="974.5" y1="132.8" x2="1048.9" y2="132.8"/>
		<line class="st8" x1="974.5" y1="138.9" x2="1048.9" y2="138.9"/>
		<line class="st8" x1="974.5" y1="144.9" x2="1048.9" y2="144.9"/>
		<rect x="951.9" y="88.7" class="st3" width="36" height="5.9"/>
		<polygon class="st1" points="951.9,88.7 970.6,70 987.9,70 987.9,88.7 		"/>
		<polygon class="st9" points="1041.9,88.7 1023.3,70 987.9,70 987.9,88.7 		"/>
		<polygon class="st1" points="999.1,82.8 999.1,76.9 993.2,76.9 		"/>
		<polygon class="st1" points="1012.3,82.8 1012.3,76.9 1006.4,76.9 		"/>
		<polygon class="st1" points="1025.5,82.8 1025.5,76.9 1019.7,76.9 		"/>
		<rect x="970.6" y="67.2" class="st3" width="17.4" height="2.8"/>
		<rect x="1019.7" y="118.2" class="st3" width="55.7" height="81.8"/>
		<rect x="1075.3" y="118.1" class="st4" width="26.2" height="81.8"/>
		<line class="st5" x1="1065.5" y1="125.1" x2="1065.5" y2="131.6"/>
		<line class="st5" x1="1057.8" y1="125.1" x2="1057.8" y2="131.6"/>
		<line class="st5" x1="1050.1" y1="125.1" x2="1050.1" y2="131.6"/>
		<line class="st5" x1="1042.4" y1="125.1" x2="1042.4" y2="131.6"/>
		<line class="st5" x1="1034.7" y1="125.1" x2="1034.7" y2="131.6"/>
		<line class="st5" x1="1027" y1="125.1" x2="1027" y2="131.6"/>
		<line class="st5" x1="1065.5" y1="137.9" x2="1065.5" y2="144.4"/>
		<line class="st5" x1="1057.8" y1="137.9" x2="1057.8" y2="144.4"/>
		<line class="st5" x1="1050.1" y1="137.9" x2="1050.1" y2="144.4"/>
		<line class="st5" x1="1042.4" y1="137.9" x2="1042.4" y2="144.4"/>
		<line class="st5" x1="1034.7" y1="137.9" x2="1034.7" y2="144.4"/>
		<line class="st5" x1="1027" y1="137.9" x2="1027" y2="144.4"/>
		<line class="st5" x1="1065.5" y1="150.8" x2="1065.5" y2="157.3"/>
		<line class="st10" x1="1057.8" y1="150.8" x2="1057.8" y2="157.3"/>
		<line class="st5" x1="1050.1" y1="150.8" x2="1050.1" y2="157.3"/>
		<line class="st5" x1="1042.4" y1="150.8" x2="1042.4" y2="157.3"/>
		<line class="st5" x1="1034.7" y1="150.8" x2="1034.7" y2="157.3"/>
		<line class="st5" x1="1027" y1="150.8" x2="1027" y2="157.3"/>
		<polygon class="st4" points="1075.3,200 1075.3,173.8 1019.7,118.2 1019.7,200 		"/>
		<g>
			<defs>
				<polygon id="SVGID_5_" points="1075.3,200 1075.3,173.8 1019.7,118.2 1019.7,200 				"/>
			</defs>
			<clipPath id="SVGID_6_">
				<use xlink:href="#SVGID_5_"  style="overflow:visible;"/>
			</clipPath>
			<g class="st11">
				<line class="st7" x1="1065.5" y1="125.1" x2="1065.5" y2="131.6"/>
				<line class="st7" x1="1057.8" y1="125.1" x2="1057.8" y2="131.6"/>
				<line class="st7" x1="1050.1" y1="125.1" x2="1050.1" y2="131.6"/>
				<line class="st7" x1="1042.4" y1="125.1" x2="1042.4" y2="131.6"/>
				<line class="st7" x1="1034.7" y1="125.1" x2="1034.7" y2="131.6"/>
				<line class="st8" x1="1027" y1="125.1" x2="1027" y2="131.6"/>
				<line class="st7" x1="1065.5" y1="137.9" x2="1065.5" y2="144.4"/>
				<line class="st7" x1="1057.8" y1="137.9" x2="1057.8" y2="144.4"/>
				<line class="st7" x1="1050.1" y1="137.9" x2="1050.1" y2="144.4"/>
				<line class="st8" x1="1042.4" y1="137.9" x2="1042.4" y2="144.4"/>
				<line class="st8" x1="1034.7" y1="137.9" x2="1034.7" y2="144.4"/>
				<line class="st8" x1="1027" y1="137.9" x2="1027" y2="144.4"/>
				<line class="st7" x1="1065.5" y1="150.8" x2="1065.5" y2="157.3"/>
				<line class="st12" x1="1057.8" y1="150.8" x2="1057.8" y2="157.3"/>
				<line class="st8" x1="1050.1" y1="150.8" x2="1050.1" y2="157.3"/>
				<line class="st8" x1="1042.4" y1="150.8" x2="1042.4" y2="157.3"/>
				<line class="st8" x1="1034.7" y1="150.8" x2="1034.7" y2="157.3"/>
				<line class="st8" x1="1027" y1="150.8" x2="1027" y2="157.3"/>
			</g>
		</g>
		<rect x="993.2" y="173.8" class="st3" width="82.1" height="26.2"/>
		<polygon class="st9" points="698.3,143 698.3,151.4 753.4,151.4 745,143 		"/>
		<polygon class="st9" points="698.3,128.6 698.3,137 743.4,137 735,128.6 		"/>
		<polygon class="st9" points="698.3,114.2 698.3,122.6 733.4,122.6 725,114.2 		"/>
		<polygon class="st9" points="698.3,99.8 698.3,108.2 723.4,108.2 715,99.8 		"/>
		<rect x="698.3" y="137" class="st4" width="36.7" height="6"/>
		<rect x="698.3" y="122.6" class="st4" width="26.7" height="6"/>
		<rect x="698.3" y="108.2" class="st4" width="16.7" height="6"/>
		<polygon class="st1" points="698.3,143 698.3,151.4 643.2,151.4 651.6,143 		"/>
		<polygon class="st1" points="698.3,128.6 698.3,137 653.2,137 661.6,128.6 		"/>
		<polygon class="st1" points="698.3,114.2 698.3,122.6 663.2,122.6 671.6,114.2 		"/>
		<polygon class="st1" points="698.3,99.8 698.3,108.2 673.2,108.2 681.6,99.8 		"/>
		<rect x="661.6" y="137" class="st3" width="36.7" height="6"/>
		<rect x="671.6" y="122.6" class="st3" width="26.7" height="6"/>
		<rect x="681.6" y="108.2" class="st3" width="16.7" height="6"/>
		<path class="st3" d="M733.6,88.7h42.6l0,0V200l0,0h-56.5l0,0v-97.4C719.7,94.9,725.9,88.7,733.6,88.7L733.6,88.7z"/>
		<polygon class="st3" points="776.2,34.3 776.2,200 808.2,200 808.2,2.4 		"/>
		<rect x="808.2" y="2.4" class="st4" width="29.6" height="197.6"/>
		<rect x="776.2" y="88.7" class="st4" width="39.8" height="111.3"/>
		<rect x="653.2" y="151.4" class="st3" width="45.1" height="48.6"/>
		<rect x="1057.8" y="173.8" class="st4" width="17.5" height="26.2"/>
		<rect x="1265.6" y="118.2" class="st3" width="51.1" height="81.8"/>
		<rect x="1316.7" y="118.2" class="st4" width="25.6" height="81.8"/>
		<polygon class="st9" points="1316.7,109.8 1316.7,118.2 1342.3,118.2 1333.9,109.8 		"/>
		<polygon class="st1" points="1316.7,109.8 1316.7,118.2 1265.6,118.2 1273.9,109.8 		"/>
		<line class="st5" x1="1310.4" y1="123.1" x2="1310.4" y2="129.6"/>
		<line class="st5" x1="1302.7" y1="123.1" x2="1302.7" y2="129.6"/>
		<line class="st5" x1="1295" y1="123.1" x2="1295" y2="129.6"/>
		<line class="st5" x1="1287.3" y1="123.1" x2="1287.3" y2="129.6"/>
		<line class="st5" x1="1279.6" y1="123.1" x2="1279.6" y2="129.6"/>
		<line class="st5" x1="1271.9" y1="123.1" x2="1271.9" y2="129.6"/>
		<line class="st5" x1="1310.4" y1="135.9" x2="1310.4" y2="142.4"/>
		<line class="st5" x1="1302.7" y1="135.9" x2="1302.7" y2="142.4"/>
		<line class="st5" x1="1295" y1="135.9" x2="1295" y2="142.4"/>
		<line class="st5" x1="1287.3" y1="135.9" x2="1287.3" y2="142.4"/>
		<line class="st5" x1="1279.6" y1="135.9" x2="1279.6" y2="142.4"/>
		<line class="st5" x1="1271.9" y1="135.9" x2="1271.9" y2="142.4"/>
		<line class="st5" x1="1310.4" y1="148.8" x2="1310.4" y2="155.3"/>
		<line class="st5" x1="1302.7" y1="148.8" x2="1302.7" y2="155.3"/>
		<line class="st5" x1="1295" y1="148.8" x2="1295" y2="155.3"/>
		<line class="st5" x1="1287.3" y1="148.8" x2="1287.3" y2="155.3"/>
		<line class="st5" x1="1279.6" y1="148.8" x2="1279.6" y2="155.3"/>
		<line class="st5" x1="1271.9" y1="148.8" x2="1271.9" y2="155.3"/>
		<line class="st13" x1="1337.6" y1="123.1" x2="1337.6" y2="129.6"/>
		<line class="st13" x1="1329.9" y1="123.1" x2="1329.9" y2="129.6"/>
		<line class="st13" x1="1322.2" y1="123.1" x2="1322.2" y2="129.6"/>
		<line class="st13" x1="1337.6" y1="135.9" x2="1337.6" y2="142.4"/>
		<line class="st13" x1="1329.9" y1="135.9" x2="1329.9" y2="142.4"/>
		<line class="st13" x1="1322.2" y1="135.9" x2="1322.2" y2="142.4"/>
		<line class="st13" x1="1337.6" y1="148.8" x2="1337.6" y2="155.3"/>
		<line class="st13" x1="1329.9" y1="148.8" x2="1329.9" y2="155.3"/>
		<line class="st13" x1="1322.2" y1="148.8" x2="1322.2" y2="155.3"/>
		<rect x="698.3" y="151.4" class="st4" width="21.4" height="48.6"/>
		<rect x="749.5" y="164.8" class="st3" width="26.8" height="35.2"/>
		<rect x="776.2" y="164.8" class="st4" width="74.1" height="35.2"/>
		<pattern  id="SVGID_7_" xlink:href="#_2x2_-_Black" patternTransform="matrix(1 0 0 -1 -1 -16085.5)">
		</pattern>
		<rect x="776.2" y="164.8" class="st14" width="74.1" height="35.2"/>
		<line class="st5" x1="734" y1="96.4" x2="776.2" y2="96.4"/>
		<line class="st5" x1="734" y1="102.5" x2="776.2" y2="102.5"/>
		<line class="st5" x1="734" y1="108.5" x2="776.2" y2="108.5"/>
		<line class="st5" x1="734" y1="114.6" x2="776.2" y2="114.6"/>
		<line class="st5" x1="734" y1="120.6" x2="776.2" y2="120.6"/>
		<line class="st5" x1="734" y1="126.7" x2="776.2" y2="126.7"/>
		<line class="st5" x1="734" y1="132.7" x2="776.2" y2="132.7"/>
		<line class="st5" x1="734" y1="138.8" x2="776.2" y2="138.8"/>
		<line class="st8" x1="776.2" y1="96.4" x2="810.5" y2="96.4"/>
		<line class="st8" x1="776.2" y1="102.5" x2="810.5" y2="102.5"/>
		<line class="st8" x1="776.2" y1="108.5" x2="810.5" y2="108.5"/>
		<line class="st8" x1="776.2" y1="114.6" x2="810.5" y2="114.6"/>
		<line class="st8" x1="776.2" y1="120.6" x2="810.5" y2="120.6"/>
		<line class="st8" x1="776.2" y1="126.7" x2="810.5" y2="126.7"/>
		<line class="st8" x1="776.2" y1="132.7" x2="810.5" y2="132.7"/>
		<line class="st8" x1="776.2" y1="138.8" x2="810.5" y2="138.8"/>
		<rect x="759.3" y="82.5" class="st3" width="25.3" height="6.2"/>
		<line class="st15" x1="988.9" y1="67.2" x2="988.9" y2="52.9"/>
		<line class="st8" x1="989.9" y1="53.9" x2="995.7" y2="53.9"/>
		<line class="st15" x1="1005.4" y1="67.2" x2="1005.4" y2="52.9"/>
		<line class="st8" x1="1006.4" y1="53.9" x2="1012.1" y2="53.9"/>
		<line class="st15" x1="1021.8" y1="67.2" x2="1021.8" y2="52.9"/>
		<line class="st8" x1="1022.8" y1="53.9" x2="1028.6" y2="53.9"/>
		<line class="st5" x1="770.5" y1="169.1" x2="770.5" y2="175.7"/>
		<line class="st5" x1="762.8" y1="169.1" x2="762.8" y2="175.7"/>
		<line class="st5" x1="755.2" y1="169.1" x2="755.2" y2="175.7"/>
		<line class="st5" x1="770.5" y1="182" x2="770.5" y2="188.5"/>
		<line class="st5" x1="762.8" y1="182" x2="762.8" y2="188.5"/>
		<line class="st5" x1="755.2" y1="182" x2="755.2" y2="188.5"/>
		<rect x="987.9" y="88.7" class="st4" width="54" height="5.9"/>
		<rect x="903.3" y="34.1" class="st4" width="17.7" height="10.5"/>
		<line class="st5" x1="661" y1="154.2" x2="661" y2="185.3"/>
		<line class="st5" x1="668.4" y1="154.2" x2="668.4" y2="185.3"/>
		<line class="st5" x1="675.8" y1="154.2" x2="675.8" y2="185.3"/>
		<line class="st5" x1="683.2" y1="154.2" x2="683.2" y2="185.3"/>
		<line class="st5" x1="690.6" y1="154.2" x2="690.6" y2="185.3"/>
		<line class="st8" x1="705.2" y1="154.4" x2="705.2" y2="185.3"/>
		<line class="st8" x1="712.7" y1="154.4" x2="712.7" y2="185.3"/>
		<rect x="622.2" y="151.4" class="st4" width="41" height="48.6"/>
		<pattern  id="SVGID_8_" xlink:href="#_2x2_-_Black" patternTransform="matrix(1 0 0 -1 -1 -16085.5)">
		</pattern>
		<rect x="622.2" y="151.4" class="st16" width="41" height="48.6"/>
		<path class="st3" d="M622.2,200h-28.5l0,0v-37.4c0-6.2,5-11.2,11.2-11.2c0,0,0,0,0,0h17.2l0,0V200L622.2,200z"/>
		<polygon class="st4" points="698.3,186.4 663.2,151.4 663.2,200 698.3,200 		"/>
		<g>
			<defs>
				<polygon id="SVGID_9_" points="698.3,186.4 663.2,151.4 663.2,200 698.3,200 				"/>
			</defs>
			<clipPath id="SVGID_10_">
				<use xlink:href="#SVGID_9_"  style="overflow:visible;"/>
			</clipPath>
			<g class="st17">
				<line class="st7" x1="661" y1="120.7" x2="661" y2="185.3"/>
				<line class="st8" x1="668.4" y1="120.7" x2="668.4" y2="185.3"/>
				<line class="st8" x1="675.8" y1="120.7" x2="675.8" y2="185.3"/>
				<line class="st8" x1="683.2" y1="120.7" x2="683.2" y2="185.3"/>
				<line class="st8" x1="690.6" y1="120.7" x2="690.6" y2="185.3"/>
			</g>
		</g>
		<path class="st3" d="M993.2,162.3v11.5h16.2l-12.9-12.9c-0.8-0.7-2.1-0.7-2.8,0.2C993.4,161.4,993.2,161.8,993.2,162.3z"/>
		<path class="st3" d="M1009.3,162.3v11.5h16.3l-12.9-12.9c-0.8-0.7-2.1-0.7-2.8,0.2C1009.5,161.4,1009.3,161.8,1009.3,162.3z"/>
		<path class="st3" d="M1025.4,162.3v11.5h16.2l-12.9-12.9c-0.8-0.7-2.1-0.7-2.8,0.2C1025.6,161.4,1025.5,161.8,1025.4,162.3z"/>
		<path class="st3" d="M1041.6,162.3v11.5h16.2l-12.9-12.9c-0.8-0.7-2.1-0.7-2.8,0.2C1041.8,161.4,1041.6,161.8,1041.6,162.3z"/>
		<line class="st5" x1="997.9" y1="181.2" x2="1004.8" y2="181.2"/>
		<line class="st5" x1="1008.6" y1="181.2" x2="1015.5" y2="181.2"/>
		<line class="st5" x1="1019.3" y1="181.2" x2="1026.3" y2="181.2"/>
		<line class="st5" x1="1030.1" y1="181.2" x2="1037" y2="181.2"/>
		<line class="st5" x1="997.9" y1="187.1" x2="1004.8" y2="187.1"/>
		<line class="st5" x1="1008.6" y1="187.1" x2="1015.5" y2="187.1"/>
		<line class="st5" x1="1019.3" y1="187.1" x2="1026.3" y2="187.1"/>
		<line class="st5" x1="1030.1" y1="187.1" x2="1037" y2="187.1"/>
		<line class="st5" x1="997.9" y1="193" x2="1004.8" y2="193"/>
		<line class="st5" x1="1008.6" y1="193" x2="1015.5" y2="193"/>
		<line class="st5" x1="1019.3" y1="193" x2="1026.3" y2="193"/>
		<line class="st5" x1="1030.1" y1="193" x2="1037" y2="193"/>
		<line class="st8" x1="1063.6" y1="181.2" x2="1070.5" y2="181.2"/>
		<line class="st8" x1="1063.6" y1="187.1" x2="1070.5" y2="187.1"/>
		<line class="st8" x1="1063.6" y1="193" x2="1070.5" y2="193"/>
		<line class="st8" x1="817" y1="2.4" x2="817" y2="141"/>
		<line class="st8" x1="823" y1="2.4" x2="823" y2="141"/>
		<line class="st8" x1="828.9" y1="2.4" x2="828.9" y2="141"/>
		<line class="st5" x1="861.1" y1="34.1" x2="861.1" y2="20.5"/>
		<line class="st5" x1="867.5" y1="34.1" x2="867.5" y2="20.5"/>
		<polygon class="st4" points="1072.5,118.2 1048.9,94.6 1048.9,118.2 		"/>
		<path class="st1" d="M1064.7,16.1c-6.9,0-12.6,5.6-12.6,12.5c0,0,0,0,0,0h25.1C1077.3,21.7,1071.7,16.1,1064.7,16.1z"/>
		<path class="st9" d="M1064.7,16.1v12.5h12.6C1077.3,21.7,1071.7,16.1,1064.7,16.1z"/>
		<rect x="1045.2" y="28.7" class="st3" width="19.6" height="3.4"/>
		<rect x="1064.8" y="28.7" class="st4" width="16.6" height="3.4"/>
		<line class="st5" x1="1061.3" y1="36.9" x2="1061.3" y2="43.4"/>
		<line class="st5" x1="1061.3" y1="48.5" x2="1061.3" y2="55"/>
		<line class="st5" x1="1061.3" y1="60.1" x2="1061.3" y2="66.6"/>
		<line class="st5" x1="1061.3" y1="71.7" x2="1061.3" y2="78.2"/>
		<line class="st5" x1="1061.3" y1="83.3" x2="1061.3" y2="89.8"/>
		<line class="st5" x1="1056.5" y1="36.9" x2="1056.5" y2="43.4"/>
		<line class="st5" x1="1056.5" y1="48.5" x2="1056.5" y2="55"/>
		<line class="st5" x1="1056.5" y1="60.1" x2="1056.5" y2="66.6"/>
		<line class="st5" x1="1056.5" y1="71.7" x2="1056.5" y2="78.2"/>
		<line class="st5" x1="1056.5" y1="83.3" x2="1056.5" y2="89.8"/>
		<line class="st5" x1="1051.8" y1="36.9" x2="1051.8" y2="43.4"/>
		<line class="st5" x1="1051.8" y1="48.5" x2="1051.8" y2="55"/>
		<line class="st5" x1="1051.8" y1="60.1" x2="1051.8" y2="66.6"/>
		<line class="st5" x1="1051.8" y1="71.7" x2="1051.8" y2="78.2"/>
		<line class="st5" x1="1051.8" y1="83.3" x2="1051.8" y2="89.8"/>
		<line class="st5" x1="1047.1" y1="36.9" x2="1047.1" y2="43.4"/>
		<line class="st5" x1="1047.1" y1="48.5" x2="1047.1" y2="55"/>
		<line class="st5" x1="1047.1" y1="60.1" x2="1047.1" y2="66.6"/>
		<line class="st5" x1="1047.1" y1="71.7" x2="1047.1" y2="78.2"/>
		<line class="st5" x1="1047.1" y1="83.3" x2="1047.1" y2="89.8"/>
		<line class="st8" x1="1080.5" y1="36.9" x2="1080.5" y2="43.4"/>
		<line class="st8" x1="1080.5" y1="48.5" x2="1080.5" y2="55"/>
		<line class="st8" x1="1075.8" y1="36.9" x2="1075.8" y2="43.4"/>
		<line class="st8" x1="1075.8" y1="48.5" x2="1075.8" y2="55"/>
		<line class="st8" x1="1071" y1="36.9" x2="1071" y2="43.4"/>
		<line class="st8" x1="1071" y1="48.5" x2="1071" y2="55"/>
		<rect x="1162" y="40.1" class="st3" width="26.2" height="159.9"/>
		<path class="st4" d="M1188.2,40.1L1188.2,40.1c14.5,0,26.2,11.7,26.2,26.2V200l0,0h-26.2l0,0V40.1L1188.2,40.1z"/>
		<rect x="1142.9" y="155.6" class="st3" width="61.4" height="44.4"/>
		<rect x="1204.3" y="155.6" class="st4" width="71.4" height="44.4"/>
		<polygon class="st4" points="1142.9,155.6 1142.9,200 1187.3,200 		"/>
		<path class="st9" d="M1218.8,169.3L1218.8,169.3c1.6,0,2.9,1.3,2.9,2.9v0V200l0,0h-5.8l0,0v-27.8
			C1215.9,170.6,1217.2,169.3,1218.8,169.3z"/>
		<path class="st9" d="M1232.9,169.3L1232.9,169.3c1.6,0,2.9,1.3,2.9,2.9v0V200l0,0h-5.8l0,0v-27.8
			C1230,170.6,1231.3,169.3,1232.9,169.3C1232.9,169.3,1232.9,169.3,1232.9,169.3z"/>
		<path class="st9" d="M1247.1,169.3L1247.1,169.3c1.6,0,2.9,1.3,2.9,2.9v0V200l0,0h-5.8l0,0v-27.8
			C1244.2,170.6,1245.5,169.3,1247.1,169.3z"/>
		<path class="st9" d="M1261.2,169.3L1261.2,169.3c1.6,0,2.9,1.3,2.9,2.9v0V200l0,0h-5.8l0,0v-27.8
			C1258.3,170.6,1259.6,169.3,1261.2,169.3z"/>
		<path class="st4" d="M1150.6,169.3L1150.6,169.3c1.6,0,2.9,1.3,2.9,2.9v0V200l0,0h-5.8l0,0v-27.8
			C1147.8,170.6,1149,169.3,1150.6,169.3z"/>
		<path class="st4" d="M1164.8,169.3L1164.8,169.3c1.6,0,2.9,1.3,2.9,2.9v0V200l0,0h-5.8l0,0v-27.8
			C1161.9,170.6,1163.2,169.3,1164.8,169.3z"/>
		<path class="st4" d="M1178.9,169.3L1178.9,169.3c1.6,0,2.9,1.3,2.9,2.9v0V200l0,0h-5.8l0,0v-27.8
			C1176,170.6,1177.3,169.3,1178.9,169.3z"/>
		<path class="st4" d="M1193,169.3L1193,169.3c1.6,0,2.9,1.3,2.9,2.9v0V200l0,0h-5.8l0,0v-27.8
			C1190.1,170.6,1191.4,169.3,1193,169.3z"/>
		<path class="st1" d="M747.5,164.8v-4.4h4.4c4.6,0,9-1.8,12.2-5.1l2-2h10.2v11.5L747.5,164.8z"/>
		<path class="st9" d="M850.3,164.8v-4.4h-4.4c-4.6,0-9-1.8-12.2-5.1l-2-2h-55.4v11.5L850.3,164.8z"/>
		<line class="st8" x1="1127.1" y1="61.3" x2="1127.1" y2="153.4"/>
		<line class="st8" x1="1134.5" y1="61.3" x2="1134.5" y2="153.4"/>
		<line class="st8" x1="1098.4" y1="125.1" x2="1098.4" y2="131.6"/>
		<line class="st8" x1="1090.7" y1="125.1" x2="1090.7" y2="131.6"/>
		<line class="st8" x1="1083" y1="125.1" x2="1083" y2="131.6"/>
		<line class="st8" x1="1098.4" y1="137.9" x2="1098.4" y2="144.4"/>
		<line class="st8" x1="1090.7" y1="137.9" x2="1090.7" y2="144.4"/>
		<line class="st8" x1="1083" y1="137.9" x2="1083" y2="144.4"/>
		<line class="st8" x1="1098.4" y1="150.8" x2="1098.4" y2="157.3"/>
		<line class="st8" x1="1090.7" y1="150.8" x2="1090.7" y2="157.3"/>
		<line class="st8" x1="1083" y1="150.8" x2="1083" y2="157.3"/>
		<rect x="1142.9" y="140.8" class="st1" width="97.1" height="14.8"/>
		<path class="st9" d="M1204.3,155.6h71.4C1256,135.9,1224,135.9,1204.3,155.6z"/>
		<rect x="1142.9" y="140.8" class="st9" width="19.1" height="14.8"/>
		<polygon class="st4" points="1320.1,200 1275.7,155.6 1275.7,200 		"/>
		<line class="st5" x1="1162" y1="70.9" x2="1188.2" y2="70.9"/>
		<line class="st5" x1="1162" y1="76.9" x2="1188.2" y2="76.9"/>
		<line class="st5" x1="1162" y1="83" x2="1188.2" y2="83"/>
		<line class="st5" x1="1162" y1="89" x2="1188.2" y2="89"/>
		<line class="st5" x1="1162" y1="95.1" x2="1188.2" y2="95.1"/>
		<line class="st5" x1="1162" y1="101.1" x2="1188.2" y2="101.1"/>
		<line class="st5" x1="1162" y1="107.2" x2="1188.2" y2="107.2"/>
		<line class="st5" x1="1162" y1="113.2" x2="1188.2" y2="113.2"/>
		<line class="st12" x1="1188.2" y1="70.9" x2="1214.4" y2="70.9"/>
		<line class="st8" x1="1188.2" y1="76.9" x2="1214.4" y2="76.9"/>
		<line class="st8" x1="1188.2" y1="83" x2="1214.4" y2="83"/>
		<line class="st8" x1="1188.2" y1="89" x2="1214.4" y2="89"/>
		<line class="st8" x1="1188.2" y1="95.1" x2="1214.4" y2="95.1"/>
		<line class="st8" x1="1188.2" y1="101.1" x2="1214.4" y2="101.1"/>
		<line class="st8" x1="1188.2" y1="107.2" x2="1214.4" y2="107.2"/>
		<line class="st8" x1="1188.2" y1="113.2" x2="1214.4" y2="113.2"/>
		<pattern  id="SVGID_11_" xlink:href="#_2x2_-_Black" patternTransform="matrix(1 0 0 -1 -1 -16085.5)">
		</pattern>
		<path class="st18" d="M1188.2,40.1L1188.2,40.1v26.2h26.2C1214.4,51.9,1202.7,40.1,1188.2,40.1z"/>
		<rect x="1328.9" y="164.8" class="st3" width="26.8" height="35.2"/>
		<polygon class="st4" points="1364.2,200 1328.9,164.8 1328.9,200 		"/>
		<rect x="1355.7" y="164.8" class="st4" width="34.1" height="35.2"/>
		<pattern  id="SVGID_12_" xlink:href="#_2x2_-_Black" patternTransform="matrix(1 0 0 -1 -1 -16085.5)">
		</pattern>
		<rect x="1355.7" y="164.8" class="st19" width="34.1" height="35.2"/>
		<polygon class="st1" points="1355.7,164.8 1328.9,164.8 1342.3,151.4 		"/>
		<polygon class="st9" points="1376.4,151.4 1342.3,151.4 1355.7,164.8 1389.8,164.8 		"/>
		<line class="st5" x1="1350" y1="169.1" x2="1350" y2="175.7"/>
		<line class="st5" x1="1342.3" y1="169.1" x2="1342.3" y2="175.7"/>
		<line class="st8" x1="878.5" y1="182.4" x2="878.5" y2="200"/>
		<path class="st8" d="M878.5,195.9v-1.4c0-1.5,0.6-2.9,1.7-4l2-2c1.1-1.1,1.7-2.5,1.7-4v-2"/>
		<path class="st20" d="M867.5,178.9L867.5,178.9c0-1.9,1.6-3.5,3.5-3.5l0,0h1.2c0.9,0,1.8-0.4,2.5-1l2.2-2.2c0.7-0.6,1.6-1,2.5-1
			h8.6c3.1,0,5.6,2.5,5.6,5.6c0,0,0,0,0,0l0,0c0,3.1-2.5,5.6-5.6,5.6l0,0h-17C869.1,182.5,867.5,180.9,867.5,178.9
			C867.5,178.9,867.5,178.9,867.5,178.9z"/>
		<line class="st8" x1="1097.5" y1="182.4" x2="1097.5" y2="200"/>
		<path class="st8" d="M1097.5,195.9v-1.4c0-1.5,0.6-2.9,1.7-4l2-2c1.1-1.1,1.7-2.5,1.7-4v-2"/>
		<path class="st20" d="M1086.4,178.9L1086.4,178.9c0-1.9,1.6-3.5,3.5-3.5l0,0h1.2c0.9,0,1.8-0.4,2.5-1l2.2-2.2c0.7-0.6,1.6-1,2.5-1
			h8.6c3.1,0,5.6,2.5,5.6,5.6c0,0,0,0,0,0l0,0c0,3.1-2.5,5.6-5.6,5.6l0,0h-17C1088,182.4,1086.4,180.9,1086.4,178.9
			C1086.4,178.9,1086.4,178.9,1086.4,178.9z"/>
		<path class="st20" d="M1121,189.2h11c1.9,0,3.4-1.5,3.4-3.4v0l0,0c0-1.9-1.5-3.4-3.4-3.4l0,0h-1.2c-0.9,0-1.8-0.4-2.4-1l-0.4-0.4
			c-0.6-0.6-1.5-1-2.4-1h-4.6c-2.5,0-4.6,2-4.6,4.6l0,0C1116.4,187.1,1118.4,189.2,1121,189.2C1121,189.2,1121,189.2,1121,189.2z"/>
		<line class="st8" x1="1125.9" y1="189.2" x2="1125.9" y2="200"/>
		<path class="st20" d="M956.3,189.2h10.9c1.9,0,3.4-1.5,3.4-3.4v0l0,0c0-1.9-1.5-3.4-3.4-3.4l0,0H966c-0.9,0-1.8-0.4-2.4-1
			l-0.4-0.4c-0.6-0.6-1.5-1-2.4-1h-4.5c-2.5,0-4.6,2-4.6,4.6v0l0,0C951.7,187.1,953.7,189.2,956.3,189.2
			C956.3,189.2,956.3,189.2,956.3,189.2z"/>
		<line class="st8" x1="961.2" y1="189.2" x2="961.2" y2="200"/>
		<path class="st9" d="M738.9,189.2h-10.9c-1.9,0-3.4-1.5-3.4-3.4v0l0,0c0-1.9,1.5-3.4,3.4-3.4l0,0h1.2c0.9,0,1.8-0.4,2.4-1l0.4-0.4
			c0.6-0.6,1.5-1,2.4-1h4.5c2.5,0,4.6,2,4.6,4.6v0l0,0C743.4,187.1,741.4,189.2,738.9,189.2C738.9,189.2,738.9,189.2,738.9,189.2z"
			/>
		<line class="st8" x1="735.6" y1="189.2" x2="735.6" y2="200"/>
		<rect x="987.9" y="67.2" class="st4" width="35.4" height="2.8"/>
		<path class="st21" d="M1376.2,51.4L1376.2,51.4c0-3.1,2.6-5.7,5.7-5.7h51.3c5.9,0,11.7-2.4,15.9-6.6l0,0c4.2-4.2,9.9-6.6,15.9-6.6
			h35.7c4.2,0,8.3-1.7,11.3-4.7l0,0c3-3,7.1-4.7,11.3-4.7h21.6c9.4,0,17,7.6,17,17l0,0c0,9.4-7.6,17-17,17h-162.9
			c-3.1,0-5.7-2.6-5.7-5.7C1376.1,51.5,1376.1,51.4,1376.2,51.4z"/>
		<path class="st21" d="M1362,97.9L1362,97.9c0-2.6,2.1-4.7,4.7-4.7l0,0h15.4c8.3,0,16.3-3.3,22.2-9.2l0,0
			c5.9-5.9,13.9-9.2,22.2-9.2h52.5c7.7,0,13.9,6.2,13.9,13.9l0,0c0,7.7-6.2,13.9-13.9,13.9h-112.3
			C1364.1,102.5,1362,100.5,1362,97.9C1362,97.9,1362,97.9,1362,97.9z"/>
		<path d="M510.5,200c-11.6,0-22.8-4.6-31-12.9l0,0c-9.9-9.9-23.4-15.5-37.4-15.5h-37.9c-8,0-15.7-3.2-21.4-8.9s-13.4-8.9-21.4-8.9
			H260.6c-10.9,0-21.3-4.3-28.9-12l0,0c-7.7-7.7-18.1-12-28.9-12h-103c-19.1,0-37.3,7.6-50.8,21.1L0,200H510.5z"/>
		<path d="M1314.1,200c6.2,0,12.2-2.5,16.5-6.9l0,0c5.3-5.3,12.5-8.3,19.9-8.2h20.2c4.3,0,8.4-1.7,11.4-4.7c3-3,7.1-4.7,11.4-4.7
			h53.7c5.8,0,11.3-2.3,15.4-6.4l0,0c4.1-4.1,9.6-6.4,15.4-6.4h20.7c10.1,0,19.9,4,27.1,11.2L1552,200H1314.1z"/>
		<pattern  id="SVGID_13_" xlink:href="#_2x2_-_Black" patternTransform="matrix(1 0 0 -1 -1 -16085.5)">
		</pattern>
		<circle class="st22" cx="1315.1" cy="53.3" r="32.4"/>
		<circle class="st1" cx="1315.1" cy="53.3" r="21.6"/>
		<circle class="st21" cx="1315.1" cy="53.3" r="16.9"/>
	</g>
</g>
</svg>
