<svg xmlns="http://www.w3.org/2000/svg" xmlns:xlink="http://www.w3.org/1999/xlink" id="svg2" version="1.1" viewBox="-200 0 1000 280"><title id="title4153">Dachs</title><defs id="defs4"><linearGradient id="linearGradient3823"><stop id="stop3825" offset="0" style="stop-color:#fff"/><stop id="stop3827" offset="1" style="stop-color:#040000"/></linearGradient><linearGradient id="linearGradient4125" x1="145.94" x2="156.45" y1="384.02" y2="404.98" gradientUnits="userSpaceOnUse" xlink:href="#linearGradient3823"/><radialGradient id="radialGradient4127" cx="102.93" cy="452.92" r="8.21" gradientTransform="matrix(.53959 .13385 -.16276 .65610 121.33 138.8)" gradientUnits="userSpaceOnUse" xlink:href="#linearGradient3823"/><radialGradient id="radialGradient4129" cx="53.634" cy="497.31" r="16.755" gradientTransform="matrix(-.52515 .85101 -.96983 -.59847 575.75 741.11)" gradientUnits="userSpaceOnUse" xlink:href="#linearGradient3823"/><radialGradient id="radialGradient4131" cx="63.552" cy="447.1" r="3.151" gradientTransform="matrix(.99224 -.12434 .11335 .90459 -50.187 51.179)" gradientUnits="userSpaceOnUse" xlink:href="#linearGradient3823"/><linearGradient id="linearGradient4133" x1="292.23" x2="291.28" y1="507.97" y2="506.36" gradientTransform="translate(-2.5893 .26786)" gradientUnits="userSpaceOnUse"><stop id="stop3879" offset="0" style="stop-color:#393939"/><stop id="stop3881" offset="1" style="stop-color:#fff8f8"/></linearGradient><linearGradient id="linearGradient4135" x1="292.6" x2="291.88" y1="508.71" y2="507.64" gradientTransform="translate(-6.9982 -4.997)" gradientUnits="userSpaceOnUse"><stop id="stop3879-6" offset="0" style="stop-color:#c7c1c1"/><stop id="stop3881-3" offset="1" style="stop-color:#fff8f8"/></linearGradient><linearGradient id="linearGradient4137" x1="292.23" x2="291.28" y1="507.97" y2="506.36" gradientTransform="translate(-10.838 -8.747)" gradientUnits="userSpaceOnUse"><stop id="stop3879-7" offset="0" style="stop-color:#c7c1c1"/><stop id="stop3881-2" offset="1" style="stop-color:#fff8f8"/></linearGradient><linearGradient id="linearGradient4139" x1="292.23" x2="291.28" y1="507.97" y2="506.36" gradientTransform="matrix(.91553 -.40225 .40225 .91553 -163.81 164.63)" gradientUnits="userSpaceOnUse"><stop id="stop3879-3" offset="0" style="stop-color:#c7c1c1"/><stop id="stop3881-6" offset="1" style="stop-color:#fff8f8"/></linearGradient><linearGradient id="linearGradient4141" x1="291.7" x2="291.45" y1="507.61" y2="505.47" gradientTransform="translate(-149.06 -20.293)" gradientUnits="userSpaceOnUse"><stop id="stop3879-8" offset="0" style="stop-color:#c7c1c1"/><stop id="stop3881-5" offset="1" style="stop-color:#fff8f8"/></linearGradient><linearGradient id="linearGradient4143" x1="291.34" x2="290.47" y1="506.9" y2="505.65" gradientTransform="translate(-155.8 -23.923)" gradientUnits="userSpaceOnUse"><stop id="stop3879-8-0" offset="0" style="stop-color:#c7c1c1"/><stop id="stop3881-5-2" offset="1" style="stop-color:#fff8f8"/></linearGradient><linearGradient id="linearGradient4145" x1="300.45" x2="288.6" y1="500.38" y2="504.75" gradientTransform="translate(-166.78 -22.673)" gradientUnits="userSpaceOnUse"><stop id="stop3879-8-2" offset="0" style="stop-color:#c7c1c1"/><stop id="stop3881-5-0" offset="1" style="stop-color:#fff8f8"/></linearGradient><linearGradient id="linearGradient4147" x1="292.23" x2="291.28" y1="507.97" y2="506.36" gradientTransform="matrix(.95835 -.28560 .28560 .95835 77.928 77.997)" gradientUnits="userSpaceOnUse"><stop id="stop3879-8-08" offset="0" style="stop-color:#c7c1c1"/><stop id="stop3881-5-3" offset="1" style="stop-color:#fff8f8"/></linearGradient><linearGradient id="linearGradient4149" x1="292.23" x2="291.2" y1="507.97" y2="505.56" gradientTransform="matrix(.97315 -.23016 .23016 .97315 88.437 52.209)" gradientUnits="userSpaceOnUse"><stop id="stop3879-8-08-0" offset="0" style="stop-color:#c7c1c1"/><stop id="stop3881-5-3-0" offset="1" style="stop-color:#fff8f8"/></linearGradient><linearGradient id="linearGradient4151" x1="303.25" x2="291.28" y1="500.9" y2="506.36" gradientTransform="matrix(.96431 -.26479 .26479 .96431 62.239 65.714)" gradientUnits="userSpaceOnUse"><stop id="stop3879-8-08-1" offset="0" style="stop-color:#484848"/><stop id="stop3881-5-3-8" offset="1" style="stop-color:#fff8f8"/></linearGradient></defs><g id="layer1" transform="translate(0 -772.36)"><g id="g4089" transform="matrix(.88155 0 0 .88155 -38.263 576.65)"><path id="path3007" d="m54.286 486.83 4.2857-11.429 2.1429-10-1.4286-25-5-0.71428 7.8571-6.4286c1.3343-13.125 6.8178-31.229 2.1429-37.143l7.1429-3.5714c-6.0665 0.38919-4.6202-10.908-5-19.365-0.24666-0.57257 2.3336-3.5461 12.143-2.7779 2.9603 0.78562 5.6967 0.89974 9.2857 3.5714 10.888-11.133 21.462-22.37 34.286-32.857 5.3471-6.4659 11.959-11.983 20-16.429 9.7971-7.7304 15.37-14.991 30.541-23.319 16.698-17.66 21.436-14.704 31.602-20.967 12.641-7.5042 22.409-17.594 47.857-13.571 41.067 0.93655 83.522-2.753 126.6-8.5281 21.41-2.5216 99.14-17.38 122.86 0 14.22 4.5392 28.583 1.8868 59.112 24.242 8.5687 7.3836 21.166 10.739 32.143 15.714h-5l3.5714 2.8571-3.5714 2.8571c8.7786 7.3713 17.053 10.706 26.429 22.857 2.4002 6.9017 17.16 20.545 6.2119 20.166-0.68854 4.6704 8.591 14.037 13.788 21.977-1.5889 9.103 10.666 19.59 22.143 30 10.484 13.333 28.324 25.996 31.429 40 5.0419 5.4487 10.505 9.4223 14.286 19.286 4.2533 2.7597 10.756 5.1981 10.714 8.5714-4.0184 6.8438-10.489 6.8221-17.857 4.2857-3.4516 1.0048-7.1042-1.2734-10.714-2.8571-4.5608 2.5985-9.7823 0.57137-15-1.4286-6.1905-4.2733-12.381-5.429-18.571-5-4.1521-1.2397-8.444-3.1772-13.571-9.2857-10.915-14.198-19.5-29.255-32.525-37.482-1.6282 8.1459-17.636 43.519-39.913 49.171-10.952 1.3386-20.895 4.6831-31.847 12.597-1.2043 1.6667 0.29819 3.3333-15.714 5-4.4809 1.2526-8.4934 5.7842-13.571 2.8571-2.3325 2.0133-1.0085 0.87092-9.0332 5.6276 0.76317-1.1228-2.9348 1.1473-7.8571-3.5714-3.8095 3.6336-7.8716 4.6718-11.681 3.6581-2.6267-1.9048-1.3181-3.8095 0-5.7143-2.8465 4.1114-6.5203 3.259-10 3.5714 2.5292-7.0958 1.183-13.784 15.714-22.143 1.8781-5.5323 8.8198-8.3839 22.143-7.8571-19.018-9.9397-29.911-12.113-32.143-20.714-14.842 7.9956-40.952 1.9051-61.429 2.8571-28.22-2.6613-51.629-7.8044-50.505-15.801-1.8834 13.574 3.1625 29.305-5.2092 42.23 0.11007 6.3005 2.7747 15.156-0.71428 17.857-3.3742 3.9081-8.1428 7.1191-6.4286 13.571-6.8825 4.457-13.036 6.7259-18.571 7.1428-3.8442 4.6406-9.1442 4.1857-14.286 4.2857-3.4597 3.0888-2.7062 5.9366-10.714 9.2857-3.6826-0.15865-0.42993-5.3072 0.29586-8.6148 31.032-25.722 0.71735 2.0808-8.153-0.67096-6.9096 0.92479-10.977 6.7193-15.714 8.5714-0.66382-2.2482 0.87572-4.937 3.5714-7.8572-1.1689-0.76102-5.0785 1.932-9.2857 5-0.92154-3.675 2.0681-5.3945 3.5714-7.8571-2.5706 1.2831-5.1698 2.6521-6.4286 0 0.61755-1.7594 5.2412-10.666 16.429-14.286-2.7595-5.5464 9.3561-3.6553 16.429-4.2857 3.0952-4.4034 6.1905-2.92 9.2857-2.1428 1.1826-13.385-0.009-14.748-0.71429-18.571-2.381-2.2161-4.7619-8.1287-7.1428-15.714-5.3492-8.4682-10.279-14.629-14.286-15.714-3.124 1.9622-4.5662 0.5609-6.4286 0-2.619-1.4472-5.2381-2.001-7.8571-1.4286-6.9048-7.3805-13.81-7.5273-20.714-10.714-9.1623-2.4016-13.81 14.762-20.714 22.143-6.9272 1.4471-9.9209 10.068-20 15.714-1.0134 7.2073-5.7912 10.232-12.857 10.714 1.6619 5.7411-0.58691 9.0379-4.2857 11.429-1.0328 5.1051-12.148 3.4884-18.571 5-6.0163-2.1314-13.411-1.8691-22.143 0.71428-6.1763-4.3423-14.74 0.86591-22.143 1.4286l-0.71429-3.5714h-3.5714c-7.1898 4.3474-4.7977-0.1501-3.5714-3.5714-1.6623 2.8571-6.4962 5.7143-10.714 8.5714 2.5621-6.1905 5.2002-12.381 15-18.571 4.0484-6.9024 10.68-6.0553 17.143-5.7143 2.8697-1.8733 7.2727 0.0865 11.429 1.4286 6.7712-3.6258 11.993 0.69776 19.286-12.388 4.2608-4.5332 5.9898-12.741 8.5714-26.183-5.809-3.5607-73.4 42.629-63.232 31.306-4.0691 7.0875-2.6637 12.342-19.625 11.551 16.847-3.0668-5.0076 23.843-22.395 25.801l0.25254-6.5152c-1.7234-5.3509-3.6546-6.7527-5.7143-5.7143-7.619 4.7105-15.238 1.7736-22.857-1.4286z" style="stroke-linejoin:round;stroke:#000;stroke-linecap:round;stroke-width:1.7717;fill:#aaa7a7"/><path id="path3807" d="m188.52 431.75c-1.8777 9.1806-2.8272 18.868-8.2075 26.138-4.2156 8.2331-12.246 11.338-20.077 12.248-8.7306-3.2854-9.5272-1.8104-11.869-1.2627-5.5947-0.33463-11.334-2.6257-16.289 5.6821-5.3541 2.8568-10.529 8.3047-15.405 18.056-0.79741 2.1154 4.9403-2.6483 10.354-7.0711-2.6325 6.1486 0.91354 4.4026 4.1669 3.0305 0.01-0.91956 1.3854-0.92837 3.4093-0.50507 0.11759 1.0015 0.0537 1.8215 1.1364 3.7881 9.0754-2.3417 18.314-4.8683 22.476-1.6415 7.0891-2.3153 14.348-3.3389 22.097-0.63135 6.8593-0.9875 15.35-0.0499 18.814-5.0508 3.3864-2.6182 5.2289-6.229 3.9143-11.869 8.0992 0.29101 11.304-4.3384 12.879-10.607 6.7484-3.1572 11.94-11.523 19.572-15.657 4.7884-3.5794 8.2787-17.023 17.173-22.602-22.119 2.5568-46.63-9.064-64.145 7.955z" style="fill:#1b1b1b"/><path id="path3777" d="m188.07 431.04c29.241-18.743 37.767-2.9977 66.165-7.0711" style="stroke-linejoin:round;stroke:#000;stroke-linecap:round;stroke-width:1.7717;fill:none"/><path id="path3821" d="m60.179 474.33c8.5172-4.9712 16.597-2.0012 20.893 5.8928 7.016-0.0333 10.926-2.8426 11.483-2.8086 3.4753 0.21133 5.7163 2.3429 4.0527 13.344-0.38592 1.2418-2.7715 3.9834-5 6.6071 5.925-3.7891 9.8698-2.2317 20.179-17.857 1.2474-7.5155-4.2311-3.8212-6.7857-5-2.1791-3.4999-2.5128-7.3354 0.53571-11.786 7.5438-5.8724 14.672-12.556 18.214-26.25 3.1251-3.5723 6.0757-5.7484 9.6429-12.857 5.1569-5.0785 9.6838-9.8419 11.071-13.036 5.9228 2.3564 11.862 5.2822 17.321-8.5714 2.4507 1.0509 6.3109-0.71703 13.036-8.2143 12.17-3.7767 24.563-6.552 37.679-6.0714-9.9879-4.4462-27.988-15.038-38.929-6.9643-1.5867-9.6484-13.279-2.9719-20.357-3.75 9.1122-13.412-5.3314-2.4128-9.2857-2.3214 1.2968-4.4221 5.9048-12.251-6.9643-6.25l-17.679-23.393c-11.075 6.6538-20.497 19.093-30.714 28.75-5.4806-3.527-6.9328-2.3542-9.8214-2.8571-5.2397-0.2304-11.316-1.6456-11.071 5.8929-0.77727 6.1322-0.8249 11.999 3.5714 16.25l-6.6071 2.6786c5.0279 5.7344 1.1886 22.293-1.6071 37.679-3.2682 1.3883-4.2165 4.0562-7.5 5.8928 1.6338-0.0533 3.7014-0.97414 4.4643 0.7143 1.2231 6.8594 1.9002 13.11 1.4286 25.357-1.3 4.5662-2.2994 8.5913-1.25 8.9286z" style="fill:#2f2c2c"/><path id="path3779" d="m129.3 387.68c9.7892-7.915 28.002-0.59681 19.445 21.971 4.453-0.0201 10.025-11.346 9.0914-17.425-4.5488-9.3209-1.2677-10.32-15.405-14.142-9.4782 1.5895-12.858 7.3666-13.132 9.5964z" style="stroke-linejoin:round;stroke:#000;stroke-linecap:round;stroke-width:1.063;fill:url(#linearGradient4125)"/><path id="path3781" d="m105.31 474.3c-1.5308-2.0161-2.6977-4.4568-0.25254-11.112 7.5264-5.3752 14.493-12.317 18.688-27.022 3.6012-3.395 7.069-6.99 9.3439-12.374 3.8233-3.7666 8.4465-7.8119 11.647-13.446 9.7574 3.1345 14.533-0.37695 16.889-8.0072 4.3894-1.7076 8.6523-2.7975 12.374-7.8414 12.411-5.9842 25.639-7.4767 39.396-6.0609 40.466 6.0576 31.253 30.022 28.537 27.779-20.03-4.6613-33.534 9.0142-49.75 0.25253-8.5479-0.0629-15.64 18.648-42.426 34.093-13.95 9.9855-26.608 16.325-24.577 12.691-6.2553 16.64-15.853 9.2252-19.87 11.047z" style="stroke-linejoin:round;stroke:#000;stroke-linecap:round;stroke-width:.70866;fill:#fff"/><path id="path3783" d="m58.084 477.59c2.1045-3.4303 4.209-4.8006 6.3135-5.5558 0.54428-2.9874 1.7347-6.1902 4.2931-9.849 3.1125-7.3258 5.1349-15.742 5.5558-25.759-0.14016-10.918 2.59-21.575 9.849-31.82 2.8547-9.9716 4.6699-19.423 17.93-34.598 3.9695-6.8707 6.1026-6.3958 8.8388-8.3338 0.64062-4.3568 4.1131-7.5808 8.0812-10.607 5.1947-3.6101 7.3496-6.7966 10.354-10.102 23.641-19.859 23.404-9.3744 14.9 11.617l-9.5964 18.435c-11.469 10.102-20.963 21.419-23.739 36.871l-7.0711 20.961c-1.0134 7.9954-4.2101 14.899-10.607 20.203-1.247 6.7077-3.3486 13.395-10.859 19.951-0.1914 3.5677-0.3635 7.1247-1.7678 11.364 6.4125 1.2833 20.44-11.861 15.405 11.112-2.8652 7.1445-8.0474 6.1793-12.122 9.0914v-7.3236c-2.3204-5.2262-4.1583-6.1104-5.8084-5.3033-6.2713 4.7247-14.536 2.9704-23.486-1.0102z" style="fill:#fff"/><path id="path3785" d="m96.722 453.34c-0.03439-2.0203 1.5379-4.0406 2.7779-6.0609 1.8425-2.0587 2.6297-6.6152 6.0609-6.566 7.5303-0.3689 4.2768 5.5456 5.8084 7.5762-1.8532 2.9036-2.6638 6.3284-8.3338 7.3236l-4.2932 0.25254c-2.9476 14.489-1.6587 3.673-2.0203-2.5254z" style="stroke-linejoin:round;stroke:#7d7d7d;stroke-linecap:round;stroke-width:1.7717;fill:url(#radialGradient4127)"/><path id="path3787" d="m71.468 393.49c-0.25254-1.0102 4.7982-8.0812 4.7982-8.0812-5.9634 0.57924-3.6244-5.0683-4.7982-8.0812 0.9666-2.4064 2.4031-2.4633 4.0406-1.5152 0.88701 1.4084 0.96363 3.2221 0.50508 5.3033l3.5355 1.0102c-0.36254-1.852 0.56006-3.7039 1.5152-5.5558 2.1162-0.44987 3.2544-3.2553 2.0383-5.0381-5.6928-3.3043-11.724 0.39293-15.589 0.74492 0.0029 6.4894-2.7018 17.117 3.954 21.213z" style="fill:#fff"/><path id="path3789" d="m54.548 487.18c-2.5822 4.7013-5.1026 11.389 0.75761 14.142 25.837 10.502 19.466-2.3217 22.223-6.8185-1.4045 8.2806-0.26972 11.483 5.0508 6.3134 2.4801-11.742-0.82491-11.018-2.7779-12.627-14.593 4.1608-18.984 1.2314-25.254-1.0102z" style="stroke-linejoin:round;stroke:#000;stroke-linecap:round;stroke-width:1.7717;fill:url(#radialGradient4129)"/><path id="path3791" d="m127.78 484.15c5.7654-7.5416 12.276-8.376 18.688-10.102" style="stroke-linejoin:round;stroke:#030000;stroke-linecap:round;stroke-width:1.7717;fill:none"/><path id="path3793" d="m134.86 488.19c4.5165-5.5403 12.194-7.9437 19.951-9.5964" style="stroke-linejoin:round;stroke:#000;stroke-linecap:round;stroke-width:1.7717;fill:none"/><path id="path3805" d="m160.71 442.36c7.9762-7.5 16.948-15.996 23.929-22.5 1.4826-1.1905 3.6405-2.381 6.0714-3.5714 13.966 8.1367 37.883-5.4996 51.071 0.35715 7.9555-1.6822 16.552-6.2128 23.571-3.2143 18.321 2.3035 20.987 13.837 50 24.643 22.048 5.3282 31.413-5.1975 42.5-13.571 2.0021 27.532-0.62887 36.532-4.2857 41.429 1.6325 9.5662 2.3838 18.692-5.3571 23.571-3.4364 5.2261-1.4946 6.3239-1.4069 8.9069-8.5393 4.9487-17.15 7.5396-19.077 6.6378-3.2732 3.8353-7.4204 4.7005-14.159 4.4553-2.3461 2.7932-4.6922 6.3325-7.0382 7.5829-2.4407 1.072-5.5117 4.5408-5.1046-0.0829-0.76705-1.635 0.62981-4.5684 1.4286-7.1429 4.3949-2.5148 8.0358-6.1606 11.786-9.6429 2.0462-2.8388-11.358 11.071-21.071 10-2.6583-0.72649-8.8007 5.0176-13.571 8.2143-1.0222-1.6644-3.6919-6.4747 17.857-18.929-4.5299-0.25408-12.627 7.5178-19.643 12.857-7.4473 5.9018-5.2197 2.5156-4.6429 0.71429 1.9954-9.2723 12.653-15.208 19.643-17.5-5.8828 3.8126-11.231 2.1572-17.857 13.571-2.8355 0.21644-3.5482-0.42725-4.7258-1.8686 8.8227-12.937 11.598-11.693 16.512-13.846-0.32227-6.5227 10.304-3.2497 15.714-4.6429 2.3926-1.8766 5.5625-4.5326 10-1.9733 1.0866-6.9429 0.11207-12.34 0-18.384-3.8156-3.3236-5.6369-9.8381-7.8571-15.714-2.7972-5.4506-8.6908-14.257-14.455-16.346-3.8924 3.3884-9.6809-3.0056-14.473-0.79722-0.69943-3.8906-11.893-9.049-23.929-11.429-28.001 1.8684-42.766-10.162-65.714 7.5-4.3028 0.0597-26.003 12.948-25.714 10.714z" style="fill:#303030"/><path id="path3799" d="m469.97 437.18c-11.878-15.794-5.683-28.366-6.3134-34.093 2.3312-23.891 8.4175-27.221 12.122-33.335 11.496-12.071 24.049-21.807 34.345-22.476" style="stroke-linejoin:round;stroke:#000;stroke-linecap:round;stroke-width:1.7717;fill:none"/><path id="path3803" d="m315.67 328.34c2.3739-5.0845 32.766 21.847 28.789 29.8 19.325 18.819 11.219 26.612 14.142 37.881 2.3484 2.4297 9.8352 13.746 0.25254 28.032" style="stroke-linejoin:round;stroke:#000;stroke-linecap:round;stroke-width:1.7717;fill:none"/><path id="path3809" d="m465.6 488.4c2.5324-6.1415-2.465-8.7486 15.152-21.971 9.605-10.532 15.01-5.8381 22.223-7.7024 5.128-3.4338 9.6052-7.6318 22.223-2.2728 8.7547-0.007 17.509-4.1645 26.264-6.566 4.0896 0.30092 33.687-13.276 35.608-20.456 4.3243-5.263 8.5996-9.7117 13.258-13.637 6.4762-1.8931 3.4005 0.77824 3.4093 2.2728-4.0553 7.0875-9.8211 33.104-39.648 46.972-25.218 4.1669-22.945 8.3338-31.946 12.501 1.7651 2.9383-8.8235 3.6706-15.784 5.0508-4.2041 1.443-8.243 4.7021-12.753 2.7779-6.726 5.5897-12.592 6.7373-17.299 1.894-9.788 6.9153-14.099 3.959-11.617-1.7678-3.0305 1.9514-6.0609 4.5003-9.0914 2.9042z" style="stroke-linejoin:round;stroke:#000;stroke-linecap:round;stroke-width:1.7717;fill:#2e2e2e"/><path id="path3811" d="m475.91 484.4c5.2518-8.1188 12.319-12.244 19.193-16.794" style="stroke-linejoin:round;stroke:#000;stroke-linecap:round;stroke-width:1.7717;fill:none"/><path id="path3813" d="m486.89 486.42c-0.14215-2.6625 18.219-17.303 18.562-16.162" style="stroke-linejoin:round;stroke:#000;stroke-linecap:round;stroke-width:1.7717;fill:none"/><path id="path3815" d="m504.07 484.53c2.8081-6.1893 11.21-12.217 11.743-11.364" style="stroke-linejoin:round;stroke:#000;stroke-linecap:round;stroke-width:1.7717;fill:none"/><path id="path3817" d="m613.92 410.41c-2.3272 1.3028 25.444 34.321 22.981 40.027 6.6059 9.0628 11.225 11.172 15.152 10.859 11.597 1.0844 15.184 3.4012 18.183 5.8084 5.7923 1.9317 11.539 3.7651 15.026 0.75762 6.1653 3.9408 7.6308 2.7117 10.733 3.283 5.6912-0.86913 8.233 5.5293 17.804-4.2932-0.0425-3.8333-7.1881-6.0274-11.112-8.9651-2.6939-5.5822-6.2461-11.486-14.268-19.067 0.38183-7.8774-17.608-24.782-30.936-39.396-4.008-4.1201-8.3244-8.0859-13.006-11.869-1.9029 0.11635-8.2988-8.0619-2.2728 6.6923-4.002-1.9416-6.9148-8.7846-12.122-5.3033-4.5457 2.1185-0.94157 4.7803-1.0102 7.1973-4.6664-1.5832-5.7147-0.17209-0.63135 6.3134-0.0891 1.3025-8.7978-4.8371-12.248-6.1872-1.2309 2.6864 2.0848 5.1179 4.9245 7.5762 1.5095 1.9617 1.0437 3.6765-0.12627 5.3033 1.6968 4.8389 0.96823 5.52 0.37881 6.4397z" style="stroke-linejoin:round;stroke:#101010;stroke-linecap:round;stroke-width:.70866;fill:#fafafa"/><path id="path3819" d="m61.964 441.11c-0.91813 3.9944-1.6419 8.1188 3.0357 10.714 2.3213-3.8452-0.81554-7.3232-3.0357-10.714z" style="stroke-linejoin:round;stroke:#000;stroke-linecap:round;stroke-width:.70866;fill:url(#radialGradient4131)"/><path id="path3795" d="m278.25 506.98c2.9422-8.5573 10.396-7.8372 15.953-11.469" style="stroke-linejoin:round;stroke:#000;stroke-linecap:round;stroke-width:1.7717;fill:none"/><path id="path3797" d="m282.34 510.16c7.0987-7.9332 18.978-12.104 17.425-11.112" style="stroke-linejoin:round;stroke:#000;stroke-linecap:round;stroke-width:1.7717;fill:none"/><path id="path3873" d="m362.64 413.95c3.7952-6.3261 12.906 1.5907 14.142 8.5863 0.30466 2.6319-1.5232 4.3499-4.5457 5.5558 15.466 18.984 82.37-0.30031 91.419-0.50508 1.9964 3.5117 3.6799 6.7104 6.566 11.112-8.4307 3.0435-21.625 4.6578-48.992 2.0203-14.816-1.1136-29.631-0.8648-44.447-5.0508-7.3904-1.6254-14.134-4.2205-18.688-10.102z" style="stroke-linejoin:round;stroke:#101010;stroke-linecap:round;stroke-width:.70866;fill:#2e2e2e"/><path id="path3875" d="m280.27 513.93c-1.6511-0.45022 10.589-11.804 17.813-12.811 2.1576-0.53269 2.1718 0.36384 0.52039 3.6401-4.6998-1.1394-12.196 6.7547-18.333 9.1706z" style="fill:url(#linearGradient4133)"/><path id="path3875-7" d="m273.98 513.93c-2.3975-0.87809 11.994-15.267 19.688-18.079 2.1431-0.50724 0.94291 1.5042 0.52039 2.63-3.0719 0.0159-13.722 10.746-20.208 15.449z" style="fill:url(#linearGradient4135)"/><path id="path3875-3" d="m272.02 504.91c-1.6511-0.45022 10.589-11.804 17.813-12.811 2.1576-0.53269 2.1718 0.36384 0.52039 3.6401-4.6998-1.1394-12.196 6.7547-18.333 9.1706z" style="fill:url(#linearGradient4137)"/><path id="path3875-0" d="m301.77 521.12c-1.8761-0.11489 3.0187-13.564 9.7266-16.394 1.7611-1.3556 3.0275-0.98691 2.8336 2.6769-4.7612 0.84738-7.9129 9.0364-12.56 13.717z" style="fill:url(#linearGradient4139)"/><path id="path3875-9" d="m133.8 493.36c-2.3675-0.50993 8.5832-11.971 17.813-12.811 1.9286-0.48689 5.5116-1.6554 1.7704 2.8366-4.6998-1.1394-13.446 7.5583-19.583 9.9742z" style="fill:url(#linearGradient4141)"/><path id="path3875-9-4" d="m127.05 489.73c-2.3675-0.50993 8.5832-11.971 17.813-12.811 1.9286-0.48689 6.4532-0.8352 2.3061 2.033-4.8954-1.9218-14.259 7.2517-20.119 10.778z" style="fill:url(#linearGradient4143)"/><path id="path3875-9-6" d="m116.96 492.5c-2.3419-0.4416 9.2828-17.487 17.902-19.954 0.93589-0.21615 5.0765-1.8452 2.9311 2.2116-3.4608-0.49956-16.051 9.6944-20.833 17.742z" style="fill:url(#linearGradient4145)"/><path id="path3875-9-7" d="m492.17 492.13c-2.4146 0.18748 2.9429-10.58 12.216-14.213 0.22306-0.39819 4.3459-1.2359 1.2568 2.4806-4.0463 1.389-6.7589 8.4579-13.472 11.732z" style="fill:url(#linearGradient4147)"/><path id="path3875-9-7-5" d="m477.5 492.02c-2.5176-0.9496 6.8306-16.1 15.514-20.504 1.1172-0.56662 2.2234-0.95534 3.2918-1.113 1.4137-1.4491 6.3043-4.1824 6.1638-0.0462-2.0246-2.1798-19.866 14.836-24.969 21.664z" style="fill:url(#linearGradient4149)"/><path id="path3875-9-7-1" d="m467.85 489.67c-2.418 0.13517 11.168-20.888 19.846-24.141 1.7309-0.98019 6.1392-2.1718 3.721 3.1504-5.1488-1.0092-18.471 16.367-23.567 20.991z" style="fill:url(#linearGradient4151)"/></g></g><metadata/></svg>