<svg xmlns="http://www.w3.org/2000/svg" xmlns:xlink="http://www.w3.org/1999/xlink" width="357.897" height="134.297" enable-background="new 0 0 357.897 334.297" overflow="visible" viewBox="-500 0 1357.897 334.297" xml:space="preserve"><metadata><rdf:RDF xmlns="http://web.resource.org/cc/" xmlns:dc="http://purl.org/dc/elements/1.1/" xmlns:rdf="http://www.w3.org/1999/02/22-rdf-syntax-ns#"><Work><dc:title>Animal</dc:title><dc:description>Animal</dc:description><dc:subject><rdf:Bag><rdf:li>animal</rdf:li><rdf:li>mammal</rdf:li><rdf:li>donkey</rdf:li></rdf:Bag></dc:subject><dc:publisher><Agent rdf:about="http://www.openclipart.org/"><dc:title>Open Clip Art Project</dc:title></Agent></dc:publisher><dc:creator><Agent><dc:title>ArtFavor</dc:title></Agent></dc:creator><dc:rights><Agent rdf:about="http://web.resource.org/cc/PublicDomain"><dc:title>Public Domain</dc:title></Agent></dc:rights><dc:date>2005/10/03</dc:date><dc:format>image/svg+xml</dc:format><dc:type>http://purl.org/dc/dcmitype/StillImage</dc:type><license rdf:resource="http://web.resource.org/cc/PublicDomain"/></Work><License rdf:about="http://web.resource.org/cc/PublicDomain"><permits rdf:resource="http://web.resource.org/cc/Reproduction"/><permits rdf:resource="http://web.resource.org/cc/Distribution"/><permits rdf:resource="http://web.resource.org/cc/DerivativeWorks"/></License></rdf:RDF><variableSets xmlns="http://ns.adobe.com/Variables/1.0/"><variableSet locked="none" varSetName="binding1"><variables/><v:sampleDataSets xmlns="http://ns.adobe.com/GenericCustomNamespace/1.0/" xmlns:v="http://ns.adobe.com/Variables/1.0/"/></variableSet></variableSets><sfw xmlns="http://ns.adobe.com/SaveForWeb/1.0/"><slices/><sliceSourceBounds width="357.897" height="334.297" x="166.505" y="406.862" bottomLeftOrigin="true"/></sfw></metadata><switch><g><g id="Layer_1"><g><path fill="#BFBFBF" fill-rule="evenodd" stroke="#000" stroke-miterlimit="2.414" stroke-width=".36" d="M17.184,98.12c0,0,9.889,5.546,5.186,11.334C18.389,114.521,38.531,100.772,17.184,98.12z" clip-rule="evenodd"/><path fill="#6B432F" fill-rule="evenodd" stroke="#000" stroke-miterlimit="2.414" stroke-width=".36" d="M80.982,24.914C80.861,24.551,73.987,8.875,70.729,6.1c-3.376-2.774-2.772-1.688-2.653,0.724 c0.122,2.291,1.93,14.834,1.568,20.623c-0.241,5.789,2.17,22.071,2.532,22.071C72.66,49.517,85.564,59.888,80.982,24.914z" clip-rule="evenodd"/><path fill="none" fill-rule="evenodd" stroke="#241610" stroke-linecap="round" stroke-miterlimit="2.414" stroke-width=".72" d="M69.524,20.813c0,0-2.05-16.523-1.567-16.401c4.824,0.843,9.406,12.543,9.406,12.543" clip-rule="evenodd"/><g><path fill="none" fill-rule="evenodd" stroke="#301E15" stroke-linecap="round" stroke-miterlimit="2.414" stroke-width=".72" d="M69.524,21.055c0,0-2.05-16.282-1.207-16.282c4.342,0.724,9.287,12.784,9.287,12.784" clip-rule="evenodd"/><path fill="none" fill-rule="evenodd" stroke="#3A251A" stroke-linecap="round" stroke-miterlimit="2.414" stroke-width=".72" d="M69.524,21.175c0,0-2.05-16.041-0.843-16.041c3.858,0.604,9.165,12.906,9.165,12.906" clip-rule="evenodd"/><path fill="none" fill-rule="evenodd" stroke="#472D1F" stroke-linecap="round" stroke-miterlimit="2.414" stroke-width=".72" d="M69.645,21.416c0,0-2.17-15.799-0.724-15.799c3.618,0.243,9.045,12.906,9.045,12.906" clip-rule="evenodd"/><path fill="none" fill-rule="evenodd" stroke="#543424" stroke-linecap="round" stroke-miterlimit="2.414" stroke-width=".72" d="M69.645,21.657c0,0-2.051-15.558-0.362-15.678c3.135,0.12,8.924,13.025,8.924,13.025" clip-rule="evenodd"/><path fill="none" fill-rule="evenodd" stroke="#5E3B29" stroke-linecap="round" stroke-miterlimit="2.414" stroke-width=".72" d="M69.766,21.778c0,0-2.171-15.196-0.121-15.316c2.773-0.121,8.683,13.145,8.683,13.145" clip-rule="evenodd"/></g><path fill="none" fill-rule="evenodd" stroke="#6B432F" stroke-linecap="round" stroke-miterlimit="2.414" stroke-width=".72" d="M69.766,22.018c0,0-2.171-14.954,0.241-15.195c2.412-0.241,8.563,13.267,8.563,13.267" clip-rule="evenodd"/><path fill="none" fill-rule="evenodd" stroke="#000" stroke-linecap="round" stroke-miterlimit="2.414" stroke-width=".36" d="M69.645,23.225c0,0-1.688-14.712-1.688-16.763c0,0-1.086-3.015,0.844-2.05c0,0,4.462,0.843,10.613,17.004" clip-rule="evenodd"/><path fill="#8FA6AB" fill-rule="evenodd" stroke="#000" stroke-miterlimit="2.414" stroke-width=".36" d="M334.364,157.454c0,0,15.558-2.652,20.861-2.895l0.243-0.965c0,0,1.085,1.087,0.12,2.774l-0.363-0.965 C355.226,155.403,336.292,157.454,334.364,157.454z" clip-rule="evenodd"/><path fill="#1A110C" fill-rule="evenodd" stroke="#000" stroke-miterlimit="2.414" stroke-width=".36" d="M70.247,48.671c0,0,0.482-0.482,0-1.084c-0.602-0.603-2.17-1.207-2.17-1.207l1.93,0.361c0,0,0.481,0-0.121-0.963 c-0.603-0.965-1.085-1.567-1.81-1.809c-0.723-0.363,2.412,0.602,2.895,1.446c0.604,0.843,1.206,0.362,0.724-0.24 c-0.361-0.604-1.809-1.93-1.809-1.93l1.085,0.241c0,0-0.724-2.535-2.05-2.654c-1.206-0.12,1.085-0.724,3.015,1.688 c1.93,2.291,0.121-1.206-0.361-1.688c-0.482-0.361-2.051-3.257-2.051-3.257s0.241-0.482,0.482,0 c0.24,0.482,2.774,2.05,2.774,2.05l-1.327-1.807c0,0,0.724-0.122,1.207,0.361c0.603,0.483,1.929,0.602,1.929,0.602 l-0.724-0.843l1.327,0.361l-0.482-1.445l1.084,0.722l-0.361-0.843c0,0,0.602,0.241,0.965,0.604 c0.242,0.361,0.603-0.604,0.242-0.965c-0.363-0.363,0.602-1.209,0.843-0.363c0.362,0.724,0.603,1.207,0.724,0.965 c0-0.241,0.121-2.896,0.845-1.328c0.603,1.448,12.783,3.861,12.783,3.861s1.327-1.085,1.689-0.122 c0.482,0.965,0.844,3.86,0.844,3.86s1.086-4.583,1.448-3.86c0.362,0.724,0.362,3.378-0.121,4.945 c-0.604,1.689,0.603,1.568,0.964,0.846c0.241-0.604,1.327-3.137,1.327-3.137l-0.604,3.859c0,0,1.086,0.361,1.327-1.809 c0.241-2.171,0.603-3.015,0.603-3.015s0.483,6.513,0,7.96c-0.603,1.326,0.604,2.05,1.086,0.724 c0.362-1.207,0.965-4.826,0.965-4.826s-0.845,11.821,2.049,3.256c0,0,1.086-1.93,1.086-1.084c0,1.084-0.241,5.426,0.965,0.845 c1.326-4.462-2.534,15.798,2.17,0.361c0,0-2.292,13.749,2.291,1.929c0,0-0.483,4.945-0.844,5.428 c-0.241,0.361,2.774-3.619,3.016-4.102c0.241-0.601,0.482-0.24,0.362,0.243s-2.654,4.702-2.654,5.546 c0,0.726-0.362,2.173,0.362,0.847c0.844-1.208,2.171-4.463,2.292-5.308c0-0.965,0.482-0.724,0.482-0.242 c0,0.483-1.447,6.995-2.171,8.201c-0.603,1.207,0.603,0.963,1.327-0.362c0.603-1.327,2.532-6.391,2.291-5.667 c-0.241,0.843-1.568,5.788-1.086,4.704c0.483-0.846,2.051-2.896,2.17-3.378c0-0.361,0.482,0.482,0.241,1.448 c-0.119,0.965-1.205,3.618-0.119,2.773c0.965-0.843,1.808-2.051,1.326-1.086c-0.482,0.845-3.377,5.187-1.688,4.223 c1.688-0.965,2.653-2.534,2.653-1.81c-0.121,0.602-0.121,1.328,0.481,0.482c0.604-0.965,2.051-2.774,1.568-1.93 c-0.362,0.965-2.532,5.428-0.481,3.498c2.05-1.931,2.412-2.291,1.809-1.086c-0.482,1.208-1.568,2.173-1.93,3.378 c-0.241,1.207,1.086,1.448,1.93,0.241c0.724-1.207,2.292-3.619,2.171-2.772c-0.121,0.844-2.895,4.098-2.414,4.341 c0.363,0.24,1.931,0.361,2.534,0c0.602-0.604,2.17-2.171,1.688-1.328c-0.362,0.724-3.618,4.341-2.894,4.221 c0.603,0,4.583-4.583,4.461-3.859c-0.241,0.722-4.1,5.789-2.772,5.426c1.084-0.361,4.944-4.704,4.582-3.86 c-0.362,0.847-2.291,3.86-0.604,2.775c1.568-1.084,1.929-2.894,2.292-2.532c0.481,0.482-0.483,1.326,0,1.204 c0.481-0.119,0.723,0.363,0.481,0.726c-0.241,0.361-2.774,4.702-0.723,3.015c2.048-1.569,3.375-3.741,3.014-2.776 c-0.361,0.965-4.1,6.513-3.014,6.393c0.964,0,5.064-6.152,5.064-5.428c0,0.724-4.583,6.995-2.534,5.669 c2.051-1.328,5.307-6.271,5.066-5.428s-4.944,6.875-4.221,6.754c0.844-0.121,4.826-5.91,4.704-5.067 c0,0.965-4.101,6.876-2.412,6.271c1.568-0.722,4.462-3.254,3.859-2.411c-0.603,0.846-5.065,3.62-1.93,2.894 c3.135-0.722,5.668-3.014,4.583-1.566c-1.207,1.446-2.292,2.292-1.207,2.17c1.207-0.122,3.859-2.17,3.377-1.205 c-0.482,0.963-5.426,6.028-2.652,5.307c2.652-0.726,6.029-5.55,5.788-4.706c-0.241,0.965-5.306,6.271-4.342,6.271 c1.086,0,3.377-2.048,4.101-2.531c0.603-0.482,1.447-0.726,0.965,0.12c-0.482,0.846,0.362,0.724,1.206,0.363 c0.845-0.363,1.448-0.482,0.845,0.118c-0.604,0.604-6.151,5.188-1.086,2.293c5.064-2.894,3.377-1.446,2.775-0.965 c-0.604,0.602-6.635,4.943-0.846,2.171c5.669-2.774,2.292-0.482,1.568-0.122c-0.723,0.483-4.463,3.859-0.362,1.929 c4.222-1.807,1.81,0.122,0.965,0.482c-0.724,0.365-2.05,1.691-0.844,1.57c1.206-0.122,5.426-1.809,4.583-0.604 c0,0-3.377,1.448-2.292,2.052c1.206,0.361,4.101-1.326,3.979-0.604c0,0.604-3.979,1.689-2.652,1.811 c1.325,0.12,2.894-0.482,3.737-0.363c0.724,0.241,3.137,0.724,3.016,1.206c0,0.483,0,0.483-1.568,0.604 c-1.447,0.118-3.737,0.48-1.688,0.963c2.171,0.482,3.378,0.12,3.619,0.724c0.361,0.483,1.929,0.122,2.411,0.724 c0.482,0.603,3.017,0.361,3.017,0.724c0,0.481-3.258-0.241-3.258,0.603c-0.119,1.086,1.689,1.086,2.653,0.844 c0.965-0.12,2.654-0.483,2.051,0c-0.724,0.482-1.086,0.965-0.241,0.844c0.845,0,1.447,1.69,3.496,1.328 c2.052-0.241,6.634-0.724,5.911,0.12c-0.724,0.845-4.342,2.171-4.342,2.413S150.689,117.293,70.247,48.671z" clip-rule="evenodd"/><path fill="none" fill-rule="evenodd" stroke="#000" stroke-miterlimit="2.414" stroke-width=".36" d="M76.882,48.671c0,0-3.136-3.256-4.222-3.978" clip-rule="evenodd"/><path fill="none" fill-rule="evenodd" stroke="#000" stroke-miterlimit="2.414" stroke-width=".36" d="M77.243,46.259c0,0-2.412-4.824-3.136-5.307" clip-rule="evenodd"/><path fill="none" fill-rule="evenodd" stroke="#000" stroke-miterlimit="2.414" stroke-width=".36" d="M78.69,47.346c0,0-2.774-7.237-3.739-7.839" clip-rule="evenodd"/><path fill="none" stroke="#000" stroke-miterlimit="2.414" stroke-width=".36" d="M77.966,41.557 l-1.93-3.135"/><path fill="none" fill-rule="evenodd" stroke="#000" stroke-miterlimit="2.414" stroke-width=".36" d="M87.855,51.204c0,0,4.583-7.115,4.462-10.13" clip-rule="evenodd"/><path fill="none" fill-rule="evenodd" stroke="#000" stroke-miterlimit="2.414" stroke-width=".36" d="M90.992,50.482c0,0,2.412-4.584,2.773-7.356" clip-rule="evenodd"/><path fill="none" fill-rule="evenodd" stroke="#000" stroke-miterlimit="2.414" stroke-width=".36" d="M96.9,46.501c0,0-2.773,6.994-3.858,8.081" clip-rule="evenodd"/><path fill="none" fill-rule="evenodd" stroke="#000" stroke-miterlimit="2.414" stroke-width=".36" d="M98.951,50.482c0,0-3.015,5.185-4.101,5.667" clip-rule="evenodd"/><path fill="none" fill-rule="evenodd" stroke="#000" stroke-miterlimit="2.414" stroke-width=".36" d="M95.695,53.495c0,0,2.17-4.46,2.894-6.754" clip-rule="evenodd"/><path fill="none" fill-rule="evenodd" stroke="#000" stroke-miterlimit="2.414" stroke-width=".36" d="M101.364,51.565c0,0-2.051,5.066-4.222,5.91" clip-rule="evenodd"/><path fill="none" fill-rule="evenodd" stroke="#000" stroke-miterlimit="2.414" stroke-width=".36" d="M104.86,54.943c0,0-1.688,4.704-3.858,5.548" clip-rule="evenodd"/><path fill="none" fill-rule="evenodd" stroke="#000" stroke-miterlimit="2.414" stroke-width=".36" d="M104.499,50.36c0,0-2.773,7.237-4.704,8.685" clip-rule="evenodd"/><path fill="none" fill-rule="evenodd" stroke="#000" stroke-miterlimit="2.414" stroke-width=".36" d="M107.031,55.667c0,0-1.567,4.1-4.342,5.548" clip-rule="evenodd"/><path fill="none" fill-rule="evenodd" stroke="#000" stroke-miterlimit="2.414" stroke-width=".36" d="M103.775,59.284c0,0,2.17-3.496,2.773-5.789" clip-rule="evenodd"/><path fill="none" fill-rule="evenodd" stroke="#000" stroke-miterlimit="2.414" stroke-width=".36" d="M109.082,56.028c0,0-2.895,6.393-4.824,6.997" clip-rule="evenodd"/><path fill="none" fill-rule="evenodd" stroke="#000" stroke-miterlimit="2.414" stroke-width=".36" d="M110.649,62.06c0,0-1.809,3.255-3.377,3.859" clip-rule="evenodd"/><path fill="none" fill-rule="evenodd" stroke="#000" stroke-miterlimit="2.414" stroke-width=".36" d="M114.509,63.747c0,0-2.894,4.102-4.583,4.341" clip-rule="evenodd"/><path fill="none" fill-rule="evenodd" stroke="#000" stroke-miterlimit="2.414" stroke-width=".36" d="M108.72,67.366c0,0,3.86-3.619,4.583-4.945" clip-rule="evenodd"/><path fill="none" fill-rule="evenodd" stroke="#000" stroke-miterlimit="2.414" stroke-width=".36" d="M118.248,64.953c0,0-4.462,4.943-6.03,5.426" clip-rule="evenodd"/><path fill="none" fill-rule="evenodd" stroke="#000" stroke-miterlimit="2.414" stroke-width=".36" d="M121.865,71.344c0,0-4.101,3.859-5.064,3.859" clip-rule="evenodd"/><path fill="none" fill-rule="evenodd" stroke="#000" stroke-miterlimit="2.414" stroke-width=".36" d="M120.78,67.849c0,0-4.342,4.581-6.15,5.063" clip-rule="evenodd"/><path fill="none" fill-rule="evenodd" stroke="#000" stroke-miterlimit="2.414" stroke-width=".36" d="M117.041,73.395c0,0,4.704-3.737,5.307-4.581" clip-rule="evenodd"/><path fill="none" fill-rule="evenodd" stroke="#000" stroke-miterlimit="2.414" stroke-width=".36" d="M127.292,71.827c0,0-3.255,5.547-7.236,7.117" clip-rule="evenodd"/><path fill="none" fill-rule="evenodd" stroke="#000" stroke-miterlimit="2.414" stroke-width=".36" d="M129.825,77.616c0,0-4.101,4.1-5.547,4.341" clip-rule="evenodd"/><path fill="none" fill-rule="evenodd" stroke="#000" stroke-miterlimit="2.414" stroke-width=".36" d="M129.221,74.481c0,0-5.667,5.667-6.873,6.15" clip-rule="evenodd"/><path fill="none" fill-rule="evenodd" stroke="#000" stroke-miterlimit="2.414" stroke-width=".36" d="M132.115,78.099c0,0-4.582,5.426-6.391,5.547" clip-rule="evenodd"/><path fill="none" fill-rule="evenodd" stroke="#000" stroke-miterlimit="2.414" stroke-width=".36" d="M136.338,80.873c0,0-6.754,4.704-8.683,4.583" clip-rule="evenodd"/><path fill="none" fill-rule="evenodd" stroke="#000" stroke-miterlimit="2.414" stroke-width=".36" d="M140.799,81.475c0,0-8.924,5.911-10.732,6.03" clip-rule="evenodd"/><path fill="none" fill-rule="evenodd" stroke="#000" stroke-miterlimit="2.414" stroke-width=".36" d="M142.85,86.781c0,0-7.356,3.137-9.287,3.376" clip-rule="evenodd"/><path fill="none" fill-rule="evenodd" stroke="#000" stroke-miterlimit="2.414" stroke-width=".36" d="M140.438,84.851c0,0-4.704,3.017-6.031,3.377" clip-rule="evenodd"/><path fill="none" fill-rule="evenodd" stroke="#000" stroke-miterlimit="2.414" stroke-width=".36" d="M147.07,88.229c0,0-7.959,4.705-9.526,4.824" clip-rule="evenodd"/><path fill="none" fill-rule="evenodd" stroke="#000" stroke-miterlimit="2.414" stroke-width=".36" d="M148.639,89.557c0,0-6.633,4.824-8.563,5.185" clip-rule="evenodd"/><path fill="none" fill-rule="evenodd" stroke="#000" stroke-miterlimit="2.414" stroke-width=".36" d="M150.568,91.004c0,0-6.753,4.824-8.201,4.942" clip-rule="evenodd"/><path fill="none" fill-rule="evenodd" stroke="#000" stroke-miterlimit="2.414" stroke-width=".36" d="M154.548,93.776c0,0-7.236,4.221-9.045,4.221" clip-rule="evenodd"/><path fill="none" fill-rule="evenodd" stroke="#000" stroke-miterlimit="2.414" stroke-width=".36" d="M161.542,95.829c0,0-6.873,1.326-8.924,2.53c-2.17,1.207-3.979,1.689-3.979,1.689" clip-rule="evenodd"/><path fill="none" stroke="#000" stroke-miterlimit="2.414" stroke-width=".36" d="M164.317,100.652 l-8.685,2.048"/><path fill="#241610" fill-rule="evenodd" d="M345.217,164.689 c0,0,0.241,11.821,0.241,15.197c0,3.256,3.017,14.352,1.93,12.18c-1.085-2.17,4.221,10.854,2.773,8.321 c-1.326-2.532,5.308,10.009,3.378,7.839c-1.931-2.291,7.235,14.11,3.256,11.336c-3.86-2.773,3.618,7.237-1.087,5.548 c0,0,0.846,22.794-0.239,19.417c0,0-2.291,16.041-2.534,13.869c0,0,0,13.628-0.602,11.699c0,0,0.602,13.265-0.483,9.165 c0,0-1.688-7.478-2.288-6.393c-0.484,1.087-1.087-2.532-2.174-9.769c0,0-1.085,10.856-1.326-6.872 c0,0-0.604,6.872-2.049-12.784c0,0-2.412-2.291-2.412-16.643c0,0-1.689-3.137,0.238-13.389c0,0-2.169-2.411-0.238-7.476 c0,0-1.809,2.05,0.843-5.789c2.532-7.839-1.206-22.19-0.36-23.879C342.083,176.267,339.911,172.65,345.217,164.689z" clip-rule="evenodd"/><path fill="#593727" fill-rule="evenodd" d="M343.048,186.76 c-0.482-5.065-1.328-9.527-0.965-10.372c0,0-2.172-3.619,3.134-11.578c0,0,0.241,11.817,0.241,15.195 c0,1.328,0.483,3.859,0.966,6.391C346.424,186.397,343.53,191.223,343.048,186.76z" clip-rule="evenodd"/><path fill="none" fill-rule="evenodd" stroke="#241610" stroke-linecap="round" stroke-miterlimit="2.414" stroke-width=".72" d="M343.648,189.292c1.81,3.256,2.896-1.205,2.896-1.205" clip-rule="evenodd"/><g><path fill="none" fill-rule="evenodd" stroke="#2E1D14" stroke-linecap="round" stroke-miterlimit="2.414" stroke-width=".72" d="M343.648,189.051c1.568,2.774,2.896-1.206,2.896-1.206" clip-rule="evenodd"/><path fill="none" fill-rule="evenodd" stroke="#392419" stroke-linecap="round" stroke-miterlimit="2.414" stroke-width=".72" d="M343.53,188.688c1.326,2.534,2.894-1.205,2.894-1.205" clip-rule="evenodd"/><path fill="none" fill-rule="evenodd" stroke="#442A1D" stroke-linecap="round" stroke-miterlimit="2.414" stroke-width=".72" d="M343.53,188.327c1.084,2.171,2.894-1.204,2.894-1.204" clip-rule="evenodd"/><path fill="none" fill-rule="evenodd" stroke="#4E3122" stroke-linecap="round" stroke-miterlimit="2.414" stroke-width=".72" d="M343.53,187.966c0.722,1.809,2.772-1.207,2.772-1.207" clip-rule="evenodd"/></g><path fill="none" fill-rule="evenodd" stroke="#593727" stroke-linecap="round" stroke-miterlimit="2.414" stroke-width=".72" d="M343.408,187.724c0.604,1.327,2.895-1.205,2.895-1.205" clip-rule="evenodd"/><path fill="none" fill-rule="evenodd" stroke="#000" stroke-miterlimit="2.414" stroke-width=".36" d="M345.217,164.689c0,0,0.241,11.821,0.241,15.197c0,3.256,3.017,14.352,1.93,12.18c-1.085-2.17,4.221,10.854,2.773,8.321 c-1.326-2.532,5.308,10.009,3.378,7.839c-1.931-2.291,7.235,14.11,3.256,11.336c-3.86-2.773,3.618,7.237-1.087,5.548 c0,0,0.846,22.794-0.239,19.417c0,0-2.291,16.041-2.534,13.869c0,0,0,13.628-0.602,11.699c0,0,0.602,13.265-0.483,9.165 c0,0-1.688-7.478-2.288-6.393c-0.484,1.087-1.087-2.532-2.174-9.769c0,0-1.085,10.856-1.326-6.872 c0,0-0.604,6.872-2.049-12.784c0,0-2.412-2.291-2.412-16.643c0,0-1.689-3.137,0.238-13.389c0,0-2.169-2.411-0.238-7.476 c0,0-1.809,2.05,0.843-5.789c2.532-7.96-1.206-22.19-0.36-23.879C342.083,176.267,339.911,172.65,345.217,164.689z" clip-rule="evenodd"/><path fill="#593727" fill-rule="evenodd" stroke="#000" stroke-miterlimit="2.414" stroke-width=".36" d="M345.941,153.354c0,0,1.326-5.186,2.292-5.427c0.963-0.361-0.604-4.702-2.051-3.619 C344.614,145.394,344.734,151.062,345.941,153.354z" clip-rule="evenodd"/><path fill="#6B432F" fill-rule="evenodd" stroke="#000" stroke-miterlimit="2.414" stroke-width=".36" d="M331.71,242.356c0,0,0.361-4.702,0-6.632c-0.362-1.929-2.653-3.617-1.205-7.476c0,0,2.895,1.565,0.482-1.811 c0,0-0.604-1.326-0.363-2.651c0,0,1.447,0,0.604-2.051c0,0-0.482-1.93-0.362-2.413c0.122-0.361,1.569,1.087,0.362-1.689 c0,0,1.086-0.361,0.844-4.1c0,0,0-2.291,0.847-2.532c0.843-0.361,1.083-2.292,0.843-3.376c-0.12-1.087,0.362-2.652,1.688-2.896 c0,0,1.809-2.17,1.931-8.683c0,0,1.326-6.03,0.965-7.237c-0.243-1.086,3.495-12.782,4.1-14.352 c0.482-1.689,3.98-11.697,3.859-16.16c-0.12-4.461,0.724-7.959-1.446-11.096c0,0,0.723-1.687-1.326-3.618 c0,0,1.204-3.979-8.442-10.734c0,0-3.257-4.1-10.613-7.838c0,0,2.048-0.483-11.818-9.648c0,0-5.91-3.017-15.195-6.152 c0,0-5.911-2.172-10.133-2.411c0,0,4.945,0-6.632-0.844c0,0,0.845-0.121-12.421,0.361c0,0,0.119,1.687-11.699,2.533 c0,0-7.477,0.241-22.069,0.241c0,0-11.459,0.482-24.602-1.326c0,0-10.615-1.448-19.418-2.774c0,0-3.738-3.137-10.012-1.93 c0,0,2.776-3.739-8.562-0.602c0,0-4.101-0.361-8.08,1.326c-3.859,1.689-10.009-0.361-25.083-9.888 c-14.955-9.408-34.975-34.371-43.779-38.231c-2.292-0.965-3.619-2.291-7.959-6.15c-4.583-4.102,21.225-9.167-5.187-48.603 c-3.618-5.306-4.1,27.255-2.653,43.657c0.362,4.463-8.201,3.98-10.251,4.1c0,0-13.989,0-28.341,10.613 C26.108,69.777,22.49,72.551,16.701,75.566c-5.789,3.135,19.417,40.04,22.793,39.798c6.03-0.363,14.351-6.394,23.156-5.548 c2.653-0.482,4.1,1.448,9.768-1.084c1.447,0.239,1.447,1.084,2.774,1.687c2.17,0.965,4.101,1.568,5.547,4.102 c0,0,3.015,4.342,8.442,20.743c0,0,2.894,5.185,3.256,8.08c0.482,2.894,3.257,7.235,3.016,3.498c0,0,1.446,5.547,3.858,8.442 c0,0,1.086,6.39,2.413,6.633c0,0,0.723,4.341,2.653,7.115c0,0,1.327,6.632,2.773,5.548c0,0,1.327,3.617,2.532,3.496 c0,0,0.483,1.328,0.965,1.93c0.362,0.482,47.155,83.214,64.643,18.212l101.667,4.341 C276.959,202.559,327.853,261.773,331.71,242.356z" clip-rule="evenodd"/><path fill="#5B3C2B" fill-rule="evenodd" d="M115.112,187.241 c-2.773-4.219-4.342-7.113-4.462-7.235c-0.482-0.602-0.965-1.93-0.965-1.93c-1.206,0.122-2.532-3.496-2.532-3.496 c-1.446,1.084-2.773-5.548-2.773-5.548c-1.93-2.773-2.653-7.115-2.653-7.115c-1.327-0.244-2.413-6.633-2.413-6.633 c-2.412-2.895-3.858-8.442-3.858-8.442c0.241,3.737-2.533-0.604-3.016-3.498c-0.362-2.895-3.256-8.08-3.256-8.08 c-5.427-16.401-8.442-20.743-8.442-20.743c-1.447-2.534-3.377-3.136-5.547-4.102c-0.482-0.241-0.845-0.602-1.206-0.843 c0,0,5.668,1.929,6.875,0.602c1.327-1.445,1.568,1.688,2.291,3.017c0.724,1.446,14.593,30.39,17.367,31.838 c2.773,1.327,3.256,4.944,5.306,6.874c3.859,3.979,7.477-9.165,9.647-14.352c1.689-3.979,3.859-5.306,5.307-5.306 c0,0,2.774-1.689-2.291,6.15c0,0-11.337,14.352-8.563,31.235c0,0,0.603,1.327,0.241,4.946 c-0.241,3.617,9.165,19.658,6.753,17.728C114.388,190.377,115.112,187.241,115.112,187.241z" clip-rule="evenodd"/><path fill="#E6E6E6" fill-rule="evenodd" stroke="#000" stroke-miterlimit="2.414" stroke-width=".36" d="M109.805,178.801c0,0,0.724,4.341,1.93,5.546c0,0,0.362,6.393,1.206,6.03c0,0-0.122,4.704,1.206,4.826 c0,0,1.206,4.22,2.171,4.702c0,0,1.084,3.858,2.17,4.341c0,0,0.724,2.413,2.291,2.532c0,0,0.724,2.895,2.654,3.017 c0,0,2.17,2.652,3.98,11.215c0,0-0.363,1.567,1.085,1.689c0,0,1.327,6.994,1.327,8.561c0,1.448,0.964,2.413,1.085,2.052 c0,0-0.843,9.043,0.603,7.96c0,0-0.482,8.561,0.602,7.234c0,0-1.084,8.563-0.24,7.719c0,0-1.085,5.546-0.121,4.702 c0,0-1.085,10.854,0.361,9.287c0,0,0.846,14.352-0.12,18.571c0,0-1.085,9.167-2.653,10.373c0,0-16.643,20.26,21.588,23.034 c0,0,2.895,2.773,2.773-3.617c0,0,1.929-1.931,1.447-3.257c0,0,0.844-1.448-0.121-3.256c0,0,1.568-6.876,0.965-10.491 c0,0,0.845-12.905,0.604-15.318c0,0-0.362-7.837,0.724-10.37c0,0,0.964-3.378,0.241-5.187c0,0,1.808-1.689,1.446-3.376 c0,0-0.724-10.735-1.086-11.578c0,0,2.171-0.965,1.086-3.619c0,0,0.844-0.843,0.603-3.376c0,0,1.447-0.361,0.846-5.065 c0,0,1.808-3.739,1.929-5.187c0,0,1.568-3.015,2.532-7.719c0,0,2.051-1.809,2.413-5.546c0,0,2.17-2.413,1.688-4.222 c0,0,1.929-1.689,1.327-3.619c0,0,0.844-1.327,2.17-0.12c0,0,3.258,0.843,1.689-1.207c0,0,3.618,2.774,3.377,1.207 c0,0,4.341,1.567,1.93-0.724c0,0,10.01,2.291,7.598,0c0,0,12.061,3.134,10.612,0.482c0,0,5.309,2.896,3.86,0 c0,0,5.427,3.98,5.427,1.567c0,0,6.752,1.811,5.908-0.361c0,0,4.583,2.773,5.309,0.843c0,0,14.23,1.567,17.847,0.482 c0,0,8.563,0,10.735-1.567c0,0,5.425-0.122,7.476-1.931c0,0,4.823-0.724,5.91-2.049c0,0,6.03-0.483,4.823-2.533 c0,0,1.447-1.205,2.412,0c1.447,1.567,0.604,8.926,2.654,7.356c0,0,0.846,6.513,2.773,5.306c1.93-1.326-0.363,0-0.363,0 s2.654,5.91,3.982,5.067c0,0,2.531,5.546,3.134,3.979c0,0,5.909,4.946,6.996,7.117c1.085,2.291,3.858,3.737,4.461,4.823 c0.482,0.844,2.171,2.048,3.257,2.292c0.844,0.24,4.343,8.804,5.309,10.13c0,0,0,7.236,1.325,6.753 c0,0,0.239,21.828,0.12,23.275c-0.12,1.327-1.689,3.378-0.12,3.739c0,0-0.362,6.271-1.447,7.839 c-1.087,1.567-1.809,2.773-0.724,2.532c0,0-2.05,2.894-2.773,3.376c-0.604,0.363,0,1.084-2.534,2.533 c0,0-5.064,5.549-3.015,6.875c2.172,1.205,13.023,6.149,15.798,5.547c0,0,3.257-4.102,2.774-1.328c0,0,3.377-2.169,3.499-3.858 c0,0,2.291-1.931,1.687-4.1c0,0,1.569-0.482-0.241-5.428c0,0-0.724-2.532,0.363-1.448c0,0-1.809-5.787,0-16.521 c0,0,1.931-0.482,0.844-2.413c0,0-0.241-6.028,0.723-6.993c0,0,0.847,0.12,0.725-3.016c-0.122-3.136,1.326-1.087,1.326-5.306 c0-4.102,1.688-2.291,1.327-6.271c-0.483-3.858,0.361-5.91,1.568-3.137c1.326,2.776,2.17,8.082,2.292,9.047 c0.119,0.963,0.36,19.777,0.119,23.154c-0.241,3.256-0.119,5.669-0.119,5.669s-3.018,5.306-1.327,4.702 c0,0-2.413,5.306-0.482,5.065c0,0-1.208-0.361-2.534,2.05c0,0-2.652,3.498-5.307,4.584c0,0,1.567,1.326,0.482,1.928 c0,0,0,1.448,0.846,2.052c0.844,0.721,6.995,4.341,16.521,2.169c0,0,3.136,0.724,3.859-1.326 c0.725-2.052,2.172-4.222,2.411-6.513c0.365-2.413,1.087-4.343,0-5.548c0,0-0.844-7.719-0.48-9.165 c0.48-1.327,1.206,0.843,1.206-3.257c0-3.98-0.243-10.373,0.361-11.578c0.482-1.206,0.604-7.116,1.688-10.734 c0,0,0.241-1.809,0.482-3.859c0.241-2.05-0.362,0.122-0.362,0.122s1.447-1.691,0.965-5.067c0,0,1.206-0.722,0-3.498 c0,0,1.447,0,0.122-2.291c0,0,0.722-2.17-4.582-6.15c0,0,4.582,1.687-2.896-4.946c0,0,7.114,1.57-1.81-4.1 c0,0-23.276-22.673-26.533-25.447c-3.377-2.774-12.542-7.476-14.952-19.658c-2.534-12.18-6.151-17.487-15.078-14.472 c-8.803,3.135-25.686,14.713-76.821,5.306c-27.136-4.945-23.154-4.102-26.773,0.602c-4.342,5.67-10.854,19.658-14.473,22.432 s-17.244-0.482-27.738-11.938C119.332,188.206,111.735,179.041,109.805,178.801z" clip-rule="evenodd"/><path fill="#E6E6CF" fill-rule="evenodd" stroke="#000" stroke-linecap="round" stroke-miterlimit="2.414" stroke-width=".072" d="M25.385,106.319c-0.242-0.241-2.17,0.483-1.929,1.448C23.937,109.334,26.47,107.887,25.385,106.319z" clip-rule="evenodd"/><path fill="#E6E6CF" fill-rule="evenodd" stroke="#000" stroke-linecap="round" stroke-miterlimit="2.414" stroke-width=".072" d="M23.335,107.406c-0.362-0.482-2.292,0.118-1.93,1.327C21.888,110.299,24.3,108.852,23.335,107.406z" clip-rule="evenodd"/><path fill="#E6E6CF" fill-rule="evenodd" stroke="#000" stroke-linecap="round" stroke-miterlimit="2.414" stroke-width=".072" d="M21.284,108.369c-0.361-0.482-2.654,0.241-1.93,1.326C20.44,111.265,22.37,109.937,21.284,108.369z" clip-rule="evenodd"/><path fill="#E6E6CF" fill-rule="evenodd" stroke="#000" stroke-linecap="round" stroke-miterlimit="2.414" stroke-width=".072" d="M17.425,110.058c-0.241-0.482-2.895,0.481-1.93,1.326C17.425,112.952,18.511,111.625,17.425,110.058z" clip-rule="evenodd"/><path fill="#E6E6CF" fill-rule="evenodd" stroke="#000" stroke-linecap="round" stroke-miterlimit="2.414" stroke-width=".072" d="M19.235,109.334c-0.363-0.482-2.895,0.482-1.93,1.326C19.113,112.108,20.199,110.901,19.235,109.334z" clip-rule="evenodd"/><path fill="#CAA49C" fill-rule="evenodd" d="M21.405,98.601c0,0,0,1.326-1.929,1.808 c-1.81,0.363-9.288,4.463-9.89,4.824C9.104,105.596,10.188,94.742,21.405,98.601z" clip-rule="evenodd"/><path fill="#E6E6CF" fill-rule="evenodd" stroke="#000" stroke-linecap="round" stroke-miterlimit="2.414" stroke-width=".072" d="M14.168,103.063c0.241,0.482-1.809,1.93-2.17,0.603C11.395,101.978,13.083,100.531,14.168,103.063z" clip-rule="evenodd"/><path fill="#E6E6CF" fill-rule="evenodd" stroke="#000" stroke-linecap="round" stroke-miterlimit="2.414" stroke-width=".072" d="M10.552,104.993c0.119,0.603-2.292,2.048-2.292,0.722C8.259,103.304,9.947,103.183,10.552,104.993z" clip-rule="evenodd"/><path fill="#E6E6CF" fill-rule="evenodd" stroke="#000" stroke-linecap="round" stroke-miterlimit="2.414" stroke-width=".072" d="M12.239,104.148c0.121,0.483-2.292,1.93-2.292,0.604C9.947,102.339,11.275,101.735,12.239,104.148z" clip-rule="evenodd"/><path fill="#E6E6CF" fill-rule="evenodd" stroke="#000" stroke-linecap="round" stroke-miterlimit="2.414" stroke-width=".072" d="M16.34,102.1c0.12,0.48-1.931,1.807-2.292,0.722C13.205,100.169,15.736,100.409,16.34,102.1z" clip-rule="evenodd"/><path fill="#E6E6CF" fill-rule="evenodd" stroke="#000" stroke-linecap="round" stroke-miterlimit="2.414" stroke-width=".072" d="M18.389,101.013c0.241,0.604-1.929,1.93-2.291,0.722C15.254,99.083,17.787,99.324,18.389,101.013z" clip-rule="evenodd"/><path fill="#E6E6CF" fill-rule="evenodd" stroke="#000" stroke-linecap="round" stroke-miterlimit="2.414" stroke-width=".072" d="M20.561,100.048c0.362,0.604-1.93,2.052-2.291,0.724C17.787,98.601,19.235,98.12,20.561,100.048z" clip-rule="evenodd"/><path fill="#E6E6CF" fill-rule="evenodd" stroke="#000" stroke-linecap="round" stroke-miterlimit="2.414" stroke-width=".072" d="M22.731,99.083c0.241,0.482-2.05,1.93-2.292,0.724C19.837,97.637,21.284,97.154,22.731,99.083z" clip-rule="evenodd"/><path fill="#E6E6E6" fill-rule="evenodd" stroke="#000" stroke-miterlimit="2.414" stroke-width=".36" d="M19.596,74.12c0,0-4.945,2.411-7.718,3.737c-2.773,1.205-3.979,1.93-4.462,2.533c-0.362,0.724-4.101,5.789-4.704,6.151 c-0.724,0.482-2.532,6.029-2.413,7.115c0.121,1.085-0.119,6.27-0.119,7.235c0,0.965,0.602,2.654,1.446,3.377 c0.844,0.603,3.377,3.254,4.703,2.772c1.206-0.6,3.618-3.134,5.789-6.149c2.05-2.894,6.512-2.533,7.477-2.411 c0.965,0.12,7.84,4.463,5.187,8.925c0,0-5.066,3.254-8.201,4.341c-3.258,0.843-2.534,3.254-1.569,4.1 c0.964,0.843,3.015,0.361,3.617,0.963c0.604,0.604,0.604,2.052,1.327,2.534c0.844,0.361,2.05,1.809,5.548,2.411 c3.377,0.724,4.703,2.17,7.478,0.482c2.773-1.689,2.17-4.583,2.412-5.428c0.361-0.844,0.603-0.12,1.326-0.722 c0.723-0.482,2.05,0,3.136-0.845C41.907,113.676,24.178,75.808,19.596,74.12z" clip-rule="evenodd"/><path fill="#4D4D4D" fill-rule="evenodd" stroke="#000" stroke-miterlimit="2.414" stroke-width=".36" d="M11.154,102.218c-1.929,2.413-3.738,4.223-4.824,4.823c-1.326,0.482-3.859-2.169-4.703-2.772 c-0.844-0.724-1.446-2.413-1.446-3.377c0-0.965,0.24-6.15,0.119-7.235c-0.119-1.086,1.688-6.633,2.413-7.115 c0.121,0,0.241-0.243,0.482-0.482c0,0-4.221,13.145,1.688,15.437C10.43,103.907,11.154,102.218,11.154,102.218z" clip-rule="evenodd"/><path fill="none" fill-rule="evenodd" stroke="#E6E6E6" stroke-linecap="round" stroke-miterlimit="2.414" stroke-width="2.16" d="M38.892,114.76c1.568-2.773-5.789-7.719-6.513-9.406c-0.723-1.689-5.064-5.186-4.341-13.507 c0.724-7.597-7.598-16.162-8.562-16.523" clip-rule="evenodd"/><g><path fill="none" fill-rule="evenodd" stroke="#D2CBC2" stroke-linecap="round" stroke-miterlimit="2.414" stroke-width="2.16" d="M39.615,114.399c1.688-2.774-4.944-7.958-5.909-9.647c-0.845-1.689-4.944-5.548-4.463-13.629 c0.483-7.354-7.838-15.919-8.924-16.402" clip-rule="evenodd"/><path fill="none" fill-rule="evenodd" stroke="#C2B3A6" stroke-linecap="round" stroke-miterlimit="2.414" stroke-width="2.16" d="M40.46,114.038c1.688-2.773-4.342-8.08-5.428-9.89c-0.964-1.809-4.824-6.028-4.583-13.748 c0.121-7.115-8.201-15.68-9.166-16.163" clip-rule="evenodd"/><path fill="none" fill-rule="evenodd" stroke="#B29C8C" stroke-linecap="round" stroke-miterlimit="2.414" stroke-width="2.16" d="M41.184,113.676c1.808-2.894-3.499-8.2-4.704-10.13c-1.207-1.81-4.824-6.513-4.824-13.869 c-0.121-6.754-8.442-15.556-9.527-16.161" clip-rule="evenodd"/><path fill="none" fill-rule="evenodd" stroke="#A18773" stroke-linecap="round" stroke-miterlimit="2.414" stroke-width="2.16" d="M41.907,113.313c1.808-2.894-2.774-8.44-4.1-10.25c-1.448-1.929-4.705-7.117-5.065-14.11 c-0.241-6.513-8.563-15.315-9.648-16.041" clip-rule="evenodd"/><path fill="none" fill-rule="evenodd" stroke="#92745D" stroke-linecap="round" stroke-miterlimit="2.414" stroke-width="2.16" d="M42.751,112.952c1.809-2.894-2.05-8.563-3.619-10.491c-1.567-1.93-4.703-7.598-5.186-14.232 c-0.483-6.271-8.925-15.195-10.01-15.799" clip-rule="evenodd"/><path fill="none" fill-rule="evenodd" stroke="#86624C" stroke-linecap="round" stroke-miterlimit="2.414" stroke-width="2.16" d="M43.474,112.59c1.93-2.895-1.205-8.684-3.014-10.734c-1.689-1.93-4.582-8.08-5.307-14.23 c-0.724-6.152-9.166-15.076-10.251-15.799" clip-rule="evenodd"/><path fill="none" fill-rule="evenodd" stroke="#78523D" stroke-linecap="round" stroke-miterlimit="2.414" stroke-width="2.16" d="M44.198,112.229c2.051-2.895-0.483-8.925-2.412-10.855c-1.809-2.05-4.462-8.563-5.427-14.471 c-0.964-5.789-9.407-14.834-10.613-15.678" clip-rule="evenodd"/></g><path fill="none" fill-rule="evenodd" stroke="#6B432F" stroke-linecap="round" stroke-miterlimit="2.414" stroke-width="2.16" d="M45.042,111.865c2.05-2.894,0.241-9.043-1.81-11.093c-2.17-2.171-4.462-9.045-5.789-14.593 c-1.205-5.548-9.647-14.713-10.732-15.557" clip-rule="evenodd"/><path fill="#6B432F" fill-rule="evenodd" d="M40.219,63.264 c1.688-4.462,17.728-15.918,26.773-5.789c9.044,10.13,9.89,9.045,8.442,11.938C72.418,75.566,32.018,84.851,40.219,63.264z" clip-rule="evenodd"/><g><path fill="#795540" fill-rule="evenodd" d="M74.589,69.296 c-2.895,5.907-41.728,14.833-33.768-5.91c1.568-4.222,17.006-15.317,25.688-5.549C75.193,67.486,76.036,66.521,74.589,69.296z" clip-rule="evenodd"/><path fill="#896B55" fill-rule="evenodd" d="M73.866,69.175 c-2.895,5.667-40.16,14.23-32.44-5.667c1.566-4.102,16.28-14.714,24.602-5.428C74.348,67.486,75.193,66.521,73.866,69.175z" clip-rule="evenodd"/><path fill="#9B826F" fill-rule="evenodd" d="M73.022,68.932 c-2.653,5.428-38.351,13.75-31.115-5.424c1.567-3.86,15.678-13.99,23.638-5.067C73.504,67.366,74.348,66.521,73.022,68.932z" clip-rule="evenodd"/><path fill="#B09D8D" fill-rule="evenodd" d="M72.298,68.813 c-2.653,5.186-36.783,13.144-29.788-5.188c1.447-3.737,14.954-13.386,22.552-4.824C72.781,67.245,73.504,66.521,72.298,68.813 z" clip-rule="evenodd"/><path fill="#C4BBB2" fill-rule="evenodd" d="M71.454,68.692 c-2.532,4.945-35.094,12.543-28.462-4.945c1.448-3.498,14.353-12.782,21.709-4.702C71.936,67.245,72.66,66.401,71.454,68.692z" clip-rule="evenodd"/></g><path fill="#D9D9D9" fill-rule="evenodd" d="M43.596,63.747 c1.808-4.463,15.074-11.217,20.501-4.341c6.513,8.2,7.598,6.995,6.632,9.165C68.318,73.274,37.204,80.51,43.596,63.747z" clip-rule="evenodd"/><path fill="#5B3C2B" fill-rule="evenodd" d="M39.978,114.278 c0,0,1.809-1.083,2.653-1.326c0.843-0.362,1.809-2.653,1.809-2.292c0,0.604-1.085,3.257,1.327,0.724 c2.292-2.652,3.014-2.171,3.979-2.291c0.362,0,22.07-2.413,8.925-10.372c-4.945-2.893,11.699,1.326,12.905,1.085 c1.085-0.241,7.115-0.844,9.407-6.271c2.17-5.426,2.412-5.667,3.497-5.789c1.085-0.12,1.447-2.652,1.809-3.739 c0.241-0.963,0.482-8.078-0.845-10.37c-1.447-2.171-1.929-4.341-0.361-1.93c1.567,2.413,4.1,10.974,2.895,17.004 c0,0,0,1.568,0.24,2.171c0.121,0.603-0.362-0.243-0.481,0.603c-0.121,0.845-0.362,3.378-0.965,5.064 c-0.482,1.689-5.789,13.869-11.216,11.939c0,0-3.377-0.12-3.86,0.363c0,0-3.136,1.206-4.824,0.965 c-1.689-0.241-6.512-0.846-11.336,0.361c0,0-5.789,1.569-7.838,2.413c0,0-5.186,2.292-7.478,2.411 C40.219,115.001,36.721,116.208,39.978,114.278z" clip-rule="evenodd"/><path fill="#593727" fill-rule="evenodd" d="M72.781,108.61c0,0,4.944-1.569,6.151-2.532 l-0.965,1.809c0,0,1.93-1.207,2.533-2.532c0.604-1.327,2.774-4.463,3.739-4.946c0.845-0.482,1.809-2.05,2.05-3.254 c0.362-1.326,0.845-2.896,0.845-2.896s0.362,2.533-0.121,3.98c-0.604,1.326-1.569,4.1-1.569,4.824 c-0.121,0.844-1.326,2.895-1.326,2.895l0.121-0.965c0,0-1.448,1.326-1.568,2.292c-0.24,0.965-0.481,2.169-0.844,2.532 c-0.361,0.241-1.929,2.531-3.618,1.688c-1.809-0.844-2.171-0.965-2.653-1.205C75.072,110.058,73.625,108.61,72.781,108.61z" clip-rule="evenodd"/><path fill="none" fill-rule="evenodd" stroke="#E6E6E6" stroke-linecap="round" stroke-miterlimit="2.414" stroke-width="2.16" d="M111.373,180.971c19.899,26.895,33.526,34.733,45.226,33.044c11.578-1.689,16.643-18.09,17.97-24.482 c0.603-2.411,13.748-2.171,36.541,3.617c22.795,5.911,59.094-3.617,66.934-6.391c7.718-2.773,8.563,4.704,11.939,16.643 c3.256,11.939,40.883,38.954,40.883,38.954" clip-rule="evenodd"/><g><path fill="none" fill-rule="evenodd" stroke="#D7D0C8" stroke-linecap="round" stroke-miterlimit="2.414" stroke-width="2.16" d="M111.132,180.369c20.14,26.531,33.165,34.129,44.863,32.44c11.698-1.688,17.124-17.969,18.331-24 c0.604-2.413,13.508-2.652,36.181,3.137c22.793,5.789,59.095-3.74,66.935-6.393c8.2-2.654,9.647,4.462,12.904,16.401 c3.374,11.938,40.52,39.557,40.52,39.557" clip-rule="evenodd"/><path fill="none" fill-rule="evenodd" stroke="#C4B8AC" stroke-linecap="round" stroke-miterlimit="2.414" stroke-width="2.16" d="M110.891,179.886c20.381,26.049,32.803,33.286,44.501,31.597c11.699-1.687,17.608-17.849,18.814-23.395 c0.482-2.413,13.025-3.258,35.699,2.652c22.793,5.789,59.094-3.98,66.932-6.393c8.563-2.652,10.735,4.341,13.991,16.162 c3.374,11.939,39.917,40.281,39.917,40.281" clip-rule="evenodd"/><path fill="none" fill-rule="evenodd" stroke="#B7A393" stroke-linecap="round" stroke-miterlimit="2.414" stroke-width="2.16" d="M110.77,179.404c20.502,25.446,32.321,32.562,44.019,30.875c11.698-1.69,18.09-17.729,19.176-22.794 c0.482-2.532,12.662-3.859,35.336,1.93c22.793,5.908,59.094-3.98,66.933-6.393c9.048-2.414,11.821,4.219,15.075,16.04 c3.377,11.939,39.437,40.883,39.437,40.883" clip-rule="evenodd"/><path fill="none" fill-rule="evenodd" stroke="#A9917D" stroke-linecap="round" stroke-miterlimit="2.414" stroke-width="2.16" d="M110.529,178.801c20.743,25.084,32.08,31.958,43.658,30.269c11.697-1.688,18.572-17.606,19.537-22.311 c0.603-2.532,12.301-4.343,35.095,1.446c22.673,5.91,58.975-4.22,66.813-6.39c9.406-2.293,12.784,3.859,16.16,15.798 c3.257,11.938,38.833,41.607,38.833,41.607" clip-rule="evenodd"/><path fill="none" fill-rule="evenodd" stroke="#997D69" stroke-linecap="round" stroke-miterlimit="2.414" stroke-width="2.16" d="M110.288,178.197c20.984,24.723,31.718,31.355,43.295,29.668c11.699-1.689,19.055-17.608,20.019-21.83 c0.482-2.532,11.821-4.824,34.612,0.965c22.674,5.789,58.855-4.341,66.814-6.393c9.77-2.29,13.869,3.62,17.245,15.559 c3.377,11.939,38.351,42.211,38.351,42.211" clip-rule="evenodd"/><path fill="none" fill-rule="evenodd" stroke="#8E6F58" stroke-linecap="round" stroke-miterlimit="2.414" stroke-width="2.16" d="M110.046,177.715c21.105,24.24,31.357,30.512,43.054,28.944c11.578-1.687,19.416-17.488,20.26-21.347 c0.482-2.531,11.459-5.307,34.254,0.482c22.79,5.789,58.851-4.583,66.932-6.391c10.131-2.171,14.834,3.378,18.21,15.317 c3.258,11.938,37.868,42.933,37.868,42.933" clip-rule="evenodd"/><path fill="none" fill-rule="evenodd" stroke="#825F48" stroke-linecap="round" stroke-miterlimit="2.414" stroke-width="2.16" d="M109.926,177.232c21.226,23.638,30.873,29.788,42.572,28.101c11.577-1.689,19.898-17.367,20.621-20.745 c0.482-2.532,11.096-5.909,33.891-0.12c22.794,5.909,58.852-4.583,66.933-6.271c10.612-2.17,15.921,3.137,19.177,15.076 c3.377,11.938,37.505,43.657,37.505,43.657" clip-rule="evenodd"/><path fill="none" fill-rule="evenodd" stroke="#75503B" stroke-linecap="round" stroke-miterlimit="2.414" stroke-width="2.16" d="M109.684,176.628c21.467,23.155,30.513,29.188,42.21,27.499c11.698-1.689,20.381-17.367,20.984-20.262 c0.604-2.411,10.854-6.39,33.526-0.602c22.795,5.908,58.854-4.824,66.935-6.392c10.976-2.05,17.006,3.015,20.38,14.954 c3.259,11.938,36.785,44.259,36.785,44.259" clip-rule="evenodd"/></g><path fill="none" fill-rule="evenodd" stroke="#6B432F" stroke-linecap="round" stroke-miterlimit="2.414" stroke-width="2.16" d="M109.563,176.027c21.588,22.791,30.03,28.582,41.729,26.893s20.863-17.245,21.346-19.777 c0.604-2.413,10.492-6.875,33.166-1.086c22.793,5.91,58.731-4.946,66.934-6.392c11.335-1.93,18.091,2.774,21.347,14.713 c3.377,11.939,36.421,44.985,36.421,44.985" clip-rule="evenodd"/><path fill="#6B432F" fill-rule="evenodd" d="M80.378,9.597 c0-1.567,0.362-5.667,0.724-7.115c0.362-1.326,3.618,3.98,8.201,13.747c4.583,9.77,3.135,17.489,3.015,20.021 c-0.121,2.413-5.668,10.854-7.235,12.061c-1.568,1.085-3.499-1.689-3.499-1.689C80.74,43.126,80.378,11.044,80.378,9.597z" clip-rule="evenodd"/><g><path fill="#86624C" fill-rule="evenodd" d="M80.74,10.684c0-1.448,0-6.515,0.483-7.841 c0.361-1.326,3.739,4.826,7.959,14.232c4.342,9.285,3.135,16.643,2.894,18.934c-0.121,2.413-5.547,10.854-6.994,11.94 c-1.448,1.085-3.136-1.69-3.136-1.69C80.982,43.004,80.74,12.13,80.74,10.684z" clip-rule="evenodd"/><path fill="#A18773" fill-rule="evenodd" d="M80.982,11.888 c0-1.326,0-7.476,0.362-8.683C81.706,2,85.203,8.875,89.183,17.799c3.98,8.925,2.894,15.799,2.773,17.969 c-0.121,2.291-5.427,10.854-6.753,11.819c-1.448,0.965-2.896-1.568-2.896-1.568C81.464,42.882,80.982,13.216,80.982,11.888z" clip-rule="evenodd"/><path fill="#C2B3A6" fill-rule="evenodd" d="M81.344,12.975 c0-1.206-0.241-8.202,0.121-9.406c0.361-1.208,4.1,6.389,7.718,15.073c3.497,8.443,2.773,14.956,2.653,17.004 c-0.12,2.173-5.306,10.613-6.632,11.578c-1.327,0.965-2.654-1.446-2.654-1.446C81.706,42.763,81.344,14.301,81.344,12.975z" clip-rule="evenodd"/></g><path fill="#E6E6E6" fill-rule="evenodd" d="M81.584,14.181c0-1.207-0.24-9.167,0-10.251 c0.363-1.087,4.222,7.236,7.599,15.558c3.256,7.959,2.533,13.989,2.412,16.039c-0.12,1.93-5.065,10.493-6.271,11.458 c-1.206,0.844-2.412-1.448-2.412-1.448C82.188,42.763,81.584,15.386,81.584,14.181z" clip-rule="evenodd"/><path fill="#999" fill-rule="evenodd" d="M86.65,42.039c0,0-1.688,2.532-2.05,2.413 c-0.362-0.122-0.241-1.57-0.241-1.57l-0.965,1.57l0.121-2.052l-0.241,0.122l1.447-5.306l-0.965-0.122c0,0,0-5.789-0.241-7.237 c-0.241-1.445-1.326-4.341-1.207-5.063c0.122-0.846,0.724-1.569,0.724-1.569l-0.602,0.363c0,0-0.845-6.152-0.241-6.754 c0.723-0.604,1.085-3.618,1.085-4.824c-0.121-1.207-0.604-3.861,0.241-1.326c0.724,2.411,1.448,5.909,0.844,7.839 c-0.482,1.93,0.121,7.115,0.724,7.115c0.603-0.121,1.567-2.413,1.567-2.413v2.774l-0.603,0.361l0.482,0.122l-0.724,1.447 l0.603-0.241c0,0-0.724,2.413-0.482,3.98c0.362,1.689,0.965,4.824,0.603,6.271c-0.241,1.568-0.482,3.013,0.604,2.652 C88.338,40.23,87.133,40.952,86.65,42.039z" clip-rule="evenodd"/><path fill="none" fill-rule="evenodd" stroke="#6B432F" stroke-linecap="round" stroke-miterlimit="2.414" stroke-width=".72" d="M78.69,27.929c0,0,1.085-24.842,2.05-26.171c0.724-0.843,1.689,1.085,2.17,1.689c0.362,0.722,7.959,12.543,10.373,22.19" clip-rule="evenodd"/><g><path fill="none" fill-rule="evenodd" stroke="#603C2A" stroke-linecap="round" stroke-miterlimit="2.414" stroke-width=".72" d="M78.69,26.724c0,0,0.603-17.61,1.567-23.277c0.241-1.087,0.482-1.689,0.724-1.809c0.241-0.241,0.602-0.122,0.965,0.241 c0.361,0.361,0.723,1.084,0.843,1.445c0.724,0.844,7.96,12.183,10.373,21.708" clip-rule="evenodd"/><path fill="none" fill-rule="evenodd" stroke="#573726" stroke-linecap="round" stroke-miterlimit="2.414" stroke-width=".72" d="M78.69,25.637c0,0,0.603-17.728,1.567-22.673C80.62,2,80.861,1.517,81.103,1.517c0.362-0.119,0.603,0,0.844,0.363 c0.361,0.361,0.723,0.963,0.843,1.207c0.724,1.204,7.84,12.06,10.131,21.344" clip-rule="evenodd"/><path fill="none" fill-rule="evenodd" stroke="#4D3021" stroke-linecap="round" stroke-miterlimit="2.414" stroke-width=".72" d="M78.69,24.551c0,0,0.482-17.848,1.688-22.069c0.362-0.965,0.604-1.207,0.965-0.965c0.24-0.119,0.481,0,0.723,0.363 c0.241,0.241,0.603,0.724,0.724,1.084c0.845,1.326,7.719,11.699,10.01,20.865" clip-rule="evenodd"/><path fill="none" fill-rule="evenodd" stroke="#41291D" stroke-linecap="round" stroke-miterlimit="2.414" stroke-width=".72" d="M78.69,23.346c0,0,0.482-17.85,1.688-21.347c0.362-0.843,0.724-0.965,1.086-0.602c0.241,0,0.482,0.119,0.724,0.482 c0.241,0.241,0.481,0.602,0.602,0.963c1.086,1.448,7.599,11.338,9.89,20.382" clip-rule="evenodd"/><path fill="none" fill-rule="evenodd" stroke="#372218" stroke-linecap="round" stroke-miterlimit="2.414" stroke-width=".72" d="M78.569,22.261c0,0,0.483-17.971,1.809-20.864c0.362-0.604,0.845-0.483,1.206-0.122c0.241,0.122,0.482,0.241,0.724,0.482 C82.429,2,82.669,2.36,82.79,2.604c1.207,1.809,7.478,11.095,9.769,20.019" clip-rule="evenodd"/><path fill="none" fill-rule="evenodd" stroke="#2E1D14" stroke-linecap="round" stroke-miterlimit="2.414" stroke-width=".72" d="M78.569,21.175c0,0,0.362-18.088,1.809-20.26c0.483-0.604,1.086-0.241,1.447,0.242c0.241,0.119,0.363,0.36,0.482,0.602 c0.122,0.122,0.362,0.483,0.482,0.724c1.327,1.93,7.237,10.734,9.648,19.536" clip-rule="evenodd"/></g><path fill="none" fill-rule="evenodd" stroke="#241610" stroke-linecap="round" stroke-miterlimit="2.414" stroke-width=".72" d="M78.569,19.97c0,0,0.362-18.09,1.809-19.538c0.845-0.724,1.688,0.724,2.051,1.326c0.481,0.724,7.236,10.011,9.889,19.538" clip-rule="evenodd"/><path fill="none" fill-rule="evenodd" stroke="#000" stroke-linecap="round" stroke-miterlimit="2.414" stroke-width=".36" d="M93.645,27.446c0,0-0.603-8.441-5.548-16.763c-4.824-8.202-6.994-11.821-7.718-10.493c0,0-2.412,0.12-1.809,28.462" clip-rule="evenodd"/><path fill="none" fill-rule="evenodd" stroke="#6B432F" stroke-linecap="round" stroke-miterlimit="2.414" stroke-width="10.728" d="M109.082,79.788c0,0,25.326,62.109,62.23,31.355" clip-rule="evenodd"/><path fill="none" fill-rule="evenodd" stroke="#67432E" stroke-linecap="round" stroke-miterlimit="2.414" stroke-width="9.504" d="M110.046,80.51c0,0,23.758,56.321,59.818,30.392" clip-rule="evenodd"/><path fill="none" fill-rule="evenodd" stroke="#66422D" stroke-linecap="round" stroke-miterlimit="2.414" stroke-width="8.28" d="M111.132,81.235c0,0,22.07,50.411,57.405,29.547" clip-rule="evenodd"/><path fill="none" fill-rule="evenodd" stroke="#62412D" stroke-linecap="round" stroke-miterlimit="2.414" stroke-width="7.056" d="M112.097,82.079c0,0,20.5,44.381,54.994,28.46" clip-rule="evenodd"/><path fill="none" fill-rule="evenodd" stroke="#5F402C" stroke-linecap="round" stroke-miterlimit="2.414" stroke-width="5.832" d="M113.061,82.803c0,0,18.935,38.592,52.704,27.616" clip-rule="evenodd"/><path fill="none" fill-rule="evenodd" stroke="#5C402C" stroke-linecap="round" stroke-miterlimit="2.414" stroke-width="4.608" d="M114.026,83.525c0,0,17.366,32.683,50.291,26.653" clip-rule="evenodd"/><path fill="none" fill-rule="evenodd" stroke="#5B3F2B" stroke-linecap="round" stroke-miterlimit="2.414" stroke-width="3.384" d="M114.991,84.25c0,0,15.798,26.771,47.999,25.686" clip-rule="evenodd"/><path fill="none" fill-rule="evenodd" stroke="#8E734C" stroke-linecap="round" stroke-miterlimit="2.414" stroke-width="1.8" d="M166.125,104.389c-8.925,2.291-13.748-1.809-24.603-7.115c-10.733-5.306-39.074-33.527-40.762-35.818 c-1.689-2.172-11.336-8.321-11.336-8.321" clip-rule="evenodd"/><g><path fill="none" fill-rule="evenodd" stroke="#866A45" stroke-linecap="round" stroke-miterlimit="2.414" stroke-width="1.8" d="M166.125,104.389c-8.925,2.172-14.35-1.689-23.999-6.392c-10.733-5.186-36.18-29.667-38.471-32.803 c-3.015-3.979-14.352-12.06-14.352-12.06" clip-rule="evenodd"/><path fill="none" fill-rule="evenodd" stroke="#836242" stroke-linecap="round" stroke-miterlimit="2.414" stroke-width="1.8" d="M166.246,104.389c-9.046,2.052-15.075-1.567-23.638-5.667c-10.733-5.187-33.045-25.81-36.06-29.79 c-4.22-5.667-17.246-15.919-17.246-15.919" clip-rule="evenodd"/><path fill="none" fill-rule="evenodd" stroke="#7C593C" stroke-linecap="round" stroke-miterlimit="2.414" stroke-width="1.8" d="M166.366,104.389c-9.166,1.93-15.798-1.446-23.275-4.944c-10.612-5.064-30.03-21.83-33.648-26.773 c-5.667-7.358-20.26-19.66-20.26-19.66" clip-rule="evenodd"/><path fill="none" fill-rule="evenodd" stroke="#755137" stroke-linecap="round" stroke-miterlimit="2.414" stroke-width="1.8" d="M166.366,104.389c-9.166,1.809-16.521-1.206-22.792-4.22c-10.494-5.066-27.015-17.971-31.356-23.759 c-6.753-9.165-23.035-23.516-23.035-23.516" clip-rule="evenodd"/><path fill="none" fill-rule="evenodd" stroke="#714A33" stroke-linecap="round" stroke-miterlimit="2.414" stroke-width="1.8" d="M166.487,104.389c-9.287,1.689-17.246-1.085-22.312-3.498c-10.372-4.945-23.999-13.989-29.064-20.743 c-8.081-10.853-25.929-27.375-25.929-27.375" clip-rule="evenodd"/></g><path fill="none" fill-rule="evenodd" stroke="#6B432F" stroke-linecap="round" stroke-miterlimit="2.414" stroke-width="1.8" d="M166.608,104.389c-9.408,1.569-18.091-0.844-21.95-2.772c-10.372-4.945-20.983-10.131-26.652-17.729 C108.6,71.344,89.062,52.773,89.062,52.773" clip-rule="evenodd"/><path fill="#B3B3B3" fill-rule="evenodd" d="M65.545,66.762c0,0,0.482-0.482-0.482-0.844 c-0.965-0.363-3.618-3.258-6.271-3.619c-2.773-0.361-4.824,0.844-6.151,1.448c-1.326,0.604,0.121,0.604,0.965,0.122 c0.965-0.361,0.482,0.843-0.362,1.205c-0.844,0.241-5.547,2.293-4.704,4.341C48.54,69.414,54.087,62.299,65.545,66.762z" clip-rule="evenodd"/><path fill="#1A1A1A" fill-rule="evenodd" d="M64.941,66.401c0,0-3.497-1.689-4.461-2.654 c-0.965-0.844-3.257-0.844-4.101-0.24c-0.724,0.481-3.619,2.29-4.583,2.531c-0.965,0.241-3.739,2.654-3.498,3.619 c0.24,0.965,0.844,2.169,1.688,0.482c0.844-1.691,2.292-3.619,3.376-2.895c1.086,0.724,5.307,3.134,9.287,0.965 c0,0,1.809-0.361,2.653-0.361C66.027,67.849,66.388,66.521,64.941,66.401z" clip-rule="evenodd"/><path fill="#E5D0DB" fill-rule="evenodd" stroke="#000" stroke-linecap="round" stroke-miterlimit="2.414" stroke-width=".072" d="M59.997,64.229c2.291,1.568,3.256,3.137-0.121,4.102C55.776,69.536,59.997,64.229,59.997,64.229z" clip-rule="evenodd"/><path fill="#E5D0DB" fill-rule="evenodd" stroke="#000" stroke-linecap="round" stroke-miterlimit="2.414" stroke-width=".072" d="M56.981,63.988c0,0-3.618,1.93-3.256,2.292c0.483,0.482,2.413,1.448,3.256,1.93C57.827,68.571,56.981,63.988,56.981,63.988z" clip-rule="evenodd"/><path fill="#473629" fill-rule="evenodd" stroke="#000" stroke-linecap="round" stroke-miterlimit="2.414" stroke-width=".072" d="M55.776,66.521c-0.362-1.809,1.447-3.618,4.1-2.533c0,0,0.965,1.085,0.965,2.171C60.6,68.692,56.259,69.296,55.776,66.521z" clip-rule="evenodd"/><path fill-rule="evenodd" d="M59.515,65.194c-0.724,0.242-1.448,0.12-2.533,0.603 c-0.723,0.362-0.964,0.965-0.361,1.206c0.602,0.12,2.412,0,3.255-0.482C60.721,65.797,59.997,64.953,59.515,65.194z" clip-rule="evenodd"/><path fill="#E6E6E6" fill-rule="evenodd" d="M59.394,64.591 c0.845,0,1.327,1.207,0.241,1.328C58.55,65.918,58.791,64.591,59.394,64.591z" clip-rule="evenodd"/><path fill="#593727" fill-rule="evenodd" d="M85.806,49.276c0,0-2.292,1.084-4.703-0.724 C81.103,48.552,83.876,50.722,85.806,49.276z" clip-rule="evenodd"/><path fill="#593727" fill-rule="evenodd" d="M86.529,50.239c0,0-0.482,2.291-5.306-0.12 C81.223,50.119,86.771,53.256,86.529,50.239z" clip-rule="evenodd"/><path fill="#CCC" fill-rule="evenodd" d="M5.004,87.264 c0-2.531,1.084-3.013,1.929-3.739c0.844-0.722,1.206-1.809,3.014-0.844c1.689,0.965,3.135,0.724,2.775,2.652 c-0.483,1.93-1.568,5.671-4.463,6.754c-2.895,1.087-3.014-0.361-3.014-0.965c0-0.483,0.12,0,0.843,0 c0.845,0,1.447,0.604,1.447-1.083c0-1.689-0.723-3.86-1.206-3.619C5.728,86.781,5.004,88.109,5.004,87.264z" clip-rule="evenodd"/><path fill="#CCC" fill-rule="evenodd" d="M16.822,86.059c0,0-1.327,1.205-1.567,2.652 c-0.121,1.328-1.93,3.619-3.618,4.1c-1.567,0.363,1.327,0.241,2.773-0.964c1.568-1.208,1.448-3.136,2.412-3.86 C17.787,87.264,18.752,84.37,16.822,86.059z" clip-rule="evenodd"/><path fill="#CCC" fill-rule="evenodd" d="M8.5,83.044 c1.447-0.724,3.618,1.689,3.618,1.689c0.241,2.894-3.135,6.752-3.497,6.872c-0.362,0.122-1.93,1.087-0.845-0.12 c1.207-1.328-1.085-6.392-1.085-6.392C6.45,84.611,7.174,83.768,8.5,83.044z" clip-rule="evenodd"/><g><path fill="#BABABA" fill-rule="evenodd" d="M6.933,85.094 c-0.241-0.361,0.482-1.206,1.809-1.93c1.205-0.724,3.376,1.569,3.376,1.569c0.241,2.772-2.894,6.39-3.256,6.511 c-0.362,0.361-1.93,1.207-0.845-0.122C8.983,89.918,6.933,85.094,6.933,85.094z" clip-rule="evenodd"/><path fill="#ABABAB" fill-rule="evenodd" d="M7.174,85.094 c-0.241-0.361,0.361-1.086,1.688-1.809c1.206-0.724,3.256,1.448,3.256,1.448c0.241,2.772-2.653,6.15-3.015,6.271 c-0.482,0.481-1.81,1.326-0.845-0.243C9.104,89.557,7.174,85.094,7.174,85.094z" clip-rule="evenodd"/><path fill="#999" fill-rule="evenodd" d="M7.416,85.094 c-0.121-0.361,0.482-1.086,1.568-1.809c1.205-0.604,3.135,1.566,3.135,1.566c0.121,2.413-2.532,5.671-2.773,5.911 c-0.482,0.604-1.688,1.326-0.965-0.24C9.104,89.313,7.416,85.094,7.416,85.094z" clip-rule="evenodd"/><path fill="#878787" fill-rule="evenodd" d="M7.657,85.094 c-0.121-0.361,0.482-1.086,1.568-1.689c1.086-0.602,2.894,1.446,2.894,1.446c0.121,2.293-2.291,5.428-2.532,5.549 c-0.603,0.844-1.568,1.447-0.965-0.243C9.225,88.953,7.657,85.094,7.657,85.094z" clip-rule="evenodd"/><path fill="#787878" fill-rule="evenodd" d="M8.018,85.094 c-0.241-0.361,0.241-0.965,1.327-1.569c1.084-0.603,2.773,1.326,2.773,1.326c0.121,2.173-2.05,5.188-2.291,5.306 c-0.724,0.965-1.568,1.448-0.965-0.361C9.225,88.711,8.018,85.094,8.018,85.094z" clip-rule="evenodd"/></g><path fill="#666" fill-rule="evenodd" d="M9.466,83.646 c1.086-0.482,2.653,1.205,2.653,1.205c0.121,2.052-1.808,4.825-1.93,5.067c-0.843,1.086-1.567,1.567-1.084-0.361 c0.241-1.206-0.845-4.463-0.845-4.463C8.139,84.733,8.622,84.129,9.466,83.646z" clip-rule="evenodd"/><path fill="none" fill-rule="evenodd" stroke="#4D4D4D" stroke-linecap="round" stroke-miterlimit="2.414" stroke-width="1.08" d="M2.833,87.144c0,0-1.568,2.413-1.809,4.704c-0.241,2.411-0.604,6.874-0.121,10.13c0.121,1.085,3.979,6.754,7.477,3.015" clip-rule="evenodd"/><g><path fill="none" fill-rule="evenodd" stroke="#5E5E5E" stroke-linecap="round" stroke-miterlimit="2.414" stroke-width="1.08" d="M3.436,86.298c0,0-1.689,2.654-2.05,4.946c-0.241,2.413-0.603,7.356,0,10.491c0.482,1.208,4.221,6.151,7.478,2.775" clip-rule="evenodd"/><path fill="none" fill-rule="evenodd" stroke="#737373" stroke-linecap="round" stroke-miterlimit="2.414" stroke-width="1.08" d="M4.159,85.455c0,0-2.171,2.896-2.413,5.307c-0.241,2.291-0.723,7.719,0.241,10.734c0.604,1.326,4.342,5.545,7.237,2.532" clip-rule="evenodd"/><path fill="none" fill-rule="evenodd" stroke="#858585" stroke-linecap="round" stroke-miterlimit="2.414" stroke-width="1.08" d="M4.882,84.611c0,0-2.412,3.257-2.774,5.546c-0.241,2.413-0.723,8.202,0.362,10.977c0.965,1.566,4.463,5.185,7.237,2.411" clip-rule="evenodd"/><path fill="none" fill-rule="evenodd" stroke="#999" stroke-linecap="round" stroke-miterlimit="2.414" stroke-width="1.08" d="M5.486,83.768c0,0-2.654,3.496-3.016,5.789c-0.241,2.411-0.844,8.563,0.604,11.335c1.207,1.688,4.583,4.584,6.995,2.052" clip-rule="evenodd"/><path fill="none" fill-rule="evenodd" stroke="#ADADAD" stroke-linecap="round" stroke-miterlimit="2.414" stroke-width="1.08" d="M6.209,82.922c0,0-3.015,3.859-3.256,6.152c-0.362,2.411-1.086,8.923,0.603,11.578c1.567,1.687,4.824,3.979,6.996,1.809" clip-rule="evenodd"/><path fill="none" fill-rule="evenodd" stroke="#BFBFBF" stroke-linecap="round" stroke-miterlimit="2.414" stroke-width="1.08" d="M6.813,82.079c0,0-3.256,4.1-3.498,6.391c-0.241,2.413-1.086,9.406,0.724,11.819c1.929,1.929,5.065,3.498,6.874,1.689" clip-rule="evenodd"/><path fill="none" fill-rule="evenodd" stroke="#D1D1D1" stroke-linecap="round" stroke-miterlimit="2.414" stroke-width="1.08" d="M7.536,81.235c0,0-3.618,4.341-3.859,6.752c-0.241,2.292-1.207,9.769,0.964,12.061c2.051,2.052,5.066,2.896,6.754,1.326" clip-rule="evenodd"/></g><path fill="none" fill-rule="evenodd" stroke="#E6E6E6" stroke-linecap="round" stroke-miterlimit="2.414" stroke-width="1.08" d="M8.259,80.51c0,0-3.858,4.584-4.221,6.875c-0.241,2.411-1.206,10.13,1.207,12.421c2.291,2.171,5.185,2.293,6.632,1.085" clip-rule="evenodd"/><path fill="none" fill-rule="evenodd" stroke="#000" stroke-miterlimit="2.414" stroke-width=".36" d="M12.36,100.531c-0.241,0.121-1.206,1.687-1.206,1.687c-1.929,2.413-3.738,4.223-4.824,4.823 c-1.326,0.482-3.859-2.169-4.703-2.772c-0.844-0.724-1.446-2.413-1.446-3.377c0-0.965,0.24-6.15,0.119-7.235 c-0.119-0.965,1.086-4.826,1.93-6.513c0,0,0.965-1.207,1.207-1.328c0.241-0.118,4.1-5.426,4.1-5.426" clip-rule="evenodd"/><path fill="#CCC" fill-rule="evenodd" d="M18.149,116.449 c0,0,2.412-0.361,3.256-1.084c1.085-0.604,6.15-4.222,6.633-3.98c0.603,0.12,0.482,0.963-1.085,1.446 c0,0-1.81,0.482-2.774,1.448c-1.084,1.087-3.136,2.05-3.738,2.171c-0.603,0.241-0.724,1.207-0.241,1.448 s2.533-0.241,1.809,0.241s-2.05,0.482-2.171,0.363c-0.241-0.122-0.724-1.087-0.724-1.087S18.872,116.571,18.149,116.449z" clip-rule="evenodd"/><path fill="#CCC" fill-rule="evenodd" d="M36.962,115.726 c0,0,1.327-1.688,1.447-2.896c0.122-1.083-0.12,0.365-0.482,0.604c-0.483,0.241-0.723,1.567-1.206,0.843 c-0.482-0.722-1.326-1.205-1.207-1.809c0.122-0.604,0-2.652,0.604-3.256c0.603-0.603-0.121-0.603-0.362,0 c-0.242,0.604-1.568,2.292-0.965,3.5c0.604,1.205-0.603,3.859-0.723,5.063c-0.241,1.086-1.085,3.858-2.171,4.221 c-1.085,0.482-0.12,0.602,0.363,0.363c0.482-0.363,2.17-1.086,2.653-2.895c0,0,0.12-3.137,0.603-3.257 C35.998,116.208,36.842,115.967,36.962,115.726z" clip-rule="evenodd"/><path fill="#B3B3B3" fill-rule="evenodd" d="M60.962,61.697c0,0-3.016-1.93-6.03-0.482 c0,0,0.482-0.724,1.085-0.724C56.5,60.491,59.032,59.527,60.962,61.697z" clip-rule="evenodd"/><path fill="#B3B3B3" fill-rule="evenodd" d="M60.48,69.777c0,0-3.377,0.724-4.704,0.119 C55.776,69.896,58.55,70.983,60.48,69.777z" clip-rule="evenodd"/><path fill="#5B3C2B" fill-rule="evenodd" d="M49.987,88.351c0,0,0.603,3.135,2.532,4.702 c1.93,1.689-0.845,0-3.858,0.363c-3.136,0.241-4.463,2.774-4.463,1.93c0-0.845,3.619-2.534,3.86-3.378 C48.299,91.123,48.661,86.42,49.987,88.351z" clip-rule="evenodd"/><path fill="#5B3C2B" fill-rule="evenodd" d="M172.638,185.915 c0,0,0.362-6.391-0.845-7.476c-1.084-1.085-3.256-9.406-3.858-8.322c-0.603,1.087-1.085,4.463,0.242,5.911 c1.446,1.326,1.688,4.702,1.688,4.702l-0.845-0.36c0,0,1.086,2.291,1.086,4.46C170.105,187.123,169.02,195.925,172.638,185.915 z" clip-rule="evenodd"/><path fill="#5B3C2B" fill-rule="evenodd" d="M285.281,180.006c0,0,0.479-3.979,0-4.221 c-0.604-0.24-1.327,0.243-1.327,0.243l-0.121-1.93c0,0-3.378-7.717-4.101-6.995c-0.725,0.604-1.447-2.05-2.173-1.809 c-0.601,0-6.993-5.789-5.787-3.739c1.204,1.93,4.704,4.222,5.547,5.789c0.844,1.567,3.377,3.739,3.136,5.909 c0,2.05,1.086,4.341,1.448,4.223C282.386,177.354,285.281,186.397,285.281,180.006z" clip-rule="evenodd"/><path fill="#BFBFBF" fill-rule="evenodd" d="M130.067,204.972 c0,0,2.772,8.439,4.582,9.647c0,0,1.568,5.789,1.81,7.598c0.241,1.809,1.568,8.321,1.205,9.889l0.724-1.931 c0,0,1.448,10.493,1.207,13.025c-0.121,2.652,0.362,4.824,0.362,4.824l0.843-1.328c0,0-0.119,8.806,0,11.217 c0.122,2.532,0.363,11.938,0,13.025c-0.482,0.844-1.205,4.824-1.205,5.307c0,0.602,0.723-0.482,0.723-0.482 s0,2.654,0.363,3.619c0.241,0.965,0.482-0.604,0.482-0.604s1.567,4.341,1.205,7.115c-0.241,2.774,1.207,3.376,0.844,5.307 c-0.241,1.93-1.688,11.337-3.255,13.508c-1.688,2.291-1.929,3.737-1.688,5.185c0.241,1.328,0.241,2.05-0.122,2.413 c-0.482,0.483-0.843,0.363-1.567,0c-0.604-0.482,0.843-1.93,0.603-3.135c-0.362-1.208,0.723-4.343,0.362-6.032 c-0.241-1.929,0.482-2.774,0.843-3.979c0.363-1.207,0.724-18.452,0.363-20.503c-0.482-2.05,0.361-4.945,0.481-5.667 c0.121-0.724,0.362-10.854-0.241-13.506c-0.723-2.655-0.723-23.399-1.086-24.121c-0.482-0.724-3.015-11.217-3.98-13.145v3.254 c0,0-0.964-3.376-2.412-4.943c-1.568-1.567,0,1.809,0,1.809s-1.446-1.809-1.929-3.015c-0.363-1.326-1.447-3.98-2.412-5.185 c-0.965-1.207-1.206-3.498-2.412-3.859c0,0,2.772,1.205,3.255,2.652c0.362,1.326,1.327,2.773,1.327,2.773l0.241-1.447 c0,0,1.567,0,2.772,2.292c1.086,2.413,2.775,3.256,2.051,1.689c-0.724-1.448,0.121-2.896-0.844-3.739 C132.598,213.774,130.669,208.227,130.067,204.972z" clip-rule="evenodd"/><path fill="#BFBFBF" fill-rule="evenodd" d="M170.709,216.79l0.844-4.583l0.603,0.724 c0,0,0.12-2.413,0.12-3.617c0-1.328,1.207-7.478,0.604-8.804c-0.724-1.208,1.205,0.722,1.205,0.722S173,198.336,173,196.529 c0-1.808,1.326,0.241,1.93,1.327c0.482,1.206,0.965,11.818,2.051,14.229c1.085,2.291,2.773,5.911,1.446,5.187 c-1.446-0.724-1.085,0-1.085,0.12c0,0.241-0.844,0-1.688-0.602c-0.844-0.725-1.569-0.966-1.327-0.482 c0,0.362,0.483,1.084-0.844,0.965c-1.327-0.241-1.086-0.482-1.448-0.603C171.553,216.548,170.709,216.79,170.709,216.79z" clip-rule="evenodd"/><path fill="#BFBFBF" fill-rule="evenodd" d="M278.404,188.449 c0,0,6.272,2.774,7.115,6.272c0.846,3.497,1.689,8.561,1.087,11.095c-0.604,2.411,0.722,10.13,0.966,11.215l0.36-1.568 c0,0,1.687,6.874,3.015,8.683c1.207,1.809,3.137,3.015,3.137,4.102l-0.242-2.05c0,0,2.654,3.134,2.773,4.341 c0.122,1.085,8.442,9.043,9.647,10.613c1.328,1.567-0.36-1.569-0.36-1.569s2.05,2.292,2.773,3.5 c0.724,1.326,3.86,5.667,5.064,6.874c1.087,1.085,5.79,6.271,6.392,8.441c0,0-1.326-0.24-1.446,1.809v5.306 c0,0-0.603,0.965-0.845,1.93c-0.24,0.603-0.482,4.1-0.482,4.1s-1.083,0.965-1.083,2.413c0,1.326-0.244,3.135-0.244,3.135 s-1.084,0.846-1.084,2.411c0,1.448,0,6.271-0.12,6.634c-0.243,0.363-0.724,0.241-0.724,0.241s-0.724-5.065-0.724-6.511 c0-1.328-0.966,0.722-0.966,0.722s0.122-4.341,1.326-6.511c1.087-2.293,0.241-2.654-0.36-1.93 c-0.482,0.722-1.326,1.687-1.326,1.687s0.119-3.134,0.963-4.34c0.846-1.205,1.328-7.719,0.363-6.394 c-0.966,1.448-0.363-9.165-1.087-6.511c-0.722,2.652-0.482,3.257-0.482,3.257s-0.239-6.15-1.688-7.115 c-1.566-0.965-3.256-5.067-3.256-5.067v1.328c0,0-3.98-6.634-5.307-7.117c-1.206-0.601-2.532-1.929-2.293-0.965 c0.243,0.965-0.844-0.963-1.688-2.771c-0.843-1.809-4.101-6.15-3.979-5.187c0.118,1.087,0.723,1.809,0.723,1.809 s-2.051-2.411-3.016-4.824c-0.963-2.292-3.015-6.513-3.98-7.235c-0.963-0.604-2.047-6.151-2.41-4.826 c-0.241,1.448-0.12,2.774-0.12,2.774s-0.726-3.858-0.726-4.824c0-0.965-0.601-5.427-1.084-4.582 c-0.361,0.843-0.361,2.05-0.361,2.05s-0.482-3.739-0.846-4.461c-0.482-0.604-0.603-3.378-1.567-3.136 c-0.964,0.241-1.327,0.965-1.327,0.965s-1.206-0.965-1.688,0.12c-0.603,1.087-4.461,2.171-4.461,2.171l0.966-1.084 c0,0-2.654,0.722-3.619,1.93c-0.966,1.205-3.137,0.963-3.137,0.963s2.171-0.846,3.982-2.774 c1.808-1.931,7.475-4.461,8.439-4.943c1.086-0.604,5.429-3.259,5.308-4.342C284.555,197.614,286.365,193.03,278.404,188.449z" clip-rule="evenodd"/><path fill="#BFBFBF" fill-rule="evenodd" d="M337.983,265.392 c0,0,1.928-4.222,1.082-5.307c-0.843-1.084-1.687-2.776-1.687-2.776l1.087-0.239c0,0-6.031-4.22-6.876-5.067 c-0.845-0.844,3.016,3.378,4.101,5.067c1.206,1.567,1.928,3.015,1.928,3.015l-2.17-0.846 C335.448,259.24,338.223,262.016,337.983,265.392z" clip-rule="evenodd"/><path fill="#BFBFBF" fill-rule="evenodd" d="M319.771,309.17c0,0,1.93-1.086,3.378-0.845 c1.325,0.363,2.651-0.363,2.651-0.363l0.241,0.482l-0.119-1.809l-1.087,0.122c0,0,0.604-0.844,0.965-2.291 c0.241-1.328-0.965-1.085-1.809-0.241c-0.843,0.843,0.603-1.57,1.448-1.931c0.843-0.482,0-2.774-0.846-1.93 c-0.844,1.086-1.207,1.691-1.207,1.691s0.604-3.137,0.966-3.258c0.482-0.12-0.12-4.222-0.361-5.065c0,0,0,4.222-0.843,5.307 c-0.845,1.087-1.569,2.774-1.327,3.256c0.361,0.361,0.723,0.483,0.482,1.086c-0.242,0.481-2.051,3.016-0.725,4.22 C321.58,307.602,320.495,308.927,319.771,309.17z" clip-rule="evenodd"/><path fill="#BFBFBF" fill-rule="evenodd" d="M313.862,311.099l-0.122-1.085 c0,0-0.241,2.05-1.204,2.533c-0.965,0.36-1.93,1.206-1.569,0.604c0.243-0.482-0.239-1.087-0.239-1.087 s-0.604,1.809-1.208,2.291c-0.482,0.363-1.688,0.483-1.688,0.483s-1.569,0.844-2.052,1.689 c-0.601,0.843-1.688,2.651-2.531,2.651c0,0,2.291,0.724,3.014,0.363c0.604-0.241,1.328-2.171,2.535-2.171 c0,0,0.965,0.122,0.843,0.482c0,0,2.17-2.05,2.413-2.533c0.239-0.602,0.963-1.689,0.963-1.689S313.862,313.029,313.862,311.099 z" clip-rule="evenodd"/><path fill="#BFBFBF" fill-rule="evenodd" d="M337.257,312.547c0,0-1.566,3.737-2.169,4.1 c-0.724,0.483-0.845-0.482-1.569,0.12c-0.723,0.726-2.531,1.691-3.737,1.811c-1.207,0.119-3.858,2.291-3.858,2.291 s3.376-0.724,4.582-0.604c1.205,0.121,3.618,0,3.979-0.722C334.847,318.938,337.618,313.631,337.257,312.547z" clip-rule="evenodd"/><path fill="#BFBFBF" fill-rule="evenodd" d="M296.014,305.551 c0,0,1.688-0.724,2.41-0.602c0.726,0.12,2.291-0.241,2.413,0.239c0.121,0.483-1.809,0.965-1.809,0.965s2.773-0.361,3.015-0.602 s1.326-0.965,1.928-0.482c0.604,0.482,0.244,0.965,0.244,0.965s0.723-0.363,0.36-0.965c-0.36-0.602-0.965-1.207-0.604-1.448 c0.363-0.24-0.239-1.205-0.722-1.205c-0.362,0-2.052-0.604-1.447-1.086c0.602-0.482,1.687-0.965,0.241-1.809 c-1.447-0.843-0.724-1.084-0.482-1.445c0.241-0.483,0.602-1.931,0.482-2.535c-0.241-0.482-0.724-4.341-0.724-4.341 s-0.482,6.393-0.965,7.115c-0.483,0.846-1.567,2.533-1.567,2.776c0,0.361,0.48,0,0.48,0.361 C299.268,301.692,296.737,305.069,296.014,305.551z" clip-rule="evenodd"/><path fill="#BFBFBF" fill-rule="evenodd" d="M158.286,265.392c0,0-0.723,3.378-1.446,4.1 c-0.604,0.724-0.604,3.015-1.086,2.654c-0.603-0.363-0.844-1.568-0.844-1.568s-0.604,2.05-0.965,2.772 c-0.482,0.726-1.206,1.931-1.086,0.604c0.121-1.448-0.724-0.122-0.843,0.24c-0.122,0.364-1.448,2.775-1.448,2.775 s1.207-0.724,1.689-1.206c0.602-0.604,1.205,0.361,2.048-0.604c0.846-0.965,1.086,1.569,1.568,1.087 c0.604-0.361,1.207-1.087,1.207-1.688c0-0.726,0.241-2.052,0-3.258c-0.122-1.205,1.084-1.93,1.084-1.93 S158.769,267.924,158.286,265.392z" clip-rule="evenodd"/><path fill="#D9D9D9" fill-rule="evenodd" d="M141.162,271.422 c0,0,0.36,4.462,0.964,4.824c0.604,0.482,0.604-1.207,0.604-1.207s0.12,1.448,0.723,2.652c0.482,1.208,1.327,1.809,1.327,3.257 c0,1.569,0.724-0.24,0.724-0.24s0,5.789-1.688,8.561c0,0-0.966-1.326-0.966-2.532c0-1.327,0-4.583-0.241-5.546 c-0.361-1.086-1.086-3.377-1.086-3.377l-0.602,0.724v-3.498l-0.604,0.241L141.162,271.422z" clip-rule="evenodd"/><path fill="#BFBFBF" fill-rule="evenodd" d="M154.91,313.994 c0,0,0.241-0.843-0.362-1.206c-0.723-0.483-0.844,0.843-1.085,0.241c-0.121-0.482-0.724-2.896-0.845-2.291 c-0.241,0.482-0.36,2.413-1.084,2.773c-0.604,0.241-1.086-0.724-1.207,0c-0.12,0.724,0.121,3.498-0.482,3.859 c-0.724,0.482-0.845,3.739,0.482,3.98c1.448,0.361,1.567,1.567,2.05,0.844c0.604-0.724,0.965-2.774,0.724-3.617 c0,0,1.447-1.567,1.568-2.172C154.789,315.803,154.91,313.994,154.91,313.994z" clip-rule="evenodd"/><path fill="#666" fill-rule="evenodd" stroke="#000" stroke-miterlimit="2.414" stroke-width=".36" d="M137.303,314.596c0,0,2.17-3.375,0.724-3.375c-1.568,0-2.051-0.363-2.533-0.482c-0.603-0.122,0.121,0.843,0.121,0.843 s-1.207-0.482-1.568-0.965c-0.241-0.602-1.689-0.482-1.567,0c0.119,0.361,0,0.844,0,0.844s-0.965-0.722-1.207-1.204 c-0.121-0.363-1.447-0.483-1.688,0.36c-0.363,0.844-1.929,0.242-1.929,0.242l-0.242-1.085l-0.845,0.602 c0,0-0.361-0.482,0-0.965c0.482-0.361-1.085,0.482-1.085,0.482s0.241-0.965,0.845-1.205c0,0-4.583,1.928-5.428,3.859 c-1.086,2.411-3.136,7.838-3.136,9.286c0,1.327-1.205,3.257,3.98,4.341c5.065,0.844,4.704,1.205,5.065,0.241 c3.98-9.045,6.874-8.563,7.477-10.01C134.77,314.838,134.045,315.562,137.303,314.596z" clip-rule="evenodd"/><path fill="#666" fill-rule="evenodd" stroke="#000" stroke-miterlimit="2.414" stroke-width=".36" d="M151.051,322.194c0,0-1.568-3.617-3.137-3.617c-1.446,0-3.376-0.242-3.979-0.363c-0.482-0.12,0.122,0.846,0.122,0.846 s-1.207-0.482-1.448-0.965c-0.361-0.602-1.81-0.482-1.688,0c0.119,0.363,0,0.843,0,0.843s-0.965-0.724-1.086-1.084 c-0.241-0.482-1.567-0.604-1.809,0.241c-0.363,0.843-1.81,0.241-1.81,0.241l-0.241-1.087l-0.844,0.604c0,0-0.482-0.482,0-0.843 c0.362-0.482-1.207,0.361-1.207,0.361s0.362-0.965,0.845-1.207c0,0-3.618,0.846-4.461,2.773 c-0.965,2.413-4.342,8.563-4.342,10.011c0,1.326-0.845,3.62,4.22,4.702c5.187,0.965,13.507,0.122,14.472-0.239 c0.964-0.243,3.256-3.739,3.859-5.187C149.121,326.657,147.794,323.16,151.051,322.194z" clip-rule="evenodd"/><path fill="#595959" fill-rule="evenodd" d="M150.81,322.194c0,0-1.568,0.604-1.81,1.326 c-0.241,0.845-0.482,1.569-0.482,1.569s0.121-3.137,0-3.619c-0.12-0.483,0.241-1.929,0.482-1.929 S150.568,321.59,150.81,322.194z" clip-rule="evenodd"/><path fill="#666" fill-rule="evenodd" stroke="#000" stroke-miterlimit="2.414" stroke-width=".36" d="M332.313,320.747c0,0-1.448-3.254-3.015-3.254c-1.446,0-3.376-0.244-3.98-0.363c-0.482-0.12,0.122,0.724,0.122,0.724 s-1.207-0.361-1.448-0.843c-0.241-0.604-1.809-0.482-1.688,0c0.118,0.361,0,0.843,0,0.843s-0.965-0.724-1.086-1.207 c-0.241-0.363-1.568-0.482-1.81,0.363c-0.361,0.843-1.809,0.239-1.809,0.239l-0.242-1.084l-0.845,0.602 c0,0-0.482-0.482,0-0.963c0.362-0.363-1.204,0.48-1.204,0.48s0.361-0.963,0.844-1.205c0,0-3.497,1.326-4.343,3.256 c-0.239,0.724-2.291,4.583-3.376,8.2c-0.482,1.326-3.015,5.789,2.05,6.753c8.925,1.689,9.287,0.844,15.558-0.965 c0.963-0.239,3.257-3.737,3.858-5.306C330.505,325.572,329.659,321.953,332.313,320.747z" clip-rule="evenodd"/><path fill="#666" fill-rule="evenodd" stroke="#000" stroke-miterlimit="2.414" stroke-width=".36" d="M308.557,317.853c0,0-1.448-4.222-2.895-4.222c-1.447,0-3.259-0.241-3.86-0.361c-0.482-0.12,0.241,0.843,0.241,0.843 s-1.328-0.482-1.447-0.963c-0.363-0.482-1.809-0.363-1.689,0c0.243,0.48,0,0.843,0,0.843s-0.843-0.724-1.085-1.087 c0-0.36-1.325-0.602-1.688,0.244c-0.239,0.843-1.688,0.239-1.688,0.239l-0.243-1.085l-0.843,0.724c0,0-0.362-0.482,0-0.965 c0.482-0.361-1.086,0.483-1.086,0.483s0.363-0.965,0.846-1.207c0,0-3.5,1.567-4.343,3.378c-0.966,2.411-4.1,6.994-4.1,8.319 c0,1.208-2.171,4.584,2.651,5.428c4.945,0.965,13.147,0.121,13.991-0.122c0.965-0.24,4.101-1.565,4.943-5.546 C306.506,321.351,305.78,319.542,308.557,317.853z" clip-rule="evenodd"/><path fill="none" fill-rule="evenodd" stroke="#666" stroke-linecap="round" stroke-miterlimit="2.414" stroke-width="1.08" d="M320.614,318.577c0,0-3.738,11.095-4.339,15.073" clip-rule="evenodd"/><path fill="none" fill-rule="evenodd" stroke="#666" stroke-linecap="round" stroke-miterlimit="2.414" stroke-width="1.08" d="M315.43,318.214c0,0-4.463,10.13-5.067,13.991" clip-rule="evenodd"/><g><path fill="none" fill-rule="evenodd" stroke="#737373" stroke-linecap="round" stroke-miterlimit="2.414" stroke-width="1.08" d="M319.892,318.696c0,0-3.86,10.856-4.343,14.715" clip-rule="evenodd"/><path fill="none" fill-rule="evenodd" stroke="#7F7F7F" stroke-linecap="round" stroke-miterlimit="2.414" stroke-width="1.08" d="M319.168,318.696c0,0-3.858,10.735-4.462,14.593" clip-rule="evenodd"/><path fill="none" fill-rule="evenodd" stroke="#8C8C8C" stroke-linecap="round" stroke-miterlimit="2.414" stroke-width="1.08" d="M318.444,318.818c0,0-3.98,10.491-4.582,14.35" clip-rule="evenodd"/></g><g><path fill="none" fill-rule="evenodd" stroke="#737373" stroke-linecap="round" stroke-miterlimit="2.414" stroke-width="1.08" d="M316.031,318.458c0,0-4.46,10.129-4.942,13.988" clip-rule="evenodd"/><path fill="none" fill-rule="evenodd" stroke="#7F7F7F" stroke-linecap="round" stroke-miterlimit="2.414" stroke-width="1.08" d="M316.636,318.577c0,0-4.343,10.13-4.825,13.991" clip-rule="evenodd"/><path fill="none" fill-rule="evenodd" stroke="#8C8C8C" stroke-linecap="round" stroke-miterlimit="2.414" stroke-width="1.08" d="M317.118,318.696c0,0-4.102,10.252-4.704,14.11" clip-rule="evenodd"/></g><path fill="none" fill-rule="evenodd" stroke="#999" stroke-linecap="round" stroke-miterlimit="2.414" stroke-width="1.08" d="M317.721,318.938c0,0-3.98,10.252-4.582,14.113" clip-rule="evenodd"/><path fill="none" fill-rule="evenodd" stroke="#666" stroke-linecap="round" stroke-miterlimit="2.414" stroke-width="1.08" d="M296.374,314.718c0,0-4.101,10.008-4.703,13.748" clip-rule="evenodd"/><path fill="none" fill-rule="evenodd" stroke="#666" stroke-linecap="round" stroke-miterlimit="2.414" stroke-width="1.08" d="M291.791,314.114c0,0-5.064,9.649-5.547,13.387" clip-rule="evenodd"/><g><path fill="none" fill-rule="evenodd" stroke="#737373" stroke-linecap="round" stroke-miterlimit="2.414" stroke-width="1.08" d="M295.771,314.718c0,0-4.222,9.889-4.824,13.626" clip-rule="evenodd"/><path fill="none" fill-rule="evenodd" stroke="#7F7F7F" stroke-linecap="round" stroke-miterlimit="2.414" stroke-width="1.08" d="M295.048,314.718c0,0-4.22,9.889-4.824,13.626" clip-rule="evenodd"/><path fill="none" fill-rule="evenodd" stroke="#8C8C8C" stroke-linecap="round" stroke-miterlimit="2.414" stroke-width="1.08" d="M294.445,314.718c0,0-4.344,9.767-4.943,13.506" clip-rule="evenodd"/></g><g><path fill="none" fill-rule="evenodd" stroke="#737373" stroke-linecap="round" stroke-miterlimit="2.414" stroke-width="1.08" d="M292.273,314.235c0,0-4.823,9.768-5.428,13.387" clip-rule="evenodd"/><path fill="none" fill-rule="evenodd" stroke="#7F7F7F" stroke-linecap="round" stroke-miterlimit="2.414" stroke-width="1.08" d="M292.877,314.355c0,0-4.822,9.77-5.427,13.507" clip-rule="evenodd"/><path fill="none" fill-rule="evenodd" stroke="#8C8C8C" stroke-linecap="round" stroke-miterlimit="2.414" stroke-width="1.08" d="M293.359,314.596c0,0-4.583,9.649-5.305,13.387" clip-rule="evenodd"/></g><path fill="none" fill-rule="evenodd" stroke="#999" stroke-linecap="round" stroke-miterlimit="2.414" stroke-width="1.08" d="M293.842,314.718c0,0-4.462,9.647-5.065,13.386" clip-rule="evenodd"/><path fill="none" fill-rule="evenodd" stroke="#666" stroke-linecap="round" stroke-miterlimit="2.414" stroke-width="1.08" d="M133.684,333.168c0.482-3.737,4.102-13.265,4.102-13.265" clip-rule="evenodd"/><path fill="none" fill-rule="evenodd" stroke="#666" stroke-linecap="round" stroke-miterlimit="2.414" stroke-width="1.08" d="M133.322,319.06c0,0-4.582,9.406-5.185,13.145" clip-rule="evenodd"/><g><path fill="none" fill-rule="evenodd" stroke="#737373" stroke-linecap="round" stroke-miterlimit="2.414" stroke-width="1.08" d="M132.839,333.168c0.603-3.859,4.343-13.265,4.343-13.265" clip-rule="evenodd"/><path fill="none" fill-rule="evenodd" stroke="#7F7F7F" stroke-linecap="round" stroke-miterlimit="2.414" stroke-width="1.08" d="M132.115,333.05c0.604-3.741,4.343-13.147,4.343-13.147" clip-rule="evenodd"/><path fill="none" fill-rule="evenodd" stroke="#8C8C8C" stroke-linecap="round" stroke-miterlimit="2.414" stroke-width="1.08" d="M131.393,332.928c0.603-3.738,4.462-13.025,4.462-13.025" clip-rule="evenodd"/></g><g><path fill="none" fill-rule="evenodd" stroke="#737373" stroke-linecap="round" stroke-miterlimit="2.414" stroke-width="1.08" d="M133.804,319.301c0,0-4.461,9.406-5.064,13.145" clip-rule="evenodd"/><path fill="none" fill-rule="evenodd" stroke="#7F7F7F" stroke-linecap="round" stroke-miterlimit="2.414" stroke-width="1.08" d="M134.287,319.542c0,0-4.342,9.285-4.824,13.026" clip-rule="evenodd"/><path fill="none" fill-rule="evenodd" stroke="#8C8C8C" stroke-linecap="round" stroke-miterlimit="2.414" stroke-width="1.08" d="M134.77,319.783c0,0-4.101,9.165-4.703,12.902" clip-rule="evenodd"/></g><path fill="none" fill-rule="evenodd" stroke="#999" stroke-linecap="round" stroke-miterlimit="2.414" stroke-width="1.08" d="M135.252,320.024c0,0-3.98,9.045-4.583,12.782" clip-rule="evenodd"/><path fill="none" fill-rule="evenodd" stroke="#666" stroke-linecap="round" stroke-miterlimit="2.414" stroke-width="1.08" d="M125.002,325.813c0.602-3.741,4.1-13.389,4.1-13.389" clip-rule="evenodd"/><path fill="none" fill-rule="evenodd" stroke="#666" stroke-linecap="round" stroke-miterlimit="2.414" stroke-width="1.08" d="M124.761,311.703c0,0-4.705,9.406-5.188,13.146" clip-rule="evenodd"/><g><path fill="none" fill-rule="evenodd" stroke="#737373" stroke-linecap="round" stroke-miterlimit="2.414" stroke-width="1.08" d="M124.278,325.692c0.602-3.619,4.22-13.145,4.22-13.145" clip-rule="evenodd"/><path fill="none" fill-rule="evenodd" stroke="#7F7F7F" stroke-linecap="round" stroke-miterlimit="2.414" stroke-width="1.08" d="M123.554,325.692c0.602-3.739,4.341-13.145,4.341-13.145" clip-rule="evenodd"/><path fill="none" fill-rule="evenodd" stroke="#8C8C8C" stroke-linecap="round" stroke-miterlimit="2.414" stroke-width="1.08" d="M122.831,325.572c0.482-3.739,4.461-13.025,4.461-13.025" clip-rule="evenodd"/></g><g><path fill="none" fill-rule="evenodd" stroke="#737373" stroke-linecap="round" stroke-miterlimit="2.414" stroke-width="1.08" d="M125.122,311.942c0,0-4.342,9.408-4.945,13.147" clip-rule="evenodd"/><path fill="none" fill-rule="evenodd" stroke="#7F7F7F" stroke-linecap="round" stroke-miterlimit="2.414" stroke-width="1.08" d="M125.604,312.186c0,0-4.221,9.285-4.824,13.023" clip-rule="evenodd"/><path fill="none" fill-rule="evenodd" stroke="#8C8C8C" stroke-linecap="round" stroke-miterlimit="2.414" stroke-width="1.08" d="M126.208,312.425c0,0-4.221,9.165-4.825,12.906" clip-rule="evenodd"/></g><path fill="none" fill-rule="evenodd" stroke="#999" stroke-linecap="round" stroke-miterlimit="2.414" stroke-width="1.08" d="M126.568,312.668c0,0-3.858,9.043-4.461,12.904" clip-rule="evenodd"/><path fill="#595959" fill-rule="evenodd" d="M136.82,311.46c0,0-0.724,3.258-1.327,3.498 l1.689-0.48l1.086-2.291c0,0,0.119-0.726-0.242-0.726C137.664,311.46,136.82,311.46,136.82,311.46z" clip-rule="evenodd"/><path fill="#595959" fill-rule="evenodd" d="M330.745,318.818 c0,0,0.242,2.291-0.121,3.254c0,0,0.604-1.446,1.086-1.326C332.192,320.868,330.745,318.818,330.745,318.818z" clip-rule="evenodd"/><path fill="#595959" fill-rule="evenodd" d="M307.108,315.32 c0,0,0.966,1.928,1.207,2.411c0,0.122-0.363-0.12-1.689,1.689C306.626,319.42,306.506,316.405,307.108,315.32z" clip-rule="evenodd"/><path fill="none" fill-rule="evenodd" stroke="#3A2217" stroke-miterlimit="2.414" stroke-width="1.8" d="M345.339,159.987c-0.604,4.945-3.256,12.663-3.738,14.11c-0.604,1.688-4.344,13.387-3.982,14.474 c0.243,1.083-1.083,7.234-1.083,7.234c-0.121,6.511-1.93,8.563-1.93,8.563c-1.327,0.361-1.81,1.809-1.688,3.015 c0.239,1.085,0,3.014-0.847,3.256c-0.724,0.361-0.724,2.652-0.724,2.652c0.122,3.739-0.965,3.98-0.965,3.98 c1.207,2.774-0.241,1.448-0.36,1.809c-0.122,0.482,0.36,2.413,0.36,2.413c0.845,2.05-0.602,2.05-0.602,2.05 c-0.241,1.326,0.36,2.654,0.36,2.654c2.412,3.375-0.482,1.809-0.482,1.809c-0.36,0.963-0.48,1.807-0.48,2.532" clip-rule="evenodd"/><g><path fill="none" fill-rule="evenodd" stroke="#40261A" stroke-miterlimit="2.414" stroke-width="1.8" d="M345.339,158.781c-0.604,4.462-3.017,10.975-3.738,13.266c-0.122,0.361-0.241,0.603-0.363,0.722 c-0.482,1.689-3.619,11.458-3.858,13.872c-0.122,0.239-0.122,0.482-0.122,0.6c0.244,1.208-1.325,6.997-1.566,7.117 c0,0.241,0,0.363,0,0.603c-0.12,4.102-0.965,6.03-1.447,6.995c-0.361,0.604-0.603,0.844-0.603,0.965 c-1.327,0.361-1.688,1.93-1.569,3.016c0.121,1.084,0,3.135-0.844,3.378c-0.723,0.239-0.604,2.169-0.723,2.53 c0,0.122,0,0.122,0,0.122c0.119,1.928,0,2.773-0.241,3.256c-0.241,0.724-0.482,0.843-0.482,0.843 c0.482,1.087,0.482,1.448,0.36,1.568c-0.119,0.363-0.602,0-0.602,0.241c-0.122,0.241,0.119,0.965,0.119,1.448 c0.122,0.482,0.241,0.843,0.241,0.965c0.241,0.724,0.122,1.206,0,1.447c-0.119,0.603-0.602,0.603-0.602,0.603 c-0.12,0.363,0,0.724,0,0.965c0.119,0.965,0.482,1.687,0.482,1.687c0.36,0.726,0.36,1.087,0.482,1.328 c0.481,1.326-1.085,0.482-1.085,0.602c-0.243,0.965-0.363,1.93-0.363,2.654" clip-rule="evenodd"/><path fill="none" fill-rule="evenodd" stroke="#45291C" stroke-miterlimit="2.414" stroke-width="1.8" d="M345.339,157.454c-0.604,4.583-3.378,11.096-4.102,13.267c-0.12,0.361-0.12,0.482-0.12,0.722 c-0.604,1.809-3.86,11.578-4.099,13.869c0,0.241,0,0.482,0,0.482c0.119,1.328-1.812,6.874-2.172,7.117 c0,0.239,0,0.361,0,0.601c-0.121,4.343-1.206,6.152-1.568,6.997c-0.36,0.48-0.482,0.843-0.604,0.843 c-1.205,0.603-1.568,2.172-1.447,3.256c0.12,1.085,0,3.016-0.845,3.376c-0.724,0.241-0.602,2.171-0.602,2.533 c0,0.121,0,0.121,0,0.121c0.119,2.17,0,2.894-0.122,3.254c-0.241,0.726-0.36,0.846-0.36,0.965 c0.36,1.087,0.241,1.328,0.241,1.569c-0.122,0.241-0.483,0-0.604,0.241c0,0.361,0.243,0.963,0.363,1.446 c0,0.483,0.119,0.846,0.119,0.965c0.241,0.846-0.119,1.207-0.119,1.448c-0.12,0.482-0.603,0.602-0.603,0.724 c0,0.361,0.119,0.724,0.119,0.965c0.241,0.844,0.483,1.568,0.483,1.687c0.482,0.724,0.241,0.846,0.36,1.085 c0.363,1.208-1.085,0.604-0.963,0.845c-0.122,1.085-0.122,2.05-0.122,2.653" clip-rule="evenodd"/><path fill="none" fill-rule="evenodd" stroke="#4B2D1F" stroke-miterlimit="2.414" stroke-width="1.8" d="M345.339,156.248c-0.604,4.583-3.619,11.095-4.343,13.145c-0.12,0.241-0.12,0.482-0.241,0.603 c-0.603,1.93-3.736,11.939-3.858,13.991c-0.122,0.241-0.122,0.361-0.122,0.482c0,1.326-2.291,6.633-2.651,6.995 c-0.122,0.239-0.122,0.482-0.122,0.603c-0.24,4.704-1.326,6.27-1.688,6.995c-0.242,0.483-0.482,0.722-0.604,0.844 c-1.086,0.604-1.446,2.291-1.327,3.256c0.122,1.085,0,3.137-0.843,3.498c-0.844,0.12-0.483,2.171-0.483,2.532 c0,0.122,0,0.122,0,0.24c0.122,2.293,0,2.896-0.121,3.258c-0.12,0.602-0.239,0.843-0.239,0.965 c0.482,1.084,0.239,1.204,0.119,1.448c0,0.239-0.362,0.119-0.362,0.36c0.121,0.361,0.243,1.085,0.243,1.448 c0.119,0.361,0.239,0.844,0.239,0.963c0.243,0.846-0.239,1.207-0.239,1.448c-0.122,0.482-0.482,0.604-0.482,0.724 c0,0.363,0.119,0.724,0.119,0.965c0.241,0.843,0.603,1.567,0.603,1.689c0.363,0.722-0.12,0.844,0,0.963 c0.243,1.087-0.844,0.843-0.722,1.207c-0.122,0.965,0,2.05,0,2.654" clip-rule="evenodd"/><path fill="none" fill-rule="evenodd" stroke="#523322" stroke-miterlimit="2.414" stroke-width="1.8" d="M345.339,155.042c-0.604,4.584-3.979,11.095-4.584,13.025c-0.12,0.242-0.241,0.361-0.241,0.602 c-0.722,2.052-3.858,12.061-3.979,13.991c0,0.122,0,0.361,0,0.482c-0.121,1.326-2.653,6.271-3.257,6.874 c-0.121,0.241-0.242,0.482-0.242,0.482c-0.118,5.186-1.326,6.511-1.566,7.116c-0.363,0.361-0.725,0.604-0.846,0.843 c-0.965,0.604-1.325,2.413-1.084,3.378c0.119,1.084,0,3.137-0.844,3.376c-0.844,0.241-0.482,2.291-0.482,2.654 c0,0.12,0,0.12,0,0.24c0.119,2.534,0.239,3.016,0.119,3.256c-0.119,0.604-0.241,0.846-0.119,0.965 c0.36,1.206,0.119,1.206,0,1.447c-0.122,0.242-0.361,0.12-0.361,0.483c0.118,0.363,0.361,1.084,0.48,1.328 c0.12,0.48,0.241,0.963,0.241,0.963c0,0.965-0.482,1.326-0.482,1.448c-0.239,0.482-0.482,0.724-0.36,0.843 c0,0.482,0.121,0.843,0.121,0.965c0.361,0.965,0.722,1.57,0.722,1.689c0.241,0.844-0.36,0.724-0.36,0.844 c0.239,0.965-0.604,0.965-0.482,1.448c0,1.084,0.121,2.169,0.121,2.773" clip-rule="evenodd"/><path fill="none" fill-rule="evenodd" stroke="#583625" stroke-miterlimit="2.414" stroke-width="1.8" d="M345.217,153.837c-0.603,4.703-4.1,11.215-4.703,12.904c-0.12,0.239-0.12,0.361-0.241,0.482 c-0.725,2.169-3.98,12.421-3.98,13.989c0,0.241,0,0.361,0,0.482c-0.239,1.327-3.135,6.271-3.857,6.994 c-0.121,0.121-0.242,0.362-0.242,0.362c-0.121,5.548-1.568,6.633-1.688,6.996c-0.363,0.361-0.604,0.603-0.724,0.844 c-0.966,0.845-1.207,2.533-1.207,3.498c0.122,1.084,0,3.256-0.722,3.498c-0.848,0.241-0.365,2.413-0.365,2.652 c0,0.122,0,0.122,0,0.241c0.122,2.774,0.244,3.135,0.122,3.378c0,0.482,0,0.844,0.122,0.965 c0.36,1.205-0.122,1.085-0.122,1.327c-0.122,0.241-0.239,0.241-0.239,0.602c0.117,0.482,0.482,1.087,0.482,1.326 c0.118,0.483,0.118,0.846,0.118,0.965c0.121,1.087-0.483,1.328-0.483,1.448c-0.238,0.482-0.36,0.724-0.238,0.965 c0,0.36,0.121,0.724,0.121,0.843c0.482,0.965,0.722,1.567,0.722,1.811c0.241,0.843-0.604,0.602-0.604,0.722 c0.122,0.724-0.36,0.965-0.238,1.569c0.121,1.205,0.36,2.29,0.36,2.772" clip-rule="evenodd"/><path fill="none" fill-rule="evenodd" stroke="#5F3B29" stroke-miterlimit="2.414" stroke-width="1.8" d="M345.217,152.509c-0.603,4.824-4.462,11.336-5.064,12.905c0,0.118-0.122,0.361-0.122,0.483 c-0.721,2.289-3.978,12.541-3.978,13.989c0.12,0.241,0,0.361,0,0.483c-0.362,1.326-3.499,5.908-4.463,6.872 c-0.12,0.122-0.242,0.365-0.242,0.365c-0.12,5.907-1.688,6.752-1.808,6.993c-0.361,0.241-0.604,0.482-0.844,0.844 c-0.844,0.845-1.087,2.654-0.965,3.619c0.121,1.085,0,3.255-0.844,3.498c-0.726,0.24-0.122,2.413-0.122,2.652 c0,0.122,0,0.241,0,0.241c0.122,2.896,0.239,3.256,0.239,3.378c0,0.483,0.122,0.843,0.122,1.083 c0.482,1.208-0.122,0.965-0.239,1.208c0,0.24-0.122,0.361,0,0.722c0.117,0.483,0.482,1.207,0.482,1.328 c0.117,0.483,0.239,0.722,0.239,0.965c0,1.084-0.722,1.326-0.722,1.448c-0.243,0.361-0.365,0.722-0.243,0.963 c0.121,0.482,0.36,0.843,0.36,0.843c0.482,0.965,0.727,1.569,0.727,1.93c0.121,0.724-0.966,0.361-0.844,0.482 c0,0.604-0.365,1.087-0.122,1.809c0.239,1.207,0.483,2.414,0.483,2.894" clip-rule="evenodd"/><path fill="none" fill-rule="evenodd" stroke="#643E2B" stroke-miterlimit="2.414" stroke-width="1.8" d="M345.217,151.305c-0.603,4.824-4.823,11.334-5.306,12.902c-0.119,0.121-0.119,0.243-0.119,0.483 c-0.846,2.291-4.102,12.664-3.98,13.869c0,0.122,0,0.243,0,0.363c-0.482,1.448-3.98,5.789-5.066,6.874 c-0.121,0.241-0.24,0.363-0.24,0.363c-0.122,6.15-1.809,6.872-1.931,6.993c-0.36,0.122-0.604,0.361-0.843,0.726 c-0.727,1.083-0.966,2.894-0.844,3.738c0.117,1.086,0,3.256-0.846,3.617c-0.846,0.241-0.119,2.533-0.119,2.654 s0,0.122,0,0.241c0.119,3.256,0.36,3.376,0.36,3.376c0.122,0.483,0.239,0.846,0.239,1.085 c0.482,1.326-0.117,0.965-0.239,1.326c-0.121,0.122-0.121,0.365,0,0.726c0.239,0.482,0.604,1.205,0.604,1.205 c0.239,0.483,0.239,0.846,0.239,1.087c0,1.085-0.844,1.326-0.844,1.326c-0.121,0.482-0.241,0.846-0.121,1.084 c0.121,0.482,0.36,0.846,0.36,0.966c0.604,0.965,0.848,1.448,0.848,1.808c0.117,0.846-1.208,0.363-1.208,0.363 c-0.12,0.602-0.12,1.204,0.121,2.169c0.239,1.206,0.722,2.413,0.722,2.896" clip-rule="evenodd"/></g><path fill="none" fill-rule="evenodd" stroke="#6B432F" stroke-miterlimit="2.414" stroke-width="1.8" d="M345.217,149.977c-0.603,4.944-5.064,11.458-5.547,12.904c-0.604,1.689-4.341,13.147-4.1,14.352 c0.361,1.086-5.911,7.478-5.911,7.478c-0.119,6.513-1.928,6.874-1.928,6.874c-1.448,0.362-1.809,3.497-1.689,4.704 c0.12,1.085,0,3.257-0.846,3.496c-0.843,0.363,0,2.654,0,2.654c0.122,3.739,0.483,3.739,0.483,3.739 c1.208,2.773,0.121,2.05,0,2.411c-0.239,0.362,0.843,2.051,0.843,2.051c0.727,2.05-0.843,2.411-0.843,2.411 c-0.361,1.207,0.362,2.052,0.362,2.052c2.411,3.376-0.602,2.049-0.602,2.049c-0.363,0.963,1.204,4.583,1.204,5.305" clip-rule="evenodd"/><path fill="none" fill-rule="evenodd" stroke="#000" stroke-miterlimit="2.414" stroke-width=".36" d="M320.374,259.24c0,0-2.412-5.185-5.79-8.319c-3.256-3.258-7.717-11.095-8.562-11.338l0.724,1.691c0,0-8.805-8.443-9.648-9.649 c-0.724-1.206-2.412-4.824-3.256-5.306l0.482,1.93c0,0-3.136-3.378-4.342-6.635c-1.206-3.134-1.928-5.548-1.928-6.15 l-0.363,1.689c0,0-1.688-8.925-1.085-11.699c0.722-2.774-0.604-10.854-2.291-12.541" clip-rule="evenodd"/><path fill="none" fill-rule="evenodd" stroke="#000" stroke-miterlimit="2.414" stroke-width=".36" d="M286.485,201.111c0,0-7.599,2.652-11.218,4.583c-3.616,1.93-6.751,4.945-8.923,5.306" clip-rule="evenodd"/><path fill="none" fill-rule="evenodd" stroke="#000" stroke-miterlimit="2.414" stroke-width=".36" d="M170.829,216.911l0.724-4.584l0.603,0.604c0,0,1.205-11.819,0.724-12.665l1.327,1.086c0,0-1.087-2.773-1.087-3.617" clip-rule="evenodd"/><path fill="none" fill-rule="evenodd" stroke="#000" stroke-miterlimit="2.414" stroke-width=".36" d="M138.509,312.305c0,0,0-2.049-0.241-2.171c-0.122-0.241-0.483-3.015,1.688-5.548c0,0,2.05-2.773,3.255-13.991 c0,0-1.085-3.737-0.844-5.545c0,0,0-3.498-1.205-6.15c0,0-0.724,3.376-0.846-3.015c0,0-1.326,2.05-0.361-1.569 c0,0,0.483-3.135,0.965-3.737c0,0,0-12.182-0.122-13.025c0-0.725-0.241-10.492,0-10.735l-0.843,1.087 c0,0-0.482-3.86-0.362-6.032c0-2.17-1.084-10.37-1.084-11.456c0,0-0.604,0.604-0.846,1.689c0,0-0.481-8.685-2.653-15.919 c0,0-1.207-2.413-1.689-2.776c-0.361-0.48-1.929-4.22-2.05-4.461" clip-rule="evenodd"/><path fill="none" fill-rule="evenodd" stroke="#000" stroke-miterlimit="2.414" stroke-width=".36" d="M136.82,224.268c0,0-2.654-4.341-3.618-4.946c-0.846-0.724-2.533-3.135-2.654-3.498c-0.121-0.361-0.604,0.363-0.362,0.966 c0.122,0.602-2.17-2.414-2.531-3.257c-0.242-0.843-0.965-1.206-0.965-1.206" clip-rule="evenodd"/><path fill="none" fill-rule="evenodd" stroke="#000" stroke-miterlimit="2.414" stroke-width=".36" d="M347.509,262.616c0,0,0-15.074,0.483-17.124c0.36-2.05-0.362-11.456-0.362-11.456" clip-rule="evenodd"/><path fill="none" fill-rule="evenodd" stroke="#000" stroke-miterlimit="2.414" stroke-width=".36" d="M351.972,269.009c0,0-1.688-10.491-0.846-13.265" clip-rule="evenodd"/><path fill="none" fill-rule="evenodd" stroke="#000" stroke-miterlimit="2.414" stroke-width=".36" d="M350.042,256.466c0,0,4.102-16.641,3.136-21.345" clip-rule="evenodd"/><path fill="none" fill-rule="evenodd" stroke="#000" stroke-miterlimit="2.414" stroke-width=".36" d="M351.972,237.292c0,0-0.363-10.01-1.328-13.507" clip-rule="evenodd"/><path fill="none" fill-rule="evenodd" stroke="#000" stroke-miterlimit="2.414" stroke-width=".36" d="M354.382,225.352c0,0-1.204-11.336-2.773-13.627" clip-rule="evenodd"/><path fill="none" fill-rule="evenodd" stroke="#000" stroke-miterlimit="2.414" stroke-width=".36" d="M352.815,209.674c0,0-4.582-9.891-5.307-13.749" clip-rule="evenodd"/><path fill="none" fill-rule="evenodd" stroke="#000" stroke-miterlimit="2.414" stroke-width=".36" d="M344.856,192.429c0,0,0.24,4.944-0.844,7.477c-0.847,2.654-1.569,7.115-1.569,7.115" clip-rule="evenodd"/><path fill="none" fill-rule="evenodd" stroke="#000" stroke-miterlimit="2.414" stroke-width=".36" d="M345.941,198.818c0,0-1.085,8.926-0.725,10.734c0.241,1.809,1.086,9.167,0.966,10.01" clip-rule="evenodd"/><path fill="none" fill-rule="evenodd" stroke="#000" stroke-miterlimit="2.414" stroke-width=".36" d="M343.166,213.774c0,0-1.565,11.215-0.361,15.799" clip-rule="evenodd"/><path fill="none" fill-rule="evenodd" stroke="#000" stroke-miterlimit="2.414" stroke-width=".36" d="M343.287,225.593c0,0-0.121,5.91,0.726,7.839c0.722,1.93,1.326,9.406,1.204,10.493" clip-rule="evenodd"/><path fill="none" fill-rule="evenodd" stroke="#000" stroke-miterlimit="2.414" stroke-width=".36" d="M348.835,204.609c0,0,1.809,5.909,2.413,10.372" clip-rule="evenodd"/><path fill="none" fill-rule="evenodd" stroke="#6B432F" stroke-linecap="round" stroke-miterlimit="2.414" stroke-width=".36" d="M351.73,209.674c0,0,2.291,4.342,2.413,6.272c0.238,1.928,1.809,7.717,1.809,7.717" clip-rule="evenodd"/><path fill="none" fill-rule="evenodd" stroke="#6B432F" stroke-linecap="round" stroke-miterlimit="2.414" stroke-width=".36" d="M353.78,211.604c0,0,2.172,5.787,2.893,6.511" clip-rule="evenodd"/><path fill="none" fill-rule="evenodd" stroke="#6B432F" stroke-linecap="round" stroke-miterlimit="2.414" stroke-width=".36" d="M346.544,196.529c0,0,1.689,8.683,1.689,9.648c0,0.965,1.328,6.271,1.328,6.271" clip-rule="evenodd"/><path fill="none" fill-rule="evenodd" stroke="#6B432F" stroke-linecap="round" stroke-miterlimit="2.414" stroke-width=".36" d="M349.196,202.316c0,0,1.087,5.066,1.69,5.669" clip-rule="evenodd"/><path fill="none" stroke="#6B432F" stroke-linecap="round" stroke-miterlimit="2.414" stroke-width=".36" d="M346.785,194.238l1.327,5.909"/><path fill="none" fill-rule="evenodd" stroke="#6B432F" stroke-linecap="round" stroke-miterlimit="2.414" stroke-width=".36" d="M351.972,217.392c0,0,1.567,11.338,1.567,14.595" clip-rule="evenodd"/><path fill="none" fill-rule="evenodd" stroke="#6B432F" stroke-linecap="round" stroke-miterlimit="2.414" stroke-width=".36" d="M350.042,215.704c0,0,0.845,3.859,0.845,4.944" clip-rule="evenodd"/><path fill="none" fill-rule="evenodd" stroke="#6B432F" stroke-linecap="round" stroke-miterlimit="2.414" stroke-width=".36" d="M354.626,228.487c0,0,0.239,9.891,0.239,11.458" clip-rule="evenodd"/><path fill="none" fill-rule="evenodd" stroke="#6B432F" stroke-linecap="round" stroke-miterlimit="2.414" stroke-width=".36" d="M354.144,240.428c0,0-0.482,8.08-1.209,10.25c-0.602,2.052-0.602,5.067-0.602,5.067" clip-rule="evenodd"/><path fill="none" fill-rule="evenodd" stroke="#6B432F" stroke-linecap="round" stroke-miterlimit="2.414" stroke-width=".36" d="M100.278,56.632c0,0,3.498-5.547,3.739-7.597" clip-rule="evenodd"/><path fill="none" fill-rule="evenodd" stroke="#6B432F" stroke-linecap="round" stroke-miterlimit="2.414" stroke-width=".36" d="M106.549,58.802c0,0,1.447-2.292,2.412-4.702" clip-rule="evenodd"/><path fill="none" fill-rule="evenodd" stroke="#6B432F" stroke-linecap="round" stroke-miterlimit="2.414" stroke-width=".36" d="M76.519,46.259c0,0-3.497-5.787-4.703-6.632" clip-rule="evenodd"/><path fill="none" fill-rule="evenodd" stroke="#6B432F" stroke-linecap="round" stroke-miterlimit="2.414" stroke-width=".36" d="M73.142,47.707c0,0-2.049-1.929-2.895-2.17" clip-rule="evenodd"/><path fill="none" fill-rule="evenodd" stroke="#6B432F" stroke-linecap="round" stroke-miterlimit="2.414" stroke-width=".36" d="M107.876,63.386c0,0,2.773-3.98,3.376-5.549" clip-rule="evenodd"/><path fill="none" fill-rule="evenodd" stroke="#6B432F" stroke-linecap="round" stroke-miterlimit="2.414" stroke-width=".36" d="M110.408,64.953c0,0,3.859-4.704,4.462-6.391" clip-rule="evenodd"/><path fill="none" fill-rule="evenodd" stroke="#6B432F" stroke-linecap="round" stroke-miterlimit="2.414" stroke-width=".36" d="M111.373,66.28c0,0,3.015-3.859,3.859-4.946" clip-rule="evenodd"/><path fill="none" fill-rule="evenodd" stroke="#6B432F" stroke-linecap="round" stroke-miterlimit="2.414" stroke-width=".36" d="M118.489,63.025c0,0-3.859,4.341-5.306,5.667" clip-rule="evenodd"/><path fill="none" fill-rule="evenodd" stroke="#6B432F" stroke-linecap="round" stroke-miterlimit="2.414" stroke-width=".36" d="M124.398,69.777c0,0-3.136,3.86-4.825,5.065" clip-rule="evenodd"/><path fill="none" fill-rule="evenodd" stroke="#6B432F" stroke-linecap="round" stroke-miterlimit="2.414" stroke-width=".36" d="M130.067,70.623c0,0-3.859,5.545-5.669,6.632" clip-rule="evenodd"/><path fill="none" fill-rule="evenodd" stroke="#6B432F" stroke-linecap="round" stroke-miterlimit="2.414" stroke-width=".36" d="M131.754,76.892c0,0-2.17,2.896-2.894,3.257" clip-rule="evenodd"/><path fill="none" fill-rule="evenodd" stroke="#6B432F" stroke-linecap="round" stroke-miterlimit="2.414" stroke-width=".36" d="M130.79,73.755c0,0-3.98,5.188-5.065,5.428" clip-rule="evenodd"/><path fill="none" fill-rule="evenodd" stroke="#6B432F" stroke-linecap="round" stroke-miterlimit="2.414" stroke-width=".36" d="M135.976,77.375c0,0-3.98,4.583-5.307,5.307" clip-rule="evenodd"/><path fill="none" fill-rule="evenodd" stroke="#6B432F" stroke-linecap="round" stroke-miterlimit="2.414" stroke-width=".36" d="M140.438,80.149c0,0-6.875,4.702-8.563,5.185" clip-rule="evenodd"/><path fill="none" fill-rule="evenodd" stroke="#6B432F" stroke-linecap="round" stroke-miterlimit="2.414" stroke-width=".36" d="M141.885,82.079c0,0-3.498,3.254-4.462,3.619" clip-rule="evenodd"/><path fill="none" fill-rule="evenodd" stroke="#6B432F" stroke-linecap="round" stroke-miterlimit="2.414" stroke-width=".36" d="M143.452,84.851c0,0-3.497,2.413-5.184,3.017" clip-rule="evenodd"/><path fill="none" stroke="#6B432F" stroke-linecap="round" stroke-miterlimit="2.414" stroke-width=".36" d="M132.961,87.626l2.653-1.928"/><path fill="none" stroke="#6B432F" stroke-linecap="round" stroke-miterlimit="2.414" stroke-width=".36" d="M137.544,91.848l3.979-2.534"/><path fill="none" stroke="#523727" stroke-linecap="round" stroke-miterlimit="2.414" stroke-width=".36" d="M83.152,67.003l1.81,0.602"/><path fill="none" stroke="#523727" stroke-linecap="round" stroke-miterlimit="2.414" stroke-width=".36" d="M82.066,64.591l1.207,0.362"/><path fill="none" stroke="#523727" stroke-linecap="round" stroke-miterlimit="2.414" stroke-width=".36" d="M92.68,107.523l1.207,2.535"/><path fill="none" stroke="#523727" stroke-linecap="round" stroke-miterlimit="2.414" stroke-width=".36" d="M94.971,109.213l0.483,1.93"/><path fill="none" stroke="#523727" stroke-linecap="round" stroke-miterlimit="2.414" stroke-width=".36" d="M98.228,111.747l0.362,2.411"/><path fill="none" stroke="#523727" stroke-linecap="round" stroke-miterlimit="2.414" stroke-width=".36" d="M100.76,114.521l0.604,2.411"/><path fill="none" stroke="#523727" stroke-linecap="round" stroke-miterlimit="2.414" stroke-width=".36" d="M99.917,111.747l0.361,1.565"/><path fill="none" stroke="#523727" stroke-linecap="round" stroke-miterlimit="2.414" stroke-width=".36" d="M102.207,115.001l0.846,1.93"/><path fill="none" stroke="#523727" stroke-linecap="round" stroke-miterlimit="2.414" stroke-width=".36" d="M164.317,193.151l0.843,3.137"/><path fill="none" stroke="#523727" stroke-linecap="round" stroke-miterlimit="2.414" stroke-width=".36" d="M165.401,191.825l0.845,1.687"/><path fill="none" stroke="#523727" stroke-linecap="round" stroke-miterlimit="2.414" stroke-width=".36" d="M165.16,187.966l1.086,2.411"/><path fill="none" stroke="#523727" stroke-linecap="round" stroke-miterlimit="2.414" stroke-width=".36" d="M167.091,189.051l1.446,1.931"/><path fill="none" stroke="#523727" stroke-linecap="round" stroke-miterlimit="2.414" stroke-width=".36" d="M167.332,185.434l0.361,1.928"/><path fill="none" stroke="#523727" stroke-linecap="round" stroke-miterlimit="2.414" stroke-width=".36" d="M168.778,183.745l0.845,2.169"/><path fill="none" stroke="#523727" stroke-linecap="round" stroke-miterlimit="2.414" stroke-width=".36" d="M114.388,176.51v2.531"/><path fill="none" stroke="#523727" stroke-linecap="round" stroke-miterlimit="2.414" stroke-width=".36" d="M116.077,174.821v2.772"/><path fill="none" stroke="#523727" stroke-linecap="round" stroke-miterlimit="2.414" stroke-width=".36" d="M117.162,178.801l0.241,2.772"/><path fill="none" stroke="#523727" stroke-linecap="round" stroke-miterlimit="2.414" stroke-width=".36" d="M116.077,180.127l-0.363,3.376"/><path fill="none" stroke="#523727" stroke-linecap="round" stroke-miterlimit="2.414" stroke-width=".36" d="M113.543,172.047l-0.241,3.135"/><path fill="none" stroke="#523727" stroke-linecap="round" stroke-miterlimit="2.414" stroke-width=".36" d="M112.7,177.593l0.241,2.293"/><path fill="none" stroke="#523727" stroke-linecap="round" stroke-miterlimit="2.414" stroke-width=".36" d="M115.232,170.721l-0.241,2.531"/><path fill="none" stroke="#523727" stroke-linecap="round" stroke-miterlimit="2.414" stroke-width=".36" d="M327.731,190.377l0.482,3.135"/><path fill="none" stroke="#523727" stroke-linecap="round" stroke-miterlimit="2.414" stroke-width=".36" d="M326.522,196.288l0.848,4.341"/><path fill="none" stroke="#523727" stroke-linecap="round" stroke-miterlimit="2.414" stroke-width=".36" d="M328.574,196.529l1.085,2.772"/><path fill="none" stroke="#523727" stroke-linecap="round" stroke-miterlimit="2.414" stroke-width=".36" d="M332.435,180.369l0.24,3.617"/><path fill="none" stroke="#523727" stroke-linecap="round" stroke-miterlimit="2.414" stroke-width=".36" d="M328.815,183.143l1.085,3.617"/><path fill="none" stroke="#523727" stroke-linecap="round" stroke-miterlimit="2.414" stroke-width=".36" d="M330.505,179.282l0.24,2.774"/><path fill="none" stroke="#523727" stroke-linecap="round" stroke-miterlimit="2.414" stroke-width=".36" d="M287.209,177.354l-0.603,3.376"/><path fill="none" stroke="#523727" stroke-linecap="round" stroke-miterlimit="2.414" stroke-width=".36" d="M287.45,182.899l-0.604,2.293"/><path fill="none" stroke="#523727" stroke-linecap="round" stroke-miterlimit="2.414" stroke-width=".36" d="M285.52,184.588l-0.238,2.535"/><path fill="none" stroke="#523727" stroke-linecap="round" stroke-miterlimit="2.414" stroke-width=".36" d="M288.055,186.76l-0.604,2.291"/><path fill="none" stroke="#523727" stroke-linecap="round" stroke-miterlimit="2.414" stroke-width=".36" d="M319.65,206.177l0.604,2.291"/><path fill="none" stroke="#523727" stroke-linecap="round" stroke-miterlimit="2.414" stroke-width=".36" d="M319.65,202.316l1.086,2.292"/><path fill="none" stroke="#523727" stroke-linecap="round" stroke-miterlimit="2.414" stroke-width=".36" d="M319.892,189.292l0.604,1.689"/><path fill="none" stroke="#523727" stroke-linecap="round" stroke-miterlimit="2.414" stroke-width=".36" d="M278.043,108.61l3.256,0.361"/><path fill="none" stroke="#523727" stroke-linecap="round" stroke-miterlimit="2.414" stroke-width=".36" d="M280.214,110.539l3.376,0.362"/><path fill="none" stroke="#523727" stroke-linecap="round" stroke-miterlimit="2.414" stroke-width=".36" d="M290.465,110.539l3.377,0.604"/><path fill="none" stroke="#523727" stroke-linecap="round" stroke-miterlimit="2.414" stroke-width=".36" d="M295.771,113.917l2.774,1.448"/><path fill="none" stroke="#523727" stroke-linecap="round" stroke-miterlimit="2.414" stroke-width=".36" d="M307.47,114.76l2.171,0.846"/><path fill="none" stroke="#523727" stroke-linecap="round" stroke-miterlimit="2.414" stroke-width=".36" d="M310.245,117.293l2.411,1.086"/><path fill="none" stroke="#523727" stroke-linecap="round" stroke-miterlimit="2.414" stroke-width=".36" d="M299.633,112.229l1.928,0.361"/><path fill="none" stroke="#523727" stroke-linecap="round" stroke-miterlimit="2.414" stroke-width=".36" d="M318.203,123.082l3.619,1.931"/><path fill="none" stroke="#523727" stroke-linecap="round" stroke-miterlimit="2.414" stroke-width=".36" d="M319.409,126.46l3.014,2.172"/><path fill="none" stroke="#523727" stroke-linecap="round" stroke-miterlimit="2.414" stroke-width=".36" d="M337.138,138.036l2.172,2.535"/><path fill="none" stroke="#523727" stroke-linecap="round" stroke-miterlimit="2.414" stroke-width=".36" d="M337.379,141.414l1.447,2.171"/><path fill="none" stroke="#523727" stroke-linecap="round" stroke-miterlimit="2.414" stroke-width=".36" d="M340.996,143.947l1.087,1.569"/><path fill="#CCC" fill-rule="evenodd" d="M16.219,96.55 c-1.085,0.361,5.187-0.239,6.754,0.724C22.973,97.274,19.476,95.464,16.219,96.55z" clip-rule="evenodd"/><path fill="#CCC" fill-rule="evenodd" d="M18.752,95.103c0,0,2.29-0.12,2.653,0.122 C21.888,95.464,19.958,94.259,18.752,95.103z" clip-rule="evenodd"/></g></g></g></switch></svg>