<?xml version="1.0" standalone="no"?>
<!DOCTYPE svg PUBLIC "-//W3C//DTD SVG 20010904//EN"
 "http://www.w3.org/TR/2001/REC-SVG-20010904/DTD/svg10.dtd">
<svg version="1.0" xmlns="http://www.w3.org/2000/svg"
 width="729.000000pt" height="396.000000pt" viewBox="0 0 729.000000 396.000000"
 preserveAspectRatio="xMidYMid meet">

<g transform="translate(0.000000,396.000000) scale(0.100000,-0.100000)"
fill="#000000" stroke="none">
<path d="M3093 3868 c-5 -7 -24 -38 -41 -68 -47 -85 -198 -233 -180 -177 3 6
17 18 32 25 37 18 57 61 35 75 -15 9 -15 13 -1 37 24 41 11 60 -43 60 -30 0
-45 -4 -45 -13 0 -7 -13 -21 -30 -30 -37 -22 -49 -61 -26 -86 22 -24 20 -36
-7 -37 -15 -1 -32 12 -55 42 -40 54 -94 90 -146 100 -38 7 -39 6 -32 -19 6
-24 3 -26 -39 -33 -44 -6 -56 -16 -35 -29 14 -8 3 -25 -16 -25 -8 0 -42 -13
-76 -30 -33 -16 -69 -30 -79 -30 -64 0 62 -100 145 -116 l39 -7 -28 -15 c-28
-14 -28 -15 -9 -29 13 -10 38 -13 81 -11 56 4 61 2 52 -13 -13 -26 -12 -29 16
-29 13 0 39 13 57 28 18 15 46 34 62 40 28 13 32 11 69 -26 27 -27 42 -53 46
-79 7 -39 -4 -100 -21 -118 -6 -7 -7 -4 -2 8 3 10 -1 28 -10 43 -15 21 -23 25
-59 22 -33 -2 -44 -9 -56 -30 -14 -24 -14 -28 3 -47 21 -23 50 -30 89 -20 l28
8 -22 -39 -22 -39 -22 23 c-33 35 -61 41 -106 20 -44 -19 -59 -13 -41 16 23
37 -17 71 -67 55 -35 -11 -90 -126 -91 -190 -1 -29 -1 -29 -16 -10 -11 15 -13
33 -9 67 4 27 2 55 -5 67 -14 28 -60 29 -67 1 -3 -11 -9 -18 -13 -15 -5 3 -6
14 -3 25 9 35 -16 21 -37 -20 -11 -22 -25 -40 -30 -40 -17 0 -23 49 -10 81 15
35 37 49 80 49 22 0 33 6 41 24 8 16 17 22 31 19 19 -6 47 20 48 43 0 19 -58
37 -101 31 -31 -4 -38 -2 -30 6 19 19 12 29 -16 25 -22 -2 -28 1 -28 17 0 28
42 46 89 39 30 -5 37 -3 34 7 -3 9 -23 15 -52 17 -56 4 -93 -16 -102 -53 -5
-21 1 -33 30 -61 34 -33 39 -35 66 -24 29 12 70 6 70 -11 0 -5 -10 -8 -22 -6
-15 1 -26 -5 -33 -20 -7 -16 -18 -23 -37 -23 -43 0 -86 -44 -94 -96 -5 -34 -3
-49 9 -62 14 -15 12 -22 -20 -75 -31 -49 -37 -68 -41 -132 -3 -55 0 -85 13
-117 22 -57 75 -135 119 -177 28 -27 33 -37 24 -48 -9 -12 -24 -2 -80 54 -79
77 -126 151 -158 246 -38 112 -26 153 113 405 46 83 48 109 4 50 -43 -58 -145
-252 -157 -298 -31 -117 38 -279 176 -415 59 -58 70 -73 61 -87 -10 -15 -27 0
-129 105 -104 109 -121 131 -153 205 -31 72 -36 95 -36 157 0 108 19 165 80
245 41 53 107 169 126 222 29 78 11 76 -27 -3 -38 -76 -77 -134 -78 -111 0 8
-19 12 -60 12 -109 0 -223 -79 -283 -197 -14 -26 -42 -64 -62 -83 -30 -29 -37
-32 -45 -20 -5 8 -10 22 -10 31 0 9 -10 27 -22 41 -13 14 -33 37 -46 52 -21
25 -27 27 -70 20 -82 -12 -92 -35 -37 -85 43 -39 47 -76 9 -85 -15 -4 -23 -12
-20 -19 6 -16 -24 -45 -46 -45 -21 0 -73 55 -89 92 -9 23 -10 38 -2 59 9 24 8
29 -8 34 -33 11 -44 73 -25 139 20 67 15 92 -20 100 -54 14 -100 -41 -89 -106
5 -29 2 -49 -10 -72 -18 -32 -17 -34 9 -91 15 -34 24 -66 20 -77 -9 -28 13
-72 45 -91 23 -13 27 -21 23 -47 -4 -27 -1 -32 27 -43 36 -13 42 -44 10 -55
-11 -5 -43 -4 -70 2 -42 8 -52 7 -66 -7 -14 -14 -15 -20 -4 -41 8 -13 22 -27
32 -29 23 -6 25 -30 4 -47 -22 -18 -19 -34 13 -65 15 -15 32 -41 38 -58 11
-34 47 -59 70 -50 18 7 18 25 -1 70 -19 45 -19 97 0 113 21 18 37 3 22 -20
-17 -28 2 -54 40 -58 28 -3 32 0 40 35 8 35 12 38 46 41 31 3 37 0 37 -16 0
-22 30 -52 51 -52 20 0 39 20 39 41 0 11 9 19 22 21 48 7 34 75 -21 106 -37
21 -39 25 -29 47 16 35 65 35 78 0 5 -13 21 -42 35 -65 20 -32 31 -40 55 -40
39 0 41 27 2 32 -18 2 -27 9 -27 20 0 10 -11 25 -23 34 -15 10 -21 22 -17 32
8 21 -12 32 -62 32 -32 0 -46 -5 -57 -22 -27 -38 -20 -64 22 -85 25 -12 38
-26 40 -42 3 -21 0 -23 -22 -19 -27 5 -44 -6 -26 -17 14 -8 13 -42 -2 -51 -14
-9 -38 23 -38 50 0 39 -13 47 -51 35 -46 -16 -67 -35 -74 -70 -4 -16 -12 -29
-19 -29 -22 0 -25 12 -10 35 13 20 13 24 -1 39 -21 20 -44 20 -74 0 -20 -15
-23 -22 -17 -61 3 -24 13 -57 22 -74 8 -17 13 -33 10 -36 -11 -11 -36 7 -36
26 0 11 -13 36 -30 54 -34 39 -37 52 -15 61 27 10 18 54 -15 71 -39 20 -41 50
-2 41 79 -18 92 -18 117 -2 36 23 31 66 -8 84 -23 11 -28 19 -24 38 3 19 -4
31 -34 55 -39 31 -48 56 -28 76 9 9 4 24 -20 59 -33 50 -39 82 -19 102 8 8 11
37 10 77 -2 55 0 65 17 74 39 21 54 14 47 -21 -19 -98 -19 -137 3 -173 11 -20
21 -51 21 -69 0 -19 11 -50 26 -72 60 -90 107 -97 172 -27 38 40 43 51 38 77
-3 17 -20 43 -38 58 -25 22 -28 28 -15 33 8 4 25 2 36 -4 16 -9 22 -8 29 5 8
14 10 14 22 -2 8 -9 14 -26 15 -38 0 -14 7 -22 23 -24 23 -3 31 -35 12 -47
-16 -10 -12 -32 8 -37 49 -12 119 45 167 136 52 100 146 169 247 181 68 9 77
-4 38 -58 -18 -25 -38 -43 -45 -41 -36 14 -142 -59 -204 -140 -56 -74 -102
-116 -127 -116 -13 0 -26 -4 -29 -10 -4 -6 8 -10 30 -10 29 0 44 9 83 48 27
26 62 66 80 89 30 38 114 101 154 116 15 5 13 -3 -9 -51 -51 -113 -56 -122
-73 -122 -34 0 -88 -30 -120 -67 -35 -39 -95 -73 -117 -66 -19 7 -16 -17 3
-24 8 -3 27 0 42 7 15 8 32 13 37 12 6 -1 25 16 43 38 34 40 99 87 108 77 3
-3 -11 -27 -30 -55 -20 -27 -36 -53 -36 -58 0 -5 -16 -20 -35 -32 -26 -18 -41
-22 -64 -17 -35 7 -42 -8 -12 -25 28 -14 57 -12 71 5 28 33 19 4 -13 -46 -39
-61 -84 -105 -139 -138 -46 -27 -102 -90 -147 -165 -40 -67 -57 -114 -70 -194
-11 -72 -54 -145 -113 -193 -81 -66 -119 -78 -110 -33 6 32 -13 46 -45 31 -24
-11 -39 -5 -29 11 3 5 33 17 68 26 99 28 108 33 108 59 0 17 -12 33 -38 51
-43 29 -66 32 -102 11 -14 -8 -35 -14 -47 -15 -12 0 -27 -9 -33 -20 -13 -25
-36 -26 -45 -3 -4 13 2 25 22 41 15 12 34 27 41 33 19 16 10 62 -15 74 -16 8
-19 15 -12 28 12 20 4 37 -18 37 -33 0 -75 -36 -97 -85 -38 -82 -40 -106 -13
-146 37 -55 41 -92 12 -119 -34 -32 -78 -8 -46 26 5 5 11 29 13 54 3 42 1 45
-23 48 -18 2 -29 -4 -39 -22 -10 -20 -20 -25 -42 -22 -37 4 -41 9 -34 43 5 18
22 38 51 58 58 39 73 95 26 95 -14 0 -17 6 -14 25 4 19 0 25 -20 30 -60 15
-135 -66 -148 -159 -4 -28 -11 -72 -15 -97 -8 -56 9 -116 37 -124 34 -11 25
-27 -23 -39 -26 -6 -28 -4 -28 24 0 25 -4 30 -25 30 -15 0 -29 -8 -36 -22 -16
-30 -14 -29 -33 -22 -25 10 -19 33 19 76 63 69 71 118 20 118 -14 0 -25 4 -25
10 0 5 -10 15 -22 21 -19 10 -25 8 -45 -15 -13 -15 -23 -40 -23 -57 0 -16 -9
-46 -20 -66 -11 -21 -20 -50 -20 -64 0 -14 9 -38 20 -52 11 -14 20 -29 20 -34
0 -5 15 -25 33 -45 26 -29 42 -37 86 -43 37 -5 62 -16 85 -35 l31 -29 -27 -28
c-38 -39 -37 -76 3 -104 40 -28 121 -29 201 -2 l56 19 22 -37 c16 -29 94 -105
139 -136 3 -2 -3 -9 -12 -16 -9 -6 -21 -25 -27 -42 -11 -29 -12 -29 -26 -11
-8 11 -14 27 -14 37 0 9 -6 22 -14 28 -11 10 -16 8 -24 -5 -9 -16 -11 -15 -22
6 -7 12 -10 35 -7 50 3 15 1 32 -6 39 -17 17 -57 13 -63 -6 -3 -10 -13 -32
-21 -49 -15 -28 -14 -35 6 -88 31 -82 26 -115 -13 -100 -11 4 -16 19 -16 44 0
45 -22 69 -45 50 -15 -13 -14 -14 -30 35 -6 22 -42 18 -55 -5 -6 -11 -8 -24
-6 -29 3 -5 -1 -22 -9 -37 -20 -39 -19 -57 5 -79 15 -14 19 -26 15 -45 -12
-53 54 -78 128 -49 23 10 31 9 46 -5 26 -24 73 -17 86 12 6 13 19 22 32 22 59
0 53 -11 -101 -164 -179 -178 -205 -219 -213 -343 -7 -102 12 -168 71 -250 49
-67 89 -99 269 -217 66 -43 136 -94 158 -113 26 -24 39 -30 39 -20 0 20 -62
73 -156 134 -178 116 -240 165 -286 225 -63 83 -84 164 -68 263 17 104 50 152
221 314 83 80 163 162 177 183 23 36 26 38 36 21 6 -11 24 -36 40 -57 l29 -37
-125 -127 c-121 -123 -198 -215 -235 -284 -13 -24 -18 -54 -17 -113 1 -67 5
-89 28 -134 32 -62 99 -131 181 -185 65 -44 172 -131 197 -161 18 -22 32 -17
22 8 -7 19 -132 123 -194 162 -25 16 -75 58 -111 94 -50 50 -70 79 -83 119
-22 66 -22 151 0 194 26 51 94 140 161 212 47 50 63 62 63 47 0 -11 16 -33 35
-48 46 -37 44 -48 -4 -23 -62 31 -92 5 -55 -48 15 -21 15 -25 -2 -43 -10 -11
-19 -30 -21 -42 -2 -12 -17 -50 -33 -85 -35 -76 -40 -137 -16 -210 19 -56 73
-112 177 -183 31 -21 82 -61 113 -90 31 -28 60 -49 63 -45 9 9 -23 41 -107
108 -171 135 -193 155 -212 193 -33 64 -29 142 14 248 19 49 43 96 51 105 15
15 19 14 46 -6 17 -12 37 -22 45 -22 22 0 31 -21 15 -34 -33 -27 -99 -163 -99
-205 1 -76 60 -162 159 -232 31 -22 74 -53 96 -70 25 -19 41 -26 44 -18 2 6
-3 15 -10 19 -8 4 -32 22 -54 39 -22 18 -64 50 -92 72 -30 22 -66 62 -83 92
-27 45 -30 59 -26 104 2 28 13 71 24 95 15 34 25 44 46 46 14 1 44 11 66 22
45 23 63 25 92 9 19 -10 17 -15 -42 -74 -59 -60 -62 -65 -62 -111 0 -58 23
-118 60 -157 41 -43 120 -98 127 -87 3 5 -14 22 -37 38 -84 58 -128 128 -128
202 0 31 95 160 117 160 22 0 14 18 -16 39 -36 26 -66 26 -114 1 -20 -11 -47
-20 -59 -20 -22 1 -22 1 5 21 15 11 27 27 27 34 0 7 -33 29 -73 49 -40 20 -78
45 -85 56 -15 24 -6 25 43 4 38 -16 65 -13 65 6 0 6 -18 28 -40 50 -49 48 -52
65 -8 56 21 -4 50 -26 87 -66 31 -33 64 -60 73 -60 24 0 30 28 13 61 -18 34
-15 35 28 13 18 -9 39 -20 47 -24 8 -4 28 -31 43 -61 36 -69 41 -73 34 -26 -7
43 -55 112 -151 215 -62 67 -133 158 -154 199 -7 12 -16 51 -21 88 -8 56 -7
77 10 130 10 34 26 68 34 75 8 7 15 18 15 24 1 19 70 91 165 171 49 42 100 92
114 111 l24 34 28 -26 28 -27 -22 -26 c-53 -61 -86 -97 -157 -169 -49 -51 -87
-101 -110 -147 -32 -63 -35 -77 -35 -155 1 -79 4 -90 38 -156 21 -39 79 -117
131 -176 52 -59 97 -116 101 -127 7 -22 25 -29 25 -10 0 21 -24 56 -95 134
-131 147 -175 231 -175 338 0 94 44 177 160 302 51 55 106 117 123 138 l31 38
93 -93 c63 -63 93 -100 93 -115 0 -33 -25 -28 -40 7 -14 34 -64 80 -86 80 -25
0 -27 -28 -5 -56 36 -46 20 -61 -26 -24 -32 25 -83 27 -83 3 0 -9 7 -25 17
-35 15 -17 15 -18 -14 -18 -31 0 -113 -55 -113 -75 0 -22 50 -60 64 -50 58 43
73 49 108 49 47 -2 57 -10 33 -28 -22 -16 -14 -43 17 -55 18 -7 27 -5 40 10
23 27 52 24 82 -11 35 -42 25 -92 -30 -150 -56 -59 -66 -87 -49 -150 13 -51
38 -90 50 -78 3 3 -1 18 -9 33 -8 16 -18 46 -21 67 -6 32 -2 46 19 79 15 21
28 39 31 39 2 0 2 -21 -1 -47 -3 -29 1 -67 9 -95 l15 -48 -63 -68 c-35 -37
-83 -81 -107 -97 -103 -69 -142 -120 -177 -234 -27 -86 -25 -158 7 -231 20
-47 145 -180 168 -180 7 0 -16 28 -50 62 -79 79 -91 99 -110 172 -13 47 -13
68 -4 105 6 25 15 50 19 55 5 6 9 25 9 43 0 53 56 119 160 190 53 36 128 116
141 152 l10 24 16 -24 c9 -13 27 -36 40 -50 l24 -27 -50 -42 c-28 -23 -85 -66
-128 -94 -99 -66 -120 -104 -129 -233 -11 -149 23 -216 164 -325 34 -26 64
-44 67 -38 3 5 -6 17 -20 27 -101 71 -149 122 -170 183 -17 47 -20 160 -5 160
6 0 6 9 0 24 -10 27 0 75 24 111 8 12 53 47 99 78 46 31 101 75 121 97 l36 40
48 -43 c111 -101 181 -157 196 -157 25 0 19 13 -22 41 -128 91 -272 239 -295
304 -46 133 7 315 133 458 71 80 70 111 -1 41 -55 -54 -45 -58 -120 36 -20 25
-90 99 -156 165 -173 174 -212 244 -220 406 -6 112 10 171 76 267 39 58 122
142 141 142 16 0 88 69 119 116 32 46 71 129 71 148 0 7 15 30 33 52 19 21 37
46 40 54 4 8 5 -17 3 -57 -3 -59 0 -75 13 -85 10 -7 27 -36 40 -64 l23 -51
-27 -44 c-15 -24 -56 -75 -90 -114 -34 -39 -80 -98 -102 -131 -22 -32 -53 -79
-70 -104 -43 -66 -66 -133 -78 -240 -9 -73 31 -147 159 -294 39 -45 83 -98 97
-117 15 -19 30 -31 34 -27 8 8 -28 57 -115 158 -123 141 -156 210 -146 300 8
73 36 155 67 203 83 123 157 223 186 250 19 18 49 58 67 89 l32 58 30 -33 c65
-71 65 -69 43 -96 -18 -22 -22 -23 -66 -11 -44 11 -49 10 -65 -10 -10 -12 -18
-31 -18 -41 0 -15 -7 -19 -35 -19 -28 0 -37 -5 -50 -30 -27 -53 -11 -257 21
-267 16 -5 37 51 29 78 -5 14 -4 19 4 15 6 -4 11 -37 11 -76 0 -72 28 -167 55
-190 11 -9 12 -17 5 -30 -20 -38 -11 -85 25 -134 20 -25 42 -46 50 -46 21 0
19 5 -16 45 -43 49 -61 143 -24 129 18 -7 38 32 32 62 -2 13 0 24 4 24 11 0
52 80 45 88 -7 6 -6 8 -38 -41 l-26 -38 -17 46 c-19 48 -15 66 9 46 8 -7 20
-10 26 -6 22 14 9 54 -35 103 -47 52 -57 90 -30 112 12 10 21 10 45 0 24 -10
33 -10 45 0 12 10 15 9 15 -8 0 -11 -6 -25 -14 -31 -23 -19 -26 -63 -7 -106
22 -48 55 -80 76 -72 11 5 15 0 15 -18 0 -16 -6 -25 -15 -25 -8 0 -15 -6 -15
-14 0 -8 -11 -28 -25 -44 -28 -33 -37 -72 -18 -79 7 -3 16 4 19 14 3 10 16 37
27 60 l21 42 16 -62 c9 -34 22 -72 29 -84 14 -27 10 -28 -30 -8 -31 17 -49 13
-49 -10 0 -25 57 -80 175 -170 63 -48 115 -89 115 -91 0 -2 -15 3 -32 10 -67
27 -78 -6 -18 -57 37 -31 55 -77 31 -77 -20 0 -160 148 -167 176 -9 38 -22 54
-44 54 -31 0 -42 -24 -31 -69 5 -22 6 -41 2 -41 -4 0 -50 18 -101 40 -97 41
-130 44 -130 9 0 -16 31 -35 142 -90 79 -38 129 -67 112 -63 -22 4 -34 1 -44
-11 -13 -15 -12 -20 9 -36 13 -11 30 -19 37 -19 30 0 172 -80 220 -124 36 -33
43 -43 27 -39 -30 7 -31 -24 -2 -61 l20 -26 -20 0 c-39 0 -25 -16 74 -85 19
-13 19 -15 -24 -59 -47 -48 -65 -54 -37 -12 25 39 18 55 -9 21 -14 -16 -25
-41 -25 -55 0 -14 -7 -34 -15 -44 -14 -19 -15 -19 -35 -1 -27 25 -26 75 5 135
32 63 20 64 -22 2 -41 -59 -43 -99 -7 -142 l27 -31 -21 -21 -20 -21 -30 24
c-45 37 -92 110 -92 144 1 47 20 78 103 171 43 47 76 89 72 92 -9 10 -165
-149 -186 -190 -36 -69 -11 -137 81 -225 l40 -38 -65 -74 c-36 -41 -65 -78
-65 -83 0 -5 -24 -33 -53 -62 -57 -58 -94 -125 -83 -151 5 -15 10 -14 38 6 27
20 31 20 25 5 -12 -31 -20 -96 -12 -96 5 0 23 11 41 25 18 14 35 25 38 25 3 0
6 -17 6 -39 0 -41 23 -72 41 -54 5 5 21 36 33 68 23 56 24 57 37 34 7 -13 15
-37 18 -52 10 -47 25 -35 51 41 29 84 56 111 113 112 20 0 37 -4 37 -8 0 -5
-18 -25 -40 -45 -34 -30 -40 -42 -40 -74 0 -49 26 -89 46 -72 8 6 14 19 14 28
1 9 7 -2 15 -23 15 -42 31 -58 55 -53 21 3 24 52 6 79 -24 33 -20 59 3 30 22
-26 39 -28 48 -6 5 13 8 13 23 -3 9 -10 29 -43 43 -72 35 -68 41 -77 115 -156
84 -91 82 -55 -2 39 -67 76 -101 135 -111 199 -5 34 -25 54 -25 25 0 -7 -7 -2
-16 10 -21 30 -44 28 -44 -3 l0 -25 -21 21 c-11 11 -26 18 -32 16 -20 -6 -20
-49 -1 -84 9 -18 14 -36 10 -40 -10 -11 -30 15 -41 55 -12 40 -27 46 -35 12
-8 -32 -25 -19 -24 17 1 24 13 46 43 78 22 24 41 49 41 55 0 6 -11 15 -25 22
-24 11 -22 12 48 61 96 66 116 86 133 126 8 19 17 32 19 29 10 -10 -16 -62
-50 -100 -32 -35 -35 -43 -34 -101 1 -71 10 -109 26 -114 6 -2 12 19 15 57 4
57 7 63 51 104 28 26 47 51 47 64 0 18 6 22 34 22 l35 0 -20 -45 c-17 -39 -19
-53 -10 -101 6 -30 13 -59 16 -65 13 -19 23 3 18 36 -5 29 0 43 28 81 19 25
42 54 51 64 9 10 21 28 27 39 9 16 16 19 35 11 27 -10 66 11 66 36 0 11 6 13
21 9 20 -7 22 -5 16 27 -3 19 -2 41 3 48 5 7 4 23 0 36 -7 16 -5 24 6 28 8 3
14 18 14 34 0 30 26 92 39 92 4 0 32 -32 62 -71 30 -39 71 -92 91 -117 20 -26
37 -51 37 -57 0 -16 -63 -86 -80 -88 -22 -4 -109 -56 -109 -67 0 -4 -22 -32
-49 -62 -67 -74 -81 -105 -81 -183 0 -67 20 -114 73 -172 33 -36 40 -15 9 25
-64 81 -80 159 -46 225 32 63 140 171 199 202 50 25 83 58 99 100 7 19 34 -20
41 -59 l6 -39 -31 7 c-35 7 -70 -7 -70 -28 0 -8 -16 -17 -36 -20 -56 -11 -78
-39 -70 -92 5 -42 3 -47 -35 -85 -37 -37 -40 -45 -34 -73 4 -17 9 -58 10 -91
2 -72 10 -98 43 -147 43 -65 132 -74 132 -13 0 13 7 26 16 29 10 4 14 16 13
33 -5 40 6 51 56 59 25 3 45 10 45 15 0 14 -62 10 -94 -6 -42 -22 -94 -6 -117
37 -9 17 -8 18 10 7 40 -26 69 34 35 72 -18 20 -12 49 9 49 8 0 20 -7 27 -15
18 -22 51 -19 57 5 4 15 11 18 28 14 30 -7 49 22 33 50 -8 15 -8 17 3 11 34
-20 49 -40 49 -67 l0 -30 -50 7 c-43 6 -50 5 -50 -10 0 -11 5 -15 15 -11 8 3
29 3 45 -1 24 -4 30 -11 30 -30 0 -22 -3 -24 -27 -19 -68 15 -104 10 -131 -19
l-27 -28 25 8 c14 5 56 10 94 12 68 5 68 5 97 -30 29 -35 73 -58 97 -50 15 6
16 45 1 60 -8 8 -8 13 0 17 18 11 13 51 -10 79 l-20 27 38 -3 c52 -3 57 25 11
64 l-33 30 35 -7 c58 -11 65 -10 68 12 5 33 -50 74 -99 74 -36 0 -38 1 -27 19
14 23 -2 48 -40 62 -33 13 -28 61 8 69 20 5 28 1 42 -22 12 -19 26 -28 44 -28
23 0 26 3 22 28 -3 23 0 28 17 28 14 -1 20 5 19 22 -1 23 4 26 30 16 10 -4 16
-18 16 -39 0 -36 54 -106 126 -159 120 -91 148 -117 247 -235 20 -24 31 -31
39 -23 7 7 -29 49 -121 141 -72 72 -136 131 -142 131 -18 0 -102 85 -115 117
-15 34 -18 61 -7 50 9 -10 33 13 33 33 0 21 -28 47 -55 52 -29 5 -21 22 12 26
15 2 31 9 35 15 11 17 -1 50 -23 65 -15 10 -19 26 -19 66 0 48 5 61 45 114 24
34 53 66 65 72 26 14 26 57 0 90 -23 30 -26 48 -5 30 23 -19 48 -4 42 26 l-5
26 27 -27 26 -26 -27 -22 c-16 -13 -28 -28 -28 -35 0 -21 14 -13 40 23 15 20
33 33 44 32 10 -1 23 6 29 15 16 24 -16 64 -81 103 -65 38 -68 42 -32 37 28
-4 30 -2 30 27 0 24 3 29 16 24 16 -6 44 19 44 39 0 4 -19 21 -42 38 -28 21
-53 30 -78 30 -30 0 -37 4 -36 18 0 10 12 19 26 22 19 4 25 12 25 30 0 21 4
25 30 25 27 0 30 3 33 36 2 23 -2 40 -12 49 -21 17 -20 28 2 26 23 -1 29 46 8
64 -23 18 -20 50 4 50 25 0 40 28 33 63 -7 34 16 36 65 7 l33 -20 -52 -60
c-29 -33 -49 -63 -45 -67 4 -4 32 18 62 49 50 52 57 56 79 46 23 -10 23 -11 4
-31 -10 -11 -19 -26 -19 -31 0 -6 -4 -5 -9 3 -7 11 -10 9 -15 -7 -4 -12 -19
-31 -34 -44 -68 -58 -85 -138 -39 -188 12 -14 43 -52 69 -84 40 -51 45 -62 36
-82 -10 -22 -12 -21 -44 24 -19 26 -42 59 -52 73 -31 47 -89 109 -95 103 -7
-7 13 -54 23 -54 11 0 120 -149 120 -165 0 -8 5 -15 11 -15 8 0 8 -5 -1 -15
-17 -21 -23 -19 -66 20 -55 50 -79 45 -26 -6 41 -41 51 -59 32 -59 -5 0 -10
-4 -10 -10 0 -5 7 -10 15 -10 17 0 119 96 128 120 5 12 8 11 18 -5 7 -11 47
-53 89 -92 68 -65 82 -84 119 -168 l42 -95 -40 -84 c-32 -69 -53 -97 -111
-153 -72 -67 -100 -111 -100 -155 0 -38 19 -93 38 -114 15 -15 17 -24 9 -41
-7 -16 -5 -33 7 -63 16 -40 16 -42 -9 -78 -29 -43 -34 -116 -10 -161 33 -64
106 -100 134 -67 10 12 5 23 -26 57 -29 32 -33 40 -17 35 11 -3 28 0 40 8 19
15 19 16 -3 55 -26 46 -17 59 25 37 27 -14 31 -14 47 4 15 16 16 22 5 35 -16
19 -7 30 16 21 13 -5 15 -13 8 -39 -4 -17 -8 -52 -8 -76 0 -36 5 -48 32 -72
45 -40 57 -36 16 5 -38 38 -43 70 -18 118 9 16 13 40 10 53 -6 25 -57 51 -81
41 -17 -6 -20 -42 -5 -51 21 -13 -1 -23 -29 -12 -15 5 -35 7 -45 4 -20 -8 -20
-45 -1 -71 23 -30 18 -37 -20 -30 -28 5 -35 3 -35 -10 0 -9 16 -33 35 -55 19
-21 35 -41 35 -45 0 -16 -34 -3 -66 27 -29 26 -37 42 -41 80 -6 53 9 101 40
122 l21 15 -23 40 c-42 74 -4 101 86 61 23 -11 51 -17 62 -14 23 6 27 18 11
28 -5 3 -10 13 -10 21 0 10 14 14 54 14 53 0 84 16 68 36 -4 5 26 -24 65 -64
40 -41 73 -78 73 -83 0 -5 -17 2 -37 15 -44 28 -83 41 -83 28 0 -36 26 -70 76
-102 60 -38 144 -113 144 -130 0 -19 -29 -10 -41 13 -14 25 -27 37 -88 78 -25
16 -53 29 -62 29 -28 0 -33 -36 -10 -74 22 -35 27 -66 11 -66 -5 0 -14 9 -20
20 -12 22 -40 27 -40 8 1 -7 7 -24 15 -38 9 -18 10 -29 3 -38 -6 -7 -8 -16 -4
-20 4 -4 17 4 28 18 11 14 21 24 22 22 0 -2 9 0 19 3 22 9 22 37 -3 85 -11 22
-20 42 -20 45 0 28 104 -46 133 -94 29 -49 99 -34 82 18 -8 25 -119 126 -161
146 -32 15 -63 45 -48 45 5 0 26 -11 46 -25 43 -29 54 -31 66 -9 8 14 18 6 58
-46 27 -34 82 -101 122 -148 40 -48 82 -106 93 -129 22 -45 33 -53 42 -29 7
17 -75 137 -128 186 -20 19 -52 58 -70 85 -37 57 -92 115 -188 198 -37 32 -67
65 -67 73 0 8 -4 14 -10 14 -12 0 -37 48 -57 109 -17 53 -26 238 -12 246 5 4
9 16 9 28 0 62 126 190 247 251 95 47 134 83 164 152 26 58 45 73 64 48 8 -10
19 -32 26 -47 11 -25 9 -31 -15 -56 -14 -15 -26 -32 -26 -38 0 -19 -146 -158
-186 -177 -85 -40 -125 -70 -165 -123 -48 -65 -58 -85 -68 -139 -9 -47 4 -106
44 -199 17 -40 95 -139 146 -185 31 -29 207 -235 253 -297 26 -36 56 -56 56
-38 0 18 -196 247 -326 382 -109 112 -163 239 -145 340 11 57 71 144 130 187
27 20 54 36 60 36 19 0 121 76 144 107 12 17 44 58 71 92 45 55 51 60 60 43
17 -28 66 -93 101 -132 18 -19 45 -52 61 -74 l28 -39 -24 8 c-14 4 -38 18 -53
31 -15 13 -44 26 -63 30 -50 9 -86 -27 -94 -93 -4 -40 -8 -48 -25 -46 -29 3
-74 -17 -85 -38 -17 -31 24 -142 66 -179 68 -59 113 -13 59 60 -33 45 -18 49
38 9 71 -50 97 -27 57 51 -40 79 -19 80 54 3 37 -39 58 -54 70 -50 23 9 21 18
-20 71 -40 50 -39 74 0 37 13 -12 30 -43 37 -68 13 -46 12 -46 -20 -74 -32
-26 -32 -27 -21 -70 12 -45 77 -119 104 -119 26 0 40 28 27 56 -15 33 -15 32
14 26 36 -6 42 21 17 74 -12 24 -18 44 -13 44 13 0 37 -31 61 -80 23 -45 149
-203 183 -229 37 -27 133 -158 167 -228 19 -39 41 -72 48 -72 18 -1 16 5 -30
96 -28 56 -66 109 -113 161 -186 200 -211 236 -280 404 -41 101 -44 155 -14
280 33 139 79 203 297 413 108 104 147 149 167 191 l26 54 42 -29 c62 -42 124
-109 158 -168 17 -29 34 -55 40 -58 22 -14 5 -24 -43 -27 l-52 -3 -16 -50
c-10 -32 -30 -65 -57 -93 -24 -23 -46 -54 -49 -67 -15 -59 24 -195 56 -195 16
0 32 41 27 68 -5 25 -4 25 9 8 7 -10 15 -24 17 -30 8 -21 42 10 45 40 7 78 14
116 22 108 5 -5 10 -22 12 -39 5 -44 39 -41 55 5 l11 35 11 -28 c6 -16 11 -41
11 -57 0 -25 -5 -31 -37 -39 -51 -14 -85 -59 -118 -152 -34 -98 -33 -203 1
-241 19 -21 20 -26 8 -53 -29 -66 -11 -119 91 -270 36 -54 63 -107 79 -158 7
-21 26 -14 26 10 0 17 -54 123 -86 168 -41 58 -94 164 -94 187 1 28 22 108 33
126 5 7 5 22 1 35 -6 19 -5 20 9 8 23 -18 30 2 25 74 -3 61 5 71 21 25 17 -50
51 -34 51 23 0 18 2 19 10 7 5 -8 10 -32 10 -53 0 -21 5 -47 10 -58 9 -15 6
-26 -13 -52 -33 -42 -77 -168 -77 -217 0 -28 8 -49 33 -78 58 -73 92 -125 103
-161 11 -37 34 -54 34 -26 0 21 -40 115 -49 115 -13 0 -91 129 -91 150 0 35
29 131 53 178 16 30 26 40 37 36 8 -4 26 -7 40 -8 19 -1 26 5 28 24 2 13 12
30 23 38 21 14 18 28 -19 85 -14 20 -22 40 -19 44 11 10 44 -25 135 -141 96
-124 157 -237 167 -311 9 -68 14 -85 27 -85 7 0 9 24 5 73 -5 57 -13 86 -43
142 -38 69 -121 187 -199 280 -23 28 -55 75 -70 105 -15 30 -36 67 -46 81 -36
51 -59 280 -39 382 14 70 78 198 147 295 101 140 190 303 219 397 22 74 46
196 40 203 -10 10 -15 -3 -41 -104 -23 -92 -104 -277 -145 -331 l-17 -22 -13
39 c-7 21 -10 49 -7 62 7 24 44 84 98 155 18 24 29 46 26 50 -9 8 -69 -61
-119 -136 -42 -61 -46 -90 -23 -164 20 -66 1 -107 -26 -54 -6 12 -22 33 -35
47 -40 44 -77 137 -71 181 6 48 72 147 162 244 62 67 74 85 57 85 -25 0 -221
-230 -242 -285 -25 -65 -4 -142 59 -225 15 -19 36 -51 48 -71 19 -34 19 -36 2
-57 -19 -24 -29 -28 -29 -11 0 13 -73 133 -100 164 -9 11 -34 50 -54 87 -68
127 -48 190 107 333 89 82 166 179 153 192 -4 5 -17 -6 -29 -22 -11 -17 -78
-86 -148 -155 -135 -132 -149 -156 -149 -245 0 -39 53 -152 101 -214 85 -111
114 -178 94 -218 -11 -22 -13 -21 -47 30 -20 28 -41 62 -47 75 -7 12 -46 62
-87 110 -41 48 -91 118 -110 157 -30 59 -34 76 -30 117 12 101 50 157 200 290
102 90 193 194 181 206 -3 4 -34 -23 -68 -58 -34 -36 -110 -109 -168 -162
-132 -121 -169 -182 -169 -282 0 -57 5 -77 35 -135 20 -38 65 -102 101 -142
36 -41 74 -90 84 -110 11 -20 30 -49 43 -65 43 -52 49 -71 37 -110 -12 -35
-30 -38 -30 -3 0 35 -75 132 -238 307 -119 128 -159 186 -177 251 -24 90 -3
173 69 271 45 61 202 244 235 274 11 11 21 24 21 30 0 6 9 22 20 36 11 14 20
28 20 33 0 19 -21 2 -63 -50 -25 -32 -74 -89 -107 -128 -176 -203 -207 -251
-229 -356 -10 -46 -9 -61 9 -119 23 -75 65 -133 188 -261 45 -48 92 -100 105
-117 12 -17 42 -57 67 -89 49 -63 80 -139 70 -169 -5 -14 -12 -6 -33 36 -64
132 -150 231 -331 382 -175 146 -220 240 -192 401 21 122 56 183 180 314 58
62 106 115 106 118 0 16 -54 -28 -138 -113 -106 -108 -152 -187 -176 -302 -36
-172 18 -287 203 -437 109 -88 215 -194 238 -238 8 -16 24 -39 34 -50 37 -41
89 -155 88 -193 -1 -21 -3 -29 -6 -18 -3 11 -34 65 -69 121 -58 94 -114 157
-171 196 -12 8 -51 42 -85 76 -35 33 -88 82 -119 109 -106 92 -159 174 -202
314 -51 167 0 355 140 511 46 50 38 72 -8 23 l-24 -26 -5 29 c-4 23 -11 29
-36 31 -40 4 -84 -13 -84 -33 0 -9 10 -26 23 -38 l22 -22 -107 -108 c-60 -60
-108 -104 -108 -98 0 5 -9 13 -21 16 -17 6 -20 12 -15 38 4 17 11 34 17 38 7
4 9 12 5 17 -4 6 16 37 45 68 52 57 92 130 82 147 -3 6 -14 -8 -25 -29 -10
-21 -36 -57 -57 -79 -20 -22 -49 -54 -62 -71 -14 -17 -30 -29 -37 -26 -17 5
-72 -18 -72 -30 0 -5 -13 -21 -30 -35 -16 -13 -30 -32 -30 -41 0 -11 -8 -7
-27 14 -26 28 -31 30 -72 22 -25 -4 -47 -5 -50 -2 -12 12 31 31 79 37 54 7
112 42 108 66 -5 25 -49 42 -101 39 -37 -2 -47 0 -47 13 0 15 139 160 160 167
15 5 103 122 96 129 -3 3 -68 -57 -145 -135 -120 -121 -142 -139 -165 -135
-37 8 -90 -46 -82 -85 5 -25 1 -29 -44 -50 -55 -26 -68 -50 -50 -97 9 -28 9
-28 -5 -11 -17 22 -45 114 -45 148 0 74 29 133 162 336 38 57 44 72 31 72 -10
-1 -83 -98 -135 -180 -46 -73 -72 -135 -83 -197 -8 -52 22 -156 65 -218 31
-45 58 -61 45 -27 -4 12 -1 11 15 -5 11 -13 32 -23 46 -23 23 0 24 -2 18 -39
-5 -33 -3 -43 17 -60 13 -12 53 -48 89 -80 l66 -58 -19 -25 -18 -24 -162 165
c-175 178 -204 222 -227 336 -19 94 -7 186 39 299 22 54 52 114 67 133 14 19
24 37 21 40 -11 10 -64 -58 -90 -115 -72 -161 -86 -240 -63 -354 30 -143 58
-186 245 -368 143 -139 157 -158 137 -185 -12 -16 -15 -14 -45 27 -17 24 -102
109 -187 189 -193 180 -221 218 -259 364 -23 91 -19 165 20 320 19 77 35 142
35 145 0 3 -10 -6 -21 -20 -17 -21 -20 -21 -14 -5 3 11 9 32 12 47 8 41 -20
47 -52 11 -19 -21 -24 -23 -18 -8 3 11 14 31 23 45 40 58 52 91 39 106 -7 8
-20 12 -31 8 -17 -5 -18 -3 -9 14 6 12 11 32 11 46 0 40 -40 35 -80 -10 -34
-39 -34 -44 -18 -219 2 -21 -2 -30 -14 -33 -14 -3 -17 7 -20 60 -3 56 -6 63
-24 66 -16 2 -24 -4 -33 -28 -20 -58 -33 -24 -29 79 l3 96 -30 0 c-29 0 -30
-2 -35 -50 -3 -27 -11 -60 -18 -72 -19 -35 -14 -69 15 -104 18 -21 24 -34 15
-37 -27 -9 -12 -51 27 -77 37 -25 38 -28 27 -56 -9 -27 -8 -33 8 -45 28 -20
59 -17 74 6 17 27 42 26 42 -2 0 -36 -74 -114 -167 -175 -136 -91 -200 -178
-238 -323 -21 -81 -17 -219 8 -270 9 -19 39 -62 67 -95 27 -33 59 -77 70 -97
11 -21 25 -38 30 -38 16 0 12 17 -15 57 -25 37 -36 52 -95 124 -50 62 -64 109
-57 208 10 161 67 276 183 368 37 29 71 53 76 53 5 0 41 32 79 71 51 52 73 68
79 59 4 -7 15 -10 23 -7 12 5 14 -8 9 -82 -4 -75 -1 -97 22 -165 14 -43 26
-80 26 -82 0 -3 -18 5 -39 16 -28 14 -50 18 -73 13 -47 -9 -58 -20 -58 -64 0
-38 0 -38 -35 -32 -31 5 -36 3 -45 -23 -7 -16 -14 -42 -17 -59 -4 -16 -19 -50
-35 -74 -39 -62 -37 -106 7 -167 18 -27 46 -66 60 -87 30 -44 54 -41 28 3 -9
16 -26 40 -38 52 -56 62 -69 119 -41 183 l13 30 12 -36 c23 -70 81 -92 81 -32
l0 28 21 -35 c12 -19 28 -43 37 -53 9 -10 21 -34 28 -54 11 -32 11 -38 -4 -49
-20 -16 -32 -17 -32 -4 0 5 -12 20 -27 34 -24 23 -26 28 -16 60 12 38 1 49
-17 17 -18 -34 -11 -66 20 -96 17 -16 30 -31 30 -34 0 -3 -27 -28 -59 -54 -66
-53 -131 -151 -112 -170 6 -6 12 -9 13 -6 2 2 16 29 32 60 23 45 45 68 110
116 45 33 92 65 106 72 44 23 141 134 170 195 l27 59 125 -117 c186 -174 193
-186 153 -285 -14 -36 -25 -78 -25 -94 0 -26 -3 -28 -24 -23 -24 6 -56 -14
-56 -35 0 -6 -14 -7 -34 -4 -19 4 -43 2 -56 -5 -23 -12 -23 -14 -4 -122 6 -35
5 -37 -28 -43 -18 -3 -46 -1 -62 5 -40 15 -61 5 -80 -38 -9 -20 -24 -49 -33
-64 -15 -24 -16 -32 -4 -80 8 -29 26 -75 40 -101 14 -27 40 -76 58 -110 l31
-62 -21 -18 c-21 -18 -21 -18 -34 17 -6 20 -29 65 -50 102 -65 112 -72 128
-72 164 0 47 18 96 69 181 40 67 178 219 199 219 16 0 102 106 122 150 20 45
25 100 9 100 -5 0 -10 -8 -10 -17 0 -43 -112 -213 -141 -213 -12 0 -109 -96
-150 -150 -58 -75 -106 -162 -118 -216 -14 -60 -4 -111 32 -165 35 -52 97
-179 97 -198 0 -10 -11 -28 -25 -41 l-25 -23 0 25 c0 37 -24 89 -93 202 l-62
101 0 80 c0 76 3 85 48 175 41 81 63 110 150 196 56 55 119 123 141 150 45 57
89 147 84 172 -2 11 -14 -5 -31 -42 -35 -76 -118 -176 -224 -273 -75 -68 -89
-87 -138 -184 -85 -171 -85 -224 1 -369 111 -187 125 -229 91 -272 l-22 -27
-1 44 c-2 54 -49 141 -133 245 -138 170 -151 267 -58 409 41 62 43 64 44 40 2
-28 4 -29 47 -36 42 -7 56 13 38 53 -9 18 -19 24 -44 24 l-32 0 44 45 c24 25
48 45 52 45 15 0 97 61 125 94 46 51 175 247 169 254 -8 7 -11 4 -90 -107 -89
-125 -113 -152 -177 -195 -111 -75 -159 -129 -229 -261 -61 -115 -41 -214 70
-351 97 -119 131 -178 156 -268 11 -40 11 -52 0 -68 -12 -16 -14 -15 -25 21
-33 110 -78 186 -167 277 -49 50 -104 115 -121 145 -38 64 -58 154 -48 224 8
63 52 145 77 145 23 0 25 42 3 60 -11 9 -14 23 -9 45 5 27 1 37 -21 58 -15 13
-44 30 -64 37 -41 13 -73 55 -130 168 -49 98 -64 170 -57 280 7 107 18 157 51
223 22 43 119 149 137 149 9 0 148 184 148 196 0 4 -15 -6 -32 -22 -30 -27
-76 -64 -129 -103 -10 -7 1 17 26 54 24 37 53 74 64 82 24 17 27 55 6 73 -8 7
-28 10 -44 8 l-28 -4 14 59 c24 104 -4 81 -32 -27 -15 -53 -35 -91 -91 -170
-114 -160 -143 -186 -213 -186 -37 0 -41 -16 -7 -22 32 -6 92 15 123 44 41 37
177 222 193 263 5 11 9 14 9 6 1 -8 8 -23 17 -33 16 -17 15 -21 -12 -60 -47
-70 -216 -235 -256 -251 -47 -20 -98 -7 -128 30 -24 31 -39 23 -20 -12 16 -29
103 -61 141 -52 13 3 51 29 84 57 66 55 177 131 183 125 2 -2 -13 -19 -34 -37
-21 -18 -47 -44 -58 -56 -12 -13 -39 -33 -61 -44 -22 -11 -49 -28 -60 -38 -59
-53 -180 -55 -221 -4 -12 14 -24 22 -28 16 -3 -5 -16 -7 -30 -5 -13 3 -36 -3
-50 -12 -14 -10 -26 -13 -26 -8 0 18 47 54 84 64 20 6 51 23 69 39 29 26 31
31 19 51 -12 19 -11 24 13 49 37 39 32 76 -10 72 -17 -1 -41 0 -53 3 -19 5
-22 8 -12 20 18 22 4 45 -27 45 -46 0 -106 -40 -115 -77 -10 -38 -21 -47 -48
-38 -24 8 -26 30 -4 39 28 11 12 50 -26 62 l-34 11 29 16 c57 29 161 141 189
202 55 120 42 145 -14 29 -60 -125 -175 -224 -259 -224 -48 0 -85 -18 -133
-63 -16 -14 -28 -24 -28 -22 0 27 38 68 137 148 79 64 127 110 143 139 13 24
45 75 71 114 27 40 45 74 42 78 -7 6 -50 -49 -116 -149 -25 -39 -73 -92 -107
-120 -33 -27 -82 -67 -108 -89 -58 -48 -93 -104 -80 -129 5 -9 6 -34 2 -54
l-7 -37 -23 27 c-23 26 -44 84 -44 120 0 52 56 121 188 232 55 46 95 90 118
129 45 76 38 98 -8 26 -21 -32 -77 -91 -134 -140 -108 -93 -124 -109 -155
-158 -51 -80 -44 -151 26 -236 33 -41 41 -57 32 -65 -16 -13 -90 44 -124 95
-31 45 -53 117 -53 174 0 59 49 139 149 245 65 68 114 130 145 183 18 30 -15
8 -46 -33 -19 -24 -71 -82 -115 -129 -96 -102 -152 -192 -160 -255 -11 -98 55
-226 147 -287 22 -15 40 -34 40 -43 0 -13 -4 -12 -18 5 -9 12 -32 29 -50 38
-32 16 -109 105 -138 158 -8 15 -21 58 -29 96 -24 116 7 199 120 322 29 31 67
88 85 124 30 63 36 93 13 64z m-173 -77 c0 -5 -11 -23 -25 -39 -35 -41 -34
-66 3 -57 25 6 24 4 -16 -33 -29 -27 -40 -44 -36 -56 3 -9 12 -16 20 -16 17 0
17 -2 -1 -47 -8 -19 -15 -44 -15 -54 0 -27 -15 -31 -41 -10 -23 18 -23 20 -6
38 23 26 22 35 -13 68 -34 32 -31 45 11 45 37 0 47 22 25 55 -23 35 -20 46 21
82 37 31 73 43 73 24z m-277 -46 c46 -27 97 -85 97 -109 0 -24 -10 -20 -73 30
-61 48 -88 53 -46 8 l24 -25 -28 10 c-44 17 -54 13 -27 -10 l25 -21 -67 6
c-73 6 -90 -6 -35 -24 28 -9 25 -9 -25 -6 -46 4 -58 1 -58 -10 0 -11 15 -14
64 -14 36 0 68 -4 71 -10 7 -11 -12 -14 -62 -11 -46 3 -41 -16 6 -24 27 -4 49
-2 69 9 16 8 39 12 52 9 l22 -6 -23 -13 c-13 -7 -32 -13 -41 -14 -10 0 -18 -4
-18 -10 0 -18 51 -11 83 12 31 21 31 21 14 1 -10 -12 -14 -24 -9 -27 5 -3 15
1 22 9 6 7 18 11 26 8 11 -4 8 -10 -13 -23 -15 -9 -34 -24 -42 -33 -7 -10 -18
-17 -24 -17 -7 0 -7 4 1 12 24 24 14 41 -20 33 -18 -3 -53 -9 -78 -11 l-45 -5
30 24 29 25 -59 12 c-54 12 -145 56 -145 71 0 15 120 63 168 67 57 5 64 13 30
36 -21 15 -20 15 21 22 35 6 42 10 38 25 -7 24 -4 24 46 -6z m1792 -94 c-10
-22 -15 -48 -11 -57 6 -15 8 -16 24 0 41 37 36 5 -10 -58 -15 -22 -28 -47 -29
-55 0 -12 -3 -10 -9 4 -5 11 -9 51 -9 89 -1 63 2 73 26 98 34 36 41 28 18 -21z
m-203 -64 c-5 -38 -4 -73 1 -86 12 -26 52 -28 66 -3 9 14 10 12 11 -15 0 -17
4 -43 10 -57 12 -33 53 -35 75 -3 13 18 17 20 25 7 7 -12 13 -11 35 10 l26 25
-20 -48 c-27 -64 -28 -90 -1 -82 14 4 19 2 15 -7 -2 -7 -9 -32 -15 -55 -8 -32
-16 -43 -30 -43 -15 0 -20 7 -20 29 0 31 -22 61 -44 61 -7 0 -25 -9 -39 -20
-38 -30 -48 -26 -41 18 6 36 4 40 -30 60 -36 22 -44 36 -26 47 18 11 11 37
-20 72 l-30 34 17 37 c9 20 18 55 19 77 3 53 4 54 14 28 5 -13 6 -51 2 -86z
m-1533 -32 c1 -5 -6 -2 -15 7 -10 9 -13 21 -8 29 5 9 9 8 15 -7 4 -10 8 -23 8
-29z m81 5 c12 -8 11 -10 -5 -10 -12 0 -26 -5 -33 -12 -9 -9 -12 -8 -12 4 0
14 12 25 30 27 3 0 12 -4 20 -9z m1350 -180 c0 -11 -7 -20 -15 -20 -8 0 -15 9
-15 20 0 11 7 20 15 20 8 0 15 -9 15 -20z m-790 -50 c0 -6 -7 -13 -15 -16 -8
-4 -15 -13 -15 -21 0 -11 6 -13 23 -8 45 14 77 17 77 7 0 -6 -13 -13 -28 -17
-48 -10 -92 -43 -92 -68 0 -12 -6 -31 -14 -42 -8 -12 -14 -47 -15 -82 0 -56 2
-64 27 -83 34 -27 80 -22 128 15 27 21 34 33 34 60 0 19 5 37 10 40 6 3 10 20
10 37 0 54 44 131 85 151 43 21 53 16 37 -17 -12 -27 -7 -36 19 -36 9 0 19 -5
21 -11 3 -8 10 -8 25 2 12 7 25 10 29 7 12 -12 -5 -38 -36 -56 -31 -18 -40
-42 -16 -42 21 0 30 -19 16 -35 -6 -8 -36 -21 -65 -30 -57 -16 -95 -54 -95
-93 0 -32 17 -35 56 -12 54 34 52 16 -5 -38 -42 -40 -51 -54 -51 -83 0 -42 15
-59 50 -59 14 0 31 5 38 12 7 7 12 8 12 2 0 -13 -66 -64 -84 -64 -30 0 -56 38
-56 81 0 61 -14 79 -59 79 -105 0 -145 -141 -52 -180 17 -7 37 -10 46 -6 10 4
15 -1 15 -14 0 -24 13 -32 56 -32 31 0 33 -2 28 -24 -6 -22 -3 -24 30 -24 41
0 45 -13 17 -49 l-18 -23 -107 76 c-59 42 -109 76 -112 76 -14 0 -68 49 -86
78 -16 27 -19 44 -15 83 5 42 3 53 -18 77 -33 40 -44 125 -20 152 16 17 17 25
7 57 -17 54 11 110 73 151 47 31 105 43 105 22z m-555 -54 c0 -14 -9 -20 -32
-22 -34 -4 -48 8 -39 32 9 23 71 15 71 -10z m95 -16 c6 -11 8 -20 6 -20 -3 0
-10 9 -16 20 -6 11 -8 20 -6 20 3 0 10 -9 16 -20z m-304 -52 c-1 -37 2 -43 21
-46 12 -2 33 4 47 13 31 21 71 13 87 -16 10 -19 4 -28 -58 -84 -38 -34 -80
-84 -95 -111 -40 -74 -71 -180 -65 -220 5 -29 3 -34 -13 -34 -13 0 -27 15 -41
42 -41 81 -9 202 73 276 84 75 111 103 105 109 -3 3 -20 -6 -37 -21 -17 -14
-35 -26 -39 -26 -4 0 -26 -18 -49 -40 -55 -53 -91 -126 -98 -197 -5 -49 -2
-65 20 -108 19 -37 22 -51 13 -57 -20 -13 -32 -9 -60 20 -66 69 -86 192 -47
294 21 55 19 74 -4 42 -24 -32 -46 -113 -46 -168 0 -58 33 -130 84 -184 26
-27 28 -34 16 -42 -8 -5 -20 -10 -25 -10 -18 0 -80 71 -121 139 -38 63 -39 67
-39 160 0 87 3 100 28 144 15 26 34 47 41 47 8 0 17 12 20 26 6 24 8 25 25 10
24 -22 27 -21 40 14 20 57 47 26 30 -35 -12 -44 -6 -65 27 -96 21 -20 27 -21
34 -9 5 8 10 29 10 46 0 24 4 31 18 30 14 -1 16 6 14 37 -2 22 1 37 7 37 6 0
11 8 11 18 0 24 19 42 45 42 19 0 22 -5 21 -42z m844 -3 c20 -11 27 -20 23
-34 -5 -21 -25 -19 -55 7 -10 8 -28 16 -40 17 -36 4 -38 4 -38 14 0 5 15 16
32 24 28 14 34 14 41 1 4 -7 21 -21 37 -29z m-515 -5 c-3 -5 -12 -10 -20 -10
-8 0 -17 5 -20 10 -4 6 5 10 20 10 15 0 24 -4 20 -10z m-36 -39 c12 -12 17
-27 14 -45 -7 -34 -23 -44 -23 -14 0 14 -7 33 -15 44 -28 37 -10 49 24 15z
m491 4 c7 -8 27 -17 45 -21 23 -4 32 -10 28 -20 -7 -18 -44 -18 -69 1 -33 25
-50 18 -24 -10 14 -15 35 -25 52 -25 35 0 37 -24 6 -57 -24 -25 -85 -32 -106
-11 -19 19 -14 56 8 68 11 6 20 15 20 20 0 6 -9 10 -20 10 -11 0 -20 3 -20 8
1 12 24 38 40 45 23 9 27 8 40 -8z m-386 -40 c4 -12 0 -14 -18 -9 -13 3 -27 1
-30 -5 -4 -6 -12 -11 -18 -11 -6 0 -3 9 7 20 21 24 51 26 59 5z m2576 -20 c0
-21 -27 -30 -45 -15 -19 16 -10 30 21 30 15 0 24 -6 24 -15z m-2780 -44 c0 -9
-7 -3 -15 13 -19 36 -19 47 0 22 8 -11 15 -27 15 -35z m235 19 c3 -5 1 -10 -4
-10 -6 0 -11 5 -11 10 0 6 2 10 4 10 3 0 8 -4 11 -10z m-155 -50 c13 -24 13
-57 0 -65 -6 -4 -7 5 -4 23 5 23 1 33 -20 49 -14 12 -26 24 -26 27 0 12 40
-14 50 -34z m74 20 c28 -10 47 -73 28 -92 -8 -8 -9 -5 -5 11 8 30 -22 71 -52
71 -14 0 -25 5 -25 10 0 13 21 13 54 0z m2613 -22 c-57 -76 -107 -207 -107
-282 0 -35 -11 -55 -68 -132 -37 -50 -107 -137 -156 -192 -160 -183 -199 -266
-210 -452 -11 -178 28 -309 131 -438 138 -174 150 -194 145 -230 -3 -21 -5
-20 -33 15 -16 21 -56 70 -89 108 -101 118 -137 168 -180 259 -31 65 -41 95
-36 117 8 41 -9 79 -52 116 l-37 33 37 -15 c34 -14 38 -14 46 3 14 25 5 40
-41 69 l-41 26 43 13 c24 7 48 18 52 25 9 15 -16 69 -32 69 -27 0 31 172 86
261 26 40 85 98 211 208 85 75 121 128 144 216 12 42 29 65 104 142 93 94 126
118 83 61z m-2501 -17 c-7 -10 -56 -16 -56 -7 0 2 -3 11 -6 19 -4 11 2 17 18
19 26 5 54 -15 44 -31z m1906 2 c-4 -36 3 -40 32 -18 22 17 101 20 111 6 9
-16 -37 -41 -76 -41 -67 0 -132 -79 -78 -93 12 -3 32 -2 45 3 15 6 26 6 30 -1
3 -6 4 -11 3 -13 -2 -1 -16 -10 -31 -19 -35 -22 -36 -40 -3 -55 14 -6 25 -18
25 -26 0 -21 40 -46 73 -46 40 0 62 14 76 48 11 25 9 34 -8 63 -12 19 -21 38
-21 42 0 4 16 17 35 28 19 12 35 28 35 36 0 20 34 12 38 -10 2 -9 -6 -29 -17
-43 -26 -33 -19 -45 19 -37 35 6 39 -6 10 -32 -20 -18 -27 -45 -11 -45 17 0
71 22 71 29 0 4 7 16 15 27 9 10 4 -4 -10 -33 -22 -46 -29 -53 -62 -58 -60
-10 -86 -20 -96 -37 -15 -22 -1 -48 25 -48 22 -1 22 -1 -6 -26 -26 -23 -29
-24 -41 -7 -10 14 -30 17 -101 18 -116 2 -159 28 -130 78 15 24 -3 49 -44 63
-40 13 -69 51 -77 98 -5 33 -3 36 33 52 68 29 69 30 69 66 0 42 21 70 49 66
17 -2 20 -9 18 -35z m-2224 -6 c8 -16 11 -35 8 -42 -8 -22 -36 -6 -36 20 0 13
-7 25 -15 29 -23 9 -18 28 7 24 13 -2 29 -15 36 -31z m52 18 c0 -8 -4 -15 -10
-15 -5 0 -7 7 -4 15 4 8 8 15 10 15 2 0 4 -7 4 -15z m902 -70 c47 -19 105 -19
141 0 40 21 23 0 -30 -37 -36 -24 -56 -31 -87 -29 -43 2 -75 16 -92 39 -15 20
-29 -2 -16 -24 11 -20 75 -44 118 -44 31 0 99 38 147 83 47 44 31 3 -24 -63
-28 -34 -66 -68 -85 -76 -54 -23 -124 -16 -124 11 0 26 -25 35 -55 19 -35 -18
-55 -12 -55 16 0 20 1 20 25 4 30 -20 33 -8 4 22 l-21 22 46 34 c26 19 45 41
46 52 0 18 1 18 13 3 6 -9 29 -23 49 -32z m-867 0 c25 -24 33 -69 16 -79 -5
-3 -8 6 -8 21 0 17 -12 37 -32 55 -21 19 -26 28 -16 28 9 0 27 -11 40 -25z
m325 -19 c-13 -14 -29 2 -23 24 5 19 6 19 19 3 7 -10 9 -22 4 -27z m-436 -5
c25 -28 10 -45 -15 -20 -16 16 -30 20 -56 17 -31 -4 -33 -3 -17 9 26 19 68 16
88 -6z m221 5 c18 -8 39 -24 45 -36 18 -34 5 -34 -29 1 -23 23 -38 30 -56 26
-24 -4 -32 3 -18 16 9 10 20 9 58 -7z m157 -3 c18 -16 26 -73 9 -73 -4 0 -6
11 -4 24 4 17 -3 29 -22 45 -15 11 -22 21 -15 21 8 0 22 -7 32 -17z m92 -96
c7 -45 1 -77 -15 -77 -5 0 -6 19 -3 43 5 32 2 46 -10 56 -24 20 -21 45 3 32
12 -7 21 -26 25 -54z m-560 37 c22 -22 19 -84 -5 -84 -4 0 -6 7 -3 15 3 8 -1
29 -10 46 -9 18 -16 34 -16 36 0 9 20 1 34 -13z m800 10 c11 -4 16 -19 16 -43
0 -44 17 -78 51 -103 24 -18 29 -19 56 -5 16 9 35 23 42 31 9 11 19 13 30 7
27 -14 133 -1 176 22 21 12 49 37 61 55 l22 32 -5 -41 c-7 -50 -55 -100 -122
-126 -43 -16 -98 -12 -153 12 -11 4 -18 3 -18 -4 0 -19 65 -41 120 -41 57 0
93 15 129 54 14 14 27 26 31 26 9 0 2 -83 -8 -91 -4 -3 -26 -13 -50 -22 -59
-23 -143 -22 -192 3 -22 11 -40 16 -40 10 0 -5 -9 -10 -19 -10 -15 0 -19 6
-18 27 2 24 -1 26 -43 27 -39 1 -45 4 -48 24 -3 18 -10 22 -41 22 -52 0 -76
27 -67 75 6 32 32 55 73 65 1 0 8 -3 17 -6z m-697 -36 c-3 -7 -5 -2 -5 12 0
14 2 19 5 13 2 -7 2 -19 0 -25z m1753 2 c30 -17 48 -30 38 -30 -9 0 -18 -6
-21 -12 -6 -19 14 -58 29 -58 19 0 94 -40 94 -51 0 -4 -6 -6 -14 -3 -8 3 -17
0 -21 -5 -4 -8 -15 -4 -32 9 -37 29 -50 12 -33 -40 16 -49 10 -57 -30 -40 -33
14 -41 48 -15 70 19 16 19 50 -1 78 -18 27 -46 30 -37 5 5 -15 3 -16 -8 -5
-36 34 -66 -2 -32 -40 15 -17 15 -18 -17 -12 -31 7 -32 6 -25 -17 4 -13 27
-53 51 -88 45 -65 54 -91 31 -91 -21 0 -48 34 -87 108 -48 91 -65 94 -57 11 6
-55 5 -62 -7 -46 -18 24 -29 99 -21 148 6 37 8 39 45 39 41 0 50 11 50 60 0
24 5 29 28 33 15 2 29 4 32 5 3 1 30 -12 60 -28z m-1668 3 c23 -26 33 -83 16
-83 -10 0 -13 9 -10 29 3 22 -2 33 -23 50 -17 13 -22 21 -13 21 8 0 22 -8 30
-17z m89 5 c40 -33 57 -88 28 -88 -6 0 -7 5 -4 10 4 6 -9 26 -28 45 -31 31
-36 45 -17 45 3 0 13 -6 21 -12z m2215 -38 c18 0 35 -40 25 -58 -6 -9 -11 -12
-11 -5 0 13 -68 55 -83 50 -6 -2 5 -18 24 -36 33 -31 33 -32 9 -29 -14 2 -30
13 -37 27 -6 13 -19 29 -29 34 -15 8 -13 11 15 23 17 7 31 19 31 25 0 7 10 3
23 -9 13 -12 28 -22 33 -22z m-2392 -23 c16 -25 -3 -33 -20 -9 -8 12 -22 22
-30 22 -15 0 -19 12 -7 23 8 9 43 -14 57 -36z m275 29 c9 -11 6 -12 -14 -8
-14 2 -25 8 -25 13 0 14 26 11 39 -5z m109 -10 c16 -16 21 -68 6 -73 -7 -2
-10 5 -7 21 4 18 -2 29 -21 41 -14 10 -32 15 -40 12 -10 -4 -13 -1 -9 8 6 17
49 11 71 -9z m-508 -51 c22 -26 6 -35 -19 -10 -17 18 -19 25 -8 25 8 0 20 -7
27 -15z m96 -47 c-9 -13 -30 -51 -46 -85 -25 -52 -30 -75 -30 -137 0 -48 6
-89 17 -113 30 -70 76 -158 90 -175 13 -14 12 -17 -4 -21 -10 -3 -50 -15 -89
-27 -59 -18 -78 -20 -109 -11 -52 14 -126 66 -155 108 -25 37 -50 120 -50 169
0 86 72 189 164 234 46 23 189 73 225 79 2 1 -4 -9 -13 -21z m1764 -2 c0 -8
-4 -18 -10 -21 -5 -3 -10 -22 -10 -41 0 -31 5 -36 44 -56 38 -18 47 -19 61 -8
16 13 16 33 0 75 l-8 20 16 -20 c14 -17 19 -18 36 -7 12 7 21 10 21 7 0 -22
-51 -96 -103 -152 l-63 -66 -17 27 -18 27 28 -3 c25 -3 28 1 31 28 2 23 -8 48
-42 99 -25 37 -39 62 -31 55 19 -16 35 -4 35 26 0 15 6 24 15 24 8 0 15 -6 15
-14z m-1110 -71 c16 -8 39 -29 52 -47 21 -30 23 -42 21 -148 -1 -92 -5 -125
-22 -163 -25 -58 -103 -144 -150 -163 -31 -13 -39 -12 -95 10 -34 13 -71 27
-83 31 l-23 6 24 32 c31 41 60 131 91 290 16 82 23 142 19 167 l-6 39 72 -20
c40 -11 85 -26 100 -34z m1920 40 c0 -10 -54 -26 -69 -20 -13 5 -14 7 -1 15
16 10 70 14 70 5z m215 -156 c11 -33 10 -39 -14 -71 -14 -19 -78 -86 -141
-149 -70 -69 -121 -128 -129 -149 -7 -19 -17 -42 -22 -50 -50 -82 -61 -233
-26 -360 12 -45 85 -178 117 -215 25 -28 42 -88 34 -119 -8 -34 -14 -33 -46
12 -15 20 -50 66 -79 102 -104 132 -145 261 -137 437 9 180 49 266 201 431 48
51 112 132 144 179 l57 87 14 -50 c8 -27 20 -65 27 -85z m-1619 64 c-5 -11
-15 -13 -45 -8 -43 7 -108 -14 -117 -40 -8 -21 -53 -19 -91 5 -27 16 -33 17
-33 5 0 -17 50 -45 80 -45 15 0 20 -6 20 -25 0 -40 -58 -25 -108 28 l-23 25
28 43 28 44 40 -13 c49 -17 128 -10 181 15 38 18 39 18 42 0 2 -10 1 -25 -2
-34z m-1666 22 l23 -25 -31 0 c-38 0 -40 -11 -12 -63 11 -20 20 -48 20 -62 0
-23 -2 -24 -21 -15 -19 11 -20 9 -17 -32 2 -29 -1 -43 -9 -44 -7 -1 -15 -2
-17 -3 -3 0 4 -22 15 -47 23 -52 18 -68 -12 -37 -31 31 -36 95 -10 129 24 30
27 54 9 72 -13 13 -58 16 -58 4 0 -4 -16 -6 -35 -4 -49 6 -65 -11 -65 -67 0
-41 5 -50 40 -84 46 -43 50 -56 15 -49 -23 4 -25 1 -25 -31 0 -19 11 -59 24
-87 30 -65 24 -96 -10 -56 -35 40 -58 128 -50 193 5 45 3 56 -14 73 -33 33
-50 26 -51 -22 l-1 -43 -10 40 c-10 42 -6 164 6 184 4 6 25 11 47 11 31 0 39
4 39 18 0 10 6 26 13 36 12 16 19 17 63 7 44 -9 51 -9 64 9 20 26 42 25 70 -5z
m2914 -21 c22 -9 20 -18 -11 -50 l-28 -29 -41 43 -42 42 53 0 c30 0 60 -3 69
-6z m-2875 -55 c27 -30 28 -31 12 -65 l-16 -36 -10 39 c-5 21 -16 48 -22 60
-26 44 -4 46 36 2z m1719 -143 c-2 -1 -15 -7 -30 -14 -15 -6 -30 -22 -34 -36
-5 -21 -10 -24 -39 -19 -28 4 -38 1 -58 -21 l-25 -27 -16 23 c-22 31 -22 55 0
33 9 -9 19 -13 23 -10 3 4 -4 15 -16 25 -27 22 -28 24 -8 43 12 13 20 13 45 4
25 -10 33 -9 40 3 6 8 8 21 5 28 -2 6 2 12 10 12 19 0 31 46 17 63 -6 7 -9 22
-7 32 2 11 4 25 5 30 0 6 21 -30 46 -79 25 -48 44 -89 42 -90z m-123 155 c3
-6 -3 -15 -12 -21 -17 -10 -17 -12 5 -26 29 -21 28 -34 -3 -34 -27 0 -33 -18
-13 -38 10 -10 5 -11 -20 -6 -48 10 -72 -16 -72 -75 1 -49 12 -71 48 -90 20
-10 23 -9 34 14 13 29 62 36 72 10 9 -26 23 -17 30 20 4 21 17 41 31 51 23 15
27 15 50 0 16 -10 25 -26 25 -41 0 -21 5 -25 31 -25 32 0 99 -34 99 -51 0 -5
-13 -9 -30 -9 -42 0 -37 -15 15 -52 25 -18 45 -35 45 -39 0 -13 -61 12 -67 27
-3 8 -11 14 -18 14 -6 0 -20 9 -29 19 -23 25 -58 33 -91 21 -24 -9 -26 -14
-21 -45 6 -32 5 -35 -17 -35 -32 0 -45 -42 -22 -76 18 -28 20 -43 3 -26 -16
16 -38 15 -38 -2 0 -7 11 -35 26 -61 32 -61 27 -82 -16 -60 -56 29 -87 126
-56 171 13 18 13 24 0 50 -24 45 -55 74 -81 74 -27 0 -29 -11 -6 -48 l17 -27
-23 23 c-33 33 -67 29 -80 -9 -16 -47 1 -98 60 -175 27 -37 48 -69 45 -72 -12
-12 -58 32 -81 77 -28 56 -35 63 -54 51 -14 -8 -11 -21 11 -52 10 -14 10 -20
1 -29 -17 -17 -42 7 -74 68 -18 37 -24 64 -24 115 0 73 8 87 51 92 26 3 29 7
26 33 -2 17 3 35 12 42 11 9 12 19 4 41 -17 50 -8 74 32 80 33 5 35 7 38 47 4
58 38 93 91 93 22 0 42 -4 46 -9z m1685 -105 c0 -7 13 -31 29 -53 l29 -40 -38
-30 c-58 -44 -122 -125 -109 -138 7 -7 14 -4 21 10 6 11 39 48 72 82 l61 62
58 -57 c61 -60 79 -98 30 -64 -54 37 -94 39 -107 5 -7 -16 19 -53 37 -53 22 0
57 -44 57 -72 0 -56 -72 -43 -84 15 -7 33 -42 77 -62 77 -6 0 -18 -10 -26 -22
l-14 -21 -65 31 c-99 48 -119 43 -119 -34 0 -27 -5 -36 -24 -44 -39 -15 -68
-59 -60 -94 7 -35 31 -66 50 -66 7 0 23 19 36 43 27 50 84 83 126 72 26 -6 26
-7 8 -21 -11 -8 -27 -14 -37 -14 -10 0 -19 -10 -22 -27 -7 -36 5 -48 33 -33
33 18 37 3 7 -28 -36 -37 -36 -79 -2 -88 37 -9 51 0 90 59 42 64 76 87 100 67
23 -19 18 -38 -12 -42 -20 -2 -29 -9 -31 -25 -2 -13 1 -23 7 -23 6 0 11 7 11
15 0 10 10 15 30 15 43 0 53 42 17 77 -41 42 -86 18 -150 -77 -12 -19 -33 -36
-45 -38 -29 -4 -28 4 9 45 38 44 35 67 -11 71 l-35 4 34 11 c46 16 62 43 37
63 -45 33 -129 7 -174 -55 -31 -42 -52 -40 -52 5 0 23 42 64 66 64 16 0 28 42
21 71 -9 32 21 35 72 7 63 -35 121 -41 121 -11 0 14 2 14 20 -2 11 -10 20 -28
20 -41 0 -29 33 -61 73 -70 25 -5 34 -2 49 16 10 12 18 32 18 44 0 33 -35 81
-69 96 -36 14 -41 30 -10 30 12 0 37 -17 57 -37 l35 -37 19 24 19 24 42 -42
c40 -41 47 -73 7 -37 -16 15 -26 17 -48 9 -38 -13 -42 -56 -8 -88 l26 -23 -40
-37 c-27 -24 -45 -33 -57 -29 -15 6 -16 4 -6 -8 10 -13 5 -20 -29 -42 -23 -15
-36 -27 -28 -27 17 0 -9 -30 -64 -73 l-39 -31 7 39 c7 37 6 39 -9 24 -9 -9
-19 -36 -22 -60 -5 -32 -18 -58 -48 -94 -23 -27 -46 -58 -52 -68 -8 -16 -15
-8 -44 50 -29 59 -34 78 -33 138 0 39 4 80 8 93 12 33 -11 28 -29 -8 -29 -56
-20 -129 29 -229 39 -82 42 -94 32 -125 l-10 -34 -44 67 c-24 36 -48 76 -53
89 -5 12 -17 35 -28 50 -24 34 -45 139 -43 216 1 58 28 166 41 166 4 0 12 20
19 45 10 38 32 65 130 163 65 64 126 131 137 149 18 31 35 35 35 9z m-4460
-25 c-18 -35 -13 -54 15 -49 38 8 32 -25 -10 -58 -37 -28 -43 -48 -21 -76 16
-22 49 -23 66 -3 7 8 16 12 21 9 5 -3 22 4 38 15 16 12 44 21 62 21 31 0 31
-1 15 -19 -21 -23 -6 -37 22 -22 19 10 32 6 32 -10 0 -5 -19 -13 -42 -19 -84
-21 -125 -41 -138 -65 -20 -37 -1 -54 42 -37 17 6 33 10 35 9 1 -2 -33 -35
-77 -73 -44 -38 -80 -72 -80 -76 0 -21 43 -48 78 -49 l37 -1 -43 -9 c-23 -4
-47 -11 -52 -14 -18 -11 -11 -33 18 -55 23 -19 35 -21 82 -16 53 5 54 5 28
-10 -16 -8 -28 -21 -28 -29 0 -20 46 -48 69 -42 10 2 25 1 32 -4 11 -6 10 -12
-5 -28 -36 -39 -166 -13 -166 34 0 7 -24 37 -53 67 l-54 55 -47 -7 c-54 -8
-101 -39 -101 -66 0 -15 7 -19 30 -18 17 0 34 -5 38 -13 4 -7 18 -13 29 -13
16 0 19 -3 11 -11 -14 -14 -74 -28 -144 -34 -50 -5 -58 -2 -79 20 l-24 25 33
34 c18 19 31 42 29 51 -5 29 -71 75 -114 81 -66 9 -92 24 -110 62 -9 21 -25
47 -34 59 -19 25 -16 65 6 84 8 6 14 26 14 45 0 36 18 84 32 84 4 0 8 -8 8
-17 0 -10 4 -25 10 -33 7 -12 12 -12 29 4 34 31 26 -4 -12 -54 -65 -86 -61
-77 -43 -105 21 -32 59 -33 80 -3 16 22 16 22 16 1 0 -29 19 -41 64 -40 28 1
42 7 53 24 19 29 10 73 -16 73 -33 0 -40 56 -20 164 16 87 28 113 61 141 51
43 77 28 38 -23 -29 -36 -10 -53 31 -30 29 17 29 17 18 -3 -6 -11 -26 -30 -44
-41 -26 -14 -36 -29 -41 -55 -9 -46 4 -66 47 -75 29 -6 37 -4 57 18 l22 25 0
-25 c0 -14 -5 -37 -12 -50 -9 -21 -8 -29 6 -45 28 -31 54 -32 86 -4 40 33 42
91 4 147 l-26 38 18 56 c17 54 51 102 74 102 7 0 8 -6 0 -19z m1148 -52 c-14
-42 -23 -57 -29 -48 -4 8 -4 18 1 23 6 6 10 25 10 42 0 23 5 34 18 37 9 3 18
5 19 6 1 0 -8 -26 -19 -60z m-744 -236 c6 -19 -2 -26 -69 -59 -82 -41 -82 -41
-165 -50 -41 -4 -60 -2 -75 10 -19 14 -17 15 30 16 28 0 68 9 90 19 50 24 153
124 162 159 6 23 8 20 14 -23 3 -28 9 -60 13 -72z m1376 33 c0 -2 -7 -6 -15
-10 -8 -3 -15 -1 -15 4 0 6 7 10 15 10 8 0 15 -2 15 -4z m954 -84 c-7 -20 -13
-56 -14 -79 0 -23 -4 -44 -9 -47 -13 -8 -88 94 -95 130 -4 16 -3 41 2 55 l9
24 29 -32 c16 -18 32 -33 36 -33 13 0 30 41 21 54 -4 6 1 1 13 -12 19 -22 20
-27 8 -60z m-1054 52 c13 -23 12 -27 -3 -35 -9 -6 -17 -19 -17 -30 0 -11 -5
-17 -10 -14 -7 4 -6 13 1 27 8 15 8 27 0 45 -14 31 -14 33 2 33 8 0 20 -12 27
-26z m170 18 c0 -17 -25 -32 -49 -31 -25 2 -25 2 -3 6 13 3 26 11 29 19 5 15
23 20 23 6z m110 -22 c-11 -20 -47 -33 -56 -19 -3 5 -1 9 5 9 5 0 12 9 16 19
4 13 12 17 25 14 15 -4 17 -9 10 -23z m84 -23 c10 -37 7 -64 -9 -77 -21 -17
-39 -3 -20 16 17 18 19 33 5 68 -7 20 -6 24 4 20 8 -3 17 -15 20 -27z m1813 8
c24 -21 26 -26 13 -35 -8 -5 -24 -10 -36 -10 -11 0 -29 -6 -40 -14 -18 -14
-18 -15 10 -45 16 -17 38 -33 48 -37 10 -3 18 -10 18 -15 0 -5 -13 -3 -30 6
-80 41 -93 -1 -20 -67 39 -35 48 -49 43 -67 -7 -26 -24 -23 -40 9 -22 45 -68
56 -61 15 6 -30 8 -30 -42 -4 -53 28 -70 20 -70 -30 0 -31 6 -44 30 -64 37
-32 37 -35 1 -29 -24 3 -29 0 -35 -22 -4 -16 0 -38 9 -56 17 -32 20 -60 7 -60
-22 0 -45 44 -51 98 -7 56 -31 112 -50 112 -5 0 -14 -7 -21 -15 -10 -12 -10
-21 0 -46 11 -26 11 -33 -3 -46 -14 -14 -16 -13 -27 6 -23 45 -24 114 0 179
24 65 34 71 84 53 28 -11 85 1 98 21 11 18 10 66 -2 73 -5 3 -10 21 -10 40 0
37 20 51 50 35 24 -13 47 -4 53 21 7 26 40 24 74 -6z m-2087 -35 c0 -15 -7
-33 -15 -40 -17 -14 -21 0 -4 17 9 9 9 20 0 43 -9 28 -9 31 4 20 8 -7 15 -25
15 -40z m-216 24 c3 -9 6 -26 6 -39 0 -13 5 -27 10 -30 6 -3 10 -12 10 -18 0
-7 -9 -1 -20 13 -11 14 -17 31 -15 38 3 7 0 22 -5 33 -6 11 -7 19 -1 19 5 0
12 -7 15 -16z m346 -49 c0 -31 -29 -60 -44 -45 -8 8 -7 13 3 19 15 9 18 46 7
76 -7 17 -5 17 13 -4 12 -13 21 -34 21 -46z m2813 38 c8 -7 -11 -33 -24 -33
-5 0 -9 9 -9 20 0 19 20 27 33 13z m-4279 -19 c10 -26 7 -31 -31 -55 -81 -49
-185 -89 -234 -89 -22 0 -39 -4 -39 -10 0 -36 212 20 285 76 45 34 55 34 55 0
-1 -22 -42 -76 -59 -76 -5 0 -45 -15 -89 -34 -89 -38 -148 -51 -158 -35 -4 7
-24 8 -54 4 -50 -7 -90 0 -90 15 0 5 21 10 47 12 38 2 49 7 51 22 5 26 -24 46
-64 46 -44 0 -49 13 -14 38 26 20 34 21 79 11 35 -7 61 -7 93 1 63 16 149 51
178 71 31 23 36 23 44 3z m1735 -30 c-13 -16 -57 -18 -79 -4 -12 8 -10 10 8
10 15 0 26 7 29 20 5 18 7 18 29 3 19 -12 22 -19 13 -29z m1161 21 c0 -13 -4
-14 -20 -5 -11 6 -20 13 -20 15 0 3 9 5 20 5 11 0 20 -7 20 -15z m-1558 -84
l27 -24 11 29 11 29 19 -25 c18 -23 41 -72 54 -112 8 -27 24 -21 31 12 10 47
21 44 45 -12 l22 -52 19 25 c10 13 19 27 19 32 0 4 4 7 9 7 5 0 15 -31 21 -70
6 -38 14 -70 17 -70 4 0 22 12 41 27 l35 26 -6 -41 c-6 -51 7 -62 39 -31 13
12 27 20 30 17 10 -11 -33 -191 -59 -249 -14 -31 -24 -59 -21 -62 3 -3 -9 -11
-25 -18 -17 -8 -31 -17 -31 -21 0 -15 23 -8 52 17 16 14 36 25 43 25 7 0 22 3
32 6 10 3 -9 -18 -41 -48 -65 -60 -68 -81 -9 -68 21 5 39 7 42 5 2 -2 -20 -19
-48 -36 -55 -34 -58 -38 -39 -57 9 -9 9 -12 0 -12 -7 0 -24 -11 -37 -25 -18
-17 -25 -20 -25 -9 0 8 -4 12 -10 9 -16 -10 -11 17 7 37 12 13 16 39 18 100 1
97 -19 152 -60 162 -17 4 -25 13 -25 27 0 18 -4 21 -29 16 -27 -6 -29 -4 -34
35 -3 23 -18 59 -34 81 -33 47 -152 124 -163 106 -12 -18 -12 -164 0 -193 9
-24 8 -25 -8 -16 -82 48 -153 166 -187 314 -5 26 -4 28 10 16 24 -20 28 -6 17
56 -9 56 -9 57 9 33 21 -28 25 -25 43 32 l13 44 19 -32 c26 -44 44 -42 44 4
l0 37 33 -30 c17 -16 44 -40 59 -53z m-357 58 c4 -6 1 -10 -6 -8 -35 4 -49 -2
-50 -23 -1 -18 -2 -19 -6 -5 -3 10 -2 25 1 33 6 16 52 19 61 3z m377 -15 c-3
-17 -8 -22 -15 -15 -7 7 -6 15 3 26 17 20 18 19 12 -11z m-272 2 c0 -2 -7 -6
-15 -10 -8 -3 -15 -1 -15 4 0 6 7 10 15 10 8 0 15 -2 15 -4z m461 -23 c11 -29
6 -53 -11 -53 -5 0 -10 14 -10 30 0 22 -6 33 -22 40 -22 8 -22 9 5 9 21 1 30
-5 38 -26z m157 -40 c3 -31 -29 -83 -53 -83 -23 0 -25 39 -3 51 15 8 19 19 16
44 -3 29 -2 32 17 25 13 -4 21 -18 23 -37z m122 7 c0 -11 -55 -36 -72 -33 -29
7 -21 30 12 37 20 3 30 12 30 23 1 17 2 16 15 -1 8 -11 15 -22 15 -26z m747
-44 c-1 -78 2 -90 35 -158 20 -40 29 -63 20 -50 -10 12 -41 52 -69 89 -54 68
-62 96 -42 136 10 20 49 67 55 67 1 0 2 -38 1 -84z m-1502 -63 c3 -15 -5 -2
-18 29 -12 31 -26 60 -30 64 -4 4 -7 14 -7 23 1 21 48 -79 55 -116z m-280 79
c-3 -3 -11 0 -18 7 -9 10 -8 11 6 5 10 -3 15 -9 12 -12z m1341 -32 c7 0 20 10
28 22 9 12 16 17 16 11 0 -6 7 -18 15 -27 25 -24 9 -153 -22 -182 -35 -33
-101 -46 -162 -33 -58 12 -66 20 -87 85 -8 27 -22 68 -29 90 l-13 42 37 -5
c44 -6 151 14 151 28 0 6 12 1 26 -10 15 -12 33 -21 40 -21z m-1193 3 c3 -16
4 -29 4 -30 -1 -1 -20 12 -41 28 l-40 29 36 0 c31 0 36 -4 41 -27z m647 8 c0
-27 -26 -46 -34 -25 -6 17 9 44 25 44 5 0 9 -8 9 -19z m235 -8 c-2 -10 -6 -30
-10 -45 -6 -30 -65 -71 -65 -46 0 7 9 19 20 26 11 7 20 22 20 35 0 22 16 47
31 47 4 0 6 -8 4 -17z m530 -3 c17 -19 17 -19 -8 -7 -14 6 -23 15 -21 19 7 11
9 10 29 -12z m-1490 -10 c4 -6 10 -8 14 -6 12 8 52 -24 46 -35 -4 -5 -12 -9
-18 -9 -8 0 -8 3 2 9 9 6 10 11 2 15 -6 4 -15 5 -19 2 -4 -2 -19 4 -32 15 -14
10 -20 19 -13 19 6 0 15 -5 18 -10z m-915 -14 c0 -2 -32 -31 -71 -64 -71 -61
-72 -61 -123 -55 -28 3 -53 7 -55 9 -11 10 55 47 87 49 20 1 64 16 97 33 66
34 65 34 65 28z m2390 -11 c25 -14 25 -14 -13 -15 -34 0 -38 -2 -32 -20 5 -14
0 -26 -15 -38 -19 -16 -20 -18 -4 -40 10 -15 20 -20 27 -14 21 17 71 20 102 8
32 -14 74 -55 45 -44 -41 15 -56 17 -70 8 -12 -7 -11 -13 10 -36 22 -24 22
-26 5 -19 -11 4 -32 10 -47 13 -23 3 -28 1 -28 -16 0 -14 19 -34 58 -61 84
-58 112 -81 112 -92 0 -18 -23 -8 -61 25 -26 24 -44 33 -58 29 -25 -6 -26 -11
-4 -35 15 -17 15 -18 -15 -12 -27 5 -32 3 -32 -12 0 -11 11 -36 25 -56 28 -41
31 -58 13 -58 -20 0 -34 12 -57 50 -23 38 -27 80 -10 97 17 17 -10 82 -38 89
-36 10 -49 -1 -48 -38 1 -29 -2 -34 -17 -30 -32 8 -42 -42 -17 -89 23 -45 19
-61 -9 -36 -20 19 -52 23 -52 7 0 -6 9 -27 20 -47 11 -21 20 -44 20 -51 0 -22
-60 16 -71 46 -5 15 -18 45 -28 67 -18 38 -18 40 -1 43 61 10 190 200 175 259
-10 40 12 100 43 117 35 18 42 18 72 1z m-640 -25 c22 -13 5 -23 -27 -16 -21
6 -24 9 -12 17 18 11 20 11 39 -1z m-2167 -64 c26 -27 47 -53 47 -57 0 -19 64
-58 104 -64 l44 -7 -17 -29 c-9 -16 -19 -29 -23 -29 -5 0 -35 27 -68 60 -33
33 -62 60 -65 60 -13 0 43 -75 82 -110 65 -57 49 -68 -20 -14 -50 39 -127 137
-127 161 0 12 -90 54 -101 47 -5 -3 -9 -2 -9 1 0 10 63 33 85 32 11 -1 42 -24
68 -51z m3755 34 c9 -11 29 -33 44 -48 33 -34 48 -71 39 -95 -6 -17 -8 -16
-21 7 -7 15 -35 46 -62 71 -47 43 -63 85 -33 85 8 0 23 -9 33 -20z m117 -30
c28 -11 32 -31 11 -50 -12 -9 -21 -5 -45 22 -16 18 -25 35 -20 36 5 2 9 13 10
25 0 22 0 22 9 -1 5 -12 21 -27 35 -32z m-1515 5 c0 -27 -54 -33 -85 -9 -19
15 -18 15 17 9 30 -6 39 -4 44 9 7 18 24 12 24 -9z m2680 -5 c41 0 58 -22 65
-85 4 -30 11 -55 16 -55 5 0 9 -9 9 -20 0 -18 -2 -17 -25 5 -34 35 -43 31 -47
-17 -3 -33 -5 -38 -12 -23 -35 89 -76 59 -76 -56 0 -57 -8 -61 -33 -18 -24 43
-41 32 -47 -32 -6 -66 -18 -45 -27 47 -7 72 12 113 64 144 23 14 33 27 33 44
0 42 18 79 36 72 9 -3 28 -6 44 -6z m-2253 -6 c-3 -3 -12 -4 -19 -1 -8 3 -5 6
6 6 11 1 17 -2 13 -5z m-412 -51 c-15 -64 -54 -89 -95 -63 -11 7 -4 10 27 10
37 0 43 3 49 25 3 14 4 32 0 40 -3 9 0 15 10 15 13 0 15 -6 9 -27z m1255 -55
c0 -38 6 -54 35 -88 19 -23 35 -45 35 -49 0 -4 -11 -13 -24 -19 -21 -9 -26 -8
-31 7 -3 10 -20 43 -39 73 -32 54 -32 56 -13 67 16 10 18 20 14 53 -5 35 -4
38 9 21 7 -10 14 -39 14 -65z m-2895 -5 c11 -25 20 -33 39 -33 14 0 29 8 35
18 9 15 13 13 40 -17 35 -39 37 -48 14 -76 -11 -14 -14 -15 -10 -4 9 27 -21
61 -50 57 -39 -5 -50 -30 -29 -63 15 -22 23 -26 47 -21 27 5 28 4 17 -19 -14
-31 -19 -31 -48 0 -27 29 -87 35 -96 10 -4 -8 -12 -15 -20 -15 -18 0 -18 5 1
33 19 29 7 46 -38 54 -47 7 -79 -1 -115 -32 -26 -22 -31 -23 -42 -10 -19 22
21 62 71 70 50 9 71 32 44 51 -10 8 -16 16 -13 19 3 3 19 -6 37 -20 63 -54
123 -7 69 53 l-23 27 28 -25 c16 -14 35 -40 42 -57z m796 60 c13 -16 12 -17
-3 -4 -17 13 -22 21 -14 21 2 0 10 -8 17 -17z m338 -49 c40 -33 61 -73 61
-116 0 -44 13 -62 38 -54 14 5 21 1 25 -14 4 -14 13 -20 35 -20 37 0 42 -12
49 -116 4 -53 2 -88 -7 -103 -16 -30 -24 -19 -22 28 3 46 -17 71 -57 71 -42 0
-87 -65 -53 -77 6 -3 12 2 12 10 0 7 9 22 21 33 34 31 54 9 54 -64 0 -69 -12
-70 -18 -3 -2 25 -8 46 -14 48 -5 2 -25 -28 -43 -66 -19 -39 -36 -68 -39 -66
-2 3 4 21 15 40 13 25 15 38 8 45 -8 8 -18 -2 -36 -37 -22 -44 -23 -51 -10
-76 8 -18 19 -26 28 -23 8 3 14 -1 14 -9 0 -8 -7 -15 -15 -15 -20 0 -19 -9 5
-45 29 -45 35 -105 14 -146 -20 -41 -96 -140 -102 -134 -11 10 11 55 42 89 43
45 54 95 35 150 -16 47 -52 66 -95 50 -44 -15 -50 -36 -24 -72 13 -18 27 -32
32 -32 14 0 9 27 -7 40 -20 17 -19 27 4 40 28 14 49 3 67 -35 19 -41 16 -64
-11 -79 -11 -6 -23 -15 -26 -19 -3 -5 -26 -7 -50 -5 l-43 3 -9 -42 c-6 -31
-16 -47 -36 -59 -15 -9 -35 -28 -44 -43 -13 -20 -17 -22 -17 -8 0 23 28 77 40
77 5 0 22 19 37 43 16 23 31 43 36 45 14 7 7 21 -13 27 -11 3 -20 13 -20 21 0
8 9 14 20 14 11 0 20 4 20 9 0 19 -16 19 -55 1 -46 -22 -55 -24 -55 -10 0 6 7
10 15 10 8 0 15 4 15 9 0 5 -7 14 -15 21 -8 7 -15 17 -15 22 0 5 7 2 16 -6 8
-9 19 -16 24 -16 5 0 15 -3 24 -6 12 -4 16 0 16 15 0 14 12 29 36 43 25 15 32
23 23 29 -8 5 -26 0 -45 -12 -37 -23 -44 -24 -44 -5 0 17 56 66 76 66 15 0 19
12 8 23 -8 7 -66 -21 -76 -37 -12 -17 -9 3 2 25 6 10 24 26 41 34 18 10 29 22
27 33 -2 10 5 18 17 20 37 8 75 42 75 68 0 13 -3 24 -7 24 -5 0 -9 12 -10 27
0 15 -12 37 -25 48 -26 24 -48 59 -48 77 0 7 10 2 21 -12 14 -17 22 -21 26
-12 4 10 8 10 19 1 8 -7 18 -9 22 -5 4 4 -15 26 -41 49 -44 38 -49 47 -56 98
-4 31 -5 73 -3 92 4 36 4 36 32 22 15 -8 42 -26 59 -41z m1871 11 c9 -11 16
-12 25 -5 24 20 61 -61 39 -83 -3 -3 -20 10 -36 29 -17 19 -37 33 -44 30 -10
-4 -14 3 -14 19 0 28 12 32 30 10z m-1342 -34 c-15 -5 -19 4 -11 24 6 18 7 18
13 -1 4 -10 3 -21 -2 -23z m-807 -8 c13 -16 12 -17 -3 -4 -10 7 -18 15 -18 17
0 8 8 3 21 -13z m39 -8 c14 -19 14 -19 -2 -6 -10 7 -18 18 -18 24 0 6 1 8 3 6
1 -2 9 -13 17 -24z m-166 -33 c17 -32 17 -33 -4 -20 -11 7 -20 23 -20 37 0 28
2 27 24 -17z m2306 -27 c0 -17 -36 -38 -51 -30 -7 5 -6 11 2 21 6 8 9 28 7 46
l-5 32 23 -28 c13 -15 24 -33 24 -41z m-2459 38 c13 -16 12 -17 -3 -4 -17 13
-22 21 -14 21 2 0 10 -8 17 -17z m304 -29 l50 -46 -55 43 c-30 24 -57 44 -59
46 -2 2 0 3 5 3 5 0 32 -21 59 -46z m810 16 c11 -49 -26 -74 -79 -54 -25 9
-19 22 7 17 29 -6 60 23 54 48 -3 11 -1 19 3 19 5 0 11 -14 15 -30z m-113 -10
c-4 -30 -34 -60 -59 -60 -21 0 -3 29 20 32 16 2 23 11 25 31 2 15 7 27 11 27
4 0 6 -14 3 -30z m-2372 -28 c0 -41 30 -87 51 -80 8 3 22 -8 31 -24 24 -38 56
-37 70 2 5 17 18 35 29 40 16 9 18 5 21 -47 2 -46 -2 -68 -22 -106 -17 -32
-30 -45 -40 -42 -8 3 -33 9 -57 12 -39 5 -43 4 -53 -21 -14 -37 -37 -43 -65
-16 -24 22 -25 22 -60 6 -20 -10 -48 -16 -63 -14 -23 3 -28 9 -33 43 -3 22
-11 50 -19 62 -11 17 -11 27 -2 48 7 14 12 36 12 47 0 29 17 11 22 -22 4 -29
48 -43 48 -16 0 9 5 16 10 16 7 0 9 -13 5 -32 -6 -38 0 -49 36 -65 57 -25 76
31 42 126 -16 45 -15 49 3 88 22 48 34 46 34 -5z m1724 12 c7 -19 2 -18 -19 6
-16 17 -16 20 -3 15 9 -4 19 -13 22 -21z m1069 -3 c2 -10 2 -41 0 -68 -5 -51
5 -79 48 -128 13 -15 15 -25 8 -35 -8 -12 -17 -7 -49 30 -27 30 -40 39 -40 28
0 -10 14 -33 31 -52 41 -47 28 -66 -17 -26 -63 55 -67 32 -6 -28 17 -16 21
-28 16 -40 -4 -9 -10 -45 -12 -79 -3 -55 -6 -63 -24 -63 -10 0 -28 -5 -40 -11
-24 -13 -24 -13 -31 35 l-6 39 45 -6 c31 -3 44 -1 41 7 -2 6 -22 11 -45 11
-34 0 -43 4 -52 24 -10 23 -10 24 22 18 18 -3 41 -8 51 -12 10 -4 17 -3 17 4
0 14 -42 31 -75 31 -26 0 -29 3 -39 42 -6 26 -5 26 24 15 25 -10 33 -9 40 3 6
8 8 20 6 25 -17 48 -16 52 6 51 19 -1 23 4 22 29 -1 17 -7 44 -15 62 -16 40
-6 53 22 28 17 -16 22 -17 29 -5 8 14 7 33 -7 82 -3 13 0 16 10 12 8 -3 17
-13 20 -23z m-1908 -11 c0 -22 -29 -18 -33 3 -3 14 1 18 15 15 10 -2 18 -10
18 -18z m632 -6 c-7 -7 -37 7 -37 17 0 6 9 5 21 -1 11 -7 19 -14 16 -16z m163
-9 c13 -14 21 -25 18 -25 -2 0 -15 11 -28 25 -13 14 -21 25 -18 25 2 0 15 -11
28 -25z m-204 -13 c-4 -3 -14 2 -24 12 -16 18 -16 18 6 6 13 -6 21 -14 18 -18z
m134 -13 c18 -23 36 -56 40 -74 7 -30 5 -33 -14 -32 -21 1 -70 27 -51 27 6 0
-10 18 -35 40 -25 23 -36 38 -26 34 16 -6 18 -4 13 10 -5 12 4 8 28 -13 44
-38 72 -41 29 -3 -16 16 -28 34 -26 40 5 17 5 17 42 -29z m3597 19 c-3 -8 -6
-5 -6 6 -1 11 2 17 5 13 3 -3 4 -12 1 -19z m-3410 -60 c7 19 17 14 35 -16 17
-28 17 -29 -18 -66 -19 -20 -39 -48 -44 -61 -13 -34 -34 -31 -78 10 -29 27
-33 35 -18 35 14 0 17 5 12 23 -21 80 -21 74 1 54 23 -20 27 -17 38 31 l7 34
30 -29 c21 -19 32 -24 35 -15z m656 11 c-11 -40 -80 -64 -91 -31 -2 7 5 12 18
12 30 0 60 18 60 36 0 8 4 13 9 10 5 -3 7 -15 4 -27z m-948 -10 c28 -19 28
-20 5 -13 -14 3 -27 11 -28 15 -2 5 -8 7 -12 4 -5 -3 -11 -1 -15 5 -11 17 18
11 50 -11z m835 1 c0 -19 -18 -19 -23 -1 -3 14 -1 18 9 14 8 -3 14 -9 14 -13z
m2918 -97 c21 -36 27 -53 18 -53 -8 0 -16 -14 -18 -31 -4 -22 3 -41 24 -70 25
-35 26 -39 8 -29 -29 16 -35 7 -21 -31 25 -72 0 -83 -30 -12 -13 30 -18 57
-14 75 5 22 1 34 -23 58 -41 41 -66 40 -57 -1 l7 -31 -22 22 c-33 33 -45 21
-45 -43 1 -59 -3 -65 -23 -45 -22 22 -36 -5 -22 -46 6 -20 8 -41 4 -47 -13
-22 -24 16 -24 87 0 57 6 87 30 145 32 80 54 107 90 114 13 3 36 16 50 30 l25
26 6 -33 c3 -18 20 -57 37 -85z m-2708 60 c0 -20 -39 -35 -71 -28 -38 9 -38
25 1 25 20 0 33 7 41 21 9 17 13 19 20 8 5 -8 9 -19 9 -26z m-950 -49 c8 -7
19 -13 23 -13 4 0 19 -14 34 -31 26 -31 26 -31 6 -45 -12 -8 -24 -26 -27 -40
-4 -14 -11 -23 -16 -20 -6 3 -19 8 -30 10 -11 2 -29 10 -40 18 -19 13 -19 15
-4 21 10 4 22 2 28 -4 12 -12 36 -13 36 -2 0 5 -16 14 -35 22 -19 8 -45 25
-58 38 l-22 24 25 -4 c26 -3 28 4 14 51 l-7 23 29 -18 c16 -10 36 -23 44 -30z
m795 -33 c-8 -17 -22 -31 -30 -31 -20 0 -19 26 0 34 8 3 20 18 27 33 8 21 12
24 15 11 2 -9 -3 -30 -12 -47z m-505 8 c13 -23 5 -73 -13 -87 -42 -33 -94 -12
-83 33 8 32 49 75 70 75 9 0 20 -9 26 -21z m576 -28 c-16 -30 -47 -47 -66 -36
-16 10 -3 22 30 28 22 5 31 14 36 34 4 15 9 23 11 16 2 -6 -3 -25 -11 -42z
m1683 10 c14 -10 40 -22 58 -25 23 -5 37 -17 51 -44 10 -20 28 -41 39 -46 22
-10 57 -59 67 -93 6 -18 4 -20 -14 -16 -16 4 -20 1 -20 -21 0 -15 7 -41 16
-57 18 -36 11 -48 -17 -31 -32 20 -39 5 -19 -40 10 -24 17 -44 15 -46 -10 -11
-46 13 -69 46 -31 46 -34 88 -7 97 38 12 44 30 27 88 -11 38 -27 64 -51 86
-40 35 -48 37 -65 16 -10 -12 -6 -23 19 -62 l32 -48 -38 42 c-36 39 -70 63
-92 63 -20 0 -21 -39 -1 -85 11 -26 19 -50 17 -52 -2 -2 -15 6 -29 17 -43 33
-75 42 -93 24 -16 -17 -15 -21 22 -70 28 -37 29 -44 5 -44 -38 0 -92 87 -92
149 0 34 22 45 76 39 29 -3 29 -2 34 55 4 47 10 62 30 77 26 20 50 15 99 -19z
m-1836 8 c7 -1 1 -4 -13 -8 -29 -9 -43 -4 -34 10 3 6 13 8 21 5 8 -3 20 -6 26
-7z m265 -24 c-14 -14 -30 -18 -65 -16 -37 2 -26 21 11 21 19 0 38 5 41 10 4
6 11 7 17 4 6 -4 5 -11 -4 -19z m-246 -72 c6 -7 24 -13 41 -13 22 0 28 -3 20
-11 -26 -26 -107 31 -87 63 6 10 10 8 12 -7 2 -11 9 -26 14 -32z m-591 6 c35
-24 39 -63 9 -79 -53 -28 -119 47 -78 88 17 17 36 15 69 -9z m1730 -131 c-2
-94 2 -123 20 -173 11 -33 22 -81 24 -107 l3 -46 -49 -4 c-41 -2 -50 0 -55 15
-4 11 2 27 14 40 22 24 52 80 52 97 0 20 -18 9 -30 -19 -6 -16 -25 -41 -41
-57 -34 -32 -34 -36 -9 -89 23 -50 11 -56 -30 -14 -58 62 -53 125 15 182 31
26 48 50 55 78 16 58 6 72 -15 21 -9 -23 -36 -58 -58 -77 -59 -50 -83 -130
-52 -171 21 -27 19 -32 -14 -30 -43 2 -72 44 -73 104 0 65 20 100 86 151 42
33 64 60 95 121 23 43 41 86 41 96 0 14 3 15 12 6 7 -7 11 -49 9 -124z m-958
101 c-16 -16 -75 -16 -81 -1 -3 11 0 12 18 2 17 -9 26 -8 43 3 24 16 37 13 20
-4z m107 -4 c0 -19 -34 -23 -70 -8 -13 6 3 11 63 22 4 0 7 -6 7 -14z m-306
-25 c15 15 26 12 26 -5 0 -23 -26 -29 -60 -15 -37 15 -40 33 -3 19 18 -7 30
-6 37 1z m-1932 -94 c18 -17 42 -42 53 -55 l20 -25 -25 17 c-31 21 -70 22 -70
2 0 -9 7 -27 16 -41 9 -13 14 -27 11 -30 -9 -9 -44 18 -62 48 -21 36 -71 68
-105 68 -22 0 -20 4 30 55 l53 54 23 -31 c13 -17 38 -45 56 -62z m2067 44
c-17 -46 -62 -49 -98 -6 -11 13 -8 13 20 -1 32 -16 33 -16 53 10 28 34 37 34
25 -3z m-766 -8 c-5 -21 16 -42 46 -45 26 -2 28 -17 3 -17 -32 0 -62 29 -62
61 0 17 4 28 9 25 5 -3 7 -14 4 -24z m377 19 c0 -11 -49 -21 -55 -11 -2 4 -2
10 2 14 10 9 53 7 53 -3z m-476 -16 c3 -9 22 -23 41 -31 42 -17 44 -24 7 -24
-34 0 -58 17 -67 48 -7 25 9 31 19 7z m545 -46 c-19 -11 -20 -7 -12 32 l6 34
10 -29 c7 -21 6 -30 -4 -37z m411 36 c-7 -8 -22 -15 -34 -14 l-21 0 21 9 c12
5 25 14 29 20 4 6 9 9 12 6 3 -3 0 -12 -7 -21z m-207 -19 c8 3 20 -2 27 -11
10 -12 10 -15 -5 -15 -20 0 -75 37 -75 51 0 5 9 0 20 -11 11 -11 26 -17 33
-14z m317 2 c0 -14 -21 -19 -50 -13 -43 10 -37 23 10 22 22 -1 40 -5 40 -9z
m-1104 -44 c-20 -14 -76 -20 -62 -7 10 10 70 30 76 25 3 -2 -4 -10 -14 -18z
m544 0 c0 -17 16 -19 23 -1 3 6 6 2 6 -10 1 -12 4 -28 7 -37 4 -11 1 -16 -11
-16 -11 0 -15 -5 -11 -15 21 -52 21 -51 3 -36 -23 18 -32 7 -28 -35 1 -18 -2
-34 -7 -34 -28 0 -42 14 -42 44 0 33 25 113 42 133 5 7 6 18 2 24 -4 8 -3 9 4
5 7 -4 12 -14 12 -22z m395 -14 c-12 -22 -23 -30 -43 -30 -16 0 -33 5 -40 12
-22 22 -13 27 17 10 24 -14 31 -14 45 -3 9 7 16 20 16 27 0 8 5 14 10 14 6 0
4 -13 -5 -30z m143 -2 c4 -20 -72 -30 -95 -13 -12 9 -7 10 21 7 27 -3 37 0 42
12 8 20 28 16 32 -6z m170 10 c21 -21 14 -38 -16 -38 -29 0 -52 -16 -52 -36 0
-7 18 -21 40 -31 22 -10 40 -24 40 -31 0 -10 -7 -9 -30 3 -16 8 -41 15 -56 15
-23 0 -26 -3 -22 -25 4 -21 1 -25 -18 -25 -25 0 -32 -18 -13 -37 8 -8 8 -13
-1 -18 -7 -4 -16 5 -23 24 -9 26 -17 31 -43 31 -58 0 -90 -57 -59 -104 10 -14
25 -26 35 -26 14 0 17 -8 16 -37 l-1 -38 40 3 c31 2 47 -3 70 -22 l30 -25 -52
6 c-50 5 -53 4 -53 -16 0 -12 12 -34 28 -48 25 -24 25 -25 5 -19 -29 9 -63 -1
-63 -19 0 -7 11 -27 25 -43 31 -37 34 -57 5 -42 -38 20 -43 -1 -9 -36 38 -39
34 -52 -10 -30 -43 23 -65 69 -55 115 5 20 7 47 5 61 -5 45 -70 97 -106 84
-13 -5 -13 -9 1 -35 17 -33 14 -35 -27 -13 -37 19 -46 13 -31 -21 9 -20 9 -25
-2 -25 -7 0 -19 7 -26 15 -20 24 -48 18 -64 -14 -14 -27 -14 -31 4 -54 32 -41
19 -67 -16 -32 -33 33 -51 2 -29 -51 10 -26 26 -39 60 -54 43 -18 65 -43 51
-57 -3 -3 -17 -1 -31 5 -33 15 -47 -6 -17 -26 32 -21 28 -42 -7 -42 -34 0 -54
17 -80 69 -26 50 -34 106 -20 129 9 14 8 25 -5 50 -20 39 -13 57 38 96 34 25
35 29 29 71 -7 55 7 75 53 75 27 0 37 5 46 26 10 22 16 25 42 19 63 -14 61
-16 58 58 -4 72 6 97 39 97 12 0 21 10 25 25 8 31 32 45 78 45 20 0 36 4 36
10 0 12 36 31 75 41 44 10 50 10 63 -3z m-1148 -33 c13 -14 30 -23 36 -21 7 3
15 -2 18 -11 9 -24 -54 -9 -76 18 -35 42 -16 54 22 14z m100 21 c0 -3 -4 -8
-10 -11 -5 -3 -10 -1 -10 4 0 6 5 11 10 11 6 0 10 -2 10 -4z m-222 -47 c11
-17 20 -20 49 -16 35 6 35 6 18 -13 -10 -11 -24 -20 -32 -20 -16 0 -63 44 -63
60 0 17 14 11 28 -11z m872 -1 c0 -6 -6 -5 -15 2 -8 7 -15 14 -15 16 0 2 7 1
15 -2 8 -4 15 -11 15 -16z m-920 -33 c16 5 21 3 18 -6 -7 -23 -65 -23 -77 -1
-14 26 -2 36 20 16 11 -10 25 -13 39 -9z m1030 15 c8 -1 4 -6 -9 -11 -19 -7
-28 -6 -40 7 -15 15 -14 16 9 10 14 -3 32 -6 40 -6z m-1117 -54 c-7 -32 30
-70 59 -60 15 4 19 2 16 -7 -5 -13 -63 -17 -75 -6 -8 9 -20 71 -16 85 8 22 20
13 16 -12z m260 -17 c18 -1 18 -2 4 -6 -20 -5 -47 13 -47 31 0 6 5 3 11 -6 5
-10 20 -19 32 -19z m-73 6 c0 -23 -46 -48 -75 -41 -14 4 -25 13 -25 20 0 12 6
12 31 3 28 -11 33 -10 48 10 19 27 21 27 21 8z m36 -46 c3 -6 17 -9 30 -6 13
2 21 0 18 -4 -10 -17 -74 -6 -74 12 0 13 17 11 26 -2z m118 -10 c-8 -14 -34
-10 -34 5 0 9 7 12 20 9 11 -3 17 -9 14 -14z m-364 -9 c0 -5 -11 -10 -24 -10
-14 0 -28 5 -31 10 -4 6 7 10 24 10 17 0 31 -4 31 -10z m253 -47 c27 4 28 3
12 -10 -11 -7 -25 -13 -34 -13 -19 0 -51 29 -51 47 0 8 7 6 21 -8 15 -15 30
-20 52 -16z m-238 -3 c10 -11 28 -20 39 -21 12 0 15 -3 8 -6 -22 -8 -61 6 -72
27 -14 26 2 26 25 0z m129 -7 c9 4 18 2 21 -3 7 -12 -31 -23 -55 -15 -12 4
-20 15 -20 27 0 20 1 20 20 3 10 -9 26 -15 34 -12z m-193 -19 c27 5 29 4 15
-10 -22 -21 -70 -14 -75 11 -3 17 -1 18 13 6 10 -8 27 -11 47 -7z m8 -66 c13
-10 32 -18 41 -18 10 0 20 -10 24 -22 19 -71 -12 -116 -36 -53 -19 54 -35 44
-53 -34 -14 -62 -35 -66 -35 -7 0 48 -9 57 -30 31 -14 -17 -40 -20 -40 -5 0 5
5 21 12 35 14 31 6 40 -21 26 -28 -15 -36 2 -15 34 37 56 92 61 153 13z m207
15 c-7 -7 -26 7 -26 19 0 6 6 6 15 -2 9 -7 13 -15 11 -17z m-146 -4 c0 -13
-13 -11 -35 5 -18 13 -18 14 8 9 15 -3 27 -9 27 -14z m56 -11 c28 -30 17 -30
-18 0 -16 13 -24 32 -15 32 2 0 16 -14 33 -32z m-10 -45 c-7 -7 -26 7 -26 19
0 6 6 6 15 -2 9 -7 13 -15 11 -17z"/>
<path d="M3195 3220 c-8 -26 6 -43 31 -38 13 2 19 12 19 28 0 34 -40 41 -50
10z"/>
<path d="M3520 3185 c-17 -21 -3 -55 24 -55 21 0 46 17 46 31 0 12 -31 39 -44
39 -8 0 -19 -7 -26 -15z"/>
<path d="M3238 2963 c-21 -5 -24 -39 -5 -46 20 -7 37 4 37 23 0 22 -9 28 -32
23z"/>
<path d="M3310 3067 c0 -18 21 -27 61 -27 37 0 38 16 2 22 -16 3 -36 9 -45 13
-13 5 -18 3 -18 -8z"/>
<path d="M4823 2893 c-16 -6 -17 -47 -3 -74 20 -36 70 -17 70 27 0 30 -38 57
-67 47z m38 -56 c-13 -13 -31 0 -24 19 4 11 8 12 20 3 9 -8 10 -16 4 -22z"/>
<path d="M4925 2709 c-13 -20 5 -59 30 -65 43 -11 73 34 43 64 -15 15 -64 16
-73 1z m55 -24 c0 -8 -7 -15 -15 -15 -8 0 -15 7 -15 15 0 8 7 15 15 15 8 0 15
-7 15 -15z"/>
<path d="M5035 2650 c-3 -5 -2 -10 4 -10 5 0 13 5 16 10 3 6 2 10 -4 10 -5 0
-13 -4 -16 -10z"/>
<path d="M3350 2845 c13 -16 60 -21 60 -6 0 11 -25 21 -52 21 -17 0 -18 -3 -8
-15z"/>
<path d="M3330 2810 c0 -14 35 -30 64 -30 14 0 26 5 26 10 0 6 -11 10 -24 10
-14 0 -28 5 -31 10 -8 13 -35 13 -35 0z"/>
<path d="M2140 2619 c0 -5 5 -7 10 -4 6 3 10 8 10 11 0 2 -4 4 -10 4 -5 0 -10
-5 -10 -11z"/>
<path d="M3860 2435 c0 -8 2 -15 4 -15 2 0 12 -3 21 -6 15 -6 15 -4 4 15 -16
25 -29 27 -29 6z"/>
<path d="M3836 2385 c7 -17 20 -20 28 -6 3 5 -1 12 -10 15 -22 9 -24 8 -18 -9z"/>
<path d="M3765 2370 c3 -5 13 -10 21 -10 8 0 12 5 9 10 -3 6 -13 10 -21 10 -8
0 -12 -4 -9 -10z"/>
<path d="M3823 2253 c-21 -8 -15 -41 11 -58 47 -31 80 17 34 49 -24 17 -26 17
-45 9z"/>
<path d="M5315 2150 c-10 -16 20 -44 39 -37 17 7 22 37 7 37 -5 0 -16 3 -24 6
-8 3 -18 0 -22 -6z"/>
<path d="M5477 2083 c-14 -13 -6 -43 13 -53 37 -20 55 13 24 44 -17 17 -27 20
-37 9z"/>
<path d="M5157 1893 c-23 -22 16 -89 45 -78 26 10 32 44 12 66 -17 19 -45 25
-57 12z m43 -44 c0 -6 -4 -7 -10 -4 -5 3 -10 11 -10 16 0 6 5 7 10 4 6 -3 10
-11 10 -16z"/>
<path d="M5362 1813 c-21 -39 -23 -81 -7 -119 11 -27 19 -34 26 -27 8 8 7 21
-2 46 -9 26 -9 45 -2 76 11 41 1 56 -15 24z"/>
<path d="M767 2123 c-25 -24 16 -77 55 -71 26 3 37 40 18 64 -13 14 -61 19
-73 7z m53 -23 c8 -5 11 -12 8 -16 -10 -9 -38 3 -38 16 0 12 10 13 30 0z"/>
<path d="M838 2016 c-39 -29 -40 -105 -1 -107 73 -4 105 13 117 62 5 22 1 28
-30 42 -41 20 -63 21 -86 3z m73 -26 c15 -9 17 -15 9 -30 -8 -15 -21 -20 -50
-20 -42 0 -47 8 -30 41 12 21 41 25 71 9z"/>
<path d="M708 1733 c7 -3 16 -2 19 1 4 3 -2 6 -13 5 -11 0 -14 -3 -6 -6z"/>
<path d="M3670 2072 c0 -14 59 -66 67 -59 3 4 -6 21 -22 37 -28 30 -45 38 -45
22z"/>
<path d="M4580 1895 c-20 -24 3 -67 33 -63 18 2 22 9 22 38 0 28 -4 36 -21 38
-11 2 -27 -4 -34 -13z m40 -30 c0 -8 -4 -15 -10 -15 -5 0 -10 7 -10 15 0 8 5
15 10 15 6 0 10 -7 10 -15z"/>
<path d="M2674 1935 c6 -49 27 -97 33 -78 5 13 -26 123 -34 123 -3 0 -3 -20 1
-45z"/>
<path d="M2734 1893 c15 -55 18 -63 27 -63 12 0 12 5 -5 45 -15 36 -31 48 -22
18z"/>
<path d="M2868 1852 c-5 -53 -4 -57 11 -47 13 8 15 82 2 89 -5 3 -11 -15 -13
-42z"/>
<path d="M2657 1783 c25 -55 43 -81 43 -63 0 19 -42 100 -52 100 -4 0 0 -17 9
-37z"/>
<path d="M2940 1760 c0 -22 5 -40 10 -40 6 0 10 18 10 40 0 22 -4 40 -10 40
-5 0 -10 -18 -10 -40z"/>
<path d="M3038 1794 c-5 -4 -8 -14 -8 -23 0 -9 -7 -29 -15 -45 -18 -34 -18
-36 -4 -36 14 0 41 67 37 92 -2 11 -6 16 -10 12z"/>
<path d="M3107 1662 c-17 -36 -16 -49 1 -38 14 8 32 65 23 70 -4 3 -15 -11
-24 -32z"/>
<path d="M3178 1678 c-23 -36 -33 -71 -17 -66 12 4 43 77 35 85 -2 2 -10 -7
-18 -19z"/>
<path d="M3016 1638 c-18 -36 -11 -53 10 -24 13 18 20 56 10 56 -3 0 -12 -14
-20 -32z"/>
<path d="M3186 1576 c-9 -15 -16 -32 -13 -39 2 -6 11 1 21 15 10 15 16 33 14
39 -2 6 -12 0 -22 -15z"/>
<path d="M3100 1535 c-10 -12 -10 -15 3 -15 8 0 20 7 27 15 10 12 10 15 -3 15
-8 0 -20 -7 -27 -15z"/>
<path d="M3714 1695 c-8 -20 4 -35 27 -35 14 0 19 7 19 25 0 18 -5 25 -20 25
-11 0 -23 -7 -26 -15z"/>
<path d="M2800 1666 c0 -45 76 -177 93 -160 7 7 -5 107 -15 127 -5 9 -16 17
-25 17 -14 0 -14 -3 1 -26 10 -14 15 -35 13 -47 -3 -19 -6 -17 -20 15 -9 21
-17 49 -17 63 0 16 -6 25 -15 25 -8 0 -15 -6 -15 -14z"/>
<path d="M2822 1014 c4 -24 48 -33 48 -10 0 9 -4 16 -9 16 -5 0 -17 3 -26 6
-13 5 -16 2 -13 -12z"/>
<path d="M2792 938 c2 -15 11 -24 26 -26 27 -4 28 9 4 31 -25 23 -34 21 -30
-5z"/>
<path d="M940 1432 c0 -33 32 -67 55 -59 18 8 20 58 3 75 -7 7 -22 12 -35 12
-19 0 -23 -5 -23 -28z m50 -17 c0 -8 -4 -15 -9 -15 -5 0 -11 7 -15 15 -3 9 0
15 9 15 8 0 15 -7 15 -15z"/>
<path d="M2490 1504 c8 -8 23 -20 34 -26 19 -10 18 -8 -3 16 -26 27 -53 37
-31 10z"/>
<path d="M2680 1475 c0 -3 7 -17 16 -30 17 -26 7 -34 -14 -13 -17 17 -28 2
-12 -17 16 -20 30 -19 45 2 10 14 10 21 -2 40 -14 21 -33 31 -33 18z"/>
<path d="M2650 1391 c12 -23 29 -35 37 -27 7 7 -26 46 -39 46 -5 0 -4 -9 2
-19z"/>
<path d="M6100 1434 c-9 -3 -21 -13 -28 -24 -10 -17 -9 -24 10 -45 12 -14 27
-25 34 -25 19 0 44 29 44 50 0 10 -7 26 -16 34 -16 16 -18 17 -44 10z m30 -44
c0 -21 -15 -27 -25 -10 -7 12 2 30 16 30 5 0 9 -9 9 -20z"/>
<path d="M2490 1370 c0 -13 49 -44 57 -37 3 4 -5 15 -18 26 -27 23 -39 26 -39
11z"/>
<path d="M2768 1324 c-12 -11 4 -34 24 -34 13 0 18 6 16 17 -3 18 -29 29 -40
17z"/>
<path d="M4990 1352 c0 -44 70 -69 78 -29 5 26 -16 47 -49 47 -22 0 -29 -5
-29 -18z"/>
<path d="M2643 1234 c-9 -23 19 -37 37 -18 13 13 13 16 0 24 -21 14 -30 12
-37 -6z"/>
<path d="M3000 1043 c0 -22 17 -49 25 -41 8 8 -5 58 -16 58 -5 0 -9 -8 -9 -17z"/>
<path d="M3429 764 c-17 -21 0 -49 32 -49 27 0 37 28 19 50 -16 19 -34 19 -51
-1z"/>
<path d="M3257 724 c-16 -16 -7 -44 14 -44 15 0 20 5 17 22 -3 22 -19 33 -31
22z"/>
<path d="M4308 3793 c-28 -32 -31 -60 -9 -82 27 -27 46 -26 65 1 22 32 20 64
-6 82 -28 20 -31 20 -50 -1z m42 -42 c0 -24 -18 -37 -31 -24 -13 13 -1 43 17
43 8 0 14 -9 14 -19z"/>
<path d="M3711 3610 c-7 -25 -23 -61 -35 -80 -42 -65 -160 -193 -186 -202 -8
-3 -12 -8 -8 -12 17 -19 105 55 130 110 6 13 16 20 22 18 15 -6 84 99 92 141
10 56 -1 75 -15 25z"/>
<path d="M3848 3585 c-3 -5 -11 -28 -17 -50 -6 -22 -22 -53 -36 -69 -26 -30
-31 -46 -16 -46 15 0 57 61 71 102 11 37 10 82 -2 63z"/>
<path d="M1321 3554 c-28 -35 -27 -47 10 -89 35 -39 67 -45 92 -17 28 30 21
76 -14 106 -39 33 -62 33 -88 0z m83 -29 c22 -34 12 -65 -19 -65 -30 0 -59 41
-50 70 9 29 49 26 69 -5z"/>
<path d="M3976 3513 c-2 -10 -12 -49 -21 -88 -17 -70 -54 -147 -55 -113 0 36
-81 53 -99 20 -7 -12 -3 -25 14 -46 19 -24 28 -28 51 -22 l29 7 -26 -26 c-25
-26 -28 -26 -63 -14 -48 17 -70 4 -74 -43 -3 -30 2 -39 27 -57 16 -12 33 -21
38 -21 16 0 43 35 43 56 0 10 18 37 40 58 22 22 40 46 40 53 0 8 11 31 25 51
14 20 25 43 25 52 0 8 7 33 15 55 16 46 19 95 6 95 -5 0 -12 -8 -15 -17z
m-106 -209 c0 -8 -7 -14 -15 -14 -8 0 -15 2 -15 4 0 2 -3 11 -6 19 -4 12 0 14
15 10 12 -3 21 -12 21 -19z m-67 -105 c16 -22 12 -59 -7 -59 -19 0 -36 22 -36
45 0 39 21 46 43 14z"/>
<path d="M7270 3510 c0 -5 5 -10 11 -10 5 0 7 5 4 10 -3 6 -8 10 -11 10 -2 0
-4 -4 -4 -10z"/>
<path d="M7155 3471 c-3 -5 -1 -12 5 -16 5 -3 10 1 10 9 0 18 -6 21 -15 7z"/>
<path d="M3692 3418 c-7 -7 -12 -22 -12 -35 0 -29 44 -50 66 -32 29 24 10 79
-26 79 -9 0 -21 -5 -28 -12z m48 -33 c0 -8 -7 -15 -15 -15 -8 0 -15 7 -15 15
0 8 7 15 15 15 8 0 15 -7 15 -15z"/>
<path d="M4975 3289 c-63 -68 -124 -145 -142 -180 -32 -60 -43 -122 -23 -134
6 -3 10 4 10 17 0 30 29 107 53 138 10 14 52 62 94 107 116 128 151 175 126
172 -5 0 -57 -54 -118 -120z"/>
<path d="M2590 3356 c0 -47 61 -60 75 -16 9 29 -2 40 -41 40 -29 0 -34 -3 -34
-24z m50 -6 c0 -5 -7 -10 -16 -10 -8 0 -12 5 -9 10 3 6 10 10 16 10 5 0 9 -4
9 -10z"/>
<path d="M1292 3353 c-15 -28 3 -63 32 -63 32 0 51 32 36 60 -13 25 -56 26
-68 3z m48 -29 c0 -8 -7 -14 -15 -14 -15 0 -21 21 -9 33 10 9 24 -2 24 -19z"/>
<path d="M1586 3357 c-24 -17 -14 -70 17 -92 27 -19 32 -19 51 1 24 23 20 70
-6 88 -27 19 -39 20 -62 3z m53 -30 c8 -10 7 -19 -4 -33 -13 -16 -16 -17 -25
-4 -24 36 1 69 29 37z"/>
<path d="M5402 3329 c-33 -13 -27 -59 11 -77 35 -17 57 -2 57 37 0 45 -23 59
-68 40z m38 -40 c0 -24 -23 -21 -28 4 -2 10 3 17 12 17 10 0 16 -9 16 -21z"/>
<path d="M2404 3306 c-8 -21 15 -58 33 -54 26 5 39 34 24 52 -17 20 -50 21
-57 2z"/>
<path d="M5553 3263 c-19 -7 -16 -70 3 -77 49 -19 82 11 64 58 -9 25 -35 33
-67 19z m42 -41 c0 -18 -20 -15 -23 4 -3 10 1 15 10 12 7 -3 13 -10 13 -16z"/>
<path d="M5310 3251 c0 -8 -24 -32 -142 -143 -47 -43 -60 -68 -37 -68 17 0
199 187 199 204 0 9 -4 16 -10 16 -5 0 -10 -4 -10 -9z"/>
<path d="M4335 3017 c-27 -29 -90 -86 -138 -127 -116 -98 -138 -141 -138 -269
1 -82 13 -116 74 -207 26 -40 47 -79 47 -88 0 -20 16 -21 23 -2 3 8 -3 26 -14
39 -10 14 -19 29 -19 34 0 5 -12 25 -26 44 -60 80 -77 173 -49 274 17 63 19
66 143 178 111 100 180 178 155 176 -4 0 -30 -23 -58 -52z"/>
<path d="M978 3009 c-24 -13 -23 -46 2 -86 15 -25 27 -33 49 -33 31 0 41 14
41 58 0 33 -8 45 -37 61 -26 13 -33 13 -55 0z m63 -56 c4 -22 2 -33 -6 -37
-18 -7 -43 15 -45 39 -4 33 -1 37 22 33 16 -2 24 -12 29 -35z"/>
<path d="M1890 2818 c-25 -40 -80 -109 -122 -153 -114 -120 -140 -155 -200
-275 -30 -61 -32 -72 -32 -175 -1 -101 2 -114 27 -163 15 -29 79 -108 141
-175 62 -67 131 -142 154 -167 22 -25 44 -42 48 -38 8 8 -61 89 -202 239 -50
53 -101 116 -112 141 -24 49 -42 163 -35 218 5 39 41 137 58 160 7 8 23 35 38
60 14 25 62 83 107 130 84 88 165 200 176 245 3 14 4 25 2 25 -2 0 -24 -33
-48 -72z"/>
<path d="M1359 2637 c-31 -16 -35 -41 -10 -66 30 -30 69 -28 77 4 12 50 -23
83 -67 62z m39 -29 c17 -17 15 -28 -7 -28 -22 0 -35 15 -26 30 8 13 18 13 33
-2z"/>
<path d="M779 2594 c-11 -13 -11 -20 2 -42 11 -20 24 -28 52 -30 31 -3 39 1
49 22 9 22 8 29 -7 46 -22 24 -77 27 -96 4z m65 -10 c18 -7 21 -30 6 -39 -18
-11 -50 6 -50 26 0 19 16 24 44 13z"/>
<path d="M6704 2458 c-34 -103 -101 -240 -145 -295 -19 -22 -69 -82 -111 -132
-92 -110 -128 -171 -162 -274 -40 -123 -42 -185 -11 -292 34 -117 47 -144 120
-243 33 -46 69 -99 81 -118 11 -18 29 -44 40 -56 37 -42 70 -102 84 -150 8
-30 18 -48 28 -48 32 0 -7 99 -81 202 -195 273 -201 284 -238 389 -33 94 -31
199 5 309 37 113 64 156 166 274 47 54 98 115 113 134 41 54 113 207 136 292
24 85 24 90 12 90 -5 0 -22 -37 -37 -82z"/>
<path d="M1165 2474 c-11 -12 -14 -25 -9 -48 9 -43 12 -46 43 -46 34 0 51 17
51 50 -1 53 -50 79 -85 44z m55 -39 c0 -25 -23 -35 -35 -15 -10 16 2 40 20 40
9 0 15 -9 15 -25z"/>
<path d="M551 2434 c-41 -29 -8 -94 49 -94 14 0 31 5 38 12 16 16 15 78 0 82
-45 14 -67 14 -87 0z m72 -28 c3 -8 0 -22 -7 -31 -10 -14 -16 -15 -34 -6 -22
12 -28 31 -15 44 12 12 51 7 56 -7z"/>
<path d="M7250 2430 c0 -5 5 -10 10 -10 6 0 10 5 10 10 0 6 -4 10 -10 10 -5 0
-10 -4 -10 -10z"/>
<path d="M1817 2288 c-84 -137 -88 -173 -34 -267 47 -78 115 -161 135 -161 9
0 3 13 -17 38 -18 20 -44 55 -58 77 -14 22 -34 52 -44 66 -35 52 -34 90 5 179
36 80 42 116 13 68z"/>
<path d="M4273 2283 c-31 -12 -2 -93 34 -93 12 0 38 29 46 52 12 33 -38 59
-80 41z m57 -27 c0 -16 -14 -36 -25 -36 -14 0 -27 25 -18 34 7 7 43 8 43 2z"/>
<path d="M6807 2172 c-10 -18 -31 -51 -48 -75 -16 -23 -46 -67 -66 -97 -20
-30 -60 -80 -88 -110 -104 -112 -156 -209 -177 -328 -28 -162 24 -302 187
-507 22 -28 51 -72 65 -98 26 -49 40 -59 40 -29 0 22 -31 71 -101 164 -133
176 -176 284 -166 418 11 139 45 207 182 368 53 63 152 207 184 270 7 13 11
31 9 40 -3 13 -8 9 -21 -16z"/>
<path d="M4200 2165 c-7 -8 -10 -25 -6 -40 5 -20 13 -25 36 -25 40 0 52 36 20
62 -27 22 -34 22 -50 3z m40 -36 c0 -18 -2 -19 -15 -9 -8 7 -15 16 -15 21 0 5
7 9 15 9 9 0 15 -9 15 -21z"/>
<path d="M1894 2133 c-27 -66 3 -155 85 -250 11 -13 22 -23 25 -23 14 0 3 23
-33 72 -57 75 -70 137 -45 221 10 33 -16 17 -32 -20z"/>
<path d="M2050 2028 c0 -30 19 -68 35 -68 8 0 15 5 15 10 0 6 -4 10 -10 10 -5
0 -10 6 -10 13 0 7 -7 22 -15 33 -12 17 -14 17 -15 2z"/>
<path d="M6490 2000 c0 -5 5 -10 11 -10 5 0 7 5 4 10 -3 6 -8 10 -11 10 -2 0
-4 -4 -4 -10z"/>
<path d="M5820 1918 c-40 -96 -127 -213 -213 -285 -47 -40 -157 -171 -157
-187 0 -7 -9 -21 -20 -31 -31 -28 -53 -108 -48 -179 5 -76 57 -192 126 -278
170 -215 212 -271 212 -285 0 -6 9 -22 20 -36 11 -13 31 -48 45 -76 15 -28 30
-51 36 -51 40 0 -65 178 -215 363 -151 185 -200 287 -194 402 2 57 9 79 33
118 40 63 132 177 173 213 59 52 126 125 149 162 27 44 78 148 87 180 14 44
-12 21 -34 -30z"/>
<path d="M6900 1946 c-8 -14 -35 -46 -60 -73 -85 -89 -179 -210 -204 -259 -35
-71 -49 -148 -44 -244 4 -93 19 -133 77 -215 38 -52 50 -75 75 -137 14 -37 36
-52 36 -25 0 28 -38 106 -81 167 -25 36 -53 84 -62 108 -24 60 -22 187 3 271
21 71 32 89 125 201 124 150 175 215 175 222 0 17 -26 7 -40 -16z"/>
<path d="M2089 1883 c-43 -60 -44 -63 -25 -63 14 0 85 85 86 103 0 22 -30 1
-61 -40z"/>
<path d="M5860 1899 c-27 -49 44 -113 85 -79 21 17 20 86 -1 94 -34 13 -73 6
-84 -15z m75 -34 c0 -13 -8 -21 -21 -23 -16 -2 -23 3 -26 23 -5 23 -3 26 21
23 18 -2 26 -9 26 -23z"/>
<path d="M5792 1658 c-17 -24 -58 -70 -92 -103 -79 -76 -164 -183 -174 -215
-3 -14 -11 -63 -16 -109 -8 -78 -7 -88 16 -145 29 -72 62 -123 124 -192 25
-27 65 -76 90 -107 25 -32 60 -76 78 -98 17 -23 32 -47 32 -54 0 -7 6 -18 14
-24 8 -7 18 -26 21 -42 7 -32 25 -40 25 -10 0 24 -43 111 -73 148 -13 15 -30
39 -39 53 -9 14 -49 61 -90 105 -82 88 -139 175 -164 248 -18 54 -15 180 5
200 8 8 11 7 11 -6 0 -25 45 -44 65 -27 34 29 -4 98 -47 84 -34 -10 50 87 154
181 51 46 109 138 95 151 -3 3 -19 -14 -35 -38z m-184 -341 c2 -12 -1 -15 -12
-11 -19 7 -22 38 -3 32 6 -3 13 -12 15 -21z"/>
<path d="M6889 1639 c-6 -12 -31 -47 -55 -78 -82 -106 -115 -256 -76 -344 22
-50 46 -67 65 -48 8 8 6 15 -10 26 -32 22 -46 78 -39 147 9 75 40 146 100 227
44 61 57 91 36 91 -5 0 -14 -10 -21 -21z"/>
<path d="M2031 1618 c-21 -25 -159 -234 -176 -268 -35 -67 -1 -169 92 -277 66
-78 207 -206 211 -193 2 4 -51 62 -116 127 -138 140 -167 187 -167 278 0 57 3
65 61 150 76 111 118 184 111 191 -3 3 -10 -1 -16 -8z"/>
<path d="M551 1606 c-23 -28 38 -100 69 -81 19 12 11 63 -12 79 -28 20 -42 20
-57 2z m49 -31 c7 -9 10 -18 7 -22 -8 -7 -37 15 -37 28 0 14 16 11 30 -6z"/>
<path d="M4082 1511 c-31 -63 -59 -103 -103 -146 -34 -33 -75 -73 -92 -90 -90
-89 -101 -271 -24 -420 18 -34 60 -88 97 -125 121 -120 180 -174 180 -164 0
18 -46 73 -86 104 -70 54 -115 104 -153 170 -53 90 -65 133 -64 222 1 107 24
152 132 258 68 67 94 101 123 160 41 86 53 120 41 119 -4 0 -27 -40 -51 -88z"/>
<path d="M4206 1506 c-11 -97 -54 -172 -146 -255 -97 -88 -141 -165 -147 -261
-7 -101 22 -155 145 -276 59 -57 108 -101 110 -99 8 8 -40 65 -111 131 -98 92
-121 142 -115 245 5 92 34 148 111 218 100 90 116 110 142 170 27 65 45 181
28 181 -6 0 -13 -24 -17 -54z"/>
<path d="M5400 1550 c0 -5 5 -10 10 -10 6 0 10 5 10 10 0 6 -4 10 -10 10 -5 0
-10 -4 -10 -10z"/>
<path d="M1548 1528 c-9 -7 -19 -23 -23 -35 -5 -18 -1 -25 18 -34 l24 -11 -34
-51 c-32 -47 -35 -57 -30 -105 6 -52 42 -126 103 -212 74 -103 72 -67 -2 46
-58 88 -74 127 -74 182 0 38 44 130 65 139 23 8 19 70 -4 83 -24 13 -24 13
-43 -2z m36 -34 c4 -9 4 -19 2 -21 -8 -8 -26 8 -26 23 0 19 16 18 24 -2z"/>
<path d="M2030 1430 c-68 -94 -73 -105 -77 -163 -5 -52 -1 -71 17 -106 33 -66
240 -264 258 -247 3 4 -13 23 -37 44 -72 61 -182 175 -197 204 -16 30 -21 111
-9 148 4 14 27 52 50 85 47 67 79 124 72 131 -2 3 -37 -40 -77 -96z"/>
<path d="M4988 1470 c-20 -21 -34 -41 -30 -44 6 -7 82 63 82 76 0 16 -16 6
-52 -32z"/>
<path d="M2179 1427 c-123 -135 -144 -198 -98 -290 24 -47 167 -189 182 -180
5 3 -27 42 -71 87 -94 95 -102 109 -102 173 0 38 7 61 31 99 18 27 40 55 49
61 19 13 90 106 90 117 0 16 -20 -1 -81 -67z"/>
<path d="M1408 1449 c-61 -94 -52 -156 42 -272 38 -47 85 -111 105 -141 33
-52 55 -70 55 -46 0 6 -3 10 -7 10 -5 0 -17 18 -27 40 -11 22 -42 68 -71 103
-89 108 -105 137 -105 188 0 29 9 64 25 95 14 27 25 52 25 57 0 18 -18 4 -42
-34z"/>
<path d="M5767 1419 c-99 -136 -134 -241 -115 -349 14 -79 40 -120 198 -318
39 -47 73 -103 84 -134 21 -58 32 -75 43 -65 19 20 -34 122 -117 225 -163 205
-198 278 -184 387 8 65 49 161 85 203 34 39 62 89 57 104 -2 6 -25 -17 -51
-53z"/>
<path d="M1645 1384 c-48 -95 -51 -146 -12 -226 27 -56 53 -86 63 -75 3 3 -5
22 -19 44 -54 86 -58 152 -13 241 29 59 40 92 29 92 -5 0 -26 -34 -48 -76z"/>
<path d="M4290 1426 c-5 -13 -12 -41 -16 -62 -14 -78 -59 -157 -126 -224 -92
-92 -100 -107 -103 -197 -2 -59 1 -85 15 -111 22 -41 102 -142 112 -142 16 0
7 19 -28 61 -57 69 -75 113 -75 184 0 77 13 104 82 170 89 85 141 184 154 293
6 56 0 67 -15 28z"/>
<path d="M6870 1366 c-23 -54 -26 -128 -7 -145 20 -16 26 -5 20 39 -3 21 0 61
7 90 16 67 6 75 -20 16z"/>
<path d="M4873 1357 c-206 -117 -263 -186 -263 -314 0 -37 5 -84 10 -103 10
-34 73 -117 144 -190 32 -33 103 -121 136 -170 47 -70 145 -179 153 -171 11
11 -20 59 -62 94 -16 13 -40 41 -53 63 -34 52 -87 118 -196 243 -85 97 -91
107 -101 165 -15 87 -14 104 13 161 24 54 65 94 148 149 65 42 116 85 103 85
-5 1 -20 -5 -32 -12z"/>
<path d="M7140 1360 c0 -5 5 -10 11 -10 5 0 7 5 4 10 -3 6 -8 10 -11 10 -2 0
-4 -4 -4 -10z"/>
<path d="M5807 1353 c-22 -21 19 -93 53 -93 29 0 42 64 18 88 -13 13 -60 16
-71 5z m58 -34 c4 -11 4 -23 1 -26 -8 -9 -36 17 -36 33 0 22 28 16 35 -7z"/>
<path d="M7030 1345 c0 -8 5 -15 10 -15 6 0 10 7 10 15 0 8 -4 15 -10 15 -5 0
-10 -7 -10 -15z"/>
<path d="M5903 1268 c-6 -7 -26 -41 -46 -74 -77 -134 -69 -236 27 -373 30 -42
64 -85 76 -96 31 -27 80 -105 80 -127 0 -10 7 -18 16 -18 34 0 -3 78 -82 172
-122 145 -156 223 -136 315 6 31 30 92 52 135 22 43 36 78 31 78 -5 0 -13 -6
-18 -12z"/>
<path d="M726 1181 c-15 -16 -16 -23 -5 -43 15 -29 28 -38 57 -38 31 0 49 41
34 75 -14 31 -61 34 -86 6z m64 -26 c0 -8 -5 -15 -11 -15 -5 0 -7 -4 -4 -10 9
-14 -8 -13 -23 2 -20 20 -14 38 13 38 16 0 25 -6 25 -15z"/>
<path d="M4687 1173 c-15 -15 -6 -53 17 -68 44 -29 86 17 50 56 -17 19 -54 26
-67 12z m51 -41 c2 -7 -3 -12 -12 -12 -9 0 -16 7 -16 16 0 17 22 14 28 -4z"/>
<path d="M3175 1121 c-3 -11 -22 -34 -42 -51 -24 -22 -32 -35 -25 -42 6 -6 15
-7 20 -4 13 8 72 97 72 108 0 16 -19 8 -25 -11z"/>
<path d="M4794 1088 c-80 -88 -77 -192 10 -287 63 -69 117 -138 170 -216 27
-38 52 -69 57 -67 5 1 17 -14 26 -33 9 -19 23 -35 30 -35 24 0 14 29 -25 69
-49 51 -96 110 -111 139 -7 13 -43 58 -81 101 -129 147 -140 205 -57 312 44
58 31 70 -19 17z"/>
<path d="M6209 1018 c-41 -89 -46 -167 -14 -213 11 -15 24 -35 30 -44 5 -9 20
-31 33 -49 13 -17 28 -46 34 -62 6 -17 15 -29 21 -27 20 6 18 23 -9 63 -38 56
-72 114 -90 153 -19 42 -13 89 21 172 27 62 30 79 16 79 -4 0 -23 -33 -42 -72z"/>
<path d="M5007 1073 c-14 -13 -6 -52 13 -66 l20 -14 -20 -26 c-57 -72 -61
-147 -12 -211 22 -29 88 -131 132 -206 5 -8 12 -11 17 -7 4 4 1 18 -7 30 -8
12 -27 45 -42 72 -41 72 -51 87 -75 117 -37 47 -39 97 -6 166 15 32 37 63 48
68 28 13 30 39 6 63 -20 20 -61 28 -74 14z m58 -33 c11 -17 -5 -32 -21 -19 -8
6 -14 15 -14 20 0 12 27 11 35 -1z"/>
<path d="M6351 1044 c-36 -46 -54 -108 -49 -176 3 -51 11 -74 41 -123 20 -33
37 -68 37 -78 0 -9 7 -17 15 -17 8 0 15 7 15 15 0 17 -48 112 -60 120 -4 2
-13 25 -20 50 -14 51 -7 86 37 179 26 57 26 56 14 56 -5 0 -19 -12 -30 -26z"/>
<path d="M3234 1033 c-4 -10 -8 -21 -8 -24 -1 -7 -56 -59 -146 -139 -119 -106
-176 -216 -161 -308 5 -26 18 -68 29 -95 23 -51 116 -152 132 -142 5 3 -11 26
-36 51 -52 51 -91 129 -100 197 -6 40 -2 57 26 115 27 54 57 90 156 187 78 75
126 130 130 148 7 30 -9 38 -22 10z"/>
<path d="M4891 980 c-36 -58 -40 -113 -15 -163 31 -60 89 -142 132 -187 24
-25 52 -62 63 -83 18 -35 39 -49 39 -26 0 15 -56 95 -108 154 -57 66 -114 171
-114 213 0 18 7 43 15 55 15 23 32 87 24 87 -3 0 -19 -23 -36 -50z"/>
<path d="M5097 918 c-23 -38 -37 -75 -37 -96 0 -33 70 -174 94 -190 6 -4 17
-20 24 -35 7 -15 17 -25 22 -22 15 9 12 -1 -4 -18 -33 -33 -151 -175 -172
-207 -25 -39 -41 -100 -26 -100 5 0 18 22 29 48 11 27 54 86 95 133 159 180
238 317 238 412 0 16 5 27 13 27 8 0 21 8 30 18 13 14 14 22 4 41 -17 35 -43
48 -64 35 -22 -14 -29 -58 -11 -75 11 -10 10 -26 -7 -93 -18 -74 -51 -146 -65
-146 -3 0 -21 21 -38 46 -44 62 -51 117 -22 173 28 55 4 51 -28 -5 -36 -62
-20 -128 51 -211 17 -20 18 -24 4 -43 l-15 -22 -16 30 c-9 17 -22 35 -29 39
-20 12 -77 129 -77 158 0 14 14 55 30 92 33 73 33 73 22 73 -5 0 -25 -28 -45
-62z m281 -1 c5 -24 -15 -21 -21 4 -3 13 -1 19 6 16 7 -2 13 -11 15 -20z"/>
<path d="M6406 957 c-3 -12 -9 -55 -13 -95 -5 -58 -3 -76 10 -90 8 -9 19 -30
23 -45 6 -27 29 -46 40 -34 3 3 -6 28 -20 55 -29 57 -32 83 -21 163 7 57 -7
91 -19 46z"/>
<path d="M1375 940 c-12 -37 31 -80 81 -80 24 0 16 40 -15 71 -34 34 -57 37
-66 9z m55 -25 c7 -9 10 -18 7 -21 -10 -11 -37 5 -37 21 0 19 14 19 30 0z"/>
<path d="M1906 932 c-4 -7 -40 -36 -79 -66 -104 -78 -125 -101 -132 -143 -4
-21 -10 -48 -16 -61 -27 -67 8 -179 75 -234 24 -21 62 -47 85 -59 23 -11 44
-25 47 -30 8 -13 24 -11 24 4 0 7 -20 23 -45 35 -59 29 -133 97 -151 140 -18
45 -18 125 1 162 9 17 11 30 6 30 -14 0 -2 30 23 59 12 13 51 44 89 68 66 44
92 73 84 96 -2 8 -5 8 -11 -1z"/>
<path d="M1996 855 c-3 -8 -36 -34 -73 -59 -84 -54 -116 -87 -143 -148 -32
-72 -17 -115 60 -175 33 -25 60 -50 60 -54 0 -7 54 -29 71 -29 23 0 4 22 -44
49 -29 16 -70 45 -92 64 -34 30 -39 39 -38 73 3 73 34 125 104 174 74 52 119
94 119 109 0 16 -17 13 -24 -4z"/>
<path d="M5432 858 c-5 -7 -17 -40 -27 -73 -27 -96 -104 -260 -145 -311 -45
-55 -97 -160 -86 -172 8 -8 26 9 26 24 0 8 19 42 43 76 50 71 102 159 122 208
9 19 22 49 30 65 27 57 64 195 52 195 -3 0 -9 -6 -15 -12z"/>
<path d="M5246 838 c-22 -31 -21 -101 2 -121 20 -18 42 -22 42 -8 0 5 -6 11
-14 14 -20 8 -26 56 -10 99 14 42 4 50 -20 16z"/>
<path d="M3676 832 c-6 -10 35 -32 59 -32 21 0 19 17 -2 23 -10 2 -25 8 -34
12 -10 3 -20 2 -23 -3z"/>
<path d="M3624 775 c10 -7 41 -19 69 -25 29 -6 84 -28 124 -50 72 -39 99 -40
46 -2 -47 33 -115 62 -181 77 -77 18 -82 18 -58 0z"/>
<path d="M5517 783 c-2 -5 -10 -26 -17 -48 -12 -37 -42 -104 -138 -303 -19
-40 -32 -75 -29 -78 9 -10 46 53 108 182 66 138 102 241 89 249 -5 3 -11 2
-13 -2z"/>
<path d="M7205 760 c-3 -5 -1 -10 4 -10 6 0 11 5 11 10 0 6 -2 10 -4 10 -3 0
-8 -4 -11 -10z"/>
<path d="M4273 733 c-29 -11 0 -53 36 -53 15 0 14 33 -1 48 -13 13 -16 13 -35
5z"/>
<path d="M1945 701 c-46 -43 -57 -68 -50 -112 5 -31 18 -49 63 -89 61 -53 72
-59 72 -36 0 8 -17 24 -38 36 -42 24 -72 65 -72 100 0 13 16 45 35 71 19 27
35 51 35 54 0 12 -17 3 -45 -24z"/>
<path d="M2750 689 c-24 -53 -25 -103 -5 -174 13 -42 34 -74 96 -144 71 -80
99 -104 99 -86 0 3 -35 46 -79 96 -46 53 -83 105 -90 128 -14 49 -14 139 0
180 17 49 2 49 -21 0z"/>
<path d="M3700 679 c0 -5 12 -14 28 -20 89 -33 152 -76 242 -164 20 -19 42
-35 49 -35 26 0 -94 117 -178 172 -36 24 -141 59 -141 47z"/>
<path d="M5564 658 c-5 -7 -18 -29 -28 -48 -11 -19 -29 -47 -41 -61 -13 -16
-24 -48 -28 -79 -4 -32 -13 -57 -23 -65 -14 -9 -14 -14 -4 -20 19 -12 50 31
50 70 0 18 11 48 25 69 45 66 81 146 66 146 -5 0 -13 -6 -17 -12z"/>
<path d="M2824 593 c-9 -36 9 -102 46 -160 33 -55 137 -160 146 -150 4 4 -19
33 -51 64 -70 71 -118 165 -117 229 1 49 -14 59 -24 17z"/>
<path d="M5603 580 c-13 -21 -23 -48 -23 -60 0 -12 -5 -30 -11 -42 -6 -11 -8
-22 -5 -25 10 -10 46 39 46 62 0 13 7 36 15 51 32 61 12 74 -22 14z"/>
<path d="M3680 596 c0 -2 48 -27 107 -56 58 -30 130 -73 160 -97 63 -51 70
-43 13 14 -59 58 -280 168 -280 139z"/>
<path d="M4445 580 c-8 -14 13 -40 32 -40 7 0 16 7 20 16 10 26 -38 47 -52 24z"/>
<path d="M3643 537 c2 -6 37 -24 78 -39 97 -36 112 -44 183 -101 59 -47 86
-56 50 -16 -44 49 -146 111 -229 139 -53 18 -85 25 -82 17z"/>
<path d="M4620 470 c0 -5 4 -10 8 -10 19 0 154 -145 173 -186 22 -45 36 -61
46 -50 12 11 -32 92 -76 139 -42 45 -131 117 -145 117 -3 0 -6 -4 -6 -10z"/>
<path d="M3630 465 c0 -3 33 -21 74 -39 41 -19 95 -53 120 -76 29 -27 46 -37
46 -27 0 8 -17 30 -38 49 -55 50 -202 117 -202 93z"/>
<path d="M4787 448 c26 -30 93 -135 93 -148 0 -6 7 -10 15 -10 29 0 18 24 -57
128 -21 28 -46 52 -55 52 -14 0 -14 -3 4 -22z"/>
<path d="M7020 440 c0 -5 5 -10 10 -10 6 0 10 5 10 10 0 6 -4 10 -10 10 -5 0
-10 -4 -10 -10z"/>
<path d="M4356 414 c-13 -33 -6 -64 19 -80 32 -21 58 -15 69 18 8 23 6 32 -14
53 -26 28 -65 33 -74 9z m48 -20 c18 -7 21 -39 5 -50 -16 -9 -41 20 -33 39 7
19 7 19 28 11z"/>
<path d="M4052 398 c-27 -27 -1 -74 53 -97 25 -11 31 -10 42 5 19 26 16 61 -7
84 -22 22 -69 27 -88 8z m78 -48 c0 -36 -22 -40 -44 -8 -22 32 -20 38 14 38
27 0 30 -3 30 -30z"/>
<path d="M2248 383 c-33 -8 -34 -65 -2 -77 22 -9 54 12 54 34 0 15 -26 53 -33
49 -1 -1 -10 -3 -19 -6z m30 -46 c5 -24 -15 -21 -21 4 -3 13 -1 19 6 16 7 -2
13 -11 15 -20z"/>
<path d="M3368 355 c-9 -21 -8 -27 13 -45 34 -28 63 -22 67 13 4 35 -13 57
-44 57 -16 0 -28 -8 -36 -25z m60 -18 c2 -10 -3 -17 -12 -17 -18 0 -29 16 -21
31 9 14 29 6 33 -14z"/>
<path d="M2072 358 c-17 -17 -15 -64 4 -82 33 -33 74 -13 74 37 0 45 -49 74
-78 45z m56 -42 c5 -24 -10 -38 -31 -30 -17 6 -23 35 -10 48 12 12 38 1 41
-18z"/>
<path d="M1667 299 c12 -13 26 -18 33 -14 9 6 6 12 -11 21 -36 20 -46 17 -22
-7z"/>
<path d="M4036 257 c-24 -17 -14 -72 16 -88 24 -13 40 -1 15 12 -21 12 -23 59
-3 59 14 0 46 -26 46 -36 0 -3 -5 -14 -11 -26 -13 -25 -5 -35 16 -18 24 20 19
66 -11 89 -31 24 -44 26 -68 8z"/>
</g>
</svg>
