<svg xmlns="http://www.w3.org/2000/svg" xmlns:cc="http://web.resource.org/cc/" xmlns:ns1="http://sozi.baierouge.fr" xmlns:svg="http://www.w3.org/2000/svg" xmlns:xlink="http://www.w3.org/1999/xlink" id="Layer_1" width="1024" length="138" space="preserve" version="1.1" viewBox="-100 0 400.954 138.825" style="enable-background:new 0 0 277.954 138.825"><path id="path3" d="m9.726 134.99c-8.905-0.336-13.064-11.564-5.746-17.229 4.553-3.523 11.247-1.759 16.28-4.786 6.891-4.146 11.878-12.601 16.488-19.054 9.826-13.753 19.924-23.979 32.351-35.505 10.104-9.373 25.004-23.93 39.741-23.93 27.104 0 22.597 45.842 1.437 54.56-7.37 3.036-13.65 0.945-21.068 0.957-4.712 0.008-8.792 1.913-13.406 1.913-12.225 0-23.58 23.278-31.602 30.631-9.063 8.31-22.08 13.45-34.478 12.45" style="fill:#80e800;clip-rule:evenodd;fill-rule:evenodd"/><path id="path5" d="m0.15 0.031h250.53c1.542 0 27.183-0.119 27.183 0.107v52.645 74.483c0 11.988 1.732 11.557-9.82 11.557h-240.71-26.703c-1.039 0-0.48-28.806-0.48-31.114 0.003-35.904 0.003-71.796 0.003-107.69" style="clip-rule:evenodd;fill:none"/><path id="path7" d="m1.106 129.25c16.698-3.967 29.023-3.168 42.172-16.307 8.408-8.401 15.096-25.328 27.736-26.768-0.657-2.038-0.833-4.776-1.915-6.699 1.59 2.329 3.657 4.408 5.746 5.743-2.451-3.546-3.533-10.583-1.916-13.399-0.807 4.929 2.454 8.66 4.789 12.442-0.905-5.483-3.353-10.58-2.873-16.272 2.214 2.296 1.273 7.374 3.831 10.529-1.348-4.838-1.612-10.861 0-15.315-0.328 4.584-0.039 9.181 1.915 13.4-1.781-4.887-1.023-12.035 1.915-15.314-0.969 2.896-1.414 6.392-0.957 9.572 2.43-9.73 4.576-24.004 13.407-29.673-2.252 10.547-8.469 19.286-7.662 30.631 1.192-4.766 1.806-13.739 5.746-15.316-2.748 3.892-3.301 12.368-2.873 17.229 1.933-3.986 1.708-7.834 3.831-11.486 0.522 6.185-1.427 11.124 0.958 17.229-0.262-3.196 0.665-3.372 1.915-5.743 1.117 4.655 3.805 13.104 9.576 4.786 1.059 7.385 5.677 0.841 9.576-0.957 0.281-0.13 0.912 2.917 3.352 0.479 1.894-1.892 4.365-3.111 6.224-5.265-5.959 11.918-14.762 18.252-28.729 18.186-12.529-0.06-22.174-1.768-32.081 8.138-10.948 10.946-20.008 27.346-34.952 33.022-7.458 2.84-25.065 6.97-28.732-2.87" style="fill:#55bd00;clip-rule:evenodd;fill-rule:evenodd"/><path id="path9" d="m0.15 0.031h250.53c1.542 0 27.183-0.119 27.183 0.107v52.645 74.483c0 11.988 1.732 11.557-9.82 11.557h-240.71-26.703c-1.039 0-0.48-28.806-0.48-31.114 0.003-35.904 0.003-71.796 0.003-107.69" style="clip-rule:evenodd;fill:none"/><path id="path11" d="m3.022 132.12c16.581 1.017 31.44-4.624 43.094-16.271 5.54-5.537 9.598-13.42 15.605-18.223 3.381-2.703 10.65-6.096 8.334-10.494 1.668 2.208 2.443 1.738 4.789 2.872-0.629-1.199-1.152-3.674-1.916-4.786 1.953 2.641 1.534 1.796 4.789 2.872-1.096-1.865-1.719-3.93-2.873-5.744 1.147 2.638 2.795 4.019 4.788 5.744 1.353-2.006 0.249-4.938-1.915-7.658 0.993 2.122 2.518 3.854 3.831 5.742-0.646-2.289-0.504-4.233-0.958-6.699 0.562 1.305 1.394 2.507 1.915 3.829-0.491-2.03-0.623-3.739-0.957-5.743 0.511 2.721 1.468 5.271 2.873 7.657-1.006-4.444-2.242-9.069-0.958-13.399 0.993 4.748 1.401 9.606 2.873 14.355-0.374-4.263 0.106-8.534 1.916-12.442 0 4.219-0.452 8.436 0.957 12.442 0.271-1.884 0.757-2.888 0.958-4.785 0.221 1.473 1.047 2.786 0.958 4.785 0.81-1.021 2.776-1.613 3.831-2.87 0.06 1.402 0.778 2.442 0.957 3.828 5.323-1.777 14.115 0.758 21.068-2.871-8.735 8.173-18.371 5.743-29.208 5.743-9.472 0-17.283 3.631-24.419 10.529-10.445 10.097-17.262 21.836-29.97 29.459-6.996 4.2-23.639 8.68-30.361 2.13" style="fill:#2e9600;clip-rule:evenodd;fill-rule:evenodd"/><path id="path13" d="m0.15 0.031h250.53c1.542 0 27.183-0.119 27.183 0.107v52.645 74.483c0 11.988 1.732 11.557-9.82 11.557h-240.71-26.703c-1.039 0-0.48-28.806-0.48-31.114 0.003-35.904 0.003-71.796 0.003-107.69" style="clip-rule:evenodd;fill:none"/><path id="path15" d="m9.726 134.99c-8.905-0.336-13.064-11.564-5.746-17.229 4.553-3.523 11.247-1.759 16.28-4.786 6.891-4.146 11.878-12.601 16.488-19.054 9.826-13.753 19.924-23.979 32.351-35.505 10.104-9.373 25.004-23.93 39.741-23.93 27.104 0 22.597 45.842 1.437 54.56-7.37 3.036-13.65 0.945-21.068 0.957-4.712 0.008-8.792 1.913-13.406 1.913-12.225 0-23.58 23.278-31.602 30.631-9.063 8.31-22.08 13.45-34.478 12.45" style="stroke-width:0;stroke-miterlimit:10;fill:none"/><path id="path17" d="m0.15 0.031h250.53c1.542 0 27.183-0.119 27.183 0.107v52.645 74.483c0 11.988 1.732 11.557-9.82 11.557h-240.71-26.703c-1.039 0-0.48-28.806-0.48-31.114 0.003-35.904 0.003-71.796 0.003-107.69" style="clip-rule:evenodd;fill:none"/><path id="path19" d="m9.726 134.99c-10.674-0.739-10.939-15.09-1.916-19.142 7.522-3.378 17.033 0.207 23.941-6.701 6.235-6.235 8.619-9.721 8.619-18.665 0-8.775-4.987-17.448-5.746-26.323-0.731-8.551-0.336-17.611 1.916-25.844 2.811-10.273 8.254-14.861 14.364-22.972 3.877-5.147 3.8-10.126 5.745-15.315 3.899 11.54-4.095 19.539-10.533 29.194-8.507 12.756-1.74 32.508 3.333 45.182 12.725 31.793-3.158 62.573-39.723 60.583" style="fill:#80e800;clip-rule:evenodd;fill-rule:evenodd"/><path id="path21" d="m0.15 0.031h250.53c1.542 0 27.183-0.119 27.183 0.107v52.645 74.483c0 11.988 1.732 11.557-9.82 11.557h-240.71-26.703c-1.039 0-0.48-28.806-0.48-31.114 0.003-35.904 0.003-71.796 0.003-107.69" style="clip-rule:evenodd;fill:none"/><path id="path23" d="m2.064 129.25c13.271-3.153 26.681-1.787 37.348-12.443 9.211-9.201 12.251-20.717 9.577-33.501-2.945-14.079-11.435-29.141-8.619-44.031 2.463-13.024 18.615-22.915 17.237-36.373 3.26 13.898-14.365 22.135-14.365 35.894 0 8.751 0.394 15.845 2.165 24.692 1.575 7.871 8.37 16.051 8.37 24.124 0 13.986 0.333 29.904-12.484 39.511-8.635 6.47-33.064 14.35-39.229 2.12" style="fill:#55bd00;clip-rule:evenodd;fill-rule:evenodd"/><path id="path25" d="m0.15 0.031h250.53c1.542 0 27.183-0.119 27.183 0.107v52.645 74.483c0 11.988 1.732 11.557-9.82 11.557h-240.71-26.703c-1.039 0-0.48-28.806-0.48-31.114 0.003-35.904 0.003-71.796 0.003-107.69" style="clip-rule:evenodd;fill:none"/><path id="path27" d="m3.98 132.12c24.081 0 49.471-9.534 47.881-37.33-1.386-24.233-21.882-54.758 0.958-75.618-7.934 11.895-12.726 22.83-9.098 37.33 3.293 13.163 11.504 26.521 11.013 40.201-0.427 11.902-5.706 26.29-16.28 32.545-7.041 4.17-28.454 10.53-34.474 2.87" style="fill:#2e9600;clip-rule:evenodd;fill-rule:evenodd"/><path id="path29" d="m0.15 0.031h250.53c1.542 0 27.183-0.119 27.183 0.107v52.645 74.483c0 11.988 1.732 11.557-9.82 11.557h-240.71-26.703c-1.039 0-0.48-28.806-0.48-31.114 0.003-35.904 0.003-71.796 0.003-107.69" style="clip-rule:evenodd;fill:none"/><path id="path31" d="m23.133 113.94c27.829-6.99 11.491-34.824 11.491-53.319 0-13.578 0.865-25.509 8.619-37.135 3.378-5.066 8.21-8.28 11.013-13.88 1.601-3.199 1.264-6.558 2.394-9.571 4.474 13.242-6.48 19.064-11.491 30.629-6.292 14.521-0.744 31.219 4.788 44.987 12.577 31.301-4.709 61.279-40.22 59.346" style="stroke-width:0;stroke-miterlimit:10;fill:none"/><path id="path33" d="m0.15 0.031h250.53c1.542 0 27.183-0.119 27.183 0.107v52.645 74.483c0 11.988 1.732 11.557-9.82 11.557h-240.71-26.703c-1.039 0-0.48-28.806-0.48-31.114 0.003-35.904 0.003-71.796 0.003-107.69" style="clip-rule:evenodd;fill:none"/><path id="path35" d="m136.13 134.04c-4.082-1.081-0.958-10.882-0.958-15.794 0-9.963 2.147-18.782 10.534-22.972 7.553-3.772 6.704 11.848 6.704 14.837 0 8.981-6.015 17.318-0.958 23.929-5.09-0.01-10.2-0.01-15.31-0.01" style="fill:#80e800;clip-rule:evenodd;fill-rule:evenodd"/><path id="path37" d="m0.15 0.031h250.53c1.542 0 27.183-0.119 27.183 0.107v52.645 74.483c0 11.988 1.732 11.557-9.82 11.557h-240.71-26.703c-1.039 0-0.48-28.806-0.48-31.114 0.003-35.904 0.003-71.796 0.003-107.69" style="clip-rule:evenodd;fill:none"/><path id="path39" d="m136.13 134.04c-3.446-0.424-2.284-38.287 7.661-38.287 5.071 0 4.05-1.837 6.704 2.871 0.71 1.26 0.957 10.151 0.957 11.008 0 6.894-4.503 17.079-0.957 22.494-2.786-0.911-2.109-0.025-3.831-1.914-0.534 0.094-1.274 1.977-0.958 1.914-4.75-1.71-3.44 3.5-9.57 1.92" style="fill:#55bd00;clip-rule:evenodd;fill-rule:evenodd"/><path id="path41" d="m0.15 0.031h250.53c1.542 0 27.183-0.119 27.183 0.107v52.645 74.483c0 11.988 1.732 11.557-9.82 11.557h-240.71-26.703c-1.039 0-0.48-28.806-0.48-31.114 0.003-35.904 0.003-71.796 0.003-107.69" style="clip-rule:evenodd;fill:none"/><path id="path43" d="m134.22 128.29c2.677-10.365-0.77-22.591 7.661-31.588-0.704 1.134-0.952 2.435-1.915 3.83 1.94-0.689 3.586-0.492 5.745-0.957-2.233 1.186-3.794 3.194-5.745 4.786l0.957 0.957c0.631-0.19 3.05-0.609 4.788-0.957-9.425 0.997-11.05 22.678-0.958 22.972-3.399-0.249-4.181 0.417-6.703 1.914 2.619 0.401 2.325 1.521 4.789 2.872-2.74 4.92-10.27 2.29-8.62-3.82" style="fill:#2e9600;clip-rule:evenodd;fill-rule:evenodd"/><path id="path45" d="m0.15 0.031h250.53c1.542 0 27.183-0.119 27.183 0.107v52.645 74.483c0 11.988 1.732 11.557-9.82 11.557h-240.71-26.703c-1.039 0-0.48-28.806-0.48-31.114 0.003-35.904 0.003-71.796 0.003-107.69" style="clip-rule:evenodd;fill:none"/><path id="path47" d="m150.5 132.12c0.378 0.592 1.493 0.092 0.957 1.914h-9.576c0.878-2.695 1.757-3.31 4.788-3.828 1.12 2.8 1.47 1.13 3.83 1.92" style="fill:#2d4c4c;clip-rule:evenodd;fill-rule:evenodd"/><path id="path49" d="m0.15 0.031h250.53c1.542 0 27.183-0.119 27.183 0.107v52.645 74.483c0 11.988 1.732 11.557-9.82 11.557h-240.71-26.703c-1.039 0-0.48-28.806-0.48-31.114 0.003-35.904 0.003-71.796 0.003-107.69" style="clip-rule:evenodd;fill:none"/><path id="path51" d="m147.62 134.04c-2.364-0.372-3.839-0.229-4.787-2.872 1.007-0.315 2.988-0.789 3.83-0.956 0.697 0.687 1.024 1.234 1.915 1.914 0.24 1.53-0.62 0.84-0.96 1.92" style="fill:#607f7f;clip-rule:evenodd;fill-rule:evenodd"/><path id="path53" d="m0.15 0.031h250.53c1.542 0 27.183-0.119 27.183 0.107v52.645 74.483c0 11.988 1.732 11.557-9.82 11.557h-240.71-26.703c-1.039 0-0.48-28.806-0.48-31.114 0.003-35.904 0.003-71.796 0.003-107.69" style="clip-rule:evenodd;fill:none"/><path id="path55" d="m136.13 134.04c-4.082-1.081-0.958-10.882-0.958-15.794 0-9.963 2.147-18.782 10.534-22.972 7.553-3.772 6.704 11.848 6.704 14.837 0 8.981-6.015 17.318-0.958 23.929-5.09-0.01-10.2-0.01-15.31-0.01" style="stroke-width:0;stroke-miterlimit:10;fill:none"/><path id="path57" d="m141.88 134.04c1.131-3.385 2.487-3.879 3.83 0" style="stroke-width:0;stroke-miterlimit:10;fill:none"/><path id="path59" d="m145.71 132.12c0.495-0.543-0.034-1.332 0.958-1.914 0.341 0.336 1.556 1.565 1.915 1.914 0.24 1.518-0.842 0.873-0.958 1.914" style="stroke-width:0;stroke-miterlimit:10;fill:none"/><path id="path61" d="m148.58 132.12c0.804-1.08 1.412 0.232 1.916 1.914" style="stroke-width:0;stroke-miterlimit:10;fill:none"/><line id="line63" x1="149.54" x2="150.5" y1="132.12" y2="132.12" style="stroke-width:0;stroke-miterlimit:10;fill:none"/><path id="path65" d="m139.96 130.21c1.831-2.48 5.42-2.585 8.618-0.958" style="stroke-width:0;stroke-miterlimit:10;fill:none"/><path id="path67" d="m139.96 127.34c3.35-0.505 6.215 0.024 8.618 1.914" style="stroke-width:0;stroke-miterlimit:10;fill:none"/><path id="path69" d="m0.15 0.031h250.53c1.542 0 27.183-0.119 27.183 0.107v52.645 74.483c0 11.988 1.732 11.557-9.82 11.557h-240.71-26.703c-1.039 0-0.48-28.806-0.48-31.114 0.003-35.904 0.003-71.796 0.003-107.69" style="clip-rule:evenodd;fill:none"/><path id="path71" d="m137.09 107.24c-3.064-6.515-0.6-11.518-0.958-18.186-0.369-6.879-1.915-13.611-1.915-20.774 0-7.307 7.218-31.277 17.237-19.428 9.154 10.826 0.958 29.877 0.958 41.638-0.01 10.58-0.8 23.57-15.33 16.75" style="fill:#55bd00;clip-rule:evenodd;fill-rule:evenodd"/><path id="path73" d="m0.15 0.031h250.53c1.542 0 27.183-0.119 27.183 0.107v52.645 74.483c0 11.988 1.732 11.557-9.82 11.557h-240.71-26.703c-1.039 0-0.48-28.806-0.48-31.114 0.003-35.904 0.003-71.796 0.003-107.69" style="clip-rule:evenodd;fill:none"/><path id="path75" d="m137.09 107.24c-2.206-4.688-2.2-9.108-1.207-14.074 1.001-5.003-1.666-10.171-1.666-15.314 0-9.223-0.601-22.087 6.703-28.999-4.634 6.898-0.732 20.86-0.957 28.716-0.211 7.4 4.213 13.057-0.958 18.187 0.958-0.319 1.915-0.638 2.873-0.957-0.198 2.85-0.29 4.491-1.915 6.699 2.466-1.61 2.856-1.205 5.745-1.913-2.233 1.186-3.794 3.194-5.745 4.786l0.957 0.957c0.631-0.19 3.05-0.609 4.788-0.957-3.09 1.55-5.31 4.24-8.6 2.87" style="fill:#2e9600;clip-rule:evenodd;fill-rule:evenodd"/><path id="path77" d="m0.15 0.031h250.53c1.542 0 27.183-0.119 27.183 0.107v52.645 74.483c0 11.988 1.732 11.557-9.82 11.557h-240.71-26.703c-1.039 0-0.48-28.806-0.48-31.114 0.003-35.904 0.003-71.796 0.003-107.69" style="clip-rule:evenodd;fill:none"/><path id="path79" d="m150.5 106.28c-0.697-4.932-2.146-14.476-0.958-21.058 2.492-13.804 0.529-22.799 0-36.373 6.955 1.394 6.243 23.355 5.035 29.389-1.39 6.905-0.05 24.022-4.08 28.042" style="fill:#80e800;clip-rule:evenodd;fill-rule:evenodd"/><path id="path81" d="m0.15 0.031h250.53c1.542 0 27.183-0.119 27.183 0.107v52.645 74.483c0 11.988 1.732 11.557-9.82 11.557h-240.71-26.703c-1.039 0-0.48-28.806-0.48-31.114 0.003-35.904 0.003-71.796 0.003-107.69" style="clip-rule:evenodd;fill:none"/><path id="path83" d="m139 108.19c-5.75-2.925-4.788-24.026-4.788-30.346 0-8.511-0.624-26.773 8.619-31.392 16.687-8.339 11.602 51.082 8.618 58.868" style="stroke-width:0;stroke-miterlimit:10;fill:none"/><path id="path85" d="m0.15 0.031h250.53c1.542 0 27.183-0.119 27.183 0.107v52.645 74.483c0 11.988 1.732 11.557-9.82 11.557h-240.71-26.703c-1.039 0-0.48-28.806-0.48-31.114 0.003-35.904 0.003-71.796 0.003-107.69" style="clip-rule:evenodd;fill:none"/><path id="path87" d="m85.379 134.04c3.275-8.069-9.375-38.407 2.873-41.159 14.275-3.208 14.551 28.672 11.491 35.416 2.547 1.258 4.157 3.151 4.789 5.743h-19.151" style="fill:#80e800;clip-rule:evenodd;fill-rule:evenodd"/><path id="path89" d="m0.15 0.031h250.53c1.542 0 27.183-0.119 27.183 0.107v52.645 74.483c0 11.988 1.732 11.557-9.82 11.557h-240.71-26.703c-1.039 0-0.48-28.806-0.48-31.114 0.003-35.904 0.003-71.796 0.003-107.69" style="clip-rule:evenodd;fill:none"/><path id="path91" d="m94.955 131.16c2.07-1.852 2.862-2.519-0.958-3.828 0.266-0.609 1.266-0.057 0.958-1.914-2.364 0.907-3.874 0.668-5.747 2.871 1.283-3.447 3.849-1.928 6.225-4.307 1.89-1.894-1.528-4.092-1.436-6.223 0.234-5.437 1.791-16.889-6.704-13.399 2.077-0.467 3.584-1.588 5.746-1.916-1.204-2.449-0.912-6.373-0.958-8.613 9.905 0.51 10.584 28.016 7.662 34.458 1.636 0.904 1.64 1.861 2.873 2.871-2.632-0.86-5.041 0.89-7.665 0.01" style="fill:#55bd00;clip-rule:evenodd;fill-rule:evenodd"/><path id="path93" d="m0.15 0.031h250.53c1.542 0 27.183-0.119 27.183 0.107v52.645 74.483c0 11.988 1.732 11.557-9.82 11.557h-240.71-26.703c-1.039 0-0.48-28.806-0.48-31.114 0.003-35.904 0.003-71.796 0.003-107.69" style="clip-rule:evenodd;fill:none"/><path id="path95" d="m99.743 130.21c-2.278-3.756 1.672-29.339-8.618-26.802 2.006 0.051 3.776-0.675 5.745-0.958-1.322-2.329-1.933-4.697-1.915-7.656 11.486 5.913-1.667 30.165 7.66 36.372-2.44-0.55-1.27-0.19-2.877-0.96" style="fill:#2e9600;clip-rule:evenodd;fill-rule:evenodd"/><path id="path97" d="m0.15 0.031h250.53c1.542 0 27.183-0.119 27.183 0.107v52.645 74.483c0 11.988 1.732 11.557-9.82 11.557h-240.71-26.703c-1.039 0-0.48-28.806-0.48-31.114 0.003-35.904 0.003-71.796 0.003-107.69" style="clip-rule:evenodd;fill:none"/><path id="path99" d="m102.62 130.21c1.135 1.313 1.523 2.765 1.916 3.828h-19.152c2.252-3.522 1.572-2.265 3.83-0.957 0.717-0.238 1.182-1.78 1.916-1.915 2.425 1.441 3.172 1.096 5.745 0.958 1.8-2.179 0.989-1.686 3.831-0.958-0.11-1.33 0.75-1.18 1.91-0.95" style="fill:#607f7f;clip-rule:evenodd;fill-rule:evenodd"/><path id="path101" d="m0.15 0.031h250.53c1.542 0 27.183-0.119 27.183 0.107v52.645 74.483c0 11.988 1.732 11.557-9.82 11.557h-240.71-26.703c-1.039 0-0.48-28.806-0.48-31.114 0.003-35.904 0.003-71.796 0.003-107.69" style="clip-rule:evenodd;fill:none"/><path id="path103" d="m100.7 131.16c2.107-0.539 3.196-0.21 3.831 2.872-3.8 0.317-7.923 1.025-9.576-2.872 1.535-0.36 3.269-0.51 5.746 0m-0.957 0c-0.586 0.36-0.092 1.494-1.915 0.958 0.617-1.05 1.145-0.48 1.915-0.96" style="fill:#2d4c4c;clip-rule:evenodd;fill-rule:evenodd"/><path id="path105" d="m0.15 0.031h250.53c1.542 0 27.183-0.119 27.183 0.107v52.645 74.483c0 11.988 1.732 11.557-9.82 11.557h-240.71-26.703c-1.039 0-0.48-28.806-0.48-31.114 0.003-35.904 0.003-71.796 0.003-107.69" style="clip-rule:evenodd;fill:none"/><path id="path107" d="m85.379 134.04c3.275-8.069-9.375-38.407 2.873-41.159 14.275-3.208 14.551 28.672 11.491 35.416 2.547 1.258 4.157 3.151 4.789 5.743h-19.151" style="stroke-width:0;stroke-miterlimit:10;fill:none"/><path id="path109" d="m86.335 132.12c1.542-0.178 2.403-1.946 2.873 0.957 0.729-0.271 1.264-1.476 1.916-1.915 0.408 0.892 0.961 1.725 1.915 2.872 1.914-2.925 5.547-3.917 9.576-2.872" style="stroke-width:0;stroke-miterlimit:10;fill:none"/><path id="path111" d="m100.7 131.16c1.019 1.294 1.551 2.504 0 2.872" style="stroke-width:0;stroke-miterlimit:10;fill:none"/><path id="path113" d="m96.87 132.12c0.747 0.438 1.093 1.061 0.958 1.914" style="stroke-width:0;stroke-miterlimit:10;fill:none"/><path id="path115" d="m93.039 134.04" style="stroke-width:0;stroke-miterlimit:10;fill:none"/><path id="path117" d="m89.208 134.04v-0.957" style="stroke-width:0;stroke-miterlimit:10;fill:none"/><path id="path119" d="m86.335 131.16c0.747-0.438 1.094-1.06 0.958-1.914" style="stroke-width:0;stroke-miterlimit:10;fill:none"/><path id="path121" d="m99.743 128.29c-2.536-1.499-5.794-1.334-8.618 0" style="stroke-width:0;stroke-miterlimit:10;fill:none"/><path id="path123" d="m99.743 128.29c-1.297-4.048-7.286-3.518-10.534 0" style="stroke-width:0;stroke-miterlimit:10;fill:none"/><path id="path125" d="m98.785 105.32c-2.251-3.017-7.416-2.393-11.491-0.957" style="stroke-width:0;stroke-miterlimit:10;fill:none"/><path id="path127" d="m0.15 0.031h250.53c1.542 0 27.183-0.119 27.183 0.107v52.645 74.483c0 11.988 1.732 11.557-9.82 11.557h-240.71-26.703c-1.039 0-0.48-28.806-0.48-31.114 0.003-35.904 0.003-71.796 0.003-107.69" style="clip-rule:evenodd;fill:none"/><path id="path129" d="m88.251 101.49c-8.159-0.776-4.789-27-4.789-33.022 0-6.686 10.09-38.247 20.11-28.237 9.859 9.849 1.029 31.22-1.206 42.399-0.984 4.924 0.672 12.089-2.625 15.989-3.43 4.071-5.771 0.403-11.484 2.871" style="fill:#80e800;clip-rule:evenodd;fill-rule:evenodd"/><path id="path131" d="m0.15 0.031h250.53c1.542 0 27.183-0.119 27.183 0.107v52.645 74.483c0 11.988 1.732 11.557-9.82 11.557h-240.71-26.703c-1.039 0-0.48-28.806-0.48-31.114 0.003-35.904 0.003-71.796 0.003-107.69" style="clip-rule:evenodd;fill:none"/><path id="path133" d="m88.251 101.49c6.094-3.816 0.957-22.571 0.957-28.999 0-6.139 3.959-33.377 14.365-31.303 10.186 2.03 0.128 34.681-0.958 40.202-1.129 5.738-0.061 11.346-2.873 16.272-2.077 3.64 1.253 2.027-2.873 3.828-1.752 0.77-5.991-1.13-8.613 0" style="fill:#55bd00;clip-rule:evenodd;fill-rule:evenodd"/><path id="path135" d="m0.15 0.031h250.53c1.542 0 27.183-0.119 27.183 0.107v52.645 74.483c0 11.988 1.732 11.557-9.82 11.557h-240.71-26.703c-1.039 0-0.48-28.806-0.48-31.114 0.003-35.904 0.003-71.796 0.003-107.69" style="clip-rule:evenodd;fill:none"/><path id="path137" d="m92.081 100.54c1.486-0.309 2.945-1.74 4.789-1.915-1.469-8.696-6.498-19.428-6.703-29.673-0.069-3.42 7.907-30.383 13.886-24.408 8.186 8.183 1.164 23.859-0.728 33.307-1.62 8.106 0.86 27.839-11.239 22.689" style="fill:#2e9600;clip-rule:evenodd;fill-rule:evenodd"/><path id="path139" d="m0.15 0.031h250.53c1.542 0 27.183-0.119 27.183 0.107v52.645 74.483c0 11.988 1.732 11.557-9.82 11.557h-240.71-26.703c-1.039 0-0.48-28.806-0.48-31.114 0.003-35.904 0.003-71.796 0.003-107.69" style="clip-rule:evenodd;fill:none"/><path id="path141" d="m83.463 95.75c0-12.336-1.61-24.459 1.916-36.374 1.989-6.721 14.532-32.99 20.588-14.836 4.842 14.517-2.903 27.503-4.308 41.637-0.362 3.642 0.843 10.674-1.916 13.402-3.029 2.995-6.906-0.068-11.491 1.913" style="stroke-width:0;stroke-miterlimit:10;fill:none"/><path id="path143" d="m0.15 0.031h250.53c1.542 0 27.183-0.119 27.183 0.107v52.645 74.483c0 11.988 1.732 11.557-9.82 11.557h-240.71-26.703c-1.039 0-0.48-28.806-0.48-31.114 0.003-35.904 0.003-71.796 0.003-107.69" style="clip-rule:evenodd;fill:none"/><path id="path145" d="m157.2 130.21c-2.439-4.388 0.148-12.735 0-18.188-0.194-7.13-1.932-13.692 5.746-15.315 18.07-3.819 2.271 29.525 10.534 36.374-4.677 2.022-11.858 0.957-17.238 0.957-0.19-1.51 0.25-2.53 0.96-3.83" style="fill:#80e800;clip-rule:evenodd;fill-rule:evenodd"/><path id="path147" d="m0.15 0.031h250.53c1.542 0 27.183-0.119 27.183 0.107v52.645 74.483c0 11.988 1.732 11.557-9.82 11.557h-240.71-26.703c-1.039 0-0.48-28.806-0.48-31.114 0.003-35.904 0.003-71.796 0.003-107.69" style="clip-rule:evenodd;fill:none"/><path id="path149" d="m157.2 130.21c-1.948-3.505-0.199-8.309 0-11.487 0.277-4.421-0.53-9.007 0-13.399 0.401-3.326-0.66-8.616 4.31-8.616 3.637 0 9.258-0.684 10.055 4.786-1.242-0.909-1.292-0.739-2.873-0.956 8.838 5.046-2.314 23.542 3.831 31.587-3.29-0.827-5.529 0.717-9.576-1.914-0.282 3.655-2.865 4.771-6.704 3.828-0.19-1.51 0.25-2.53 0.96-3.83" style="fill:#55bd00;clip-rule:evenodd;fill-rule:evenodd"/><path id="path151" d="m0.15 0.031h250.53c1.542 0 27.183-0.119 27.183 0.107v52.645 74.483c0 11.988 1.732 11.557-9.82 11.557h-240.71-26.703c-1.039 0-0.48-28.806-0.48-31.114 0.003-35.904 0.003-71.796 0.003-107.69" style="clip-rule:evenodd;fill:none"/><path id="path153" d="m157.2 130.21c-2.341-4.66 0.302-11.611 0-17.23-0.284-5.29-1.902-14.188 3.83-16.272 0.928 2.564 4.175 2.404 7.661 1.915-2.364 0.302-3.757 1.072-5.745 1.915h1.914c-5.852 2.695-7.651 13.417-5.267 18.186 1.669 3.336-2.305 5.386 0.479 7.658 3.221 2.629 7.773-1.818 10.533 2.871-2.604-2.621-6.514-2.563-9.576-0.957 2.327-0.768 1.692-0.251 3.83 0-4.876 0.988-0.396 7.762-8.618 5.743-0.17-1.51 0.27-2.53 0.98-3.83" style="fill:#2e9600;clip-rule:evenodd;fill-rule:evenodd"/><path id="path155" d="m0.15 0.031h250.53c1.542 0 27.183-0.119 27.183 0.107v52.645 74.483c0 11.988 1.732 11.557-9.82 11.557h-240.71-26.703c-1.039 0-0.48-28.806-0.48-31.114 0.003-35.904 0.003-71.796 0.003-107.69" style="clip-rule:evenodd;fill:none"/><path id="path157" d="m172.52 131.16c0.312 0.885-0.043 1.327 0.958 1.915-3.343 1.445-7.565 0.957-11.492 0.957 0.439-2.028 0.364-2.286 1.914-3.828 2.4 2.39 6.46 1.44 8.62 0.95" style="fill:#2d4c4c;clip-rule:evenodd;fill-rule:evenodd"/><path id="path159" d="m0.15 0.031h250.53c1.542 0 27.183-0.119 27.183 0.107v52.645 74.483c0 11.988 1.732 11.557-9.82 11.557h-240.71-26.703c-1.039 0-0.48-28.806-0.48-31.114 0.003-35.904 0.003-71.796 0.003-107.69" style="clip-rule:evenodd;fill:none"/><path id="path161" d="m169.65 134.04c-3.303 0.529-5.75-0.82-6.703-3.828 2.743 1.783 4.642 1.645 6.703 0.956 0 0.95-0.03 1.91 0 2.87" style="fill:#607f7f;clip-rule:evenodd;fill-rule:evenodd"/><path id="path163" d="m0.15 0.031h250.53c1.542 0 27.183-0.119 27.183 0.107v52.645 74.483c0 11.988 1.732 11.557-9.82 11.557h-240.71-26.703c-1.039 0-0.48-28.806-0.48-31.114 0.003-35.904 0.003-71.796 0.003-107.69" style="clip-rule:evenodd;fill:none"/><path id="path165" d="m157.2 130.21c-2.439-4.388 0.148-12.735 0-18.188-0.194-7.13-1.932-13.692 5.746-15.315 18.07-3.819 2.271 29.525 10.534 36.374-4.677 2.022-11.858 0.957-17.238 0.957-0.19-1.51 0.25-2.53 0.96-3.83" style="stroke-width:0;stroke-miterlimit:10;fill:none"/><path id="path167" d="m168.69 134.04c-0.234-2.748-1.231-3.559-2.873-1.914" style="stroke-width:0;stroke-miterlimit:10;fill:none"/><path id="path169" d="m168.69 132.12c1.065-1.684 1.516 0.12 1.915 1.914" style="stroke-width:0;stroke-miterlimit:10;fill:none"/><path id="path171" d="m169.65 132.12c1.859-1.49 2.611-0.25 2.873 1.914" style="stroke-width:0;stroke-miterlimit:10;fill:none"/><line id="line173" x1="171.56" x2="172.52" y1="132.12" y2="132.12" style="stroke-width:0;stroke-miterlimit:10;fill:none"/><path id="path175" d="m165.82 134.04c-0.442-1.309-1.307-2.611-1.916-3.828-1.659 1.053-1.715 2.107-1.914 3.828" style="stroke-width:0;stroke-miterlimit:10;fill:none"/><path id="path177" d="m170.61 129.25c-2.373-1.013-5.008-1.329-7.66-0.957" style="stroke-width:0;stroke-miterlimit:10;fill:none"/><path id="path179" d="m161.03 128.29c3.063-1.605 6.973-1.664 9.576 0.957" style="stroke-width:0;stroke-miterlimit:10;fill:none"/><path id="path181" d="m0.15 0.031h250.53c1.542 0 27.183-0.119 27.183 0.107v52.645 74.483c0 11.988 1.732 11.557-9.82 11.557h-240.71-26.703c-1.039 0-0.48-28.806-0.48-31.114 0.003-35.904 0.003-71.796 0.003-107.69" style="clip-rule:evenodd;fill:none"/><path id="path183" d="m157.2 104.36c-2.207-9.729-0.603-35.113 8.618-39.724 14.513-7.257 7.438 32.572 5.746 36.851-6.35-3.86-9.57 5.02-14.37 2.87" style="fill:#80e800;clip-rule:evenodd;fill-rule:evenodd"/><path id="path185" d="m0.15 0.031h250.53c1.542 0 27.183-0.119 27.183 0.107v52.645 74.483c0 11.988 1.732 11.557-9.82 11.557h-240.71-26.703c-1.039 0-0.48-28.806-0.48-31.114 0.003-35.904 0.003-71.796 0.003-107.69" style="clip-rule:evenodd;fill:none"/><path id="path187" d="m157.2 104.36c-1.851-8.158-0.378-27.959 3.352-35.417 6.554-13.106 16.423 5.056 9.098 4.786 1.674 5.363 5.348 17.237 2.873 22.972-1.26 2.935-12.36 8.989-15.32 7.659" style="fill:#55bd00;clip-rule:evenodd;fill-rule:evenodd"/><path id="path189" d="m0.15 0.031h250.53c1.542 0 27.183-0.119 27.183 0.107v52.645 74.483c0 11.988 1.732 11.557-9.82 11.557h-240.71-26.703c-1.039 0-0.48-28.806-0.48-31.114 0.003-35.904 0.003-71.796 0.003-107.69" style="clip-rule:evenodd;fill:none"/><path id="path191" d="m159.12 82.349c0-6.499-0.354-13.01 4.787-17.229-2.647 9.161-0.767 20.334-3.829 29.673 1.213-1.168 2.651-1.822 3.829-2.873-2.062 2.139-2.237 4.174-2.872 6.701 2.471 0 5.218 0.343 7.661 0-2.364 0.302-3.757 1.072-5.745 1.915h1.914c-2.328 1.609-4.604 3.234-6.703 4.786-3.14-5.697-0.27-15.664 0.95-22.981" style="fill:#2e9600;clip-rule:evenodd;fill-rule:evenodd"/><path id="path193" d="m0.15 0.031h250.53c1.542 0 27.183-0.119 27.183 0.107v52.645 74.483c0 11.988 1.732 11.557-9.82 11.557h-240.71-26.703c-1.039 0-0.48-28.806-0.48-31.114 0.003-35.904 0.003-71.796 0.003-107.69" style="clip-rule:evenodd;fill:none"/><path id="path195" d="m157.2 104.36c-2.207-9.729-0.603-35.113 8.618-39.724 14.513-7.257 7.438 32.572 5.746 36.851-1.484-0.751-3.279-0.315-4.788-0.956" style="stroke-width:0;stroke-miterlimit:10;fill:none"/><path id="path197" d="m169.65 98.621c0.638 0.639 1.276 1.277 1.915 1.915" style="stroke-width:0;stroke-miterlimit:10;fill:none"/><path id="path199" d="m0.15 0.031h250.53c1.542 0 27.183-0.119 27.183 0.107v52.645 74.483c0 11.988 1.732 11.557-9.82 11.557h-240.71-26.703c-1.039 0-0.48-28.806-0.48-31.114 0.003-35.904 0.003-71.796 0.003-107.69" style="clip-rule:evenodd;fill:none"/><path id="path201" d="m109.32 98.621c-23.294-13.608-25.85-47.869-7.625-66.082 21.189-21.176 48.362-15.032 71.786-3.314 8.364 4.184 18.195 8.25 18.195 19.622 0 11.53-4.475 18.071-9.576 26.8-14.69 25.133-47.08 28.903-72.78 22.974" style="fill:#80e800;clip-rule:evenodd;fill-rule:evenodd"/><path id="path203" d="m0.15 0.031h250.53c1.542 0 27.183-0.119 27.183 0.107v52.645 74.483c0 11.988 1.732 11.557-9.82 11.557h-240.71-26.703c-1.039 0-0.48-28.806-0.48-31.114 0.003-35.904 0.003-71.796 0.003-107.69" style="clip-rule:evenodd;fill:none"/><path id="path205" d="m110.28 64.162c0.651-2.139 0.961-3.896 2.873-4.786-0.68 3.028-2.29 4.647-2.87 4.786m-17.241 13.401c-5.776-9.697-3.428-32.151 9.576-35.416-5.978 10.012-18.065 25.082-7.66 37.33 3.206 3.773 9.365 5.001 12.449 0 2.982-4.836-2.651-10.158 0.957-15.315-0.309 2.903 0.281 5.288 0.958 7.659 0.365-3.414 1.211-6.116 3.831-7.659-2.627 4.049-5.171 13.396-0.958 16.272-1.535-3.217-0.897-7.729 0.958-9.571-0.389 2.959-0.069 5.942 0.958 8.614-0.057-1.91 0.097-3.834 0-5.743 0.871 5.101 2.219 5.604 6.704 7.657 0.856-1.919 3.08-4.45 3.829-5.744-0.016 3.912-1.452 7.111-2.873 10.529 0.888-0.93 3.706-2.664 4.789-3.828-0.1 1.264 0.143 2.568 0 3.828 3.877-2.811 4.241-8.215 3.831-13.399 1.142 2.521 1.241 5.528 0.957 8.614 2.776-2.414 3.001-8.315 3.831-12.443 1.142 4.437-0.234 7.997-0.957 12.443 2.28-1.489 4.961-5.591 6.703-8.614-0.143 5.313-4.341 10.452-7.661 14.357 4.515-3.224 7.884-2.527 13.407-1.914-0.719-0.669-2.106-3.119-2.873-3.829 4.161 1.906 8.526 3.13 13.407 2.872-3.866-1.976-9.718-3.245-11.492-7.658 8.181 4.313 17.835 8.627 26.814 4.786-5.481-1.459-12.407-1.314-17.238-4.786l0.958-0.958c4.743 2.629 13.438 3.231 19.152 2.873-2.062-3.683-8.702-3.045-12.448-5.743 2.83 0.706 5.591 1.015 8.618 0.957-0.349-0.877-0.668-0.906-0.958-1.913 3.243 1.831 7.316 2.762 9.576 0-3.793-0.608-7.508-2.45-10.533-4.787l0.957-0.957c1.985 1.876 4.182 2.188 6.703 2.871-0.724-0.47-2.975-3.165-3.829-3.828 2.468 0.955 4.904 0.468 7.66 0.957-0.854-0.422-3.106-2.312-4.788-2.872 5.301-0.236 4.261-1.386 7.183-4.308 3.256-3.256 10.319-12.062 7.66-1.436-2.686 10.731-8.842 21.822-17.752 28.503-23.07 17.286-69.87 28.806-80.421-8.401" style="fill:#55bd00;clip-rule:evenodd;fill-rule:evenodd"/><path id="path207" d="m0.15 0.031h250.53c1.542 0 27.183-0.119 27.183 0.107v52.645 74.483c0 11.988 1.732 11.557-9.82 11.557h-240.71-26.703c-1.039 0-0.48-28.806-0.48-31.114 0.003-35.904 0.003-71.796 0.003-107.69" style="clip-rule:evenodd;fill:none"/><path id="path209" d="m90.167 69.905c0.893-8.028 2.015-15.752 7.661-22.015-6.919 7.327-7.703 20.621-4.789 29.673-1.418-2.38-2.376-4.933-2.872-7.658m3.83 10.53c2.138 5.689 10.781 14.649 14.364 10.528 3.135-3.606 0.055-14.569 1.916-19.142-1.289 9.711 6.624 23.083 11.491 9.57-0.119 3.125-1.626 5.929-2.873 8.615 1.294-1.429 4.292-3.154 6.703-3.83-0.338 1.175-0.516 2.703-0.958 3.83 3.563-0.909 7.228-6.075 9.578-9.572-1.071 1.754-1.615 3.098-2.874 4.786 1.758-1.446 3.892-2.505 5.747-3.829-1.656 3.56-4.417 5.302-5.747 8.615 1.619-0.737 4.106-0.908 5.747-1.914-0.878 0.726-2.125 2.385-2.873 2.87 3.622-0.438 5.903-1.921 9.576-1.913 4.815 0.01 8.966 3.382 14.364 0.957-3.311-0.65-7.587-1.803-9.576-2.872 4.713 0.523 11.252 2.442 14.365-0.958-3.462 1.391-7.575 1.689-10.534-0.956 3.124 1.035 6.598 1.446 9.576 0-1.08-0.394-1.065-0.028-1.915-0.957 5.585 2.242 12.475 0.126 17.236-2.872-0.685-0.584-1.236-1.322-1.915-1.914 3.21-0.373 4.197-1.326 5.746-3.83-2.788 1.112-5.265 0.776-6.704-0.956 4.02 1.626 7.884 0.25 9.576-3.828-1.299-0.093-3.898-0.967-3.83-0.958 2.044-0.023 4.068-0.772 4.788-0.957-2.575 0.031-4.355-0.569-6.703-0.957 3.623 0.843 7.063 0.625 7.661-2.871-1.885-0.109-4.01-0.953-5.746-0.958 5.433 0.89 9.285-2.05 10.534-7.657 0.963 6.74-5.958 17.213-9.576 22.016-6.756 8.968-18.34 15.129-28.729 19.144-17.62 6.795-54.105 8.275-58.443-17.23" style="fill:#2e9600;clip-rule:evenodd;fill-rule:evenodd"/><path id="path211" d="m0.15 0.031h250.53c1.542 0 27.183-0.119 27.183 0.107v52.645 74.483c0 11.988 1.732 11.557-9.82 11.557h-240.71-26.703c-1.039 0-0.48-28.806-0.48-31.114 0.003-35.904 0.003-71.796 0.003-107.69" style="clip-rule:evenodd;fill:none"/><path id="path213" d="m93.997 41.19c18.892-20.993 40.883-28.447 67.708-17.726 7.832 3.13 21.32 7.73 26.139 14.854 6.09 9.004 3.961 19.669 0 28.716-8.859 20.235-33.606 34.604-56.5 35.415-12.886 0.457-27.412-3.711-34.474-15.314-6.622-10.88-8.415-29.319 0.958-39.244" style="stroke-width:0;stroke-miterlimit:10;fill:none"/><path id="path215" d="m127.51 88.093c2.519-2.273 4.805-4.847 6.704-7.658" style="stroke-width:0;stroke-miterlimit:10;fill:none"/><path id="path217" d="m0.15 0.031h250.53c1.542 0 27.183-0.119 27.183 0.107v52.645 74.483c0 11.988 1.732 11.557-9.82 11.557h-240.71-26.703c-1.039 0-0.48-28.806-0.48-31.114 0.003-35.904 0.003-71.796 0.003-107.69" style="clip-rule:evenodd;fill:none"/><path id="path219" d="m110.28 134.04c-0.341-4.733-5.015-49.419 10.533-41.638 8.402 4.204 3.83 15.912 3.83 23.451 0 3.415 2.147 7.196 0.479 10.529-0.684 1.366 3.761 5.7 4.31 7.657h-19.15" style="fill:#80e800;clip-rule:evenodd;fill-rule:evenodd"/><path id="path221" d="m0.15 0.031h250.53c1.542 0 27.183-0.119 27.183 0.107v52.645 74.483c0 11.988 1.732 11.557-9.82 11.557h-240.71-26.703c-1.039 0-0.48-28.806-0.48-31.114 0.003-35.904 0.003-71.796 0.003-107.69" style="clip-rule:evenodd;fill:none"/><path id="path223" d="m123.68 131.16c-0.252-3.882-3.256-4.802-6.704-2.871 1.195-0.852 2.311-2.429 2.873-2.871-2.647 0.53-5.279 0.707-7.662 1.914 2.639-3.058 6.563-4.222 10.534-3.829-1.578-7.774 2.876-27.037-9.576-21.059 1.142-0.646 3.856-2.904 5.746-3.828 0.692-1.258 0.525-3.915-0.957-6.701 16.736-0.934 1.021 32.474 9.576 38.289-2.03 1.31-2.34 1.26-3.83 0.96" style="fill:#55bd00;clip-rule:evenodd;fill-rule:evenodd"/><path id="path225" d="m0.15 0.031h250.53c1.542 0 27.183-0.119 27.183 0.107v52.645 74.483c0 11.988 1.732 11.557-9.82 11.557h-240.71-26.703c-1.039 0-0.48-28.806-0.48-31.114 0.003-35.904 0.003-71.796 0.003-107.69" style="clip-rule:evenodd;fill:none"/><path id="path227" d="m125.6 130.21c-1.801-2.711-3.368-3.895-5.745-4.786 6.871-0.631 9.839-30.384-2.873-23.931 6.359-2.631 9.931-3.211 3.831-9.572 6.864 2.658 4.959 14.319 4.787 20.102-0.16 4.96 0.2 18.1-0.01 18.19" style="fill:#2e9600;clip-rule:evenodd;fill-rule:evenodd"/><path id="path229" d="m0.15 0.031h250.53c1.542 0 27.183-0.119 27.183 0.107v52.645 74.483c0 11.988 1.732 11.557-9.82 11.557h-240.71-26.703c-1.039 0-0.48-28.806-0.48-31.114 0.003-35.904 0.003-71.796 0.003-107.69" style="clip-rule:evenodd;fill:none"/><path id="path231" d="m127.51 130.21c1.071 1.174 1.87 2.173 1.915 3.828h-20.11c0.62-1.253 1.167-2.18 1.916-2.872 3.722 1.297 10.698-1.002 13.405 0.958 0.72-1.93 1.38-1.3 2.87-1.92" style="fill:#607f7f;clip-rule:evenodd;fill-rule:evenodd"/><path id="path233" d="m0.15 0.031h250.53c1.542 0 27.183-0.119 27.183 0.107v52.645 74.483c0 11.988 1.732 11.557-9.82 11.557h-240.71-26.703c-1.039 0-0.48-28.806-0.48-31.114 0.003-35.904 0.003-71.796 0.003-107.69" style="clip-rule:evenodd;fill:none"/><path id="path235" d="m127.51 130.21c1.071 1.174 1.87 2.173 1.915 3.828-3.422 0.893-5.809 0.481-5.746-2.872 0.957-0.318 1.276 0 0.957 0.958 0.63-1.67 1.25-1.8 2.88-1.92" style="fill:#2d4c4c;clip-rule:evenodd;fill-rule:evenodd"/><path id="path237" d="m0.15 0.031h250.53c1.542 0 27.183-0.119 27.183 0.107v52.645 74.483c0 11.988 1.732 11.557-9.82 11.557h-240.71-26.703c-1.039 0-0.48-28.806-0.48-31.114 0.003-35.904 0.003-71.796 0.003-107.69" style="clip-rule:evenodd;fill:none"/><path id="path239" d="m110.28 134.04c-0.341-4.733-5.015-49.419 10.533-41.638 8.402 4.204 3.83 15.912 3.83 23.451 0 3.415 2.147 7.196 0.479 10.529-0.684 1.366 3.761 5.7 4.31 7.657h-19.15" style="stroke-width:0;stroke-miterlimit:10;fill:none"/><path id="path241" d="m113.15 134.04c0.129-1.76-1.076-2.447-2.873-1.914" style="stroke-width:0;stroke-miterlimit:10;fill:none"/><path id="path243" d="m117.94 134.04c-1.175-2.555-2.832-3.198-4.789-0.957" style="stroke-width:0;stroke-miterlimit:10;fill:none"/><path id="path245" d="m124.64 132.12c0.542-1.451 1.266-2.131 2.874-1.914" style="stroke-width:0;stroke-miterlimit:10;fill:none"/><path id="path247" d="m121.77 132.12c2.143-1.788 3.319-0.745 3.831 1.914" style="stroke-width:0;stroke-miterlimit:10;fill:none"/><path id="path249" d="m117.94 133.08c2.051-2.227 3.392-1.906 3.83 0.957" style="stroke-width:0;stroke-miterlimit:10;fill:none"/><path id="path251" d="m122.73 127.34c1.185-0.295 2.162 0.003 2.873 0.957" style="stroke-width:0;stroke-miterlimit:10;fill:none"/><path id="path253" d="m119.85 125.42c2.027-0.408 3.624 0.228 4.787 1.914" style="stroke-width:0;stroke-miterlimit:10;fill:none"/><path id="path255" d="m125.6 102.45c-2.375-2.422-5.418-2.595-8.618-0.957" style="stroke-width:0;stroke-miterlimit:10;fill:none"/><path id="path257" d="m0.15 0.031h250.53c1.542 0 27.183-0.119 27.183 0.107v52.645 74.483c0 11.988 1.732 11.557-9.82 11.557h-240.71-26.703c-1.039 0-0.48-28.806-0.48-31.114 0.003-35.904 0.003-71.796 0.003-107.69" style="clip-rule:evenodd;fill:none"/><path id="path259" d="m110.28 104.36c-4.248-8.555-1.648-34.726 4.788-41.16 9.322-9.32 13.525 9.563 14.214 15.076 0.755 6.036-1.847 15.7-3.681 21.298-4.97-4.354-12.58-0.444-15.32 4.786" style="fill:#80e800;clip-rule:evenodd;fill-rule:evenodd"/><path id="path261" d="m0.15 0.031h250.53c1.542 0 27.183-0.119 27.183 0.107v52.645 74.483c0 11.988 1.732 11.557-9.82 11.557h-240.71-26.703c-1.039 0-0.48-28.806-0.48-31.114 0.003-35.904 0.003-71.796 0.003-107.69" style="clip-rule:evenodd;fill:none"/><path id="path263" d="m114.11 99.579c-0.121-1.418 7.709-5.312 9.576-8.616 0.013-0.022 1.648-7.668 1.915-8.614 1.039-3.69 2.258-4.532 1.916-8.614 4.641 5.182-0.021 20.064-1.916 25.845-3.34-2.929-7.76-1.589-11.49-0.001" style="fill:#55bd00;clip-rule:evenodd;fill-rule:evenodd"/><path id="path265" d="m0.15 0.031h250.53c1.542 0 27.183-0.119 27.183 0.107v52.645 74.483c0 11.988 1.732 11.557-9.82 11.557h-240.71-26.703c-1.039 0-0.48-28.806-0.48-31.114 0.003-35.904 0.003-71.796 0.003-107.69" style="clip-rule:evenodd;fill:none"/><path id="path267" d="m117.94 98.621c5.597-3.288 5.026-1.884 7.66-6.701 1.546-2.828 3.459-9.281 3.831-12.442 0.708 5.194-2.244 15.26-3.831 20.102-2.3-2.05-4.84-2.403-7.66-0.959" style="fill:#2e9600;clip-rule:evenodd;fill-rule:evenodd"/><path id="path269" d="m0.15 0.031h250.53c1.542 0 27.183-0.119 27.183 0.107v52.645 74.483c0 11.988 1.732 11.557-9.82 11.557h-240.71-26.703c-1.039 0-0.48-28.806-0.48-31.114 0.003-35.904 0.003-71.796 0.003-107.69" style="clip-rule:evenodd;fill:none"/><path id="path271" d="m110.28 104.36c-3.821-7.695-1.589-30.995 1.915-39.245" style="stroke-width:0;stroke-miterlimit:10;fill:none"/><path id="path273" d="m129.43 79.478c0.708 5.194-2.244 15.26-3.831 20.102-3.336-2.928-7.755-1.588-11.491 0" style="stroke-width:0;stroke-miterlimit:10;fill:none"/><path id="path275" d="m110.28 79.478c1.063-4.606 1.837-9.584 4.787-13.4" style="stroke-width:0;stroke-miterlimit:10;fill:none"/><path id="path277" d="m0.15 0.031h250.53c1.542 0 27.183-0.119 27.183 0.107v52.645 74.483c0 11.988 1.732 11.557-9.82 11.557h-240.71-26.703c-1.039 0-0.48-28.806-0.48-31.114 0.003-35.904 0.003-71.796 0.003-107.69" style="clip-rule:evenodd;fill:none"/><path id="path279" d="m190.72 59.376c-9.807 0.862-20.91-2.507-22.025-13.4-1.34-13.087 7.689-15.153 18.089-14.287 23.161 1.93 58.639 4.297 77.674 19.073 4.934 3.83 11.839 14.39 6.704 20.102-7.532 8.379-13.875-1.742-17.238-5.743-12.56-14.948-47.48-17.118-63.2-5.745" style="fill:#80e800;clip-rule:evenodd;fill-rule:evenodd"/><path id="path281" d="m0.15 0.031h250.53c1.542 0 27.183-0.119 27.183 0.107v52.645 74.483c0 11.988 1.732 11.557-9.82 11.557h-240.71-26.703c-1.039 0-0.48-28.806-0.48-31.114 0.003-35.904 0.003-71.796 0.003-107.69" style="clip-rule:evenodd;fill:none"/><path id="path283" d="m184.01 59.376c10.465-9.418 29.794-12.038 43.377-9.323 8.531 1.705 15.83 3.971 23.657 7.888 5.893 2.949 5.767 11.754 11.491 14.837-6.263 0.902-6.895-4.211-9.097-8.614-2.391-4.777-11.007-7.273-15.518-9.076-7.879-3.148-18.8-1.453-27.098-1.453-9.28-0.001-17.81 7.059-26.81 5.741m-3.83-20.1c8.834 1.562 17.832 2.792 26.813 2.872-2.644 6.108-15.286 1.914-20.589 1.914-5.325 0-12.432 3.267-10.055-5.743 1.31 0.058 2.65 0.387 3.84 0.957" style="fill:#55bd00;clip-rule:evenodd;fill-rule:evenodd"/><path id="path285" d="m0.15 0.031h250.53c1.542 0 27.183-0.119 27.183 0.107v52.645 74.483c0 11.988 1.732 11.557-9.82 11.557h-240.71-26.703c-1.039 0-0.48-28.806-0.48-31.114 0.003-35.904 0.003-71.796 0.003-107.69" style="clip-rule:evenodd;fill:none"/><path id="path287" d="m189.76 59.376c11.225-8.655 35.159-10.444 48.164-5.246 5.479 2.189 11.206 3.333 15.518 7.64 3.843 3.839 1.603 10.399 9.097 11.008-6.673 0.962-5.571-4.028-8.618-7.657-3.494-4.162-7.074-6.482-12.448-8.615-15.5-6.152-37.03-4.508-51.71 2.87" style="fill:#2e9600;clip-rule:evenodd;fill-rule:evenodd"/><path id="path289" d="m0.15 0.031h250.53c1.542 0 27.183-0.119 27.183 0.107v52.645 74.483c0 11.988 1.732 11.557-9.82 11.557h-240.71-26.703c-1.039 0-0.48-28.806-0.48-31.114 0.003-35.904 0.003-71.796 0.003-107.69" style="clip-rule:evenodd;fill:none"/><path id="path291" d="m177.31 30.661c19.762-0.982 43.154 5.064 62.108 10.23 15.362 4.188 32.696 9.638 32.696 27.1 0 4.772-9.906 6.604-13.406 4.786-5.178-2.688-5.977-9.799-11.491-13.401-13.785-9.005-42.946-9.804-56.5 0" style="stroke-width:0;stroke-miterlimit:10;fill:none"/><path id="path293" d="m0.15 0.031h250.53c1.542 0 27.183-0.119 27.183 0.107v52.645 74.483c0 11.988 1.732 11.557-9.82 11.557h-240.71-26.703c-1.039 0-0.48-28.806-0.48-31.114 0.003-35.904 0.003-71.796 0.003-107.69" style="clip-rule:evenodd;fill:none"/><path id="path295" d="m253.92 65.12c0.571-3.92 11.875-5.247 15.322-3.829 7.021 2.887 2.872 8.947 2.872 14.357 0 7.965-10.813 10.982-16.279 5.743-2.92-2.8-3.76-11.449-1.91-16.271" style="fill:#80e800;clip-rule:evenodd;fill-rule:evenodd"/><path id="path297" d="m0.15 0.031h250.53c1.542 0 27.183-0.119 27.183 0.107v52.645 74.483c0 11.988 1.732 11.557-9.82 11.557h-240.71-26.703c-1.039 0-0.48-28.806-0.48-31.114 0.003-35.904 0.003-71.796 0.003-107.69" style="clip-rule:evenodd;fill:none"/><path id="path299" d="m273.07 69.905c0.268 7.371-4.874 17.952-14.364 13.401-5.643-2.706-7.11-12.07-4.788-19.145-0.444 5.327-0.614 12.974 3.831 15.315-0.345-1.062-0.779-1.754-0.958-2.872 1.295 2.476 2.793 4.154 5.745 3.829 4.687-0.516 1.231-0.269 5.268-4.309-0.225 0.226-0.978-4.85-0.479-6.221 1.246-3.425 2.639-4.838 4.787-6.7 2.08 2.267 1.59 3.88 0.95 6.702m-16.28 0c-2.802-1.305-2.031-3.162 0-4.785 0.611 1.526 1.44 3.068 1.915 4.785-0.545-1.196-1.302-1.959-1.915-3.828-1.73 2.013-0.33 2.778 0.01 3.828m0.96 1.916c0.126 0.908 0 1.952 0 2.87 1.04-1.54 0.16-1.701 0-2.87" style="fill:#55bd00;clip-rule:evenodd;fill-rule:evenodd"/><path id="path301" d="m0.15 0.031h250.53c1.542 0 27.183-0.119 27.183 0.107v52.645 74.483c0 11.988 1.732 11.557-9.82 11.557h-240.71-26.703c-1.039 0-0.48-28.806-0.48-31.114 0.003-35.904 0.003-71.796 0.003-107.69" style="clip-rule:evenodd;fill:none"/><path id="path303" d="m269.24 81.392c-3.859 4.587-11.535 3.372-14.364-0.957 3.37 3.67 10.48 4.202 14.36 0.957m3.83-11.487c0.138 3.796-1.078 8.737-3.352 11.008-3.342 3.339-15.188 1.761-14.843-3.35 5.58 11.549 17.24-0.323 18.19-7.658m-4.79 9.573c0.32-1.608-0.809-2.532 0.958-2.872-0.35 1.058-0.74 1.764-0.96 2.872m0-5.744c0.264-1.178-0.771-2.047 0.958-1.913-0.94 0.556-0.75 1.011-0.96 1.913m1.92 0c0.552-1.514 0.45-1.349 0.958-2.871 0.41 1.641-0.54 1.722-0.96 2.871m0-3.829c0.041-0.648 1.171-1.935 0-3.828 3.41 1.646 1.2 2.162 0 3.828" style="fill:#2e9600;clip-rule:evenodd;fill-rule:evenodd"/><path id="path305" d="m0.15 0.031h250.53c1.542 0 27.183-0.119 27.183 0.107v52.645 74.483c0 11.988 1.732 11.557-9.82 11.557h-240.71-26.703c-1.039 0-0.48-28.806-0.48-31.114 0.003-35.904 0.003-71.796 0.003-107.69" style="clip-rule:evenodd;fill:none"/><path id="path307" d="m257.75 69.905c-1.184-1.242-3.229-0.894-0.958-3.828 0.51 2.039 0.5 1.772 0.96 3.828m10.53 0c0.946-0.883 1.21-1.813 1.916-2.871 0.935 1.215 0.784 1.291 0.958 2.871-0.59 0-2.38-0.287-2.88 0" style="fill:#fff;clip-rule:evenodd;fill-rule:evenodd"/><path id="path309" d="m0.15 0.031h250.53c1.542 0 27.183-0.119 27.183 0.107v52.645 74.483c0 11.988 1.732 11.557-9.82 11.557h-240.71-26.703c-1.039 0-0.48-28.806-0.48-31.114 0.003-35.904 0.003-71.796 0.003-107.69" style="clip-rule:evenodd;fill:none"/><path id="path311" d="m256.79 69.905c-0.079-0.632-1.778-1.135 0-2.871 1.02 1.507-0.11 1.948 0 2.871m11.49 0c0.651-0.29 1.406-1.404 1.916-1.914 0.814 0.943 0.702 0.669 0.958 1.914-0.69 0-2.26-0.275-2.88 0" style="fill:#f90;clip-rule:evenodd;fill-rule:evenodd"/><path id="path313" d="m0.15 0.031h250.53c1.542 0 27.183-0.119 27.183 0.107v52.645 74.483c0 11.988 1.732 11.557-9.82 11.557h-240.71-26.703c-1.039 0-0.48-28.806-0.48-31.114 0.003-35.904 0.003-71.796 0.003-107.69" style="clip-rule:evenodd;fill:none"/><path id="path315" d="m259.67 76.605c-1.05-1.051-1.05-1.051 0 0m5.74 0.958c1.05-1.051 1.05-1.051 0 0m-9.57-8.615c1.47-0.898 1.14-0.698 0 0m14.36 0.957c-0.6-1.501-0.6-1.501 0 0" style="clip-rule:evenodd;fill-rule:evenodd"/><path id="path317" d="m0.15 0.031h250.53c1.542 0 27.183-0.119 27.183 0.107v52.645 74.483c0 11.988 1.732 11.557-9.82 11.557h-240.71-26.703c-1.039 0-0.48-28.806-0.48-31.114 0.003-35.904 0.003-71.796 0.003-107.69" style="clip-rule:evenodd;fill:none"/><path id="path319" d="m272.12 63.205c4.567 5.951-0.695 19.369-7.66 21.059-10.385 2.52-13.508-11.406-10.534-19.144" style="stroke-width:0;stroke-miterlimit:10;fill:none"/><path id="path321" d="m270.2 80.435c-3.928 3.778-12.166 1.804-15.322-0.957" style="stroke-width:0;stroke-miterlimit:10;fill:none"/><path id="path323" d="m257.75 78.521c-0.747-0.438-1.094-1.061-0.958-1.915" style="stroke-width:0;stroke-miterlimit:10;fill:none"/><path id="path325" d="m259.67 76.605c-1.05-1.051-1.05-1.051 0 0" style="stroke-width:0;stroke-miterlimit:10;fill:none"/><path id="path327" d="m265.41 77.563c0.7-1.144 0.9-1.473 0 0" style="stroke-width:0;stroke-miterlimit:10;fill:none"/><path id="path329" d="m268.28 79.478c-0.135-0.854 0.211-1.476 0.958-1.914" style="stroke-width:0;stroke-miterlimit:10;fill:none"/><path id="path331" d="m257.75 73.734v-1.913" style="stroke-width:0;stroke-miterlimit:10;fill:none"/><path id="path333" d="m268.28 73.734v-0.957" style="stroke-width:0;stroke-miterlimit:10;fill:none"/><path id="path335" d="m256.79 66.077c0.499 2.032 0.45 1.799 0.958 3.828h-1.916c-0.43-1.79 0.85-2.648 0.96-3.828" style="stroke-width:0;stroke-miterlimit:10;fill:none"/><path id="path337" d="m257.75 67.034c-0.644-1.258-1.405-2.945-1.916-0.957" style="stroke-width:0;stroke-miterlimit:10;fill:none"/><path id="path339" d="m270.2 67.034c0.035 0.942 1.345 1.319 0.958 2.871-0.839 0.115-2.032 0.095-2.874 0 0.66-1.001 1.42-1.797 1.91-2.871" style="stroke-width:0;stroke-miterlimit:10;fill:none"/><path id="path341" d="m269.24 67.991c0.425-0.694 1.338-1.336 1.916-1.914-0.235 1.487 0.564 0.861 0.956 1.914" style="stroke-width:0;stroke-miterlimit:10;fill:none"/><path id="path343" d="m0.15 0.031h250.53c1.542 0 27.183-0.119 27.183 0.107v52.645 74.483c0 11.988 1.732 11.557-9.82 11.557h-240.71-26.703c-1.039 0-0.48-28.806-0.48-31.114 0.003-35.904 0.003-71.796 0.003-107.69" style="clip-rule:evenodd;fill:none"/><path id="path345" d="m255.84 80.435c-1.481-2.631-2.109-4.095-4.787-0.957 0.318-0.319 0.638-0.638 0.956-0.957-0.512 0.534-1.612 1.248-1.914 1.914 0.292 1.762 0.571 2.501 0 4.786 0.319-0.319 0.639-0.638 0.958-0.957-0.319 0.319-0.639 0.638-0.958 0.957 0.114 0.982-0.438 3.75-0.958 4.786 0.319 0.318 0.639 0.638 0.958 0.956 0.839-1.725-0.494-0.405 0.958 0v-1.913 1.913l0.956-0.956v1.913c0.319-0.319 0.639-0.638 0.958-0.957 0.846 1.953 0.274 1.315 1.916 2.873-1.164-0.842-0.051-0.398 0.957 0-0.164-0.556-1.135-3.268-0.957-2.873 0.842-2.723 0.619-4.199-0.958-6.699 0.319 0.319 0.639 0.638 0.958 0.957 0.017-0.59-0.298-2.382 0-2.872 0.319 0.319 0.638 0.639 0.957 0.958v-1.915c1.14 1.334 0.29 0.12-0.02-0.957m14.36 0c-0.987 0.923-1.918 1.916-2.873 2.872 1.611 1.049-0.014 0.244 0.957 1.914 0.319-0.319 0.639-0.638 0.958-0.957-0.775 2.264-0.183 1.564-0.958 3.829l0.958-0.958c0.357 1.918-0.4 1.031 0.958 1.915v0c0.391-1.895 0.576-1.442 0.958-2.873 1.063 1.49 0.481 0.461 0.956 0 0.319 0.639 0.639 1.277 0.958 1.916 1.038-2.694 0.28-5.335 0-5.744-1.24-0.43-1.87-1.33-2.89-1.914" style="fill:#c1e000;clip-rule:evenodd;fill-rule:evenodd"/><path id="path347" d="m255.84 80.435c-1.481-2.631-2.109-4.095-4.787-0.957 0.318-0.319 0.638-0.638 0.956-0.957-0.512 0.534-1.612 1.248-1.914 1.914 0.292 1.762 0.571 2.501 0 4.786 0.319-0.319 0.639-0.638 0.958-0.957-0.319 0.319-0.639 0.638-0.958 0.957 0.114 0.982-0.438 3.75-0.958 4.786 0.319 0.318 0.639 0.638 0.958 0.956 0.839-1.725-0.494-0.405 0.958 0v-1.913 1.913l0.956-0.956v1.913c0.319-0.319 0.639-0.638 0.958-0.957 0.846 1.953 0.274 1.315 1.916 2.873-1.164-0.842-0.051-0.398 0.957 0-0.164-0.556-1.135-3.268-0.957-2.873 0.842-2.723 0.619-4.199-0.958-6.699 0.319 0.319 0.639 0.638 0.958 0.957 0.017-0.59-0.298-2.382 0-2.872 0.319 0.319 0.638 0.639 0.957 0.958v-1.915c1.14 1.334 0.29 0.12-0.02-0.957" style="stroke-width:0;stroke-miterlimit:10;fill:none"/><path id="path349" d="m270.2 80.435c-0.987 0.923-1.918 1.916-2.873 2.872 1.611 1.049-0.014 0.244 0.957 1.914 0.319-0.319 0.639-0.638 0.958-0.957-0.775 2.264-0.183 1.564-0.958 3.829l0.958-0.958c0.357 1.918-0.4 1.031 0.958 1.915v0c0.391-1.895 0.576-1.442 0.958-2.873 1.063 1.49 0.481 0.461 0.956 0 0.319 0.639 0.639 1.277 0.958 1.916 1.038-2.694 0.28-5.335 0-5.744-1.24-0.43-1.87-1.33-2.89-1.914" style="stroke-width:0;stroke-miterlimit:10;fill:none"/><path id="path351" d="m254.88 78.521c-1.803 0.306-2.753 1.794-2.874 3.828" style="stroke-width:0;stroke-miterlimit:10;fill:none"/><path id="path353" d="m251.05 84.264c1.72-1.253 2.985-1.256 2.872-3.829 1.348 1.692 0.726 0.271 0.958-0.957" style="stroke-width:0;stroke-miterlimit:10;fill:none"/><path id="path355" d="m254.88 81.392v-1.914" style="stroke-width:0;stroke-miterlimit:10;fill:none"/><path id="path357" d="m252.96 83.307c-0.679 1.353-1.238 2.474-1.914 3.828" style="stroke-width:0;stroke-miterlimit:10;fill:none"/><path id="path359" d="m251.05 90.007c0.443-0.726 0.37-2.997 0.956-0.957 1.216-1.055-0.402-2.338 0.958-0.957 1.27-0.943 0.637-1.545 0.958-2.872" style="stroke-width:0;stroke-miterlimit:10;fill:none"/><path id="path361" d="m252.96 87.135c-0.285 1.724 0.028 3.329 0.958 4.785" style="stroke-width:0;stroke-miterlimit:10;fill:none"/><path id="path363" d="m271.16 86.177c0.331-1.495 0.135-1.752 0.956-2.87-0.443-0.152-1.5-0.775-1.914-0.958 1.265 0.136 0.499-0.968 0-1.914" style="stroke-width:0;stroke-miterlimit:10;fill:none"/><path id="path365" d="m269.24 81.392c0.814 1.156 1.136 2.433 0.958 3.829" style="stroke-width:0;stroke-miterlimit:10;fill:none"/><path id="path367" d="m271.16 83.307c0.746 0.439 1.091 1.061 0.956 1.914" style="stroke-width:0;stroke-miterlimit:10;fill:none"/><path id="path369" d="m0.15 0.031h250.53c1.542 0 27.183-0.119 27.183 0.107v52.645 74.483c0 11.988 1.732 11.557-9.82 11.557h-240.71-26.703c-1.039 0-0.48-28.806-0.48-31.114 0.003-35.904 0.003-71.796 0.003-107.69" style="clip-rule:evenodd;fill:none"/><metadata/></svg>