<?xml version="1.0" standalone="no"?>
<!DOCTYPE svg PUBLIC "-//W3C//DTD SVG 20010904//EN"
 "http://www.w3.org/TR/2001/REC-SVG-20010904/DTD/svg10.dtd">
<svg version="1.0" xmlns="http://www.w3.org/2000/svg"
 width="595.000000pt" height="501.000000pt" viewBox="0 0 595.000000 501.000000"
 preserveAspectRatio="xMidYMid meet">

<g transform="translate(0.000000,501.000000) scale(0.100000,-0.100000)"
fill="#000000" stroke="none">
<path d="M17 4975 c-19 -40 -23 -155 -7 -186 7 -13 7 -19 0 -19 -6 0 -10 -40
-10 -107 l0 -108 21 32 c12 18 25 30 30 27 8 -5 12 20 13 89 0 15 3 27 8 27 4
0 5 7 2 15 -4 8 -2 15 3 15 5 0 14 -15 21 -34 19 -52 69 -116 86 -110 17 7 6
46 -22 78 -16 18 -16 19 1 13 26 -9 21 5 -13 40 -27 27 -30 37 -26 72 3 22 1
43 -5 46 -5 4 -9 -15 -9 -44 0 -39 -4 -51 -15 -51 -8 0 -15 5 -15 10 0 6 -8
10 -17 8 -14 -2 -19 5 -21 29 -2 18 1 41 7 50 10 17 10 17 11 1 0 -10 5 -18
10 -18 6 0 10 8 10 17 0 30 24 83 38 83 7 0 10 -5 7 -11 -4 -6 -1 -16 7 -22 8
-7 22 -38 32 -69 25 -83 80 -142 101 -108 3 5 -4 28 -15 51 -20 38 -20 42 -4
53 13 10 14 17 6 32 -6 10 -23 45 -36 77 l-26 57 -78 0 -78 0 -17 -35z"/>
<path d="M250 5004 c0 -4 5 -24 12 -46 16 -53 42 -48 46 10 3 41 2 42 -27 42
-17 0 -31 -3 -31 -6z"/>
<path d="M864 4997 c37 -23 65 -59 82 -105 9 -26 28 -72 42 -102 30 -63 29
-87 -2 -150 -16 -31 -25 -74 -30 -135 -7 -87 -33 -185 -48 -185 -5 0 -8 -10
-8 -23 0 -13 -5 -28 -11 -34 -7 -7 -13 -31 -15 -54 -3 -24 -10 -47 -17 -51 -6
-4 -8 -8 -3 -8 4 0 1 -12 -9 -26 -9 -14 -14 -32 -11 -39 2 -7 -2 -19 -9 -25
-8 -7 -12 -16 -9 -21 2 -5 -1 -28 -7 -51 -7 -24 -13 -47 -14 -53 0 -5 -6 -23
-13 -38 -7 -16 -12 -32 -12 -36 0 -5 -6 -14 -14 -20 -11 -9 -15 -4 -20 29 -9
59 -52 150 -70 150 -9 0 -16 5 -16 11 0 5 5 7 10 4 6 -3 10 -1 10 4 0 25 -34
4 -65 -39 -11 -15 -15 -18 -11 -7 4 13 2 17 -6 14 -7 -2 -12 -10 -10 -16 1 -6
-9 -17 -23 -23 -14 -6 -25 -14 -25 -18 0 -4 -9 -10 -20 -13 -11 -3 -20 -12
-20 -21 0 -9 -4 -16 -9 -16 -21 0 -66 -155 -48 -167 6 -4 3 -11 -7 -19 -10 -7
-15 -17 -11 -23 3 -6 -1 -11 -10 -11 -11 0 -15 -5 -11 -15 3 -8 9 -23 13 -32
5 -12 2 -15 -10 -10 -20 8 -40 -24 -35 -56 1 -12 -1 -28 -6 -35 -4 -7 -3 -19
3 -26 9 -11 8 -17 -2 -28 -13 -13 -31 -65 -32 -94 0 -6 -6 -18 -13 -27 -9 -10
-10 -17 -2 -22 6 -3 8 -11 4 -16 -3 -5 0 -16 6 -25 10 -11 16 -12 27 -3 26 22
36 -4 19 -47 -10 -23 -11 -33 -3 -23 6 8 19 18 28 21 11 4 18 21 21 48 5 54
-6 72 -27 45 -16 -19 -16 -19 -10 10 8 38 11 41 29 26 15 -13 32 1 22 18 -3 5
1 12 10 15 12 4 14 13 10 31 -5 18 -2 27 9 31 8 3 13 10 10 14 -7 11 12 64 53
152 38 79 48 91 54 61 2 -9 17 -21 35 -27 30 -11 31 -12 17 -36 l-15 -25 7 25
7 25 -22 -20 c-15 -12 -21 -27 -18 -42 2 -12 -3 -30 -12 -40 -15 -17 -49 -83
-52 -101 0 -4 -4 -14 -9 -22 -4 -8 -3 -24 1 -35 9 -18 9 -18 5 3 -3 14 3 27
15 35 10 8 16 17 11 22 -4 5 -2 5 5 2 13 -8 12 -23 -5 -53 -6 -12 -9 -24 -5
-27 3 -4 0 -13 -7 -22 -7 -8 -9 -15 -6 -15 4 0 -2 -10 -14 -22 -11 -12 -18
-23 -16 -26 8 -7 41 34 65 80 24 47 45 65 56 47 4 -5 -1 -12 -9 -15 -19 -7
-21 -34 -3 -34 8 0 21 8 30 18 20 22 45 102 39 121 -3 8 0 11 6 7 12 -7 38 32
28 42 -3 3 -6 0 -6 -6 0 -6 -7 -9 -15 -6 -19 8 -20 24 -1 24 8 0 18 5 22 12 5
8 2 9 -9 5 -10 -3 -17 -2 -17 4 0 18 50 88 71 99 20 11 20 12 3 31 -10 11 -12
19 -6 19 7 0 12 7 12 15 0 8 6 15 13 15 9 0 9 2 -1 9 -11 7 -11 10 0 22 7 8
14 26 16 41 1 15 14 50 27 77 14 27 25 52 25 57 0 4 8 17 19 28 10 12 31 44
46 71 15 28 32 56 37 63 6 6 7 12 3 12 -4 0 3 10 16 23 13 12 35 45 49 72 14
28 29 53 34 56 5 4 6 16 3 28 -3 12 -2 21 3 21 15 0 20 30 9 57 -7 19 -7 29 0
31 6 2 11 10 11 18 0 9 -5 12 -11 9 -6 -4 -9 4 -7 22 3 31 38 57 50 38 4 -7 3
-27 -2 -46 -13 -44 -22 -191 -10 -164 5 11 9 29 9 40 1 11 6 27 11 35 9 13 11
13 19 1 8 -12 11 -8 16 15 4 16 9 36 11 44 3 8 12 49 19 90 8 41 21 107 30
145 8 39 13 80 10 93 -3 12 -1 22 5 22 5 0 10 7 10 15 0 19 62 45 106 45 19 0
34 5 34 10 0 6 28 10 65 10 72 0 67 4 132 -105 19 -33 40 -77 44 -98 8 -33 6
-42 -15 -70 -13 -18 -37 -69 -52 -114 -25 -72 -27 -85 -15 -107 l14 -25 28 57
c15 31 30 69 34 85 9 35 22 34 30 -3 4 -20 1 -37 -9 -52 -9 -12 -16 -29 -16
-38 0 -16 -172 -194 -207 -214 -10 -6 -35 -25 -54 -43 -70 -66 -143 -123 -157
-123 -8 0 -12 -6 -9 -14 4 -9 1 -13 -6 -10 -7 2 -21 -12 -31 -31 -11 -20 -36
-45 -57 -57 -27 -15 -36 -26 -35 -44 0 -13 4 -24 9 -24 17 0 4 -17 -33 -44
-22 -17 -40 -36 -40 -43 0 -7 -5 -13 -10 -13 -6 0 -10 6 -9 13 1 6 -1 20 -6
30 -4 10 -1 35 8 60 17 45 24 227 9 227 -15 0 -39 -34 -46 -65 -4 -16 -11 -46
-15 -65 -5 -19 -16 -75 -25 -125 -9 -49 -21 -112 -26 -138 -6 -27 -7 -53 -4
-59 3 -5 -1 -17 -9 -26 -21 -25 -59 -102 -55 -114 2 -5 19 11 37 37 24 33 39
45 51 42 13 -3 17 0 13 9 -3 8 0 14 7 14 7 0 10 7 6 15 -4 10 1 15 14 15 11 0
32 14 47 31 16 17 37 36 48 42 11 6 1 -10 -23 -35 -55 -58 -71 -80 -69 -100 1
-9 -2 -17 -8 -17 -10 0 -22 -32 -24 -63 -1 -12 4 -15 14 -12 8 4 15 12 15 19
0 7 9 15 19 18 10 2 28 24 38 48 11 24 27 50 37 58 10 8 14 21 11 32 -4 11 -2
19 4 19 10 0 22 9 98 74 19 16 41 46 50 65 16 40 141 151 169 151 15 0 15 -2
-1 -26 -9 -14 -14 -28 -12 -31 3 -2 -15 -25 -39 -51 -40 -41 -49 -56 -41 -65
1 -2 -22 -28 -51 -59 -29 -31 -67 -74 -84 -97 -32 -45 -40 -50 -32 -23 3 9 -6
-1 -20 -23 -14 -22 -24 -46 -21 -53 3 -7 1 -11 -4 -8 -5 3 -11 -3 -14 -14 -3
-11 -1 -18 4 -14 5 3 9 0 9 -5 0 -6 -4 -11 -10 -11 -5 0 -10 -7 -10 -15 0 -8
-6 -15 -14 -15 -7 0 -19 -14 -26 -30 -7 -17 -22 -35 -32 -41 -11 -6 -17 -13
-15 -16 6 -5 -44 -116 -63 -138 -7 -8 -9 -15 -4 -15 5 0 1 -7 -10 -15 -10 -8
-16 -21 -13 -29 4 -9 2 -18 -4 -22 -5 -3 -7 -14 -4 -24 3 -11 -1 -32 -9 -48
-8 -16 -25 -58 -37 -93 -12 -35 -25 -68 -29 -74 -14 -20 -39 -106 -34 -119 3
-8 1 -17 -5 -21 -6 -3 -11 -21 -11 -40 0 -19 -5 -37 -10 -40 -6 -3 -10 -14
-10 -23 0 -9 -12 -39 -25 -67 -13 -27 -22 -51 -19 -54 7 -7 44 36 44 52 0 8 7
20 15 27 9 7 14 19 11 26 -11 29 63 214 86 214 12 0 10 -9 -10 -38 -10 -15
-23 -45 -30 -66 -13 -45 0 -36 16 10 16 48 61 114 77 114 17 0 20 -25 5 -35
-5 -3 -10 -11 -10 -17 0 -20 28 12 35 39 3 15 14 33 23 40 16 12 16 13 -1 7
-13 -5 -16 -2 -11 10 3 9 13 16 21 16 10 0 12 6 8 20 -3 11 -2 20 3 20 10 0
23 50 22 88 0 13 10 32 23 43 12 10 16 18 9 19 -10 0 -10 5 -1 21 7 15 8 24 0
32 -7 7 -2 16 15 29 16 13 23 26 19 38 -3 9 1 23 10 30 8 7 15 18 15 24 0 6 9
22 20 36 11 14 20 32 20 41 0 8 8 24 18 35 10 10 29 37 42 59 34 57 184 241
241 298 27 26 49 50 49 53 0 3 13 17 30 31 16 13 30 31 30 39 0 8 6 11 15 8 8
-4 15 -1 15 5 0 20 -32 11 -70 -19 -21 -16 -41 -30 -45 -30 -4 0 -18 -11 -31
-25 -13 -14 -28 -25 -33 -25 -6 0 -19 -10 -31 -22 -27 -29 -36 -18 -10 13 34
39 70 99 70 115 0 8 7 17 14 20 8 3 27 22 42 41 l27 36 -22 19 c-23 18 -23 18
-2 18 12 0 24 7 28 15 9 26 127 135 145 135 21 0 34 20 19 30 -9 5 -7 11 5 21
16 12 17 12 11 -3 -4 -11 0 -21 10 -26 13 -8 11 -12 -12 -28 -15 -10 -35 -26
-44 -35 -10 -8 -24 -18 -33 -21 -23 -9 -30 -48 -10 -48 14 0 14 -2 3 -9 -7 -5
-11 -13 -8 -18 4 -6 -7 -20 -24 -32 -44 -32 -31 -35 29 -6 29 14 58 25 65 25
7 0 22 7 33 15 10 8 27 15 37 15 28 0 20 -27 -13 -42 -27 -12 -41 -29 -22 -27
22 2 67 38 67 54 0 10 5 20 12 22 23 8 1 -82 -38 -155 -39 -73 -46 -105 -31
-130 9 -14 42 21 74 80 l17 30 7 -38 c4 -20 3 -43 -2 -49 -70 -92 -100 -164
-75 -180 13 -7 41 22 41 43 0 21 27 62 41 62 5 0 9 -11 9 -25 0 -14 -4 -25
-10 -25 -30 0 -42 -228 -12 -238 8 -2 13 -28 13 -70 l2 -67 10 73 c5 39 14 72
18 72 5 0 9 23 9 51 0 53 14 59 25 10 3 -16 12 -35 20 -41 15 -12 -13 86 -41
145 -17 36 -17 40 -14 138 l3 68 21 -34 c11 -19 27 -32 34 -30 7 3 21 -6 31
-19 16 -18 20 -20 24 -8 3 8 10 35 18 60 17 60 25 68 33 30 4 -24 -2 -48 -24
-93 -17 -37 -30 -82 -32 -112 -3 -55 11 -63 27 -16 11 34 31 57 22 26 -3 -11
-15 -46 -26 -78 -30 -85 -38 -155 -18 -162 9 -4 13 -14 9 -27 -4 -18 -3 -19
16 -7 38 24 58 113 25 107 -20 -3 -20 -6 -5 77 6 33 14 96 18 140 l7 80 14
-34 c11 -27 17 -31 24 -20 21 33 -4 188 -34 214 -10 8 -18 125 -9 125 2 0 13
-12 26 -27 33 -39 61 -26 51 24 -8 43 -57 118 -88 134 -54 30 -54 37 4 91 50
46 54 48 57 28 2 -12 12 -24 22 -27 15 -4 17 -13 13 -67 -4 -38 -1 -71 6 -84
13 -24 46 -30 54 -9 3 6 6 -3 6 -20 1 -19 6 -33 13 -33 7 0 3 -7 -9 -15 -55
-38 -65 -144 -25 -260 11 -33 26 -82 34 -108 7 -27 18 -47 23 -45 6 1 10 35 9
76 0 39 1 72 3 72 2 0 16 -14 30 -30 14 -17 27 -29 29 -27 6 6 -22 111 -35
136 -6 11 -20 26 -32 34 -17 12 -20 23 -16 68 3 43 5 49 11 31 5 -13 14 -21
20 -19 20 7 18 46 -8 135 -27 89 -31 126 -20 181 l7 32 18 -31 c21 -33 31 -37
48 -16 9 11 5 30 -20 85 -17 39 -36 71 -40 71 -20 0 -7 19 29 42 20 14 50 25
67 24 l30 -1 -3 -74 c-3 -63 -2 -73 11 -68 11 4 18 -3 23 -26 4 -18 15 -48 25
-67 11 -20 19 -55 19 -82 0 -27 4 -48 9 -48 5 0 12 -10 15 -22 3 -13 3 20 1
73 -2 73 -8 106 -24 137 -12 23 -25 71 -30 107 -5 37 -16 77 -25 89 -30 46 4
54 153 35 119 -15 133 -18 126 -28 -3 -5 1 -11 7 -14 8 -2 0 -15 -22 -33 -19
-16 -48 -41 -65 -56 l-30 -27 32 -1 c17 0 43 -4 57 -10 23 -9 24 -12 14 -42
-6 -18 -16 -40 -23 -48 -7 -8 -16 -25 -19 -36 -5 -17 -2 -23 18 -28 13 -3 32
-3 41 1 14 5 16 2 11 -15 -19 -68 -19 -64 3 -50 12 7 21 16 21 21 0 4 5 5 11
2 7 -5 6 -12 -4 -23 -22 -26 -37 -80 -37 -133 0 -48 12 -64 24 -34 7 19 26 20
26 1 0 -7 -24 -65 -54 -127 -30 -63 -58 -127 -62 -144 -7 -29 -7 -30 13 -12
11 9 27 15 35 12 9 -4 25 5 41 24 33 39 40 30 16 -22 -30 -68 -22 -218 15
-255 9 -9 18 -13 22 -9 11 11 14 194 4 222 -13 35 1 31 22 -5 9 -17 25 -30 34
-30 25 0 13 75 -25 154 -35 73 -40 109 -15 99 20 -7 34 13 34 49 0 33 -32 109
-54 127 -9 7 -16 22 -16 32 0 17 3 17 20 7 39 -25 44 26 10 97 -16 34 -20 49
-11 58 6 6 12 9 13 6 2 -2 13 -18 26 -36 18 -26 22 -44 20 -98 -2 -59 0 -68
25 -93 23 -23 29 -25 37 -12 13 21 40 114 40 139 0 28 16 26 48 -6 22 -22 24
-28 11 -31 -30 -6 -87 -168 -76 -214 4 -13 15 -28 26 -35 17 -11 22 -9 39 20
11 18 25 56 32 84 6 29 16 51 20 48 5 -3 16 -30 26 -60 12 -41 14 -59 6 -67
-15 -15 3 -48 28 -48 23 0 32 -13 24 -34 -7 -19 -55 -21 -72 -4 -7 7 -12 20
-12 30 0 28 -13 22 -53 -24 -45 -51 -66 -94 -73 -150 -12 -93 -10 -110 13
-125 20 -14 25 -12 67 27 45 42 46 42 46 17 0 -16 -8 -30 -19 -37 -11 -5 -33
-30 -50 -55 -67 -99 -70 -121 -25 -181 l23 -31 -40 -39 c-23 -23 -39 -47 -39
-61 0 -13 -7 -35 -16 -48 -15 -24 -15 -25 3 -25 11 0 28 10 39 21 l19 21 6
-48 c3 -29 0 -67 -8 -93 -20 -68 -17 -91 11 -91 32 0 42 -15 55 -84 11 -61 25
-86 46 -86 15 0 28 76 24 142 -3 53 5 68 37 68 17 0 24 5 24 19 0 11 -3 22 -7
24 -5 3 -7 43 -5 89 1 45 3 91 3 100 0 9 6 22 14 28 10 9 13 -11 12 -107 -1
-65 2 -153 5 -196 7 -71 6 -78 -13 -90 -37 -22 -78 -127 -50 -127 5 0 23 16
40 35 27 31 32 33 37 18 3 -10 10 -30 16 -45 5 -15 6 -33 2 -40 -5 -7 -9 -22
-10 -34 0 -12 -8 -32 -17 -45 -17 -23 -22 -60 -11 -72 3 -3 17 6 30 21 l23 27
16 -22 c19 -27 73 -55 81 -42 11 18 -7 62 -37 90 -23 21 -32 42 -43 100 -8 41
-17 86 -21 102 -5 20 -4 27 8 27 8 0 17 -10 20 -23 8 -31 88 -91 99 -75 11 18
10 92 -2 122 -8 22 -7 26 10 26 17 0 18 4 10 26 -14 36 -13 42 12 46 26 4 39
42 26 78 -5 13 -29 49 -54 78 -30 38 -44 64 -44 84 l0 31 22 -29 c32 -43 81
-94 90 -94 4 0 8 23 8 51 0 66 -32 124 -82 150 -32 16 -38 25 -38 51 l0 31 21
-27 c34 -43 34 -22 1 36 -33 57 -40 90 -28 126 11 32 20 27 36 -20 11 -32 21
-44 38 -46 23 -3 24 -1 22 45 -2 26 -2 65 -1 86 1 34 3 37 20 28 14 -8 22 -6
35 8 22 25 16 65 -18 119 l-26 42 34 0 c35 0 44 -11 51 -60 2 -14 8 -45 14
-70 6 -25 11 -63 11 -86 0 -33 -5 -44 -29 -62 -37 -27 -64 -106 -65 -187 -1
-53 1 -60 19 -63 28 -4 75 68 84 128 6 40 8 42 15 20 4 -14 14 -42 23 -63 15
-35 15 -40 -1 -74 -9 -20 -20 -54 -23 -77 -3 -22 -9 -51 -14 -64 -16 -41 -11
-51 21 -49 24 2 32 8 37 27 3 14 12 33 19 43 12 18 12 18 19 -2 3 -12 10 -21
13 -21 4 0 22 -13 40 -30 18 -16 44 -30 56 -30 44 0 86 13 86 26 0 32 -99 102
-182 128 -11 3 -18 15 -18 29 0 13 -11 45 -24 73 -29 59 -60 160 -52 173 3 5
-1 63 -10 130 -16 121 -13 172 6 141 6 -8 10 -34 10 -57 0 -23 4 -45 10 -48
17 -10 0 118 -19 145 -10 14 -32 34 -49 45 -17 11 -31 28 -32 38 0 9 -4 17
-10 17 -5 0 -10 7 -10 15 0 8 -11 36 -24 62 -14 27 -32 71 -40 100 -17 58 -80
145 -132 182 -19 13 -34 28 -34 32 0 4 26 15 58 25 31 9 80 23 107 32 58 17
202 20 260 4 22 -6 73 -14 113 -18 39 -4 72 -11 72 -15 0 -4 -11 -25 -25 -45
-14 -20 -25 -42 -25 -48 0 -6 -12 -33 -25 -61 -14 -27 -28 -66 -31 -86 -5 -27
-14 -40 -41 -54 -38 -21 -93 -105 -93 -142 0 -19 7 -15 50 28 28 27 50 55 50
60 0 6 9 8 20 4 15 -5 20 -2 20 14 0 11 4 23 10 26 5 3 10 0 10 -9 0 -17 47
-76 61 -76 5 0 17 15 25 34 21 43 13 90 -25 146 -33 49 -30 76 14 140 14 20
25 44 25 53 0 9 3 17 8 17 4 0 63 -28 131 -62 136 -69 237 -148 225 -177 -12
-30 -22 -81 -15 -81 7 0 34 61 32 73 -4 21 44 -7 102 -62 20 -19 37 -39 37
-44 0 -6 13 -31 29 -57 27 -44 36 -83 58 -242 4 -32 9 -38 29 -38 47 0 48 35
5 133 -12 27 -21 51 -21 53 0 12 116 -58 128 -76 10 -16 9 -21 -8 -30 -23 -12
-50 -96 -50 -154 1 -23 7 -58 14 -78 13 -36 13 -37 -23 -64 -44 -32 -101 -105
-101 -127 0 -9 6 -19 13 -24 18 -11 61 -3 70 13 5 8 12 12 17 9 5 -3 15 3 22
15 7 11 21 20 30 20 16 0 16 -2 -2 -20 -11 -11 -26 -34 -33 -52 -8 -18 -35
-52 -61 -76 -25 -23 -46 -44 -46 -47 0 -2 25 7 55 21 73 32 83 31 77 -5 -3
-20 2 -35 16 -49 19 -19 19 -20 -4 -66 -29 -58 -29 -56 0 -56 13 0 44 16 68
35 45 34 67 73 69 124 l1 26 8 -25 c11 -36 1 -81 -25 -110 -23 -26 -57 -118
-49 -132 3 -5 17 1 31 12 33 26 40 25 47 -4 7 -30 40 -51 89 -59 30 -5 39 -2
44 10 4 9 1 19 -5 21 -7 2 -22 22 -33 44 -17 33 -18 42 -8 49 20 12 15 123 -6
156 -17 25 -17 26 1 18 59 -25 93 -34 122 -35 39 0 42 14 6 33 -14 7 -35 31
-47 53 -17 30 -37 46 -84 69 -60 29 -62 31 -63 70 0 22 -3 57 -6 78 -3 20 -4
37 -1 37 2 0 28 -22 57 -50 56 -53 74 -60 88 -34 22 39 -18 123 -73 156 -28
16 -32 23 -24 36 19 30 -6 97 -49 131 -20 17 -46 31 -57 31 -12 0 -36 18 -58
44 -20 25 -64 62 -97 83 -33 21 -62 45 -65 54 -3 8 -19 29 -37 45 -17 16 -27
22 -23 14 6 -11 5 -12 -4 -4 -7 6 -13 18 -15 25 -5 34 -32 63 -97 105 -38 24
-89 65 -111 89 -23 25 -45 45 -50 45 -4 0 -31 15 -60 33 -102 64 -182 96 -320
126 -118 26 -152 29 -239 25 -70 -3 -115 -11 -144 -24 -23 -10 -76 -22 -118
-26 -71 -6 -79 -5 -124 21 -26 16 -73 52 -103 81 -30 28 -77 62 -105 75 -27
12 -64 33 -81 46 -19 14 -78 34 -160 53 -71 17 -157 38 -192 46 -35 9 -66 14
-69 10 -4 -3 4 -6 17 -6 39 0 9 -17 -42 -24 -46 -7 -48 -6 -48 18 0 14 -11 37
-25 52 -35 37 -31 52 13 59 20 4 46 10 57 14 17 7 14 10 -20 20 -62 17 -88 15
-82 -8 4 -17 2 -18 -20 -8 -13 6 -22 16 -19 22 5 14 -100 88 -114 80 -5 -3
-29 0 -52 7 -38 11 -40 13 -17 18 23 6 23 7 -8 14 -21 5 -35 16 -43 37 -10 23
-19 29 -42 29 -30 0 -30 -1 -14 -22 9 -13 21 -34 26 -48 41 -102 92 -197 112
-207 13 -7 20 -13 15 -13 -11 0 42 -100 53 -100 19 0 -1 74 -29 105 -25 29
-91 146 -91 162 0 3 19 3 43 1 55 -6 111 -43 134 -88 10 -19 27 -42 38 -51 15
-13 19 -27 16 -63 -2 -36 1 -46 13 -46 11 0 16 9 16 28 l1 27 13 -25 c14 -24
13 -25 -31 -47 -25 -12 -51 -19 -58 -16 -8 2 -41 -3 -75 -11 -76 -20 -101 -20
-126 -1 -18 14 -18 14 6 15 23 1 23 2 5 10 -11 5 -34 9 -50 9 -26 1 -33 7 -44
36 -24 68 -106 135 -165 135 -24 0 -56 28 -56 49 0 6 -19 32 -41 56 -23 25
-37 45 -31 45 6 0 10 13 9 30 -2 24 -7 30 -25 30 -17 0 -27 -8 -35 -30 -11
-28 -14 -30 -68 -30 -38 0 -61 -5 -69 -15 -7 -8 -29 -15 -49 -15 -20 -1 -47
-7 -60 -14 -23 -12 -27 -12 -43 9 -10 13 -18 26 -18 29 0 4 -10 20 -22 36 -18
25 -29 30 -64 30 l-41 0 3 -47 c4 -45 3 -47 -12 -28 -9 11 -20 32 -26 48 -10
26 -12 27 -81 26 -60 0 -69 -2 -53 -12z m867 -284 c17 -15 37 -56 54 -106 26
-78 26 -82 8 -95 -43 -32 -50 -33 -68 -6 -9 14 -14 32 -11 39 2 7 -6 23 -20
36 -15 14 -24 34 -24 51 0 16 -7 43 -16 59 -8 17 -13 38 -10 46 8 21 53 9 87
-24z m149 -155 c0 -5 -4 -8 -9 -8 -5 0 -16 -3 -25 -6 -13 -5 -16 1 -16 25 l0
32 25 -18 c13 -10 25 -21 25 -25z m-770 2 c0 -5 -7 -10 -15 -10 -8 0 -15 5
-15 10 0 6 7 10 15 10 8 0 15 -4 15 -10z m599 -106 c-16 -19 -29 -17 -29 4 0
26 11 34 27 21 10 -9 10 -15 2 -25z m201 2 c0 -2 -7 -7 -16 -10 -8 -3 -12 -2
-9 4 6 10 25 14 25 6z m908 -38 c151 -124 194 -157 204 -158 27 -1 132 -100
157 -147 10 -19 9 -23 -3 -23 -9 0 -22 -13 -31 -30 -8 -16 -25 -35 -37 -41
-19 -10 -24 -9 -37 12 -9 13 -40 48 -68 78 -29 30 -53 58 -53 61 0 3 14 11 32
18 29 11 31 14 17 27 -8 8 -38 21 -67 27 -32 8 -52 18 -52 27 0 19 -37 78 -77
124 -29 32 -41 57 -29 57 2 0 22 -15 44 -32z m-1010 -37 c-21 -27 -66 -56 -74
-48 -3 3 87 76 94 77 2 0 -7 -13 -20 -29z m342 25 c0 -2 -7 -6 -15 -10 -8 -3
-15 -1 -15 4 0 6 7 10 15 10 8 0 15 -2 15 -4z m627 -38 c11 -13 23 -28 27 -35
8 -15 -11 -66 -23 -59 -7 5 -41 95 -41 110 0 13 18 5 37 -16z m-662 -7 c3 -5
1 -12 -5 -16 -5 -3 -10 1 -10 9 0 18 6 21 15 7z m-340 -81 c-5 -8 -11 -8 -17
-2 -6 6 -7 16 -3 22 5 8 11 8 17 2 6 -6 7 -16 3 -22z m107 -82 c-6 -7 -18 -42
-28 -78 -15 -58 -15 -69 -3 -95 19 -39 41 -38 51 3 26 106 23 103 38 38 12
-53 12 -60 -3 -71 -9 -6 -23 -27 -30 -44 l-14 -33 -34 31 c-18 17 -36 31 -40
31 -4 0 -10 15 -13 34 -4 19 -15 45 -26 59 -21 26 -26 47 -12 47 4 0 16 15 26
34 11 21 30 37 49 44 44 14 51 14 39 0z m-172 -65 c-1 -18 -29 -43 -49 -43
-25 0 -26 7 -4 32 16 18 53 25 53 11z m-296 -32 c3 -5 -1 -12 -10 -15 -27 -11
-37 -7 -24 9 14 17 26 19 34 6z m-44 -41 c0 -5 -7 -10 -16 -10 -8 0 -12 5 -9
10 3 6 10 10 16 10 5 0 9 -4 9 -10z m1888 -115 c20 -28 20 -33 8 -85 -20 -81
-25 -88 -61 -100 -18 -6 -41 -20 -50 -30 -10 -11 -21 -20 -25 -20 -4 0 -11 28
-17 63 -5 34 -13 70 -18 79 -5 12 -2 20 9 24 9 4 20 4 23 1 7 -8 15 -54 14
-89 -1 -32 3 -33 44 -9 38 22 43 62 17 158 -13 50 -16 76 -9 89 8 15 12 13 26
-17 10 -19 27 -48 39 -64z m-2015 43 c-11 -13 -30 -34 -42 -48 l-22 -25 31 -6
c37 -8 45 -15 31 -24 -6 -3 -11 -1 -11 6 0 8 -3 9 -13 0 -8 -6 -17 -7 -21 -3
-4 4 -7 3 -5 -3 6 -27 -25 -70 -85 -115 -18 -14 -19 -14 -6 10 20 38 19 80 -3
80 -17 0 -16 3 5 32 30 43 48 60 78 76 14 7 36 19 50 27 34 20 37 19 13 -7z
m187 12 c0 -5 -6 -10 -14 -10 -8 0 -18 5 -21 10 -3 6 3 10 14 10 12 0 21 -4
21 -10z m1610 -28 c0 -15 -2 -15 -10 -2 -13 20 -13 33 0 25 6 -3 10 -14 10
-23z m-1650 4 c0 -3 -4 -8 -10 -11 -5 -3 -10 -1 -10 4 0 6 5 11 10 11 6 0 10
-2 10 -4z m-765 -126 c0 -7 -5 -15 -12 -17 -7 -3 -11 4 -10 16 1 23 22 23 22
1z m85 -50 c0 -5 -4 -10 -10 -10 -17 0 -11 -37 6 -44 9 -4 14 -9 10 -13 -9 -9
-47 28 -39 40 3 5 -2 16 -12 24 -17 12 -16 13 13 13 18 0 32 -4 32 -10z m-165
-39 c-3 -12 -11 -21 -16 -21 -6 0 -7 6 -2 13 4 6 8 15 9 20 1 4 2 10 3 14 0 3
4 4 7 0 3 -3 3 -15 -1 -26z m2525 -16 c0 -16 -6 -25 -16 -25 -11 0 -14 5 -10
16 3 9 6 20 6 25 0 5 5 9 10 9 6 0 10 -11 10 -25z m-2090 -15 c0 -5 -4 -10
-10 -10 -5 0 -10 5 -10 10 0 6 5 10 10 10 6 0 10 -4 10 -10z m280 -4 c0 -3 -4
-8 -10 -11 -5 -3 -10 -1 -10 4 0 6 5 11 10 11 6 0 10 -2 10 -4z m-300 -56 c0
-11 -7 -20 -15 -20 -27 0 -18 30 13 39 1 1 2 -8 2 -19z m326 1 c-15 -17 -46
-19 -46 -4 0 3 7 2 15 -1 9 -3 18 1 21 9 4 8 11 15 17 15 5 0 2 -9 -7 -19z
m-606 5 c0 -3 -4 -8 -10 -11 -5 -3 -10 -1 -10 4 0 6 5 11 10 11 6 0 10 -2 10
-4z m-214 -47 c-15 -34 -15 -34 -9 -4 7 35 13 48 20 42 2 -3 -3 -20 -11 -38z
m794 7 c0 -2 -8 -10 -17 -17 -16 -13 -17 -12 -4 4 13 16 21 21 21 13z m3351
-58 c6 -11 4 -18 -7 -22 -15 -6 -18 -1 -28 49 -6 29 -6 29 10 10 8 -11 20 -27
25 -37z m-3951 32 c0 -5 -7 -10 -16 -10 -8 0 -12 5 -9 10 3 6 10 10 16 10 5 0
9 -4 9 -10z m3890 -57 c0 -37 -4 -44 -31 -58 -39 -21 -48 -13 -15 13 22 16 26
28 26 68 0 35 3 45 10 34 5 -8 10 -34 10 -57z m-3585 20 c-26 -18 -32 -7 -9
18 12 14 20 17 23 8 2 -7 -4 -18 -14 -26z m819 -43 c-8 -67 -13 -78 -24 -60
-13 20 -12 60 1 99 16 45 30 21 23 -39z m-1334 45 c0 -8 -4 -15 -10 -15 -5 0
-10 7 -10 15 0 8 5 15 10 15 6 0 10 -7 10 -15z m155 -46 c-10 -15 -25 -10 -19
6 4 8 10 12 15 9 5 -3 7 -10 4 -15z m-158 -5 c-3 -3 -12 -4 -19 -1 -8 3 -5 6
6 6 11 1 17 -2 13 -5z m-32 -58 c-4 -17 -8 -38 -8 -47 -1 -9 -7 -15 -14 -12
-10 4 -9 12 3 35 11 21 12 33 5 42 -8 9 -6 13 5 13 13 0 14 -7 9 -31z m2713
-3 c-2 -30 -7 -37 -28 -40 -13 -2 -28 -9 -32 -16 -5 -9 -12 -8 -25 6 -16 16
-16 17 10 17 19 0 27 5 27 17 0 18 28 53 42 53 5 0 8 -16 6 -37z m-2028 -39
c0 -8 -5 -12 -10 -9 -6 4 -8 11 -5 16 9 14 15 11 15 -7z m1846 -59 c-3 -8 -10
-15 -15 -15 -5 0 -4 11 2 25 12 25 23 16 13 -10z m185 -92 c-9 -16 -10 -16
-11 -1 0 9 3 25 7 35 7 16 8 17 11 1 2 -10 -1 -25 -7 -35z m1440 -95 c-32 -9
-41 0 -18 16 9 7 17 20 17 28 0 31 15 28 20 -4 4 -28 2 -34 -19 -40z m-1444
-54 c-19 -20 -25 -23 -30 -11 -4 10 2 17 14 20 11 3 23 16 27 29 5 18 7 19 10
6 2 -10 -8 -29 -21 -44z m-175 -16 c-7 -7 -12 -8 -12 -2 0 6 3 14 7 17 3 4 9
5 12 2 2 -3 -1 -11 -7 -17z m1683 -34 c3 -27 2 -34 -5 -24 -10 15 -14 78 -5
69 2 -3 7 -23 10 -45z m11 -91 c-11 -11 -19 6 -11 24 8 17 8 17 12 0 3 -10 2
-21 -1 -24z m-1491 -29 c-7 -15 -12 -31 -9 -36 7 -11 -7 -10 -26 2 -12 8 -13
13 -2 27 6 10 17 28 24 41 9 18 13 20 20 9 5 -9 2 -26 -7 -43z"/>
<path d="M1139 3823 c-13 -16 -12 -17 4 -4 9 7 17 15 17 17 0 8 -8 3 -21 -13z"/>
<path d="M1968 4923 c7 -3 16 -2 19 1 4 3 -2 6 -13 5 -11 0 -14 -3 -6 -6z"/>
<path d="M5451 4817 c-6 -8 -9 -16 -6 -18 5 -6 -10 -69 -27 -111 -10 -26 -11
-26 -34 -11 -26 17 -28 14 -25 -37 12 -170 15 -275 8 -292 -14 -38 8 -49 82
-42 36 4 71 11 78 16 8 6 13 2 18 -11 8 -27 42 -27 50 -1 3 11 6 50 5 87 -2
62 12 182 26 226 3 10 1 24 -6 32 -9 11 -16 11 -38 0 -38 -18 -106 -32 -125
-26 -12 5 -5 17 34 59 27 29 49 59 49 67 0 18 -49 75 -65 75 -7 0 -18 -6 -24
-13z m127 -282 c-5 -44 -11 -93 -12 -110 -6 -73 -4 -70 -48 -72 -23 -2 -57 -8
-76 -14 -18 -6 -35 -9 -37 -7 -7 7 -7 135 0 196 7 53 11 62 24 56 22 -9 72 -5
87 7 11 9 66 28 71 25 1 -1 -3 -37 -9 -81z"/>
<path d="M5440 4537 c0 -8 11 -24 24 -37 38 -35 68 -14 50 34 -8 20 -74 22
-74 3z"/>
<path d="M5435 4450 c-4 -6 1 -22 9 -35 28 -42 64 -28 52 21 -5 17 -13 24 -31
24 -13 0 -27 -5 -30 -10z"/>
<path d="M97 4618 c-2 -7 0 -21 5 -30 6 -12 5 -18 -3 -18 -21 0 -2 -91 33
-159 27 -53 38 -65 61 -67 15 -1 27 2 27 7 0 6 5 7 10 4 21 -13 1 -62 -49
-115 -13 -13 -14 -12 -9 7 8 31 -22 58 -46 40 -16 -12 -16 -15 3 -59 47 -110
107 -168 81 -78 -13 45 -13 51 3 49 31 -4 37 3 37 39 l1 37 15 -29 c15 -26 15
-30 0 -38 -18 -10 -22 -82 -7 -107 13 -20 31 -4 31 27 1 23 4 20 24 -23 38
-81 49 -124 37 -139 -8 -10 -5 -28 15 -70 14 -31 30 -56 36 -56 14 0 3 83 -16
113 -16 26 -30 97 -19 97 4 0 17 -7 27 -15 24 -18 36 -19 36 -2 0 13 -59 57
-77 57 -10 0 -33 42 -33 62 0 7 5 6 15 -2 12 -10 16 -9 22 6 4 12 -2 25 -24
43 -23 20 -53 74 -53 96 0 1 11 0 24 -2 18 -4 29 2 42 21 16 26 16 28 -6 51
-13 14 -38 30 -56 37 -28 10 -43 31 -44 60 0 4 14 3 31 -2 18 -5 36 -7 40 -4
11 6 11 45 1 60 -8 12 -77 29 -104 25 -10 -1 -18 2 -18 6 0 11 -70 83 -80 83
-5 0 -10 -6 -13 -12z m93 -130 c0 -5 -9 -8 -20 -8 -13 0 -18 5 -14 15 4 8 2
15 -3 15 -9 0 -33 43 -33 58 1 9 70 -71 70 -80z"/>
<path d="M2360 4518 c1 -27 113 -118 124 -100 10 17 -34 72 -71 89 -21 9 -41
19 -45 21 -5 2 -8 -2 -8 -10z"/>
<path d="M41 4438 c-6 -17 -9 -33 -6 -36 3 -3 1 -10 -4 -16 -5 -6 -12 -30 -16
-53 -6 -36 -4 -43 9 -43 14 0 21 18 17 43 0 4 6 7 14 7 16 0 19 15 16 68 -2
18 3 39 9 47 10 12 9 15 -8 15 -14 0 -24 -10 -31 -32z"/>
<path d="M5188 4403 c-2 -24 -8 -28 -33 -29 -16 0 -35 3 -42 8 -14 11 -25 -5
-17 -26 4 -11 19 -16 45 -16 21 0 39 -4 39 -10 0 -15 -64 -12 -86 5 -25 19
-54 19 -54 1 0 -28 30 -46 76 -46 46 0 48 -2 35 -35 -8 -19 -8 -19 -20 3 -15
28 -29 28 -40 0 -10 -28 5 -62 24 -54 10 3 12 0 8 -12 -6 -15 -4 -15 15 1 20
18 21 18 32 -2 6 -12 17 -21 25 -21 14 0 35 57 35 98 0 18 6 22 30 22 20 0 30
5 30 15 0 10 -10 15 -30 15 -32 0 -39 14 -14 28 14 8 13 12 -4 43 -24 44 -49
50 -54 12z m8 -129 c-3 -9 -6 -22 -6 -30 0 -8 -4 -14 -8 -14 -5 0 -7 14 -4 30
2 17 9 30 14 30 6 0 7 -7 4 -16z"/>
<path d="M61 4325 c1 -19 18 -51 18 -35 0 8 -4 22 -9 30 -5 8 -9 11 -9 5z"/>
<path d="M0 4251 c1 -25 1 -25 15 -7 19 25 19 33 0 33 -10 0 -15 -10 -15 -26z"/>
<path d="M5247 4274 c-15 -15 -7 -45 11 -42 9 2 17 12 17 22 0 20 -16 31 -28
20z"/>
<path d="M1112 4254 c-1 -12 -5 -37 -8 -55 -5 -26 -4 -31 5 -23 7 7 11 29 8
55 -2 24 -4 34 -5 23z"/>
<path d="M5512 4213 c-69 -4 -83 -17 -64 -59 9 -19 19 -24 50 -24 37 0 39 -2
34 -26 -4 -25 -7 -26 -53 -22 -59 6 -74 -2 -63 -33 4 -13 7 -26 7 -29 -7 -29
-10 -91 -5 -94 13 -8 177 -10 200 -2 17 6 22 15 22 43 l0 36 -25 -27 c-22 -23
-31 -26 -94 -26 l-70 0 2 33 c2 33 2 33 55 33 63 0 71 8 101 92 21 59 21 65 7
88 -9 13 -22 23 -29 22 -6 -1 -40 -3 -75 -5z"/>
<path d="M80 4190 c-6 -11 -9 -20 -7 -20 2 0 14 9 27 20 18 16 19 20 7 20 -9
0 -21 -9 -27 -20z"/>
<path d="M1091 4148 c-1 -10 -5 -18 -11 -18 -5 0 -7 -7 -3 -17 5 -14 8 -12 15
7 5 13 7 28 4 34 -2 6 -5 3 -5 -6z"/>
<path d="M5078 4133 c0 -10 -1 -24 -1 -31 1 -10 -8 -13 -28 -10 -20 3 -29 0
-29 -9 0 -7 5 -13 11 -13 5 0 7 -5 4 -11 -4 -5 1 -19 11 -31 19 -20 18 -20
-13 -16 -36 3 -46 -12 -16 -27 27 -14 14 -58 -33 -113 -20 -24 -34 -45 -31
-48 11 -11 45 16 66 52 l22 37 29 -34 28 -34 11 25 c8 21 6 29 -17 51 -44 41
-38 59 19 59 47 0 70 12 49 25 -8 5 -7 11 1 21 9 11 9 17 -1 29 -6 8 -9 19 -5
25 4 7 -2 14 -14 17 -12 3 -24 16 -27 29 -7 28 -33 32 -36 7z m32 -73 c-20
-13 -40 -13 -40 0 0 6 12 10 28 10 21 0 24 -2 12 -10z m-5 -40 c-3 -5 -14 -10
-23 -10 -15 0 -15 2 -2 10 20 13 33 13 25 0z"/>
<path d="M5173 4107 c-6 -10 15 -27 34 -27 9 0 8 -8 -3 -27 -7 -16 -14 -40
-14 -54 0 -15 -7 -46 -15 -69 -17 -49 -19 -74 -5 -65 15 9 12 -3 -7 -36 -19
-32 -9 -54 12 -26 11 16 16 16 34 6 35 -22 40 0 9 42 -9 13 -9 25 0 50 l12 34
-5 -32 c-2 -18 0 -33 5 -33 12 0 18 11 25 48 3 17 10 43 15 57 18 47 13 58
-20 52 -38 -8 -38 3 2 42 17 17 28 34 24 38 -11 11 -96 10 -103 0z m68 -148
l-10 -24 0 23 c-1 13 -5 20 -11 17 -5 -3 -10 -2 -10 4 0 11 33 20 38 11 1 -4
-2 -18 -7 -31z m-34 -21 c-3 -8 -6 -5 -6 6 -1 11 2 17 5 13 3 -3 4 -12 1 -19z
m-10 -40 c-3 -8 -6 -5 -6 6 -1 11 2 17 5 13 3 -3 4 -12 1 -19z"/>
<path d="M2385 4071 c-3 -6 -4 -15 -1 -20 3 -4 2 -21 -2 -37 -10 -37 16 -98
37 -85 11 7 11 18 0 67 -7 33 -13 62 -13 66 -2 13 -14 19 -21 9z"/>
<path d="M154 3996 c-7 -17 18 -89 45 -130 l18 -28 7 37 c5 27 3 42 -9 55 -9
10 -17 31 -18 46 -3 32 -33 46 -43 20z"/>
<path d="M4052 3980 c-7 -11 -18 -20 -25 -20 -24 0 -78 -66 -102 -126 -13 -32
-20 -60 -15 -62 12 -4 60 28 60 40 0 5 12 26 27 46 15 20 28 39 30 41 10 14
11 -10 1 -36 -17 -44 20 -117 66 -133 94 -31 95 56 0 120 -33 24 -44 36 -39
48 9 20 19 102 14 102 -2 0 -10 -9 -17 -20z"/>
<path d="M860 3965 c0 -9 6 -12 15 -9 8 4 12 10 9 15 -8 14 -24 10 -24 -6z"/>
<path d="M5090 3959 c0 -6 5 -19 11 -30 8 -16 13 -18 24 -9 11 9 12 17 4 31
-10 20 -39 26 -39 8z"/>
<path d="M5467 3873 c-4 -4 -4 -22 -1 -40 6 -31 4 -33 -20 -33 -29 0 -33 -16
-11 -46 8 -10 15 -29 15 -40 0 -28 -54 -38 -114 -20 -53 16 -76 6 -76 -34 0
-37 49 -75 82 -64 23 7 87 6 100 -2 10 -7 -19 -104 -38 -125 -24 -27 -13 -32
23 -10 23 14 35 33 48 74 17 54 18 55 62 61 25 3 60 6 77 6 38 0 76 25 76 49
0 20 -39 41 -76 41 -24 0 -24 0 -9 36 20 47 7 64 -49 64 -42 0 -42 1 -38 30 6
42 -28 77 -51 53z m53 -168 c0 -8 -4 -15 -10 -15 -5 0 -10 7 -10 15 0 8 5 15
10 15 6 0 10 -7 10 -15z"/>
<path d="M2411 3854 c0 -11 3 -14 6 -6 3 7 2 16 -1 19 -3 4 -6 -2 -5 -13z"/>
<path d="M3559 3843 c-7 -18 -6 -28 1 -33 6 -4 17 -37 25 -74 16 -76 21 -86
41 -86 29 0 10 165 -23 202 -22 25 -32 23 -44 -9z"/>
<path d="M5031 3861 c-18 -12 3 -51 29 -51 28 0 34 19 14 41 -19 21 -23 22
-43 10z"/>
<path d="M5317 3833 c-13 -12 -7 -60 8 -73 21 -17 65 2 65 29 0 28 -56 62 -73
44z"/>
<path d="M136 3804 c-11 -28 5 -175 26 -243 16 -53 28 -18 28 85 0 75 -3 93
-16 98 -13 5 -15 14 -10 41 5 27 4 35 -7 35 -8 0 -18 -7 -21 -16z"/>
<path d="M2416 3778 c9 -31 14 -35 24 -18 5 9 5 19 -2 27 -17 21 -30 15 -22
-9z"/>
<path d="M5074 3744 c6 -24 5 -25 -26 -22 -28 3 -33 0 -36 -20 -3 -18 3 -26
27 -35 33 -12 33 -17 9 -96 -10 -31 -13 -33 -44 -28 -19 3 -34 2 -34 -3 0 -5
15 -10 33 -12 l32 -3 -40 -37 c-21 -20 -36 -40 -32 -44 4 -4 7 -2 7 4 0 16 42
15 59 0 11 -11 13 -10 8 5 -9 23 19 77 39 77 8 0 26 -11 40 -25 14 -14 30 -25
36 -25 9 0 9 3 0 12 -21 21 -13 28 36 30 l47 1 -55 6 c-51 6 -56 9 -73 43 -23
47 -14 84 27 105 17 10 37 16 44 14 26 -5 42 18 30 45 -15 32 -48 32 -48 0 0
-19 -4 -23 -20 -19 -11 3 -20 10 -19 17 3 28 -3 36 -27 36 -23 0 -25 -3 -20
-26z m16 -189 c0 -8 -4 -15 -10 -15 -5 0 -10 7 -10 15 0 8 5 15 10 15 6 0 10
-7 10 -15z"/>
<path d="M3512 3702 c-42 -68 -63 -122 -47 -122 7 0 23 12 34 28 l20 27 1 -32
c0 -18 4 -33 8 -33 4 0 13 -14 20 -32 16 -44 33 -25 37 43 5 81 -18 159 -45
159 -3 0 -15 -17 -28 -38z"/>
<path d="M4019 3692 c-31 -33 -45 -66 -54 -126 -6 -39 -5 -46 9 -46 10 0 23
16 32 40 15 38 28 49 36 33 7 -16 98 -97 102 -92 13 13 -24 86 -52 104 -25 16
-31 27 -32 55 -1 54 -11 62 -41 32z"/>
<path d="M761 3684 c-16 -12 -20 -19 -12 -27 8 -8 14 -8 23 1 7 7 8 12 4 12
-5 0 -3 7 4 15 16 19 10 19 -19 -1z"/>
<path d="M530 3636 c-6 -20 -9 -40 -5 -45 3 -6 -3 -15 -13 -20 -26 -14 -27
-67 -2 -67 13 0 16 4 9 12 -6 7 -4 16 6 24 8 7 15 20 15 30 0 10 7 21 16 24
12 4 14 14 9 38 -5 26 -4 30 5 18 10 -13 11 -13 7 0 -8 30 -35 22 -47 -14z"/>
<path d="M5383 3535 c-17 -19 -41 -35 -52 -35 -14 0 -21 -6 -21 -20 0 -25 25
-37 43 -21 14 11 71 111 64 111 -2 0 -17 -16 -34 -35z"/>
<path d="M5497 3563 c-10 -9 -9 -32 4 -75 9 -35 12 -38 48 -38 23 0 44 6 51
15 11 14 7 23 -30 60 -43 44 -59 52 -73 38z"/>
<path d="M2098 3543 c-28 -7 -29 -34 -8 -163 12 -67 19 -129 15 -137 -4 -11
-17 -5 -54 26 -27 23 -53 41 -59 41 -18 0 -31 -25 -34 -69 -3 -43 -2 -45 57
-91 33 -26 65 -57 72 -71 37 -74 54 -120 48 -129 -11 -17 -25 -11 -35 15 -11
29 -58 45 -71 24 -5 -8 -9 -26 -9 -41 0 -24 -3 -26 -27 -19 -22 6 -30 17 -40
57 -8 27 -15 64 -16 83 -3 45 -28 61 -65 41 -25 -15 -27 -21 -32 -95 -3 -51
-8 -73 -12 -60 -5 11 -20 34 -34 50 -15 17 -44 66 -65 110 -97 199 -128 232
-183 192 -17 -12 -17 -18 -6 -53 7 -21 30 -72 51 -112 21 -41 39 -77 39 -80 0
-4 -35 -8 -77 -10 -91 -4 -116 -19 -111 -66 2 -26 9 -33 40 -43 20 -7 62 -13
93 -14 56 -2 57 -3 96 -55 21 -29 48 -59 60 -67 l21 -15 -21 -21 c-15 -15 -19
-28 -15 -51 5 -23 3 -30 -9 -30 -9 0 -20 6 -24 14 -13 23 -46 24 -83 3 -43
-25 -60 -45 -60 -72 0 -23 -44 -50 -98 -59 -58 -10 -100 -36 -134 -83 -18 -25
-54 -66 -79 -92 -25 -25 -51 -60 -58 -77 -7 -17 -24 -37 -37 -45 -31 -16 -73
-85 -76 -125 -2 -19 -17 -44 -48 -74 -46 -45 -70 -99 -70 -155 0 -15 -12 -42
-27 -60 -68 -82 -97 -160 -71 -192 6 -7 2 -25 -11 -52 -16 -31 -21 -59 -21
-123 0 -46 4 -89 9 -97 5 -8 3 -28 -6 -51 -15 -38 -15 -43 9 -184 2 -10 -3
-21 -9 -23 -8 -3 -13 4 -13 15 0 30 -32 36 -94 18 -57 -17 -116 -70 -116 -104
0 -10 -13 -26 -30 -35 -66 -39 -111 -137 -76 -163 16 -11 16 -14 1 -43 -8 -17
-16 -46 -16 -64 -1 -138 -5 -176 -21 -194 -16 -17 -36 -96 -30 -117 2 -5 -4
-26 -12 -47 -20 -48 -8 -84 29 -93 19 -5 33 -2 46 10 18 17 19 15 20 -32 2
-77 11 -97 54 -118 22 -11 48 -23 58 -28 11 -5 22 -7 25 -4 3 3 2 6 -2 6 -4 0
4 14 18 31 14 17 26 37 26 45 0 18 10 18 35 0 29 -19 102 -28 126 -15 26 13
23 74 -5 106 -10 12 -24 32 -30 45 -11 22 -9 24 28 33 54 13 72 47 48 89 -19
33 -141 89 -179 83 -21 -4 -27 3 -24 25 0 4 3 26 6 50 4 36 25 91 64 168 5 8
21 16 37 17 20 1 22 0 7 -4 -14 -3 -23 -12 -23 -23 0 -20 4 -21 115 -39 28 -5
39 -9 26 -10 -16 -1 -21 -6 -18 -15 3 -8 1 -17 -6 -19 -13 -5 34 -10 208 -26
61 -5 126 -12 145 -15 147 -22 305 -36 386 -35 52 1 98 -1 101 -5 4 -3 -31 -6
-76 -6 -58 0 -87 -4 -97 -14 -12 -13 -10 -15 14 -20 15 -3 63 -8 107 -11 44
-4 107 -10 140 -15 75 -10 287 -6 306 6 18 11 130 5 146 -8 16 -13 59 -6 56
10 -4 17 38 25 71 13 19 -8 33 -8 47 -1 27 15 24 28 -8 42 l-28 12 28 4 c37 5
58 -4 51 -21 -8 -21 74 -29 159 -16 40 6 77 14 82 17 15 10 -42 20 -122 21
-66 1 -73 3 -73 21 0 11 -3 20 -7 20 -5 1 -26 16 -48 36 l-40 35 30 -7 c17 -4
46 -15 65 -24 38 -19 60 -17 60 6 0 8 4 14 8 14 16 0 21 -13 12 -30 -8 -15 -2
-18 58 -23 37 -3 75 -9 86 -13 14 -5 17 -3 14 12 -2 11 -16 21 -38 27 -28 6
-37 15 -46 42 l-11 33 50 -2 c62 -2 70 14 30 57 -16 18 -40 57 -52 87 -26 63
-45 88 -37 50 11 -57 16 -150 8 -150 -5 0 -23 28 -40 63 -33 65 -41 61 -17 -8
19 -52 19 -69 0 -61 -8 3 -22 9 -31 12 -12 5 -14 1 -9 -22 5 -26 4 -25 -17 10
-13 22 -33 50 -45 63 -29 30 -53 31 -27 1 11 -13 28 -38 38 -57 l18 -33 -31 7
c-28 6 -33 4 -38 -14 -5 -21 -37 -29 -48 -11 -3 5 -31 26 -61 46 -54 36 -80
74 -70 101 9 22 36 15 36 -10 0 -13 13 -34 31 -50 45 -39 63 -33 23 7 -22 22
-34 44 -34 61 0 14 -4 24 -9 21 -5 -4 -7 2 -4 13 6 23 43 16 50 -10 9 -33 46
-31 75 3 25 30 26 34 12 50 -9 9 -14 23 -12 30 3 8 9 5 17 -10 12 -22 41 -31
41 -12 0 6 9 10 20 10 14 0 20 7 20 21 0 20 1 21 25 5 29 -19 41 -20 43 -3 0
6 4 29 8 49 5 27 2 44 -10 62 -14 22 -15 38 -6 118 8 78 7 95 -6 109 -13 15
-13 18 1 33 9 9 25 21 36 26 10 6 26 26 34 45 9 23 21 35 33 35 27 0 168 58
278 114 50 25 94 46 98 46 5 0 43 15 85 34 42 19 119 47 171 61 52 15 120 40
150 55 82 42 207 98 280 126 36 14 83 33 105 44 22 11 70 26 107 35 60 14 105
29 268 95 25 10 90 39 145 65 100 46 277 118 279 113 4 -7 -12 -179 -22 -233
-14 -77 -32 -232 -37 -320 -14 -217 -52 -500 -70 -518 -15 -16 -13 -233 2
-248 7 -7 8 -20 4 -33 -4 -11 -5 -32 -1 -46 5 -20 12 -25 33 -23 21 1 27 -3
27 -18 0 -11 7 -22 15 -25 8 -4 15 -18 15 -33 0 -16 10 -37 25 -51 14 -13 25
-29 25 -36 0 -25 60 -33 79 -10 9 11 6 18 -14 34 -43 34 -47 132 -5 132 11 0
20 7 20 15 0 31 19 13 29 -27 9 -39 10 -36 8 38 -1 69 2 84 21 109 12 15 26
44 31 64 17 67 21 91 18 91 -7 0 -77 -68 -77 -74 0 -3 9 -6 19 -6 18 0 19 -3
10 -29 -6 -16 -19 -37 -30 -47 -18 -16 -20 -16 -39 1 -23 21 -18 34 5 15 9 -7
19 -10 23 -6 15 16 -30 34 -76 31 -53 -3 -98 -19 -124 -42 -16 -14 -18 -14
-25 3 -11 26 -8 124 5 176 6 24 15 90 21 148 6 58 16 143 22 190 6 47 15 146
20 220 5 74 13 157 18 185 5 27 7 54 5 60 -3 6 2 47 11 90 8 44 15 98 15 120
0 70 11 114 30 120 10 3 21 13 24 22 8 20 -11 43 -22 27 -4 -5 -32 -19 -63
-30 l-56 -20 4 25 c3 24 3 25 -9 7 -28 -42 -61 -65 -136 -91 -42 -15 -127 -49
-189 -75 -61 -27 -169 -67 -240 -90 -147 -47 -285 -98 -393 -145 -41 -18 -86
-36 -100 -40 -14 -4 -32 -13 -40 -20 -25 -21 -92 -52 -140 -65 -24 -7 -72 -26
-105 -42 -56 -29 -114 -51 -340 -127 -111 -37 -219 -69 -223 -66 -1 1 -5 29
-8 61 -3 33 -12 69 -20 81 -18 28 -72 39 -118 23 -40 -13 -56 -7 -56 21 0 15
7 19 35 19 19 0 35 5 35 11 0 7 11 8 29 4 23 -5 32 -2 45 17 13 18 24 22 59
21 58 -3 87 5 87 22 0 8 5 15 10 15 6 0 10 6 10 14 0 7 9 25 21 40 l20 26 -23
46 c-12 26 -33 50 -45 55 l-22 8 23 43 c13 24 26 52 29 63 3 11 11 39 17 63 6
23 15 42 21 42 14 0 39 -63 39 -99 0 -34 30 -106 58 -138 22 -25 72 -42 72
-24 0 6 -6 11 -13 11 -21 0 -74 62 -85 100 -6 19 -13 55 -16 80 -4 35 -13 52
-39 76 -19 17 -40 33 -48 36 -19 7 -8 17 27 24 54 11 72 -16 98 -149 13 -65
28 -123 34 -129 6 -6 4 20 -4 63 -8 41 -17 97 -21 124 -3 28 -11 60 -19 72
-13 21 -80 50 -91 39 -3 -3 -19 6 -35 19 -33 28 -60 32 -77 11 -9 -10 -24 -13
-49 -9 -46 7 -48 9 -32 28 10 12 8 16 -11 24 -19 6 -25 5 -30 -8 -5 -12 -9 -9
-14 13 -5 17 -4 31 3 35 7 4 8 12 2 21 -9 13 -10 13 -11 0 0 -10 -3 -8 -9 5
-13 30 -12 38 4 32 8 -3 16 -2 18 3 2 6 18 12 37 14 18 2 37 10 42 17 14 22
10 59 -6 66 -16 5 -60 -26 -50 -35 6 -7 -15 -32 -27 -32 -5 0 -4 9 2 19 5 11
10 29 10 40 0 10 5 21 11 23 7 2 11 19 10 38 -1 19 -1 56 -1 83 l0 47 -38 0
c-22 0 -61 -7 -88 -15 -66 -20 -68 -19 -43 14 22 30 19 54 -6 45 -12 -5 -14 0
-9 25 5 24 3 32 -12 38 -11 4 -31 15 -46 26 -15 11 -34 17 -42 14 -21 -8 -20
-7 9 107 13 53 22 103 19 110 -3 8 -25 16 -51 18 -49 4 -72 -9 -74 -40 0 -9
-7 12 -14 47 -8 35 -12 68 -9 73 3 5 0 16 -7 24 -6 8 -13 49 -15 92 -3 68 -7
80 -29 100 -26 22 -34 24 -67 15z m79 -335 c-3 -7 -5 -2 -5 12 0 14 2 19 5 13
2 -7 2 -19 0 -25z m-93 -11 c24 -16 33 -29 33 -50 0 -32 -11 -25 -35 24 -9 19
-26 36 -37 37 -11 2 -24 9 -30 14 -16 17 32 -1 69 -25z m129 -24 c-4 -11 -3
-14 5 -9 14 8 15 -3 3 -22 -6 -10 -10 -8 -14 10 -10 33 -8 50 3 43 5 -3 6 -13
3 -22z m93 -55 c-12 -91 -16 -100 -33 -83 -8 9 -20 12 -26 8 -9 -5 -9 -3 -1 8
6 8 17 32 24 54 12 39 27 65 38 65 2 0 1 -24 -2 -52z m-117 -72 c9 -11 6 -15
-14 -18 -28 -6 -27 -6 -19 16 8 20 18 20 33 2z m90 -65 c9 21 10 20 10 -15 1
-33 -1 -37 -14 -26 -8 7 -25 10 -39 6 -24 -6 -25 -5 -14 26 l11 31 18 -22 19
-23 9 23z m-362 -43 c-3 -8 -6 -5 -6 6 -1 11 2 17 5 13 3 -3 4 -12 1 -19z
m663 -129 c0 -15 -68 -79 -83 -79 -6 0 5 11 26 25 20 14 37 33 37 41 0 13 -9
11 -46 -11 -42 -24 -71 -28 -48 -5 32 32 114 53 114 29z m-628 -37 c-7 -2 -10
-14 -6 -30 l6 -27 -21 25 c-18 22 -18 27 -6 36 8 6 15 17 15 25 0 9 5 7 12 -5
8 -15 8 -21 0 -24z m353 1 c16 22 27 22 23 0 -5 -35 11 -45 39 -23 26 20 43
19 43 -5 0 -8 -16 -16 -40 -20 -23 -4 -40 -12 -40 -20 0 -7 -9 -19 -19 -26
-32 -23 -17 -64 32 -88 29 -15 44 -17 53 -10 7 6 17 8 22 5 5 -3 21 2 36 10
27 13 30 13 52 -13 24 -28 44 -81 44 -118 0 -34 -17 -44 -57 -33 -31 8 -37 6
-74 -26 -21 -20 -44 -36 -49 -36 -6 0 -10 -7 -10 -15 0 -22 19 -18 57 11 19
14 37 23 40 20 4 -3 1 -6 -5 -6 -7 0 -12 -3 -12 -7 0 -13 98 -15 106 -2 5 8 3
9 -7 4 -12 -7 -12 -6 0 9 14 16 15 16 28 -8 8 -14 21 -26 30 -26 15 0 15 -1 0
-18 -17 -18 -14 -55 6 -80 9 -11 13 -11 23 3 7 10 25 18 39 18 31 0 41 17 26
45 -9 16 -7 21 9 25 10 3 22 2 25 -1 6 -7 11 -8 51 -10 31 -3 37 -29 12 -54
-19 -19 -22 -19 -30 -4 -12 21 -28 11 -28 -18 0 -12 -11 -33 -24 -45 -26 -24
-49 -27 -171 -21 -39 1 -81 0 -95 -4 -23 -6 -23 -5 -7 6 10 7 26 18 35 25 9 6
14 15 9 19 -9 9 -45 -10 -89 -46 l-33 -28 -6 -123 c-4 -99 -9 -133 -27 -169
l-22 -45 -2 100 c-5 193 -3 219 21 259 33 53 86 86 138 86 24 0 43 5 43 10 0
17 -69 11 -109 -9 -49 -26 -89 -79 -105 -141 -10 -39 -11 -81 -3 -191 7 -104
7 -143 -2 -152 -8 -8 -11 -6 -11 9 0 11 -6 29 -14 39 -10 14 -11 27 -4 54 6
20 8 63 5 96 -6 66 -33 100 -73 92 -17 -3 -24 3 -33 32 -23 67 -42 101 -56
101 -7 0 -27 -12 -44 -26 -24 -20 -31 -22 -31 -10 0 8 9 20 20 26 11 6 20 19
20 30 0 10 5 22 10 25 16 10 2 25 -23 25 -12 0 -29 4 -37 10 -12 8 -12 11 1
27 24 28 12 47 -41 66 -38 14 -55 15 -70 7 -11 -6 -24 -9 -29 -6 -4 3 -25 1
-45 -5 -33 -9 -40 -8 -57 10 l-20 21 61 0 c34 0 73 6 89 14 17 9 32 11 42 5
20 -12 42 -11 63 4 54 40 -56 96 -161 82 -32 -4 -86 -6 -120 -5 -58 1 -64 -1
-74 -24 -10 -20 -9 -30 4 -49 18 -28 7 -61 -14 -40 -8 8 -28 10 -54 6 -28 -3
-52 0 -73 11 -37 19 -42 36 -9 36 38 1 59 24 51 56 -4 16 -11 34 -16 41 -17
22 2 36 41 29 82 -13 76 -15 75 35 l0 47 93 7 c57 4 98 3 106 -3 7 -5 26 -12
42 -15 17 -3 40 -8 53 -12 16 -6 22 -3 22 8 0 13 6 14 31 7 23 -7 39 -5 60 5
35 19 39 19 39 0 0 -8 -8 -15 -19 -15 -24 0 -45 -25 -37 -45 3 -8 1 -15 -5
-15 -23 0 -2 -45 29 -63 30 -18 36 -18 75 -4 23 8 62 20 87 27 25 7 51 14 57
16 14 4 8 55 -11 89 -5 11 -9 24 -8 28 1 5 -2 6 -7 3 -5 -4 -21 -1 -36 6 -21
9 -31 9 -46 0 -10 -7 -32 -12 -48 -12 -31 0 -51 17 -34 29 6 3 10 17 9 30 -1
20 5 25 29 27 17 2 37 4 45 5 8 1 25 8 38 15 21 11 29 10 50 -4 23 -15 25 -15
37 1z m-830 -213 c3 -5 -1 -10 -9 -10 -9 0 -16 5 -16 10 0 6 4 10 9 10 6 0 13
-4 16 -10z m421 -94 c11 -11 11 -17 2 -22 -6 -4 -14 -2 -16 4 -2 7 -10 12 -18
12 -8 0 -14 5 -14 10 0 15 29 12 46 -4z m868 -64 c2 -4 -4 -8 -14 -8 -10 0
-16 4 -14 8 3 4 9 8 14 8 5 0 11 -4 14 -8z m-850 -62 c-13 -28 -32 -53 -42
-56 -9 -3 -26 -10 -37 -17 -20 -10 -68 -21 -152 -33 -31 -5 -43 -3 -43 6 0 7
6 10 14 7 8 -3 16 -3 19 0 3 3 27 6 52 8 52 3 69 14 60 37 -8 20 -52 32 -68
20 -27 -21 -153 -30 -170 -13 -5 5 13 17 40 27 26 10 61 26 77 35 26 16 32 16
57 3 42 -21 147 -18 184 5 17 11 31 20 32 20 0 1 -10 -22 -23 -49z m756 22 c0
-12 -3 -12 -15 -2 -8 7 -15 13 -15 15 0 1 7 2 15 2 8 0 15 -7 15 -15z m-16
-48 c4 -9 4 -19 1 -22 -3 -3 -5 0 -5 6 0 7 -7 12 -16 12 -11 0 -14 -5 -9 -17
5 -14 3 -15 -6 -6 -14 14 -5 43 15 43 7 0 17 -7 20 -16z m-1194 -89 c7 -8 8
-15 2 -15 -5 0 -15 7 -22 15 -7 8 -8 15 -2 15 5 0 15 -7 22 -15z m1325 -12
c-19 -80 -92 -139 -200 -163 -33 -7 -73 -23 -90 -34 -16 -11 -43 -21 -60 -22
-16 0 -38 -4 -49 -9 -17 -8 -18 -4 -11 66 11 122 -1 113 139 106 152 -7 170
-3 215 44 44 46 66 51 56 12z m-815 2 c0 -19 -40 -55 -61 -55 -10 0 -20 -4
-24 -9 -3 -5 -27 -17 -55 -26 -37 -12 -54 -14 -69 -5 -31 16 -26 33 8 25 22
-5 45 2 88 24 33 16 65 36 72 45 17 20 41 21 41 1z m-392 -84 c34 -14 41 -28
17 -37 -16 -6 -78 40 -68 50 4 4 9 5 12 3 3 -2 21 -9 39 -16z m-208 -79 c0 -5
-11 -19 -26 -33 -16 -15 -23 -18 -19 -7 4 9 0 20 -7 24 -9 6 -6 10 12 15 36
10 40 10 40 1z m340 -56 c0 -8 3 -21 6 -30 10 -27 -12 -18 -24 9 -15 33 -15
35 3 35 8 0 15 -6 15 -14z m-398 -58 c-8 -8 -9 -4 -5 13 4 13 8 18 11 10 2 -7
-1 -18 -6 -23z m148 -8 c0 -23 -8 -25 -33 -6 -14 11 -15 15 -5 19 26 11 38 7
38 -13z m450 -35 c0 -18 23 -24 35 -9 6 7 24 15 41 19 26 5 31 3 31 -12 0 -47
3 -56 16 -45 6 5 27 8 45 6 20 -2 32 1 33 9 0 6 5 1 10 -12 10 -24 28 -25 97
-5 16 5 22 2 22 -9 0 -18 -24 -39 -34 -29 -4 4 -14 -1 -21 -12 -14 -18 -15
-18 -45 8 -28 23 -40 26 -108 26 -90 0 -158 20 -155 46 1 9 -3 27 -7 40 -5 12
-6 25 -2 29 8 8 42 -32 42 -50z m-424 -22 c16 -21 18 -37 4 -28 -13 8 -33 45
-24 45 4 0 13 -8 20 -17z m688 2 c3 -8 1 -15 -4 -15 -6 0 -10 7 -10 15 0 8 2
15 4 15 2 0 6 -7 10 -15z m217 -34 c24 5 79 -29 73 -46 -4 -8 -13 -15 -21 -15
-13 0 -13 -3 -3 -15 8 -10 9 -15 2 -15 -6 0 -16 19 -23 42 l-11 43 -19 -24
c-10 -13 -19 -29 -19 -37 0 -7 -4 -15 -9 -18 -4 -3 -8 7 -7 22 0 16 -4 26 -12
25 -15 -4 -16 22 -1 48 10 19 12 19 23 4 7 -9 19 -15 27 -14z m-1011 -21 c0
-5 -7 -10 -15 -10 -8 0 -15 5 -15 10 0 6 7 10 15 10 8 0 15 -4 15 -10z m610
-20 c0 -5 -2 -10 -4 -10 -3 0 -8 5 -11 10 -3 6 -1 10 4 10 6 0 11 -4 11 -10z
m220 -40 c0 -5 6 -10 14 -10 8 0 18 -4 21 -10 10 -17 -11 -11 -36 10 -13 10
-18 19 -11 20 6 0 12 -4 12 -10z m416 -25 c38 -38 47 -71 12 -38 -23 21 -61
43 -73 43 -4 0 -4 -12 -1 -26 4 -14 4 -35 0 -46 -5 -18 -9 -16 -29 18 -22 36
-22 40 -7 57 11 12 24 16 40 12 15 -4 21 -2 17 5 -13 22 10 8 41 -25z m-1681
-24 c-3 -6 -14 -11 -23 -11 -15 1 -15 2 2 15 21 16 32 13 21 -4z m550 -31 c3
-5 2 -10 -4 -10 -5 0 -13 5 -16 10 -3 6 -2 10 4 10 5 0 13 -4 16 -10z m-350
-30 c-3 -5 -11 -10 -16 -10 -6 0 -7 5 -4 10 3 6 11 10 16 10 6 0 7 -4 4 -10z
m1490 -10 c17 14 21 6 30 -50 9 -63 -5 -91 -57 -117 -55 -28 -152 -41 -172
-24 -8 7 -24 10 -36 6 -18 -6 -21 -3 -19 27 1 18 -2 45 -5 59 -9 31 5 44 47
44 28 0 31 -5 39 -60 6 -36 23 -21 26 21 3 35 7 43 28 47 15 3 24 0 24 -8 0
-7 7 -16 15 -19 18 -6 30 16 21 39 -10 27 4 46 26 34 14 -7 23 -7 33 1z m-352
-44 c55 -53 67 -75 67 -122 l0 -36 -32 31 c-21 21 -35 28 -42 21 -5 -5 -18
-10 -28 -10 -19 0 -22 -8 -10 -26 10 -15 51 -24 58 -12 9 14 33 -24 34 -54 0
-38 -18 -38 -55 -1 -18 18 -38 33 -44 33 -18 0 -13 -25 9 -45 23 -21 25 -32 7
-50 -11 -11 -15 -10 -25 5 -6 10 -23 18 -38 18 -19 0 -36 9 -51 28 -13 16 -28
34 -33 41 -6 7 -10 20 -10 31 0 10 -5 23 -12 30 -9 9 -7 12 13 14 13 0 35 0
47 -1 25 -2 24 7 -6 42 -13 15 -13 17 0 17 9 0 21 7 28 15 7 8 18 15 24 15 6
0 5 -4 -3 -9 -16 -10 -1 -45 24 -55 17 -6 19 2 5 24 -5 8 -5 17 0 20 5 3 10
22 12 43 1 20 5 37 9 37 4 0 27 -20 52 -44z m97 31 c0 -7 -7 -22 -15 -33 -13
-17 -13 -16 -3 14 13 34 18 40 18 19z m-1461 -101 c-14 -15 -22 21 -13 62 l7
37 8 -45 c3 -25 3 -49 -2 -54z m1258 72 c-3 -8 -6 -5 -6 6 -1 11 2 17 5 13 3
-3 4 -12 1 -19z m-812 -38 c9 -27 24 -54 33 -59 14 -8 14 -13 4 -36 -7 -15
-10 -36 -7 -46 5 -14 -1 -22 -22 -30 -15 -5 -35 -8 -45 -6 -10 3 -18 1 -18 -4
0 -5 -9 -9 -20 -9 -17 0 -20 6 -19 38 0 35 1 36 14 16 11 -15 23 -19 49 -16
28 3 35 10 43 35 8 27 6 40 -16 79 -29 53 -36 56 -63 31 -13 -12 -22 -13 -29
-6 -14 14 -3 33 20 33 9 0 26 7 37 15 10 8 20 15 21 15 1 0 9 -22 18 -50z
m612 8 c-3 -8 -6 -5 -6 6 -1 11 2 17 5 13 3 -3 4 -12 1 -19z m-954 -45 c-3
-21 -11 -45 -18 -53 -7 -8 -15 -22 -17 -30 -3 -8 -4 5 -3 30 2 25 4 46 5 48 2
1 3 5 4 10 3 14 17 32 26 32 5 0 6 -17 3 -37z m217 21 c0 -9 -62 -65 -67 -60
-8 8 40 66 54 66 7 0 13 -3 13 -6z m730 -28 c0 -3 -4 -8 -10 -11 -5 -3 -10 -1
-10 4 0 6 5 11 10 11 6 0 10 -2 10 -4z m-73 -12 c-3 -3 -12 -4 -19 -1 -8 3 -5
6 6 6 11 1 17 -2 13 -5z m-963 -58 c-6 -15 -67 -66 -78 -66 -3 0 -6 7 -6 15 0
8 6 12 13 9 7 -2 23 9 35 26 23 31 46 41 36 16z m185 -12 c-13 -14 -25 -20
-27 -14 -2 6 4 18 14 25 31 24 39 17 13 -11z m391 -4 c0 -5 -5 -10 -11 -10 -5
0 -7 5 -4 10 3 6 8 10 11 10 2 0 4 -4 4 -10z m879 -39 c-11 -14 -20 -41 -22
-59 -1 -17 -6 -32 -11 -32 -10 0 1 83 16 116 9 18 14 21 24 13 11 -9 9 -16 -7
-38z m116 -1 c-3 -5 -15 -10 -25 -10 -10 0 -22 5 -25 10 -4 6 7 10 25 10 18 0
29 -4 25 -10z m-536 -17 c-7 -10 -15 -20 -16 -22 -2 -2 -3 5 -3 17 0 14 6 22
16 22 14 0 15 -3 3 -17z m61 7 c0 -5 -2 -10 -4 -10 -3 0 -8 5 -11 10 -3 6 -1
10 4 10 6 0 11 -4 11 -10z m-810 -50 c13 -8 13 -10 -2 -10 -9 0 -20 5 -23 10
-8 13 5 13 25 0z m-126 -46 c11 -28 6 -39 -9 -20 -8 11 -15 23 -15 28 0 14 18
9 24 -8z m671 -11 c-27 -19 -37 -16 -18 6 9 11 21 17 26 14 6 -3 2 -12 -8 -20z
m-485 7 c0 -5 -2 -10 -4 -10 -3 0 -8 5 -11 10 -3 6 -1 10 4 10 6 0 11 -4 11
-10z m250 -8 c0 -13 -30 -52 -40 -52 -10 0 -3 28 13 48 11 13 27 16 27 4z
m-586 -44 c19 -31 22 -44 13 -50 -20 -13 -24 -9 -20 20 2 15 -4 36 -12 47 -16
19 -17 19 -30 2 -7 -11 -16 -14 -19 -8 -6 9 19 30 36 31 4 0 18 -19 32 -42z
m1322 -4 c-3 -9 -2 -23 3 -33 5 -9 6 -23 1 -31 -6 -9 -13 3 -24 40 -20 66 -20
63 5 50 12 -7 18 -17 15 -26z m-816 12 c0 -3 -4 -8 -10 -11 -5 -3 -10 -1 -10
4 0 6 5 11 10 11 6 0 10 -2 10 -4z m-160 -36 c0 -5 -2 -10 -4 -10 -3 0 -8 5
-11 10 -3 6 -1 10 4 10 6 0 11 -4 11 -10z m0 -39 c0 -6 -4 -12 -9 -15 -13 -8
-42 4 -35 15 7 12 44 12 44 0z m390 -51 c0 -5 -4 -10 -10 -10 -5 0 -10 5 -10
10 0 6 5 10 10 10 6 0 10 -4 10 -10z m581 -13 c-13 -13 -26 -3 -16 12 3 6 11
8 17 5 6 -4 6 -10 -1 -17z m-1512 -21 c-2 -2 -28 -11 -56 -19 -40 -12 -54 -13
-59 -4 -4 7 -4 9 0 5 4 -3 31 2 59 12 46 15 69 18 56 6z m206 -6 c3 -6 -2 -21
-13 -35 -18 -23 -20 -23 -25 -6 -8 33 22 66 38 41z m818 -21 c4 -16 3 -18 -9
-8 -16 13 -19 29 -5 29 5 0 11 -9 14 -21z m-641 -5 c13 -12 -27 -64 -49 -64
-30 0 -39 18 -11 22 15 2 24 11 26 26 3 21 21 29 34 16z m3568 0 c0 -3 -5 -14
-10 -25 -16 -28 -30 -23 -17 6 11 22 27 34 27 19z m-3292 -26 c2 -12 -3 -14
-23 -10 -21 3 -23 7 -14 19 14 17 33 12 37 -9z m3325 7 c-3 -9 -8 -14 -10 -11
-3 3 -2 9 2 15 9 16 15 13 8 -4z m-4063 1 c0 -3 -4 -8 -10 -11 -5 -3 -10 -1
-10 4 0 6 5 11 10 11 6 0 10 -2 10 -4z m1138 -44 c7 -16 23 -34 37 -40 14 -6
25 -20 25 -29 1 -42 123 -193 156 -193 8 0 14 -2 14 -4 0 -2 2 -11 5 -18 4
-11 -3 -13 -30 -10 -19 2 -35 9 -35 14 0 6 -7 4 -16 -3 -14 -11 -18 -11 -28 2
-6 9 -18 18 -26 22 -11 4 -10 6 5 6 14 1 16 4 7 13 -8 8 -15 8 -25 -1 -12 -9
-16 -8 -21 4 -3 8 -13 15 -23 15 -11 0 -4 7 17 18 l35 17 -48 9 c-26 4 -47 12
-47 16 0 5 -9 6 -19 3 -13 -3 -21 2 -26 16 -5 17 -12 20 -33 14 -15 -3 -28
-10 -30 -15 -2 -4 -11 -8 -19 -8 -14 0 -13 3 1 25 9 13 16 35 16 47 0 15 11
29 30 40 17 9 35 29 42 43 14 32 20 32 36 -3z m2861 -11 c-1 -24 -17 -60 -19
-41 -6 58 -5 67 7 63 7 -3 13 -13 12 -22z m-59 -16 c0 -14 -4 -25 -9 -25 -12
0 -19 21 -13 38 8 21 22 13 22 -13z m-3500 5 c0 -5 -4 -10 -10 -10 -5 0 -10 5
-10 10 0 6 5 10 10 10 6 0 10 -4 10 -10z m509 -3 c6 -8 8 -17 5 -20 -9 -8 -44
11 -44 23 0 15 26 12 39 -3z m-342 -24 c14 -30 11 -38 -12 -30 -15 6 -22 57
-7 57 4 0 13 -12 19 -27z m-624 -13 c-3 -11 -7 -20 -9 -20 -2 0 -4 9 -4 20 0
11 4 20 9 20 5 0 7 -9 4 -20z m486 -54 c13 -14 18 -26 13 -30 -13 -8 -42 20
-42 40 0 19 3 18 29 -10z m-539 0 c0 -2 -8 -10 -17 -17 -16 -13 -17 -12 -4 4
13 16 21 21 21 13z m786 -8 c-12 -7 -21 -7 -28 0 -6 6 0 10 18 10 23 0 24 -2
10 -10z m-353 -31 c4 3 7 1 7 -5 0 -17 -16 -15 -31 6 -12 15 -12 16 2 5 9 -7
19 -10 22 -6z m1233 -19 c5 -18 7 -18 24 -3 22 20 40 12 85 -35 29 -30 29 -32
10 -43 -33 -19 -56 -14 -90 20 -47 47 -67 80 -49 80 7 0 16 -9 20 -19z m2457
-41 c-8 -15 -23 5 -23 31 l0 27 14 -25 c7 -14 11 -28 9 -33z m-3093 29 c0 -2
-7 -7 -16 -10 -8 -3 -12 -2 -9 4 6 10 25 14 25 6z m-47 -13 c-7 -2 -19 -2 -25
0 -7 3 -2 5 12 5 14 0 19 -2 13 -5z m596 -53 c8 0 11 -3 8 -6 -10 -11 -97 17
-97 31 0 9 11 7 37 -6 21 -10 44 -19 52 -19z m-766 23 c-7 -2 -19 -2 -25 0 -7
3 -2 5 12 5 14 0 19 -2 13 -5z m3340 -10 c-7 -2 -19 -2 -25 0 -7 3 -2 5 12 5
14 0 19 -2 13 -5z m-2460 -27 c-4 -20 -2 -24 14 -20 24 7 61 -41 39 -49 -15
-6 -88 58 -78 68 4 3 0 10 -8 15 -12 8 -9 10 11 10 22 0 26 -4 22 -24z m-858
-14 c-3 -3 -11 0 -18 7 -9 10 -8 11 6 5 10 -3 15 -9 12 -12z m800 8 c3 -5 2
-10 -4 -10 -5 0 -13 5 -16 10 -3 6 -2 10 4 10 5 0 13 -4 16 -10z m-165 -72 c0
-4 -6 -5 -14 -2 -8 3 -12 12 -9 21 5 12 7 12 14 1 5 -7 9 -16 9 -20z m199 -2
c10 -11 6 -13 -21 -11 -18 1 -34 7 -36 14 -5 16 43 14 57 -3z"/>
<path d="M1922 2599 c2 -6 8 -10 13 -10 5 0 11 4 13 10 2 6 -4 11 -13 11 -9 0
-15 -5 -13 -11z"/>
<path d="M1746 2554 c-9 -23 -2 -28 30 -20 25 7 26 8 8 21 -25 19 -31 18 -38
-1z"/>
<path d="M1848 2543 c7 -3 16 -2 19 1 4 3 -2 6 -13 5 -11 0 -14 -3 -6 -6z"/>
<path d="M2487 2539 c-9 -5 -21 -8 -26 -4 -5 3 -12 1 -16 -5 -3 -5 -19 -7 -35
-3 -26 5 -30 2 -30 -15 0 -29 34 -45 79 -37 29 6 32 9 16 15 -18 6 -17 8 10
21 15 8 30 20 33 27 4 14 -7 15 -31 1z"/>
<path d="M2281 2486 c-16 -9 -35 -11 -60 -5 -98 23 -127 -2 -67 -57 45 -41 74
-43 115 -8 57 48 65 99 12 70z"/>
<path d="M1965 1850 c3 -5 10 -10 16 -10 5 0 9 5 9 10 0 6 -7 10 -16 10 -8 0
-12 -4 -9 -10z"/>
<path d="M2305 1390 c-3 -5 -1 -10 4 -10 6 0 11 5 11 10 0 6 -2 10 -4 10 -3 0
-8 -4 -11 -10z"/>
<path d="M4935 3503 c-14 -88 -24 -263 -16 -305 0 -4 16 -9 34 -12 52 -8 203
-16 190 -10 -9 4 -11 18 -7 45 7 43 -10 89 -33 89 -17 0 -18 61 -1 78 9 9 8
12 -5 12 -14 0 -17 -9 -17 -46 0 -27 -6 -51 -15 -60 -9 -9 -15 -34 -15 -61 0
-37 -3 -44 -16 -39 -9 3 -36 6 -61 6 l-46 0 7 123 c4 67 9 143 12 170 6 56 -2
63 -11 10z m173 -231 c18 -80 13 -96 -26 -81 -22 8 -22 10 -8 44 8 19 11 35 5
35 -5 0 -9 5 -9 11 0 5 5 7 10 4 6 -3 10 -1 10 6 0 16 13 3 18 -19z"/>
<path d="M3440 3501 c0 -34 38 -111 55 -111 6 0 21 -9 35 -20 28 -22 70 -26
88 -8 33 33 -4 111 -59 123 -17 4 -33 13 -35 20 -3 8 -13 14 -22 13 -9 0 -27
3 -39 7 -21 7 -23 4 -23 -24z"/>
<path d="M706 3484 c-8 -31 -1 -43 16 -26 9 9 9 12 0 12 -10 0 -10 5 -2 20 6
11 7 20 1 20 -5 0 -12 -12 -15 -26z"/>
<path d="M4034 3492 c-22 -14 -34 -52 -34 -106 0 -58 7 -86 21 -86 5 0 5 10 0
23 -5 14 -5 30 1 40 8 16 13 14 45 -15 19 -18 41 -46 49 -63 13 -29 13 -29 14
-5 0 14 -16 49 -35 77 -27 41 -35 62 -35 98 0 45 -5 52 -26 37z"/>
<path d="M5282 3475 c0 -16 2 -22 5 -12 2 9 2 23 0 30 -3 6 -5 -1 -5 -18z"/>
<path d="M5199 3453 c-13 -16 -12 -17 4 -4 16 13 21 21 13 21 -2 0 -10 -8 -17
-17z"/>
<path d="M680 3448 c0 -9 5 -20 10 -23 13 -8 13 5 0 25 -8 13 -10 13 -10 -2z"/>
<path d="M5090 3450 c0 -6 -10 -15 -22 -20 -23 -9 -23 -9 -2 -9 25 -1 51 24
34 34 -5 3 -10 1 -10 -5z"/>
<path d="M4990 3432 c0 -17 21 -25 31 -13 5 6 6 9 3 6 -4 -3 -13 0 -21 6 -9 8
-13 8 -13 1z"/>
<path d="M4959 3398 c4 -12 6 -53 3 -90 -3 -47 -1 -68 7 -68 7 0 11 26 11 74
0 77 -6 106 -21 106 -4 0 -5 -10 0 -22z"/>
<path d="M5170 3416 c0 -2 7 -7 16 -10 8 -3 12 -2 9 4 -6 10 -25 14 -25 6z"/>
<path d="M5215 3410 c-3 -5 -2 -10 4 -10 5 0 13 5 16 10 3 6 2 10 -4 10 -5 0
-13 -4 -16 -10z"/>
<path d="M790 3400 c0 -5 5 -10 11 -10 5 0 7 5 4 10 -3 6 -8 10 -11 10 -2 0
-4 -4 -4 -10z"/>
<path d="M5055 3390 c3 -5 8 -10 11 -10 2 0 4 5 4 10 0 6 -5 10 -11 10 -5 0
-7 -4 -4 -10z"/>
<path d="M5123 3375 c-13 -14 -19 -64 -6 -51 4 3 8 12 9 19 1 7 5 20 9 30 9
20 4 21 -12 2z"/>
<path d="M5446 3381 c-10 -16 5 -41 24 -41 27 0 33 16 14 34 -17 18 -30 20
-38 7z"/>
<path d="M5003 3335 c0 -27 2 -38 4 -22 2 15 2 37 0 50 -2 12 -4 0 -4 -28z"/>
<path d="M5172 3350 c0 -14 2 -19 5 -12 2 6 2 18 0 25 -3 6 -5 1 -5 -13z"/>
<path d="M5032 3340 c0 -14 2 -19 5 -12 2 6 2 18 0 25 -3 6 -5 1 -5 -13z"/>
<path d="M490 3339 c0 -5 5 -7 10 -4 6 3 10 8 10 11 0 2 -4 4 -10 4 -5 0 -10
-5 -10 -11z"/>
<path d="M5356 3329 c-2 -8 -7 -31 -11 -53 -5 -29 -3 -37 7 -34 19 6 35 75 20
90 -9 9 -12 8 -16 -3z"/>
<path d="M5400 3320 c0 -30 33 -43 78 -30 20 5 54 10 75 10 38 0 38 -1 32 -30
-4 -18 -3 -30 4 -30 13 0 45 66 37 78 -3 5 -48 7 -99 4 -64 -3 -96 -1 -101 7
-11 18 -26 13 -26 -9z"/>
<path d="M5234 3296 c-3 -8 -4 -27 -2 -43 3 -23 5 -20 9 15 5 43 2 53 -7 28z"/>
<path d="M250 3290 c0 -5 5 -10 10 -10 6 0 10 5 10 10 0 6 -4 10 -10 10 -5 0
-10 -4 -10 -10z"/>
<path d="M534 3276 c-10 -8 -16 -17 -13 -20 10 -10 39 5 39 20 0 17 -2 17 -26
0z"/>
<path d="M4046 3277 c-42 -31 3 -251 54 -264 11 -3 20 -10 20 -16 0 -6 2 -8 5
-6 2 3 -4 34 -14 70 -16 55 -21 64 -40 62 -19 -3 -21 2 -21 51 0 30 5 56 11
58 6 2 9 16 7 31 -3 26 -5 27 -22 14z m44 -209 c21 -35 25 -48 12 -48 -9 0
-42 54 -42 69 0 19 10 12 30 -21z"/>
<path d="M222 3247 c-7 -18 -12 -46 -12 -61 0 -15 -4 -25 -8 -22 -12 7 -54
-52 -47 -64 9 -14 27 -1 19 13 -5 9 -4 9 6 0 18 -17 2 -34 -26 -27 -20 5 -24
2 -25 -17 -1 -17 -3 -19 -6 -6 -7 27 -21 21 -74 -35 l-49 -52 0 -228 c0 -145
4 -228 10 -228 6 0 10 14 10 30 0 25 4 30 23 29 20 0 20 -1 3 -8 -14 -5 -16
-10 -8 -15 16 -10 -3 -46 -23 -46 -9 0 -15 -9 -15 -22 0 -17 3 -19 12 -10 16
16 28 15 28 -3 0 -8 -4 -15 -8 -15 -18 0 -30 -48 -31 -128 -1 -45 1 -82 3 -82
3 0 10 26 16 58 7 31 16 62 21 68 5 6 6 14 2 17 -3 4 -1 7 5 7 7 0 11 5 9 11
-1 6 4 14 11 16 9 4 11 -2 6 -23 -5 -19 -4 -25 5 -20 6 4 11 14 11 22 0 8 9
14 20 14 12 0 17 -5 14 -14 -8 -20 12 -28 26 -11 11 13 15 13 30 -5 17 -19 18
-17 50 80 28 88 50 132 50 101 0 -6 7 -11 15 -11 14 0 20 17 16 48 -1 6 6 13
16 14 10 0 25 2 33 2 9 1 14 9 12 21 -2 11 -1 17 3 13 4 -4 16 3 27 15 l19 22
-5 -27 c-3 -14 -9 -34 -13 -45 -6 -16 -5 -16 11 -4 9 8 15 20 12 28 -3 7 -2
13 3 13 7 0 34 72 36 95 0 6 4 16 8 23 6 8 2 12 -12 12 -18 0 -19 3 -11 26 11
27 3 26 -32 -4 -21 -18 -22 -15 -7 26 6 18 15 29 20 26 5 -3 6 -10 3 -16 -4
-7 -2 -8 4 -4 7 4 12 14 12 22 0 8 4 14 9 14 5 0 12 7 15 16 5 12 1 14 -17 8
-22 -7 -22 -6 -3 15 11 11 15 21 9 21 -5 0 -7 14 -5 31 3 19 0 34 -8 39 -16
10 -22 38 -9 46 15 9 10 20 -11 21 -11 1 -25 -7 -30 -17 -6 -11 -16 -18 -23
-16 -6 1 -9 1 -4 -1 4 -3 7 -12 7 -20 0 -12 -3 -13 -13 -4 -17 14 -30 2 -16
-15 7 -9 1 -15 -25 -24 -25 -8 -42 -24 -61 -56 -15 -25 -24 -52 -21 -60 3 -8
1 -14 -5 -14 -19 0 -20 28 -3 62 10 18 19 35 19 38 1 3 8 19 15 35 7 17 14 32
14 35 1 3 5 11 10 18 4 7 5 16 2 19 -7 8 -5 11 -51 -67 -21 -36 -41 -67 -45
-70 -14 -12 -40 -61 -40 -75 0 -9 -7 -18 -15 -21 -8 -4 -15 -13 -15 -21 0 -12
-3 -13 -15 -3 -8 6 -19 9 -26 5 -8 -6 -8 -2 0 13 8 15 8 22 -2 25 -9 4 -9 6 1
6 6 1 12 8 12 16 0 8 5 15 10 15 6 0 10 7 10 15 0 8 5 15 10 15 6 0 10 -4 10
-10 0 -5 5 -10 12 -10 9 0 9 3 0 12 -18 18 -15 34 13 78 14 22 22 40 18 40 -4
0 3 9 16 21 17 16 20 24 10 35 -9 11 -8 14 9 14 23 0 47 25 37 40 -3 5 -1 10
4 10 6 0 11 9 11 20 0 36 24 71 57 85 37 16 46 41 11 29 -13 -4 -26 -12 -30
-18 -6 -8 -11 -7 -17 3 -5 7 -13 11 -19 7 -6 -3 -13 -2 -17 4 -11 18 -21 11
-33 -23z m28 -87 c0 -5 -7 -10 -15 -10 -8 0 -15 5 -15 10 0 6 7 10 15 10 8 0
15 -4 15 -10z m-30 -30 c0 -5 -7 -7 -15 -4 -8 4 -15 8 -15 10 0 2 7 4 15 4 8
0 15 -4 15 -10z m-144 -177 c-11 -11 -17 4 -9 23 7 18 8 18 11 1 2 -10 1 -21
-2 -24z m54 17 c-8 -5 -22 -9 -30 -9 -10 0 -8 3 5 9 27 12 43 12 25 0z m-66
-78 c-17 -4 -18 -19 -1 -25 8 -3 6 -10 -8 -21 -16 -13 -17 -17 -6 -25 7 -5 10
-14 6 -20 -5 -9 -10 -9 -22 0 -14 13 -14 18 9 104 l10 39 13 -24 c12 -21 11
-25 -1 -28z m226 -40 c0 -13 -12 -22 -22 -16 -10 6 -1 24 13 24 5 0 9 -4 9 -8z
m-65 -33 c-6 -9 -35 -1 -35 10 0 4 3 11 7 14 8 9 34 -13 28 -24z m-27 -34 c-3
-14 -1 -25 3 -25 13 0 11 -28 -3 -36 -15 -10 -68 -13 -68 -4 0 4 9 15 20 25
11 10 20 22 20 27 0 9 21 37 29 38 2 0 1 -11 -1 -25z m82 15 c0 -5 -5 -10 -11
-10 -5 0 -7 5 -4 10 3 6 8 10 11 10 2 0 4 -4 4 -10z m120 -20 c0 -5 -7 -7 -15
-4 -8 4 -15 8 -15 10 0 2 7 4 15 4 8 0 15 -4 15 -10z m-280 -4 c0 -2 -6 -17
-12 -33 -11 -25 -17 -28 -38 -22 l-25 7 23 7 c16 5 20 10 12 15 -17 11 -3 30
21 30 10 0 19 -2 19 -4z m-71 -32 c-17 -21 -31 -17 -17 5 7 11 16 17 20 14 5
-2 4 -11 -3 -19z m211 -6 c0 -5 -9 -8 -20 -8 -18 0 -19 3 -9 21 9 17 13 19 20
8 5 -8 9 -17 9 -21z m45 22 c3 -5 1 -10 -4 -10 -6 0 -11 5 -11 10 0 6 2 10 4
10 3 0 8 -4 11 -10z m-15 -27 c-1 -26 -14 -53 -27 -53 -8 0 -12 6 -9 13 3 6 9
20 12 30 6 17 24 24 24 10z m-44 -29 c-3 -9 -6 -18 -6 -20 0 -2 -7 -4 -15 -4
-18 0 -19 12 -3 28 17 17 31 15 24 -4z m-224 -56 c-7 -7 -12 -8 -12 -2 0 14
12 26 19 19 2 -3 -1 -11 -7 -17z m152 -12 c-3 -14 -10 -26 -14 -26 -5 0 -3 13
3 30 13 35 21 33 11 -4z m-87 18 c-3 -3 -12 -4 -19 -1 -8 3 -5 6 6 6 11 1 17
-2 13 -5z m63 -15 c0 -14 -17 -10 -23 5 -4 10 -1 13 9 9 7 -3 14 -9 14 -14z
m141 -26 c-12 -20 -14 -14 -5 12 4 9 9 14 11 11 3 -2 0 -13 -6 -23z m-81 7 c0
-5 -4 -10 -10 -10 -5 0 -10 5 -10 10 0 6 5 10 10 10 6 0 10 -4 10 -10z m35 0
c-3 -5 -11 -10 -16 -10 -6 0 -7 5 -4 10 3 6 11 10 16 10 6 0 7 -4 4 -10z
m-175 -10 c0 -5 -5 -10 -11 -10 -5 0 -7 5 -4 10 3 6 8 10 11 10 2 0 4 -4 4
-10z m124 -42 c-6 -20 -5 -21 10 -9 10 8 16 9 16 3 0 -7 7 -9 17 -5 11 4 14 3
9 -5 -4 -7 -21 -10 -40 -7 -31 3 -34 1 -40 -27 -3 -16 -4 -33 -1 -37 2 -4 -3
-8 -11 -8 -9 0 -13 6 -9 16 4 9 7 18 8 21 1 3 -2 6 -8 8 -5 1 -16 -16 -24 -39
-10 -32 -17 -40 -34 -37 -12 2 -23 11 -25 21 -3 15 1 18 15 13 15 -5 23 0 31
20 7 14 11 29 8 32 -2 4 6 16 17 27 18 18 19 18 14 2 -4 -11 -3 -16 3 -12 6 3
10 12 10 20 0 12 14 22 33 24 5 1 5 -9 1 -21z m-82 -16 c-7 -5 -10 -16 -7 -24
8 -19 -6 -30 -24 -19 -18 11 3 51 27 51 13 0 14 -2 4 -8z m77 -127 c-6 -6 -13
-6 -18 3 -4 7 -15 10 -24 6 -9 -3 -17 -2 -17 4 0 16 22 19 46 8 15 -7 20 -14
13 -21z"/>
<path d="M458 3259 c-10 -10 -18 -27 -17 -36 0 -11 3 -13 6 -5 2 6 11 12 19
12 8 0 14 4 14 9 0 5 3 16 6 25 8 21 -7 19 -28 -5z"/>
<path d="M5271 3258 c0 -9 -4 -25 -7 -35 -5 -14 -4 -15 5 -7 7 7 11 22 8 35
-2 13 -5 16 -6 7z"/>
<path d="M5410 3251 c0 -6 4 -12 9 -15 14 -9 -26 -88 -57 -113 -19 -17 -22
-23 -11 -23 9 0 24 9 34 20 10 11 25 20 34 20 9 0 49 -25 90 -55 80 -59 113
-67 156 -39 30 20 33 34 5 27 -21 -6 -134 30 -158 50 -10 8 -12 23 -8 50 4 24
2 45 -5 53 -9 12 -5 14 25 14 20 0 36 5 36 10 0 6 -32 10 -75 10 -41 0 -75 -4
-75 -9z m62 -56 c-5 -38 -12 -48 -29 -37 -17 11 -4 72 16 72 14 0 16 -7 13
-35z"/>
<path d="M387 3213 c-4 -3 -7 -11 -7 -17 0 -6 5 -5 12 2 6 6 9 14 7 17 -3 3
-9 2 -12 -2z"/>
<path d="M5526 3175 c-19 -14 -19 -15 7 -15 17 0 27 5 27 15 0 19 -9 19 -34 0z"/>
<path d="M5180 3170 c0 -5 4 -10 9 -10 6 0 13 5 16 10 3 6 -1 10 -9 10 -9 0
-16 -4 -16 -10z"/>
<path d="M306 3094 c-4 -9 -4 -19 -1 -22 2 -3 7 3 11 12 4 9 4 19 1 22 -2 3
-7 -3 -11 -12z"/>
<path d="M219 3039 c-15 -29 -5 -35 19 -11 16 16 18 22 6 26 -8 3 -18 -4 -25
-15z"/>
<path d="M3495 2967 c-19 -35 -35 -71 -35 -79 0 -8 -7 -23 -15 -34 -19 -25
-20 -84 -1 -84 13 0 28 39 56 142 16 59 30 53 30 -13 0 -27 6 -57 13 -66 32
-42 96 -103 106 -103 39 0 17 118 -35 190 -31 44 -41 51 -61 45 -25 -6 -26 -1
-6 53 3 6 0 12 -5 12 -6 0 -27 -29 -47 -63z"/>
<path d="M5364 2997 c-3 -8 0 -26 7 -39 7 -13 12 -33 10 -45 -2 -23 15 -63 33
-75 14 -9 -10 -10 -41 -2 -17 5 -23 14 -23 33 0 37 -23 66 -44 58 -14 -6 -15
-11 -6 -28 7 -11 9 -31 6 -44 -3 -14 -1 -25 5 -27 9 -3 9 -14 2 -38 -6 -19 -9
-59 -8 -87 1 -29 3 -66 4 -82 1 -40 33 -49 154 -43 68 3 101 1 112 -8 11 -9
19 -10 28 -1 11 8 13 40 9 138 -2 71 0 144 4 163 5 19 8 52 6 74 l-3 39 -63
-7 c-55 -5 -65 -4 -81 14 -22 24 -29 25 -50 4 -15 -15 -17 -15 -35 1 -17 16
-20 16 -26 2z m232 -89 c-3 -29 -6 -65 -6 -79 0 -26 -1 -27 -40 -17 l-39 10
24 35 c28 42 23 62 -16 70 -56 11 -28 29 50 32 l34 1 -7 -52z m-16 -189 c0
-22 -4 -39 -8 -39 -5 0 -7 -13 -4 -30 3 -24 1 -30 -14 -30 -11 0 -28 -3 -40
-6 -18 -5 -20 -2 -16 25 2 17 -1 37 -7 45 -8 10 -5 16 15 25 20 9 25 17 20 34
-5 21 -3 23 24 19 27 -4 30 -8 30 -43z m-188 -82 c33 -25 28 -37 -17 -37 -39
0 -59 24 -44 53 10 18 15 17 61 -16z"/>
<path d="M191 2986 c-8 -10 -9 -16 -1 -21 5 -3 13 1 16 10 9 22 -1 29 -15 11z"/>
<path d="M4562 2797 c-25 -27 -29 -52 -7 -43 11 4 15 -2 15 -25 0 -33 45 -129
60 -129 28 0 -1 166 -30 175 -12 4 -16 12 -13 25 7 26 1 25 -25 -3z"/>
<path d="M3130 2745 c0 -19 43 -85 55 -85 24 0 17 37 -12 65 -26 24 -43 31
-43 20z"/>
<path d="M3500 2698 c-40 -51 -75 -168 -50 -168 6 0 13 8 16 18 11 31 49 106
62 120 13 14 17 62 5 61 -5 0 -19 -14 -33 -31z"/>
<path d="M640 2625 c0 -8 2 -15 4 -15 2 0 6 7 10 15 3 8 1 15 -4 15 -6 0 -10
-7 -10 -15z"/>
<path d="M3557 2634 c-6 -7 20 -82 35 -98 12 -14 10 20 -4 65 -11 38 -18 46
-31 33z"/>
<path d="M391 2584 c0 -11 3 -14 6 -6 3 7 2 16 -1 19 -3 4 -6 -2 -5 -13z"/>
<path d="M630 2580 c0 -5 7 -7 15 -4 8 4 15 8 15 10 0 2 -7 4 -15 4 -8 0 -15
-4 -15 -10z"/>
<path d="M255 2493 c-25 -55 -26 -78 -3 -55 7 7 13 17 14 24 1 7 9 30 18 51
10 21 12 37 6 37 -6 0 -22 -25 -35 -57z"/>
<path d="M2643 2535 c-3 -9 -3 -18 0 -22 10 -10 37 6 37 22 0 20 -29 20 -37 0z"/>
<path d="M600 2529 c0 -5 5 -7 10 -4 6 3 10 8 10 11 0 2 -4 4 -10 4 -5 0 -10
-5 -10 -11z"/>
<path d="M670 2525 c-10 -12 -10 -15 3 -15 19 0 31 16 18 24 -5 3 -14 -1 -21
-9z"/>
<path d="M3104 2494 c-7 -47 1 -74 25 -82 9 -3 11 13 9 59 -4 77 -24 91 -34
23z"/>
<path d="M635 2499 c-10 -15 -2 -19 24 -12 17 4 19 8 9 14 -18 12 -26 11 -33
-2z"/>
<path d="M576 2475 c4 -8 8 -15 10 -15 2 0 4 7 4 15 0 8 -4 15 -10 15 -5 0 -7
-7 -4 -15z"/>
<path d="M700 2479 c0 -5 5 -7 10 -4 6 3 10 8 10 11 0 2 -4 4 -10 4 -5 0 -10
-5 -10 -11z"/>
<path d="M526 2443 c-13 -21 -21 -40 -18 -43 2 -3 7 1 10 9 4 11 6 11 14 0 8
-11 8 -10 4 4 -3 10 1 29 10 43 9 13 14 24 10 24 -3 0 -16 -17 -30 -37z"/>
<path d="M646 2453 c-6 -14 -5 -15 5 -6 7 7 10 15 7 18 -3 3 -9 -2 -12 -12z"/>
<path d="M3492 2433 c-11 -21 -22 -51 -26 -67 -6 -26 -4 -25 34 18 41 48 52
86 25 86 -8 0 -23 -17 -33 -37z"/>
<path d="M550 2432 c0 -4 14 -9 32 -10 37 -3 35 2 -4 12 -16 3 -28 3 -28 -2z"/>
<path d="M226 2404 c-9 -24 -7 -28 9 -14 17 14 20 30 6 30 -5 0 -12 -7 -15
-16z"/>
<path d="M650 2399 c0 -5 5 -7 10 -4 6 3 10 8 10 11 0 2 -4 4 -10 4 -5 0 -10
-5 -10 -11z"/>
<path d="M136 2370 c-10 -11 -20 -30 -22 -42 -2 -13 -6 -48 -10 -78 -4 -30
-11 -60 -16 -66 -5 -7 -8 -16 -6 -20 1 -5 -3 -18 -9 -30 -7 -11 -13 -45 -14
-75 -1 -30 -8 -70 -16 -88 -7 -19 -12 -40 -9 -47 2 -6 -4 -18 -15 -27 -16 -15
-19 -31 -19 -122 0 -58 2 -105 5 -105 2 0 9 18 15 40 6 22 16 40 22 40 5 0 8
9 5 20 -3 11 -2 20 2 20 4 0 12 15 18 34 9 30 8 34 -5 29 -16 -7 -13 17 9 74
10 26 12 27 19 8 6 -14 8 -8 7 22 -1 32 4 47 18 58 11 8 14 15 8 15 -18 0 -16
35 2 54 8 8 15 22 15 30 0 9 4 16 10 16 5 0 7 -6 4 -14 -7 -19 16 -32 27 -15
16 26 41 122 36 141 -3 10 0 24 6 31 7 7 18 23 25 35 11 21 10 22 -21 22 -27
0 -35 5 -44 30 -13 35 -21 36 -47 10z m49 -127 c-4 -62 -16 -103 -32 -103 -17
0 -14 51 5 85 6 11 13 28 16 38 9 28 14 19 11 -20z"/>
<path d="M593 2382 c-19 -12 -85 -104 -79 -110 8 -7 64 56 72 80 4 14 12 17
27 13 12 -4 18 -3 12 2 -5 5 -12 11 -15 15 -3 4 -11 4 -17 0z"/>
<path d="M691 2369 c-7 -12 -10 -23 -8 -26 3 -3 11 5 17 17 15 28 8 35 -9 9z"/>
<path d="M3511 2364 c0 -11 3 -14 6 -6 3 7 2 16 -1 19 -3 4 -6 -2 -5 -13z"/>
<path d="M478 2363 c7 -3 16 -2 19 1 4 3 -2 6 -13 5 -11 0 -14 -3 -6 -6z"/>
<path d="M60 2346 c0 -2 7 -7 16 -10 8 -3 12 -2 9 4 -6 10 -25 14 -25 6z"/>
<path d="M455 2340 c-3 -5 1 -10 9 -10 8 0 18 5 21 10 3 6 -1 10 -9 10 -8 0
-18 -4 -21 -10z"/>
<path d="M580 2310 c-17 -22 -28 -40 -23 -40 8 0 68 80 59 80 -2 0 -19 -18
-36 -40z"/>
<path d="M3502 2310 c0 -14 2 -19 5 -12 2 6 2 18 0 25 -3 6 -5 1 -5 -13z"/>
<path d="M3521 2304 c0 -11 3 -14 6 -6 3 7 2 16 -1 19 -3 4 -6 -2 -5 -13z"/>
<path d="M3487 2216 c-4 -10 -7 -32 -6 -49 1 -31 1 -31 10 7 10 43 7 72 -4 42z"/>
<path d="M0 2144 c0 -8 5 -12 10 -9 6 4 8 11 5 16 -9 14 -15 11 -15 -7z"/>
<path d="M143 2050 c-10 -35 -7 -70 6 -70 11 0 31 64 22 69 -4 4 -10 13 -13
21 -3 9 -9 2 -15 -20z"/>
<path d="M270 2070 c0 -5 5 -10 10 -10 6 0 10 5 10 10 0 6 -4 10 -10 10 -5 0
-10 -4 -10 -10z"/>
<path d="M342 2073 c-7 -2 -17 -14 -23 -25 -10 -18 -9 -20 6 -14 15 5 14 2 -4
-29 -25 -43 -26 -46 -6 -39 22 9 18 -3 -10 -34 -29 -32 -30 -36 -9 -56 8 -9
11 -16 6 -16 -10 0 -24 -41 -17 -48 7 -7 29 51 26 67 -3 19 17 30 42 23 18 -5
18 -6 4 -17 -12 -9 -15 -21 -10 -49 7 -43 17 -33 27 29 4 22 10 49 13 60 6 20
5 20 -16 1 -19 -18 -23 -18 -37 -5 -13 14 -12 17 6 34 12 11 20 13 20 6 0 -7
5 -9 10 -6 15 9 12 25 -4 25 -10 0 -13 10 -12 33 4 47 4 47 29 57 22 9 22 9
-3 9 -14 -1 -31 -3 -38 -6z"/>
<path d="M370 2018 c0 -19 2 -20 10 -8 13 19 13 30 0 30 -5 0 -10 -10 -10 -22z"/>
<path d="M130 1961 c0 -6 5 -13 10 -16 6 -3 10 1 10 9 0 9 -4 16 -10 16 -5 0
-10 -4 -10 -9z"/>
<path d="M109 1883 c-12 -27 -25 -57 -30 -68 -8 -19 -28 -101 -29 -117 0 -5 4
-8 8 -8 4 0 14 21 21 48 7 26 21 61 30 77 10 17 25 49 34 73 15 36 15 42 2 42
-8 0 -24 -21 -36 -47z"/>
<path d="M221 1824 c0 -11 3 -14 6 -6 3 7 2 16 -1 19 -3 4 -6 -2 -5 -13z"/>
<path d="M255 1720 c-3 -5 1 -10 9 -10 9 0 16 5 16 10 0 6 -4 10 -9 10 -6 0
-13 -4 -16 -10z"/>
<path d="M432 1689 c-56 -11 -62 -15 -62 -49 0 -30 17 -50 29 -33 14 23 78 24
134 3 31 -12 77 -21 104 -21 26 0 61 0 77 0 36 0 63 20 44 32 -7 5 -30 9 -50
9 -20 0 -40 5 -43 10 -3 6 -22 10 -41 10 -19 0 -47 9 -62 19 -35 25 -76 31
-130 20z"/>
<path d="M41 1625 c0 -12 -6 -26 -11 -31 -10 -10 -24 -84 -16 -84 9 0 37 101
33 117 -4 15 -5 15 -6 -2z"/>
<path d="M236 1625 c-3 -8 -1 -15 4 -15 6 0 10 7 10 15 0 8 -2 15 -4 15 -2 0
-6 -7 -10 -15z"/>
<path d="M240 1570 c0 -5 5 -10 10 -10 6 0 10 5 10 10 0 6 -4 10 -10 10 -5 0
-10 -4 -10 -10z"/>
<path d="M175 1510 c-3 -5 -1 -10 4 -10 6 0 11 5 11 10 0 6 -2 10 -4 10 -3 0
-8 -4 -11 -10z"/>
<path d="M2 1460 c0 -14 2 -19 5 -12 2 6 2 18 0 25 -3 6 -5 1 -5 -13z"/>
<path d="M145 1410 c-3 -5 -1 -10 4 -10 6 0 11 5 11 10 0 6 -2 10 -4 10 -3 0
-8 -4 -11 -10z"/>
<path d="M86 1268 c-13 -40 -15 -68 -7 -68 13 0 17 8 26 48 4 21 3 32 -5 32
-6 0 -12 -6 -14 -12z"/>
<path d="M40 1129 c0 -5 5 -7 10 -4 6 3 10 8 10 11 0 2 -4 4 -10 4 -5 0 -10
-5 -10 -11z"/>
<path d="M2720 1052 c0 -19 26 -30 90 -36 106 -11 151 -26 182 -62 16 -18 69
-53 117 -77 137 -70 151 -81 114 -94 -39 -14 -73 -45 -73 -67 0 -13 17 -40 40
-64 22 -22 40 -45 40 -50 0 -5 -28 -32 -62 -61 l-62 -53 -81 7 c-44 4 -88 9
-98 11 -9 1 -30 -1 -45 -6 -15 -5 -40 -11 -57 -14 -51 -7 -66 -17 -60 -37 7
-21 -18 -26 -45 -9 -12 8 -11 10 8 10 12 0 22 5 22 10 0 14 -20 12 -51 -4 -15
-7 -51 -22 -80 -31 -61 -20 -81 -33 -76 -49 5 -16 -23 -42 -31 -29 -4 6 -17
13 -29 17 -18 6 -23 3 -24 -11 0 -11 -3 -13 -6 -5 -4 10 -10 10 -29 -3 -13 -9
-25 -11 -25 -5 -1 5 -2 16 -3 23 -1 16 -91 38 -128 30 -22 -4 -28 -10 -26 -27
2 -13 12 -22 26 -24 19 -3 21 -6 11 -18 -9 -11 -15 -11 -25 -3 -7 6 -18 8 -24
4 -8 -5 -6 -11 6 -19 14 -11 16 -23 11 -65 -5 -41 -3 -51 8 -51 8 0 15 8 16
18 0 11 2 12 6 4 3 -7 -1 -19 -8 -28 -10 -12 -8 -17 7 -29 23 -17 34 -19 34
-5 0 6 5 10 10 10 6 0 10 -7 10 -15 0 -8 5 -15 10 -15 6 0 10 5 10 12 0 6 3 9
6 5 4 -3 14 1 23 10 11 12 13 17 3 21 -6 2 -12 13 -12 25 0 11 3 17 6 14 4 -3
17 1 29 11 25 20 106 23 112 5 3 -7 -7 -18 -21 -24 -26 -12 -35 -42 -16 -54 6
-4 8 -16 4 -27 -5 -18 -3 -20 21 -16 17 4 28 1 32 -9 9 -23 -3 -25 -58 -9 -29
9 -81 16 -116 16 -44 0 -63 4 -63 13 0 9 -2 9 -8 0 -4 -7 -36 -11 -80 -11 -63
0 -71 2 -56 13 10 7 24 11 31 8 7 -3 18 7 25 22 9 21 9 31 -1 47 -10 17 -10
23 5 39 16 18 16 19 -9 19 -14 0 -33 7 -41 16 -21 20 -21 41 -1 24 10 -9 15
-9 15 -1 0 6 7 11 16 11 8 0 12 5 9 11 -4 6 -13 8 -20 5 -7 -2 -18 1 -24 7 -6
6 -11 8 -11 3 0 -4 -7 0 -16 8 -8 9 -12 20 -9 26 9 14 -8 13 -23 -2 -7 -7 -48
-12 -107 -12 -54 0 -95 -5 -95 -10 0 -6 -5 -5 -12 2 -15 15 -28 16 -28 2 0 -5
6 -10 13 -10 27 0 59 -41 55 -71 -5 -32 1 -36 21 -16 11 10 12 8 6 -13 -8 -26
-13 -68 -14 -117 -1 -30 -3 -31 -51 -38 -31 -4 -55 -3 -63 4 -7 5 -47 9 -89 8
-62 -2 -80 1 -97 17 -19 17 -30 18 -146 9 -109 -8 -128 -12 -149 -32 -23 -22
-33 -23 -123 -22 -54 1 -111 2 -128 3 -16 0 -70 -4 -120 -10 -534 -62 -579
-60 1060 -59 809 0 1440 3 1403 6 -93 8 -93 17 0 12 42 -2 80 -8 83 -13 4 -6
9 -6 14 2 4 6 13 9 20 6 8 -3 15 0 17 6 3 8 13 8 34 1 32 -11 184 -9 340 4 57
4 123 4 150 -1 27 -5 65 -9 86 -10 20 0 34 -4 31 -9 -6 -10 199 -8 277 3 115
16 446 17 420 0 -11 -7 -2 -10 33 -10 l48 0 -7 37 c-8 46 -11 50 -26 35 -13
-13 -32 -16 -25 -4 3 4 -51 8 -120 8 -94 1 -127 5 -135 15 -7 11 -11 11 -15 2
-3 -8 -22 -13 -46 -13 -23 0 -98 -7 -167 -15 -174 -21 -248 -19 -312 6 -46 18
-65 19 -173 14 -66 -4 -135 -10 -154 -13 -38 -8 -234 2 -368 18 -87 11 -145 7
-225 -16 -18 -5 -18 -5 18 91 4 11 8 22 8 25 1 3 11 25 23 50 12 25 27 64 33
87 6 23 15 45 20 48 6 4 8 17 6 30 -3 14 1 26 10 29 8 3 14 14 14 25 0 11 4
22 9 26 10 6 9 38 -1 65 -4 8 -9 27 -12 41 -8 35 -37 64 -65 64 -30 0 -40 22
-14 32 10 3 39 22 66 40 80 59 63 92 -78 147 -95 37 -163 71 -204 102 -44 31
-114 52 -216 63 -44 4 -88 11 -97 16 -10 4 -18 3 -18 -3z m519 -608 c-7 -13
-16 -24 -20 -24 -8 0 4 51 17 72 15 23 17 -22 3 -48z m-435 -30 c14 -5 14 -9
4 -22 -11 -13 -11 -14 2 -7 11 6 10 3 -2 -12 -10 -11 -18 -25 -18 -31 0 -6 -7
-9 -15 -6 -17 7 -19 0 -6 -25 10 -19 4 -64 -8 -57 -4 3 -7 -18 -8 -46 l-1 -50
19 28 c11 16 17 37 15 47 -2 10 2 21 10 24 8 3 14 11 14 19 0 8 7 14 15 14 8
0 14 3 14 8 -4 21 2 42 12 42 5 0 7 -4 4 -10 -3 -5 2 -10 11 -10 16 0 16 1 0
19 -15 16 -15 19 -1 31 9 7 19 10 22 6 13 -13 14 -56 1 -61 -9 -4 -12 -19 -10
-45 4 -39 16 -52 25 -27 3 7 6 4 6 -7 1 -13 4 -16 14 -8 9 8 13 1 14 -30 3
-45 10 -59 21 -40 5 6 19 13 32 15 13 2 26 9 28 15 7 23 19 11 14 -14 -6 -32
17 -29 34 4 6 12 14 19 17 16 4 -4 9 12 13 34 9 55 27 70 48 41 8 -12 13 -26
10 -31 -3 -4 0 -8 5 -8 6 0 11 8 11 18 0 10 7 28 16 40 9 13 11 22 4 22 -6 0
-8 5 -4 11 4 7 9 8 17 0 7 -7 7 -14 0 -23 -6 -7 -11 -20 -11 -28 -4 -42 -16
-86 -28 -98 -17 -16 -19 -83 -3 -80 6 2 13 -2 16 -9 8 -22 -92 -34 -186 -23
-74 10 -89 15 -110 38 -22 25 -23 25 -17 5 7 -23 6 -23 -83 -23 l-91 0 0 26
c0 22 -3 24 -14 15 -21 -17 -28 2 -14 36 6 15 10 34 9 41 -1 6 3 12 8 12 6 0
18 26 27 58 9 31 26 70 38 87 11 16 19 38 18 47 -3 19 13 23 42 12z m-140 -36
c-3 -5 -12 -4 -20 3 -7 6 -11 15 -8 21 3 5 12 4 20 -3 7 -6 11 -15 8 -21z
m543 0 c-3 -8 -6 -5 -6 6 -1 11 2 17 5 13 3 -3 4 -12 1 -19z m-197 8 c0 -3 -4
-8 -10 -11 -5 -3 -10 -1 -10 4 0 6 5 11 10 11 6 0 10 -2 10 -4z m45 -16 c-4
-6 -10 -8 -15 -5 -4 3 -7 -1 -6 -8 0 -6 -2 -13 -6 -14 -5 -2 -8 -1 -8 2 0 3 0
12 0 20 0 8 9 15 21 15 11 0 17 -5 14 -10z m95 6 c0 -2 -7 -9 -15 -16 -13 -11
-14 -10 -9 4 5 14 24 23 24 12z m-575 -16 c3 -5 1 -10 -4 -10 -6 0 -11 5 -11
10 0 6 2 10 4 10 3 0 8 -4 11 -10z m531 -27 c-11 -11 -17 4 -9 23 7 18 8 18
11 1 2 -10 1 -21 -2 -24z m-762 11 c6 -15 4 -15 -11 -3 -10 7 -20 15 -22 16
-2 2 3 3 11 3 9 0 19 -7 22 -16z m843 10 c-3 -3 -12 -4 -19 -1 -8 3 -5 6 6 6
11 1 17 -2 13 -5z m-1152 -23 c-19 -8 -19 -8 4 -20 27 -15 22 -26 -8 -16 -29
9 -28 45 2 44 21 0 21 -1 2 -8z m935 -12 c0 -11 -4 -17 -10 -14 -5 3 -10 13
-10 21 0 8 5 14 10 14 6 0 10 -9 10 -21z m190 11 c0 -5 -2 -10 -4 -10 -3 0 -8
5 -11 10 -3 6 -1 10 4 10 6 0 11 -4 11 -10z m-606 -26 c8 -21 -27 -56 -47 -48
-10 3 -17 15 -17 25 0 10 -6 19 -12 19 -7 1 1 7 17 14 34 15 51 12 59 -10z
m381 6 c3 -5 1 -10 -4 -10 -6 0 -11 5 -11 10 0 6 2 10 4 10 3 0 8 -4 11 -10z
m-635 -10 c0 -5 -10 -10 -22 -10 -19 0 -20 2 -8 10 19 13 30 13 30 0z m870 -4
c0 -3 -4 -8 -10 -11 -5 -3 -10 -1 -10 4 0 6 5 11 10 11 6 0 10 -2 10 -4z
m-197 -26 c-3 -12 -8 -19 -11 -16 -5 6 5 36 12 36 2 0 2 -9 -1 -20z m58 -2
c-4 -13 -6 -28 -4 -34 2 -6 -2 -11 -9 -11 -12 0 -14 14 -9 60 1 4 8 7 16 7 11
0 12 -6 6 -22z m-497 -85 c-2 -21 -2 -32 2 -25 8 17 25 15 18 -3 -7 -17 -44
-21 -44 -5 0 6 -6 10 -13 10 -21 0 -16 32 5 38 10 2 18 8 18 13 0 5 4 9 9 9 6
0 8 -17 5 -37z m657 -16 c-10 -9 -11 -8 -5 6 3 10 9 15 12 12 3 -3 0 -11 -7
-18z m-1066 -57 c4 -6 -6 -10 -22 -9 -25 0 -26 1 -8 9 11 5 21 9 22 9 1 1 5
-3 8 -9z m-82 -7 c-7 -2 -19 -2 -25 0 -7 3 -2 5 12 5 14 0 19 -2 13 -5z m558
-20 c-8 -15 -10 -15 -11 -2 0 17 10 32 18 25 2 -3 -1 -13 -7 -23z m-1236 -13
c3 -5 -1 -10 -10 -10 -9 0 -13 5 -10 10 3 6 8 10 10 10 2 0 7 -4 10 -10z m685
-30 c0 -5 -4 -10 -10 -10 -5 0 -10 5 -10 10 0 6 5 10 10 10 6 0 10 -4 10 -10z
m374 -10 c-10 -4 -21 -6 -24 -3 -8 7 24 22 34 16 5 -4 1 -10 -10 -13z"/>
<path d="M3117 233 c-4 -3 -7 -13 -7 -22 1 -13 3 -13 11 2 11 19 8 33 -4 20z"/>
<path d="M2865 200 c-3 -5 -1 -18 4 -28 6 -11 7 -22 3 -26 -3 -4 2 -4 11 0 16
6 16 8 3 23 -12 13 -13 20 -4 29 9 9 9 12 1 12 -7 0 -15 -4 -18 -10z"/>
<path d="M4992 933 c-18 -9 -42 -30 -54 -47 -12 -17 -29 -36 -36 -42 -19 -14
-43 -85 -36 -106 3 -10 15 -18 26 -18 12 0 30 -7 40 -17 10 -9 18 -12 18 -6 0
12 -29 38 -53 46 -17 6 -15 27 2 27 19 0 76 -56 73 -71 -2 -13 10 -19 65 -27
37 -5 72 -6 77 -2 5 5 14 6 22 3 9 -3 12 5 12 27 -1 43 14 57 47 42 33 -15 42
-15 27 0 -7 7 -12 23 -13 38 0 23 -1 23 -9 5 -8 -21 -9 -21 -25 30 -6 21 11
28 36 15 14 -8 19 -18 16 -31 -3 -10 -2 -17 2 -15 4 3 17 -15 29 -39 20 -42
22 -43 56 -35 19 4 37 5 40 2 6 -5 10 22 7 46 -1 6 3 12 10 12 8 0 8 4 1 13
-5 6 -9 28 -7 47 4 50 -43 80 -126 80 -40 0 -73 7 -99 20 -47 24 -103 25 -148
3z m12 -108 c-4 -8 -13 -15 -22 -15 -13 0 -12 3 4 15 24 18 25 18 18 0z m102
-73 c-11 -10 -13 3 -7 43 l6 40 3 -39 c2 -21 1 -41 -2 -44z m-125 17 c6 -11 8
-23 5 -27 -7 -6 -76 57 -76 70 0 15 59 -21 71 -43z m78 -31 c9 3 11 0 6 -7 -4
-7 -14 -10 -22 -7 -9 4 -22 1 -30 -5 -18 -16 -28 -4 -12 14 9 9 20 12 29 7 8
-4 21 -5 29 -2z"/>
<path d="M180 863 c0 -9 -17 -13 -47 -14 -36 0 -43 -3 -28 -9 27 -11 95 -11
120 1 19 9 18 9 -3 5 -13 -3 -26 2 -32 12 -5 10 -10 12 -10 5z"/>
<path d="M4776 861 c-4 -6 -5 -11 -1 -11 3 0 1 -8 -4 -19 -7 -13 -6 -23 5 -37
14 -18 14 -18 12 6 -1 14 1 31 6 38 5 8 4 18 -2 24 -6 6 -12 6 -16 -1z"/>
<path d="M255 840 c-4 -6 7 -10 27 -9 27 0 30 2 13 9 -27 12 -33 12 -40 0z"/>
<path d="M5545 831 c6 -5 24 -13 40 -17 39 -9 30 0 -15 15 -19 6 -30 7 -25 2z"/>
<path d="M5621 807 c32 -26 69 -47 69 -40 0 9 -52 43 -66 43 -4 0 -5 -1 -3 -3z"/>
<path d="M4306 784 c-20 -19 -20 -28 -2 -63 17 -32 46 -59 46 -42 0 6 -4 11
-8 11 -4 0 -16 13 -25 30 -19 31 -12 62 15 73 9 4 9 6 1 6 -6 1 -19 -6 -27
-15z"/>
<path d="M4497 789 c-10 -6 -17 -21 -16 -37 1 -21 2 -22 6 -7 3 11 12 26 21
32 20 16 12 25 -11 12z"/>
<path d="M0 770 c0 -17 7 -20 43 -21 110 -3 149 0 160 15 7 8 21 16 32 18 11
3 -28 5 -87 5 -74 1 -108 -2 -108 -10 0 -8 -4 -7 -12 1 -18 18 -28 15 -28 -8z"/>
<path d="M298 753 c12 -2 30 -2 40 0 9 3 -1 5 -23 4 -22 0 -30 -2 -17 -4z"/>
<path d="M4117 723 c-4 -3 -7 -11 -7 -17 0 -6 5 -5 12 2 6 6 9 14 7 17 -3 3
-9 2 -12 -2z"/>
<path d="M5540 715 c-1 -24 -69 -70 -132 -90 -24 -7 -35 -13 -24 -14 34 -2 97
22 107 41 5 10 18 18 29 18 25 0 46 38 31 53 -8 8 -11 6 -11 -8z"/>
<path d="M5768 694 c3 -15 8 -22 14 -16 9 9 1 42 -12 42 -4 0 -5 -12 -2 -26z"/>
<path d="M2792 694 c-13 -14 76 -23 195 -20 43 1 67 -2 60 -7 -7 -5 1 -7 21
-4 17 2 32 0 32 -5 0 -4 8 -8 17 -8 16 0 16 1 0 17 -11 12 -34 17 -77 17 -33
1 -60 5 -60 9 0 5 -27 7 -60 5 -33 -2 -60 0 -60 4 0 12 -55 6 -68 -8z"/>
<path d="M4520 706 c0 -2 7 -9 15 -16 9 -7 15 -8 15 -2 0 5 -7 12 -15 16 -8 3
-15 4 -15 2z"/>
<path d="M4588 683 c6 -2 18 -2 25 0 6 3 1 5 -13 5 -14 0 -19 -2 -12 -5z"/>
<path d="M4862 668 c10 -30 64 -45 181 -50 65 -3 119 -2 122 2 3 4 22 10 43
14 22 3 46 13 53 23 13 15 12 16 -6 9 -56 -23 -100 -30 -205 -33 -111 -4 -117
-3 -154 22 -21 14 -36 20 -34 13z"/>
<path d="M4771 654 c-1 -11 7 -28 17 -36 26 -23 82 -50 95 -45 7 2 -4 9 -24
16 -36 12 -72 43 -82 71 -4 10 -6 9 -6 -6z"/>
<path d="M3148 653 c7 -3 16 -2 19 1 4 3 -2 6 -13 5 -11 0 -14 -3 -6 -6z"/>
<path d="M726 623 c-9 -23 8 -31 84 -38 36 -3 117 -13 180 -22 63 -9 149 -17
189 -19 64 -3 78 -1 93 16 21 23 17 26 -44 29 -43 2 -47 0 -42 -16 6 -17 6
-17 -7 -1 -14 16 -93 32 -224 43 -33 3 -94 9 -135 15 -41 5 -78 10 -81 10 -4
0 -10 -8 -13 -17z"/>
<path d="M2784 615 c10 -11 36 -15 91 -15 55 0 81 4 91 15 14 13 4 15 -91 15
-95 0 -105 -2 -91 -15z"/>
<path d="M5300 598 c-25 -6 -51 -15 -58 -21 -7 -6 -56 -10 -110 -10 -85 0 -90
-1 -42 -7 92 -13 146 -11 160 5 6 7 32 17 56 21 24 3 47 10 50 15 6 10 4 10
-56 -3z"/>
<path d="M5625 600 c-8 -13 15 -13 35 0 12 8 11 10 -7 10 -12 0 -25 -4 -28
-10z"/>
<path d="M1333 575 c-10 -7 -16 -16 -13 -19 21 -20 377 -33 431 -16 21 7 36
17 33 21 -8 14 -74 11 -74 -3 0 -9 -3 -9 -9 1 -6 10 -21 12 -49 8 -23 -2 -43
-2 -47 1 -3 3 -47 7 -98 9 -51 1 -106 5 -124 7 -17 3 -39 -2 -50 -9z"/>
<path d="M5570 580 c0 -5 7 -7 15 -4 8 4 15 8 15 10 0 2 -7 4 -15 4 -8 0 -15
-4 -15 -10z"/>
<path d="M4908 563 c6 -2 18 -2 25 0 6 3 1 5 -13 5 -14 0 -19 -2 -12 -5z"/>
<path d="M4968 553 c12 -2 30 -2 40 0 9 3 -1 5 -23 4 -22 0 -30 -2 -17 -4z"/>
<path d="M5301 494 c-19 -8 -31 -17 -28 -20 3 -3 16 0 29 7 12 7 37 16 53 20
27 6 28 7 5 8 -14 0 -40 -6 -59 -15z"/>
<path d="M1106 485 c-3 -9 -6 -18 -6 -19 0 -2 22 -4 49 -5 34 -1 54 4 65 15
14 13 16 13 16 1 0 -10 7 -13 20 -10 44 12 11 28 -62 31 -62 2 -77 0 -82 -13z"/>
<path d="M5118 463 c7 -3 16 -2 19 1 4 3 -2 6 -13 5 -11 0 -14 -3 -6 -6z"/>
<path d="M972 368 c-20 -20 -14 -26 31 -32 107 -15 156 -18 173 -8 11 6 25 7
35 1 18 -9 365 -20 373 -11 6 6 50 11 119 14 26 1 50 5 53 10 3 4 14 8 25 8
10 0 19 5 19 10 0 13 -56 13 -80 0 -13 -7 -28 -7 -47 1 -15 5 -29 7 -30 2 -4
-12 -518 -2 -618 12 -26 4 -45 1 -53 -7z"/>
<path d="M1850 321 c0 -6 5 -13 10 -16 6 -3 10 1 10 9 0 9 -4 16 -10 16 -5 0
-10 -4 -10 -9z"/>
<path d="M1867 233 c-4 -3 -7 -11 -7 -17 0 -6 5 -5 12 2 6 6 9 14 7 17 -3 3
-9 2 -12 -2z"/>
<path d="M350 220 c0 -5 12 -10 26 -10 14 0 23 4 19 10 -3 6 -15 10 -26 10
-10 0 -19 -4 -19 -10z"/>
<path d="M1835 161 c-3 -6 -16 -11 -28 -12 -21 0 -21 -1 -2 -9 20 -8 55 13 43
25 -3 4 -9 2 -13 -4z"/>
<path d="M1736 135 c-6 -16 3 -19 28 -9 22 8 20 24 -3 24 -10 0 -21 -7 -25
-15z"/>
<path d="M340 131 l-55 -6 46 -7 c51 -8 119 0 119 13 0 9 -21 9 -110 0z"/>
<path d="M100 90 c0 -5 10 -10 23 -10 18 0 19 2 7 10 -19 13 -30 13 -30 0z"/>
<path d="M260 51 c0 -11 31 -24 39 -16 3 3 -1 10 -9 15 -19 12 -30 12 -30 1z"/>
<path d="M345 40 l-30 -7 30 -12 c17 -7 62 -15 101 -18 60 -5 72 -3 77 11 7
17 6 17 -66 22 -21 1 -48 4 -60 7 -12 2 -35 1 -52 -3z"/>
</g>
</svg>
