<svg xmlns="http://www.w3.org/2000/svg" xmlns:cc="http://web.resource.org/cc/" xmlns:svg="http://www.w3.org/2000/svg" xmlns:xlink="http://www.w3.org/1999/xlink" id="Layer_1" width="419.435" style="overflow:visible;enable-background:new 0 0 419.435 126.227" height="126.227" space="preserve" version="1.1" viewBox="0 0 419.435 126.227"><metadata/><path id="path3" d="M248.345,80.417c2.235,3.226,9.582,17.387,11.67,17.546 c6.719,0.513,6.992-17.25,16.046-7.311c-4.43,0.067-6.25,3.433-8.752,7.311c4.767-5.022,10.693-6.579,14.587,0 c-2.519-2.272-2.76-2.031-5.835-2.925c-0.517,0.704-3.055,4.636-2.917,4.386c5.182,2.356,6.144,4.303,8.752,8.773 c-0.698-0.404-1.661-3.025-1.459-2.925c0.262-0.315-3.919,3.063-2.917,2.925c-7.067-6.754-15.039-6.113-20.422,0 c-0.696,2.265-0.031,3.97-1.459,7.31c0.726,0.625,3.45,1.038,4.376,1.463c-5.547-0.843-2.84-1.052-5.835-4.387 c-0.486,0.487-0.972,0.976-1.458,1.463c0.136-1.936-0.19-3.918,0-5.849c-3.612-0.827-10.208-4.392-15.317,0.73 c-4.914,4.928-2.774,10.602-8.022,10.966c-0.098,2.254,1.428,4.217,1.459,4.387c-8.251-5.155,7.466-12.714-1.459-21.932 c-4.815,0.096-11.301,6.503-17.505,1.462c1.417,7.261,0.18,2.508-2.917,4.387c-2.726,5.429-9.538,9.199-13.128,4.386 c-2.449,6.255-3.62,5.777-7.293,2.924c-4.96,4.352-5.04,4.256-10.211,1.463c-0.67,1.242-9.566,7.313-13.129,1.463 c-5.68,3.718-10.987,3.426-11.669-2.926c-6.247,4.18-13.625,1.618-7.294-4.386c-0.812-0.683-2.212-1.185-2.917-2.924 c10.917-11.553,48.695-6.191,52.514-23.395c-3.181,5.201-6.3,6.964-8.752,2.925c-2.916,5.288-4.9,5.314-10.211,5.848 c0.49-1.854,1.016-3.965,1.459-5.848c-3.429,5.554-7.809,10.426-11.67,5.848c-5.079,3.991-6.378,4.27-10.211,2.924 c-3.197,3.533-5.072,2.852-8.752,4.387c0.13-1.326,0.154-3.063,0-4.387c-2.728,4.923-11.389,11.179-10.211,2.924 c-3.522,3.922-7.104,5.053-11.67,5.849c0.386-1.402,1.198-3.237,1.459-4.386c-4.892,4.943-11.621,8.268-14.587,2.924 c-3.471,4.05-7.688,5.76-11.67,4.387c1.289-1.682,2.535-3.878,4.376-5.849c-4.625,3.216-9.234,5.391-14.587,5.849 c1.33-1.736,2.352-3.885,4.376-5.849c-9.369,5.538-24.392,4.717-8.752-1.462c-5.452,2.185-27.317,8.529-14.587,0 c-4.913,2.673-10.054,3.584-14.587,1.462c1.886-0.912,4.143-3.024,7.294-4.386c-7.257,1.958-14.543,5.099-18.963,0 c5.121-1.908,10.583-4.353,16.046-5.85c-12.276,2.053-23.246,4.508-35.009,0c6.455-2.995,14.725-3.374,21.881-5.848 c-10.318,3.094-27.503-0.574-35.009-5.849c8.844-2.042,20.436,0.936,30.633-1.462C32.978,79.909,7.518,75.441,4.739,62.871 c15.125,12.853,37.541,9.104,55.431,7.311c-18.056,0.8-52.023-6.793-56.89-27.78c6.586,15.694,36.643,17.843,51.056,20.469 C34.309,54.844,9.38,45.008,3.28,21.932c14.617,19.037,33.271,29.966,56.89,33.628C40.882,50.058,17,23.935,17.868,2.924 c10.028,21.677,30.232,47.028,56.89,48.25c-13.344-4.507-19.993-18.941-18.963-32.166c4.64,25.578,34.729,35.919,58.349,29.242 c-3.049-0.326-7.819-2.655-8.752-2.924c13.249-1.741,27.662-5.848,40.952-5.848c11.809,0,20.553,4.386,32.576,4.386 c13.463,0,27.508-0.765,40.252-4.386c6.446-1.832,14.528-7.411,20.422-5.849c-0.666-1.372-0.828-3.175-1.459-4.386 c5.783,4.656,13.019,1.462,20.423,1.462c12.37,0,21.733,9.033,35.009,5.849c5.479-1.314,9.404-5.331,14.587-7.311 c11.81-4.513,26.906-2.924,39.386-2.924c-4.08,1.655-8.37,3.653-13.129,4.386c13.796,2.923,44.462,2.281,51.056-13.159 c-0.487,1.461-0.001,1.949,1.459,1.462c-5.917,8.048-15.808,11.894-26.257,16.083c17.624-2.138,37.971-6.474,42.303-26.317 c-0.695,11.645-6.598,21.308-17.505,26.317c12.778-2.798,26.526-13.122,23.34-26.317c0.478,2.396,0.901,4.878,1.458,7.311 c3.177-4.023,4.319-11.278,5.835-14.622c0.212,20.845-11.48,50.715-35.009,54.098c3.29-0.505,6.881,0.168,10.211,0 c-2.855,5.029-10.175,6.354-16.046,7.311c1.924,0.148,3.903-0.028,5.835,0c-3.338,2.713-8.845,3.55-14.588,4.387 c1.57,0.821,2.868,0.939,4.377,1.461c-3.478,3.55-8.463,3.028-14.588,4.387c1.934,0.553,2.659,0.72,4.377,1.461 c-4.819,3.124-10.475,2.618-16.046,1.463c1.639,1.34,1.908,1.736,2.917,2.924c-4.218,0-8.966,0.623-13.129,0 c1.729,1.402,1.543,1.113,2.918,2.924c-4.231-0.652-8.996-0.539-13.129-1.462c0.973,0,1.945,0,2.918,0c0,0.975,0,1.95,0,2.924 c-4.165-0.381-7.679,0.423-11.67-1.462c0.675,4.301-3.602,2.789-8.752,0c-2.716,3.554-4.424,3.286-10.212,0 c0.079,0.562,1.263,2.136,1.459,2.924c-7.74-0.485-14.281,1.214-21.881-4.386c2.664,3.546,0.942,3.04,1.459,5.849 c-6.553-2.341-9.056-0.964-16.046-4.387c0.486,0.487,0.973,0.975,1.459,1.462C256.565,83.689,254.135,83.411,248.345,80.417 M230.841,86.265c2.632,4.215,3.984,6.683,8.752,7.311c-0.353,2.552-2.085,6.416-4.376,8.772c-1.407-0.688-3.491-3.208-4.376-4.386 c0.502,0.021,1.964,2.986,2.917,1.461C234.396,94.708,233.472,90.228,230.841,86.265 M251.263,100.886 c2.343-1.503,2.265,0.097,4.376-1.463c1.419,4.675,1.682,4.666-1.459,8.773C253.627,105.651,251.899,103.277,251.263,100.886 M251.263,102.348 M404.428,29.243c1.908-2.551,4.215-4.439,5.835-7.311c-0.779,5.171-2.438,7.652-5.835,11.696 C404.428,32.167,404.428,30.705,404.428,29.243 M402.97,32.167c-3.789,6.417-11.943,8.341-18.964,10.235 C390.944,40.316,397.158,36.434,402.97,32.167 M398.594,42.402c-3.414,5.596-10.815,5.724-17.505,7.311 C387.365,48.811,393.442,45.973,398.594,42.402" style="fill-rule:evenodd;clip-rule:evenodd;fill:#5c2e00"/><path id="path5" d="M248.345,80.417 c2.235,3.226,9.582,17.387,11.67,17.546c6.719,0.513,6.992-17.25,16.046-7.311c-4.43,0.067-6.25,3.433-8.752,7.311 c4.767-5.022,10.693-6.579,14.587,0c-2.519-2.272-2.76-2.031-5.835-2.925c-0.517,0.704-3.055,4.636-2.917,4.386 c5.182,2.356,6.144,4.303,8.752,8.773c-0.698-0.404-1.661-3.025-1.459-2.925c0.262-0.315-3.919,3.063-2.917,2.925 c-7.067-6.754-15.039-6.113-20.422,0c-0.696,2.265-0.031,3.97-1.459,7.31c0.726,0.625,3.45,1.038,4.376,1.463 c-5.547-0.843-2.84-1.052-5.835-4.387c-0.486,0.487-0.972,0.976-1.458,1.463c0.136-1.936-0.19-3.918,0-5.849 c-3.612-0.827-10.208-4.392-15.317,0.73c-4.914,4.928-2.774,10.602-8.022,10.966c-0.098,2.254,1.428,4.217,1.459,4.387 c-8.251-5.155,7.466-12.714-1.459-21.932c-4.815,0.096-11.301,6.503-17.505,1.462c1.417,7.261,0.18,2.508-2.917,4.387 c-2.726,5.429-9.538,9.199-13.128,4.386c-2.449,6.255-3.62,5.777-7.293,2.924c-4.96,4.352-5.04,4.256-10.211,1.463 c-0.67,1.242-9.566,7.313-13.129,1.463c-5.68,3.718-10.987,3.426-11.669-2.926c-6.247,4.18-13.625,1.618-7.294-4.386 c-0.812-0.683-2.212-1.185-2.917-2.924c10.917-11.553,48.695-6.191,52.514-23.395c-3.181,5.201-6.3,6.964-8.752,2.925 c-2.916,5.288-4.9,5.314-10.211,5.848c0.49-1.854,1.016-3.965,1.459-5.848c-3.429,5.554-7.809,10.426-11.67,5.848 c-5.079,3.991-6.378,4.27-10.211,2.924c-3.197,3.533-5.072,2.852-8.752,4.387c0.13-1.326,0.154-3.063,0-4.387 c-2.728,4.923-11.389,11.179-10.211,2.924c-3.522,3.922-7.104,5.053-11.67,5.849c0.386-1.402,1.198-3.237,1.459-4.386 c-4.892,4.943-11.621,8.268-14.587,2.924c-3.471,4.05-7.688,5.76-11.67,4.387c1.289-1.682,2.535-3.878,4.376-5.849 c-4.625,3.216-9.234,5.391-14.587,5.849c1.33-1.736,2.352-3.885,4.376-5.849c-9.369,5.538-24.392,4.717-8.752-1.462 c-5.452,2.185-27.317,8.529-14.587,0c-4.913,2.673-10.054,3.584-14.587,1.462c1.886-0.912,4.143-3.024,7.294-4.386 c-7.257,1.958-14.543,5.099-18.963,0c5.121-1.908,10.583-4.353,16.046-5.85c-12.276,2.053-23.246,4.508-35.009,0 c6.455-2.995,14.725-3.374,21.881-5.848c-10.318,3.094-27.503-0.574-35.009-5.849c8.844-2.042,20.436,0.936,30.633-1.462 C32.978,79.909,7.518,75.441,4.739,62.871c15.125,12.853,37.541,9.104,55.431,7.311c-18.056,0.8-52.023-6.793-56.89-27.78 c6.586,15.694,36.643,17.843,51.056,20.469C34.309,54.844,9.38,45.008,3.28,21.932c14.617,19.037,33.271,29.966,56.89,33.628 C40.882,50.058,17,23.935,17.868,2.924c10.028,21.677,30.232,47.028,56.89,48.25c-13.344-4.507-19.993-18.941-18.963-32.166 c4.64,25.578,34.729,35.919,58.349,29.242c-3.049-0.326-7.819-2.655-8.752-2.924c13.249-1.741,27.662-5.848,40.952-5.848 c11.809,0,20.553,4.386,32.576,4.386c13.463,0,27.508-0.765,40.252-4.386c6.446-1.832,14.528-7.411,20.422-5.849 c-0.666-1.372-0.828-3.175-1.459-4.386c5.783,4.656,13.019,1.462,20.423,1.462c12.37,0,21.733,9.033,35.009,5.849 c5.479-1.314,9.404-5.331,14.587-7.311c11.81-4.513,26.906-2.924,39.386-2.924c-4.08,1.655-8.37,3.653-13.129,4.386 c13.796,2.923,44.462,2.281,51.056-13.159c-0.487,1.461-0.001,1.949,1.459,1.462c-5.917,8.048-15.808,11.894-26.257,16.083 c17.624-2.138,37.971-6.474,42.303-26.317c-0.695,11.645-6.598,21.308-17.505,26.317c12.778-2.798,26.526-13.122,23.34-26.317 c0.478,2.396,0.901,4.878,1.458,7.311c3.177-4.023,4.319-11.278,5.835-14.622c0.212,20.845-11.48,50.715-35.009,54.098 c3.29-0.505,6.881,0.168,10.211,0c-2.855,5.029-10.175,6.354-16.046,7.311c1.924,0.148,3.903-0.028,5.835,0 c-3.338,2.713-8.845,3.55-14.588,4.387c1.57,0.821,2.868,0.939,4.377,1.461c-3.478,3.55-8.463,3.028-14.588,4.387 c1.934,0.553,2.659,0.72,4.377,1.461c-4.819,3.124-10.475,2.618-16.046,1.463c1.639,1.34,1.908,1.736,2.917,2.924 c-4.218,0-8.966,0.623-13.129,0c1.729,1.402,1.543,1.113,2.918,2.924c-4.231-0.652-8.996-0.539-13.129-1.462 c0.973,0,1.945,0,2.918,0c0,0.975,0,1.95,0,2.924c-4.165-0.381-7.679,0.423-11.67-1.462c0.675,4.301-3.602,2.789-8.752,0 c-2.716,3.554-4.424,3.286-10.212,0c0.079,0.562,1.263,2.136,1.459,2.924c-7.74-0.485-14.281,1.214-21.881-4.386 c2.664,3.546,0.942,3.04,1.459,5.849c-6.553-2.341-9.056-0.964-16.046-4.387c0.486,0.487,0.973,0.975,1.459,1.462 C256.565,83.689,254.135,83.411,248.345,80.417" style="fill:none;stroke:#000;stroke-width:0;stroke-linecap:square;stroke-miterlimit:10"/><path id="path7" d="M230.841,86.265 c2.632,4.215,3.984,6.683,8.752,7.311c-0.353,2.552-2.085,6.416-4.376,8.772c-1.407-0.688-3.491-3.208-4.376-4.386 c0.502,0.021,1.964,2.986,2.917,1.461C234.396,94.708,233.472,90.228,230.841,86.265" style="fill:none;stroke:#000;stroke-width:0;stroke-linecap:square;stroke-miterlimit:10"/><path id="path9" d="M251.263,100.886 c2.343-1.503,2.265,0.097,4.376-1.463c1.419,4.675,1.682,4.666-1.459,8.773C253.627,105.651,251.899,103.277,251.263,100.886" style="fill:none;stroke:#000;stroke-width:0;stroke-linecap:square;stroke-miterlimit:10"/><path id="path11" d="M251.263,102.348" style="fill:none;stroke:#000;stroke-width:0;stroke-linecap:square;stroke-miterlimit:10"/><path id="path13" d="M404.428,29.243 c1.908-2.551,4.215-4.439,5.835-7.311c-0.779,5.171-2.438,7.652-5.835,11.696C404.428,32.167,404.428,30.705,404.428,29.243" style="fill:none;stroke:#000;stroke-width:0;stroke-linecap:square;stroke-miterlimit:10"/><path id="path15" d="M402.97,32.167 c-3.789,6.417-11.943,8.341-18.964,10.235C390.944,40.316,397.158,36.434,402.97,32.167" style="fill:none;stroke:#000;stroke-width:0;stroke-linecap:square;stroke-miterlimit:10"/><path id="path17" d="M398.594,42.402 c-3.414,5.596-10.815,5.724-17.505,7.311C387.365,48.811,393.442,45.973,398.594,42.402" style="fill:none;stroke:#000;stroke-width:0;stroke-linecap:square;stroke-miterlimit:10"/><path id="path19" d="M207.501,76.03 c-1.085,4.287-1.886,7.05-5.835,8.772c0-0.975,0-1.949,0-2.924c-1.22,6.009-3.935,3.829-7.293,5.849" style="fill:none;stroke:#000;stroke-width:0;stroke-linecap:square;stroke-miterlimit:10"/><line id="line21" x1="189.997" x2="187.079" y1="84.802" y2="87.728" style="fill:none;stroke:#000;stroke-width:0;stroke-linecap:square;stroke-miterlimit:10"/><line id="line23" x1="169.575" x2="166.657" y1="89.189" y2="93.576" style="fill:none;stroke:#000;stroke-width:0;stroke-linecap:square;stroke-miterlimit:10"/><path id="path25" d="M162.281,89.189 c-1.553,2.752-3.5,5.192-5.835,7.311" style="fill:none;stroke:#000;stroke-width:0;stroke-linecap:square;stroke-miterlimit:10"/><line id="line27" x1="152.07" x2="147.694" y1="92.113" y2="96.5" style="fill:none;stroke:#000;stroke-width:0;stroke-linecap:square;stroke-miterlimit:10"/><path id="path29" d="M143.318,93.576 c-1.945,1.949-3.89,3.898-5.835,5.848" style="fill:none;stroke:#000;stroke-width:0;stroke-linecap:square;stroke-miterlimit:10"/><line id="line31" x1="133.106" x2="127.272" y1="95.038" y2="100.886" style="fill:none;stroke:#000;stroke-width:0;stroke-linecap:square;stroke-miterlimit:10"/><path id="path33" d="M121.437,96.5 c-2.523,2.911-5.442,5.351-8.752,7.311" style="fill:none;stroke:#000;stroke-width:0;stroke-linecap:square;stroke-miterlimit:10"/><line id="line35" x1="112.685" x2="105.391" y1="96.5" y2="102.348" style="fill:none;stroke:#000;stroke-width:0;stroke-linecap:square;stroke-miterlimit:10"/><path id="path37" d="M103.932,96.5 c-2.917,1.949-5.835,3.898-8.752,5.849" style="fill:none;stroke:#000;stroke-width:0;stroke-linecap:square;stroke-miterlimit:10"/><path id="path39" d="M96.639,93.576 c-2.75,3.346-6.154,5.782-10.211,7.311" style="fill:none;stroke:#000;stroke-width:0;stroke-linecap:square;stroke-miterlimit:10"/><path id="path41" d="M87.886,93.576 c-5.155,2.813-10.532,5.286-16.046,7.311" style="fill:none;stroke:#000;stroke-width:0;stroke-linecap:square;stroke-miterlimit:10"/><path id="path43" d="M79.134,90.652 c-4.467,3.092-9.431,5.596-14.587,7.311" style="fill:none;stroke:#000;stroke-width:0;stroke-linecap:square;stroke-miterlimit:10"/><path id="path45" d="M71.84,87.728 c-2.979,2.429-6.386,3.89-10.211,4.385" style="fill:none;stroke:#000;stroke-width:0;stroke-linecap:square;stroke-miterlimit:10"/><path id="path47" d="M63.088,83.341 c-4.862,0.974-9.725,1.949-14.587,2.924" style="fill:none;stroke:#000;stroke-width:0;stroke-linecap:square;stroke-miterlimit:10"/><path id="path49" d="M58.712,78.954 c-4.862,0-9.725,0-14.587,0" style="fill:none;stroke:#000;stroke-width:0;stroke-linecap:square;stroke-miterlimit:10"/><path id="path51" d="M147.694,62.871 c-12.39,5.616-36.108,15.553-48.138,8.772" style="fill:none;stroke:#000;stroke-width:0;stroke-linecap:square;stroke-miterlimit:10"/><path id="path53" d="M111.226,68.719 c-6.454,2.963-16.857,4.307-20.422-1.461c1.818,0.024,2.765-0.696,4.376-1.462" style="fill:none;stroke:#000;stroke-width:0;stroke-linecap:square;stroke-miterlimit:10"/><path id="path55" d="M111.226,64.333 c-8.857,2.375-23.021,4.04-30.633-1.462c3.386-0.248,6.843-1.443,10.211-1.462" style="fill:none;stroke:#000;stroke-width:0;stroke-linecap:square;stroke-miterlimit:10"/><path id="path57" d="M103.932,59.947 c-8.926,2.098-22.199,3.33-27.716-2.924c5.796-2.511,13.66-1.462,20.422-1.462" style="fill:none;stroke:#000;stroke-width:0;stroke-linecap:square;stroke-miterlimit:10"/><path id="path59" d="M103.932,55.561 c-6.242,0.795-14.455,1.097-16.046-4.387c5.854,0.365,11.789-0.149,17.505-1.461" style="fill:none;stroke:#000;stroke-width:0;stroke-linecap:square;stroke-miterlimit:10"/><path id="path61" d="M225.006,51.174 c-1.458,3.183-1.633,6.212-4.377,2.924c-0.626,0.624-2.087,2.72-2.917,2.925c-2.443-1.796-0.304-2.122,0-4.387" style="fill:none;stroke:#000;stroke-width:0;stroke-linecap:square;stroke-miterlimit:10"/><path id="path63" d="M220.629,49.712 c-2.159,0.847-1.771,2.76-4.376,2.924c0.659-1.66,0.764-4.033,1.459-5.848c-4.203,4.075-8.178,5.863-10.211,1.462 c-5.901,2.82-20.743,6.987-25.527,2.193c-3.084-3.09-28.229,12.948-25.528-2.193c-13.275,2.604-25.833,0-42.303,0" style="fill:none;stroke:#000;stroke-width:0;stroke-linecap:square;stroke-miterlimit:10"/><path id="path65" d="M130.189,49.712 c-2.99,0.121-5.662,1.521-8.752,1.461c1.533,6.137,8.691,5.406,14.587,2.924" style="fill:none;stroke:#000;stroke-width:0;stroke-linecap:square;stroke-miterlimit:10"/><path id="path67" d="M131.648,55.561 c-0.256,0.679-2.248,0.241-1.459,2.924c6.392,1.334,12.35,0.428,18.963-1.462" style="fill:none;stroke:#000;stroke-width:0;stroke-linecap:square;stroke-miterlimit:10"/><path id="path69" d="M144.776,58.485 c-11.718,4.38,8.034,3.754,14.587,0" style="fill:none;stroke:#000;stroke-width:0;stroke-linecap:square;stroke-miterlimit:10"/><path id="path71" d="M152.07,61.409 c-1.088,6.59,10.364,3.864,16.046,0" style="fill:none;stroke:#000;stroke-width:0;stroke-linecap:square;stroke-miterlimit:10"/><path id="path73" d="M162.281,64.333 c0.62,3.427,10.5,0.363,16.046-4.386" style="fill:none;stroke:#000;stroke-width:0;stroke-linecap:square;stroke-miterlimit:10"/><path id="path75" d="M175.41,61.409 c-1.331,2.123-2.014,2.995-2.917,4.387c4.715,0.048,9.211-1.489,13.128-4.387c-1.282,1.573-2.013,3.015-2.917,4.387 c5.326-0.356,10.316-2.506,14.587-5.848" style="fill:none;stroke:#000;stroke-width:0;stroke-linecap:square;stroke-miterlimit:10"/><path id="path77" d="M195.832,61.409 c-0.628,1.057-2.045,2.05-2.917,2.924c5.083,2.782,10.451-0.071,14.587-4.386" style="fill:none;stroke:#000;stroke-width:0;stroke-linecap:square;stroke-miterlimit:10"/><path id="path79" d="M206.042,61.409 c-0.727,1.066-2.004,2.009-2.917,2.924c2.604,2.455,3.927,0.569,7.294-1.462" style="fill:none;stroke:#000;stroke-width:0;stroke-linecap:square;stroke-miterlimit:10"/><path id="path81" d="M214.795,58.485 c-2.018,2.659-3.948,3.708-4.376,7.311c2.644-0.229,3.222-2.014,4.376-2.924c3.239,4.892,3.67,1.923,4.376-2.924" style="fill:none;stroke:#000;stroke-width:0;stroke-linecap:square;stroke-miterlimit:10"/><path id="path83" d="M211.877,68.719 c-1.737,1.581-0.312,3.577-2.917,4.387c0.219-1.315,0.06-3.052,0-4.387c-1.177,6.046-3.83,10.058-7.293,8.773" style="fill:none;stroke:#000;stroke-width:0;stroke-linecap:square;stroke-miterlimit:10"/><path id="path85" d="M203.125,73.106 c-2.684,5.145-7.9,11.039-7.293,2.924" style="fill:none;stroke:#000;stroke-width:0;stroke-linecap:square;stroke-miterlimit:10"/><path id="path87" d="M198.749,74.567 c-3.2,3.316-7.343,5.375-11.67,5.849c-0.735-2.5,1.371-2.545,1.459-2.924" style="fill:none;stroke:#000;stroke-width:0;stroke-linecap:square;stroke-miterlimit:10"/><path id="path89" d="M191.456,74.567 c-4.689,4.466-9.375,7.319-14.587,5.849c0.912-0.914,2.196-1.858,2.917-2.924" style="fill:none;stroke:#000;stroke-width:0;stroke-linecap:square;stroke-miterlimit:10"/><path id="path91" d="M182.703,74.567 c-3.056,4.131-6.618,6.321-11.67,5.849c0.538-1.616,1.122-2.696,1.459-4.386" style="fill:none;stroke:#000;stroke-width:0;stroke-linecap:square;stroke-miterlimit:10"/><path id="path93" d="M175.41,74.567 c-3.314,3.12-7.241,4.678-11.67,4.387c-0.026-1.94,1.038-2.618,1.458-4.387" style="fill:none;stroke:#000;stroke-width:0;stroke-linecap:square;stroke-miterlimit:10"/><path id="path95" d="M168.116,73.106 c-4.005,4.079-8.36,5.394-11.669,2.924" style="fill:none;stroke:#000;stroke-width:0;stroke-linecap:square;stroke-miterlimit:10"/><path id="path97" d="M160.822,71.644 c-3.059,4.479-6.403,6.629-11.67,5.849c0.878-1.76,1.232-0.869,1.459-2.925" style="fill:none;stroke:#000;stroke-width:0;stroke-linecap:square;stroke-miterlimit:10"/><path id="path99" d="M153.529,71.644 c-3.96,4.512-8.762,6.487-14.587,5.849c1.31-1.472,2.863-1.79,4.376-2.925" style="fill:none;stroke:#000;stroke-width:0;stroke-linecap:square;stroke-miterlimit:10"/><path id="path101" d="M147.694,70.182 c-4.62,4.303-10.614,7.711-16.046,5.848c6.902-2.487,13.381-8.139,18.963-13.159" style="fill:none;stroke:#000;stroke-width:0;stroke-linecap:square;stroke-miterlimit:10"/><path id="path103" d="M191.456,95.038 c-11.506,6.805-32.136,15.49-45.221,16.083" style="fill:none;stroke:#000;stroke-width:0;stroke-linecap:square;stroke-miterlimit:10"/><path id="path105" d="M191.456,96.5 c-12.459,6.725-24.762,13.725-37.927,19.007" style="fill:none;stroke:#000;stroke-width:0;stroke-linecap:square;stroke-miterlimit:10"/><path id="path107" d="M192.914,97.962 c-9.096,7.091-18.274,13.845-27.716,20.47" style="fill:none;stroke:#000;stroke-width:0;stroke-linecap:square;stroke-miterlimit:10"/><path id="path109" d="M194.373,99.423 c-4.862,5.849-9.725,11.697-14.587,17.546" style="fill:none;stroke:#000;stroke-width:0;stroke-linecap:square;stroke-miterlimit:10"/><path id="path111" d="M198.749,99.423 c-3.62,5.215-7.042,10.582-10.211,16.083" style="fill:none;stroke:#000;stroke-width:0;stroke-linecap:square;stroke-miterlimit:10"/><path id="path113" d="M200.208,99.423 c-0.974,4.543-2.434,8.932-4.376,13.159" style="fill:none;stroke:#000;stroke-width:0;stroke-linecap:square;stroke-miterlimit:10"/><path id="path115" d="M201.667,96.5 c0.709,5.347,1.28,10.703,1.458,16.083" style="fill:none;stroke:#000;stroke-width:0;stroke-linecap:square;stroke-miterlimit:10"/><path id="path117" d="M204.584,96.5 c0.304,4.366,2.188,9.547,4.376,11.697" style="fill:none;stroke:#000;stroke-width:0;stroke-linecap:square;stroke-miterlimit:10"/><line id="line119" x1="207.501" x2="211.877" y1="95.038" y2="103.81" style="fill:none;stroke:#000;stroke-width:0;stroke-linecap:square;stroke-miterlimit:10"/><path id="path121" d="M207.501,95.038 c4.288,2.954,8.179,6.366,11.67,10.234" style="fill:none;stroke:#000;stroke-width:0;stroke-linecap:square;stroke-miterlimit:10"/><line id="line123" x1="222.088" x2="220.629" y1="102.348" y2="99.423" style="fill:none;stroke:#000;stroke-width:0;stroke-linecap:square;stroke-miterlimit:10"/><path id="path125" d="M222.088,97.962 c-0.694,1.624-0.959,2.584-2.917,2.924c-0.951-1.911-0.613-0.945-1.459-2.924" style="fill:none;stroke:#000;stroke-width:0;stroke-linecap:square;stroke-miterlimit:10"/><path id="path127" d="M217.712,96.5 c-0.81-0.395-3.338,1.434-4.376-4.387c0,0.975,0,1.95,0,2.925c-2.371-0.269-2.431-2.409-4.376-2.925" style="fill:none;stroke:#000;stroke-width:0;stroke-linecap:square;stroke-miterlimit:10"/><path id="path129" d="M207.501,86.265 c0,2.01-1.768,3.425-1.459,5.848c0.973,0,1.945,0,2.917,0c1.498-0.488-1.219,1.863-2.917,2.925" style="fill:none;stroke:#000;stroke-width:0;stroke-linecap:square;stroke-miterlimit:10"/><path id="path131" d="M206.042,92.113 c-0.084,3.104-1.375,4.847-4.376,4.387" style="fill:none;stroke:#000;stroke-width:0;stroke-linecap:square;stroke-miterlimit:10"/><path id="path133" d="M204.584,90.652 c-1.155,5.956-3.466,9.524-7.293,7.311" style="fill:none;stroke:#000;stroke-width:0;stroke-linecap:square;stroke-miterlimit:10"/><path id="path135" d="M201.667,92.113 c-2.661,5.157-5.654,8.865-8.752,4.387" style="fill:none;stroke:#000;stroke-width:0;stroke-linecap:square;stroke-miterlimit:10"/><path id="path137" d="M198.749,90.652 c-2.445,3.095-3.109,5.466-7.293,5.848c-0.093-3.979,1.936-4.35,4.376-7.311" style="fill:none;stroke:#000;stroke-width:0;stroke-linecap:square;stroke-miterlimit:10"/><line id="line139" x1="192.914" x2="192.914" y1="93.576" y2="92.113" style="fill:none;stroke:#000;stroke-width:0;stroke-linecap:square;stroke-miterlimit:10"/><path id="path141" d="M203.125,87.728 c-1.4,1.512-2.919,2.926-4.376,4.385c-0.602-2.415,0.604-2.687,1.458-4.385" style="fill:none;stroke:#000;stroke-width:0;stroke-linecap:square;stroke-miterlimit:10"/><path id="path143" d="M204.584,89.189 c-0.613,2.628-1.542,3.916-2.917,1.463" style="fill:none;stroke:#000;stroke-width:0;stroke-linecap:square;stroke-miterlimit:10"/><path id="path145" d="M223.547,93.576 c-0.936,4.866-2.684,2.265-4.376-1.463" style="fill:none;stroke:#000;stroke-width:0;stroke-linecap:square;stroke-miterlimit:10"/><path id="path147" d="M219.171,90.652 c-0.158,1.412,0,2.964,0,4.386c-2.678-1.705-2.306-3.243-2.918-5.849" style="fill:none;stroke:#000;stroke-width:0;stroke-linecap:square;stroke-miterlimit:10"/><path id="path149" d="M216.253,87.728 c-0.395,2.035,0.437,2.972-1.458,4.385c-1.896-1.413-1.064-2.351-1.459-4.385" style="fill:none;stroke:#000;stroke-width:0;stroke-linecap:square;stroke-miterlimit:10"/><path id="path151" d="M213.336,86.265 c-0.755,2.182,0.73,3.814-2.917,2.924c0-1.438,0.125-2.955,0-4.387" style="fill:none;stroke:#000;stroke-width:0;stroke-linecap:square;stroke-miterlimit:10"/><path id="path153" d="M211.877,81.878 c-4.126,4.192-4.375,1.937-2.917-2.924" style="fill:none;stroke:#000;stroke-width:0;stroke-linecap:square;stroke-miterlimit:10"/><path id="path155" d="M213.336,77.493 c-1.386,0.628-2.915,0.974-4.376,1.461c-0.58-2.327,0.463-2.763,1.459-4.387" style="fill:none;stroke:#000;stroke-width:0;stroke-linecap:square;stroke-miterlimit:10"/><path id="path157" d="M225.006,102.348 c0-1.462,0-2.924,0-4.386" style="fill:none;stroke:#000;stroke-width:0;stroke-linecap:square;stroke-miterlimit:10"/><path id="path159" d="M230.841,97.962 c-0.035,2.37-0.331,3.187-1.459,4.386" style="fill:none;stroke:#000;stroke-width:0;stroke-linecap:square;stroke-miterlimit:10"/><path id="path161" d="M226.464,43.863 c-1.304,2.314-0.462,4.135-4.376,4.387c-0.626-2.513,1.14-2.697,1.459-4.387" style="fill:none;stroke:#000;stroke-width:0;stroke-linecap:square;stroke-miterlimit:10"/><path id="path163" d="M1.822,0c136.877,0,273.754,0,410.63,0 c11.766,0,5.105,60.506,5.105,71.42c0,17.131,0,34.262,0,51.393c0,5.175-5.654,2.929-10.215,2.929c-78.449,0-156.899,0-235.349,0 c-55.022,0-110.044,0-165.067,0c-11.624,0-5.105-34.065-5.105-43.167C1.822,55.05,1.822,27.525,1.822,0" style="fill-rule:evenodd;clip-rule:evenodd;fill:none"/><g id="g165"><defs id="defs167"><path id="XMLID_1_" d="M1.822,0c136.877,0,273.754,0,410.63,0c11.766,0,5.105,60.506,5.105,71.42c0,17.131,0,34.262,0,51.393 c0,5.175-5.654,2.929-10.215,2.929c-78.449,0-156.899,0-235.349,0c-55.022,0-110.044,0-165.067,0 c-11.624,0-5.105-34.065-5.105-43.167C1.822,55.05,1.822,27.525,1.822,0"/></defs><clipPath id="XMLID_9_"><use id="use171" xlink:href="#XMLID_1_"/></clipPath><path id="path173" d="M276.061,36.554c3.409,2.538,4.931,6.069,4.376,10.234" style="clip-path:url(#XMLID_9_);fill:none;stroke:#000;stroke-width:0;stroke-linecap:square;stroke-miterlimit:10"/><path id="path175" d="M280.437,46.788c5.555,3.752,6.483,9.189,2.918,14.621c-0.196-7.674-7.325-11.419-14.587-13.159 c3.787,3.701,7.579,6.99,11.669,10.235" style="clip-path:url(#XMLID_9_);fill:none;stroke:#000;stroke-width:0;stroke-linecap:square;stroke-miterlimit:10"/><path id="path177" d="M277.52,52.636c1.007,1.931,1.945,3.9,2.917,5.849c-5.706-2.028-10.674-6.531-13.128-11.697c4.835,2.135,7.402,0.404,11.67,0" style="clip-path:url(#XMLID_9_);fill:none;stroke:#000;stroke-width:0;stroke-linecap:square;stroke-miterlimit:10"/><path id="path179" d="M278.979,49.712c-1.74-1.519-0.409-0.955,1.458,0" style="clip-path:url(#XMLID_9_);fill:none;stroke:#000;stroke-width:0;stroke-linecap:square;stroke-miterlimit:10"/><path id="path181" d="M280.437,45.326c-2.816,0.925-6.618-2.331-11.669-4.387" style="clip-path:url(#XMLID_9_);fill:none;stroke:#000;stroke-width:0;stroke-linecap:square;stroke-miterlimit:10"/><path id="path183" d="M276.061,45.326c-4.146,1.446-5.176-0.065-2.917-4.387" style="clip-path:url(#XMLID_9_);fill:none;stroke:#000;stroke-width:0;stroke-linecap:square;stroke-miterlimit:10"/><path id="path185" d="M274.602,43.863c-2.14,1.923-3.151,2.066-1.458-1.461" style="clip-path:url(#XMLID_9_);fill:none;stroke:#000;stroke-width:0;stroke-linecap:square;stroke-miterlimit:10"/><path id="path187" d="M270.226,51.174c-6.116-1.267-12.33-2.26-14.587,2.924c-1.46,0.486-1.946-0.001-1.459-1.462c-1.025,0.914-1.911,1.988-2.917,2.924 c0.487-1.461,0.001-1.949-1.459-1.462c0.486-0.487,0.973-0.975,1.459-1.462c-1.736,0.498-2.1,1.281-4.376,1.462 c-0.334,0.656,1.355-3.72,1.458-2.924c-4.536,1.688-3.726-0.219-8.752,0c1.202-3.457,1.163-1.825,4.376-2.924 c-0.973,0-1.944,0-2.917,0c3.089-2.357,4.226-0.841,7.293,0" style="clip-path:url(#XMLID_9_);fill:none;stroke:#000;stroke-width:0;stroke-linecap:square;stroke-miterlimit:10"/><path id="path189" d="M245.428,46.788c1.761-1.243,3.707-1.734,5.835-1.462" style="clip-path:url(#XMLID_9_);fill:none;stroke:#000;stroke-width:0;stroke-linecap:square;stroke-miterlimit:10"/><path id="path191" d="M248.345,43.863c1.459,0,2.918,0,4.377,0" style="clip-path:url(#XMLID_9_);fill:none;stroke:#000;stroke-width:0;stroke-linecap:square;stroke-miterlimit:10"/><path id="path193" d="M260.015,46.788c-0.973-0.975-1.945-1.95-2.917-2.925" style="clip-path:url(#XMLID_9_);fill:none;stroke:#000;stroke-width:0;stroke-linecap:square;stroke-miterlimit:10"/><path id="path195" d="M264.391,48.25c-0.964-1.303-1.479-2.807-1.458-4.387" style="clip-path:url(#XMLID_9_);fill:none;stroke:#000;stroke-width:0;stroke-linecap:square;stroke-miterlimit:10"/><path id="path197" d="M260.015,42.402c-1.845-0.924-1.073-0.538-2.917-1.463" style="clip-path:url(#XMLID_9_);fill:none;stroke:#000;stroke-width:0;stroke-linecap:square;stroke-miterlimit:10"/><path id="path199" d="M254.18,42.402c-1.834,0.29-3.975,0-5.835,0c0.954-0.957,1.872-2.069,2.918-2.924" style="clip-path:url(#XMLID_9_);fill:none;stroke:#000;stroke-width:0;stroke-linecap:square;stroke-miterlimit:10"/><path id="path201" d="M245.428,45.326c-2.257,0.618-2.617,1.858-4.376,0c1.675-0.84,1.373-0.467,2.917-1.462" style="clip-path:url(#XMLID_9_);fill:none;stroke:#000;stroke-width:0;stroke-linecap:square;stroke-miterlimit:10"/><path id="path203" d="M246.887,42.402c-2.198,0.128-3.144,1.91-5.835,0c2.34-1.581,2.848,0.108,4.376,0" style="clip-path:url(#XMLID_9_);fill:none;stroke:#000;stroke-width:0;stroke-linecap:square;stroke-miterlimit:10"/><path id="path205" d="M239.593,49.712c-1.987,0.111-3.031-0.936-2.917-2.924" style="clip-path:url(#XMLID_9_);fill:none;stroke:#000;stroke-width:0;stroke-linecap:square;stroke-miterlimit:10"/><path id="path207" d="M239.593,45.326c-2.172,0.852-3.372,1.777-5.835,1.462c-1.004-2.649,0.884-2.137,1.459-2.925c-0.021-0.027-2.948-3.177-2.918-2.924 c2.267-0.744,4.665-2.185,7.294-2.924c-1.733-0.703-3.118-1.563-4.376-2.924c0.338-0.169,2.928-1.543,2.917-1.462" style="clip-path:url(#XMLID_9_);fill:none;stroke:#000;stroke-width:0;stroke-linecap:square;stroke-miterlimit:10"/><path id="path209" d="M254.18,54.098c-0.766,4.982-3.523,9.825-4.376,10.235c-2.171,5.999-6.529,11.506-10.211,11.697" style="clip-path:url(#XMLID_9_);fill:none;stroke:#000;stroke-width:0;stroke-linecap:square;stroke-miterlimit:10"/><path id="path211" d="M241.052,74.567c-0.977,0.971-1.945,1.95-2.918,2.925c-1.712-1.517-0.828-1.87,0-4.387" style="clip-path:url(#XMLID_9_);fill:none;stroke:#000;stroke-width:0;stroke-linecap:square;stroke-miterlimit:10"/><path id="path213" d="M235.217,77.493c-1.021,0.912-1.951,1.955-2.918,2.924c-2.583-1.939-0.8-2.427,0-4.386" style="clip-path:url(#XMLID_9_);fill:none;stroke:#000;stroke-width:0;stroke-linecap:square;stroke-miterlimit:10"/><path id="path215" d="M238.134,77.493c-1.225,1.542-2.571,3.851-2.917,1.461c-0.669,3.198-1.93,2.502-4.376,2.924" style="clip-path:url(#XMLID_9_);fill:none;stroke:#000;stroke-width:0;stroke-linecap:square;stroke-miterlimit:10"/><path id="path217" d="M233.758,73.106c-0.981,0.966-1.945,1.949-2.917,2.924c-1.763-1.682-0.735-2.238,0-4.387" style="clip-path:url(#XMLID_9_);fill:none;stroke:#000;stroke-width:0;stroke-linecap:square;stroke-miterlimit:10"/><path id="path219" d="M236.676,73.106c-1.771,2.227-1.819,0.707-1.459-1.462" style="clip-path:url(#XMLID_9_);fill:none;stroke:#000;stroke-width:0;stroke-linecap:square;stroke-miterlimit:10"/><path id="path221" d="M242.51,71.644c-2.612,2.298-4.363,2.278-4.376-1.461" style="clip-path:url(#XMLID_9_);fill:none;stroke:#000;stroke-width:0;stroke-linecap:square;stroke-miterlimit:10"/><path id="path223" d="M245.428,67.258c-2.928,1.416-4.606,5.02-2.918-1.462c-1.625,2.61-2.391,2.391-4.376,4.387c0-0.853,0.438-3.687,0-4.387" style="clip-path:url(#XMLID_9_);fill:none;stroke:#000;stroke-width:0;stroke-linecap:square;stroke-miterlimit:10"/><path id="path225" d="M248.345,64.333c-1.213,3.294-2.293,4.065-2.917,0" style="clip-path:url(#XMLID_9_);fill:none;stroke:#000;stroke-width:0;stroke-linecap:square;stroke-miterlimit:10"/><path id="path227" d="M249.804,59.947c-1.213,3.292-2.293,4.064-2.917,0" style="clip-path:url(#XMLID_9_);fill:none;stroke:#000;stroke-width:0;stroke-linecap:square;stroke-miterlimit:10"/><path id="path229" d="M252.722,55.561c-0.979,1.919-2.14,4.502-2.918,1.462" style="clip-path:url(#XMLID_9_);fill:none;stroke:#000;stroke-width:0;stroke-linecap:square;stroke-miterlimit:10"/><path id="path231" d="M223.547,74.567c3.583,1.388,6.071,1.213,5.835,5.849c-0.486-0.487-0.973-0.975-1.459-1.462c2.739,3.286,3,6.658,4.376,10.235" style="clip-path:url(#XMLID_9_);fill:none;stroke:#000;stroke-width:0;stroke-linecap:square;stroke-miterlimit:10"/><path id="path233" d="M230.841,97.962c-0.035,2.37-0.331,3.187-1.459,4.386" style="clip-path:url(#XMLID_9_);fill:none;stroke:#000;stroke-width:0;stroke-linecap:square;stroke-miterlimit:10"/><path id="path235" d="M230.841,103.81c-0.206-1.303,0.32-2.253,1.458-2.924" style="clip-path:url(#XMLID_9_);fill:none;stroke:#000;stroke-width:0;stroke-linecap:square;stroke-miterlimit:10"/><path id="path237" d="M230.841,105.272c-0.114-1.988,0.93-3.035,2.917-2.924" style="clip-path:url(#XMLID_9_);fill:none;stroke:#000;stroke-width:0;stroke-linecap:square;stroke-miterlimit:10"/><line id="line239" x1="245.428" x2="245.428" y1="105.272" y2="103.81" style="clip-path:url(#XMLID_9_);fill:none;stroke:#000;stroke-width:0;stroke-linecap:square;stroke-miterlimit:10"/><path id="path241" d="M248.345,106.735c0-0.487,0-0.976,0-1.463" style="clip-path:url(#XMLID_9_);fill:none;stroke:#000;stroke-width:0;stroke-linecap:square;stroke-miterlimit:10"/><path id="path243" d="M252.722,108.197c-0.487-1.461-0.001-1.948,1.458-1.462" style="clip-path:url(#XMLID_9_);fill:none;stroke:#000;stroke-width:0;stroke-linecap:square;stroke-miterlimit:10"/><path id="path245" d="M254.18,108.197c0,1.462,0,2.924,0,4.386" style="clip-path:url(#XMLID_9_);fill:none;stroke:#000;stroke-width:0;stroke-linecap:square;stroke-miterlimit:10"/><path id="path247" d="M251.263,103.81c0,4.887,0,1.15,0-1.462" style="clip-path:url(#XMLID_9_);fill:none;stroke:#000;stroke-width:0;stroke-linecap:square;stroke-miterlimit:10"/><path id="path249" d="M251.263,102.348c-1.322-1.655-2.715-3.504,0-1.462" style="clip-path:url(#XMLID_9_);fill:none;stroke:#000;stroke-width:0;stroke-linecap:square;stroke-miterlimit:10"/><path id="path251" d="M243.969,97.962c2.938-1.516,5.539-0.612,7.294,1.461" style="clip-path:url(#XMLID_9_);fill:none;stroke:#000;stroke-width:0;stroke-linecap:square;stroke-miterlimit:10"/><path id="path253" d="M251.263,102.348c-3.709,1.625-5.4,0.614-4.376-2.925" style="clip-path:url(#XMLID_9_);fill:none;stroke:#000;stroke-width:0;stroke-linecap:square;stroke-miterlimit:10"/><path id="path255" d="M246.887,102.348c-0.486,0-0.973,0-1.459,0" style="clip-path:url(#XMLID_9_);fill:none;stroke:#000;stroke-width:0;stroke-linecap:square;stroke-miterlimit:10"/><path id="path257" d="M239.593,95.038c2.205,0.238,3.882,1.318,4.376,2.925" style="clip-path:url(#XMLID_9_);fill:none;stroke:#000;stroke-width:0;stroke-linecap:square;stroke-miterlimit:10"/><path id="path259" d="M243.969,105.272c-0.282-2.898-0.244-4.908-1.459-7.31C247.068,100.2,244.056,101.675,243.969,105.272" style="clip-path:url(#XMLID_9_);fill:none;stroke:#000;stroke-width:0;stroke-linecap:square;stroke-miterlimit:10"/><path id="path261" d="M243.969,100.886c-2.605,0.541-4.249-0.36-4.376-2.924" style="clip-path:url(#XMLID_9_);fill:none;stroke:#000;stroke-width:0;stroke-linecap:square;stroke-miterlimit:10"/><path id="path263" d="M241.052,100.886c-1.855,1.901-3.552,2.308-4.376,0" style="clip-path:url(#XMLID_9_);fill:none;stroke:#000;stroke-width:0;stroke-linecap:square;stroke-miterlimit:10"/><path id="path265" d="M239.593,102.348c-0.668,1.139-1.615,1.668-2.917,1.462" style="clip-path:url(#XMLID_9_);fill:none;stroke:#000;stroke-width:0;stroke-linecap:square;stroke-miterlimit:10"/><path id="path267" d="M243.969,102.348c-1.459,0-2.917,0-4.376,0" style="clip-path:url(#XMLID_9_);fill:none;stroke:#000;stroke-width:0;stroke-linecap:square;stroke-miterlimit:10"/><path id="path269" d="M241.052,105.272c0,0.487,0,0.976,0,1.463" style="clip-path:url(#XMLID_9_);fill:none;stroke:#000;stroke-width:0;stroke-linecap:square;stroke-miterlimit:10"/><path id="path271" d="M235.217,112.583c-0.486,0-0.973,0-1.459,0" style="clip-path:url(#XMLID_9_);fill:none;stroke:#000;stroke-width:0;stroke-linecap:square;stroke-miterlimit:10"/><line id="line273" x1="232.299" x2="232.299" y1="115.506" y2="115.506" style="clip-path:url(#XMLID_9_);fill:none;stroke:#000;stroke-width:0;stroke-linecap:square;stroke-miterlimit:10"/><line id="line275" x1="229.382" x2="227.923" y1="119.893" y2="119.893" style="clip-path:url(#XMLID_9_);fill:none;stroke:#000;stroke-width:0;stroke-linecap:square;stroke-miterlimit:10"/><path id="path277" d="M233.758,105.272c-0.505-1.716-0.461-3.07,1.459-2.924" style="clip-path:url(#XMLID_9_);fill:none;stroke:#000;stroke-width:0;stroke-linecap:square;stroke-miterlimit:10"/><path id="path279" d="M239.593,83.341c-2.187,2.237-3.196,1.758-2.917-1.462" style="clip-path:url(#XMLID_9_);fill:none;stroke:#000;stroke-width:0;stroke-linecap:square;stroke-miterlimit:10"/><path id="path281" d="M238.134,84.802c-0.768,2.218-1.776,3.347-1.458,5.85c-3.683-1.698-2.641-3.392-2.918-7.311" style="clip-path:url(#XMLID_9_);fill:none;stroke:#000;stroke-width:0;stroke-linecap:square;stroke-miterlimit:10"/><path id="path283" d="M241.052,87.728c-0.684,2.097-0.495,0.99-1.459,2.924c-0.486-1.462-0.973-2.924-1.459-4.387" style="clip-path:url(#XMLID_9_);fill:none;stroke:#000;stroke-width:0;stroke-linecap:square;stroke-miterlimit:10"/><path id="path285" d="M243.969,90.652c-1.485,3.939-2.949,3.159-4.376,0" style="clip-path:url(#XMLID_9_);fill:none;stroke:#000;stroke-width:0;stroke-linecap:square;stroke-miterlimit:10"/><path id="path287" d="M246.887,92.113c-1.832,3.002-3.243,3.051-4.377,0" style="clip-path:url(#XMLID_9_);fill:none;stroke:#000;stroke-width:0;stroke-linecap:square;stroke-miterlimit:10"/><path id="path289" d="M258.556,96.5c-3.646,1.089-2.365,0.795-5.834,1.463" style="clip-path:url(#XMLID_9_);fill:none;stroke:#000;stroke-width:0;stroke-linecap:square;stroke-miterlimit:10"/><line id="line291" x1="255.639" x2="255.639" y1="97.962" y2="99.423" style="clip-path:url(#XMLID_9_);fill:none;stroke:#000;stroke-width:0;stroke-linecap:square;stroke-miterlimit:10"/><line id="line293" x1="257.098" x2="255.639" y1="96.5" y2="96.5" style="clip-path:url(#XMLID_9_);fill:none;stroke:#000;stroke-width:0;stroke-linecap:square;stroke-miterlimit:10"/><path id="path295" d="M255.639,99.423c0.389-1.391,1.232-2.039,2.917-2.924" style="clip-path:url(#XMLID_9_);fill:none;stroke:#000;stroke-width:0;stroke-linecap:square;stroke-miterlimit:10"/><path id="path297" d="M260.015,97.962c-1.66,0.287-2.633,1.262-2.917,2.924" style="clip-path:url(#XMLID_9_);fill:none;stroke:#000;stroke-width:0;stroke-linecap:square;stroke-miterlimit:10"/><line id="line299" x1="268.768" x2="267.309" y1="95.038" y2="95.038" style="clip-path:url(#XMLID_9_);fill:none;stroke:#000;stroke-width:0;stroke-linecap:square;stroke-miterlimit:10"/><path id="path301" d="M267.309,97.962c-1.303,0.206-2.25-0.323-2.918-1.463" style="clip-path:url(#XMLID_9_);fill:none;stroke:#000;stroke-width:0;stroke-linecap:square;stroke-miterlimit:10"/><path id="path303" d="M267.309,97.962c-1.081,1.457-2.569,1.911-4.376,1.461" style="clip-path:url(#XMLID_9_);fill:none;stroke:#000;stroke-width:0;stroke-linecap:square;stroke-miterlimit:10"/><path id="path305" d="M255.639,114.045c-0.486,0-0.973,0-1.459,0" style="clip-path:url(#XMLID_9_);fill:none;stroke:#000;stroke-width:0;stroke-linecap:square;stroke-miterlimit:10"/><path id="path307" d="M257.098,108.197c-0.486,0-0.973,0-1.459,0" style="clip-path:url(#XMLID_9_);fill:none;stroke:#000;stroke-width:0;stroke-linecap:square;stroke-miterlimit:10"/><path id="path309" d="M258.556,105.272c0,0.487,0,0.976,0,1.463" style="clip-path:url(#XMLID_9_);fill:none;stroke:#000;stroke-width:0;stroke-linecap:square;stroke-miterlimit:10"/><line id="line311" x1="260.015" x2="261.474" y1="105.272" y2="105.272" style="clip-path:url(#XMLID_9_);fill:none;stroke:#000;stroke-width:0;stroke-linecap:square;stroke-miterlimit:10"/><line id="line313" x1="267.309" x2="267.309" y1="100.886" y2="102.348" style="clip-path:url(#XMLID_9_);fill:none;stroke:#000;stroke-width:0;stroke-linecap:square;stroke-miterlimit:10"/><line id="line315" x1="270.226" x2="270.226" y1="102.348" y2="103.81" style="clip-path:url(#XMLID_9_);fill:none;stroke:#000;stroke-width:0;stroke-linecap:square;stroke-miterlimit:10"/><path id="path317" d="M274.602,105.272c0-0.487,0-0.975,0-1.462" style="clip-path:url(#XMLID_9_);fill:none;stroke:#000;stroke-width:0;stroke-linecap:square;stroke-miterlimit:10"/><path id="path319" d="M278.979,105.272c-1.602-0.975-1.602-1.949,0-2.924" style="clip-path:url(#XMLID_9_);fill:none;stroke:#000;stroke-width:0;stroke-linecap:square;stroke-miterlimit:10"/><path id="path321" d="M268.768,99.423c2.275,1.388,3.568,1.145,2.917-1.461" style="clip-path:url(#XMLID_9_);fill:none;stroke:#000;stroke-width:0;stroke-linecap:square;stroke-miterlimit:10"/><path id="path323" d="M276.061,95.038c-1.234,2.96-1.438,0.938-1.459-1.462" style="clip-path:url(#XMLID_9_);fill:none;stroke:#000;stroke-width:0;stroke-linecap:square;stroke-miterlimit:10"/><path id="path325" d="M271.685,90.652c-1.716,0.505-3.067,0.46-2.917-1.463" style="clip-path:url(#XMLID_9_);fill:none;stroke:#000;stroke-width:0;stroke-linecap:square;stroke-miterlimit:10"/><path id="path327" d="M243.969,74.567c2.748,0.471,4.195,2.745,4.376,5.849" style="clip-path:url(#XMLID_9_);fill:none;stroke:#000;stroke-width:0;stroke-linecap:square;stroke-miterlimit:10"/><line id="line329" x1="334.41" x2="328.575" y1="30.705" y2="32.167" style="clip-path:url(#XMLID_9_);fill:none;stroke:#000;stroke-width:0;stroke-linecap:square;stroke-miterlimit:10"/><path id="path331" d="M330.034,32.167c-4.711,3.404-10.017,3.819-16.046,2.924c1.077,6.942-26.196,6.395-33.551,7.311" style="clip-path:url(#XMLID_9_);fill:none;stroke:#000;stroke-width:0;stroke-linecap:square;stroke-miterlimit:10"/><path id="path333" d="M313.988,38.015c6.321,0,12.643,0,18.964,0c-2.027,3.931-6.43,6.079-11.67,5.848" style="clip-path:url(#XMLID_9_);fill:none;stroke:#000;stroke-width:0;stroke-linecap:square;stroke-miterlimit:10"/><path id="path335" d="M322.741,43.863c1.944,0.007,3.89,0,5.834,0c-3.207,3.685-9.069,4.359-14.587,2.925" style="clip-path:url(#XMLID_9_);fill:none;stroke:#000;stroke-width:0;stroke-linecap:square;stroke-miterlimit:10"/><path id="path337" d="M315.447,46.788c-3.779,2.566-10.743,1.557-16.046-1.462c0.736,1.004,1.959,2.127,2.917,2.924 c-3.932,2.332-9.555,0.629-14.587-2.924" style="clip-path:url(#XMLID_9_);fill:none;stroke:#000;stroke-width:0;stroke-linecap:square;stroke-miterlimit:10"/><path id="path339" d="M292.107,48.25c0.965,3.392-2.461,2.448-7.293,0" style="clip-path:url(#XMLID_9_);fill:none;stroke:#000;stroke-width:0;stroke-linecap:square;stroke-miterlimit:10"/><path id="path341" d="M327.117,33.628c4.862,0,9.725,0,14.587,0c-2.313,1.325-1.494,1.991-5.835,2.925c6.287,0.701,13.481-0.844,17.505,0 c-4.117,5.63-10.736,7.291-17.505,5.848" style="clip-path:url(#XMLID_9_);fill:none;stroke:#000;stroke-width:0;stroke-linecap:square;stroke-miterlimit:10"/><path id="path343" d="M346.08,42.402c2.741-0.717,5.974-0.692,8.753-1.463c-3.312,6.374-11.843,6.824-18.964,5.849" style="clip-path:url(#XMLID_9_);fill:none;stroke:#000;stroke-width:0;stroke-linecap:square;stroke-miterlimit:10"/><path id="path345" d="M343.163,46.788c2.428-0.061,4.864,0,7.293,0c-4.663,4.14-14.589,2.924-21.881,2.924" style="clip-path:url(#XMLID_9_);fill:none;stroke:#000;stroke-width:0;stroke-linecap:square;stroke-miterlimit:10"/><path id="path347" d="M334.41,51.174c1.299,0.274,3.046,0,4.377,0c-4.499,4.036-12.28,3.643-18.964,1.462" style="clip-path:url(#XMLID_9_);fill:none;stroke:#000;stroke-width:0;stroke-linecap:square;stroke-miterlimit:10"/><path id="path349" d="M324.199,54.098c-2.255,4.359-24.26-0.671-32.092-4.386" style="clip-path:url(#XMLID_9_);fill:none;stroke:#000;stroke-width:0;stroke-linecap:square;stroke-miterlimit:10"/><path id="path351" d="M289.19,51.174c6.646,1.828,13.612,4.465,18.963,8.773c-2.979,1.776-6.391,1.887-10.211,1.461" style="clip-path:url(#XMLID_9_);fill:none;stroke:#000;stroke-width:0;stroke-linecap:square;stroke-miterlimit:10"/><path id="path353" d="M300.86,61.409c-2.006,4.237-7.055,3.098-11.67,0" style="clip-path:url(#XMLID_9_);fill:none;stroke:#000;stroke-width:0;stroke-linecap:square;stroke-miterlimit:10"/><path id="path355" d="M293.566,62.871c1.269,3.525-1.964,3.427-7.294,1.462" style="clip-path:url(#XMLID_9_);fill:none;stroke:#000;stroke-width:0;stroke-linecap:square;stroke-miterlimit:10"/><path id="path357" d="M289.19,64.333c-1.641,3.847-5.151,2.781-8.753,0" style="clip-path:url(#XMLID_9_);fill:none;stroke:#000;stroke-width:0;stroke-linecap:square;stroke-miterlimit:10"/><path id="path359" d="M283.355,65.795c-1.675,3.895-6.454,2.75-11.67,0" style="clip-path:url(#XMLID_9_);fill:none;stroke:#000;stroke-width:0;stroke-linecap:square;stroke-miterlimit:10"/><path id="path361" d="M268.768,62.871c10.854,6.757,3.371,11.621-5.835,5.848" style="clip-path:url(#XMLID_9_);fill:none;stroke:#000;stroke-width:0;stroke-linecap:square;stroke-miterlimit:10"/><path id="path363" d="M267.309,70.182c0.622,1.056,2.048,2.052,2.917,2.924c-4.828,0.012-5.277,1.696-10.211-2.924c2.276,4.008,1.026,4.521,1.459,7.311 c-1.716-2.123-3.793-2.799-5.835-4.387" style="clip-path:url(#XMLID_9_);fill:none;stroke:#000;stroke-width:0;stroke-linecap:square;stroke-miterlimit:10"/><path id="path365" d="M257.098,74.567c-1.381,3.997-4.841,2.177-8.753-1.461" style="clip-path:url(#XMLID_9_);fill:none;stroke:#000;stroke-width:0;stroke-linecap:square;stroke-miterlimit:10"/><path id="path367" d="M274.602,55.561c-1.438,2.146-4.292,1.924-7.293,0" style="clip-path:url(#XMLID_9_);fill:none;stroke:#000;stroke-width:0;stroke-linecap:square;stroke-miterlimit:10"/><path id="path369" d="M268.768,55.561c1.053,5.118-2.188,3.101-5.835,0" style="clip-path:url(#XMLID_9_);fill:none;stroke:#000;stroke-width:0;stroke-linecap:square;stroke-miterlimit:10"/><path id="path371" d="M264.391,57.023c1.234,6.52-2.853,3.864-7.293,0" style="clip-path:url(#XMLID_9_);fill:none;stroke:#000;stroke-width:0;stroke-linecap:square;stroke-miterlimit:10"/><path id="path373" d="M258.556,58.485c0.765,1.731,2.071,1.928,1.459,4.386c-2.655-0.074-3.873-1.435-5.835-2.924" style="clip-path:url(#XMLID_9_);fill:none;stroke:#000;stroke-width:0;stroke-linecap:square;stroke-miterlimit:10"/><path id="path375" d="M254.18,61.409c2.484,3.628,0.407,3.192-2.917,1.462" style="clip-path:url(#XMLID_9_);fill:none;stroke:#000;stroke-width:0;stroke-linecap:square;stroke-miterlimit:10"/><line id="line377" x1="254.18" x2="255.639" y1="80.417" y2="81.878" style="clip-path:url(#XMLID_9_);fill:none;stroke:#000;stroke-width:0;stroke-linecap:square;stroke-miterlimit:10"/><line id="line379" x1="260.015" x2="261.474" y1="80.417" y2="81.878" style="clip-path:url(#XMLID_9_);fill:none;stroke:#000;stroke-width:0;stroke-linecap:square;stroke-miterlimit:10"/><path id="path381" d="M264.391,78.954c2.325,0.94,4.273,2.408,5.835,4.387" style="clip-path:url(#XMLID_9_);fill:none;stroke:#000;stroke-width:0;stroke-linecap:square;stroke-miterlimit:10"/><line id="line383" x1="273.144" x2="276.061" y1="77.493" y2="80.417" style="clip-path:url(#XMLID_9_);fill:none;stroke:#000;stroke-width:0;stroke-linecap:square;stroke-miterlimit:10"/><path id="path385" d="M280.437,77.493c2.918,1.949,5.836,3.898,8.753,5.848" style="clip-path:url(#XMLID_9_);fill:none;stroke:#000;stroke-width:0;stroke-linecap:square;stroke-miterlimit:10"/><line id="line387" x1="289.19" x2="296.483" y1="76.03" y2="81.878" style="clip-path:url(#XMLID_9_);fill:none;stroke:#000;stroke-width:0;stroke-linecap:square;stroke-miterlimit:10"/><path id="path389" d="M296.483,76.03c3.203,2.294,6.609,4.245,10.212,5.848" style="clip-path:url(#XMLID_9_);fill:none;stroke:#000;stroke-width:0;stroke-linecap:square;stroke-miterlimit:10"/><path id="path391" d="M305.236,76.03c3.603,1.603,7.008,3.553,10.211,5.848" style="clip-path:url(#XMLID_9_);fill:none;stroke:#000;stroke-width:0;stroke-linecap:square;stroke-miterlimit:10"/><path id="path393" d="M313.988,74.567c3.603,1.604,7.008,3.554,10.211,5.849" style="clip-path:url(#XMLID_9_);fill:none;stroke:#000;stroke-width:0;stroke-linecap:square;stroke-miterlimit:10"/><path id="path395" d="M324.199,74.567c3.235,1.854,6.644,3.318,10.211,4.387" style="clip-path:url(#XMLID_9_);fill:none;stroke:#000;stroke-width:0;stroke-linecap:square;stroke-miterlimit:10"/><path id="path397" d="M334.41,73.106c3.466,0.761,6.87,1.736,10.212,2.924" style="clip-path:url(#XMLID_9_);fill:none;stroke:#000;stroke-width:0;stroke-linecap:square;stroke-miterlimit:10"/><path id="path399" d="M343.163,70.182c4.346,0.722,8.72,1.697,13.128,2.924" style="clip-path:url(#XMLID_9_);fill:none;stroke:#000;stroke-width:0;stroke-linecap:square;stroke-miterlimit:10"/><path id="path401" d="M351.915,65.795c4.783,1.282,9.646,1.77,14.587,1.462" style="clip-path:url(#XMLID_9_);fill:none;stroke:#000;stroke-width:0;stroke-linecap:square;stroke-miterlimit:10"/><path id="path403" d="M357.75,61.409c5.796,0.849,11.531,1.725,17.505,1.462" style="clip-path:url(#XMLID_9_);fill:none;stroke:#000;stroke-width:0;stroke-linecap:square;stroke-miterlimit:10"/><path id="path405" d="M365.043,57.023c5.47,0.4,11.047,0.417,16.046-1.462" style="clip-path:url(#XMLID_9_);fill:none;stroke:#000;stroke-width:0;stroke-linecap:square;stroke-miterlimit:10"/><path id="path407" d="M381.089,49.712c-3.488-0.194-6.902,0.296-10.211,1.461" style="clip-path:url(#XMLID_9_);fill:none;stroke:#000;stroke-width:0;stroke-linecap:square;stroke-miterlimit:10"/><path id="path409" d="M398.594,42.402c1.944-1.462,3.89-2.924,5.834-4.387c-2.254,4.797-6.355,7.836-11.669,8.773" style="clip-path:url(#XMLID_9_);fill:none;stroke:#000;stroke-width:0;stroke-linecap:square;stroke-miterlimit:10"/><path id="path411" d="M370.878,46.788c4.533-0.977,8.912-2.44,13.128-4.386" style="clip-path:url(#XMLID_9_);fill:none;stroke:#000;stroke-width:0;stroke-linecap:square;stroke-miterlimit:10"/><path id="path413" d="M401.511,35.091c5.052-2.499,9.227-6.52,10.211-11.697" style="clip-path:url(#XMLID_9_);fill:none;stroke:#000;stroke-width:0;stroke-linecap:square;stroke-miterlimit:10"/><line id="line415" x1="411.722" x2="410.263" y1="19.008" y2="21.932" style="clip-path:url(#XMLID_9_);fill:none;stroke:#000;stroke-width:0;stroke-linecap:square;stroke-miterlimit:10"/><line id="line417" x1="404.428" x2="402.97" y1="29.243" y2="32.167" style="clip-path:url(#XMLID_9_);fill:none;stroke:#000;stroke-width:0;stroke-linecap:square;stroke-miterlimit:10"/><path id="path419" d="M414.64,10.235c-1.099,5.907-10.666,16.792-11.67,14.621" style="clip-path:url(#XMLID_9_);fill:none;stroke:#000;stroke-width:0;stroke-linecap:square;stroke-miterlimit:10"/><line id="line421" x1="410.263" x2="410.263" y1="17.545" y2="16.084" style="clip-path:url(#XMLID_9_);fill:none;stroke:#000;stroke-width:0;stroke-linecap:square;stroke-miterlimit:10"/><path id="path423" d="M372.336,39.478c4.534-0.977,8.913-2.441,13.129-4.387" style="clip-path:url(#XMLID_9_);fill:none;stroke:#000;stroke-width:0;stroke-linecap:square;stroke-miterlimit:10"/></g><g id="g425"><defs id="defs427"><path id="XMLID_3_" d="M1.822,0c136.877,0,273.754,0,410.63,0c11.766,0,5.105,60.506,5.105,71.42c0,17.131,0,34.262,0,51.393 c0,5.175-5.654,2.929-10.215,2.929c-78.449,0-156.899,0-235.349,0c-55.022,0-110.044,0-165.067,0 c-11.624,0-5.105-34.065-5.105-43.167C1.822,55.05,1.822,27.525,1.822,0"/></defs><clipPath id="XMLID_10_"><use id="use431" xlink:href="#XMLID_3_"/></clipPath><path id="path433" d="M192.914,92.113 c-3.283,12.064,10.68,5.983,16.046,0c0.839,0.231,3.646,2.525,4.376,2.925c0-0.975,0-1.95,0-2.925 c1.717,5.121,4.988,7.918,7.293,7.311c2.433,7.513-3.578,8.325-8.752,4.387c1.417,7.261,0.18,2.508-2.917,4.387 c-2.726,5.429-9.538,9.199-13.128,4.386c-2.449,6.255-3.62,5.777-7.293,2.924c-4.96,4.352-5.04,4.256-10.211,1.463 c-0.67,1.242-9.566,7.313-13.129,1.463c-5.68,3.718-10.987,3.426-11.669-2.926c-6.247,4.18-13.625,1.618-7.294-4.386 c-0.812-0.683-2.212-1.185-2.917-2.924C152.505,98.474,178.861,95.474,192.914,92.113 M241.052,48.25 c3.187-0.349,3.965-2.54,7.293,0c0.066,0.502-1.853-3.519-1.458-2.924c1.145-0.594,3.241,0.61,4.376,0 c-0.161-0.229-2.297-0.519-2.918-1.462c5.192,0.275,7.048,0.068,11.67,2.925c-0.832-0.899-1.885-2.274-2.917-2.925 c2.487,1.42,4.864,2.847,7.293,4.387c-0.825-1.671-1.149-2.627-1.458-4.387c1.913,1.589,4.824,4.833,7.293,7.311 c-6.116-1.267-12.33-2.26-14.587,2.924c-2.708-0.845-1.618-0.258-5.835,0c0.486-0.487,0.973-0.975,1.459-1.462 c-1.423,0.408-2.671,1.039-4.376,1.462c0.186-0.772,1.391-2.393,1.458-2.924c-4.653,1.54-1.918,1.676-4.376-1.461 c-2.531,0.132-1.405,1.38-4.376,0C242.779,48.374,243.546,45.946,241.052,48.25" style="clip-path:url(#XMLID_10_);fill-rule:evenodd;clip-rule:evenodd;fill:#f2f2d3"/><path id="path435" d="M192.914,92.113c-3.283,12.064,10.68,5.983,16.046,0c0.839,0.231,3.646,2.525,4.376,2.925c0-0.975,0-1.95,0-2.925 c1.717,5.121,4.988,7.918,7.293,7.311c2.433,7.513-3.578,8.325-8.752,4.387c1.417,7.261,0.18,2.508-2.917,4.387 c-2.726,5.429-9.538,9.199-13.128,4.386c-2.449,6.255-3.62,5.777-7.293,2.924c-4.96,4.352-5.04,4.256-10.211,1.463 c-0.67,1.242-9.566,7.313-13.129,1.463c-5.68,3.718-10.987,3.426-11.669-2.926c-6.247,4.18-13.625,1.618-7.294-4.386 c-0.812-0.683-2.212-1.185-2.917-2.924C152.505,98.474,178.861,95.474,192.914,92.113" style="clip-path:url(#XMLID_10_);fill:none;stroke:#000;stroke-width:0;stroke-linecap:square;stroke-miterlimit:10"/><path id="path437" d="M241.052,48.25c3.187-0.349,3.965-2.54,7.293,0c0.066,0.502-1.853-3.519-1.458-2.924c1.145-0.594,3.241,0.61,4.376,0 c-0.161-0.229-2.297-0.519-2.918-1.462c5.192,0.275,7.048,0.068,11.67,2.925c-0.832-0.899-1.885-2.274-2.917-2.925 c2.487,1.42,4.864,2.847,7.293,4.387c-0.825-1.671-1.149-2.627-1.458-4.387c1.913,1.589,4.824,4.833,7.293,7.311 c-6.116-1.267-12.33-2.26-14.587,2.924c-2.708-0.845-1.618-0.258-5.835,0c0.486-0.487,0.973-0.975,1.459-1.462 c-1.423,0.408-2.671,1.039-4.376,1.462c0.186-0.772,1.391-2.393,1.458-2.924c-4.653,1.54-1.918,1.676-4.376-1.461 c-2.531,0.132-1.405,1.38-4.376,0C242.779,48.374,243.546,45.946,241.052,48.25" style="clip-path:url(#XMLID_10_);fill:none;stroke:#000;stroke-width:0;stroke-linecap:square;stroke-miterlimit:10"/><path id="path439" d="M191.456,95.038c-11.506,6.805-32.136,15.49-45.221,16.083" style="clip-path:url(#XMLID_10_);fill:none;stroke:#000;stroke-width:0;stroke-linecap:square;stroke-miterlimit:10"/><path id="path441" d="M191.456,96.5c-10.795,8.355-25.292,13.938-37.927,19.007" style="clip-path:url(#XMLID_10_);fill:none;stroke:#000;stroke-width:0;stroke-linecap:square;stroke-miterlimit:10"/><path id="path443" d="M192.914,97.962c-8.951,6.978-17.665,15.096-27.716,20.47" style="clip-path:url(#XMLID_10_);fill:none;stroke:#000;stroke-width:0;stroke-linecap:square;stroke-miterlimit:10"/><path id="path445" d="M194.373,99.423c-4.862,5.849-9.725,11.697-14.587,17.546" style="clip-path:url(#XMLID_10_);fill:none;stroke:#000;stroke-width:0;stroke-linecap:square;stroke-miterlimit:10"/><path id="path447" d="M198.749,99.423c-3.62,5.215-7.042,10.582-10.211,16.083" style="clip-path:url(#XMLID_10_);fill:none;stroke:#000;stroke-width:0;stroke-linecap:square;stroke-miterlimit:10"/><path id="path449" d="M200.208,99.423c-0.974,4.543-2.434,8.932-4.376,13.159" style="clip-path:url(#XMLID_10_);fill:none;stroke:#000;stroke-width:0;stroke-linecap:square;stroke-miterlimit:10"/><path id="path451" d="M201.667,96.5c0.709,5.347,1.28,10.703,1.458,16.083" style="clip-path:url(#XMLID_10_);fill:none;stroke:#000;stroke-width:0;stroke-linecap:square;stroke-miterlimit:10"/><path id="path453" d="M204.584,96.5c0.304,4.366,2.188,9.547,4.376,11.697" style="clip-path:url(#XMLID_10_);fill:none;stroke:#000;stroke-width:0;stroke-linecap:square;stroke-miterlimit:10"/><line id="line455" x1="207.501" x2="211.877" y1="95.038" y2="103.81" style="clip-path:url(#XMLID_10_);fill:none;stroke:#000;stroke-width:0;stroke-linecap:square;stroke-miterlimit:10"/><path id="path457" d="M207.501,95.038c4.288,2.954,8.179,6.366,11.67,10.234" style="clip-path:url(#XMLID_10_);fill:none;stroke:#000;stroke-width:0;stroke-linecap:square;stroke-miterlimit:10"/></g><path id="path459" d="M258.556,96.5c8.727,3.14,3.823-7.388,8.753-7.311 c7.297,0.115,3.121,6.462,0,8.773c2.919-1.935,5.509-3.267,7.293-4.387c0,0.975,0,1.949,0,2.924c1.46,0.486,1.946-0.001,1.459-1.462 c-2.591,3.529,1.665,2.359-2.917,4.386c2.159,0.863,3.398,2.572,5.835,2.925c0.105,1.793-0.545,4.422-1.459,5.849 c-6.795-6.86-15.015-6.142-20.422,0c0.455,4.944,2.287,3.811-2.918,5.849C253.182,107.036,258.268,96.496,258.556,96.5 M245.428,105.272c-9.425,1.573-12.241,10.203-14.587,16.084c-1.581-2.314-0.539-20.943,0-23.394 c0.556,0.867,2.524,3.962,2.917,4.386c2.745-4.376,6.374-9.527,10.211-4.386c4.1-1.188,4.012-0.062,7.294,1.461 c-0.388,1.467,0.221,3.588,0,7.312c0.486-0.975,0.973-1.95,1.459-2.925c0.093,0.696,0.135,2.821,1.458,2.925 C251.017,110.52,248.685,109.079,245.428,105.272 M243.969,105.272c-0.282-2.898-0.244-4.908-1.459-7.31 C247.068,100.2,244.056,101.675,243.969,105.272 M267.309,48.25c5.611-0.203,26.9-1.327,16.046,13.159 c-0.196-7.674-7.325-11.419-14.587-13.159c3.379,2.92,7.509,7.198,11.669,10.235C275.097,56.602,270.959,52.701,267.309,48.25 M276.061,45.326c-0.533-0.421-3.658,0-4.376,0c-0.079-2.393,0.127-2.651,1.459-4.387c0.206-0.567-1.056,3.842-1.459,2.924 C274.775,45.285,274.261,43.518,276.061,45.326" style="fill-rule:evenodd;clip-rule:evenodd;fill:#e8bc38"/><path id="path461" d="M258.556,96.5 c8.727,3.14,3.823-7.388,8.753-7.311c7.297,0.115,3.121,6.462,0,8.773c2.919-1.935,5.509-3.267,7.293-4.387c0,0.975,0,1.949,0,2.924 c1.46,0.486,1.946-0.001,1.459-1.462c-2.591,3.529,1.665,2.359-2.917,4.386c2.159,0.863,3.398,2.572,5.835,2.925 c0.105,1.793-0.545,4.422-1.459,5.849c-6.795-6.86-15.015-6.142-20.422,0c0.455,4.944,2.287,3.811-2.918,5.849 C253.182,107.036,258.268,96.496,258.556,96.5" style="fill:none;stroke:#000;stroke-width:0;stroke-linecap:square;stroke-miterlimit:10"/><path id="path463" d="M245.428,105.272 c-9.425,1.573-12.241,10.203-14.587,16.084c-1.581-2.314-0.539-20.943,0-23.394c0.556,0.867,2.524,3.962,2.917,4.386 c2.745-4.376,6.374-9.527,10.211-4.386c4.1-1.188,4.012-0.062,7.294,1.461c-0.388,1.467,0.221,3.588,0,7.312 c0.486-0.975,0.973-1.95,1.459-2.925c0.093,0.696,0.135,2.821,1.458,2.925C251.017,110.52,248.685,109.079,245.428,105.272" style="fill:none;stroke:#000;stroke-width:0;stroke-linecap:square;stroke-miterlimit:10"/><path id="path465" d="M243.969,105.272 c-0.282-2.898-0.244-4.908-1.459-7.31C247.068,100.2,244.056,101.675,243.969,105.272" style="fill:none;stroke:#000;stroke-width:0;stroke-linecap:square;stroke-miterlimit:10"/><path id="path467" d="M267.309,48.25 c5.611-0.203,26.9-1.327,16.046,13.159c-0.196-7.674-7.325-11.419-14.587-13.159c3.379,2.92,7.509,7.198,11.669,10.235 C275.097,56.602,270.959,52.701,267.309,48.25" style="fill:none;stroke:#000;stroke-width:0;stroke-linecap:square;stroke-miterlimit:10"/><path id="path469" d="M276.061,45.326 c-0.533-0.421-3.658,0-4.376,0c-0.079-2.393,0.127-2.651,1.459-4.387c0.206-0.567-1.056,3.842-1.459,2.924 C274.775,45.285,274.261,43.518,276.061,45.326" style="fill:none;stroke:#000;stroke-width:0;stroke-linecap:square;stroke-miterlimit:10"/><path id="path471" d="M278.979,49.712 c-1.74-1.519-0.409-0.955,1.458,0" style="fill:none;stroke:#000;stroke-width:0;stroke-linecap:square;stroke-miterlimit:10"/><path id="path473" d="M230.841,103.81 c-0.631-2.576,0.34-3.553,2.917-2.924" style="fill:none;stroke:#000;stroke-width:0;stroke-linecap:square;stroke-miterlimit:10"/><path id="path475" d="M230.841,105.272 c-0.114-1.988,0.93-3.035,2.917-2.924" style="fill:none;stroke:#000;stroke-width:0;stroke-linecap:square;stroke-miterlimit:10"/><line id="line477" x1="245.428" x2="245.428" y1="105.272" y2="103.81" style="fill:none;stroke:#000;stroke-width:0;stroke-linecap:square;stroke-miterlimit:10"/><path id="path479" d="M248.345,106.735 c0-0.487,0-0.976,0-1.463" style="fill:none;stroke:#000;stroke-width:0;stroke-linecap:square;stroke-miterlimit:10"/><path id="path481" d="M251.263,102.348 c-3.01,1.778-4.668,1.11-4.376-2.925" style="fill:none;stroke:#000;stroke-width:0;stroke-linecap:square;stroke-miterlimit:10"/><path id="path483" d="M246.887,102.348 c-0.486,0-0.973,0-1.459,0" style="fill:none;stroke:#000;stroke-width:0;stroke-linecap:square;stroke-miterlimit:10"/><line id="line485" x1="243.969" x2="243.969" y1="97.962" y2="97.962" style="fill:none;stroke:#000;stroke-width:0;stroke-linecap:square;stroke-miterlimit:10"/><path id="path487" d="M243.969,100.886 c-2.605,0.541-4.249-0.36-4.376-2.924" style="fill:none;stroke:#000;stroke-width:0;stroke-linecap:square;stroke-miterlimit:10"/><path id="path489" d="M241.052,100.886 c-1.855,1.901-3.552,2.308-4.376,0" style="fill:none;stroke:#000;stroke-width:0;stroke-linecap:square;stroke-miterlimit:10"/><path id="path491" d="M239.593,102.348 c-0.668,1.139-1.615,1.668-2.917,1.462" style="fill:none;stroke:#000;stroke-width:0;stroke-linecap:square;stroke-miterlimit:10"/><path id="path493" d="M243.969,102.348 c-1.459,0-2.917,0-4.376,0" style="fill:none;stroke:#000;stroke-width:0;stroke-linecap:square;stroke-miterlimit:10"/><path id="path495" d="M241.052,105.272 c0,0.487,0,0.976,0,1.463" style="fill:none;stroke:#000;stroke-width:0;stroke-linecap:square;stroke-miterlimit:10"/><path id="path497" d="M235.217,112.583 c-0.486,0-0.973,0-1.459,0" style="fill:none;stroke:#000;stroke-width:0;stroke-linecap:square;stroke-miterlimit:10"/><line id="line499" x1="232.299" x2="232.299" y1="115.506" y2="115.506" style="fill:none;stroke:#000;stroke-width:0;stroke-linecap:square;stroke-miterlimit:10"/><path id="path501" d="M233.758,105.272 c-0.505-1.716-0.461-3.07,1.459-2.924" style="fill:none;stroke:#000;stroke-width:0;stroke-linecap:square;stroke-miterlimit:10"/><line id="line503" x1="257.098" x2="255.639" y1="96.5" y2="96.5" style="fill:none;stroke:#000;stroke-width:0;stroke-linecap:square;stroke-miterlimit:10"/><path id="path505" d="M255.639,99.423 c0.389-1.391,1.232-2.039,2.917-2.924" style="fill:none;stroke:#000;stroke-width:0;stroke-linecap:square;stroke-miterlimit:10"/><path id="path507" d="M260.015,97.962 c-1.66,0.287-2.633,1.262-2.917,2.924" style="fill:none;stroke:#000;stroke-width:0;stroke-linecap:square;stroke-miterlimit:10"/><line id="line509" x1="268.768" x2="267.309" y1="95.038" y2="95.038" style="fill:none;stroke:#000;stroke-width:0;stroke-linecap:square;stroke-miterlimit:10"/><path id="path511" d="M267.309,97.962 c-1.46,0.486-1.946-0.001-1.459-1.463" style="fill:none;stroke:#000;stroke-width:0;stroke-linecap:square;stroke-miterlimit:10"/><path id="path513" d="M267.309,97.962 c-1.579,0.527-2.797,0.934-4.376,1.461" style="fill:none;stroke:#000;stroke-width:0;stroke-linecap:square;stroke-miterlimit:10"/><path id="path515" d="M257.098,108.197 c-0.486,0-0.973,0-1.459,0" style="fill:none;stroke:#000;stroke-width:0;stroke-linecap:square;stroke-miterlimit:10"/><path id="path517" d="M258.556,105.272 c0,0.487,0,0.976,0,1.463" style="fill:none;stroke:#000;stroke-width:0;stroke-linecap:square;stroke-miterlimit:10"/><line id="line519" x1="260.015" x2="261.474" y1="105.272" y2="105.272" style="fill:none;stroke:#000;stroke-width:0;stroke-linecap:square;stroke-miterlimit:10"/><line id="line521" x1="267.309" x2="267.309" y1="100.886" y2="102.348" style="fill:none;stroke:#000;stroke-width:0;stroke-linecap:square;stroke-miterlimit:10"/><line id="line523" x1="270.226" x2="270.226" y1="102.348" y2="103.81" style="fill:none;stroke:#000;stroke-width:0;stroke-linecap:square;stroke-miterlimit:10"/><line id="line525" x1="274.602" x2="274.602" y1="105.272" y2="103.81" style="fill:none;stroke:#000;stroke-width:0;stroke-linecap:square;stroke-miterlimit:10"/><path id="path527" d="M268.768,99.423 c2.275,1.388,3.568,1.145,2.917-1.461" style="fill:none;stroke:#000;stroke-width:0;stroke-linecap:square;stroke-miterlimit:10"/><path id="path529" d="M1.822,0c136.877,0,273.754,0,410.63,0 c11.766,0,5.105,60.506,5.105,71.42c0,17.131,0,34.262,0,51.393c0,5.175-5.654,2.929-10.215,2.929c-78.449,0-156.899,0-235.349,0 c-55.022,0-110.044,0-165.067,0c-11.624,0-5.105-34.065-5.105-43.167C1.822,55.05,1.822,27.525,1.822,0" style="fill-rule:evenodd;clip-rule:evenodd;fill:none"/><g id="g531"><defs id="defs533"><path id="XMLID_5_" d="M1.822,0c136.877,0,273.754,0,410.63,0c11.766,0,5.105,60.506,5.105,71.42c0,17.131,0,34.262,0,51.393 c0,5.175-5.654,2.929-10.215,2.929c-78.449,0-156.899,0-235.349,0c-55.022,0-110.044,0-165.067,0 c-11.624,0-5.105-34.065-5.105-43.167C1.822,55.05,1.822,27.525,1.822,0"/></defs><clipPath id="XMLID_11_"><use id="use537" xlink:href="#XMLID_5_"/></clipPath><path id="path539" d="M278.979,46.788 c-6.769,1.876-12.902,2.355-16.046-2.925c0.28,1.6,0.371,2.976,1.458,4.387c-2.429-1.54-4.806-2.967-7.293-4.387 c1.032,0.651,2.085,2.026,2.917,2.925c-4.622-2.856-6.478-2.649-11.67-2.925c0.592,0.83,2.818,1.321,2.918,1.462 c-3.54,2.065-3.726-1.143-2.918,2.924c-4.043-1.301-3.954-0.571-7.293,0c0.973,0,1.944,0,2.917,0 c-4.532,1.93-6.195,0.646-10.211-1.462c-0.675-2.334,1.284-1.348,1.459-2.925c-0.642-0.467-2.71-2.452-2.918-2.924 c1.871-0.296,4.146-2.313,7.294-2.924c-1.59-0.966-2.895-1.887-4.376-2.924c1.275-1.45,2.26-0.588,4.376-1.462 c-0.803-1.653-2.16-2.013-1.459-4.386C242.28,32.581,290.827,29.968,278.979,46.788 M276.061,45.326 c-2.772-0.721-4.592,2.795-4.376-2.924C274.217,42.561,273.984,44.786,276.061,45.326" style="clip-path:url(#XMLID_11_);fill-rule:evenodd;clip-rule:evenodd;fill:#ffffe0"/><path id="path541" d="M278.979,46.788c-6.769,1.876-12.902,2.355-16.046-2.925c0.28,1.6,0.371,2.976,1.458,4.387c-2.429-1.54-4.806-2.967-7.293-4.387 c1.032,0.651,2.085,2.026,2.917,2.925c-4.622-2.856-6.478-2.649-11.67-2.925c0.592,0.83,2.818,1.321,2.918,1.462 c-3.54,2.065-3.726-1.143-2.918,2.924c-4.043-1.301-3.954-0.571-7.293,0c0.973,0,1.944,0,2.917,0 c-4.532,1.93-6.195,0.646-10.211-1.462c-0.675-2.334,1.284-1.348,1.459-2.925c-0.642-0.467-2.71-2.452-2.918-2.924 c1.871-0.296,4.146-2.313,7.294-2.924c-1.59-0.966-2.895-1.887-4.376-2.924c1.275-1.45,2.26-0.588,4.376-1.462 c-0.803-1.653-2.16-2.013-1.459-4.386C242.28,32.581,290.827,29.968,278.979,46.788" style="clip-path:url(#XMLID_11_);fill:none;stroke:#000;stroke-width:0;stroke-linecap:square;stroke-miterlimit:10"/><path id="path543" d="M276.061,45.326c-2.772-0.721-4.592,2.795-4.376-2.924C274.217,42.561,273.984,44.786,276.061,45.326" style="clip-path:url(#XMLID_11_);fill:none;stroke:#000;stroke-width:0;stroke-linecap:square;stroke-miterlimit:10"/><path id="path545" d="M239.593,45.326c-0.668,1.139-1.615,1.668-2.917,1.462" style="clip-path:url(#XMLID_11_);fill:none;stroke:#000;stroke-width:0;stroke-linecap:square;stroke-miterlimit:10"/><path id="path547" d="M245.428,45.326c-2.257,0.618-2.617,1.858-4.376,0c1.675-0.84,1.373-0.467,2.917-1.462" style="clip-path:url(#XMLID_11_);fill:none;stroke:#000;stroke-width:0;stroke-linecap:square;stroke-miterlimit:10"/><path id="path549" d="M246.887,42.402c-2.198,0.128-3.144,1.91-5.835,0c2.34-1.581,2.848,0.108,4.376,0" style="clip-path:url(#XMLID_11_);fill:none;stroke:#000;stroke-width:0;stroke-linecap:square;stroke-miterlimit:10"/><path id="path551" d="M254.18,42.402c-1.834,0.29-3.975,0-5.835,0c0.954-0.957,1.872-2.069,2.918-2.924" style="clip-path:url(#XMLID_11_);fill:none;stroke:#000;stroke-width:0;stroke-linecap:square;stroke-miterlimit:10"/><path id="path553" d="M257.098,40.939c1.844,0.925,1.072,0.539,2.917,1.463" style="clip-path:url(#XMLID_11_);fill:none;stroke:#000;stroke-width:0;stroke-linecap:square;stroke-miterlimit:10"/><path id="path555" d="M268.768,40.939c1.808-0.451,3.296,0.004,4.376,1.463" style="clip-path:url(#XMLID_11_);fill:none;stroke:#000;stroke-width:0;stroke-linecap:square;stroke-miterlimit:10"/><path id="path557" d="M276.061,45.326c1.302-0.206,2.25,0.323,2.918,1.462" style="clip-path:url(#XMLID_11_);fill:none;stroke:#000;stroke-width:0;stroke-linecap:square;stroke-miterlimit:10"/><line id="line559" x1="280.437" x2="280.437" y1="46.788" y2="45.326" style="clip-path:url(#XMLID_11_);fill:none;stroke:#000;stroke-width:0;stroke-linecap:square;stroke-miterlimit:10"/></g><g id="g561"><defs id="defs563"><path id="XMLID_7_" d="M1.822,0c136.877,0,273.754,0,410.63,0c11.766,0,5.105,60.506,5.105,71.42c0,17.131,0,34.262,0,51.393 c0,5.175-5.654,2.929-10.215,2.929c-78.449,0-156.899,0-235.349,0c-55.022,0-110.044,0-165.067,0 c-11.624,0-5.105-34.065-5.105-43.167C1.822,55.05,1.822,27.525,1.822,0"/></defs><clipPath id="XMLID_12_"><use id="use567" xlink:href="#XMLID_7_"/></clipPath><path id="path569" d="M192.914,93.576 c1.578-3.227-0.826-6.013,4.376-5.848C195.564,89.466,194.141,91.442,192.914,93.576 M114.143,43.863 c27.141-4.534,47.503,0,73.802,0c14.437,0,41.906-12.838,51.648-10.235c-2.376,0.982-2.526,0.439-4.376,1.462 c1.2,1.491,3.204,1.658,4.376,2.924c-2.023,0.328-3.661,1.206-5.835,1.462c0.486-0.487,0.973-0.975,1.459-1.462 c-3.524,1.271-3.983,0.688-7.294,2.924c0.006-0.042,1.384-3.316,1.459-2.924C192.853,51.508,152.797,40.884,114.143,43.863 M276.061,36.554c24.188,0,41.204-10.235,67.102-10.235c-10.6,1.284-21.828,2.182-32.092,4.386 c1.459-0.486,1.945,0.001,1.458,1.462C302.887,33.569,286.003,46.521,276.061,36.554 M401.511,26.319 c6.486-3.408,9.26-9.407,7.294-17.545c0.478,2.396,0.901,4.878,1.458,7.311c3.177-4.023,4.319-11.278,5.835-14.622 C416.557,12.255,410.967,20.876,401.511,26.319 M401.511,35.091c0.834-1.993,1.953-3.914,2.917-5.848c0,1.462,0,2.924,0,4.386 c4.126-3.919,6.227-9.269,7.294-14.621C413.113,26.587,408.059,31.852,401.511,35.091 M392.759,48.25 c4.171-3.473,7.641-6.516,11.669-10.235C401.728,42.698,397.767,45.917,392.759,48.25" style="clip-path:url(#XMLID_12_);fill-rule:evenodd;clip-rule:evenodd;fill:#e0bf80"/><path id="path571" d="M192.914,93.576c1.578-3.227-0.826-6.013,4.376-5.848C195.564,89.466,194.141,91.442,192.914,93.576" style="clip-path:url(#XMLID_12_);fill:none;stroke:#000;stroke-width:0;stroke-linecap:square;stroke-miterlimit:10"/><path id="path573" d="M114.143,43.863c27.141-4.534,47.503,0,73.802,0c14.437,0,41.906-12.838,51.648-10.235c-2.376,0.982-2.526,0.439-4.376,1.462 c1.2,1.491,3.204,1.658,4.376,2.924c-2.023,0.328-3.661,1.206-5.835,1.462c0.486-0.487,0.973-0.975,1.459-1.462 c-3.524,1.271-3.983,0.688-7.294,2.924c0.006-0.042,1.384-3.316,1.459-2.924C192.853,51.508,152.797,40.884,114.143,43.863" style="clip-path:url(#XMLID_12_);fill:none;stroke:#000;stroke-width:0;stroke-linecap:square;stroke-miterlimit:10"/><path id="path575" d="M276.061,36.554c24.188,0,41.204-10.235,67.102-10.235c-10.6,1.284-21.828,2.182-32.092,4.386c1.459-0.486,1.945,0.001,1.458,1.462 C302.887,33.569,286.003,46.521,276.061,36.554" style="clip-path:url(#XMLID_12_);fill:none;stroke:#000;stroke-width:0;stroke-linecap:square;stroke-miterlimit:10"/><path id="path577" d="M401.511,26.319c6.486-3.408,9.26-9.407,7.294-17.545c0.478,2.396,0.901,4.878,1.458,7.311c3.177-4.023,4.319-11.278,5.835-14.622 C416.557,12.255,410.967,20.876,401.511,26.319" style="clip-path:url(#XMLID_12_);fill:none;stroke:#000;stroke-width:0;stroke-linecap:square;stroke-miterlimit:10"/><path id="path579" d="M401.511,35.091c0.834-1.993,1.953-3.914,2.917-5.848c0,1.462,0,2.924,0,4.386c4.126-3.919,6.227-9.269,7.294-14.621 C413.113,26.587,408.059,31.852,401.511,35.091" style="clip-path:url(#XMLID_12_);fill:none;stroke:#000;stroke-width:0;stroke-linecap:square;stroke-miterlimit:10"/><path id="path581" d="M392.759,48.25c4.171-3.473,7.641-6.516,11.669-10.235C401.728,42.698,397.767,45.917,392.759,48.25" style="clip-path:url(#XMLID_12_);fill:none;stroke:#000;stroke-width:0;stroke-linecap:square;stroke-miterlimit:10"/><line id="line583" x1="401.511" x2="402.97" y1="26.319" y2="24.856" style="clip-path:url(#XMLID_12_);fill:none;stroke:#000;stroke-width:0;stroke-linecap:square;stroke-miterlimit:10"/><line id="line585" x1="410.263" x2="410.263" y1="17.545" y2="16.084" style="clip-path:url(#XMLID_12_);fill:none;stroke:#000;stroke-width:0;stroke-linecap:square;stroke-miterlimit:10"/></g><path id="path587" d="M230.841,124.28c-1.419-1.677-3.762-0.341-2.918-4.387 C228.55,120.836,230.069,123.368,230.841,124.28 M243.969,105.272c-0.27-2.563-0.62-4.921-1.459-7.31 C247.044,100.188,244.09,101.677,243.969,105.272 M251.263,106.735c-0.294-2.898-0.243-4.906-1.459-7.312 C253.993,102.1,251.194,103.295,251.263,106.735 M252.722,114.045c0.132-3.474-0.615-5.752,1.458-7.311 C254.877,109.903,253.157,111.733,252.722,114.045 M260.015,116.969c-3.056-1.249-4.365,0.881-5.835-2.924 C255.677,115.211,257.574,115.903,260.015,116.969 M281.896,108.197c-1.679-2.213-1.99-2.896-4.376-4.387 c0.486-0.487,0.973-0.975,1.459-1.462C280.661,104.249,280.722,106.275,281.896,108.197 M281.896,97.962 c-3.651-1.308-3.89-4.775-7.294-1.463c0-0.975,0-1.949,0-2.924C279.936,92.47,278.919,95.355,281.896,97.962 M276.061,90.652 c-2.519-0.213-4.755-0.954-7.293-1.463C273.654,85.608,273.125,89.674,276.061,90.652 M270.226,48.25 c1.148,0.523,8.831,4.178,10.211,10.235C276.403,55.541,273.193,52.338,270.226,48.25 M274.602,43.863 c-0.136,0.021-0.58,2.15-2.917,1.462C271.989,41.102,273.124,44.089,274.602,43.863" style="fill-rule:evenodd;clip-rule:evenodd;fill:#7f3f00"/><path id="path589" d="M230.841,124.28 c-1.419-1.677-3.762-0.341-2.918-4.387C228.55,120.836,230.069,123.368,230.841,124.28" style="fill:none;stroke:#000;stroke-width:0;stroke-linecap:square;stroke-miterlimit:10"/><path id="path591" d="M243.969,105.272 c-0.27-2.563-0.62-4.921-1.459-7.31C247.044,100.188,244.09,101.677,243.969,105.272" style="fill:none;stroke:#000;stroke-width:0;stroke-linecap:square;stroke-miterlimit:10"/><path id="path593" d="M251.263,106.735 c-0.294-2.898-0.243-4.906-1.459-7.312C253.993,102.1,251.194,103.295,251.263,106.735" style="fill:none;stroke:#000;stroke-width:0;stroke-linecap:square;stroke-miterlimit:10"/><path id="path595" d="M252.722,114.045 c0.132-3.474-0.615-5.752,1.458-7.311C254.877,109.903,253.157,111.733,252.722,114.045" style="fill:none;stroke:#000;stroke-width:0;stroke-linecap:square;stroke-miterlimit:10"/><path id="path597" d="M260.015,116.969 c-3.056-1.249-4.365,0.881-5.835-2.924C255.677,115.211,257.574,115.903,260.015,116.969" style="fill:none;stroke:#000;stroke-width:0;stroke-linecap:square;stroke-miterlimit:10"/><path id="path599" d="M281.896,108.197 c-1.679-2.213-1.99-2.896-4.376-4.387c0.486-0.487,0.973-0.975,1.459-1.462C280.661,104.249,280.722,106.275,281.896,108.197" style="fill:none;stroke:#000;stroke-width:0;stroke-linecap:square;stroke-miterlimit:10"/><path id="path601" d="M281.896,97.962 c-3.651-1.308-3.89-4.775-7.294-1.463c0-0.975,0-1.949,0-2.924C279.936,92.47,278.919,95.355,281.896,97.962" style="fill:none;stroke:#000;stroke-width:0;stroke-linecap:square;stroke-miterlimit:10"/><path id="path603" d="M276.061,90.652 c-2.519-0.213-4.755-0.954-7.293-1.463C273.654,85.608,273.125,89.674,276.061,90.652" style="fill:none;stroke:#000;stroke-width:0;stroke-linecap:square;stroke-miterlimit:10"/><path id="path605" d="M270.226,48.25 c1.148,0.523,8.831,4.178,10.211,10.235C276.403,55.541,273.193,52.338,270.226,48.25" style="fill:none;stroke:#000;stroke-width:0;stroke-linecap:square;stroke-miterlimit:10"/><path id="path607" d="M274.602,43.863 c-0.136,0.021-0.58,2.15-2.917,1.462C271.989,41.102,273.124,44.089,274.602,43.863" style="fill:none;stroke:#000;stroke-width:0;stroke-linecap:square;stroke-miterlimit:10"/><path id="path609" d="M1.822,0c136.877,0,273.754,0,410.63,0 c11.766,0,5.105,60.506,5.105,71.42c0,17.131,0,34.262,0,51.393c0,5.175-5.654,2.929-10.215,2.929c-78.449,0-156.899,0-235.349,0 c-55.022,0-110.044,0-165.067,0c-11.624,0-5.105-34.065-5.105-43.167C1.822,55.05,1.822,27.525,1.822,0" style="fill-rule:evenodd;clip-rule:evenodd;fill:none"/></svg>