<?xml version="1.0" standalone="no"?>
<!DOCTYPE svg PUBLIC "-//W3C//DTD SVG 20010904//EN"
 "http://www.w3.org/TR/2001/REC-SVG-20010904/DTD/svg10.dtd">
<svg version="1.0" xmlns="http://www.w3.org/2000/svg"
 width="958.000000pt" height="243.000000pt" 
 viewBox="-200 0 958.000000 243.000000"
 preserveAspectRatio="xMidYMid meet">

<g transform="translate(0.000000,243.000000) scale(0.100000,-0.100000)"
fill="#000000" stroke="none">
<path d="M909 2420 c-1 -8 -1 -22 0 -31 3 -25 -43 -29 -79 -8 -39 24 -50 24
-50 0 0 -11 -9 -21 -21 -24 -38 -10 -15 -32 33 -32 25 0 52 -6 61 -13 14 -12
8 -20 -46 -70 -34 -31 -63 -61 -65 -68 -2 -6 -14 -17 -27 -24 -31 -17 -23 -30
19 -30 18 0 35 -3 39 -6 3 -3 -3 -29 -15 -58 -17 -43 -18 -59 -10 -101 16 -86
13 -101 -23 -118 -18 -8 -59 -48 -92 -89 -33 -41 -78 -83 -102 -97 l-42 -23
-27 24 c-15 14 -37 28 -49 31 -18 4 -23 1 -23 -16 -1 -21 -2 -20 -24 7 -24 29
-56 31 -56 4 0 -7 -7 -2 -16 10 -26 37 -38 27 -29 -25 4 -27 8 -60 9 -74 2
-44 47 -79 108 -86 47 -5 57 -2 83 19 21 17 48 27 88 32 32 3 72 13 88 21 36
19 36 14 -1 -52 -33 -57 -34 -63 -21 -63 14 0 77 131 96 200 28 105 55 162 74
154 9 -3 28 -11 44 -16 30 -11 33 -26 16 -94 -9 -33 -16 -44 -31 -44 -50 0
-108 -55 -108 -103 0 -31 41 -61 60 -44 9 9 9 7 -1 -8 -7 -11 -31 -37 -54 -57
l-41 -37 -35 23 c-33 23 -38 23 -146 14 -92 -7 -119 -6 -148 6 -20 9 -35 11
-35 5 0 -6 16 -17 35 -25 27 -11 60 -13 148 -8 110 7 115 6 146 -17 30 -22 43
-24 139 -24 121 -1 152 -8 152 -35 0 -31 41 -52 89 -44 50 8 99 -10 103 -39 2
-11 17 -28 33 -37 39 -22 47 -66 14 -79 -13 -4 -31 -6 -41 -3 -22 5 -24 32 -3
32 8 0 15 5 15 10 0 12 -20 13 -39 1 -19 -12 -6 -61 17 -63 38 -3 68 4 80 19
17 24 15 82 -4 90 -13 5 -12 9 6 28 29 31 65 39 98 21 15 -8 38 -17 52 -20 29
-6 60 -52 60 -90 0 -36 -37 -58 -91 -54 -25 2 -46 9 -52 19 -13 21 -1 69 18
69 17 0 20 -16 5 -25 -17 -11 -11 -25 10 -25 40 0 36 60 -4 68 -26 5 -56 -27
-56 -59 0 -30 33 -69 59 -69 32 0 0 -11 -58 -21 -58 -9 -63 -8 -102 18 -24 16
-62 30 -95 34 -65 9 -113 42 -113 79 -1 32 -18 50 -48 50 -17 0 -23 6 -23 21
0 35 -61 52 -156 45 -78 -7 -81 -6 -118 23 -41 33 -116 48 -188 37 -24 -3 -58
-2 -77 4 -38 11 -51 6 -33 -12 7 -7 53 -12 124 -13 106 -1 158 -12 158 -34 0
-21 56 -32 134 -26 96 8 130 -2 131 -36 0 -20 6 -25 35 -29 26 -4 36 -10 38
-26 3 -18 -1 -20 -30 -17 -18 3 -40 7 -48 10 -8 4 -52 7 -98 7 -70 1 -80 -1
-65 -12 11 -8 43 -12 83 -11 84 2 155 -15 202 -48 21 -14 61 -30 89 -34 29 -5
62 -18 79 -33 37 -31 78 -40 145 -31 47 5 56 3 79 -18 14 -14 48 -30 74 -36
72 -19 77 -23 77 -72 0 -24 4 -50 8 -56 5 -8 4 -13 -2 -13 -14 0 -41 29 -41
44 0 8 -6 18 -12 24 -20 15 -58 24 -58 13 0 -5 9 -13 20 -16 11 -4 27 -22 34
-40 20 -47 75 -64 130 -41 21 9 47 16 57 16 21 0 39 -28 39 -59 0 -20 10 -25
38 -22 19 3 42 -18 42 -39 0 -22 -31 -50 -57 -50 -11 0 -28 9 -38 20 -15 17
-29 19 -101 18 -91 -3 -124 13 -124 58 0 28 -35 54 -71 54 -29 0 -59 27 -59
54 0 9 7 28 16 41 31 47 -8 85 -87 85 -48 0 -101 21 -120 47 -22 31 -53 43
-109 43 -36 0 -52 4 -57 15 -3 9 -22 24 -42 34 -39 20 -121 34 -121 21 0 -5
19 -11 43 -15 49 -8 71 -19 110 -51 22 -18 41 -24 79 -24 43 0 54 -4 78 -30
36 -38 87 -60 143 -60 24 0 52 -6 62 -14 18 -13 18 -15 2 -39 -9 -15 -17 -38
-17 -52 0 -31 41 -75 70 -75 34 0 60 -19 60 -44 0 -30 26 -52 81 -71 27 -9 48
-24 54 -38 8 -18 20 -23 65 -27 30 -3 67 -13 82 -24 16 -10 35 -16 43 -12 8 3
15 2 15 -3 0 -5 -9 -11 -20 -14 -15 -4 -20 -14 -20 -41 0 -20 -4 -36 -8 -36
-4 0 -46 13 -92 30 -106 37 -200 42 -200 10 0 -17 7 -20 47 -20 33 0 71 -12
134 -41 68 -31 98 -39 131 -37 36 3 43 7 48 28 8 35 45 39 70 7 32 -40 91 -58
183 -55 46 1 94 -3 110 -10 23 -10 26 -14 16 -30 -35 -57 43 -119 137 -109 81
8 92 3 96 -51 3 -38 8 -49 41 -76 33 -27 46 -30 101 -31 42 0 71 -6 89 -17 48
-32 113 -22 165 25 l22 21 31 -37 c37 -45 86 -58 124 -33 15 10 34 14 46 11
29 -9 108 32 122 64 7 14 27 40 45 58 29 28 37 30 64 22 59 -16 151 23 172 74
33 77 44 165 27 211 -9 22 -6 28 25 53 41 32 64 71 64 108 0 21 5 25 29 25 16
0 34 7 41 14 10 13 16 13 48 -2 20 -9 46 -24 57 -33 16 -14 39 -17 105 -17 99
0 121 10 146 68 16 37 22 41 45 36 37 -7 109 32 128 69 9 17 24 41 34 55 25
35 23 105 -4 129 -12 10 -25 23 -30 28 -20 18 -49 56 -49 65 0 14 -64 48 -92
48 -14 0 -40 -11 -56 -25 -35 -29 -46 -32 -33 -7 5 10 12 51 16 92 13 146 24
191 60 235 50 60 95 164 102 232 3 32 14 69 23 83 37 54 58 106 53 133 -6 32
-7 32 -43 7 -21 -15 -30 -33 -40 -80 -19 -90 -38 -108 -32 -32 5 67 -7 114
-44 168 l-25 37 22 23 c12 13 30 24 40 24 18 0 149 39 149 44 0 13 -32 76 -38
76 -4 0 -16 16 -26 35 -24 44 -40 44 -148 2 -110 -43 -168 -78 -168 -100 0
-22 -50 -87 -67 -87 -24 0 -100 -92 -138 -167 -22 -43 -47 -89 -57 -102 -10
-12 -20 -38 -24 -56 -4 -22 -25 -51 -68 -92 -65 -63 -89 -112 -75 -151 9 -24
47 -37 84 -28 23 6 24 5 14 -21 -28 -75 -87 -181 -121 -217 -40 -42 -42 -61
-8 -74 19 -7 18 -10 -15 -59 -19 -29 -35 -57 -35 -62 0 -32 95 -40 240 -19
144 20 208 10 253 -40 10 -11 38 -23 63 -27 50 -7 80 -40 69 -75 -13 -40 -75
-52 -75 -14 0 10 5 14 15 11 23 -9 30 15 9 30 -37 27 -107 3 -124 -42 -9 -25
7 -73 29 -84 33 -18 137 -17 158 1 15 12 15 11 4 -10 -16 -31 -57 -45 -91 -33
-16 5 -33 5 -41 0 -27 -17 -67 -10 -88 17 -11 14 -26 24 -33 21 -18 -6 -48 11
-48 28 0 8 7 30 17 49 23 49 4 92 -52 117 -35 16 -60 18 -165 14 -68 -3 -126
-7 -128 -10 -12 -11 60 -17 141 -11 160 11 208 -21 178 -118 -22 -68 -28 -76
-60 -76 -28 0 -50 18 -95 74 -17 22 -35 31 -72 37 -27 4 -61 11 -76 15 -39 9
-76 -3 -104 -33 l-25 -27 25 55 c14 30 26 62 26 72 0 10 8 17 19 17 24 0 34
25 17 40 -10 8 -11 21 -5 50 24 108 5 181 -41 152 -35 -22 -53 -16 -46 16 4
15 9 48 13 74 3 27 13 54 24 64 23 21 24 47 3 79 -11 17 -14 35 -10 60 6 28 3
37 -14 47 -11 7 -20 18 -20 25 0 7 -4 13 -10 13 -5 0 -18 17 -29 38 -28 55
-56 80 -103 92 -40 11 -40 12 -17 23 41 21 78 86 85 151 l6 60 -24 -17 c-13
-10 -37 -24 -54 -33 -30 -16 -32 -15 -59 10 -15 14 -33 26 -40 26 -6 0 -17 11
-23 25 -6 14 -18 25 -27 25 -8 0 -15 9 -15 19 0 28 -11 52 -21 45 -5 -3 -9
-21 -9 -39 0 -23 -6 -38 -18 -44 -10 -6 -30 -26 -43 -46 -23 -35 -31 -37 -71
-20 -26 10 -23 -22 6 -94 l24 -59 -27 -25 c-14 -14 -40 -32 -56 -40 -24 -12
-42 -39 -83 -125 -29 -61 -59 -116 -67 -122 -30 -25 -7 -85 24 -65 5 2 4 -19
-1 -48 -6 -33 -19 -62 -35 -79 -23 -24 -25 -31 -15 -53 7 -14 20 -25 31 -25
11 0 23 -4 26 -10 3 -5 18 -10 32 -10 19 0 24 -4 19 -16 -3 -9 -6 -17 -6 -20
0 -2 -12 1 -26 6 -14 6 -53 10 -87 10 -45 0 -70 6 -92 20 -35 23 -90 25 -125
4 -25 -15 -25 -15 10 -9 56 9 79 6 107 -12 18 -12 56 -20 110 -24 45 -3 85 -8
88 -11 3 -3 1 -18 -5 -34 l-11 -29 -19 25 c-16 21 -27 25 -77 26 -41 1 -72 9
-106 27 -48 26 -77 26 -77 2 0 -8 9 -10 26 -7 17 3 36 -3 57 -19 24 -18 44
-23 84 -22 43 1 56 -3 80 -26 29 -27 31 -47 11 -88 -14 -27 -23 -22 -48 26
-24 47 -63 65 -130 59 -40 -4 -55 -1 -72 14 -33 28 -66 33 -104 14 -50 -23
-53 -21 -39 27 7 24 16 81 20 128 l7 85 29 -4 c16 -2 40 -1 54 2 32 8 101 70
121 107 21 42 17 110 -11 171 -14 29 -25 65 -25 79 0 15 -9 56 -20 92 -15 50
-33 80 -71 121 -28 31 -56 56 -61 56 -6 0 -30 12 -53 27 -40 25 -43 31 -47 77
-3 28 -13 69 -23 91 -10 22 -19 43 -19 47 -2 13 -95 88 -110 88 -10 0 -16 9
-16 24 0 31 -27 59 -51 53 -14 -4 -19 0 -19 13 0 11 -4 21 -10 25 -5 3 -7 12
-3 20 8 22 -24 19 -36 -4 -8 -14 -7 -22 3 -30 14 -12 10 -61 -5 -61 -13 0 -11
-54 2 -67 8 -8 8 -17 -1 -33 -16 -30 -7 -106 17 -137 18 -25 18 -27 -14 -126
-37 -111 -53 -264 -35 -328 7 -27 5 -67 -8 -154 l-17 -118 -65 -63 c-71 -69
-73 -90 -4 -51 l43 24 -7 -31 c-4 -17 -16 -52 -26 -77 l-17 -47 -35 15 c-25
10 -49 13 -81 7 -57 -9 -72 -7 -123 16 -36 16 -38 19 -19 25 11 3 26 15 31 26
6 11 21 19 36 19 32 0 81 48 89 86 3 16 12 42 20 57 8 16 15 42 15 57 0 37
-44 80 -82 80 -15 0 -30 5 -33 10 -3 6 -24 10 -46 10 -31 0 -44 -6 -66 -30
-31 -36 -43 -26 -43 35 0 44 5 55 35 71 54 30 90 123 89 234 0 73 -19 134 -47
152 -8 5 -6 13 5 25 8 10 18 41 21 68 2 28 8 58 12 68 5 12 2 17 -9 17 -9 0
-16 7 -16 16 0 11 -6 15 -20 11 -11 -3 -20 -1 -20 4 0 5 -6 9 -14 9 -8 0 -20
-17 -27 -37 -10 -30 -14 -33 -17 -18 -2 11 -18 32 -35 46 -29 25 -30 27 -14
43 11 12 24 15 38 11 18 -6 21 -4 16 10 -4 9 -7 20 -7 25 0 5 -11 22 -25 39
l-26 30 21 21 c21 21 24 60 5 67 -6 2 -15 -7 -20 -19 -6 -13 -17 -23 -25 -24
-28 -1 -39 16 -35 57 3 21 1 39 -4 39 -16 0 -41 -37 -41 -62 0 -14 -6 -31 -14
-37 -14 -12 -22 -10 -76 21 -35 19 -42 20 -60 3 -11 -10 -20 -14 -20 -9 0 17
-69 89 -71 74z m15 -92 c-3 -5 -12 -4 -20 3 -19 16 -18 18 6 12 11 -3 17 -9
14 -15z m116 0 c0 -6 -7 -7 -16 -4 -9 3 -18 6 -20 6 -3 0 -3 4 1 10 7 11 35 2
35 -12z m167 -38 c7 0 13 -4 13 -9 0 -13 -23 -20 -53 -14 -15 3 -27 1 -27 -5
0 -14 50 -22 77 -11 14 5 23 5 23 -1 0 -24 -132 -33 -150 -10 -13 16 -70 50
-70 42 0 -6 -8 -8 -19 -5 -45 12 -27 -57 26 -95 l27 -19 -25 -8 c-13 -4 -43
-16 -66 -26 -37 -17 -51 -18 -105 -9 -35 5 -76 14 -93 18 -30 8 -30 9 -8 20
12 7 28 24 35 39 15 32 89 90 125 99 15 4 33 2 42 -3 10 -7 26 -7 43 -1 22 8
31 6 49 -11 13 -12 26 -21 30 -21 19 0 39 13 39 26 0 8 6 11 15 8 8 -4 15 -1
15 6 0 6 5 8 10 5 6 -3 10 2 11 12 0 15 2 14 11 -4 6 -13 17 -23 25 -23z
m-119 -9 c-14 -5 -31 15 -23 29 5 8 11 6 20 -7 9 -11 10 -19 3 -22z m-26 -45
c4 -6 8 -15 8 -21 -1 -5 -5 -2 -11 8 -5 9 -17 17 -24 17 -20 0 -19 -16 1 -24
9 -4 14 -9 10 -13 -8 -9 -46 27 -46 44 0 16 50 7 62 -11z m788 -12 c0 -14 -4
-22 -10 -19 -5 3 -10 17 -10 31 0 14 4 22 10 19 6 -3 10 -17 10 -31z m34 28
c2 -4 1 -14 -3 -21 -6 -9 -10 -7 -14 8 -5 20 7 29 17 13z m-610 -17 c4 -10 -7
-20 -35 -33 -21 -10 -37 -20 -35 -23 3 -3 -28 -5 -69 -6 -59 -1 -73 1 -68 12
6 18 26 23 92 23 39 0 60 5 80 20 14 12 27 21 27 21 1 1 4 -6 8 -14z m536 -25
c7 -13 7 -20 1 -20 -6 0 -15 9 -21 20 -7 13 -7 20 -1 20 6 0 15 -9 21 -20z
m2274 -6 c4 -10 1 -14 -6 -12 -15 5 -23 28 -10 28 5 0 13 -7 16 -16z m-2162
-16 c-19 -19 -14 -47 14 -96 31 -52 52 -45 29 11 -13 32 -13 36 0 31 8 -4 15
-1 15 6 0 6 4 9 10 5 6 -4 6 -15 -1 -32 -8 -21 -6 -32 9 -52 36 -50 35 -51 -3
-51 -30 0 -44 8 -85 50 -28 28 -50 59 -50 69 0 25 38 71 58 71 12 0 13 -3 4
-12z m2093 -13 c-16 -7 -34 -10 -39 -7 -12 7 21 21 49 20 15 0 13 -3 -10 -13z
m-2175 -5 c0 -5 -8 -10 -17 -10 -15 0 -16 2 -3 10 19 12 20 12 20 0z m104 -5
c-4 -8 -8 -15 -10 -15 -2 0 -4 7 -4 15 0 8 4 15 10 15 5 0 7 -7 4 -15z m1986
-52 c0 -7 -11 -20 -25 -29 -26 -17 -34 -44 -13 -44 6 0 9 -2 7 -5 -12 -11 -48
9 -53 31 -4 13 -13 24 -21 24 -22 0 -18 23 5 38 18 11 20 10 20 -8 0 -28 28
-37 48 -16 13 13 14 20 5 34 -6 9 -16 16 -23 14 -6 -1 -8 2 -5 9 8 13 55 -27
55 -48z m-2700 27 c0 -5 -4 -10 -9 -10 -6 0 -13 5 -16 10 -3 6 1 10 9 10 9 0
16 -4 16 -10z m613 -22 c3 -12 -1 -27 -9 -36 -10 -9 -13 -24 -10 -38 4 -13 4
-24 1 -24 -11 0 -35 62 -35 93 0 31 2 34 24 30 13 -3 27 -14 29 -25z m2140 -4
c10 -20 16 -38 14 -41 -6 -5 -57 56 -57 68 0 22 27 5 43 -27z m-2888 5 c-22
-5 -60 -12 -85 -15 -38 -4 -43 -3 -29 8 9 7 46 14 85 15 63 1 65 1 29 -8z
m110 -3 c11 -8 16 -19 12 -30 -4 -10 -1 -16 8 -16 21 0 28 19 15 35 -15 18 -6
19 20 3 19 -12 19 -13 -6 -39 -23 -24 -30 -26 -50 -17 -26 12 -30 23 -14 33
16 10 12 21 -12 33 -15 7 -18 11 -7 11 8 1 24 -5 34 -13z m2685 4 c0 -5 -5
-10 -11 -10 -5 0 -7 5 -4 10 3 6 8 10 11 10 2 0 4 -4 4 -10z m203 -15 c7 -16
3 -20 -35 -29 -21 -5 -30 -2 -38 13 -7 14 -6 21 3 24 26 11 65 6 70 -8z
m-2931 -22 c-2 -13 7 -28 22 -40 19 -15 22 -23 13 -32 -16 -16 -31 -14 -69 8
-18 10 -49 22 -68 26 -33 6 -34 5 -16 -10 11 -8 27 -15 36 -15 9 0 25 -7 36
-15 18 -14 18 -14 -8 -15 -16 0 -28 -4 -28 -9 0 -9 68 -8 141 4 45 7 47 6 57
-23 15 -45 -1 -158 -31 -218 -14 -28 -47 -70 -73 -93 -26 -23 -44 -44 -41 -47
11 -11 109 91 133 138 35 68 50 185 30 233 -11 27 -12 35 -3 33 43 -14 25
-206 -30 -314 -31 -64 -113 -159 -142 -167 -38 -9 -46 8 -46 100 0 48 -4 94
-9 101 -6 10 -1 11 18 7 14 -3 37 -7 51 -10 49 -10 24 15 -30 31 -31 8 -73 26
-95 38 -36 20 -38 23 -20 34 11 7 31 12 45 12 18 0 26 7 31 27 5 17 3 28 -4
31 -7 2 -12 12 -12 23 0 10 -6 19 -14 19 -8 0 -13 8 -12 18 1 11 -6 17 -20 17
-11 1 -40 7 -63 15 -34 11 -47 11 -62 2 -17 -11 -19 -9 -19 13 0 14 -5 25 -11
25 -7 0 -10 -12 -7 -29 4 -29 4 -29 -23 -16 -30 16 -38 37 -31 83 l4 32 82 -5
c44 -3 97 -8 116 -11 19 -3 60 2 90 10 69 19 86 17 82 -11z m866 -8 c7 -14 12
-29 12 -33 -1 -10 -40 38 -40 49 0 18 17 8 28 -16z m-675 -12 c7 2 17 -1 22
-7 14 -16 18 -83 6 -91 -6 -3 -11 2 -11 12 0 10 -9 29 -20 43 -11 14 -19 36
-19 50 1 18 3 20 6 7 3 -10 10 -16 16 -14z m-43 -14 c0 -9 -18 -18 -69 -34
-21 -6 -20 -3 10 23 31 27 59 33 59 11z m2490 1 c0 -5 -5 -10 -11 -10 -5 0 -7
5 -4 10 3 6 8 10 11 10 2 0 4 -4 4 -10z m-1901 -42 c6 -10 7 -18 2 -18 -12 0
-61 40 -61 50 0 13 47 -13 59 -32z m36 -10 l16 -33 -20 25 c-20 24 -26 40 -16
40 2 0 12 -15 20 -32z m-581 -47 c7 -45 -14 -166 -45 -258 -22 -67 -89 -152
-140 -178 -41 -22 -59 -18 -24 4 130 81 227 344 180 486 -6 19 -6 19 8 2 8 -9
17 -35 21 -56z m-535 10 c16 -7 31 -20 34 -29 3 -9 8 -25 12 -34 6 -15 3 -16
-25 -5 -41 16 -66 44 -74 87 -6 33 -6 34 8 14 9 -12 28 -27 45 -33z m1171 13
c0 -8 -4 -12 -10 -9 -5 3 -10 10 -10 16 0 5 5 9 10 9 6 0 10 -7 10 -16z m-65
-22 c-3 -3 -11 0 -18 7 -9 10 -8 11 6 5 10 -3 15 -9 12 -12z m-1032 -12 c-3
-11 -9 -17 -15 -14 -5 3 -4 12 3 20 16 19 18 18 12 -6z m111 5 c-4 -8 -8 -15
-10 -15 -2 0 -4 7 -4 15 0 8 4 15 10 15 5 0 7 -7 4 -15z m899 -26 c43 -16 57
-27 62 -48 4 -14 10 -20 12 -13 4 10 9 8 19 -5 17 -23 17 -51 0 -81 -12 -23
-13 -22 -33 29 -11 29 -25 55 -31 57 -6 2 -2 -18 8 -47 18 -46 25 -141 11
-141 -3 0 -8 26 -9 57 -4 63 -18 96 -56 132 -35 33 -33 12 4 -34 36 -45 37
-51 8 -31 -36 25 -42 19 -14 -15 14 -17 26 -39 26 -49 0 -10 5 -22 10 -25 15
-9 12 -35 -4 -35 -16 0 -51 -44 -93 -118 l-32 -56 -11 29 c-31 83 -25 230 15
358 21 65 26 67 108 36z m-876 -21 c-2 -24 -8 -34 -22 -36 -16 -3 -18 -1 -7 9
6 7 12 23 12 36 0 13 4 23 10 23 5 0 9 -15 7 -32z m1861 1 c2 -14 -3 -31 -11
-37 -12 -10 -14 -8 -12 13 4 30 -8 32 -42 5 -14 -11 -30 -20 -36 -20 -6 0 8
12 31 27 29 19 38 30 29 36 -8 5 -3 7 13 5 18 -2 26 -10 28 -29z m-1981 7 c-6
-14 16 -39 43 -49 12 -4 12 -6 -2 -6 -22 -1 -58 37 -51 55 3 8 7 14 10 14 3 0
3 -6 0 -14z m41 -8 c11 -14 10 -16 -7 -11 -12 3 -21 9 -21 12 0 8 12 23 14 19
1 -2 7 -11 14 -20z m39 6 c-3 -3 -12 -4 -19 -1 -8 3 -5 6 6 6 11 1 17 -2 13
-5z m1132 -121 c12 -60 -5 -140 -32 -154 -16 -9 -17 -8 -8 10 19 35 12 47 -12
18 -19 -24 -27 -27 -55 -21 l-33 7 20 21 c24 26 57 123 67 196 l7 55 19 -42
c10 -23 23 -64 27 -90z m-709 47 c20 -72 3 -188 -35 -235 -16 -19 -16 -19 -5
2 6 12 15 57 20 99 9 70 6 103 -16 189 -10 38 25 -15 36 -55z m2689 -13 c-17
-32 -32 -57 -34 -55 -7 7 23 108 36 124 9 11 14 12 20 3 4 -7 -5 -38 -22 -72z
m-3250 47 c14 -12 -19 -1 -35 12 -18 14 -18 14 6 3 14 -6 27 -13 29 -15z
m1300 12 c25 -13 111 -99 111 -111 0 -3 -18 13 -40 35 -22 22 -52 43 -67 46
-27 7 -43 20 -43 37 0 10 7 9 39 -7z m-1089 0 c0 -2 -8 -10 -17 -17 -16 -13
-17 -12 -4 4 13 16 21 21 21 13z m1786 -11 c-11 -8 -24 -15 -30 -15 -5 0 -1 7
10 15 10 8 24 14 29 14 6 0 1 -6 -9 -14z m103 1 c15 -18 -2 -123 -24 -145 -12
-12 -20 -13 -55 -1 -32 11 -49 11 -71 3 l-29 -11 0 54 0 54 40 0 c30 0 48 7
72 30 37 33 50 36 67 16z m96 -26 c-25 -26 -27 -32 -15 -40 8 -5 19 -10 24
-10 5 0 2 -8 -7 -18 -10 -10 -15 -21 -12 -24 9 -9 -24 -31 -38 -25 -8 3 -11
20 -9 51 4 41 9 50 41 71 48 32 50 31 16 -5z m-2148 14 c-3 -3 -12 -4 -19 -1
-8 3 -5 6 6 6 11 1 17 -2 13 -5z m-30 -20 c-3 -3 -12 -4 -19 -1 -8 3 -5 6 6 6
11 1 17 -2 13 -5z m1873 -14 c12 0 15 -9 11 -42 -3 -40 -4 -41 -14 -18 -6 14
-9 29 -8 34 1 5 -6 18 -16 30 -10 11 -11 15 -3 9 8 -7 21 -13 30 -13z m-1827
3 c-7 -2 -19 -2 -25 0 -7 3 -2 5 12 5 14 0 19 -2 13 -5z m462 -107 c-7 -91
-36 -163 -72 -179 -12 -5 -20 -13 -18 -17 5 -9 -12 -24 -37 -33 -32 -11 -28
11 5 32 62 38 98 139 107 301 0 11 3 10 11 -4 8 -12 9 -47 4 -100z m820 83
c20 -18 41 -41 47 -53 8 -15 2 -12 -26 12 -20 17 -46 32 -56 32 -11 0 -20 2
-20 4 0 2 -3 11 -6 20 -10 27 22 19 61 -15z m875 27 c0 -2 -8 -10 -17 -17 -16
-13 -17 -12 -4 4 13 16 21 21 21 13z m644 -50 c57 -6 81 -24 71 -55 -8 -28
-29 -27 -82 5 -25 14 -47 23 -51 19 -4 -3 0 -10 8 -16 11 -7 6 -9 -20 -7 -24
2 -36 8 -38 21 -5 26 17 48 42 42 11 -2 43 -7 70 -9z m-3014 -5 c0 -6 -4 -13
-10 -16 -5 -3 -10 1 -10 9 0 9 5 16 10 16 6 0 10 -4 10 -9z m187 -13 c-3 -8
-6 -5 -6 6 -1 11 2 17 5 13 3 -3 4 -12 1 -19z m63 -29 c0 -47 -2 -51 -30 -60
-16 -6 -30 -15 -30 -20 0 -5 -4 -9 -9 -9 -6 0 -7 11 -1 28 5 15 14 46 20 70 8
31 16 42 30 42 17 0 20 -7 20 -51z m27 14 c-3 -10 -5 -4 -5 12 0 17 2 24 5 18
2 -7 2 -21 0 -30z m1229 -5 c34 -37 107 -181 123 -243 16 -59 13 -117 -7 -143
-18 -23 -18 -23 -14 18 3 27 -3 53 -16 79 -15 28 -18 41 -9 44 9 3 8 9 -3 22
-8 10 -13 28 -12 41 5 32 -55 162 -86 190 -15 13 -22 24 -16 24 5 0 24 -15 40
-32z m-1536 -14 c0 -8 -4 -12 -10 -9 -5 3 -10 10 -10 16 0 5 5 9 10 9 6 0 10
-7 10 -16z m207 -6 c-3 -8 -6 -5 -6 6 -1 11 2 17 5 13 3 -3 4 -12 1 -19z m119
-65 c-4 -43 -13 -106 -20 -140 -7 -35 -10 -63 -6 -63 9 0 27 81 41 185 6 44
13 82 15 84 16 17 -17 -253 -40 -319 -13 -39 -14 -47 -1 -59 8 -8 18 -12 22
-8 3 4 2 12 -4 18 -8 8 -7 24 3 58 21 68 34 162 35 244 1 54 3 66 10 48 11
-29 -5 -204 -26 -285 -14 -54 -14 -59 1 -71 15 -11 15 -13 -9 -19 -36 -9 -51
0 -70 38 -15 32 -14 39 8 127 14 52 27 127 31 167 4 39 9 72 12 72 3 0 2 -35
-2 -77z m-286 58 c0 -6 -4 -13 -10 -16 -5 -3 -10 1 -10 9 0 9 5 16 10 16 6 0
10 -4 10 -9z m-77 -16 c-3 -9 -8 -14 -10 -11 -3 3 -2 9 2 15 9 16 15 13 8 -4z
m3347 -25 c-11 -22 -23 -40 -25 -40 -3 0 4 18 15 40 11 22 23 40 25 40 3 0 -4
-18 -15 -40z m-1135 18 c14 -6 25 -18 25 -26 0 -12 -2 -12 -16 -1 -10 8 -29
19 -43 26 -18 8 -21 12 -9 12 9 1 29 -4 43 -11z m-2170 -8 c3 -5 -1 -10 -9
-10 -9 0 -16 5 -16 10 0 6 4 10 9 10 6 0 13 -4 16 -10z m652 -12 c-3 -8 -6 -5
-6 6 -1 11 2 17 5 13 3 -3 4 -12 1 -19z m-928 -48 c6 0 11 9 11 20 0 11 6 20
13 20 7 0 18 -9 25 -20 11 -17 10 -20 -7 -20 -10 0 -24 -7 -31 -15 -17 -21 4
-45 39 -45 l26 -1 -24 -19 c-34 -29 -106 -25 -94 6 4 10 -3 14 -22 14 -15 0
-24 4 -20 10 4 6 2 17 -5 24 -6 8 -15 29 -20 47 l-10 33 31 -35 30 -34 -3 36
-4 37 27 -29 c15 -16 32 -29 38 -29z m568 13 c-3 -10 -5 -2 -5 17 0 19 2 27 5
18 2 -10 2 -26 0 -35z m1851 27 c17 -11 32 -25 32 -31 0 -8 -6 -7 -17 3 -10 9
-31 23 -48 31 -16 9 -23 16 -15 17 8 0 30 -9 48 -20z m112 16 c0 -3 -17 -25
-37 -49 -21 -24 -46 -54 -55 -66 -10 -11 -23 -21 -29 -21 -7 0 9 22 33 48 25
27 51 58 57 70 10 19 31 31 31 18z m680 0 c0 -2 -11 -23 -24 -47 -24 -43 -80
-218 -72 -226 2 -2 16 36 31 84 15 48 38 109 53 136 21 39 30 47 54 47 28 0
28 0 12 -25 -9 -14 -39 -89 -66 -168 -85 -247 -94 -271 -122 -324 -18 -37 -32
-53 -46 -53 -25 0 -25 11 1 85 11 33 27 98 35 145 8 47 26 121 40 165 25 83
77 185 94 185 6 0 10 -2 10 -4z m141 -45 c-5 -25 -27 -62 -53 -94 -59 -70 -77
-100 -94 -155 -23 -76 -19 -102 16 -115 35 -13 35 -13 13 -90 -15 -56 -15 -61
0 -72 9 -7 17 -15 17 -19 0 -13 -63 -5 -100 14 -22 11 -46 20 -54 20 -13 0
-11 10 8 58 38 93 81 209 121 329 20 62 46 123 57 135 11 13 16 17 13 9 -15
-28 -43 -131 -36 -131 4 0 13 19 20 43 23 81 31 95 52 90 13 -4 19 0 19 13 0
9 2 15 5 12 3 -3 1 -24 -4 -47z m-3150 12 c-8 -15 -10 -15 -11 -2 0 17 10 32
18 25 2 -3 -1 -13 -7 -23z m2419 12 c11 -13 10 -14 -4 -9 -11 4 -16 1 -16 -10
0 -9 -4 -16 -9 -16 -4 0 -6 11 -3 25 5 29 14 31 32 10z m1018 -22 c-19 -70
-69 -150 -136 -217 -64 -62 -129 -116 -141 -116 -3 0 8 10 24 22 83 59 181
183 230 291 15 31 28 57 30 57 2 0 -1 -17 -7 -37z m-1248 5 c19 -13 36 -30 38
-38 4 -12 2 -12 -14 1 -10 9 -35 26 -54 38 -19 11 -28 21 -19 21 9 0 31 -10
49 -22z m-2228 -10 c-7 -7 -12 -8 -12 -2 0 14 12 26 19 19 2 -3 -1 -11 -7 -17z
m96 11 c-2 -6 -8 -10 -13 -10 -5 0 -11 4 -13 10 -2 6 4 11 13 11 9 0 15 -5 13
-11z m277 1 c-3 -5 -10 -10 -16 -10 -5 0 -9 5 -9 10 0 6 7 10 16 10 8 0 12 -4
9 -10z m371 -28 c-20 -39 -65 -92 -78 -92 -6 0 6 18 26 41 20 22 42 51 48 65
6 13 13 22 15 20 3 -2 -2 -18 -11 -34z m596 -14 c-11 -18 -25 -58 -32 -88 -7
-30 -23 -76 -36 -102 -28 -55 -121 -167 -161 -193 -21 -13 -17 -6 15 26 53 53
70 86 111 208 31 91 52 131 95 179 27 31 33 10 8 -30z m40 20 c-8 -8 -9 -4 -5
13 4 13 8 18 11 10 2 -7 -1 -18 -6 -23z m271 -10 c8 -24 18 -51 22 -61 5 -13
3 -16 -7 -12 -15 6 -38 66 -38 99 0 27 7 18 23 -26z m85 17 c-3 -3 -9 2 -12
12 -6 14 -5 15 5 6 7 -7 10 -15 7 -18z m465 -11 c20 -13 37 -29 37 -35 0 -12
2 -13 -71 37 -59 40 -29 38 34 -2z m317 15 c0 -6 -4 -7 -10 -4 -5 3 -10 1 -10
-4 0 -6 -9 -11 -21 -11 -11 0 -17 -4 -14 -10 3 -5 -1 -10 -9 -10 -25 0 -19 13
17 36 32 21 47 22 47 3z m-2257 4 c-7 -2 -19 -2 -25 0 -7 3 -2 5 12 5 14 0 19
-2 13 -5z m1926 -53 c31 -23 40 -34 31 -40 -19 -12 -145 74 -134 92 6 10 45
-10 103 -52z m-1974 40 c-3 -5 -11 -10 -16 -10 -6 0 -7 5 -4 10 3 6 11 10 16
10 6 0 7 -4 4 -10z m120 0 c3 -5 1 -10 -4 -10 -6 0 -11 5 -11 10 0 6 2 10 4
10 3 0 8 -4 11 -10z m2055 -10 c10 -18 9 -19 -15 -8 -27 12 -33 28 -10 28 8 0
19 -9 25 -20z m-2364 -27 c-11 -11 -19 6 -11 24 8 17 8 17 12 0 3 -10 2 -21
-1 -24z m1539 26 c10 -15 -1 -23 -20 -15 -9 3 -13 10 -10 16 8 13 22 13 30 -1z
m-1583 -14 c0 -5 -5 -11 -11 -13 -6 -2 -11 4 -11 13 0 9 5 15 11 13 6 -2 11
-8 11 -13z m103 5 c-27 -12 -35 -12 -35 0 0 6 12 10 28 9 24 0 25 -1 7 -9z
m222 -15 c-15 -16 -22 -11 -13 10 3 9 10 13 16 10 6 -4 5 -11 -3 -20z m73 -90
c-13 -52 -27 -95 -32 -95 -6 0 -7 10 -3 23 3 12 16 59 28 104 29 111 34 87 7
-32z m1003 85 c-8 -17 -19 -60 -24 -96 -5 -37 -12 -78 -15 -93 -5 -19 -4 -23
5 -15 6 6 18 51 27 100 8 49 22 96 31 104 13 13 15 13 10 -5 -4 -11 -9 -54
-12 -95 -3 -41 -8 -95 -11 -120 -5 -32 -3 -42 5 -35 6 6 15 60 20 120 11 125
16 144 38 141 27 -4 37 -39 34 -126 -2 -73 -6 -90 -29 -125 -14 -22 -25 -45
-24 -52 4 -19 -98 -114 -146 -135 -24 -11 -46 -18 -48 -16 -10 11 -7 108 5
153 23 83 22 82 33 55 5 -14 7 -54 4 -90 -7 -80 10 -60 20 22 5 40 2 62 -9 85
-13 25 -14 33 -3 49 7 10 21 51 31 89 13 48 26 77 44 92 14 12 27 22 28 23 1
0 -5 -14 -14 -30z m1151 15 c-4 -8 -10 -12 -15 -9 -5 3 -9 -2 -9 -11 0 -9 -5
-13 -11 -9 -6 3 -15 0 -20 -7 -7 -11 -9 -11 -9 2 0 12 40 40 67 48 1 1 0 -6
-3 -14z m-904 -28 c0 -4 -9 -2 -20 5 -13 9 -16 14 -7 20 11 6 27 -8 27 -25z
m773 9 c3 3 10 -11 16 -32 6 -21 8 -40 6 -43 -3 -2 -5 1 -5 7 0 7 -18 30 -41
53 -36 36 -37 39 -11 25 16 -8 32 -13 35 -10z m-2207 -2 c-3 -9 -6 -21 -6 -27
0 -7 -5 -4 -11 6 -11 18 -5 37 13 37 5 0 7 -7 4 -16z m144 9 c0 -5 -10 -19
-21 -33 l-21 -25 18 33 c18 32 24 38 24 25z m27 -15 c-3 -8 -6 -5 -6 6 -1 11
2 17 5 13 3 -3 4 -12 1 -19z m1763 -16 c0 -1 -9 2 -20 8 -11 6 -20 15 -20 20
0 6 9 2 20 -7 11 -10 20 -19 20 -21z m221 7 c16 -11 34 -30 40 -42 12 -22 12
-22 -9 -4 -28 26 -80 15 -93 -20 -14 -37 -11 -96 6 -120 20 -29 3 -39 -30 -17
-28 19 -32 36 -10 54 9 7 15 29 15 52 0 34 34 118 48 118 2 0 17 -9 33 -21z
m103 -29 c-7 -6 -24 22 -23 40 0 9 6 5 14 -10 7 -14 11 -27 9 -30z m957 33
c-5 -10 -17 -27 -26 -38 -16 -19 -17 -19 -3 5 26 46 29 50 34 50 3 0 0 -8 -5
-17z m-1816 -3 c3 -5 2 -10 -3 -10 -6 0 -9 -7 -8 -16 2 -28 -21 -27 -26 0 -3
14 -3 28 0 31 9 8 30 6 37 -5z m475 -10 c0 -5 -5 -12 -12 -16 -7 -5 -8 -3 -3
6 6 10 4 12 -8 7 -11 -4 -14 -2 -11 8 6 14 34 10 34 -5z m490 5 c0 -8 -7 -15
-15 -15 -26 0 -18 20 13 29 1 1 2 -6 2 -14z m627 -27 c-3 -7 -5 -2 -5 12 0 14
2 19 5 13 2 -7 2 -19 0 -25z m163 28 c0 -7 -141 -128 -146 -124 -2 3 28 32 68
66 72 61 78 65 78 58z m-1230 -35 c0 -13 -2 -13 -9 -2 -5 7 -14 10 -20 7 -6
-4 -11 -1 -11 7 0 10 7 13 20 10 11 -3 20 -13 20 -22z m400 14 c0 -9 -9 -15
-22 -15 -22 1 -23 1 -4 15 25 19 26 19 26 0z m-2165 -5 c-3 -5 -11 -10 -16
-10 -6 0 -7 5 -4 10 3 6 11 10 16 10 6 0 7 -4 4 -10z m1795 -5 c0 -8 -4 -15
-10 -15 -5 0 -7 7 -4 15 4 8 8 15 10 15 2 0 4 -7 4 -15z m-1919 -28 c-10 -9
-11 -8 -5 6 3 10 9 15 12 12 3 -3 0 -11 -7 -18z m59 13 c-20 -13 -43 -13 -35
0 3 6 16 10 28 10 18 0 19 -2 7 -10z m2608 -31 c26 8 29 7 25 -9 -8 -30 -81
-41 -102 -16 -7 8 -9 25 -5 40 l6 26 23 -24 c20 -21 28 -24 53 -17z m-1233 21
c11 -5 16 -9 11 -9 -5 -1 -2 -8 5 -17 16 -20 19 -128 3 -144 -8 -8 -9 1 -2 37
8 39 7 57 -6 88 -20 47 -32 40 -16 -10 12 -35 5 -115 -9 -115 -15 0 -31 25
-31 51 0 23 -17 87 -26 98 -2 2 -10 -2 -19 -9 -13 -10 -15 -9 -15 8 0 15 5 20
14 16 8 -3 23 -1 33 5 21 12 31 13 58 1z m395 1 c0 -6 -4 -13 -10 -16 -5 -3
-10 1 -10 9 0 9 5 16 10 16 6 0 10 -4 10 -9z m318 -11 c5 -13 3 -13 -11 -1 -9
7 -26 11 -37 8 -11 -3 -20 -1 -20 5 0 15 63 4 68 -12z m-2040 -22 c-5 -18 -12
-40 -14 -48 -4 -12 -25 -16 -90 -17 -46 -1 -84 1 -84 5 1 10 31 45 55 62 16
13 16 10 -4 -18 -13 -18 -21 -36 -18 -39 3 -3 12 4 19 16 8 13 23 21 40 21 18
0 33 8 44 25 10 15 26 25 39 25 22 0 23 -2 13 -32z m1802 21 c40 -8 49 -14 40
-23 -10 -8 -14 -8 -17 2 -4 10 -8 10 -19 1 -8 -7 -14 -7 -14 -2 0 6 -13 9 -30
7 -28 -3 -38 5 -23 19 8 9 3 9 63 -4z m101 -7 c-24 -44 -95 -82 -156 -82 -37
0 -112 26 -102 36 3 3 14 1 25 -5 29 -15 116 -14 156 3 18 8 42 26 52 40 22
29 40 35 25 8z m296 12 c-3 -3 -12 -4 -19 -1 -8 3 -5 6 6 6 11 1 17 -2 13 -5z
m632 -33 c-9 -26 -9 -35 1 -41 9 -5 9 -9 1 -14 -23 -15 -29 5 -14 50 8 25 17
43 19 41 2 -2 -1 -18 -7 -36z m-2635 14 c-4 -8 -11 -15 -16 -15 -6 0 -5 6 2
15 7 8 14 15 16 15 2 0 1 -7 -2 -15z m119 -50 c5 -47 3 -53 -34 -95 -23 -26
-39 -39 -39 -29 0 8 14 28 31 45 29 27 31 32 26 88 -6 70 8 62 16 -9z m102
-62 c13 -22 15 -35 7 -48 -9 -16 -12 -14 -30 21 -28 55 -37 120 -20 141 11 14
14 10 19 -34 4 -28 14 -64 24 -80z m475 125 c0 -2 -7 -23 -14 -48 -14 -42 -15
-43 -15 -13 -1 37 7 63 20 63 5 0 9 -1 9 -2z m1125 -44 c0 -28 -4 -39 -15 -39
-17 0 -24 27 -16 62 10 37 31 22 31 -23z m66 -4 c5 0 9 4 9 10 0 5 6 7 14 4 8
-3 16 2 19 13 4 17 4 17 11 -2 25 -69 76 -109 129 -102 34 4 36 -10 3 -19 -26
-6 -106 31 -106 49 0 5 -6 4 -14 -2 -11 -9 -12 -6 -8 14 3 17 -1 27 -12 31
-21 8 -51 -15 -36 -30 7 -7 3 -17 -13 -34 -15 -17 -18 -26 -9 -29 6 -3 12 -11
12 -18 0 -10 -17 -13 -67 -13 -50 0 -62 3 -49 10 10 6 36 8 57 5 41 -5 53 7
18 18 -12 4 -17 10 -12 14 19 12 33 50 34 93 2 30 3 34 6 16 2 -16 9 -28 14
-28z m209 40 c0 -5 -5 -10 -11 -10 -5 0 -7 5 -4 10 3 6 8 10 11 10 2 0 4 -4 4
-10z m-2363 -6 c-3 -3 -12 -4 -19 -1 -8 3 -5 6 6 6 11 1 17 -2 13 -5z m313 -4
c0 -5 -4 -10 -10 -10 -5 0 -10 5 -10 10 0 6 5 10 10 10 6 0 10 -4 10 -10z
m1450 0 c8 -5 12 -12 9 -15 -8 -8 -39 5 -39 16 0 11 11 11 30 -1z m-1348 -157
c-19 -6 -44 -21 -57 -33 -13 -12 -29 -20 -35 -18 -7 2 11 25 39 51 l51 48 -5
57 -5 57 22 -75 23 -75 -33 -12z m1705 125 c-3 -7 -5 -2 -5 12 0 14 2 19 5 13
2 -7 2 -19 0 -25z m153 18 c0 -17 -14 -29 -23 -20 -8 8 3 34 14 34 5 0 9 -6 9
-14z m-298 -28 c-7 -7 -12 -8 -12 -2 0 14 12 26 19 19 2 -3 -1 -11 -7 -17z
m-1342 -3 c8 -9 21 -13 32 -9 10 3 30 -2 43 -10 48 -32 19 -116 -39 -116 -24
0 -41 24 -30 41 3 6 15 7 26 3 15 -4 19 -2 16 7 -7 20 -30 22 -53 5 -16 -12
-18 -19 -9 -43 9 -24 15 -28 47 -27 47 2 49 -21 8 -65 -32 -34 -71 -42 -71
-13 0 29 -38 81 -65 88 -41 10 -26 55 26 73 17 6 28 15 24 21 -4 6 -17 4 -37
-6 -44 -23 -55 -4 -21 34 31 36 81 44 103 17z m674 -122 c-3 -76 -12 -169 -20
-208 -16 -81 -65 -235 -75 -235 -21 0 -13 84 17 185 33 110 74 313 74 367 0
15 2 28 5 28 3 0 3 -62 -1 -137z m750 85 c6 -4 19 -5 30 -2 12 4 16 2 12 -5
-4 -6 -18 -11 -31 -11 -23 0 -36 18 -34 48 1 13 3 12 6 -3 3 -11 10 -23 17
-27z m236 32 c0 -5 -10 -10 -22 -9 -22 0 -22 1 -3 9 11 5 21 9 23 9 1 1 2 -3
2 -9z m-359 -33 c-8 -8 -11 -7 -11 4 0 20 13 34 18 19 3 -7 -1 -17 -7 -23z
m418 19 c-2 -2 -15 -7 -29 -10 l-25 -7 25 15 c21 12 42 14 29 2z m650 -22
c-18 -20 -43 -40 -54 -46 -11 -6 3 10 30 35 60 55 72 60 24 11z m-1304 6 c-20
-22 -8 -28 15 -7 8 6 6 2 -4 -10 -11 -13 -23 -23 -28 -23 -15 0 -8 32 10 46
25 19 28 17 7 -6z m-1395 -4 c0 -3 -4 -8 -10 -11 -5 -3 -10 -1 -10 4 0 6 5 11
10 11 6 0 10 -2 10 -4z m1449 -18 c-7 -13 -10 -24 -8 -25 2 -1 1 -5 -3 -9 -9
-9 -10 18 -2 40 3 9 10 16 15 16 6 0 4 -10 -2 -22z m1314 -91 c-17 -130 -25
-154 -58 -169 -34 -15 -39 -7 -20 38 23 54 54 194 44 194 -5 0 -11 -12 -15
-27 -24 -109 -50 -189 -66 -205 -17 -17 -20 -17 -56 -2 -20 9 -49 19 -63 21
l-26 5 18 60 c11 33 17 63 15 67 -3 4 8 6 23 3 35 -5 91 23 161 82 30 24 55
44 56 43 1 -1 -5 -51 -13 -110z m-1787 66 c-11 -11 -17 4 -9 23 7 18 8 18 11
1 2 -10 1 -21 -2 -24z m527 20 c-4 -11 -3 -14 5 -9 17 10 15 1 -3 -14 -13 -11
-15 -8 -15 14 0 14 4 26 10 26 5 0 6 -7 3 -17z m68 3 c5 3 9 0 9 -5 0 -6 -7
-11 -15 -11 -8 0 -15 8 -14 18 0 10 3 12 6 4 2 -6 9 -10 14 -6z m86 -8 c-3 -8
-6 -5 -6 6 -1 11 2 17 5 13 3 -3 4 -12 1 -19z m-27 -7 c0 -5 -7 -14 -15 -21
-13 -10 -15 -9 -15 9 0 12 6 21 15 21 8 0 15 -4 15 -9z m306 -15 c-4 -15 -1
-26 6 -28 9 -3 9 -6 0 -12 -7 -4 -16 3 -24 19 -10 22 -9 28 3 36 21 13 22 12
15 -15z m-1936 10 c0 -3 -4 -8 -10 -11 -5 -3 -10 -1 -10 4 0 6 5 11 10 11 6 0
10 -2 10 -4z m1059 -28 c23 -26 23 -27 2 -21 -23 6 -45 36 -34 47 3 3 7 5 7 4
1 -2 12 -15 25 -30z m480 -7 c-15 -5 -22 6 -14 19 6 9 10 9 16 -1 5 -8 4 -15
-2 -18z m101 -41 c-31 -61 -70 -81 -155 -78 -56 2 -70 6 -73 20 -3 14 2 15 38
7 75 -17 163 26 191 93 9 22 15 28 17 16 2 -9 -6 -35 -18 -58z m60 44 c0 -8
-4 -12 -10 -9 -5 3 -10 13 -10 21 0 8 5 12 10 9 6 -3 10 -13 10 -21z m187 20
c-3 -3 -12 -4 -19 -1 -8 3 -5 6 6 6 11 1 17 -2 13 -5z m417 -81 c-18 -73 -39
-123 -53 -123 -4 0 -15 8 -25 18 -15 18 -15 20 2 35 10 9 33 45 52 81 19 35
36 63 38 61 2 -2 -4 -34 -14 -72z m-1659 -23 c-14 -46 -25 -92 -25 -102 0 -26
-35 -92 -81 -155 -22 -29 -39 -55 -39 -59 0 -21 -46 -54 -76 -54 -39 0 -53 16
-23 25 11 4 41 35 66 68 25 34 48 64 52 67 9 6 48 109 66 173 11 38 72 129 82
122 2 -1 -8 -39 -22 -85z m815 80 c0 -5 -5 -10 -11 -10 -5 0 -7 5 -4 10 3 6 8
10 11 10 2 0 4 -4 4 -10z m590 0 c0 -5 -2 -10 -4 -10 -3 0 -8 5 -11 10 -3 6
-1 10 4 10 6 0 11 -4 11 -10z m-46 -6 c11 -4 16 -19 16 -45 0 -34 -3 -39 -22
-39 -17 0 -19 3 -10 12 16 16 15 65 0 71 -7 3 -10 6 -6 6 3 1 13 -2 22 -5z
m-1037 -26 c-3 -8 -6 -5 -6 6 -1 11 2 17 5 13 3 -3 4 -12 1 -19z m820 16 c-3
-3 -12 -4 -19 -1 -8 3 -5 6 6 6 11 1 17 -2 13 -5z m106 -1 c-7 -2 -19 -2 -25
0 -7 3 -2 5 12 5 14 0 19 -2 13 -5z m-443 -19 c0 -2 -9 -4 -20 -4 -11 0 -20 4
-20 9 0 5 9 7 20 4 11 -3 20 -7 20 -9z m40 6 c0 -5 -7 -10 -16 -10 -8 0 -12 5
-9 10 3 6 10 10 16 10 5 0 9 -4 9 -10z m35 0 c3 -5 1 -10 -4 -10 -6 0 -11 5
-11 10 0 6 2 10 4 10 3 0 8 -4 11 -10z m458 -15 c-7 -21 -13 -19 -13 6 0 11 4
18 10 14 5 -3 7 -12 3 -20z m-1063 -96 c-12 -46 -40 -127 -62 -179 -33 -76
-39 -102 -35 -138 3 -31 2 -41 -6 -33 -6 6 -28 11 -48 11 -34 0 -37 2 -31 23
3 12 22 47 42 77 69 102 140 260 140 311 0 14 3 29 8 33 15 16 12 -25 -8 -105z
m1040 74 c0 -7 -9 -13 -19 -13 -25 0 -32 22 -12 37 17 12 31 1 31 -24z m-280
17 c0 -5 -2 -10 -4 -10 -3 0 -8 5 -11 10 -3 6 -1 10 4 10 6 0 11 -4 11 -10z
m110 0 c13 -9 13 -11 0 -20 -24 -16 -90 -13 -90 4 0 13 12 17 65 24 6 1 17 -3
25 -8z m42 -12 c-7 -7 -12 -8 -12 -2 0 14 12 26 19 19 2 -3 -1 -11 -7 -17z
m-314 -9 c-17 -7 -38 -7 -60 0 -30 8 -28 9 27 9 50 0 56 -1 33 -9z m154 -11
c-12 -12 -35 -1 -27 12 3 5 13 6 21 3 10 -4 12 -9 6 -15z m-791 -73 c-25 -67
-75 -160 -125 -234 -20 -29 -36 -62 -36 -72 0 -25 -17 -24 -25 1 -3 11 -18 23
-33 26 -15 3 -31 7 -37 8 -5 2 -29 -3 -53 -10 -65 -20 -76 -11 -50 39 11 23
38 66 59 96 22 30 39 59 39 65 0 6 20 11 48 12 58 1 133 39 188 95 21 21 40
37 42 35 2 -3 -6 -30 -17 -61z m495 40 c-17 -26 -9 -34 12 -13 13 13 15 8 6
-16 -3 -9 -13 -16 -20 -16 -23 0 -28 29 -9 50 25 28 31 25 11 -5z m437 18 c-7
-2 -19 -2 -25 0 -7 3 -2 5 12 5 14 0 19 -2 13 -5z m-56 -9 c-3 -3 -12 -4 -19
-1 -8 3 -5 6 6 6 11 1 17 -2 13 -5z m133 -6 c0 -4 -12 -8 -26 -8 -14 0 -23 4
-20 8 2 4 14 8 25 8 12 0 21 -4 21 -8z m70 8 c0 -2 -11 -6 -25 -8 -14 -3 -25
-1 -25 3 0 5 11 9 25 9 14 0 25 -2 25 -4z m-1013 -28 c-3 -8 -6 -5 -6 6 -1 11
2 17 5 13 3 -3 4 -12 1 -19z m740 -19 c10 -1 21 -1 26 0 4 0 7 -4 7 -10 0 -6
-9 -8 -20 -5 -11 3 -29 8 -39 11 -14 4 -17 12 -13 27 l5 22 8 -22 c5 -12 16
-23 26 -23z m31 23 c3 -9 -2 -13 -14 -10 -9 1 -19 9 -22 16 -3 9 2 13 14 10 9
-1 19 -9 22 -16z m102 9 c0 -12 -39 -21 -45 -11 -3 5 5 11 17 13 13 2 24 5 26
6 1 0 2 -3 2 -8z m-210 -17 c0 -8 -4 -12 -10 -9 -5 3 -10 10 -10 16 0 5 5 9
10 9 6 0 10 -7 10 -16z m410 -4 c0 -5 -8 -6 -19 -3 -15 4 -18 0 -15 -24 2 -15
1 -20 -2 -10 -3 9 -12 17 -20 17 -16 0 -16 2 -9 22 6 15 65 13 65 -2z m-456
-5 c-4 -8 -12 -15 -20 -15 -20 0 -17 18 4 23 9 3 18 5 19 6 1 0 0 -6 -3 -14z
m-104 -20 c-15 -18 -54 -20 -47 -2 2 6 11 11 20 9 8 -1 19 2 22 8 4 6 9 9 12
6 3 -3 0 -12 -7 -21z m289 -14 c-6 -18 -13 -30 -15 -28 -2 2 1 18 7 36 6 18
13 30 15 28 2 -2 -1 -18 -7 -36z m-812 7 c-3 -8 -6 -5 -6 6 -1 11 2 17 5 13 3
-3 4 -12 1 -19z m866 15 c-18 -7 -16 -30 2 -37 8 -3 15 -12 15 -21 0 -10 10
-15 28 -16 15 0 21 -3 14 -6 -8 -3 -34 0 -58 7 -39 11 -44 16 -38 34 9 28 24
46 38 45 7 0 6 -2 -1 -6z m123 -30 c-11 -11 -19 6 -11 24 8 17 8 17 12 0 3
-10 2 -21 -1 -24z m189 28 c3 -5 1 -12 -5 -16 -5 -3 -10 1 -10 9 0 18 6 21 15
7z m-447 -17 c49 -16 57 -39 11 -29 -73 15 -109 26 -109 35 0 12 55 9 98 -6z
m222 -1 c0 -16 -2 -16 -11 -3 -8 11 -12 12 -16 3 -7 -18 -23 -16 -23 2 0 9 9
15 25 15 17 0 25 -5 25 -17z m145 -3 c3 -5 2 -10 -4 -10 -5 0 -13 5 -16 10 -3
6 -2 10 4 10 5 0 13 -4 16 -10z m856 -7 l34 -17 -35 -6 c-19 -4 -50 -15 -69
-24 -95 -50 -119 -34 -41 28 52 40 64 42 111 19z m-1990 -109 c-24 -76 -29
-106 -22 -129 7 -26 5 -33 -15 -48 l-24 -18 0 44 c0 23 4 47 9 53 4 5 23 53
42 106 18 53 35 95 37 93 2 -1 -11 -47 -27 -101z m1191 82 c13 -10 16 -22 11
-49 -5 -34 -8 -36 -32 -30 -14 4 -36 7 -48 8 -23 0 -41 45 -18 45 7 0 23 9 36
20 28 23 29 23 51 6z m-581 -6 c6 0 5 -8 -1 -20 -6 -11 -18 -20 -27 -20 -13 0
-13 3 -3 15 7 9 10 18 6 22 -3 4 -13 -2 -22 -13 -14 -18 -15 -18 -4 4 7 15 17
21 27 18 8 -3 19 -6 24 -6z m459 -12 c0 -19 -2 -20 -10 -8 -13 19 -13 30 0 30
6 0 10 -10 10 -22z m410 15 c0 -20 -76 -113 -92 -113 -21 0 -19 5 20 58 13 17
31 32 38 32 8 0 14 7 14 15 0 8 5 15 10 15 6 0 10 -3 10 -7z m-440 -19 c0 -8
-5 -12 -10 -9 -6 4 -8 11 -5 16 9 14 15 11 15 -7z m320 11 c0 -13 -66 -94 -77
-95 -7 0 4 22 25 50 33 44 52 61 52 45z m451 -33 c-6 -19 -6 -34 0 -37 5 -4 9
-1 9 5 0 7 7 9 17 6 9 -4 43 7 80 25 75 37 127 35 143 -7 5 -13 18 -27 27 -31
10 -4 21 -11 25 -17 14 -20 8 -84 -8 -101 -20 -20 -63 -16 -77 7 -9 13 -6 21
14 37 l24 20 -23 1 c-23 0 -62 -50 -62 -79 0 -23 31 -51 57 -51 15 0 22 -4 17
-11 -11 -18 -64 -36 -91 -31 -23 4 -24 8 -18 41 6 30 12 92 14 148 1 7 17 15
38 19 33 6 35 8 18 20 -15 11 -22 11 -46 -2 -16 -8 -29 -18 -29 -23 0 -11 -98
-5 -133 8 -32 12 -31 9 -11 56 18 44 28 42 15 -3z m-2428 14 c18 -7 46 -25 62
-40 17 -14 37 -29 47 -31 22 -8 31 -51 16 -78 -12 -21 -13 -20 -18 18 -5 42
-32 65 -77 65 -12 0 -25 5 -28 10 -3 6 -14 10 -24 10 -10 0 -26 9 -36 20 -10
11 -24 20 -32 20 -8 0 -11 5 -8 10 9 14 60 12 98 -4z m1286 5 c7 -5 10 -14 7
-20 -9 -15 7 -14 22 1 13 13 16 0 4 -19 -4 -7 -17 -10 -30 -6 -17 4 -21 11
-17 27 6 20 6 21 -9 2 -18 -22 -30 -17 -20 8 7 18 22 20 43 7z m141 -1 c0 -5
-2 -10 -4 -10 -3 0 -8 5 -11 10 -3 6 -1 10 4 10 6 0 11 -4 11 -10z m900 0 c0
-21 -24 -60 -37 -60 -8 0 -13 3 -11 8 24 48 32 62 40 62 4 0 8 -4 8 -10z m45
-46 c-21 -51 -29 -38 -8 16 9 23 19 38 21 32 1 -5 -4 -27 -13 -48z m-745 36
c0 -5 -8 -10 -17 -10 -15 0 -16 2 -3 10 19 12 20 12 20 0z m509 -34 c-11 -20
-25 -36 -31 -36 -10 0 -6 9 25 53 27 40 32 27 6 -17z m-1950 23 l31 -11 -21
-37 c-34 -55 -38 -57 -49 -24 -6 17 -22 35 -35 41 -60 28 6 55 74 31z m1210
-5 c7 -6 -8 -34 -18 -34 -6 0 -8 7 -5 15 4 8 2 15 -4 15 -6 0 -12 -6 -15 -12
-2 -7 -7 -10 -11 -7 -3 3 -4 14 0 23 4 12 13 15 28 10 11 -4 23 -8 25 -10z
m141 -30 c0 -12 9 -33 20 -47 18 -22 24 -24 53 -16 17 5 44 18 60 29 30 23 37
12 8 -14 -29 -26 -82 -38 -113 -25 -27 11 -48 56 -48 104 0 17 2 17 10 5 5 -8
10 -25 10 -36z m691 24 c-5 -13 -16 -24 -25 -26 -14 -3 -15 0 -5 22 15 33 42
36 30 4z m-631 -27 c0 -9 -5 -23 -11 -31 -8 -12 -10 -10 -5 9 3 13 0 34 -6 45
-10 19 -10 20 5 7 10 -7 17 -21 17 -30z m-363 8 c24 -9 22 -39 -3 -39 -8 0
-11 6 -8 15 4 8 1 15 -5 15 -6 0 -11 -4 -11 -10 0 -5 -7 -10 -15 -10 -9 0 -12
6 -9 15 4 8 2 15 -4 15 -6 0 -13 -6 -15 -12 -3 -7 -6 -3 -6 10 -1 19 2 22 27
16 15 -4 37 -11 49 -15z m431 8 c-7 -8 -21 -12 -32 -9 -20 5 -20 5 0 13 33 13
47 11 32 -4z m-234 -29 c5 -21 3 -28 -9 -28 -16 0 -19 17 -9 45 8 19 9 18 18
-17z m43 -9 c-32 -75 -105 -107 -198 -88 -75 15 -142 40 -132 50 5 5 33 0 62
-12 30 -11 81 -22 115 -25 75 -7 115 15 142 75 10 22 19 39 21 37 2 -2 -2 -19
-10 -37z m-654 19 c12 -6 28 -18 36 -25 10 -11 27 -13 63 -8 57 8 104 -7 114
-37 3 -11 18 -34 33 -51 52 -60 48 -122 -9 -152 -17 -9 -36 -31 -44 -50 -8
-19 -22 -36 -30 -36 -24 -2 -28 -3 -74 -18 -56 -19 -73 -5 -43 36 27 36 37 92
23 131 -9 25 -7 34 9 51 25 27 37 26 66 -1 25 -23 30 -57 11 -76 -17 -17 -48
-15 -48 3 0 8 5 15 12 15 9 0 9 3 0 12 -17 17 -35 -3 -30 -33 5 -35 60 -39 82
-7 24 34 20 71 -12 101 -33 32 -51 34 -84 7 -25 -19 -25 -19 -47 3 -12 12 -32
35 -45 52 -19 23 -31 29 -60 28 -20 -1 -43 -7 -51 -13 -8 -7 -15 -9 -14 -4 2
29 21 49 60 65 54 22 55 22 82 7z m535 -13 c6 -5 -11 -35 -19 -35 -4 0 -6 7
-3 15 4 8 1 15 -5 15 -6 0 -11 -7 -11 -15 0 -8 -6 -15 -14 -15 -9 0 -13 8 -9
23 4 20 3 21 -10 5 -19 -24 -26 -23 -20 2 5 17 11 19 47 14 22 -4 42 -8 44 -9z
m447 -6 c4 -6 0 -9 -11 -7 -20 3 -33 -30 -16 -41 7 -4 7 -12 2 -20 -6 -11 -14
-8 -34 14 -40 42 -35 65 13 65 22 0 43 -5 46 -11z m-419 -14 c-3 -9 0 -15 10
-15 8 0 13 -4 10 -9 -11 -17 -44 0 -39 20 3 10 10 19 15 19 6 0 8 -7 4 -15z
m254 5 c-19 -13 -30 -13 -30 0 0 6 10 10 23 10 18 0 19 -2 7 -10z m804 -9 c3
-5 23 -7 44 -4 50 7 77 -21 68 -69 -4 -18 -9 -46 -13 -63 -3 -16 -16 -45 -30
-62 -20 -27 -31 -33 -63 -33 -21 0 -42 5 -45 10 -5 8 -11 8 -19 1 -16 -13 -41
5 -50 35 -8 28 12 51 54 59 29 6 33 5 23 -6 -33 -33 3 -75 52 -63 36 9 58 46
50 83 -8 39 -34 61 -81 68 -38 6 -74 27 -74 45 0 11 77 10 84 -1z m-1194 -15
c25 -8 36 -15 25 -15 -11 0 -33 6 -50 14 -39 18 -31 18 25 1z m235 -63 c-23
-90 -67 -183 -101 -213 l-28 -25 23 32 c32 47 86 170 102 230 7 29 15 51 17
48 3 -3 -3 -35 -13 -72z m-695 27 c11 -11 20 -26 20 -34 0 -7 11 -21 25 -30
57 -37 55 -153 -4 -195 -20 -14 -30 -32 -35 -59 -3 -21 -15 -47 -26 -57 -29
-26 -90 -46 -110 -35 -9 5 -35 6 -58 3 -46 -6 -72 7 -72 37 0 24 -24 32 -79
24 -38 -5 -51 -2 -71 14 l-25 20 27 12 c22 10 30 10 49 -4 47 -33 129 -10 129
36 0 25 -27 58 -47 58 -28 0 -2 19 35 26 20 4 49 13 64 20 40 20 66 17 83 -10
21 -32 5 -66 -31 -66 -21 0 -24 3 -18 25 7 29 3 30 -36 10 -33 -17 -49 -60
-31 -84 6 -9 15 -26 21 -38 5 -12 19 -27 31 -33 43 -24 129 13 145 62 4 12 17
31 30 41 19 14 24 28 24 62 0 58 -36 103 -91 111 -22 4 -42 11 -45 15 -3 5
-14 9 -25 9 -45 0 38 79 84 80 9 0 26 -9 37 -20z m553 13 c-7 -2 -19 -2 -25 0
-7 3 -2 5 12 5 14 0 19 -2 13 -5z m345 -30 c-4 -37 -23 -40 -23 -3 0 18 5 30
13 30 9 0 12 -10 10 -27z m-554 -5 l-7 -23 23 20 23 20 -12 -22 c-6 -13 -21
-23 -31 -23 -21 0 -24 8 -14 34 10 25 26 19 18 -6z m297 -31 c-17 -17 -23 -19
-33 -9 -10 10 -10 15 2 22 9 6 17 5 21 -2 4 -6 10 -1 14 13 5 15 10 19 13 10
2 -7 -5 -23 -17 -34z m179 26 c0 -16 2 -16 11 -3 8 13 10 12 7 -3 -4 -26 -18
-26 -35 1 -14 20 -14 22 1 22 9 0 16 -8 16 -17z m120 7 c0 -5 -4 -10 -10 -10
-5 0 -10 5 -10 10 0 6 5 10 10 10 6 0 10 -4 10 -10z m50 -56 c-12 -25 -25 -43
-28 -40 -2 3 0 11 5 18 6 7 16 31 23 53 7 22 15 34 17 27 3 -6 -5 -33 -17 -58z
m-576 28 c-5 -14 -3 -14 10 2 9 11 19 17 22 13 10 -10 -16 -37 -36 -37 -24 0
-31 10 -19 32 12 22 30 15 23 -10z m550 -20 c-18 -43 -34 -63 -34 -41 0 7 -3
24 -6 37 -5 16 -2 22 9 22 8 0 18 7 21 16 3 8 10 12 16 9 6 -4 4 -20 -6 -43z
m-478 8 c0 -11 -6 -20 -13 -20 -15 0 -15 2 -7 24 9 22 20 20 20 -4z m77 -4 c6
-16 -2 -28 -14 -20 -12 7 -11 34 0 34 5 0 11 -6 14 -14z m173 -58 c-6 -71 -27
-115 -48 -102 -6 4 -6 9 -1 13 15 10 43 94 43 129 0 18 3 32 6 32 4 0 4 -32 0
-72z m1163 56 c2 -2 -7 -4 -22 -4 -14 0 -29 5 -32 10 -6 10 42 4 54 -6z
m-2291 -18 c10 -22 19 -25 69 -28 70 -4 83 -26 36 -64 l-28 -24 33 -27 c37
-32 40 -48 13 -63 -28 -14 -55 -12 -89 7 -28 16 -30 16 -64 -5 -44 -27 -52
-27 -88 -1 -20 16 -38 20 -62 16 -41 -6 -68 7 -68 33 0 28 60 28 85 0 23 -26
65 -26 99 1 45 36 25 109 -31 109 -13 0 -23 6 -23 14 0 8 -3 21 -6 29 -6 17
14 23 77 26 29 1 38 -4 47 -23z m1267 -94 c-9 -10 -13 2 -19 63 l-5 60 15 -59
c8 -32 12 -61 9 -64z m49 -24 c6 -14 2 -20 -19 -28 -34 -13 -55 -12 -32 1 15
9 17 21 13 82 -3 49 -1 74 7 79 9 5 14 -10 18 -55 3 -34 9 -70 13 -79z m-574
122 c0 -5 -4 -10 -10 -10 -5 0 -10 5 -10 10 0 6 5 10 10 10 6 0 10 -4 10 -10z
m470 -36 c0 -21 4 -33 10 -29 6 3 10 2 10 -4 0 -5 3 -16 6 -25 5 -12 0 -16
-20 -16 -26 0 -27 1 -25 60 2 62 19 75 19 14z m-925 26 c3 -5 17 -10 30 -10
57 0 95 -39 95 -97 0 -29 -25 -63 -47 -63 -8 0 -13 -11 -13 -28 0 -23 -7 -32
-35 -45 -20 -9 -43 -17 -51 -17 -22 0 -74 61 -74 87 0 29 18 39 34 18 8 -11
23 -16 46 -13 67 6 77 92 14 120 -21 10 -35 9 -74 -5 -60 -21 -60 -21 -60 3 0
11 6 20 13 20 8 0 22 9 32 20 19 21 79 28 90 10z m460 -36 c-9 -14 -14 -28
-11 -31 3 -3 15 11 27 31 13 22 29 36 41 36 19 0 19 -1 -3 -32 -12 -18 -32
-44 -44 -58 -27 -31 -37 -57 -25 -65 32 -20 -23 -41 -65 -25 l-26 10 38 48
c21 26 47 67 58 89 11 23 22 38 23 32 2 -5 -4 -21 -13 -35z m231 -4 c-9 -22
-12 -40 -7 -40 5 0 15 16 21 35 6 19 20 40 31 46 17 8 14 -2 -16 -61 -32 -63
-37 -69 -55 -60 -11 6 -20 13 -20 15 0 11 54 114 58 110 3 -2 -3 -22 -12 -45z
m201 13 c-3 -10 -5 -4 -5 12 0 17 2 24 5 18 2 -7 2 -21 0 -30z m-324 21 c3 -4
-1 -20 -9 -36 -9 -17 -14 -32 -11 -34 2 -2 12 12 23 31 26 49 39 44 14 -5 -11
-22 -17 -40 -13 -40 5 0 19 20 32 44 20 39 26 43 41 33 18 -10 18 -12 0 -48
-11 -20 -26 -39 -35 -42 -18 -8 -20 -33 -2 -41 20 -9 -44 2 -96 16 l-47 14 23
23 c14 12 33 38 43 57 19 34 25 39 37 28z m664 -9 c12 -8 29 -12 37 -9 33 13
65 -7 101 -60 47 -72 46 -98 -10 -152 -38 -38 -48 -43 -65 -34 -34 18 -40 42
-19 69 25 31 25 91 0 118 -26 27 -106 38 -137 18 -45 -29 -38 -85 10 -85 28 0
64 26 52 37 -5 4 -11 2 -13 -4 -5 -15 -49 -17 -58 -3 -7 12 30 50 49 50 8 0
17 -4 20 -9 3 -5 16 -7 28 -4 27 8 48 -20 48 -63 0 -44 -20 -57 -71 -49 -36 6
-44 4 -69 -20 -45 -43 -66 -25 -61 51 1 12 -8 37 -19 58 -22 36 -22 36 -2 36
11 0 39 16 62 35 46 38 82 44 117 20z m-350 -72 c-3 -10 -5 -4 -5 12 0 17 2
24 5 18 2 -7 2 -21 0 -30z m-130 -45 c-14 -24 -35 -52 -48 -63 l-23 -20 20 30
c44 70 69 103 73 100 2 -2 -8 -23 -22 -47z m-108 -49 c-17 -22 -33 -39 -36
-39 -8 0 9 44 23 61 11 12 11 18 1 28 -10 10 -7 10 15 0 l27 -12 -30 -38z
m301 46 c0 -10 -10 -15 -30 -15 -29 0 -38 9 -23 23 13 13 53 7 53 -8z m79 -51
c-36 -26 -39 -27 -56 -16 -18 11 -3 27 37 39 49 14 57 5 19 -23z m-235 -1
c-13 -56 -114 -199 -114 -162 0 8 13 28 29 43 16 16 42 55 57 87 16 32 30 59
31 59 2 0 0 -12 -3 -27z m-194 -2 c0 -11 -11 -32 -25 -47 -14 -15 -25 -32 -25
-37 0 -6 -2 -8 -5 -5 -7 6 37 108 47 108 4 0 8 -9 8 -19z m310 2 c0 -10 -5
-25 -10 -33 -8 -13 -10 -13 -10 2 0 9 -3 23 -6 32 -4 11 -1 16 10 16 9 0 16
-8 16 -17z m36 2 c-3 -8 -8 -38 -12 -66 -5 -36 -9 -47 -15 -36 -11 18 10 117
24 117 5 0 7 -7 3 -15z m-436 -24 c0 -16 -7 -34 -15 -41 -13 -11 -15 -8 -15
13 0 32 9 57 21 57 5 0 9 -13 9 -29z m-148 -1 c18 -11 49 -21 68 -21 27 -1 30
-3 10 -6 -14 -3 -29 -9 -34 -14 -16 -15 -54 -10 -73 9 -10 11 -27 22 -38 27
-19 7 -19 8 5 15 14 5 26 8 27 9 2 1 17 -8 35 -19z m-113 -66 c10 -13 23 -24
28 -24 15 0 51 -43 55 -65 3 -17 -2 -20 -32 -17 -63 5 -76 18 -76 70 1 46 0
48 -41 67 -23 11 -42 25 -43 32 0 16 85 -33 109 -63z m218 70 c-3 -3 -12 -4
-19 -1 -8 3 -5 6 6 6 11 1 17 -2 13 -5z m591 -46 c-19 -12 -42 -5 -46 15 -2
11 5 20 20 26 19 7 25 5 31 -12 5 -13 3 -23 -5 -29z m-769 17 c22 -13 42 -29
46 -35 8 -13 72 -13 80 0 9 15 22 12 29 -5 11 -29 -42 -39 -101 -20 -55 17
-117 61 -107 76 7 13 10 12 53 -16z m424 -37 c-22 -30 -43 -64 -47 -76 -10
-31 -29 -16 -21 17 6 26 94 125 103 116 3 -2 -13 -28 -35 -57z m167 32 c0 -10
-4 -22 -10 -25 -6 -4 -10 7 -10 25 0 18 4 29 10 25 6 -3 10 -15 10 -25z m355
5 c14 -13 25 -28 25 -33 0 -6 10 -12 23 -16 42 -10 61 -91 35 -153 -6 -15 -10
-37 -9 -49 6 -58 -107 -120 -167 -92 -15 7 -28 20 -30 28 -3 17 40 40 74 40
11 0 34 12 49 26 26 24 27 28 21 87 -8 75 -29 97 -89 97 -59 0 -87 -29 -87
-92 0 -39 4 -50 24 -63 19 -13 28 -14 50 -4 22 10 26 18 24 43 -2 16 -9 31
-16 34 -9 3 -11 -3 -6 -23 8 -32 -11 -49 -38 -34 -18 10 -19 21 -9 100 2 17
49 26 81 15 31 -10 35 -15 34 -44 -1 -17 2 -32 7 -32 5 0 9 -13 9 -28 0 -39
-31 -66 -66 -58 -19 5 -30 2 -39 -11 -13 -17 -14 -17 -35 2 -12 11 -28 34 -35
51 -7 18 -23 37 -34 44 -33 17 -28 70 9 110 22 24 36 31 52 26 17 -4 30 2 50
24 33 36 61 38 93 5z m-228 -27 c13 -14 13 -20 1 -35 -7 -10 -19 -18 -25 -17
-7 1 -18 2 -24 3 -14 1 -4 57 13 79 10 12 13 12 16 1 3 -8 11 -22 19 -31z
m-398 5 c-13 -16 -25 -30 -26 -32 -2 -2 -6 -2 -9 2 -6 6 43 57 54 57 3 0 -5
-12 -19 -27z m48 -8 c-25 -19 -49 -35 -53 -35 -12 0 20 33 51 52 50 30 51 20
2 -17z m-452 -52 c0 -50 26 -83 67 -83 18 0 31 -6 35 -17 3 -10 13 -26 21 -36
24 -28 6 -31 -30 -6 -24 18 -46 24 -83 24 -54 0 -55 2 -43 70 2 15 -6 23 -38
34 l-41 14 26 38 26 37 30 -17 c26 -15 30 -23 30 -58z m315 37 c-24 -15 -37
-11 -16 5 11 8 22 12 25 9 3 -3 -1 -9 -9 -14z m300 5 c0 -9 -9 -15 -21 -15
-18 0 -19 2 -9 15 7 8 16 15 21 15 5 0 9 -7 9 -15z m70 -5 c-6 -11 -16 -20
-22 -20 -6 0 -3 9 7 20 10 11 20 20 22 20 2 0 -1 -9 -7 -20z m-1062 -11 c11
-36 36 -50 86 -50 104 1 226 -6 233 -12 3 -4 1 -18 -5 -33 -21 -46 11 -77 74
-72 16 1 48 -7 71 -18 34 -15 43 -24 43 -45 0 -33 35 -79 60 -79 11 0 31 -11
46 -25 38 -35 82 -33 119 4 24 26 27 35 22 73 -8 63 -63 93 -87 47 -12 -22 4
-54 22 -43 5 3 4 11 -3 20 -9 11 -8 15 6 20 23 9 37 -8 33 -42 -4 -37 -39 -45
-65 -15 -9 12 -23 21 -29 21 -13 0 -24 22 -24 46 0 30 47 64 88 64 21 0 42 -3
46 -7 4 -5 26 -8 48 -9 36 0 46 -6 84 -50 63 -71 58 -128 -18 -194 -52 -45
-104 -51 -144 -16 -28 23 -35 24 -69 15 -46 -13 -80 -5 -122 27 -28 21 -33 31
-33 68 0 39 -3 45 -29 56 -18 7 -46 9 -76 5 -34 -6 -56 -3 -85 10 -46 21 -54
36 -38 71 11 22 9 28 -7 40 -32 24 -84 33 -150 27 -75 -7 -123 7 -159 47 -37
42 -83 42 -99 -1 -11 -29 -15 -31 -52 -26 -22 2 -69 18 -105 36 -67 32 -37 32
35 0 22 -10 50 -19 62 -19 26 0 47 32 38 60 -6 18 -1 19 86 16 71 -1 94 -6 97
-17z m1007 -18 c-14 -13 -103 -26 -90 -13 6 6 26 12 45 15 19 2 39 5 45 5 5 1
5 -1 0 -7z m-261 -38 c-10 -7 -35 -13 -56 -13 -27 0 -38 -4 -38 -15 0 -9 -9
-15 -22 -15 -21 0 -21 0 -2 21 18 20 18 21 -1 35 -24 18 -12 18 23 0 31 -16
76 -11 94 11 9 12 13 12 17 2 2 -7 -4 -18 -15 -26z m52 -8 c-1 -36 -3 -42 -14
-32 -9 10 -10 20 -1 45 6 18 12 32 13 32 2 0 2 -20 2 -45z m264 35 c-8 -5 -22
-10 -30 -10 -13 0 -13 1 0 10 8 5 22 10 30 10 13 0 13 -1 0 -10z m-523 -6 c-3
-3 -12 -4 -19 -1 -8 3 -5 6 6 6 11 1 17 -2 13 -5z m524 -24 c-24 -20 -51 -27
-51 -12 0 6 41 24 70 30 3 1 -6 -8 -19 -18z m-451 0 c0 -5 -2 -10 -4 -10 -3 0
-8 5 -11 10 -3 6 -1 10 4 10 6 0 11 -4 11 -10z m290 0 c0 -5 -5 -10 -11 -10
-5 0 -7 5 -4 10 3 6 8 10 11 10 2 0 4 -4 4 -10z m47 -76 c-34 -40 -117 -34
-117 7 0 12 7 15 25 11 43 -8 75 6 75 32 0 37 24 38 31 2 4 -22 0 -37 -14 -52z
m39 49 c-11 -11 -17 4 -9 23 7 18 8 18 11 1 2 -10 1 -21 -2 -24z m134 31 c0
-10 -33 -33 -47 -34 -9 0 -7 7 5 19 17 19 42 27 42 15z m-349 -55 l29 -31 -32
6 c-18 4 -50 10 -70 14 -44 8 -40 28 7 35 17 2 32 5 33 6 2 0 17 -13 33 -30z
m139 21 c0 -5 -8 -10 -17 -10 -15 0 -16 2 -3 10 19 12 20 12 20 0z m216 -15
c-10 -8 -23 -12 -29 -8 -5 3 1 12 14 19 30 15 41 7 15 -11z m-525 -6 l46 -12
-27 -24 c-15 -12 -31 -34 -34 -47 -8 -30 9 -76 27 -76 8 0 22 -9 32 -20 10
-12 31 -20 49 -20 29 -1 30 -1 12 -15 -31 -24 -73 -19 -92 10 -9 14 -22 24
-28 23 -25 -4 -56 15 -62 38 -6 24 -4 41 11 77 5 12 3 17 -8 17 -8 0 -18 7
-21 15 -8 21 16 57 34 52 8 -3 36 -11 61 -18z m474 -15 c20 -13 29 -14 59 -3
29 11 38 10 60 -5 14 -9 26 -25 26 -35 0 -10 9 -26 20 -36 12 -11 20 -31 20
-50 0 -33 -33 -86 -51 -82 -6 1 -16 -14 -22 -33 -15 -44 -71 -76 -109 -61 -20
7 -28 5 -41 -10 -23 -26 -60 -24 -96 7 -30 25 -37 47 -25 78 8 22 19 20 48 -9
30 -29 40 -30 109 -9 73 24 97 48 97 99 0 65 -20 85 -87 85 -65 0 -93 -18 -93
-60 0 -33 17 -50 51 -50 30 0 57 24 39 35 -5 3 -10 1 -10 -4 0 -6 -13 -11 -30
-11 -25 0 -30 4 -30 24 0 33 17 44 72 44 37 1 50 -3 58 -18 12 -22 13 -70 2
-86 -12 -19 -50 -34 -66 -28 -9 3 -16 2 -16 -4 0 -13 -44 -24 -65 -16 -9 4
-21 17 -25 30 -6 16 -15 22 -25 18 -12 -5 -15 1 -15 28 0 21 -10 48 -25 69
l-26 34 33 7 c19 4 43 19 58 37 28 35 66 41 105 15z"/>
<path d="M864 2225 c-16 -12 -16 -14 -3 -15 9 0 22 7 29 15 16 19 0 19 -26 0z"/>
<path d="M905 2210 c-3 -5 1 -10 9 -10 8 0 18 5 21 10 3 6 -1 10 -9 10 -8 0
-18 -4 -21 -10z"/>
<path d="M884 2175 c-10 -8 -14 -15 -7 -15 19 0 43 11 43 21 0 13 -14 11 -36
-6z"/>
<path d="M950 2165 c-8 -9 -8 -15 -2 -15 12 0 26 19 19 26 -2 2 -10 -2 -17
-11z"/>
<path d="M950 1999 c0 -5 5 -7 10 -4 6 3 10 8 10 11 0 2 -4 4 -10 4 -5 0 -10
-5 -10 -11z"/>
<path d="M2414 2415 c11 -8 27 -15 37 -15 9 0 28 -9 42 -20 30 -24 92 -27 101
-5 3 9 18 15 35 15 16 0 37 7 46 16 22 23 12 29 -18 10 -13 -9 -32 -14 -41
-10 -11 4 -22 -1 -32 -15 -20 -28 -36 -27 -74 5 -20 18 -46 28 -73 30 -39 3
-41 2 -23 -11z"/>
<path d="M1485 2160 c10 -35 25 -49 25 -23 0 11 -7 27 -16 34 -15 12 -16 11
-9 -11z"/>
<path d="M1439 2144 c12 -15 21 -33 21 -40 0 -8 5 -14 10 -14 13 0 13 4 -4 45
-9 20 -22 35 -31 35 -14 0 -13 -4 4 -26z"/>
<path d="M1026 1221 c-19 -21 -18 -62 1 -68 7 -3 11 8 10 29 -2 30 1 33 31 36
39 4 43 22 4 22 -16 0 -37 -9 -46 -19z"/>
<path d="M3242 899 c2 -7 17 -15 33 -16 15 -1 38 -12 51 -24 17 -16 29 -20 51
-14 15 3 54 8 86 10 47 3 61 1 77 -15 22 -22 26 -45 10 -55 -5 -3 -15 -3 -21
1 -8 4 -7 9 2 15 18 11 4 23 -16 15 -20 -7 -16 -35 8 -50 12 -8 22 -8 35 0 27
17 26 56 -2 87 -21 23 -33 27 -73 26 -26 0 -63 -5 -82 -11 -28 -9 -37 -7 -63
12 -36 27 -103 40 -96 19z"/>
<path d="M3696 869 c-27 -21 -33 -52 -16 -79 7 -11 10 -7 10 17 0 22 8 38 25
51 14 11 25 23 25 26 0 12 -18 6 -44 -15z"/>
</g>
</svg>
