<?xml version="1.0" standalone="no"?>
<!DOCTYPE svg PUBLIC "-//W3C//DTD SVG 20010904//EN"
 "http://www.w3.org/TR/2001/REC-SVG-20010904/DTD/svg10.dtd">
<svg version="1.0" xmlns="http://www.w3.org/2000/svg"
 width="1480.000000pt" height="409.000000pt"
 viewBox="-500 0 1480.000000 409.000000"
 preserveAspectRatio="xMidYMid meet">
<g transform="translate(0.000000,409.000000) scale(0.100000,-0.100000)"
fill="#000000" stroke="none">
<path d="M1690 4065 c-8 -9 -8 -15 -2 -15 12 0 26 19 19 26 -2 2 -10 -2 -17
-11z"/>
<path d="M1765 3984 c-59 -61 -150 -192 -181 -256 -17 -36 -37 -48 -48 -30 -8
13 27 120 65 197 44 91 44 89 30 80 -16 -9 -86 -158 -101 -214 -12 -45 -18
-48 -25 -12 -9 47 -17 61 -35 61 -11 0 -23 -6 -27 -13 -4 -7 -21 -23 -38 -36
-16 -12 -46 -46 -65 -74 -25 -36 -45 -53 -65 -58 -62 -12 -122 -47 -157 -90
-62 -77 -89 -150 -38 -104 21 19 22 18 61 -21 33 -34 39 -45 34 -67 -6 -21
-15 -28 -44 -33 -20 -4 -44 -11 -53 -16 -14 -7 -18 -5 -18 11 0 11 -4 22 -9
26 -5 3 -7 21 -4 40 5 32 4 35 -13 28 -69 -26 -134 -78 -134 -107 0 -24 53
-103 58 -87 2 7 -9 30 -24 52 -23 34 -25 42 -13 50 21 13 39 11 39 -6 0 -8 4
-15 9 -15 5 0 7 -29 5 -67 -3 -38 -6 -106 -7 -152 l-2 -84 -50 -17 c-82 -29
-137 -56 -183 -90 -57 -41 -47 -51 12 -11 37 26 209 101 231 101 3 0 5 -12 6
-27 0 -16 4 -37 8 -48 6 -16 -3 -32 -44 -77 -50 -55 -112 -154 -103 -164 3 -2
21 20 40 49 20 29 58 77 86 107 l50 55 42 -40 42 -40 -5 -65 c-6 -97 8 -134
17 -42 7 72 7 72 34 66 15 -4 31 -11 36 -15 16 -15 86 -11 92 5 3 8 25 17 50
21 35 5 44 10 44 26 0 23 -8 24 -32 2 -10 -9 -21 -14 -23 -11 -3 3 -7 35 -8
70 -2 54 -5 64 -18 61 -9 -3 -19 3 -22 11 -9 24 -27 19 -27 -6 0 -23 0 -23
-20 2 -36 46 -21 90 32 90 15 0 28 5 28 10 0 6 -9 10 -21 10 -29 0 -59 18 -59
35 0 8 5 15 10 15 6 0 10 7 10 15 0 9 -6 12 -15 9 -8 -4 -15 -1 -15 5 0 14 27
15 35 1 3 -5 13 -10 21 -10 10 0 12 5 7 13 -4 6 -6 20 -5 30 2 9 -2 17 -7 17
-6 0 -11 5 -11 10 0 20 29 9 59 -21 17 -17 31 -39 31 -49 0 -10 5 -22 10 -25
6 -4 10 8 10 28 0 18 3 37 7 41 4 3 8 13 9 20 1 7 5 23 9 35 11 35 -24 26 -39
-10 l-13 -31 -5 25 c-3 16 -1 25 6 24 6 -1 11 5 11 13 1 8 7 24 14 35 11 17
12 17 7 2 -4 -12 -2 -17 6 -14 7 2 12 12 12 21 -2 12 3 15 20 11 17 -5 18 -4
6 4 -13 10 -13 12 0 21 13 8 12 11 -5 24 -11 9 -27 16 -35 16 -13 1 -13 2 0 7
8 3 29 19 47 36 27 25 31 27 26 9 -2 -11 0 -29 6 -39 9 -16 10 -15 11 9 0 15
5 30 10 33 6 3 10 15 10 26 0 32 26 74 55 87 34 16 36 15 28 -5 -3 -10 12 -1
34 20 35 34 44 37 62 28 22 -12 28 -36 11 -46 -12 -7 -14 -45 -2 -45 4 0 15 7
25 14 10 8 26 12 35 9 10 -2 29 6 42 17 l25 22 9 -67 c9 -70 5 -85 -18 -66
-11 9 -15 8 -20 -4 -9 -24 -23 -17 -36 18 -10 29 -12 30 -24 15 -17 -23 -33
-23 -54 -1 -16 16 -17 15 -20 -5 -2 -12 -9 -22 -16 -22 -17 0 -36 -44 -47
-109 -4 -30 -15 -61 -24 -71 -18 -20 -19 -45 -4 -90 10 -26 14 -29 21 -17 7
14 22 9 102 -34 52 -27 102 -49 113 -49 25 0 132 -64 158 -94 11 -13 37 -31
58 -40 21 -8 57 -31 80 -50 23 -19 54 -37 70 -41 15 -4 27 -11 27 -15 0 -4 42
-24 94 -44 52 -20 97 -43 100 -51 6 -16 46 -21 46 -6 0 13 -50 60 -71 66 -10
4 -19 13 -19 21 0 8 -5 14 -11 14 -5 0 -7 -6 -4 -12 4 -7 1 -6 -7 2 -7 8 -28
16 -47 17 -18 1 -36 6 -40 11 -3 5 -25 19 -48 31 -23 11 -45 26 -48 32 -4 6
-28 20 -53 30 -44 19 -158 120 -119 106 16 -6 63 15 78 35 3 5 14 8 25 7 10
-1 35 -1 55 -1 44 2 58 31 28 58 -20 18 -27 40 -9 29 6 -3 10 -1 10 5 0 7 8 9
20 5 14 -4 27 1 44 19 26 28 59 38 36 11 -17 -21 -5 -45 22 -45 13 0 36 -14
53 -31 l29 -30 -79 4 c-87 3 -94 0 -112 -51 -17 -47 -5 -69 31 -63 5 1 6 -7 3
-19 -4 -16 0 -20 17 -20 13 0 31 -9 41 -20 10 -11 24 -20 30 -20 7 0 15 -7 19
-15 3 -8 12 -15 19 -15 8 0 22 -9 32 -20 14 -16 20 -17 26 -8 6 10 12 9 26 -6
10 -10 12 -16 5 -12 -18 10 -26 -18 -12 -44 12 -22 34 -23 36 -2 1 7 3 14 4
17 1 3 3 9 4 14 0 5 5 13 10 18 5 5 6 3 2 -4 -4 -8 -1 -13 7 -13 8 0 28 -7 43
-15 18 -9 23 -15 12 -15 -11 0 -15 -6 -11 -20 7 -27 21 -25 32 4 11 28 40 41
55 25 8 -9 8 -10 -1 -5 -26 14 -35 -6 -13 -29 l21 -23 -30 4 c-17 2 -31 0 -31
-4 0 -10 -41 -9 -57 1 -13 8 -18 -9 -14 -40 1 -8 -11 -13 -31 -13 -39 0 -107
-29 -127 -54 -8 -10 -27 -24 -43 -32 -28 -15 -39 -44 -15 -44 13 0 42 -39 34
-46 -6 -7 -125 100 -126 113 -1 6 -23 31 -50 55 -27 24 -52 53 -56 66 -8 28
-25 29 -25 1 0 -21 0 -21 -27 -3 -65 42 -115 66 -129 60 -12 -5 -3 -17 38 -49
29 -24 70 -53 90 -66 56 -34 80 -68 65 -92 -6 -10 -17 -19 -24 -19 -7 0 -13
-9 -13 -19 0 -11 -10 -27 -21 -35 -14 -10 -19 -21 -15 -32 4 -11 -1 -24 -14
-36 -11 -10 -20 -28 -20 -39 0 -11 -4 -17 -10 -14 -9 5 -15 -11 -22 -60 -2
-11 -13 -24 -26 -30 -12 -5 -22 -13 -22 -17 0 -5 -4 -8 -9 -8 -13 0 -6 67 8
84 7 8 10 24 6 36 -4 14 -1 22 10 26 9 4 21 17 26 30 4 13 16 24 24 24 13 0
15 8 10 45 -5 33 -3 48 8 59 12 13 13 23 4 58 -11 40 -12 41 -15 14 l-4 -29
-29 32 c-20 23 -29 27 -29 16 0 -9 -5 -13 -10 -10 -6 3 -13 -1 -16 -10 -6 -13
-8 -14 -15 -3 -7 10 -9 9 -9 -4 0 -9 -7 -24 -16 -33 -9 -8 -18 -33 -21 -55 -5
-36 -23 -58 -23 -28 0 9 -3 9 -11 1 -6 -6 -18 -9 -25 -6 -10 4 -14 -3 -15 -23
l-1 -29 -9 30 c-12 40 -3 64 27 71 20 5 24 13 25 43 1 37 16 98 18 71 1 -9 4
-11 11 -4 7 7 7 27 -1 62 -12 51 -13 52 -36 37 -13 -9 -23 -11 -23 -5 0 5 -7
10 -15 10 -8 0 -15 -7 -15 -15 0 -8 -6 -15 -14 -15 -8 0 -20 -16 -26 -35 -11
-34 -12 -34 -36 -19 -23 16 -24 15 -24 -7 0 -13 -7 -33 -15 -43 -14 -18 -15
-18 -25 8 -8 21 -15 26 -30 21 -18 -6 -20 -2 -20 38 l0 45 39 -4 c34 -4 42 -1
60 25 12 16 21 39 21 50 0 22 29 30 31 9 1 -15 17 21 18 40 1 7 -3 11 -8 8 -5
-4 -11 -1 -13 5 -6 19 -48 0 -48 -22 0 -33 -31 -36 -55 -5 -33 41 -55 26 -55
-36 0 -42 -2 -48 -14 -39 -7 6 -21 9 -30 5 -14 -5 -14 -8 -1 -27 8 -12 15 -31
15 -44 0 -12 6 -46 14 -75 8 -29 15 -57 17 -63 1 -5 -1 -18 -6 -28 -4 -11 -3
-23 4 -30 6 -6 11 -18 11 -27 0 -30 24 -70 40 -65 15 5 62 -55 66 -84 2 -8 12
-26 23 -41 10 -15 23 -49 27 -76 4 -27 22 -80 40 -119 l32 -70 -33 -3 c-74 -7
-225 65 -332 159 -31 27 -63 49 -71 49 -12 0 -12 -3 4 -15 10 -8 -9 -3 -43 12
-34 15 -59 31 -56 37 3 5 1 6 -4 3 -6 -4 -23 -1 -38 7 -41 21 -154 30 -219 16
-33 -7 -78 -26 -109 -47 -28 -19 -64 -40 -79 -45 -16 -6 -28 -13 -28 -17 0 -5
-24 -32 -52 -62 -108 -112 -132 -146 -122 -173 3 -9 1 -16 -4 -16 -13 0 -27
-38 -23 -63 1 -10 -3 -25 -9 -33 -7 -8 -9 -14 -4 -14 5 0 3 -4 -3 -8 -13 -8
-21 -87 -11 -98 4 -3 2 -19 -2 -36 -11 -38 27 -127 67 -157 16 -11 33 -25 40
-30 16 -14 63 -25 63 -15 0 10 69 34 95 34 23 0 57 61 43 77 -7 9 -7 13 1 13
17 0 25 48 11 65 -10 12 -9 20 5 41 13 21 15 31 6 50 -20 45 -3 83 53 119 29
18 58 40 65 49 15 18 78 14 146 -10 22 -7 73 -18 113 -24 50 -7 79 -17 93 -31
31 -31 126 -72 155 -66 13 2 27 0 30 -4 10 -17 53 -9 64 11 6 11 16 18 22 14
7 -4 5 -10 -6 -16 -9 -5 -16 -13 -16 -18 0 -15 47 -12 53 4 3 8 19 21 36 29
28 14 25 9 -25 -51 -31 -36 -79 -84 -106 -105 l-49 -40 -87 7 c-80 7 -90 5
-115 -14 -41 -33 -50 -56 -54 -152 -3 -87 -3 -87 27 -109 16 -13 30 -28 30
-34 0 -6 13 -23 28 -38 25 -24 40 -28 126 -36 103 -10 117 -8 153 19 12 10 55
28 95 40 40 13 89 36 109 52 21 15 56 37 80 47 l42 19 25 -46 c13 -26 39 -63
57 -82 39 -42 80 -123 72 -142 -6 -16 -81 -34 -176 -43 -116 -11 -241 -100
-256 -182 -3 -21 -22 -76 -41 -123 -48 -117 -54 -168 -23 -203 13 -14 30 -28
38 -29 7 -2 26 -16 42 -32 21 -20 37 -27 54 -24 14 3 30 0 35 -7 36 -44 135
-3 199 81 57 75 76 85 169 87 72 2 80 1 68 -13 -8 -8 -24 -35 -36 -59 -21 -42
-21 -45 -5 -95 9 -28 25 -63 36 -78 10 -15 19 -32 19 -38 0 -5 5 -10 10 -10 6
0 18 -8 28 -18 35 -35 194 -79 240 -66 15 4 39 6 53 5 14 -1 55 12 91 29 63
30 88 58 88 95 0 9 10 15 26 15 26 0 26 1 10 25 -15 23 -24 106 -9 92 3 -4 11
-3 17 2 6 5 30 16 53 24 38 13 43 13 48 -2 6 -21 64 -81 146 -153 80 -70 138
-161 121 -189 -7 -10 -12 -27 -12 -36 1 -27 53 -85 81 -88 13 -2 36 -8 50 -13
14 -6 31 -7 38 -2 7 4 26 3 41 -3 34 -13 71 7 100 55 24 40 42 142 30 173 -5
13 -6 27 -1 29 14 9 -4 90 -34 146 -47 90 -53 104 -48 117 2 6 -1 14 -6 18 -6
3 -11 28 -11 54 0 36 5 52 21 67 12 10 37 42 54 69 18 28 41 59 52 70 10 11
31 45 47 75 15 30 34 60 41 65 28 23 105 188 105 227 0 16 11 23 33 19 5 -1
49 -3 98 -5 63 -2 94 0 106 10 10 7 32 14 48 14 18 0 38 8 48 20 16 19 24 21
71 24 20 1 36 26 17 26 -6 0 -11 7 -11 15 0 18 12 19 28 3 13 -13 122 -20 141
-8 10 5 20 2 30 -11 9 -11 23 -21 31 -22 28 -5 40 -18 40 -47 0 -40 -83 -119
-180 -170 -96 -50 -193 -147 -209 -208 -17 -61 -5 -132 21 -132 11 0 32 -8 46
-19 30 -21 64 -14 80 16 11 20 12 24 12 56 1 41 32 67 105 87 134 35 171 55
274 147 45 40 58 60 113 178 28 62 30 183 2 237 -32 64 -131 137 -170 126 -5
-1 -31 3 -59 10 -128 31 -260 18 -363 -36 -21 -11 -75 -27 -122 -36 -95 -20
-165 -15 -179 12 -5 9 -12 55 -16 102 -4 47 -14 103 -21 125 -8 22 -17 60 -20
85 -3 24 -19 74 -36 110 -17 36 -32 79 -33 95 -2 17 -15 56 -30 85 -26 53 -27
61 -26 203 l1 149 28 26 c16 15 50 71 76 124 43 89 53 125 56 215 0 9 8 9 33
1 17 -5 48 -14 67 -18 19 -5 50 -16 68 -25 18 -9 38 -14 45 -12 16 6 -69 44
-141 63 -31 8 -57 16 -58 17 -1 1 -5 25 -9 53 l-7 52 39 13 c21 7 32 14 25 17
-7 2 -25 -1 -40 -6 -27 -9 -29 -8 -40 30 -7 22 -11 42 -9 44 14 14 168 96 197
105 61 18 90 31 90 39 0 8 -35 1 -95 -18 -39 -12 -152 -69 -188 -94 -16 -11
-31 -17 -35 -14 -3 4 -5 31 -4 60 2 50 -19 104 -70 177 -9 12 -7 22 5 40 l17
23 0 -36 c0 -20 4 -39 9 -43 11 -6 19 148 9 173 -4 9 -7 12 -7 6 -1 -15 -79
-47 -97 -40 -8 3 -31 -1 -51 -9 -55 -23 -101 -18 -193 20 -46 19 -90 35 -97
35 -33 0 -62 24 -69 59 -4 20 -8 43 -10 51 -2 8 -7 33 -11 54 l-8 40 -28 -33
c-15 -18 -27 -37 -27 -42 0 -5 -7 -9 -16 -9 -9 0 -12 -5 -8 -12 5 -8 2 -9 -9
-5 -12 5 -17 1 -17 -12 0 -28 -23 -32 -38 -7 -12 19 -12 17 -7 -16 6 -37 6
-38 -20 -28 -17 7 -24 7 -20 0 3 -6 -1 -10 -9 -10 -8 0 -21 -6 -28 -13 -7 -8
-36 -26 -63 -41 -51 -29 -101 -80 -122 -125 -11 -26 -14 -24 -18 16 -1 12 -5
29 -9 38 -5 14 -1 16 23 10 20 -4 34 -1 46 11 17 17 16 19 -16 30 -19 7 -47
13 -62 13 -20 1 -33 9 -45 31 -9 16 -20 30 -24 30 -13 0 -9 -17 7 -30 8 -7 15
-16 15 -20 0 -4 -53 -8 -117 -8 -73 0 -141 -5 -178 -15 -33 -8 -98 -20 -145
-27 -47 -7 -103 -20 -125 -31 -34 -15 -47 -17 -77 -7 -33 10 -36 14 -41 60 -6
50 -16 66 -55 87 -12 7 -20 16 -17 21 8 13 -21 66 -41 74 -15 6 -15 8 1 26 22
24 13 26 -20 4 -18 -11 -35 -14 -65 -9 -22 4 -40 9 -40 11 0 3 12 28 26 57 34
67 122 185 176 236 24 22 40 43 36 47 -4 4 -33 -20 -63 -52z m-285 -234 c7
-26 17 -40 28 -41 12 0 10 -3 -7 -10 -16 -6 -27 -6 -30 0 -4 6 -16 14 -29 18
l-22 8 20 33 c11 17 22 32 24 32 3 0 10 -18 16 -40z m-196 -188 c0 -20 2 -41
5 -47 3 -5 3 -44 0 -85 -3 -41 -6 -64 -7 -51 -2 18 -6 22 -22 18 -22 -6 -71
50 -69 80 0 12 5 7 14 -13 29 -67 72 -44 61 32 -3 25 -8 50 -12 55 -8 14 -34
11 -34 -5 0 -7 -7 -19 -15 -26 -13 -11 -15 -8 -15 18 0 25 6 32 38 45 53 23
57 21 56 -21z m136 -6 c0 -3 -4 -8 -10 -11 -5 -3 -10 -1 -10 4 0 6 5 11 10 11
6 0 10 -2 10 -4z m1438 -90 c17 -1 32 -4 32 -8 0 -5 -5 -8 -11 -8 -8 0 -8 -5
1 -15 9 -11 10 -15 1 -15 -8 0 -10 -8 -6 -20 5 -14 2 -20 -9 -20 -9 0 -16 8
-16 17 0 15 -2 14 -14 -3 -13 -17 -13 -19 0 -22 22 -5 11 -26 -14 -30 -15 -2
-22 2 -22 14 0 16 -2 15 -22 -2 -18 -16 -20 -16 -15 -2 3 9 3 19 -1 23 -4 3
-7 26 -7 50 -1 31 3 41 12 38 7 -3 13 0 13 7 0 8 7 10 23 5 12 -4 37 -8 55 -9z
m62 -1 c0 -8 -2 -15 -4 -15 -2 0 -6 7 -10 15 -3 8 -1 15 4 15 6 0 10 -7 10
-15z m-560 -16 c0 -5 -4 -7 -10 -4 -5 3 -10 -3 -10 -14 0 -16 6 -21 29 -21 39
0 61 -9 61 -26 0 -8 -6 -11 -15 -8 -17 7 -22 -31 -5 -41 5 -3 8 -16 6 -28 -3
-20 -8 -22 -52 -19 -27 2 -53 7 -59 12 -5 4 -22 10 -36 13 -21 5 -28 2 -39
-17 -11 -21 -10 -28 9 -55 18 -24 30 -31 57 -31 39 0 39 1 18 42 l-16 31 39
-7 c21 -4 65 -20 97 -36 32 -17 65 -30 73 -30 10 0 13 -6 9 -16 -3 -9 -6 -20
-6 -25 0 -15 -44 -10 -112 11 -34 11 -86 20 -114 20 -28 0 -72 3 -98 6 -38 6
-45 10 -41 24 3 9 0 22 -7 28 -20 16 -85 25 -93 13 -4 -7 6 -14 25 -17 28 -6
53 -24 32 -24 -19 0 -118 33 -131 44 -8 6 -24 9 -35 8 -12 -2 -18 -1 -14 4 4
4 3 13 -4 21 -8 11 -8 17 2 26 10 9 13 9 17 0 3 -7 19 -13 36 -13 21 0 36 -7
44 -19 8 -13 19 -17 40 -13 39 7 44 20 23 57 -13 24 -15 36 -7 44 8 8 5 9 -11
6 -14 -2 -22 1 -22 10 0 15 22 25 57 25 21 0 24 -2 13 -15 -10 -12 -9 -15 7
-15 29 0 72 -23 78 -41 5 -16 52 -29 102 -29 19 0 22 5 20 30 -2 17 -16 43
-30 58 -15 16 -27 30 -27 33 0 2 23 5 50 6 30 2 50 -1 50 -8z m-440 -83 c0 -2
-15 -6 -34 -8 -19 -2 -32 0 -30 4 5 8 64 12 64 4z m-222 -22 c7 4 12 -8 15
-31 3 -33 5 -35 12 -16 9 26 25 21 25 -8 0 -11 -4 -18 -9 -15 -5 4 -7 -4 -3
-16 3 -14 2 -19 -6 -14 -7 4 -12 1 -12 -8 0 -20 -14 -20 -34 -1 -9 10 -17 11
-21 5 -3 -6 1 -13 9 -16 22 -8 20 -25 -1 -18 -17 5 -17 5 0 -6 9 -6 17 -18 17
-26 0 -9 6 -14 13 -11 6 2 11 10 9 16 -1 7 2 10 7 7 5 -4 14 2 20 11 10 17 10
16 11 -2 0 -12 5 -26 12 -33 7 -7 8 -12 2 -12 -5 0 -11 -20 -12 -45 -1 -25 3
-45 8 -45 6 0 10 8 10 18 0 14 2 15 9 2 21 -32 -12 -36 -82 -8 -18 7 -26 16
-23 25 3 8 1 11 -4 8 -14 -9 -87 15 -103 34 -11 12 -12 24 -4 51 9 34 10 34
20 13 10 -24 27 -31 27 -12 0 6 -5 20 -12 32 -26 48 -12 117 24 114 12 -1 18
-7 15 -17 -2 -9 3 -22 11 -29 20 -19 34 4 26 44 -3 21 -2 26 4 16 5 -7 14 -11
20 -7z m174 -39 c3 3 11 -2 19 -12 12 -15 12 -16 -1 -8 -18 11 -20 12 -62 15
-31 2 -32 2 -8 9 14 4 30 4 36 -1 6 -4 13 -6 16 -3z m888 -16 c0 -12 -5 -16
-14 -13 -7 3 -21 -2 -30 -11 -12 -12 -16 -13 -16 -3 -1 8 -6 6 -15 -6 -17 -23
-20 -14 -4 15 18 35 79 48 79 18z m-1710 -3 c0 -2 -8 -10 -17 -17 -16 -13 -17
-12 -4 4 13 16 21 21 21 13z m63 -14 c-63 -9 -71 -110 -8 -113 14 -1 10 -4
-13 -12 -51 -16 -76 20 -57 86 8 30 58 59 85 48 11 -4 9 -7 -7 -9z m1597 -53
c0 -6 -4 -7 -10 -4 -5 3 -10 11 -10 16 0 6 5 7 10 4 6 -3 10 -11 10 -16z m30
-19 c0 -5 -2 -10 -4 -10 -3 0 -8 5 -11 10 -3 6 -1 10 4 10 6 0 11 -4 11 -10z
m-1540 -20 c0 -19 -5 -25 -20 -25 -18 0 -27 -94 -11 -123 10 -18 -2 -42 -21
-42 -13 0 -21 72 -9 91 6 11 11 29 11 42 0 12 7 33 16 45 16 23 34 29 34 12z
m1460 -14 c0 -34 40 -89 78 -105 17 -8 32 -21 32 -28 0 -8 5 -11 10 -8 13 8
13 -8 -2 -40 -11 -24 -38 -35 -38 -15 0 23 -22 7 -36 -27 l-16 -36 -34 37
c-40 43 -59 78 -69 124 l-7 33 36 -7 37 -6 -5 51 c-3 29 -1 51 4 51 6 0 10
-11 10 -24z m100 -76 c0 -13 -5 -18 -15 -14 -12 5 -13 10 -4 20 15 19 19 18
19 -6z m388 -26 c32 -9 27 -18 -15 -34 -46 -16 -115 -25 -94 -11 8 5 12 18 8
30 -5 19 -1 21 36 21 23 0 52 -3 65 -6z m-1948 -68 c0 -2 -8 -10 -17 -17 -16
-13 -17 -12 -4 4 13 16 21 21 21 13z m1504 -131 c8 -19 21 -35 29 -35 8 0 21
-7 28 -16 7 -9 22 -20 34 -24 17 -7 17 -9 3 -9 -10 -1 -18 -7 -18 -15 0 -25
31 -40 86 -40 30 0 54 -3 54 -7 0 -4 -19 -28 -43 -52 -34 -34 -46 -41 -55 -31
-6 7 -9 20 -6 29 5 11 2 14 -10 9 -50 -19 -96 35 -91 107 2 27 -2 50 -12 63
l-15 21 6 -22 c10 -32 -5 -34 -39 -6 l-30 25 28 -6 c15 -4 27 -3 26 1 -3 16 1
43 6 43 3 0 11 -16 19 -35z m136 5 c0 -5 -4 -10 -10 -10 -5 0 -10 5 -10 10 0
6 5 10 10 10 6 0 10 -4 10 -10z m653 -42 c-15 -20 -23 -59 -10 -51 6 4 8 0 4
-9 -6 -18 35 -34 55 -22 7 4 8 3 4 -4 -4 -7 -15 -12 -24 -12 -9 0 -26 -7 -36
-15 -10 -8 -23 -12 -28 -9 -5 3 -18 -2 -29 -12 -18 -16 -19 -16 -13 -1 3 10 1
17 -5 17 -6 0 -11 -6 -11 -14 0 -8 -6 -17 -12 -20 -7 -3 -5 -4 6 -3 25 3 35
-67 10 -77 -14 -5 -14 -7 0 -22 15 -14 14 -19 -15 -55 -28 -36 -57 -59 -75
-59 -3 0 -1 7 6 15 6 8 9 19 5 24 -9 15 -57 -19 -51 -35 6 -16 -3 -18 -22 -5
-23 14 -9 44 26 55 36 12 59 40 42 51 -5 3 -18 1 -29 -5 -34 -18 -71 -13 -71
10 0 11 -7 20 -15 20 -8 0 -15 5 -15 10 0 6 6 10 14 10 8 0 17 7 20 16 5 13 1
15 -16 11 -13 -3 -32 1 -42 9 -17 12 -18 14 -3 14 9 0 17 4 17 9 0 14 -28 21
-34 8 -3 -7 -5 -3 -3 8 3 24 41 45 84 45 17 0 35 5 38 10 4 6 23 7 46 4 55 -9
121 18 151 61 12 19 27 35 32 35 5 0 4 -6 -1 -12z m-603 -33 c11 -13 10 -14
-4 -9 -9 3 -16 1 -16 -5 0 -6 -10 -11 -22 -11 l-21 0 23 20 c28 24 25 24 40 5z
m-1650 -25 c0 -5 -2 -10 -4 -10 -3 0 -8 5 -11 10 -3 6 -1 10 4 10 6 0 11 -4
11 -10z m1880 -30 c0 -5 -5 -10 -11 -10 -5 0 -7 5 -4 10 3 6 8 10 11 10 2 0 4
-4 4 -10z m-146 -53 c-3 -8 -12 -18 -20 -21 -20 -8 -18 21 3 33 21 12 25 9 17
-12z m79 10 c3 -8 -1 -14 -9 -14 -15 0 -18 9 -7 20 9 9 10 9 16 -6z m-497 -43
c-9 -9 -20 -14 -23 -10 -4 3 2 13 13 20 25 18 31 12 10 -10z m-1069 -46 c-3
-8 -6 -5 -6 6 -1 11 2 17 5 13 3 -3 4 -12 1 -19z m2009 -44 c-10 -14 -20 -23
-23 -20 -3 3 -1 12 5 19 7 8 8 18 4 22 -4 5 -1 5 6 1 7 -4 12 -2 12 5 0 7 3 9
6 6 4 -4 -1 -18 -10 -33z m-751 -14 c3 -5 1 -10 -4 -10 -6 0 -11 5 -11 10 0 6
2 10 4 10 3 0 8 -4 11 -10z m694 -26 c-15 -16 -25 -21 -28 -13 -2 7 4 18 15
26 30 22 39 15 13 -13z m-1079 -118 c0 -11 -19 -15 -25 -6 -3 5 1 10 9 10 9 0
16 -2 16 -4z m-152 -51 c12 -3 22 -13 22 -21 0 -12 -6 -15 -20 -11 -14 4 -25
-1 -33 -14 -6 -10 -22 -19 -35 -19 -31 0 -62 -17 -62 -34 0 -8 -13 -28 -30
-46 -16 -18 -30 -40 -30 -50 0 -10 -9 -20 -20 -23 -17 -4 -23 1 -19 16 0 1 -4
14 -10 30 -7 18 -7 27 0 27 6 0 6 6 -1 19 -14 28 -13 30 17 42 20 7 29 6 36
-3 5 -8 7 -1 3 21 -5 27 -3 32 10 27 8 -3 13 -2 10 2 -8 13 7 28 39 39 28 10
69 9 123 -2z m337 -5 c3 -5 -3 -18 -15 -30 -11 -11 -20 -22 -20 -25 0 -13 40
-2 90 25 35 19 58 26 64 20 7 -7 3 -15 -9 -24 -18 -13 -18 -14 2 -27 19 -11
20 -15 6 -35 -13 -20 -12 -24 14 -48 15 -14 33 -26 39 -26 14 0 50 -40 38 -41
-5 -1 -19 0 -31 1 -27 2 -30 -15 -5 -29 16 -9 16 -10 -1 -17 -10 -4 -29 -1
-43 6 -44 24 -107 -27 -110 -89 -1 -22 -5 -26 -29 -23 -22 3 -26 0 -21 -13 4
-12 1 -16 -12 -13 -11 2 -18 14 -20 35 -3 30 -5 31 -28 23 -14 -6 -67 -10
-117 -9 -68 1 -84 3 -62 9 17 5 46 13 65 18 56 15 101 42 109 66 5 11 11 20
15 19 16 -7 26 -2 26 13 0 9 5 12 13 8 9 -6 9 -4 -1 8 -8 10 -9 17 -3 20 6 2
7 21 4 46 -4 32 -10 42 -24 42 -28 0 -24 33 8 69 28 32 47 39 58 21z m163
-115 c9 -19 9 -23 -2 -19 -15 6 -29 44 -17 44 4 0 13 -11 19 -25z m-1597 -46
c24 -24 27 -31 36 -89 5 -29 3 -33 -8 -24 -8 7 -22 8 -34 3 -11 -4 -33 -8 -48
-8 -25 -1 -27 1 -17 20 14 25 6 49 -16 49 -12 0 -15 6 -11 20 3 13 -2 28 -16
41 l-22 20 56 -4 c42 -3 62 -10 80 -28z m189 -34 c0 5 9 0 20 -10 11 -10 20
-30 20 -45 0 -14 5 -31 12 -38 9 -9 8 -12 -6 -12 -10 0 -21 -12 -27 -29 -8
-22 -15 -28 -27 -24 -35 12 -40 31 -21 71 15 29 17 45 9 71 -8 28 -7 31 5 21
8 -7 15 -9 15 -5z m-485 -16 c-8 -24 8 -39 42 -39 26 0 38 -31 24 -59 -15 -27
-14 -58 2 -64 8 -3 0 -17 -22 -41 -19 -19 -37 -34 -39 -31 -3 3 7 14 21 26 36
27 34 44 -8 71 -34 23 -45 38 -25 38 6 0 10 6 10 14 0 15 -30 26 -72 26 -38 0
-40 11 -7 41 16 15 29 25 29 23 0 -2 10 1 23 6 12 5 23 9 25 9 2 1 0 -9 -3
-20z m1988 1 c-3 -11 -10 -23 -16 -27 -7 -4 -8 0 -4 11 4 10 7 22 7 27 0 5 4
9 9 9 5 0 7 -9 4 -20z m-23 -46 c0 -9 -32 -33 -44 -34 -5 0 -1 9 9 20 18 20
35 26 35 14z m35 -14 c3 -5 1 -10 -4 -10 -6 0 -11 5 -11 10 0 6 2 10 4 10 3 0
8 -4 11 -10z m-193 -30 c-9 -16 -19 -25 -21 -19 -3 9 26 49 35 49 2 0 -5 -13
-14 -30z m-1942 10 c0 -5 -5 -10 -11 -10 -5 0 -7 5 -4 10 3 6 8 10 11 10 2 0
4 -4 4 -10z m805 -26 c15 -6 15 -8 -1 -25 -18 -20 -12 -36 20 -49 21 -9 21 -9
0 -9 -12 -1 -26 -12 -33 -27 -11 -25 -13 -26 -25 -9 -16 22 -45 28 -66 12 -8
-6 4 9 28 34 23 25 42 52 42 62 0 18 8 21 35 11z m1448 -10 c-4 -11 -8 -12
-13 -4 -4 7 -13 9 -19 6 -6 -4 -11 -2 -11 3 0 6 11 11 25 11 18 0 23 -4 18
-16z m136 -93 c-12 -16 -31 -32 -42 -35 -26 -7 -27 -6 -16 22 5 14 17 22 33
22 16 0 26 7 31 23 3 12 9 17 11 10 3 -7 -5 -25 -17 -42z m-1389 12 c-1 -20
-24 -55 -32 -47 -3 2 -25 0 -49 -5 -24 -5 -45 -8 -48 -6 -9 9 61 64 87 68 15
2 30 5 35 6 4 0 7 -7 7 -16z m1254 -15 c-10 -16 -22 -7 -17 13 4 15 8 17 14 8
4 -7 5 -17 3 -21z m-364 2 c0 -5 -10 -10 -22 -10 -19 0 -20 2 -8 10 19 13 30
13 30 0z m330 -20 c0 -5 -2 -10 -4 -10 -3 0 -8 5 -11 10 -3 6 -1 10 4 10 6 0
11 -4 11 -10z m-1360 -24 c0 -2 -7 -6 -15 -10 -8 -3 -15 -1 -15 4 0 6 7 10 15
10 8 0 15 -2 15 -4z m-50 -42 c-6 -14 -6 -23 -2 -20 4 2 14 1 22 -5 12 -7 9
-9 -10 -9 -14 0 -35 3 -47 6 -18 5 -21 10 -13 24 6 10 20 21 32 23 13 2 24 5
25 6 1 0 -2 -11 -7 -25z m930 -98 c0 -3 -4 -8 -10 -11 -5 -3 -10 -1 -10 4 0 6
5 11 10 11 6 0 10 -2 10 -4z m-1180 -190 c0 -2 -8 -10 -17 -17 -16 -13 -17
-12 -4 4 13 16 21 21 21 13z m-18 -60 c7 4 8 2 4 -5 -9 -13 -26 -5 -25 12 0 9
2 8 6 -1 2 -6 10 -9 15 -6z m963 -63 c23 -11 35 -24 35 -37 0 -16 -3 -17 -12
-8 -23 23 -108 12 -108 -14 0 -20 -8 -18 -42 11 -37 31 -52 32 -46 1 5 -23 3
-24 -21 -14 -14 5 -34 17 -45 26 -18 16 -18 16 -11 -7 l7 -24 -26 19 c-32 24
-32 29 2 32 15 1 56 8 92 16 88 19 133 19 175 -1z m-157 -102 c23 -7 42 -15
42 -20 0 -15 55 -35 100 -37 25 -1 73 -7 107 -14 57 -12 62 -15 57 -36 -8 -30
10 -60 40 -68 28 -7 42 -35 25 -50 -9 -8 -10 -8 -6 0 10 18 -19 51 -33 38 -8
-8 -19 -3 -42 19 -23 24 -32 27 -38 17 -5 -8 -6 -18 -3 -24 3 -5 1 -6 -5 -2
-7 4 -12 13 -12 20 0 8 -7 19 -15 26 -13 10 -19 9 -35 -5 -17 -15 -24 -16 -47
-6 -21 10 -28 9 -35 -1 -7 -10 -11 -9 -19 5 -5 9 -15 17 -22 18 -7 0 -37 31
-67 70 -30 38 -58 69 -62 69 -5 0 -8 5 -8 12 0 7 7 5 18 -5 9 -8 36 -20 60
-26z m693 -8 c13 -16 12 -17 -3 -4 -10 7 -18 15 -18 17 0 8 8 3 21 -13z
m-1451 -13 c6 -11 8 -20 6 -20 -3 0 -10 9 -16 20 -6 11 -8 20 -6 20 3 0 10 -9
16 -20z m1252 -133 c3 -16 0 -24 -9 -24 -8 0 -11 7 -8 14 3 8 5 19 5 24 0 18
8 9 12 -14z m-366 -112 c2 -57 19 -79 55 -71 22 4 29 1 34 -14 4 -11 10 -20
14 -20 16 0 4 -45 -13 -48 -10 -2 -15 -10 -12 -18 3 -9 -4 -16 -19 -20 -39
-10 -58 2 -51 30 3 14 1 28 -4 31 -6 4 -16 21 -24 39 -12 28 -20 34 -56 39
-41 5 -60 19 -60 44 0 15 51 26 85 17 28 -7 28 -7 21 32 -7 38 -7 38 11 21 11
-11 18 -34 19 -62z m-266 -34 c0 -5 13 -14 28 -19 25 -8 28 -14 25 -39 -4 -21
3 -37 23 -61 16 -18 34 -32 41 -32 7 0 13 -4 13 -10 0 -5 -5 -10 -12 -10 -34
0 -64 -62 -35 -73 8 -4 9 -6 0 -6 -16 -1 -43 27 -43 45 0 8 -5 14 -11 14 -6 0
-25 11 -43 25 -18 14 -39 25 -45 25 -7 0 -24 9 -38 20 -19 14 -29 17 -38 10
-15 -12 -9 -44 10 -60 8 -6 11 -18 8 -26 -3 -8 -1 -14 4 -14 6 0 9 -21 8 -46
-1 -40 3 -51 29 -75 21 -20 27 -32 19 -37 -20 -13 -26 -57 -9 -71 12 -10 13
-18 5 -32 -12 -23 -32 -24 -49 -4 -7 8 -16 15 -20 15 -14 0 -20 -32 -9 -46 9
-11 7 -14 -7 -14 -11 0 -26 4 -34 10 -12 7 -11 12 7 28 29 24 41 72 19 72 -8
0 -22 -13 -31 -30 -19 -36 -28 -39 -15 -5 5 14 8 25 6 25 -3 0 -11 2 -19 6
-21 8 -46 -54 -26 -67 8 -5 9 -9 3 -9 -6 0 -18 8 -27 18 -15 16 -15 20 3 50
21 34 27 82 10 82 -5 0 -12 -11 -16 -24 -4 -17 -11 -23 -21 -19 -19 7 -34 -16
-27 -39 7 -22 -12 -24 -20 -2 -12 30 -6 66 25 147 67 177 111 241 174 251 17
2 30 5 30 6 0 2 84 26 98 29 4 0 7 -3 7 -8z m721 -8 c13 -16 12 -17 -3 -4 -10
7 -18 15 -18 17 0 8 8 3 21 -13z m-26 -55 c0 -29 3 -33 30 -36 52 -5 57 -9 43
-31 -16 -27 -70 -50 -76 -33 -3 9 -9 9 -23 2 -20 -11 -28 3 -8 16 6 3 9 15 6
25 -3 10 -1 22 4 25 5 3 9 15 9 28 0 18 7 36 14 36 1 0 1 -15 1 -32z m-435
-78 c0 -5 -8 -10 -17 -10 -15 0 -16 2 -3 10 19 12 20 12 20 0z m327 -99 c10
-10 25 -21 33 -24 11 -4 9 -6 -5 -6 -11 -1 -25 -11 -30 -23 -6 -14 -21 -24
-37 -26 -23 -3 -28 1 -28 18 0 18 -4 20 -22 14 -17 -5 -13 3 17 29 47 42 49
43 72 18z m-519 -46 c-3 -3 -9 2 -12 12 -6 14 -5 15 5 6 7 -7 10 -15 7 -18z
m83 -21 c24 4 55 10 68 13 18 4 22 3 16 -7 -6 -10 -3 -12 13 -8 12 4 22 3 22
-1 0 -3 -39 -6 -87 -6 -68 0 -87 3 -90 15 -4 12 -3 13 5 1 7 -10 21 -12 53 -7z
m211 -55 c-4 -30 -3 -31 24 -27 16 3 37 9 47 13 26 11 21 -12 -8 -39 -35 -33
-24 -56 25 -56 22 0 42 -4 45 -10 9 -14 69 -12 84 3 10 10 11 7 6 -14 -6 -24
-3 -26 42 -36 26 -6 63 -9 81 -6 20 3 32 1 32 -6 0 -6 -7 -11 -15 -11 -18 0
-19 -12 -4 -27 14 -14 8 -55 -10 -61 -9 -3 -11 0 -6 7 9 16 -13 68 -33 76 -24
9 -45 -36 -22 -50 15 -10 12 -46 -7 -67 -24 -26 -33 -22 -33 15 -1 37 -31 76
-74 95 -40 18 -66 7 -66 -28 0 -22 6 -29 26 -34 15 -4 24 -10 21 -13 -11 -11
14 -45 29 -39 8 3 14 1 14 -4 0 -29 -151 -3 -209 36 -52 34 -115 134 -106 166
17 56 60 120 90 133 16 7 30 14 31 14 0 1 -2 -13 -4 -30z m1085 -451 c-3 -8
-6 -5 -6 6 -1 11 2 17 5 13 3 -3 4 -12 1 -19z m-7 -37 c0 -6 -4 -12 -8 -15 -5
-3 -9 1 -9 9 0 8 4 15 9 15 4 0 8 -4 8 -9z"/>
<path d="M2635 2980 c3 -5 11 -10 16 -10 6 0 7 5 4 10 -3 6 -11 10 -16 10 -6
0 -7 -4 -4 -10z"/>
<path d="M3460 2730 c0 -5 7 -10 16 -10 8 0 12 5 9 10 -3 6 -10 10 -16 10 -5
0 -9 -4 -9 -10z"/>
<path d="M2000 2250 c0 -5 5 -10 11 -10 5 0 7 5 4 10 -3 6 -8 10 -11 10 -2 0
-4 -4 -4 -10z"/>
<path d="M1450 1841 c0 -6 5 -13 10 -16 6 -3 10 1 10 9 0 9 -4 16 -10 16 -5 0
-10 -4 -10 -9z"/>
<path d="M2500 426 c0 -18 17 -29 30 -21 8 5 7 11 -1 21 -15 18 -29 18 -29 0z"/>
<path d="M1645 4000 c-3 -5 -1 -10 4 -10 6 0 11 5 11 10 0 6 -2 10 -4 10 -3 0
-8 -4 -11 -10z"/>
<path d="M1781 3863 c-55 -44 -158 -159 -149 -168 2 -3 24 19 49 49 24 29 70
73 102 97 31 24 57 45 57 46 0 11 -31 -2 -59 -24z"/>
<path d="M2380 3645 c0 -2 10 -10 23 -16 20 -11 21 -11 8 4 -13 16 -31 23 -31
12z"/>
<path d="M2430 3611 c0 -5 7 -14 15 -21 12 -10 15 -10 15 3 0 8 -7 17 -15 21
-8 3 -15 2 -15 -3z"/>
<path d="M1073 3400 c-15 -23 -8 -47 18 -60 49 -27 72 3 38 49 -26 36 -39 39
-56 11z"/>
<path d="M20 3090 c0 -5 5 -10 11 -10 5 0 7 5 4 10 -3 6 -8 10 -11 10 -2 0 -4
-4 -4 -10z"/>
<path d="M2178 3093 c7 -3 16 -2 19 1 4 3 -2 6 -13 5 -11 0 -14 -3 -6 -6z"/>
<path d="M1570 3060 c0 -5 -13 -23 -29 -39 -35 -36 -54 -125 -25 -119 28 5 63
77 61 126 -1 23 -3 42 -4 42 -2 0 -3 -4 -3 -10z"/>
<path d="M3745 3050 c-12 -5 25 -7 91 -6 62 0 110 4 107 9 -6 10 -173 8 -198
-3z"/>
<path d="M1682 2888 c-13 -21 -22 -47 -20 -59 3 -19 5 -18 26 10 14 20 22 42
20 59 l-3 27 -23 -37z"/>
<path d="M1900 2779 c0 -5 -4 -7 -10 -4 -5 3 -10 -1 -10 -10 0 -12 6 -15 20
-10 14 5 20 2 20 -9 0 -9 4 -16 9 -16 6 0 6 12 0 30 -11 29 -29 41 -29 19z"/>
<path d="M1775 2748 c8 -36 12 -44 20 -36 8 8 -7 68 -17 68 -6 0 -7 -14 -3
-32z"/>
</g>
</svg>
