<svg xmlns="http://www.w3.org/2000/svg" id="svg2" version="1.1" viewBox="0 0 640 353"><title id="title4207">butterflyfish</title><g id="layer1" transform="translate(-259.94 -1801.6)"><path id="path3062" d="m373.11 1918.1c-3.5635 6.4148-35.444 70.253-42.756 77.96-10.525 11.093-33.685 15.783-33.685 15.783-3.4864 0.7747-8.522 1.6785-13.945 1.9368-5.423 0.2582-6.5851-1.8077-8.9095-2.066-2.3242-0.2582-3.8735 0.9039-5.423 3.7446-1.5496 2.8406-0.38739 5.9396 0.90379 6.7143 1.2913 0.7747 5.423 1.9368 5.423 1.9368s-9.9423-0.9038-10.975 0c-1.033 0.9039-2.8409 4.261-2.1952 10.072 0.64555 5.8105 9.9423 9.555 12.396 10.975 2.4533 1.4204 13.041 2.3243 14.203 3.4864 7.3664-0.2436 15.358 4.5517 23.35 10.945 7.9921 6.3937 41.958 31.169 57.543 37.563 109.49 79.802 330.7 58.283 378.04 32.592 47.345-25.691 50.668-41.492 51.899-62.924 1.1627-20.237-22.461-43.286-15.903-42.305 6.2925 0.9418 59.394 41.133 87.259 39.13 9.602-0.6901 8.4761-34.019 12.931-40.182 10.866-15.032 5.1976-13.078 7.1766-33.103 1.4098-14.266 5.908-48.916 3.0663-78.823-39.426-3.4461-68.968 30.644-91.607 52.443-7.5288 7.2493-18.023 17.308-22.516 16.609 0 0 10.833-7.9817 15.919-27.14 4.5888-17.286 10.414-31.848 0.49243-47.553-30.864-48.856-52.278-56.397-37.589-60.382 30.717-8.3325 108.98 36.02 108.98 36.02-65.06-59.102-403.78-154.55-494.08 36.567z" style="color:#000;fill:#e8f8fd"/><path id="path3969-9-1-3-8-6-4" d="m466.29 2024.5c14.621 63.372 35.63 70.582 78.739 92.3 64.87 32.681 161.9 20.592 154.97 9.0431-98.845 5.6018-208.42-30.901-233.71-101.34z" style="color:#000;fill:#f3fcfd"/><path id="path3969-9-1-3-8-6" d="m483.18 2000.8c14.974 63.196 46.192 66.961 83.412 89.963 51.038 31.541 155 21.734 146.41 16.831-117.81-8.9395-218.7-44.213-229.82-106.79z" style="color:#000;fill:#f3fcfd"/><path id="path3969-9-1-3-8" d="m734.33 2089.6c-25.781-2.8648-127.08-31.373-163.78-46.195-24.971-10.086-49.633-40.819-67.117-65.124 13.746 61.354 31.35 72.005 95.873 96.194 64.524 24.189 135.5 29.724 135.02 15.125z" style="color:#000;fill:#f3fcfd"/><path id="path3969-9-1-3" d="m746.01 2067c-66.081-15.115-129.08-30.717-161.44-52.426-29.234-19.612-44.181-48.607-61.665-72.912 3.4775 76.992 53.319 79.626 94.316 105.54s143.44 38.022 128.79 19.798z" style="color:#000;fill:#f3fcfd"/><path id="path3062-71" d="m384.01 1897.9c-3.5635 6.4149-46.347 90.503-53.659 98.209-10.525 11.093-33.685 15.783-33.685 15.783-3.4864 0.7747-8.522 1.6785-13.945 1.9368-5.423 0.2582-6.5851-1.8077-8.9095-2.066-2.3242-0.2582-3.8735 0.9039-5.423 3.7446-1.5496 2.8406-0.38739 5.9396 0.90379 6.7143 1.2913 0.7747 5.423 1.9368 5.423 1.9368s-9.9423-0.9038-10.975 0c-1.033 0.9039-2.8409 4.261-2.1952 10.072 0.64555 5.8105 9.9423 9.555 12.396 10.975 2.4533 1.4204 13.041 2.3243 14.203 3.4864 7.3664-0.2436 15.358 4.5517 23.35 10.945 7.9921 6.3937 41.958 31.169 57.543 37.563 131.15 87.26 90.839-22.558 63.828-115.04-20.913-71.602-48.503-95.811-48.855-84.262z" style="color:#000;fill:#f3fcfd"/><path id="path3878" d="m272.2 2013.2c-2.7744 3.8415 0.10671 3.6281 3.7348 5.7622 3.6281 2.1342 10.351 12.485 13.552 14.939 3.2013 2.4543-6.1891-3.7348-12.592-4.1616-6.4025-0.4269-13.445 0.8536-14.299-1.0671-0.85367-1.9208 1.2805-4.055 2.7744-4.6952 1.4939-0.6403 8.6434-0.2135 8.0032-0.747-0.64025-0.5335-5.5489 0.2134-5.5489-2.561s0.96039-6.8294 1.9208-7.1495c0.96039-0.3201 2.4543-0.3201 2.4543-0.3201z" style="color:#000;fill:#ffe993"/><path id="path3880" d="m275.3 2012.3c2.7744 1.6006 8.43 1.7073 12.912 0.9604 4.4818-0.747 24.436-5.7623 26.677-6.2959 2.2409-0.5335 24.543 4.6952 27.851 4.8019s1.7074 5.869 2.7744 7.7898c1.0671 1.9208-2.2409 2.7744-8.9636 2.9878-6.7227 0.2135-20.702 1.3873-22.409 2.9879-1.7073 1.6006 0.64026 3.4147 7.2562 6.0824 6.616 2.6677 10.778 1.1738 17.287 2.7744 6.5092 1.6007 8.2166 7.2562 13.765 10.137 5.5489 2.8812 15.366 2.6677 16.86 0.2134 1.4939-2.4543 3.308 2.4543 5.4422 0.1067s2.7744-5.869 3.5214-6.616c0.74697-0.7469 14.192 9.3904 17.394 11.525 3.2013 2.1342 7.2562 2.9879 10.031 6.616 2.7744 3.6281 0.21342 5.9757 3.6281 9.0703 3.4147 3.0945 4.4818 2.3476 4.6952 3.4147 0.21342 1.067-1.4939 1.2805-0.32012 2.9878s3.308 4.9086 3.308 6.8294c0 1.9207 1.0671 4.1616 2.3476 3.9482s7.7898-4.8019 9.0703-5.7623c1.2805-0.9603 9.6038-10.351 11.951-12.272 2.3476-1.9208 9.4971-10.991 9.4971-10.991s-7.1495 11.098-9.3904 12.485c-2.2409 1.3873-8.9636 8.8569-10.244 10.884-1.2805 2.0275-0.64025 3.308-1.0671 7.1496-0.42684 3.8415 0 4.1616 3.4147 5.0153 3.4147 0.8536 1.6006 1.9207 3.0946 3.8415 1.4939 1.9207 4.8019 5.7623 6.616 6.0824 1.814 0.3201 5.7623-1.1738 5.122-0.6403-0.64026 0.5336-3.0946 3.0946-1.7074 4.5885 1.3872 1.494 7.0428 2.3476 8.0032 2.4543 0.96037 0.1067-0.53355 5.869 1.2805 7.1496 1.814 1.2805 6.8294-0.747 7.4696 1.067 0.64025 1.8141 2.8812 7.7898 4.2684 10.458 1.3872 2.6677 3.6281 1.4939 7.3629 3.4147 3.7348 1.9207 1.3872 5.0153 5.7623 5.2287 4.3751 0.2135 8.7501-0.6402 12.058-1.2805 3.308-0.6402 35.641 4.6952 40.123 4.5885 4.4818-0.1067 29.126 6.7978 33.714 7.8649 4.5885 1.0671 23.447-1.4824 24.835 0.4384 1.3872 1.9207 37.825 3.9078 36.605 5.6584-5.4636 7.835-52.528 1.1795-61.015 1.3929-6.9372 0.1745-35.312-1.1623-38.086-1.8025-2.7744-0.6403-56.342-7.4697-80.245-15.366-23.903-7.8965-56.983-20.381-65.306-27.211-8.3233-6.8294-13.765-10.564-16.433-11.311-2.6677-0.747-25.824-14.619-27.531-16.113-1.7073-1.4938-26.891-20.275-29.132-21.662-2.2409-1.3872-9.4971-6.0824-11.845-7.0428-2.3476-0.9603-12.378-3.2012-15.9-3.8415-3.5214-0.6402-16.22-5.7623-18.247-8.0032-2.0275-2.2409-1.4939-10.031-1.4939-10.031s2.1342 1.1738 6.5092 0.747c4.3751-0.4269 9.4971-0.747 12.378 0.5335 2.8811 1.2805 10.137 4.8019 10.137 4.8019s-7.0428-6.8294-9.177-9.6038-3.6281-5.2288-6.9361-7.0428-5.3354-2.8812-4.2684-4.0549c1.0671-1.1738 4.6952-2.1342 4.6952-2.1342z" style="color:#000;fill:#ffd738"/><path id="path3902" d="m382.85 1996.1c-3.0946 5.9757-2.8811 13.659-2.561 18.461 0.32012 4.8019 0.96037 12.378 1.0671 15.473 0.1067 3.0945 5.8037-1.0766 3.9896-0.4364-17.908 21.859-0.14365 31.782-6.8612 64.259-3.9801 12.695-11.501 1.0878-15.982-2.0068-4.4818-3.0945-7.2992-61.932-7.6194-63.853-0.32013-1.9208 5.5584 2.5705 4.0645 0.4363s-8.2166-9.3904-7.3629-12.058c0.85367-2.6677 2.9878-0.5335 3.7348-5.122 0.74696-4.5885 0.10671-5.7623 2.7744-7.7898 2.6677-2.0274 4.1616-4.2683 4.8019-6.1891 0.64025-1.9207-5.6428 4.5438-10.763 1.5671-2.3718-1.3788 1.8459-10.349 2.5929-14.297 0.74697-3.9482 2.0275-9.9335 3.8734-14.02 1.4308-3.1677 8.7466-37.407 9.1546-40.159 5.6546-38.142 15.617 21.06 13.816 45.248 1.8429 12.288-2.8065 17.369 5.8785 24.627z" style="color:#000;fill:#000"/><path id="path3882" d="m104.7 918.1c0 25.66-21.374 46.461-47.741 46.461s-47.741-20.801-47.741-46.461 21.374-46.461 47.741-46.461 47.741 20.801 47.741 46.461z" transform="matrix(.44991 0 0 .44852 344.16 1601.2)" style="color:#000;stroke:#000;stroke-width:6.57;fill:#fff"/><path id="path3882-1" d="m104.7 918.1c0 25.66-21.374 46.461-47.741 46.461s-47.741-20.801-47.741-46.461 21.374-46.461 47.741-46.461 47.741 20.801 47.741 46.461z" transform="matrix(.16060 0 0 .17697 360.48 1851.5)" style="color:#000;fill:#fff"/><path id="path3904" d="m439.58 1965.2c7.9203 20.009 4.1686 29.597 7.9203 40.435s12.895 33.646 23.761 45.021c10.148 10.624 14.337 42.274 14.59 47.939 0.2428 5.4298 3.6006-9.2886 0-29.597-3.7666-21.245-14.173-20.426-20.009-37.517s-12.089-30.848-14.173-40.018c-0.81895-9.9936-12.089-18.438-12.089-26.262z" style="color:#000;fill:#000"/><path id="path3906" d="m473.61 2042c23.269-12.263 46.602-23.362 63.933-33.157 15.539-8.7821 45.534-30.566 40.852-25.71-5.1736 5.3663-13.54 21.828-7.9203 29.064-4.5945 24.981-4.7202 42.266-16.257 54.774 2.5012 13.041-2.0843 16.767-2.0843 26.083 0 9.3152-8.8649 2.4611-24.178-7.0795-21.639-13.482-39.852-16.077-39.602-21.611 0.36977-8.1554-14.349-22.714-14.744-22.361z" style="color:#000;fill:#fff"/><path id="path3908" d="m580.14 1807.4c-19.719 117.99 76.957 197.2 199.95 189.24 9.9273-4.2172 24.87 4.9374 25.001 2.8 0.39915-6.4936 22.807-48.592-5.987-29.276-1.2489 0.8378-8.4061 13.902-13.093 11.77-3.0512-1.3881-5.7709 1.0829-5.4554-0.6018 1.3566-7.2434 5.5627-8.9374 5.5627-8.9374s-30.959-0.057-53.71-1.6444c-83.549-7.0182-133.45-72.7-120.63-162.06z" style="color:#000;fill:#fff"/><path id="path3910" d="m816.46 1973c-4.2327 10.335-6.8084 19.525-8.3956 24.692-1.5873 5.1675-2.6455 23.489 3.7037 33.354 6.3491 9.8653 8.4655 12.214 8.4655 12.214s-37.099-16.309-37.691-20.53c-0.55242-3.9378 21.435-12.137 22.347-25.038 0.4114-5.8189 5.512-20.052-2.6455-26.777-6.4994-5.3585 37.344-35.353 37.344-35.353-11.039 8.9394-18.895 27.103-23.128 37.438z" style="color:#000;fill:#ff7f2a"/><path id="path3912" d="m611.69 1810.1c-24.559 103.35 54.515 176.99 172.08 161.14-7.5311-1.6301-22.544-40.57-22.617-47.384-0.14186-13.392-18.007-68.613-16.091-71.192 11.162-15.028 56.783-4.2101 43.515-6.3868-12.75-2.0918-67.638-33.583-176.88-36.177z" style="color:#000;fill:#000"/><path id="path3914" d="m746.65 1854.3c-13.104-8.2082 10.524 51.304 11.182 57.553 0.65776 6.2486 1.9732 19.404 7.5641 29.27 5.5909 9.8662 12.826 29.27 15.457 30.585 2.631 1.3155 6.2486-0.9866 6.2486-0.9866s6.5774-7.564 6.9063-12.826c0.32886-5.262 5.5908-14.799 5.9197-21.048 0.3289-6.2485 5.9197-17.43-1.9732-28.612-7.893-11.182-28.612-37.163-31.901-41.438-3.2887-4.2754-15.266-13.075-11.839-16.115 10.866-9.6371-5.8367-2.7748-8.6593-0.4375-2.1494 1.7798 1.0953 4.0551 1.0953 4.0551z" style="color:#000;fill:#ff7f2a"/><path id="path3916" d="m816.37 1973.4c6.2486-14.47 13.155-30.256 23.021-38.149 9.8662-7.893 23.679-11.84 23.679-11.84s-23.679 17.43-31.243 31.901c-7.5641 14.47-14.142 23.021-18.746 44.727-4.6042 21.706 0.3289 32.226 0.3289 33.542 0 1.3155-7.2352-17.427-6.9063-27.622 0.32886-10.195 9.8662-32.558 9.8662-32.558z" style="color:#000;fill:#fc0"/><path id="path4022" d="m766.33 2045.6c-42.988 85.456-66.168 85.63-103.14 97.306-36.976 11.677 89.522-9.7307 110.93-35.03 21.407-25.3 17.515-56.438 9.7306-66.168-7.7845-9.7306-17.515 3.8923-17.515 3.8923z" style="color:#000;fill:#f3fcfd"/><path id="path3920" d="m681.78 2145.6c20.828-1.7357 46.057-5.3934 56.471-11.468 10.414-6.0748 35.147-18.224 39.92-23.865 4.773-5.6409 16.721-19.193 17.79-23.865 8.2262-35.942-11.493-51.546-12.129-52.91-0.43395-2.1696 17.805 30.431-0.98858 56.253-7.9443 10.915-45.461 34.407-55.875 34.841-10.414 0.4339-28.204 13.451-42.957 14.319-14.753 0.8679-24.702 10.913-32.977 10.414-8.4717-0.5106 13.079 2.2483 30.746-3.7188z" style="color:#000;fill:#ffd83a"/><path id="path3918" d="m843.44 1942c-8.1406 9.6297-26.68 38.969-28.161 47.529-1.48 8.5597-2.9602 27.462-1.48 36.735 1.48 9.2731-4.4404 14.623 14.061 23.896 18.502 9.273 33.211 11.17 38.381 12.24 5.1698 1.07 5.8181 0.9072 7.698-9.4358s-10.339-13.553-11.749-22.113c-1.4098-8.5597-1.8798 0.7133 8.4596 8.5597s6.1096 4.2799 8.4596-5.7065c2.3498-9.9863 1.4099-5.3498-2.8199-17.833s-6.6762-16.726 2.3499-3.2099c8.8434 13.243 11.511-7.5452 12.689-4.9932 6.0034 13.006-4.1488-17.345 1.0209-27.688 5.1698-10.343-19.204-1.7036-22.494 0.08-3.2898 1.7832 4.6997-3.2099 12.219-6.4197 7.5197-3.21 17.859-15.336 17.859-21.043 0-5.7064-23.969 4.2799-20.679 2.4967 3.2899-1.7834 7.6002 0.3275 10.89-7.8756 2.8971-5.025 8.1646-34.561 0.99367-36.313-26.46-0.6268-30.864 12.117-47.699 31.093z" style="color:#000;fill:#f3fcfd"/><path id="path3062-7" d="m373.11 1918.1c-3.5635 6.4148-35.444 70.253-42.756 77.96-10.525 11.093-33.685 15.783-33.685 15.783-3.4864 0.7747-8.522 1.6785-13.945 1.9368-5.423 0.2582-6.5851-1.8077-8.9095-2.066-2.3242-0.2582-3.8735 0.9039-5.423 3.7446-1.5496 2.8406-0.38739 5.9396 0.90379 6.7143 1.2913 0.7747 5.423 1.9368 5.423 1.9368s-9.9423-0.9038-10.975 0c-1.033 0.9039-2.8409 4.261-2.1952 10.072 0.64555 5.8105 9.9423 9.555 12.396 10.975 2.4533 1.4204 13.041 2.3243 14.203 3.4864 7.3664-0.2436 15.358 4.5517 23.35 10.945 7.9921 6.3937 41.958 31.169 57.543 37.563 109.49 79.802 330.7 58.283 378.04 32.592 47.345-25.691 50.668-41.492 51.899-62.924 1.1627-20.237-22.461-43.286-15.903-42.305 6.2925 0.9418 59.394 41.133 87.259 39.13 9.602-0.6901 8.4761-34.019 12.931-40.182 10.866-15.032 5.1976-13.078 7.1766-33.103 1.4098-14.266 6.6869-49.695 3.8451-79.602-39.426-3.4461-69.746 31.422-92.386 53.222-7.5288 7.2493-18.023 17.308-22.516 16.609 0 0 10.833-7.9817 15.919-27.14 4.5888-17.286 10.414-31.848 0.49243-47.553-30.864-48.856-52.278-56.397-37.589-60.382 30.717-8.3325 108.98 36.02 108.98 36.02-79.227-63.33-403.71-155.23-494.08 36.567z" style="color:#000;stroke:#000;stroke-width:2.9514;fill:none"/><path id="path4000" d="m74.899 2073.6c0 5.6016-3.4931 10.143-7.802 10.143s-7.802-4.541-7.802-10.143c0-5.6016 3.4931-10.143 7.802-10.143s7.802 4.541 7.802 10.143z" transform="matrix(.73349 0 0 .56908 320.13 834.23)" style="color:#000;fill:#000"/><path id="path3904-4" d="m438.63 1962.5c7.2889 19.425 7.5005 25.666 11.348 36.223 35.457 72.002 17.889 40.278 15.901 27.454-6.003-16.653-12.059-29.955-14.456-38.959-1.4686-9.9062-12.148-16.921-12.793-24.718z" style="color:#000;fill:#ffd738"/><path id="path4020" d="m474.68 2042.5c5.5505-3.2798 20.75-12.917 22.769-12.16-1.6643 4.7873 7.5384 26.64-2.0804 38.904-0.50459 1.2614-5.8028-3.5322-9.5872-3.2799s-4.0367-13.372-8.3258-16.147c-4.289-2.7753-2.7752-7.3166-2.7752-7.3166z" style="color:#000;fill:#ffd738"/><path id="path3969" d="m472.55 2003.5c29.026-33.564 44.299-57.515 56.818-86.246 8.5183-19.55 28.709-48.41 48.322-61.728-50.344 10.499-55.951 56.345-75.415 85.008-23.831 35.095-31.708 51.586-36.734 66.86-5.0268 15.274 7.0093-3.8941 7.0093-3.8941z" style="color:#000;fill:#f3fcfd"/><path id="path3969-1" d="m464.84 1985.6c28.137-37.682 31.904-55.712 53.526-95.489 10.795-19.858 27.846-42.445 63.147-58.792-59.437 4.0148-71.621 53.679-90.023 85.458-22.532 38.91-29.608 56.942-33.764 73.471-4.1557 16.529 7.1149-4.6485 7.1149-4.6485z" style="color:#000;fill:#f3fcfd"/><path id="path3969-7" d="m453.06 1978.8c23.905-48.204 32.715-75.578 46.146-106.7 9.5072-22.033 42.16-57.947 81.829-62.747-73.608-5.3119-80.689 37.05-94.849 63.737-22.374 42.168-28.452 85.306-32.902 102.84-4.4506 17.538-0.22366 2.8695-0.22366 2.8695z" style="color:#000;fill:#f3fcfd"/><path id="path3969-3" d="m447.18 1967.4c7.6592-42.463 17.479-58.708 21.495-86.187 2.7327-18.698 11.72-46.516 25.39-62.468-40.601 20.695-33.166 59.642-43.136 88.679-7.2665 10.377-0.72138 76.178-3.7497 59.976z" style="color:#000;fill:#f3fcfd"/><path id="path3969-3-4" d="m440.96 1959.1c-1.0586-43.135 2.9486-47.787 1.3424-75.511-1.093-18.865 1.3234-26.896 11.496-45.276-35.595 28.455-19.682 44.075-23.593 74.527-5.0254 11.628 16.987 61.52 10.755 46.261z" style="color:#000;fill:#f3fcfd"/><path id="path3969-3-43" d="m437.07 1976.9c-13.164-41.091-9.0006-46.805-18.35-72.955-6.3617-17.794-9.9218-17.76-5.3377-38.262-24.723 44.413-9.2738 35.152-0.38115 50.364s34.329 73.747 24.069 60.853z" style="color:#000;fill:#f3fcfd"/><path id="path3969-9" d="m774 2016.6c-69.238-13.477-121.83-30.24-149.68-47.438-21.773-13.442-57.44-50.776-74.052-73.869 14.227 60.045 45.203 75.881 102.85 105.61 57.651 29.729 131.08 34.633 120.88 15.698z" style="color:#000;fill:#f3fcfd"/><path id="path3969-9-1" d="m761.98 2039.4c-64.863-12.796-126.33-26.569-155.21-46.974-21.995-15.54-51.19-48.607-68.674-72.912 3.1378 73.516 62.514 86.019 98.989 106.32 36.474 20.299 130.63 25.01 124.9 13.568z" style="color:#000;fill:#f3fcfd"/></g><metadata/></svg>