<svg xmlns="http://www.w3.org/2000/svg" xmlns:xlink="http://www.w3.org/1999/xlink" width="800.899" height="182.88" enable-background="new 0 0 429.899 182.88" overflow="visible" viewBox="0 0 429.899 182.88" xml:space="preserve"><metadata><rdf:RDF xmlns="http://web.resource.org/cc/" xmlns:dc="http://purl.org/dc/elements/1.1/" xmlns:rdf="http://www.w3.org/1999/02/22-rdf-syntax-ns#"><Work><dc:title>Animal</dc:title><dc:description>Animal</dc:description><dc:subject><rdf:Bag><rdf:li>animal</rdf:li><rdf:li>mammal</rdf:li><rdf:li>kangaroo</rdf:li></rdf:Bag></dc:subject><dc:publisher><Agent rdf:about="http://www.openclipart.org/"><dc:title>Open Clip Art Project</dc:title></Agent></dc:publisher><dc:creator><Agent><dc:title>ArtFavor</dc:title></Agent></dc:creator><dc:rights><Agent rdf:about="http://web.resource.org/cc/PublicDomain"><dc:title>Public Domain</dc:title></Agent></dc:rights><dc:date>2005/10/03</dc:date><dc:format>image/svg+xml</dc:format><dc:type>http://purl.org/dc/dcmitype/StillImage</dc:type><license rdf:resource="http://web.resource.org/cc/PublicDomain"/></Work><License rdf:about="http://web.resource.org/cc/PublicDomain"><permits rdf:resource="http://web.resource.org/cc/Reproduction"/><permits rdf:resource="http://web.resource.org/cc/Distribution"/><permits rdf:resource="http://web.resource.org/cc/DerivativeWorks"/></License></rdf:RDF><variableSets xmlns="http://ns.adobe.com/Variables/1.0/"><variableSet locked="none" varSetName="binding1"><variables/><v:sampleDataSets xmlns="http://ns.adobe.com/GenericCustomNamespace/1.0/" xmlns:v="http://ns.adobe.com/Variables/1.0/"/></variableSet></variableSets><sfw xmlns="http://ns.adobe.com/SaveForWeb/1.0/"><slices/><sliceSourceBounds width="429.899" height="182.88" x="137.566" y="465.707" bottomLeftOrigin="true"/></sfw></metadata><switch><g><g id="Layer_1"><g><path fill="#DFDCBF" fill-rule="evenodd" stroke="#000" stroke-miterlimit="2.414" stroke-width=".36" d="M31.703,28.256c-0.722-3.607-5.483-10.822-8.946-15.583c-0.865-1.009-1.731-5.626-1.731-5.626 c0.433-1.876-0.866-1.732-0.866-1.732c-5.339-0.433-4.329,9.235-3.607,11.976c1.299,4.617,5.05,8.946,5.771,9.522 c1.299,1.298,3.318,5.482,3.318,5.482C30.837,32.295,32.568,33.305,31.703,28.256z" clip-rule="evenodd"/><path fill="#B5B299" fill-rule="evenodd" d="M19.294,22.34c0,0-3.174-4.906-2.741-8.801 c0,0,0.144-1.876,1.154-1.154c1.009,0.72,3.03,4.472,3.607,5.193c0.289,0.723,1.876,3.751,2.597,5.049 c0.721,1.299,4.761,7.792,4.905,8.802c0.145,1.154-2.452,1.442-2.452,1.442s-2.165-4.616-3.896-6.348 C20.881,24.937,19.294,22.34,19.294,22.34z" clip-rule="evenodd"/><path fill="#4B3B34" fill-rule="evenodd" stroke="#000" stroke-miterlimit="2.414" stroke-width=".36" d="M71.524,155.655c-0.865,1.154-1.731,2.885-2.741,3.606c-1.443,1.298-4.907,1.155-6.782,1.298 c-1.731,0.145-1.731,1.012-4.905,3.319c-3.03,2.454-7.503,1.442-10.244,1.009c-2.597-0.288-1.731-2.307-1.731-2.307 c-0.577-0.434-2.453-0.434-3.606-0.577c-1.154-0.145-1.875-1.587-1.875-1.587c0-7.648,5.482-7.936,5.482-7.936 c1.443-1.587,3.896-2.165,5.338-1.587c1.443,0.72,5.339-0.578,7.215-0.578c1.298,0,4.039-0.578,5.771-1.444L71.524,155.655z" clip-rule="evenodd"/><path fill="#D8C8B0" fill-rule="evenodd" stroke="#000" stroke-miterlimit="2.414" stroke-width=".36" d="M71.235,155.942c0.289-0.433,0.722-0.865,1.01-1.009c1.01-0.723,9.667-4.039,11.831-4.329 c2.309-0.578,16.737-7.213,20.199-7.936c3.463-0.72,6.349-2.596,7.358-5.048c1.155-2.597,2.597-8.08,8.513-14.718 c5.916-6.491,15.727-19.044,18.035-20.774c2.453-1.876,18.467-13.418,21.93-14.861c3.462-1.587-23.518-6.638-35.493,1.297 c-2.02,1.3-11.83,25.683-17.89,30.588c-3.896,3.174-1.443,12.12-19.622,19.045c0,0-21.354,8.368-22.508,9.666 c-0.288,0.289-2.02,1.009-2.597,1.299C49.161,155.077,71.235,155.942,71.235,155.942z" clip-rule="evenodd"/><path fill="#4B3B34" fill-rule="evenodd" stroke="#000" stroke-miterlimit="2.414" stroke-width=".36" d="M79.748,177.584c-0.577,0.578-1.442,1.155-1.587,1.444c-1.442,2.02-8.224,2.165-8.224,2.165s-2.164-0.145-3.318-0.435 c-1.01-0.288-4.04,0.145-4.618,1.154c-0.721,1.01-5.482,1.01-6.492,0.29c-1.01-0.577-1.587-0.722-3.174-0.867 c-1.732-0.143-0.722-4.039-0.722-4.039c-4.039,0.288-3.317-2.309-2.741-4.761c0.433-2.309,2.886-3.319,2.886-3.319 c1.298-4.039,5.193-4.039,8.512-2.597c2.597,1.155,5.194,0.723,10.1,0L79.748,177.584z" clip-rule="evenodd"/><path fill="#D8C8B0" fill-rule="evenodd" stroke="#000" stroke-miterlimit="2.414" stroke-width=".36" d="M79.604,177.874c3.318-2.886,12.553-8.08,26.548-10.389c0,0,9.522-1.01,11.253-2.885c1.587-1.731,4.761-2.02,6.493-2.309 c1.875-0.288,5.338-3.462,6.492-5.338c1.3-2.02,10.099-15.726,18.035-21.787c3.896-3.029,8.658-7.068,12.842-10.677 c6.059-5.194-13.706-9.377-13.706-9.377c-3.464,4.906-9.668,11.976-14.141,16.737c-5.481,6.203-14.14,11.252-22.795,20.197 c-8.369,8.658-26.836,13.131-34.916,13.997c-2.021,0.145-3.608,0.289-5.05,0.577C50.748,170.226,79.604,177.874,79.604,177.874 z" clip-rule="evenodd"/><path fill="#4B3B34" fill-rule="evenodd" stroke="#000" stroke-miterlimit="2.414" stroke-width=".36" d="M105.142,125.211c-2.021,3.607-3.607,7.648-3.607,7.648c-1.299,2.452-3.463,4.904-3.463,4.904 c-1.442,0.145-1.442,1.299-2.164,2.742c-0.721,1.299-1.587,2.454-3.029,2.309c-3.03-0.433-0.289-5.338-0.289-5.338 c-3.607,3.606-1.732,3.174-6.348,6.061c-1.01,0.576-2.453-0.577-2.308-1.444c0.144-0.865,1.298-3.03,2.452-3.895 c1.154-1.01,1.732-1.587,2.597-3.031c1.01-1.297-2.597,1.155-3.462,2.021c-0.866,0.72-2.598,1.587-3.607,1.442 c-1.01-0.145-1.154-0.289-1.587-1.442c-0.289-1.299,2.165-3.609,3.319-3.896c1.298-0.433,2.885-1.01,3.896-1.877 c1.154-0.72-2.02-1.01-2.453-0.433c-1.153,1.3-3.896,0.867-3.896,0.867c-2.596-1.155-0.577-3.319,0.289-3.896 c0.866-0.432,2.597-1.01,3.895-1.155c1.01-0.144,2.165-0.864,2.597-1.297c0.433-0.435-1.299-0.578-2.309-0.867 c-1.01-0.288-1.01-2.165,0.145-2.597c0.577-0.145,1.587,0,3.606-0.578c2.309-0.577,2.309-0.288,3.463-0.577 c1.442-0.288,3.174-1.155,3.751-2.742c0.289-0.575,1.298-1.297,2.165-2.02C98.793,116.121,108.027,120.163,105.142,125.211z" clip-rule="evenodd"/><path fill="#ADAB95" fill-rule="evenodd" stroke="#000" stroke-miterlimit="2.414" stroke-width=".36" d="M77.007,95.202c0,0,0-1.587,2.164-3.608c2.309-2.02,5.482-5.626,6.06-6.636c0.577-1.01,8.513,2.742,6.925,4.329 c-1.587,1.442-3.463,3.606-4.185,4.906c-0.721,1.297-1.876,2.597-1.876,3.174C85.808,98.808,77.007,95.202,77.007,95.202z" clip-rule="evenodd"/><path fill="#DFDCBF" fill-rule="evenodd" stroke="#000" stroke-miterlimit="2.414" stroke-width=".36" d="M382.445,82.793c0,0-7.936,3.896-29.722,8.8c-21.641,4.906-41.408,3.896-48.477,3.751c-7.215-0.143-14.86-1.73-24.816-3.174 c-9.811-1.297-20.775-1.875-24.094-2.307c-3.319-0.29-12.697-0.145-12.697-0.145c-3.319,2.597-6.493,4.761-8.225,5.916 c-4.761,3.606-20.199,4.906-21.93,4.906c-1.876-0.29-10.821,2.452-11.543,3.317c-0.721,1.009-8.368,5.051-16.159,7.215 c-7.936,2.02-9.378,3.461-12.985,5.193c-1.875,0.865-5.338,4.039-9.666,7.358c-5.195,3.751-23.951,3.03-13.708-9.667 c0.723-0.72,1.155-1.155,1.587-1.875c2.164-3.464,5.627-8.512,6.637-10.099c1.155-1.732,12.121-12.409,11.543-12.119 c-0.577,0.432-3.895-0.723-4.618-0.29c-0.864,0.29-2.164-0.865-2.164-0.865s-1.875,0.288-3.606,1.01 c-1.876,0.865-3.174-0.433-4.329,0.288c-1.299,0.867-2.74-0.575-4.039,0.145c-1.444,0.867-7.648-0.287-7.648-0.287 c-2.451,5.193-5.625,8.655-8.224,11.542c-2.451,2.742-14.572,12.12-16.591,13.562c-2.165,1.299-9.667,6.783-11.83,10.244 c0,0-10.822-1.875-6.348-9.09c0.288-0.577,1.009-0.72,1.298-1.009c0.722-0.865,3.896-3.319,5.915-4.472 c2.021-1.299,11.687-9.09,12.264-9.813c0.577-0.865,1.443-2.452,2.453-4.616c1.155-2.019,1.875-2.886,1.875-2.886 c-0.577,0.145-5.483-0.433-6.781-1.155c-1.154-0.577-9.955,0.722-11.542,0.29c-1.587-0.578-13.563-2.742-13.563-2.742 c-7.069-2.165-6.925-4.474-11.398-9.09c-3.03-3.174-8.368-9.955-9.378-11.109c-0.865-1.154-2.02-2.742-3.896-3.174 c-1.73-0.432-2.453-2.742-2.453-2.742c-1.299,0-2.741-1.587-2.741-1.587c-0.434,0.433-1.587,0-2.31-0.578 c-0.864-0.577-1.442-1.154-2.164-0.72c-0.721,0.287-1.875-0.722-2.741-0.722c-1.01,0.288-2.454-1.01-2.454-1.01 c-0.721,0.723-3.174,0.288-4.473,0c-1.298-0.289-4.906,0.288-4.906,0.288c-2.741,2.887-9.377,5.051-13.129,5.339 c-3.751,0-4.906,0.867-6.348,1.443c-1.587,0.578-1.732,2.597-1.732,2.597c-0.721,2.307-6.059,2.452-6.059,2.452 c-7.502,0.433-11.542-2.741-11.831-3.319C2.414,67.21,1.26,66.345,1.26,66.345c-1.442-1.155-1.299-2.884-0.578-4.761 C1.404,59.709,10.927,50.62,11.937,49.32c1.154-1.155,2.453-5.771,2.453-6.493c0-1.442,2.885-3.606,2.885-3.606 s3.751-2.597,4.04-3.462c0.289-0.867,3.751-3.174,4.328-3.463c2.453-1.443,5.194-1.01,5.194-1.01 c0.433-0.577,0.577-5.048,0.577-5.048s0.289-2.455,0.865-3.319c0.866-1.442,1.011-0.577,1.443-4.616 c0.289-1.155,2.02-4.042,2.02-4.042c3.896-5.916,5.772-4.616,6.493-4.616c0.721,0,1.731,2.02,2.02,2.887 c0.145,0.865,0.289,1.729,0.866,2.307c0.578,0.578,0.289,2.165,0.578,4.761c0.289,2.455-0.434,7.358-0.722,8.368 c-0.289,1.154-2.164,3.464-3.175,4.329c-1.009,1.009,0.289,1.587,0.289,1.587s6.781,1.444,8.08,1.876 c1.298,0.433,9.233,2.165,10.821,2.597c1.732,0.433,6.493,0.578,7.069,0.433c0.578-0.145,2.598,0.433,2.598,0.433 s3.318-0.433,4.328-0.865c1.011-0.433,2.885,0.72,3.463-0.722c0.577-1.587,2.453-0.72,2.453-0.72 c1.01-2.31,3.031-2.165,3.031-2.165c1.009-2.454,4.184-2.454,4.184-2.454c1.298-2.742,5.627-2.452,5.627-2.452 c0.865-1.299,3.75-0.723,3.75-0.723c0.865-1.154,3.607,0,3.607,0c1.298-1.154,3.751,0.145,3.751,0.145 c0.577-0.578,2.164-0.578,3.751-0.288c1.442,0.288,7.069-1.012,9.522-1.299c2.309-0.288,13.418-6.781,13.418-6.781 c12.119-10.39,29.433-17.025,29.433-17.025c6.059-2.309,16.16-7.358,34.916-0.578c18.758,6.926,40.109,29.289,41.842,31.309 c1.876,2.02,16.015,18.035,24.237,23.374c2.165,1.587,16.594,8.8,16.594,8.8c22.073,8.658,46.313,8.802,46.313,8.802 c31.309,1.298,52.949-5.483,52.949-5.483l12.986-4.616c0,0,21.354-6.638,33.184-26.837c2.599-4.328,4.186-5.771,5.051-5.481 c2.309,1.153-2.31,18.035-13.273,28.854C401.635,75.868,382.445,82.793,382.445,82.793z" clip-rule="evenodd"/><path fill="#EDEBD7" fill-rule="evenodd" stroke="#E5E3CA" stroke-miterlimit="2.414" stroke-width=".36" d="M271.063,65.048c3.318,0.433,13.273,6.491,24.239,8.656c6.492,1.154,21.785,4.041,27.988,4.616 c6.205,0.723,22.363,0,25.394-0.288c2.741-0.288,15.438-2.02,12.12-0.577c-3.174,1.587-27.991,4.906-42.851,3.607 c-23.229-2.02-46.168-7.069-48.333-10.965C269.62,70.096,269.042,64.614,271.063,65.048z" clip-rule="evenodd"/><path fill="#EDEBD2" fill-rule="evenodd" d="M108.604,30.42 c1.009-0.144,5.915,0.433,7.069-0.144c1.298-0.578,5.338-1.443,4.329-0.433c-0.866,1.009-8.658,4.184-10.677,3.606 C107.161,32.872,107.017,30.565,108.604,30.42z" clip-rule="evenodd"/><path fill="#B5B299" fill-rule="evenodd" d="M81.19,37.201 c-0.145,0.865-0.577,0.432,0.578,3.319c0.433,1.01,0.865,1.01,0.578,0.288c-1.444-4.329-0.723-4.472-0.723-4.472 S81.19,36.769,81.19,37.201z" clip-rule="evenodd"/><path fill="#B5B299" fill-rule="evenodd" d="M105.142,29.411 c-0.434,0.433-1.011,2.307-0.866,3.461c0,1.01,0.433,2.165,0.433,1.443c0-3.03,1.298-5.194,1.298-5.194 S105.286,29.266,105.142,29.411z" clip-rule="evenodd"/><path fill="#B5B299" fill-rule="evenodd" d="M101.102,29.411 c-0.434,0.433-0.866,2.165-0.721,3.174c0,1.155,0.288,3.03,0.288,2.165c0-3.031,1.443-5.771,1.443-5.771 S101.245,29.266,101.102,29.411z" clip-rule="evenodd"/><path fill="#B5B299" fill-rule="evenodd" d="M97.494,29.553 c-0.288,0.578-0.577,3.031-0.433,4.187c0,1.152,0.433,2.884,0.433,2.162c-0.144-4.762,0.722-6.924,0.722-6.924 S97.639,29.266,97.494,29.553z" clip-rule="evenodd"/><path fill="#B5B299" fill-rule="evenodd" d="M94.032,29.988 c-0.288,0.577-0.577,3.174-0.577,4.327c0.144,1.012,0.577,2.741,0.577,2.021c-0.288-4.761,0.721-6.925,0.721-6.925 S94.032,29.698,94.032,29.988z" clip-rule="evenodd"/><path fill="#B5B299" fill-rule="evenodd" d="M88.405,32.584 c0,0.578,0.433,3.03,0.721,4.039c0.433,1.155,1.298,2.742,1.154,1.877c-1.587-4.329-1.298-6.783-1.298-6.783 S88.405,32.152,88.405,32.584z" clip-rule="evenodd"/><path fill="#B5B299" fill-rule="evenodd" d="M84.22,34.892 c0,0.578,0.577,3.031,1.011,4.184c0.432,1.012,1.154,1.732,0.865,1.012c-1.73-4.329-1.299-6.061-1.299-6.061 S84.22,34.604,84.22,34.892z" clip-rule="evenodd"/><path fill="#DFDCBF" fill-rule="evenodd" d="M156.504,6.902 c-3.03,1.3-17.746,9.812-19.045,11.832c-1.154,2.164-3.896,4.616-5.626,6.348c-1.731,1.732-3.319,4.184-3.319,6.494 c0,2.452-4.184,4.183-6.204,7.791c-0.577,1.009-4.761,5.483-8.08,1.587c-2.886-3.319-9.522-2.31-11.542-2.165 C89.126,39.653,74.554,52.494,85.663,69.52c10.966,16.88,37.225,3.751,41.697,4.473c4.473,0.578,9.233,2.885,11.398,2.885 c2.019,0,5.338,0.577,4.905,3.319c-0.289,2.742,0,7.791-1.154,8.945c-1.155,1.01,22.074-2.164,26.402,0.145 c4.329,2.02,12.554-7.215,18.323-10.532c3.606-2.165,10.1-2.165,9.811,4.761c-0.287,6.636-2.596,14.716-5.338,18.035 c-2.596,3.316,3.896,2.307,9.234,0.288c5.338-2.165,9.522-4.184,13.418-4.184c3.752,0,17.458-0.577,23.663-6.636 c6.349-5.773,10.243-2.165,13.129-3.319c3.029-1.299,4.185-5.051,7.503-8.08c3.316-3.029,3.606-5.626,5.049-6.636 c2.887-1.587,8.802-8.513,3.319-10.677c-6.926-2.597-13.707-10.1-17.026-13.996c-3.318-3.896-43.14-43.572-60.598-45.879 C171.798-0.023,161.266,4.738,156.504,6.902z" clip-rule="evenodd"/><g><path fill="#DED6B4" fill-rule="evenodd" d="M129.813,31.43 c0.144,2.885-4.329,5.048-6.06,8.8c-0.722,2.887-6.349,6.349-9.667,2.597c-2.742-3.174-9.378-2.597-11.687-2.597 c-11.543,0.867-26.259,11.832-15.438,28.424c10.677,16.591,35.493,4.329,40.254,5.049c4.474,0.722,9.378,3.029,11.398,3.029 s5.483,0.722,5.195,3.319c-0.289,2.597,0.144,7.503-1.01,8.658c-1.155,1.01,21.641-1.876,25.825,0.432 c4.184,2.02,13.274-8.223,18.757-12.984c3.606-3.174,12.552-4.186,12.408,4.904c-0.146,6.493-1.877,14.283-5.195,18.324 c-2.886,3.461,2.021,3.461,7.359,1.442c5.482-2.02,9.089-4.039,12.84-4.039c3.609,0,16.593-0.435,22.653-6.348 c6.059-5.628,10.1-2.31,12.983-3.464c2.887-1.155,4.185-4.906,7.358-7.79c3.175-3.03,3.896-6.061,5.194-7.215 c2.453-1.73,7.792-8.368,2.453-10.82c-6.492-2.886-13.851-10.677-17.024-14.428c-3.174-3.751-40.831-41.408-58.866-44.292 c-17.17-2.599-27.702,2.163-32.319,4.184c-3.029,1.298-17.89,9.665-19.333,11.975c-1.154,2.02-3.174,4.617-5.05,6.348 C131.112,26.668,129.813,28.978,129.813,31.43z" clip-rule="evenodd"/><path fill="#DECDAA" fill-rule="evenodd" d="M131.255,31.14 c0.145,3.464-4.473,6.206-6.203,9.813c-0.722,4.906-7.792,7.502-10.966,3.896c-2.742-3.319-9.378-3.174-11.832-3.319 c-9.666,0.865-24.527,9.955-14.138,26.403c10.388,16.303,33.905,4.761,39.099,5.626c4.329,0.722,9.378,3.031,11.398,3.031 s5.771,0.72,5.483,3.317c-0.288,2.599,0,7.07-1.154,8.225c-1.01,1.155,21.354-1.442,25.393,0.865 c3.896,2.021,13.851-9.377,19.333-15.438c3.463-4.327,14.717-6.349,14.861,5.051c-0.145,6.06-1.154,13.851-5.194,18.757 c-2.885,3.461,0.433,4.327,5.771,2.452c5.482-1.877,8.513-3.896,12.265-3.896c3.464,0,15.438-0.288,21.354-6.058 c6.06-5.483,10.099-2.597,12.985-3.751c2.74-1.155,4.039-4.617,7.214-7.503c3.029-2.886,4.183-6.204,5.338-7.648 c2.021-1.729,6.636-8.223,1.442-10.964c-6.059-3.029-13.707-11.109-16.881-14.861S208.302,5.748,189.688,2.431 c-16.592-2.742-27.268,1.875-31.741,3.894c-2.886,1.299-18.035,9.379-19.478,12.119c-1.155,1.877-2.742,4.762-4.473,6.349 C132.266,26.524,131.255,28.833,131.255,31.14z" clip-rule="evenodd"/><path fill="#DEC69F" fill-rule="evenodd" d="M132.554,30.853 c0.288,4.039-4.616,7.358-6.06,10.822c-0.866,6.926-9.378,8.513-12.408,4.904c-2.742-3.174-9.378-3.317-11.976-3.606 c-7.792,0.722-22.94,8.08-12.696,24.238c10.1,15.873,32.175,5.051,37.801,6.206c4.04,0.72,9.523,3.174,11.398,3.174 s5.771,0.72,5.483,3.174c-0.288,2.452,0.144,6.926-0.865,7.936c-1.155,1.154,20.92-1.299,24.815,1.01 c3.752,2.164,14.572-10.39,19.768-17.748c3.606-5.338,17.024-8.512,17.457,5.196c-0.144,5.771-0.433,13.562-5.193,19.188 c-2.886,3.463-1.299,5.338,4.039,3.463c5.773-1.876,8.079-3.751,11.543-3.751c3.608,0,14.718-0.145,20.487-5.483 c5.771-5.481,10.1-3.029,12.842-4.184c2.742-1.009,4.039-4.472,7.07-7.213c3.029-2.741,4.472-6.638,5.337-8.368 c1.876-1.731,5.772-7.937,0.722-10.966c-5.626-3.174-13.851-11.687-16.88-15.293c-3.03-3.607-36.216-37.369-55.26-41.119 c-16.304-2.886-26.98,1.73-31.308,3.606c-2.886,1.297-18.036,9.233-19.767,12.119c-1.01,2.02-2.164,4.906-3.896,6.636 C133.419,26.379,132.554,28.688,132.554,30.853z" clip-rule="evenodd"/><path fill="#DDBD93" fill-rule="evenodd" d="M133.852,30.565 c0.289,4.617-4.617,8.511-5.914,11.975c-1.011,8.8-10.966,9.522-13.997,6.061c-2.741-3.319-9.377-3.751-11.974-4.186 c-5.916,0.722-21.209,6.206-11.254,22.076c9.667,15.438,30.299,5.482,36.502,6.781c4.04,0.722,9.523,3.029,11.398,3.029 s5.916,0.868,5.771,3.319c-0.289,2.452,0,6.493-1.01,7.647c-1.01,1.01,20.776-1.154,24.383,1.297 c3.607,2.165,15.149-11.396,20.199-20.199c3.463-6.494,19.479-10.677,20.056,5.338c0,5.338,0.289,13.273-5.195,19.622 c-2.885,3.464-2.885,6.348,2.31,4.616c5.915-2.02,7.646-3.749,10.965-3.749c3.463,0,13.707,0,19.333-5.196 c5.628-5.481,10.1-3.174,12.842-4.327c2.596-1.011,4.041-4.328,6.925-7.07c3.029-2.596,4.762-6.78,5.628-8.802 c1.298-1.73,4.616-7.791-0.289-11.109c-5.339-3.317-13.997-12.262-16.881-15.726c-2.886-3.461-33.905-35.205-53.528-39.531 c-15.726-3.031-26.548,1.442-30.875,3.317c-2.741,1.154-17.891,9.09-19.766,12.119c-1.155,2.021-1.731,5.195-3.317,6.782 C134.574,26.237,133.852,28.4,133.852,30.565z" clip-rule="evenodd"/><path fill="#DDB688" fill-rule="evenodd" d="M135.296,30.276 c0.289,5.193-4.907,9.667-5.917,13.128c-1.153,10.532-12.551,10.389-15.438,7.07c-2.741-3.319-9.377-4.039-12.119-4.616 c-4.04,0.577-19.477,4.184-9.811,19.91c9.378,15.006,28.711,5.916,35.204,7.358c3.751,0.722,9.523,3.174,11.398,3.174 c1.731,0,6.061,0.868,5.771,3.174c-0.145,2.309,0.289,6.206-0.721,7.215c-1.154,1.155,20.343-0.722,23.806,1.73 c3.463,2.164,15.871-12.552,20.776-22.651c3.462-7.503,21.644-12.696,22.508,5.483c0.146,5.048,1.011,12.841-5.051,20.054 c-3.029,3.607-4.761,7.213,0.577,5.626c5.915-1.875,7.07-3.751,10.244-3.751c3.464,0,12.842,0.29,18.325-4.761 c5.481-5.194,9.955-3.462,12.552-4.472c2.596-1.01,4.039-4.184,6.925-6.78c2.886-2.597,5.194-7.071,5.627-9.38 c1.153-1.875,3.751-7.646-1.01-11.252c-4.907-3.463-13.996-12.698-16.881-16.16c-2.887-3.319-31.598-33.183-51.797-37.944 c-15.149-3.319-26.115,1.152-30.299,3.029c-2.596,1.154-18.035,8.8-20.054,12.264c-1.011,1.875-1.155,5.338-2.599,6.781 C135.728,26.092,135.151,28.256,135.296,30.276z" clip-rule="evenodd"/><path fill="#DDAF7E" fill-rule="evenodd" d="M136.593,29.988 c0.433,5.626-5.049,10.82-5.771,14.139c-1.298,12.552-14.139,11.397-17.025,8.223c-2.597-3.174-9.234-4.326-12.12-5.193 c-2.309,0.577-17.746,2.454-8.368,17.747c8.945,14.716,26.836,6.349,33.761,7.936c3.751,0.865,9.667,3.319,11.398,3.319 c1.875,0,6.348,0.865,6.204,3.174c-0.289,2.307,0.144,5.914-0.865,6.926c-1.01,1.01,20.054-0.435,23.373,1.875 c3.319,2.31,16.448-13.561,21.209-24.815c3.463-8.802,24.095-15.006,25.105,5.481c0.145,4.619,1.73,12.553-5.052,20.489 c-3.029,3.606-6.491,8.223-1.154,6.636c6.061-1.729,6.638-3.606,9.667-3.606c3.319,0,11.832,0.433,17.171-4.471 c5.338-5.051,10.1-3.609,12.551-4.619c2.598-1.01,4.041-4.039,6.781-6.493c2.887-2.596,5.483-7.5,5.772-10.098 c0.721-1.732,2.739-7.36-1.877-11.399c-4.615-3.462-13.996-13.129-16.88-16.448c-2.741-3.319-29.289-31.164-49.921-36.357 c-14.86-3.319-25.826,1.01-29.867,2.74c-2.596,1.154-18.178,8.657-20.2,12.408c-1.009,1.732-0.575,5.339-2.164,6.926 C136.738,25.947,136.45,27.966,136.593,29.988z" clip-rule="evenodd"/><path fill="#DDA675" fill-rule="evenodd" d="M138.037,29.843 c0.433,6.059-5.339,11.687-5.771,15.148c-1.443,14.428-15.727,12.408-18.468,9.234c-2.597-3.174-9.234-4.761-12.264-5.626 c-0.433,0.575-16.015,0.575-6.926,15.581c8.657,14.283,25.105,6.78,32.463,8.512c3.607,0.865,9.667,3.319,11.398,3.319 s6.492,1.01,6.348,3.175c-0.289,2.309,0.144,5.626-0.721,6.635c-1.009,1.01,19.622-0.288,22.796,2.165 c3.031,2.309,17.169-14.571,21.642-27.268c3.463-9.812,26.404-17.025,27.558,5.626c0.288,4.329,2.311,12.119-4.905,20.921 c-3.174,3.606-8.08,9.233-2.742,7.646c6.062-1.732,6.062-3.462,9.091-3.462c3.174,0,10.821,0.577,16.016-4.184 c5.192-4.906,9.954-3.751,12.407-4.761s4.039-3.896,6.782-6.348c2.597-2.454,5.625-7.648,5.771-10.534 c0.287-1.875,1.732-7.213-2.887-11.542c-4.039-3.751-13.993-13.561-16.735-16.88c-2.742-3.174-26.98-29.145-48.19-34.771 c-14.283-3.609-25.393,0.72-29.433,2.452c-2.453,1.155-18.035,8.368-20.343,12.552c-1.009,1.587,0,5.483-1.443,6.926 C137.892,25.802,137.892,27.824,138.037,29.843z" clip-rule="evenodd"/></g><path fill="#DDA06B" fill-rule="evenodd" d="M161.987,4.593 c-2.309,1.011-18.178,8.225-20.632,12.553c-0.867,1.587,0.577,5.626-0.867,7.068c-1.441,1.444-1.297,3.464-1.152,5.338 c0.577,6.638-5.339,12.841-5.628,16.16c-1.586,16.448-17.313,13.418-19.91,10.245c-2.597-3.031-9.234-4.906-12.408-5.916 c1.442,0.432-14.429-1.442-5.483,13.418c8.224,13.849,23.373,7.213,31.165,9.087c3.463,0.868,9.667,3.319,11.398,3.319 s6.637,1.01,6.492,3.174c-0.288,2.164,0.289,5.338-0.722,6.203c-1.009,1.012,19.333,0,22.365,2.599 c2.886,2.307,17.89-15.728,22.219-29.722c3.319-10.967,28.424-19.189,30.012,5.771c0.287,3.894,3.028,11.686-4.762,21.352 c-3.319,3.896-9.957,10.1-4.619,8.657c6.062-1.587,5.629-3.319,8.513-3.319c3.031,0,9.957,0.722,14.861-3.894 c5.051-4.761,9.956-4.041,12.409-4.906c2.451-1.009,3.896-3.751,6.636-6.06c2.599-2.452,5.915-7.936,5.915-11.253 c0-1.876,0.723-6.925-3.752-11.543c-3.751-3.894-14.138-14.139-16.734-17.313c-2.598-3.03-24.674-27.125-46.314-33.041 C177.137-1.321,165.883,3.006,161.987,4.593z" clip-rule="evenodd"/><path fill="#DDB385" fill-rule="evenodd" stroke="#DECDAA" stroke-miterlimit="2.414" stroke-width=".36" d="M110.191,34.027c-1.011-0.145-2.453,0-3.175,0.288c-0.722,0.289-2.309,0.867-2.597,0.145c-0.289-0.72,0.434-4.329-0.433-3.319 c-1.01,1.155-1.298,2.022-2.165,3.031c-0.866,1.01-1.154,1.01-1.298,0.288c-0.144-0.72-0.144-1.442-0.289-2.453 c-0.144-1.876-0.577,0.289-0.577,0.289s-0.144,3.174-1.299,3.751c-1.009,0.577-1.009-0.288-1.153-1.297 c-0.145-1.009-0.145-2.165,0-3.174c0.144-0.867-0.577-1.732-0.722,0.143c-0.144,2.022,0,2.597-1.009,3.609 c-1.155,1.009-1.443,0.575-1.443-1.3c0-2.02-0.722-2.597-0.722-1.442c0,1.298-0.289,3.317-1.01,3.606 c-0.721,0.288-2.308,0.145-2.885-0.577c-0.433-0.723-1.298-3.03-1.154-1.587c0.145,1.3,0.722,2.597-0.144,3.319 c-0.722,0.864-2.597,0.72-2.886,0.287c-0.289-0.577-1.443-2.307-1.298-1.297c0.144,1.01,0.144,2.165-0.289,2.307 c-0.434,0.145-1.875,0-2.453-0.577c-0.577-0.72,0,0.145-0.433,0.867c-0.433,0.72-1.299,1.154-1.731,0.865 c-0.432-0.288-1.01-0.865-0.866-0.288c0.145,0.578-0.577,0.72-1.587,0.72c-1.154,0-0.577,0.433,0.722,0.867 c1.154,0.577,0.721,0.577,1.587,0.288c0.865-0.288,2.02-1.155,2.452-0.432c0.434,0.722,1.732,0.288,2.309,0.288 c0.722,0,1.876-1.01,2.597-0.72c0.721,0.288,1.442-0.433,1.442-0.433s1.299-1.012,2.021-0.867c0.289,0,2.453-0.72,3.174-1.587 c0.578-0.577,2.308-0.577,3.174-0.72c0.866-0.145,3.751-0.145,3.751-0.145s2.165-0.433,3.751-0.578 C106.729,36.046,112.067,34.315,110.191,34.027z" clip-rule="evenodd"/><path fill="#DDB385" fill-rule="evenodd" stroke="#DECDAA" stroke-miterlimit="2.414" stroke-width=".36" d="M40.937,35.469c1.01,0.867,2.741,2.454,3.03,3.896c0.289,1.442,0.578,1.154,3.751,1.442c3.319,0.29,6.637,2.454,7.214,4.184 c0.578,1.876,0-0.865,2.453-0.288c2.309,0.578,2.885,1.587,2.885,1.587s0.578-1.877,1.731-1.299 c1.299,0.577,5.195,2.741,5.772,3.896s2.02,5.626,2.886,3.606c1.01-2.165,3.606-0.865,4.184,1.155 c0.577,2.02-0.289,3.319,1.587,2.02c1.731-1.155,0.577-1.442,2.308-3.462c1.876-2.164,1.587-3.319,1.298-4.474 c-0.433-1.154,0.866-2.741,0-3.029c-1.01-0.29-5.482-3.029-5.482-4.329c0-1.154-2.597-0.865-3.607-0.577 c-0.866,0.29-2.453-0.288-5.339-0.145c-2.598,0.145-13.273-2.307-15.583-3.174C47.574,35.614,37.907,33.162,40.937,35.469z" clip-rule="evenodd"/><path fill="#B5B299" fill-rule="evenodd" d="M70.947,70.241 c0.721,2.452-0.866-4.184-0.577-5.915c0.289-1.587,1.442-7.358,1.298-8.658c-0.145-1.155,0.144-6.204-0.145-5.339 c-0.289,0.722-1.154,0.145-1.01,1.444c0.145,1.442-0.433,5.481-0.721,7.646c0,2.31-1.154,5.483-1.732,6.204 c-0.576,0.722-1.587,0.434-1.587,0.434s1.443,0.578,1.732,0.865S70.37,68.654,70.947,70.241z" clip-rule="evenodd"/><path fill="#B5B299" fill-rule="evenodd" d="M64.021,64.036c0,0,0.721-1.297,0.721-2.597 c0.144-1.442,0.578-3.461,0.578-4.184c0.144-4.329-1.444-5.338-1.299-6.348c0.289-0.578-0.577-2.307-0.577-1.154 c0,1.299,0.577,5.916,0.288,6.493c-0.288,0.578,0,2.02,0,2.597c0.144,0.722-0.288,4.041-0.722,4.328 C63.011,63.171,63.733,63.171,64.021,64.036z" clip-rule="evenodd"/><path fill="#B5B299" fill-rule="evenodd" d="M61.28,62.017c0,0,0.144-1.732,0.433-2.885 c0.288-1.154,0.288-7.792,0-8.945c-0.289-1.154-0.433-0.722-0.433,0.433c0,1.154,0.144,4.904,0,5.626 c-0.144,0.578,0,1.587-0.144,2.02c0,0.433-0.145,1.299-0.289,1.877c0,0.577-0.578,1.442-0.866,1.729l0.866-0.288L61.28,62.017z" clip-rule="evenodd"/><path fill="#B5B299" fill-rule="evenodd" d="M56.663,60.285c0,0,0.434-1.587,0.434-2.597 s0.144-2.308,0-3.029c0-0.723,0.144-5.483,0.289-3.607c0.289,1.875,0.289,2.884,0.289,3.896c0.288,1.152,0,2.452,0,3.029 c0,0.72-0.289,2.452-0.289,2.452S57.096,60.285,56.663,60.285z" clip-rule="evenodd"/><path fill="#B5B299" fill-rule="evenodd" d="M51.613,58.843c0,0,0.578-0.865,0.722-1.587 c0.289-0.865,0.289-2.884,0.289-3.319c0-0.575,0.289-3.316,0.433-3.749c0.289-0.577,0.578-2.454,0.144-1.587 c-0.432,1.01-0.576,2.452-0.865,3.894c-0.288,1.442-0.288,2.886-0.722,2.165c-0.433-0.723-0.576-1.732-0.576-2.165 c0-0.577-1.443-3.319-1.298-2.741c0.288,0.722,0.721,3.031,1.01,3.896c0.289,0.865,0.865,1.731,0.865,2.309 c0.145,0.72,0,2.307-0.433,2.74L51.613,58.843z" clip-rule="evenodd"/><path fill="#B5B299" fill-rule="evenodd" d="M42.091,58.987c0,0,0.865-1.731,1.01-2.309 c0.288-0.433,1.299-1.587,1.154-2.165c0-0.433-0.433-1.297-0.433-1.297s0.433-0.867,0.144-1.587 c-0.289-0.578-1.01-2.742-0.433-1.587c0.578,1.154,0.866,1.587,1.01,2.02c0.144,0.577,0,1.154,0.433,1.01 c0.288-0.145,0.288-1.442,0.577-1.01c0.145,0.577,0.145,0.865,0.145,0.865s-0.578,0.722-0.434,1.299 c0.145,0.433-0.432,0.865-0.144,0.865c0.289-0.143,0.866-0.865,0.866-0.578c0,0.435,0,0.29-0.289,0.867 c-0.289,0.578-0.866,1.298-1.01,1.443c-0.144,0.145,0,0.865,0.289,0.432c0.433-0.288,2.164-0.72,1.731-0.288 c-0.432,0.432-0.721,1.01-0.432,1.01c0.432,0,1.009-0.29,1.009,0c0.144,0.433,1.587,1.009,0.721,0.865 c-0.721,0-2.597-0.433-3.174-0.145C44.255,58.843,42.091,58.987,42.091,58.987z" clip-rule="evenodd"/><path fill="#B5B299" fill-rule="evenodd" stroke="#C6C2AC" stroke-miterlimit="2.414" stroke-width=".36" d="M19.294,49.753c0.578,0.577,1.443,0.867,2.021,1.587c0.722,0.722,1.298,1.009,3.029,1.009c1.875,0,3.463-1.152,2.886-0.287 c-0.577,0.865-3.174,1.299-2.452,1.587c0.865,0.287,2.597,1.731,1.442,2.02c-1.298,0-2.885,0-3.174,0.867 c-0.289,0.72-1.009,2.308-1.731,2.74c-0.866,0.435-2.598,1.444-2.886,2.309c-0.288,0.865-1.587,1.442-1.154,1.732 c0.721,0.288,1.01,2.165,1.298,3.319c0.721,3.461-1.298,4.327-5.916,4.039c0,0-2.741,0-3.174-0.289 c-0.433-0.289,6.493-1.01,4.906-5.049c0,0-1.875-2.02-1.155-3.319c0.721-1.297,4.618-4.472,5.194-5.771 c0.577-1.442,1.875-2.452,1.154-3.319c-0.721-0.865-2.741-1.587-3.606-1.442c-1.01,0.145-2.886,1.876-2.597,0.865 c0.289-1.009,2.163-1.442,2.597-3.029c0.289-1.442-0.434-3.029,0.289-4.329c0.721-1.155,4.761-4.184,3.895-2.597 c-0.866,1.442-2.453,1.877-2.597,3.031c-0.289,1.297,1.01,3.895,1.587,1.442c0.577-2.597,3.174-1.155,3.895-0.867 c0.866,0.29,2.308,1.299,3.463,1.299c1.01,0,2.164,0.145,0.866,0.578c-1.443,0.432-3.175,2.742-4.329,2.742 c-1.153,0-3.318-2.165-4.184-1.732C17.996,49.32,19.294,49.753,19.294,49.753z" clip-rule="evenodd"/><path fill="#AAA790" fill-rule="evenodd" d="M28.528,32.295 c1.011-0.144-2.597,0.289-4.472,2.309c-0.865,1.01-6.349,5.194-7.07,6.204c-0.433,1.154-0.289,2.02-0.289,2.02 s0.578-0.865,1.444-2.165c1.153-1.729,5.915-3.316,6.925-5.481C25.788,33.882,27.952,32.584,28.528,32.295z" clip-rule="evenodd"/><path fill="#B5B299" fill-rule="evenodd" d="M33.146,22.195c0,0,0.289,1.154,0.433,3.464 c0.145,1.587,0.145,1.732,0,3.319c-0.144,1.73-0.433,2.452-1.01,3.029c-0.578,0.578-0.865,2.308-0.721,1.155 c0.144-1.155-0.144-1.732-0.577-0.723c-0.433,0.865-0.289,0.865-0.289,0.865s0.433-1.729,0.433-2.74 c0,0,0.433-3.174,0.721-6.925C32.136,23.64,32.713,22.628,33.146,22.195z" clip-rule="evenodd"/><path fill="#B5B299" fill-rule="evenodd" stroke="#C9C6AB" stroke-miterlimit="2.414" stroke-width=".36" d="M97.639,78.609c2.02-0.29,3.606,0.145,4.329,0.865c0.721,0.722,5.482,1.155,7.07,1.155c1.587,0-0.145,1.154,3.03,1.442 c2.309,0.29,6.781,1.732,3.75,1.444c-2.885-0.29-6.349-0.433-8.368-0.577C102.111,82.361,96.629,78.754,97.639,78.609z" clip-rule="evenodd"/><path fill="#B5B299" fill-rule="evenodd" d="M122.888,93.325 c0,0,1.875-0.145,2.597-0.577c0.866-0.433,2.165-0.865,1.731-0.578c-0.433,0.435-1.154,0.722-0.576,0.867 c0.721,0.143,2.164,0.433,3.029,0c1.01-0.433,2.454-1.444,2.165-0.867c-0.433,0.435-3.174,3.319-5.771,2.887 c0,0-3.319-0.865-3.896-0.577L122.888,93.325z" clip-rule="evenodd"/><path fill="none" fill-rule="evenodd" stroke="#D8C8B0" stroke-linecap="round" stroke-miterlimit="2.414" stroke-width="1.08" d="M156.359,127.663c-22.362,8.225-18.9-0.575-14.572-3.894" clip-rule="evenodd"/><g><path fill="none" fill-rule="evenodd" stroke="#D8C8B0" stroke-linecap="round" stroke-miterlimit="2.414" stroke-width="1.08" d="M157.082,127.088c-22.075,8.078-18.901-0.722-14.717-4.186" clip-rule="evenodd"/><path fill="none" fill-rule="evenodd" stroke="#D8C9B1" stroke-linecap="round" stroke-miterlimit="2.414" stroke-width="1.08" d="M157.659,126.51c-21.786,8.079-18.901-0.867-14.572-4.328" clip-rule="evenodd"/><path fill="none" fill-rule="evenodd" stroke="#D8C9B1" stroke-linecap="round" stroke-miterlimit="2.414" stroke-width="1.08" d="M158.235,126.076c-21.497,7.792-18.899-1.153-14.715-4.617" clip-rule="evenodd"/><path fill="none" fill-rule="evenodd" stroke="#D8C9B1" stroke-linecap="round" stroke-miterlimit="2.414" stroke-width="1.08" d="M158.957,125.501c-21.354,7.646-19.044-1.299-14.861-4.906" clip-rule="evenodd"/><path fill="none" fill-rule="evenodd" stroke="#D8CCB2" stroke-linecap="round" stroke-miterlimit="2.414" stroke-width="1.08" d="M159.534,124.923c-21.064,7.501-18.901-1.444-14.717-5.051" clip-rule="evenodd"/><path fill="none" fill-rule="evenodd" stroke="#DBCFB6" stroke-linecap="round" stroke-miterlimit="2.414" stroke-width="1.08" d="M160.111,124.346c-20.775,7.358-18.9-1.587-14.716-5.194" clip-rule="evenodd"/><path fill="none" fill-rule="evenodd" stroke="#DBCFB6" stroke-linecap="round" stroke-miterlimit="2.414" stroke-width="1.08" d="M160.833,123.769c-20.632,7.358-18.901-1.732-14.86-5.483" clip-rule="evenodd"/><path fill="none" fill-rule="evenodd" stroke="#DBD1B7" stroke-linecap="round" stroke-miterlimit="2.414" stroke-width="1.08" d="M161.41,123.191c-20.344,7.213-18.9-2.02-14.861-5.626" clip-rule="evenodd"/><path fill="none" fill-rule="evenodd" stroke="#DBD1B7" stroke-linecap="round" stroke-miterlimit="2.414" stroke-width="1.08" d="M161.987,122.615c-20.055,7.07-18.899-2.165-14.86-5.771" clip-rule="evenodd"/><path fill="none" fill-rule="evenodd" stroke="#DBD1B7" stroke-linecap="round" stroke-miterlimit="2.414" stroke-width="1.08" d="M162.709,122.182c-19.911,6.78-19.046-2.455-15.006-6.206" clip-rule="evenodd"/><path fill="none" fill-rule="evenodd" stroke="#DBD3B8" stroke-linecap="round" stroke-miterlimit="2.414" stroke-width="1.08" d="M163.285,121.604c-19.621,6.636-18.9-2.597-14.861-6.349" clip-rule="evenodd"/><path fill="none" fill-rule="evenodd" stroke="#DBD3B8" stroke-linecap="round" stroke-miterlimit="2.414" stroke-width="1.08" d="M163.862,121.027c-19.333,6.493-18.901-2.742-14.861-6.493" clip-rule="evenodd"/><path fill="none" fill-rule="evenodd" stroke="#DBD3B8" stroke-linecap="round" stroke-miterlimit="2.414" stroke-width="1.08" d="M164.439,120.45c-19.044,6.348-18.901-2.885-14.86-6.781" clip-rule="evenodd"/><path fill="none" fill-rule="evenodd" stroke="#DBD5B8" stroke-linecap="round" stroke-miterlimit="2.414" stroke-width="1.08" d="M165.161,119.873c-18.9,6.349-18.9-3.029-15.005-6.925" clip-rule="evenodd"/><path fill="none" fill-rule="evenodd" stroke="#DED8BB" stroke-linecap="round" stroke-miterlimit="2.414" stroke-width="1.08" d="M165.738,119.295c-18.612,6.206-18.901-3.319-15.004-7.068" clip-rule="evenodd"/><path fill="none" fill-rule="evenodd" stroke="#DED8BE" stroke-linecap="round" stroke-miterlimit="2.414" stroke-width="1.08" d="M166.46,118.718c-18.469,6.061-19.045-3.317-15.15-7.358" clip-rule="evenodd"/><path fill="none" fill-rule="evenodd" stroke="#DFDABF" stroke-linecap="round" stroke-miterlimit="2.414" stroke-width="1.08" d="M167.036,118.286c-18.179,5.771-18.9-3.751-15.149-7.646" clip-rule="evenodd"/><path fill="none" fill-rule="evenodd" stroke="#DFDABF" stroke-linecap="round" stroke-miterlimit="2.414" stroke-width="1.08" d="M167.614,117.708c-17.89,5.771-18.901-3.895-15.15-7.791" clip-rule="evenodd"/><path fill="none" fill-rule="evenodd" stroke="#DFDABF" stroke-linecap="round" stroke-miterlimit="2.414" stroke-width="1.08" d="M168.191,117.131c-17.602,5.627-18.901-4.039-15.149-8.078" clip-rule="evenodd"/><path fill="none" fill-rule="evenodd" stroke="#DFDCBF" stroke-linecap="round" stroke-miterlimit="2.414" stroke-width="1.08" d="M168.912,116.554c-17.457,5.483-18.901-4.184-15.149-8.223" clip-rule="evenodd"/></g><path fill="none" fill-rule="evenodd" stroke="#DFDCBF" stroke-linecap="round" stroke-miterlimit="2.414" stroke-width="1.08" d="M169.49,115.976c-17.17,5.339-18.901-4.327-15.15-8.367" clip-rule="evenodd"/><path fill="#EDEBD2" fill-rule="evenodd" d="M35.021,25.227c0,0-1.01,6.059-2.02,7.358 c-1.011,1.155-1.011,5.338,0.144,5.771s1.443-0.722,1.876,0.145c0.288,0.865,3.03,3.461,3.174,1.875 c0.144-1.587-0.144-3.461,0.866-4.906c1.154-1.442,2.597-4.472,3.463-5.193C43.389,29.553,35.021,25.227,35.021,25.227z" clip-rule="evenodd"/><path fill="#DFDCBF" fill-rule="evenodd" d="M41.802,9.932 c-1.009,0-4.184,2.309-5.337,4.618c-1.443,2.452-2.165,5.481-2.165,7.791c0,2.452,0.577,4.906,0.577,5.916 c0,1.154-1.443,6.203-1.875,6.78c-0.434,0.578,0,3.464,1.009,2.31c0.289-0.433-0.577-2.31,0.433-0.723 c1.01,1.732,1.876,2.02,2.597,0c0.722-1.875,4.185-5.048,5.05-5.771c0.865-0.722,3.174-3.029,3.03-8.945 c-0.144-2.31-0.144-5.338-0.433-6.204C43.966,14.405,43.245,10.221,41.802,9.932z" clip-rule="evenodd"/><path fill="#CBC9AF" fill-rule="evenodd" d="M43.678,17.434 c-1.01-1.875-0.289-5.916-2.02-6.926c-0.866-0.143-3.896,2.022-5.193,4.184c-1.3,2.454-2.165,5.196-2.165,7.503 c0,2.31,0.577,4.906,0.577,5.916c0,1.009-1.299,5.916-1.732,6.493c-0.432,0.723-0.144,3.606,0.721,2.597 c0.434-0.433-0.432-2.452,0.577-0.865c0.866,1.73,1.732,2.165,2.453,0.143c0.721-1.875,4.184-5.048,5.05-5.771 c1.009-0.72,3.174-3.029,2.886-8.223C44.977,18.878,44.255,18.734,43.678,17.434z" clip-rule="evenodd"/><path fill="#B7B59C" fill-rule="evenodd" d="M42.668,19.021 c-1.299-2.452,0.721-6.204-1.154-8.078c-0.866-0.145-3.607,1.875-4.906,3.894c-1.299,2.454-2.165,4.906-2.165,7.215 c0,2.307,0.434,4.761,0.434,5.771c0.144,1.154-1.155,5.771-1.587,6.491c-0.433,0.577-0.288,3.608,0.433,2.599 c0.433-0.435-0.288-2.31,0.578-0.867c1.009,1.732,1.73,2.309,2.452,0.432c0.577-2.164,4.329-5.193,5.194-5.914 c0.866-0.722,2.886-3.031,2.741-7.503C45.121,18.156,43.534,20.753,42.668,19.021z" clip-rule="evenodd"/><path fill="#A4A18C" fill-rule="evenodd" d="M41.658,20.753 c-1.587-3.03,1.73-6.636-0.289-9.235c-0.721-0.433-3.317,1.444-4.617,3.608c-1.443,2.164-2.164,4.471-2.164,6.781 c0,2.307,0.289,4.761,0.433,5.771c0.144,1.009-1.299,5.483-1.587,6.204c-0.289,0.722-0.433,3.751,0.288,2.886 c0.289-0.433-0.288-2.454,0.578-0.867c1.009,1.587,1.587,2.309,2.165,0.434c0.721-2.309,4.616-5.196,5.337-5.916 c0.866-0.722,2.742-2.886,2.742-6.78C45.121,17.434,42.813,22.773,41.658,20.753z" clip-rule="evenodd"/><path fill="#918E7C" fill-rule="evenodd" d="M40.648,22.34 c-1.875-3.462,2.74-6.925,0.433-10.388c-0.433-0.289-2.886,1.298-4.184,3.317c-1.587,2.164-2.308,4.328-2.308,6.493 c0,2.31,0.289,4.617,0.433,5.628c0.288,1.153-1.155,5.336-1.443,6.059c-0.288,0.722-0.576,3.896,0,3.029 c0.289-0.432-0.144-2.452,0.722-0.864c1.009,1.587,1.442,2.452,2.02,0.577c0.721-2.309,4.617-5.338,5.482-5.915 c0.723-0.723,2.453-2.885,2.598-6.204C45.121,16.714,42.091,24.792,40.648,22.34z" clip-rule="evenodd"/><path fill="#807D6C" fill-rule="evenodd" d="M39.639,23.927 c-2.165-4.039,3.75-7.213,1.298-11.542c-0.433-0.433-2.453,1.01-3.896,3.03c-1.587,2.164-2.308,4.039-2.308,6.203 c0,2.165,0.145,4.619,0.289,5.483c0.433,1.155-1.01,5.194-1.299,6.061c-0.288,0.578-0.721,3.894-0.288,3.174 c0.288-0.434,0-2.454,0.866-1.009c0.865,1.587,1.298,2.596,1.875,0.72c0.577-2.452,4.617-5.338,5.482-6.059 c0.866-0.577,2.453-2.742,2.597-5.339C45.121,15.992,41.369,26.957,39.639,23.927z" clip-rule="evenodd"/><path fill="#6C6A5C" fill-rule="evenodd" d="M40.792,12.963 c-0.289-0.578-2.309,0.72-3.751,2.596c-1.443,2.02-2.164,3.751-2.164,5.916s0,4.472,0.288,5.338 c0.433,1.153-1.154,5.049-1.442,5.914c-0.145,0.723-0.866,4.042-0.288,3.319c0.288-0.432,0-2.452,0.866-0.865 c0.865,1.442,1.298,2.597,1.73,0.72c0.578-2.452,4.762-5.337,5.627-5.914c0.721-0.722,2.164-2.887,2.308-4.761 c1.154-10.1-3.318,3.751-5.193,0.433C36.176,21.041,43.534,18.011,40.792,12.963z" clip-rule="evenodd"/><path fill="#B4A996" fill-rule="evenodd" d="M165.595,118.286 c-2.885,1.587-9.09,2.165-25.106,19.767c-3.606,3.896-12.695,12.842-15.148,16.016c-2.309,3.317-3.75,4.472,0.145,1.442 c4.04-3.174,2.886-0.577,7.07-5.626c2.164-2.741,5.194-7.503,9.233-11.254C145.828,134.878,165.595,118.286,165.595,118.286z" clip-rule="evenodd"/><path fill="#B4A996" fill-rule="evenodd" d="M114.952,164.6c0,0-3.896,1.587-5.194,0.865 c-1.298-0.865-2.02-0.865-3.896-0.145c-1.875,0.578-7.792,2.022-10.677,2.599c-2.308,0.433-9.522,2.597-10.82,3.03 c-1.155,0.433-8.224,4.184-5.627,5.049c2.453,0.867,3.608-1.297,5.916-2.165c2.453-0.865,8.368-3.751,11.253-4.616 c2.742-0.578,8.657-2.165,10.822-2.452C108.892,166.475,113.509,166.042,114.952,164.6z" clip-rule="evenodd"/><path fill="#B4A996" fill-rule="evenodd" d="M108.315,162.003 c1.587,0.433,2.309-0.145,2.741-1.01c0.433-0.867-0.433-1.732,0.722-2.596c1.298-0.868,0.865-1.3-0.289-0.578 C110.479,158.54,106.295,161.571,108.315,162.003z" clip-rule="evenodd"/><path fill="#B4A996" fill-rule="evenodd" d="M102.4,140.649 c1.298-0.432,3.317-2.741,4.617-4.039c1.01-1.155,3.318-2.599,4.328-3.174c1.01-0.577,2.021-2.887,2.597-3.751 c0.578-0.867,1.299-3.319,3.319-5.196c1.876-2.02,14.573-18.035,18.036-21.064c3.462-2.884,7.792-6.925,5.192-5.483 c-2.596,1.444-8.512,6.35-10.387,8.37c-1.731,1.875-14.573,15.004-16.448,19.765c-2.453,5.916-3.896,6.493-4.762,7.215 C108.027,134.011,100.091,141.804,102.4,140.649z" clip-rule="evenodd"/><path fill="#EDEBD2" fill-rule="evenodd" d="M80.902,44.126 c-0.144-1.154,1.587-1.154,2.886-1.732c1.587-0.72,2.885-1.442,4.184-1.587c1.01,0,1.443-1.01,2.885-1.155 c1.299-0.143,2.164-0.865,3.462-1.297c1.444-0.433,2.31-0.433,4.329-0.722c2.165,0,7.646-1.155,8.512-1.297 c10.677-1.732,20.2-5.771,18.901-4.906c-8.08,5.048-23.084,7.07-24.527,7.07s-5.194,0.433-5.771,0.865 c-0.578,0.432-1.731,2.019-3.174,2.019c-1.443,0-2.309-0.288-2.309,0.577c0,1.01,1.154,2.887-0.288,2.597 c-1.587-0.288-1.01-2.02-1.732-1.732c-0.721,0.29-1.299,0.145-1.442,0.867c-0.145,0.72,0.144,1.732-0.577,1.587 c-0.721-0.145-0.433-1.3-1.155-1.155c-0.721,0.145-1.298,3.896-1.731,2.886c-0.434-1.011,0.433-2.741-0.289-2.741 C82.346,44.271,81.045,45.713,80.902,44.126z" clip-rule="evenodd"/><path fill="#EDEBD7" fill-rule="evenodd" stroke="#E5E3CA" stroke-miterlimit="2.414" stroke-width=".36" d="M119.136,77.599c1.299,1.588,2.453,2.165,4.617,2.165c1.01,0,5.626,2.597,7.359,3.751c1.586,1.154,1.875,3.174,4.328,4.039 c2.309,0.722,1.299,5.916,3.319,5.051c2.164-1.012,3.606-5.628,3.751-7.215c0.144-1.442,1.01-5.193,0.289-5.916 c-0.722-0.72-0.866-1.73-3.751-1.875c-2.741-0.145-6.781-1.731-7.357-2.02c-0.578-0.289-5.917-1.587-5.339-0.867 c0.433,0.578,4.039,2.31,3.029,2.597c-1.009,0.289-1.875,1.009-3.029,0.722C125.052,77.599,117.982,76.3,119.136,77.599z" clip-rule="evenodd"/><path fill="#EDEBD7" fill-rule="evenodd" stroke="#E5E3CA" stroke-miterlimit="2.414" stroke-width=".36" d="M185.072,83.226c-1.877,1.155-6.493,5.628-7.502,5.771c-1.012,0.145-2.454,0.722-2.742,1.01 c-0.289,0.435-3.175,1.299-3.752,2.164c-0.72,0.722-1.73,0.435-2.885,1.877c-1.155,1.442-9.089,6.78-6.348,6.78 c2.885,0,6.059-1.875,8.944-2.596c3.031-0.722,3.752-0.29,5.917-0.722c2.019-0.433,10.531-3.607,11.687-4.617 c1.298-1.01,3.174-0.722,4.328-2.309c1.299-1.297,2.452-2.452,1.875-4.184C194.018,84.813,191.276,79.187,185.072,83.226z" clip-rule="evenodd"/><path fill="#EDEBD7" fill-rule="evenodd" stroke="#E5E3CA" stroke-miterlimit="2.414" stroke-width=".36" d="M156.359,113.525c1.011-1.298,2.454-4.184,5.195-5.339c2.885-1.155,5.194-2.308,7.936-2.308c2.885,0,5.626-0.722,7.646-2.021 c2.02-1.298,6.059-2.74,6.637-3.03c0.577,0,6.059-2.02,5.339,0.433c-0.866,2.31-2.598,6.638-4.905,8.081 c-2.165,1.587-6.637,2.164-8.225,3.029c-1.731,0.868-4.329,2.742-9.234,3.175C161.698,115.976,153.619,117.42,156.359,113.525z" clip-rule="evenodd"/><path fill="#EDEBD7" fill-rule="evenodd" stroke="#E5E3CA" stroke-miterlimit="2.414" stroke-width=".36" d="M18.862,45.136c0.144-0.577,1.299-2.164,2.309-2.309c1.01-0.288,2.164,0.577,2.453,0.867c0.433,0,2.741,2.885,3.317,3.029 c0.578,0.29-3.317-0.722-3.75-1.154c-0.434-0.433-2.742-0.865-3.319-0.577C19.294,45.136,18.573,45.713,18.862,45.136z" clip-rule="evenodd"/><path fill="#EDEBD2" fill-rule="evenodd" d="M19.294,66.345 c0.145-0.432,0.145-1.442-0.289-2.019c-0.289-0.29-1.153-1.01-0.721-1.01c0.577,0,1.731,0.433,2.164,1.154 c0.578,1.153,0.144,3.317-0.288,3.607C19.872,68.509,19.294,69.952,19.294,66.345z" clip-rule="evenodd"/><path fill="#DD8953" fill-rule="evenodd" stroke="#DC8D68" stroke-miterlimit="2.414" stroke-width="1.8" d="M156.504,15.847c-1.443,1.01-11.543,4.761-11.831,7.07c-0.289,2.452-1.586,3.896-1.586,6.348c0,2.31,0.576,4.184-0.866,6.204 c-1.444,2.164-2.308,7.215-1.733,9.522c0.578,2.454,7.359,4.184,8.658,6.348c1.154,2.021,7.069,4.618,10.675,4.041 c3.608-0.577,9.524-2.02,10.965-4.041c1.588-2.165,2.454-6.059,6.061-6.636c3.607-0.577,7.646-1.731,9.233-3.606 c1.443-1.731,6.782-6.493,10.389-6.493c3.607,0,8.368,0.865,9.233-0.289c0.866-1.153,11.544-2.74,8.657-7.791 c-2.885-5.049-2.596-6.204-6.204-8.946c-3.607-2.596-9.378-7.647-14.717-8.945c-3.462-0.867-6.204-2.597-14.283-0.29 c-3.318,1.012-6.781,1.299-8.656,1.299C168.769,9.644,160.688,12.818,156.504,15.847z" clip-rule="evenodd"/><path fill="#DD8953" fill-rule="evenodd" stroke="#DC8D68" stroke-miterlimit="2.414" stroke-width="1.8" d="M227.634,47.156c1.588,1.587-0.576,9.235-1.441,13.129c-0.867,3.751,0.288,7.648,0.288,9.812c0,2.021-4.472,8.223,0.577,8.223 c5.05,0,7.935-4.039,9.812-9.665c1.73-5.771,3.606-4.041,4.472-6.925c1.01-3.319,0.29-8.368-0.577-11.399 c-0.865-2.884-3.606-9.522-6.636-11.542c-2.888-2.165-9.523-8.945-9.813-7.791c-0.288,1.298,2.742,4.472,3.031,5.338 C227.634,37.346,226.48,46.001,227.634,47.156z" clip-rule="evenodd"/><path fill="#B77245" fill-rule="evenodd" d="M178.146,77.599 c-2.452,3.03-9.667,12.12-9.667,12.12s-1.875,0-2.597-0.145c-0.578-0.288-1.732-0.433-2.021-0.288c-0.433,0-1.153,0-1.586-0.29 c-0.578-0.577-1.154-0.865-1.876-0.433c-0.721,0.433-2.164,0.433-2.74,1.01c-0.578,0.29-1.876,0.29-2.309,0.145 c-0.289-0.145-1.154-0.433-1.731,0c-0.578,0.145-1.444,0.288-2.164,0c-0.866-0.145-1.587,0-2.165,0.145 c-0.721,0.287-2.164,0.432-2.885,0.287c-0.577-0.145-4.329-0.432-4.329-0.432s1.732-6.636,1.587-8.513 c-0.144-1.732,0-2.742-2.02-3.319c-1.875-0.577-3.463-0.864-4.473-1.009c-1.009-0.145-4.04-1.154-4.473-1.442 c-0.577-0.29-4.905-1.732-5.338-1.732c0,0-2.742-0.865-3.175-1.155c0,0-2.596-1.587-3.174-1.875 c-0.577-0.289-4.906-2.309-4.906-2.309s-0.721-0.288-1.154-0.288c-0.577,0-3.174,0.144-3.607,0c0,0,3.319,0,3.462-0.145 c0.289-0.288,0.289-0.723-0.144-0.865c-0.577-0.145-3.751-2.597-4.329-4.474c0,0,1.732,2.02,2.453,2.597 c0.721,0.723,2.019,1.877,2.74,2.165c0.867,0.433,2.165,1.299,1.011-0.145c-1.154-1.442-5.627-5.771-7.647-11.397 c0,0,2.453,5.483,7.503,10.388c1.587,1.587,4.906,4.184,5.338,4.184c0.432-0.289-1.01-2.02-1.587-2.597 c-0.432-0.433-5.482-6.781-6.348-9.233c0,0,6.637,9.523,8.224,10.82c1.443,1.299,2.453,2.022,2.164,1.299 c-0.288-0.722-1.731-2.452-2.164-3.319c-0.578-0.72-3.174-5.193-3.607-6.349c0,0,4.761,8.081,6.637,9.667 c3.895,3.462,2.452,0.865,1.875,0c-0.433-0.865-4.473-6.06-5.771-8.945c-0.433-1.01-2.741-5.771-3.318-7.793 c0,0,4.472,9.525,6.637,12.699c2.308,3.174,4.472,5.626,5.193,5.914c0.721,0.435,2.309,1.155,1.587-0.288 c-0.289-0.577-1.299-2.596-1.587-3.319c-0.289-0.864-1.298-4.906-1.298-4.906s1.731,5.338,3.463,7.936 c1.009,1.299,4.905,4.328,3.174,0.722c-0.866-1.732-2.596-4.039-3.462-10.677c0,0,2.019,7.792,3.895,10.677 c2.02,3.03,2.453,2.02,2.453,2.02s0-1.729-0.144-2.02c-0.145-0.433-0.289-6.348-0.289-7.646c0,0,0.578,7.646,1.01,8.656 c0.433,0.867,1.299,1.442,1.587,1.154c0.144-0.433,0.576-2.452,0.576-3.174c0-0.433,0.433-5.627,0.433-5.627s0,7.646,0,7.936 c0,0.578,0.434,1.73,0.866,1.587c0.433-0.144,0.866-4.183,0.866-4.183s-0.145,3.894,0.144,4.616 c0.578,1.442,2.019,1.442,2.164,0.72c0.144-0.72,0.577-3.029,0.432-3.894c-0.144-0.722,0.866-6.061,1.299-7.07 c0,0-0.865,7.648-0.721,9.522c0.145,1.732-1.155,6.06-0.578,6.348c0.723,0.29,2.885-5.626,2.453-3.894 c-0.431,3.317,0.289,5.771,1.01,3.606c0.722-2.02,3.462-15.293,3.462-15.293s-2.453,13.274-2.453,14.861 c0,2.165,1.011,2.02,1.588,0.433c0.576-1.444,2.309-5.771,2.309-5.771s-1.876,5.626-1.444,6.349 c0.578,0.72,0.866,1.875,1.733-0.578c0.865-2.454,2.451-6.493,2.451-6.493s1.732-4.762,2.165-6.78c0,0-1.442,6.635-2.309,8.655 c-0.866,2.165-2.453,6.638-1.731,6.926c0.721,0.29,1.875-0.433,2.309-1.01c0.578-0.72,3.174-4.617,3.174-4.617 s-1.875,4.039-2.021,4.617c-0.432,2.021,1.154,1.01,2.309,0.434c1.154-0.722,6.925-9.379,7.791-11.111 c0,0-5.625,9.957-6.637,11.399c-1.01,1.299,0.723,2.452,2.309,1.154c1.588-1.299,9.09-11.399,9.523-12.408 c0,0-5.628,9.234-6.206,10.244c-0.576,0.865-0.865,3.606,1.299,1.875c2.164-1.875,7.359-7.936,9.667-12.984 c0,0-5.193,9.667-6.925,11.687c-1.875,1.875,0,1.731,1.299,0.72c1.299-1.01,8.08-11.11,8.08-11.11l4.328-5.338L178.146,77.599z" clip-rule="evenodd"/><path fill="#975E39" fill-rule="evenodd" d="M171.653,85.822 c-1.73,2.165-3.173,3.896-3.173,3.896s-1.875,0-2.597-0.145c-0.578-0.288-1.732-0.433-2.021-0.288c-0.433,0-1.153,0-1.586-0.29 c-0.578-0.577-1.154-0.865-1.876-0.433c-0.721,0.433-2.164,0.433-2.74,1.01c-0.578,0.29-1.876,0.29-2.309,0.145 c-0.289-0.145-1.154-0.433-1.731,0c-0.578,0.145-1.444,0.288-2.164,0c-0.866-0.145-1.587,0-2.165,0.145 c-0.721,0.287-2.164,0.432-2.885,0.287c-0.577-0.145-4.329-0.432-4.329-0.432s1.732-6.636,1.587-8.513 c0,0,0.721,2.02,0.433,2.742c0,0.722,0,2.742,1.01,1.587c0.866-1.154,1.587-2.452,1.587-2.452l-0.433,2.307 c0,0,0.433,1.01,1.586-0.577c1.154-1.587,1.442-1.875,1.442-1.875s-1.299,3.319-1.875,4.329 c-0.578,0.865,0.576,1.01,1.586,0.143c0.866-1.01,2.021-2.308,2.021-2.308l-0.722,2.742c0,0,0.722,1.442,1.875-0.29 c1.299-1.875,2.165-3.174,2.165-3.174s-0.289,2.597-0.866,3.174c-0.721,0.577,0.866,1.442,1.587,0.433 c0.722-1.01,2.742-2.742,2.742-2.742l-1.155,2.165c0,0,1.155,0.577,2.021-0.433c0.865-0.865,1.586-1.732,1.586-1.732 s-0.578,1.444,0.866,1.444c1.587,0,1.299,1.442,2.596,1.01c1.154-0.433,2.02-1.732,2.02-1.732s-1.299,2.02-0.433,2.02 s2.019,0.29,3.174-0.433C169.634,86.689,171.653,85.822,171.653,85.822z" clip-rule="evenodd"/><path fill="#4C3C36" fill-rule="evenodd" d="M5.588,55.958c0,0-1.443,2.02,2.886,1.297 c1.587-0.288-0.722,2.454-0.433,3.464c0.289,0.865,2.02,3.607,3.606,4.039c0.866,0.433,4.184,3.03,3.462,4.617 c-0.721,2.165-4.04,2.022-7.358,0.867c0,0-2.885-0.722-4.184-2.02c-0.577-0.434-1.587-1.732-2.598-2.454 c-0.721-0.578-1.01-2.452-0.144-4.039C1.837,59.852,4.579,57.111,5.588,55.958z" clip-rule="evenodd"/><path fill="#322B22" fill-rule="evenodd" d="M1.404,64.614 c0.721,0.144,5.05,0,5.915-0.288c0.723-0.29,1.587,0.144,1.011,1.297c-0.722,1.154-1.443,1.587-2.598,2.022 c-0.721,0.288-1.298,0.864-3.174-0.435C1.548,66.49-1.048,64.036,1.404,64.614z" clip-rule="evenodd"/><path fill="#6F5B4C" fill-rule="evenodd" stroke="#59473D" stroke-miterlimit="2.414" stroke-width=".72" d="M5.011,57.688c0-0.433-3.607,3.751-3.751,4.761c-0.289,1.012-0.578,2.599,0,2.599c1.732-0.145,3.896,0.288,5.195-0.145 c1.442-0.577,2.02-0.577,1.298-1.587c-0.721-0.867-2.164-1.877-1.443-2.31c0.722-0.577,2.309-3.174,1.443-2.884 C6.887,58.555,5.156,58.843,5.011,57.688z" clip-rule="evenodd"/><path fill="#E5E3D1" fill-rule="evenodd" d="M9.051,59.275 c-0.721,0.145-1.732,1.731-1.009,2.597c0.721,1.012,1.298,2.455,1.153,3.609c-0.144,1.009-1.731,3.174-3.606,3.174 c-1.731,0,0,0.578,1.155,1.01c1.731,0.577,3.463,1.297,6.348,1.154c3.03-0.145,3.896-0.145,2.452-2.31 c-0.433-0.722-0.144-1.732-0.433-2.596c-0.721-2.31-1.154-2.165-1.587-1.587c-0.289,0.722-1.73,1.009-1.154-0.29 c0,0,0.289-1.587-1.01-1.01c-1.009,0.435-1.009-0.287-1.009-1.009C10.35,61.296,11.07,58.987,9.051,59.275z" clip-rule="evenodd"/><path fill="#F7F4E3" fill-rule="evenodd" d="M8.619,61.872 c0,0.435,1.01,1.299,1.01,1.877c0.144,0.722,0.578,1.154,1.01,1.442c0.289,0.145,0.721,0.433,1.155,0.433 c1.009,0-0.434-1.009-0.145-1.442c0.289-0.433-0.289-0.72-0.721-0.578c-0.289,0-1.01-0.288-1.01-0.72 C9.628,62.306,8.619,61.151,8.619,61.872z" clip-rule="evenodd"/><path fill="#615F52" fill-rule="evenodd" d="M18.862,48.166 c0.144-0.143,0.433-0.433,0.433-0.72c0.145-0.29,0.578-1.732,1.298-1.732c0,0,1.011-0.145,2.021,0.433 c0.866,0.433,2.453,1.299,3.175,1.299c0.721,0,1.442,0,1.153,0.288c-0.288,0.29-1.009,0.433-1.153,0.577 c-0.289,0.29-2.165,2.02-3.031,1.732c-0.865-0.29-2.165-0.867-2.309-1.01c-0.288-0.29-0.721-0.578-1.154-0.578 C19.006,48.455,18.429,48.455,18.862,48.166z" clip-rule="evenodd"/><path fill="#545354" fill-rule="evenodd" d="M19.151,48.31 c-0.145,0,0.577-0.577,0.577-0.865c0-0.29,0.289-1.01,0.433-0.722c0,0.433,0.432,2.02,0.721,2.165 C20.881,48.888,19.728,48.166,19.151,48.31z" clip-rule="evenodd"/><path fill="#545354" fill-rule="evenodd" d="M24.056,47.156c0,0,1.01,0.577,1.587,0.577 c0.289,0,0.577,0.145,0.289,0.29c-0.289,0.143-0.721,0.432-0.865,0.577c-0.145,0-0.577,0.575-0.577,0.575 S24.921,47.878,24.056,47.156z" clip-rule="evenodd"/><path fill="#261E19" fill-rule="evenodd" d="M20.593,45.858 c-0.288,0-0.576,0.433-0.721,1.01c0,0.577,0.289,1.442,0.721,1.875c0.578,0.433,1.3,0.867,1.587,0.867 c0.288,0.143,0.577,0.288,1.299,0c0.721-0.29,0.865-0.29,1.01-0.577c0.289-0.433,0.144-1.587-0.433-2.02 C23.334,46.723,21.748,45.713,20.593,45.858z" clip-rule="evenodd"/><path fill="#72593F" fill-rule="evenodd" d="M21.026,46.291 c-0.145,0-0.578,0-0.578,0.577c0,0.432,0.289,0.865,0.433,1.155c0.145,0.143,0.289,0.143,0.434,0 c0.289-0.29,0-0.723,0.289-0.867c0.576-0.143,1.009-0.288,0.576-0.577C21.893,46.436,21.459,46.291,21.026,46.291z" clip-rule="evenodd"/><path fill="#4B3B34" fill-rule="evenodd" stroke="#000" stroke-miterlimit="2.414" stroke-width=".36" d="M76.862,94.913c-0.865,1.442-0.144,3.751,1.009,5.338c1.155,1.442,1.732,3.606,2.453,5.193 c0.577,1.444,2.309,4.762,4.329,6.205c2.165,1.443,4.329,2.597,5.771,3.606c1.443,0.865,4.761,1.155,6.493-0.722 c0,0,0.865-0.288-1.732-0.72c0,0,2.309-0.867,1.876-1.299c-0.578-0.578-2.309-1.01-2.742-1.587 c-0.288-0.722-1.587-2.02-1.587-2.02s2.021,1.009,0.723-2.165c-1.155-3.319-1.443-5.626-3.463-6.493 c-2.021-0.72-3.463-1.443-3.463-2.885C86.529,95.49,79.315,90.729,76.862,94.913z" clip-rule="evenodd"/><path fill="none" fill-rule="evenodd" stroke="#ADAB95" stroke-linecap="round" stroke-miterlimit="2.414" stroke-width=".36" d="M79.748,91.593c0,0,6.348-4.184,8.08,2.021" clip-rule="evenodd"/><path fill="none" fill-rule="evenodd" stroke="#A4A08B" stroke-linecap="round" stroke-miterlimit="2.414" stroke-width=".432" d="M79.315,91.883c0,0,6.205-4.184,8.368,2.02" clip-rule="evenodd"/><path fill="none" fill-rule="evenodd" stroke="#9A937F" stroke-linecap="round" stroke-miterlimit="2.414" stroke-width=".504" d="M79.026,92.17c0,0,5.916-4.039,8.513,2.022" clip-rule="evenodd"/><path fill="none" fill-rule="evenodd" stroke="#8F8775" stroke-linecap="round" stroke-miterlimit="2.414" stroke-width=".504" d="M78.882,92.46c0,0,5.483-4.041,8.368,2.02" clip-rule="evenodd"/><path fill="none" fill-rule="evenodd" stroke="#867B6B" stroke-linecap="round" stroke-miterlimit="2.414" stroke-width=".576" d="M78.449,92.893c0,0,5.338-4.039,8.657,1.875" clip-rule="evenodd"/><path fill="none" fill-rule="evenodd" stroke="#7E7262" stroke-linecap="round" stroke-miterlimit="2.414" stroke-width=".648" d="M78.305,93.181c0,0,4.905-3.895,8.656,1.876" clip-rule="evenodd"/><path fill="none" fill-rule="evenodd" stroke="#76675A" stroke-linecap="round" stroke-miterlimit="2.414" stroke-width=".72" d="M78.017,93.615c0,0,4.617-4.041,8.656,1.73" clip-rule="evenodd"/><path fill="none" fill-rule="evenodd" stroke="#6C5E51" stroke-linecap="round" stroke-miterlimit="2.414" stroke-width=".792" d="M77.728,93.902c0,0,4.329-4.184,8.801,1.732" clip-rule="evenodd"/><path fill="none" fill-rule="evenodd" stroke="#64544A" stroke-linecap="round" stroke-miterlimit="2.414" stroke-width=".864" d="M77.584,94.192c0,0,3.896-4.042,8.801,1.729" clip-rule="evenodd"/><path fill="none" fill-rule="evenodd" stroke="#5B4B42" stroke-linecap="round" stroke-miterlimit="2.414" stroke-width=".936" d="M77.439,94.48c0,0,3.463-4.039,8.657,1.587" clip-rule="evenodd"/><path fill="none" fill-rule="evenodd" stroke="#52423A" stroke-linecap="round" stroke-miterlimit="2.414" stroke-width="1.008" d="M77.295,94.768c0,0,3.029-3.895,8.657,1.587" clip-rule="evenodd"/><path fill="none" fill-rule="evenodd" stroke="#4B3B34" stroke-linecap="round" stroke-miterlimit="2.414" stroke-width="1.08" d="M77.15,95.057c0,0,2.597-3.751,8.658,1.587" clip-rule="evenodd"/><path fill="none" fill-rule="evenodd" stroke="#4B3B34" stroke-linecap="round" stroke-miterlimit="2.414" stroke-width="1.08" d="M97.35,117.998c-1.731,2.02-1.731,7.936,6.493,7.936" clip-rule="evenodd"/><g><path fill="none" fill-rule="evenodd" stroke="#52413A" stroke-linecap="round" stroke-miterlimit="2.414" stroke-width="1.008" d="M97.494,117.853c-1.587,1.875-1.443,7.358,6.636,7.936" clip-rule="evenodd"/><path fill="none" fill-rule="evenodd" stroke="#594840" stroke-linecap="round" stroke-miterlimit="2.414" stroke-width="1.008" d="M97.783,117.708c-1.587,1.731-1.154,6.926,6.493,7.792" clip-rule="evenodd"/><path fill="none" fill-rule="evenodd" stroke="#614F45" stroke-linecap="round" stroke-miterlimit="2.414" stroke-width=".936" d="M97.927,117.42c-1.443,1.732-0.721,6.494,6.492,7.791" clip-rule="evenodd"/><path fill="none" fill-rule="evenodd" stroke="#65554A" stroke-linecap="round" stroke-miterlimit="2.414" stroke-width=".936" d="M98.071,117.276c-1.298,1.587-0.432,5.916,6.637,7.647" clip-rule="evenodd"/><path fill="none" fill-rule="evenodd" stroke="#6D5C51" stroke-linecap="round" stroke-miterlimit="2.414" stroke-width=".864" d="M98.359,117.131c-1.298,1.444-0.144,5.483,6.637,7.503" clip-rule="evenodd"/><path fill="none" fill-rule="evenodd" stroke="#756357" stroke-linecap="round" stroke-miterlimit="2.414" stroke-width=".864" d="M98.504,116.844c-1.154,1.442,0.144,5.048,6.637,7.502" clip-rule="evenodd"/><path fill="none" fill-rule="evenodd" stroke="#7C6B5D" stroke-linecap="round" stroke-miterlimit="2.414" stroke-width=".792" d="M98.648,116.699c-1.01,1.299,0.577,4.616,6.637,7.358" clip-rule="evenodd"/><path fill="none" fill-rule="evenodd" stroke="#827162" stroke-linecap="round" stroke-miterlimit="2.414" stroke-width=".792" d="M98.937,116.554c-1.01,1.155,0.866,4.042,6.637,7.215" clip-rule="evenodd"/><path fill="none" fill-rule="evenodd" stroke="#8A7B6A" stroke-linecap="round" stroke-miterlimit="2.414" stroke-width=".72" d="M99.081,116.266c-0.865,1.154,1.154,3.751,6.636,7.213" clip-rule="evenodd"/><path fill="none" fill-rule="evenodd" stroke="#928272" stroke-linecap="round" stroke-miterlimit="2.414" stroke-width=".72" d="M99.37,116.121c-0.865,1.01,1.443,3.174,6.637,7.07" clip-rule="evenodd"/></g><path fill="none" fill-rule="evenodd" stroke="#9A8B78" stroke-linecap="round" stroke-miterlimit="2.414" stroke-width=".648" d="M99.514,115.976c-0.721,0.868,1.731,2.6,6.637,6.926" clip-rule="evenodd"/><g><path fill="none" fill-rule="evenodd" stroke="#A19580" stroke-linecap="round" stroke-miterlimit="2.414" stroke-width=".648" d="M99.803,115.688c-0.577,0.865,2.165,2.165,6.637,6.781" clip-rule="evenodd"/><path fill="none" fill-rule="evenodd" stroke="#AA9D89" stroke-linecap="round" stroke-miterlimit="2.414" stroke-width=".576" d="M100.235,115.544c-0.577,0.577,2.453,1.587,6.637,6.638" clip-rule="evenodd"/><path fill="none" fill-rule="evenodd" stroke="#B3A892" stroke-linecap="round" stroke-miterlimit="2.414" stroke-width=".504" d="M100.524,115.401c-0.433,0.433,2.742,1.01,6.637,6.491" clip-rule="evenodd"/><path fill="none" fill-rule="evenodd" stroke="#BBB19A" stroke-linecap="round" stroke-miterlimit="2.414" stroke-width=".504" d="M100.813,115.112c-0.289,0.433,3.174,0.577,6.636,6.348" clip-rule="evenodd"/><path fill="none" fill-rule="evenodd" stroke="#C4BDA4" stroke-linecap="round" stroke-miterlimit="2.414" stroke-width=".432" d="M101.245,114.824c-0.289,0.288,3.463,0.143,6.493,6.348" clip-rule="evenodd"/><path fill="none" fill-rule="evenodd" stroke="#CDC6AB" stroke-linecap="round" stroke-miterlimit="2.414" stroke-width=".432" d="M101.534,114.679c-0.144,0.145,3.751-0.433,6.637,6.204" clip-rule="evenodd"/><path fill="none" fill-rule="evenodd" stroke="#D5D2B5" stroke-linecap="round" stroke-miterlimit="2.414" stroke-width=".36" d="M101.822,114.389c0,0.145,4.184-0.864,6.637,6.206" clip-rule="evenodd"/></g><path fill="none" fill-rule="evenodd" stroke="#DFDCBF" stroke-linecap="round" stroke-miterlimit="2.414" stroke-width=".36" d="M102.111,114.247c0,0,4.618-1.444,6.781,5.916" clip-rule="evenodd"/><path fill="#B5B299" fill-rule="evenodd" d="M21.604,65.913c0,0-0.289-1.01,0.289-1.299 c0.576-0.288,0.144,0.289,0.865,0c0.722,0,1.299-0.578,1.299-0.578s0.288-1.442,0.433-1.01c0.144,0.435,0.289,1.01,0.865,0.723 c0.289-0.145,0.289-1.155,0.578-1.732c0-0.578,0-1.01,0.433-0.433c0.433,0.578,0,2.165,0.576,1.587 c0.578-0.577,0.722-0.865,0.722-0.865s0.289-1.155-0.145-1.587c-0.433-0.435-0.578-1.01,0.145-0.722 c0.721,0.578,0.577,1.442,1.01,1.442s0.578-0.72,0.578-0.72s-0.578-1.876-0.145-1.587c0.578,0.288,0.866,2.307,1.443,2.02 c0.433-0.289,0.577-1.732,0.289-2.597c-0.289-0.867-0.145-1.731,0.577-1.299c0.721,0.433,0,0.433,0.289,1.01 c0.288,0.578-0.145,2.597,0.288,2.741c0.289,0,0.578-0.722,0.866-2.02c0.289-1.299-0.289-2.164,0.721-2.164 c0,0,0.145,4.328,1.011,3.461c1.587-1.587,0.433-5.336,1.153-4.904c0.578,0.288,0.145,1.01,0.723,1.298 c0.576,0.29-1.155,3.174,0.144,3.031c0.721-0.29,1.587-1.299,1.298-2.165c-0.289-0.867-0.433-1.876-0.433-1.876 s1.154,0.29,1.442-1.587c0.145-0.577-0.144-1.442,0.433-0.577c0.722,0.867,0.289,1.444,0,1.876 c-0.433,0.578,0,0.578-0.289,1.298c-0.288,0.577-0.722,1.587-0.433,2.165c0.289,0.577,1.011-0.288,1.443-0.865 c0.432-0.578,1.01-2.886,1.154-2.02c0.144,0.72-0.289,1.875-0.289,1.875s-0.577,1.299,0,1.154 c0.578-0.144,1.01-2.309,1.01-1.731s0.433,1.587-2.02,3.029c0,0-5.338,3.176-9.09,3.464 C30.837,63.749,24.633,64.036,21.604,65.913z" clip-rule="evenodd"/><path fill="#B5B299" fill-rule="evenodd" d="M21.315,40.52 c0.578-0.578,0.578-0.722,1.587-1.299c1.01-0.578,1.73-2.452,2.452-2.885c0.578-0.434,3.174-3.174,4.329-2.454 c0.577,0.433-1.587,2.164-0.721,2.596c1.009,0.435,1.298-0.288,1.298,0.578c-0.289,1.01-1.154,1.587-0.577,1.877 c0.577,0.288,1.154,1.154,1.731,1.154c0.576,0,1.299,0.72,1.299,0.72s0.289,0.867,0.721,0.577 c0.432-0.145,2.741-0.145,3.174,1.01c0.433,1.01,1.154,1.732,0.578,1.442c-0.578-0.288-0.289,2.165-1.01,1.299 c-0.866-0.722-0.866-2.309-2.598-2.742c-1.01-0.288-2.452-0.72-3.318-1.154c-0.577-0.433-2.453-1.73-4.328-0.72 c-1.299,0.72-1.875,0-3.029,0.288C21.604,41.097,20.449,41.962,21.315,40.52z" clip-rule="evenodd"/><path fill="none" fill-rule="evenodd" stroke="#4B3B34" stroke-linecap="round" stroke-miterlimit="2.414" stroke-width="1.08" d="M77.728,178.594c-24.96-5.336-16.592-10.387-12.12-10.82" clip-rule="evenodd"/><g><path fill="none" fill-rule="evenodd" stroke="#5F4C43" stroke-linecap="round" stroke-miterlimit="2.414" stroke-width="1.08" d="M78.017,178.306c-22.796-4.761-17.025-10.1-11.254-10.677" clip-rule="evenodd"/><path fill="none" fill-rule="evenodd" stroke="#6F5C52" stroke-linecap="round" stroke-miterlimit="2.414" stroke-width="1.08" d="M78.449,177.874c-20.775-4.041-17.602-9.667-10.676-10.389" clip-rule="evenodd"/><path fill="none" fill-rule="evenodd" stroke="#847063" stroke-linecap="round" stroke-miterlimit="2.414" stroke-width="1.08" d="M78.882,177.584c-18.756-3.462-18.035-9.377-9.956-10.242" clip-rule="evenodd"/><path fill="none" fill-rule="evenodd" stroke="#988374" stroke-linecap="round" stroke-miterlimit="2.414" stroke-width="1.08" d="M79.171,177.296c-16.592-2.886-18.323-9.09-9.09-10.1" clip-rule="evenodd"/><path fill="none" fill-rule="evenodd" stroke="#AE9985" stroke-linecap="round" stroke-miterlimit="2.414" stroke-width="1.08" d="M79.604,177.007c-14.572-2.307-18.901-8.8-8.512-9.955" clip-rule="evenodd"/><path fill="none" fill-rule="evenodd" stroke="#C3B19C" stroke-linecap="round" stroke-miterlimit="2.414" stroke-width="1.08" d="M80.036,176.719c-12.552-1.732-19.477-8.513-7.791-9.812" clip-rule="evenodd"/></g><path fill="none" fill-rule="evenodd" stroke="#D8C8B0" stroke-linecap="round" stroke-miterlimit="2.414" stroke-width="1.08" d="M80.325,176.432c-10.388-1.155-19.766-8.225-6.926-9.667" clip-rule="evenodd"/><path fill="none" fill-rule="evenodd" stroke="#4B3B34" stroke-linecap="round" stroke-miterlimit="2.414" stroke-width="1.08" d="M69.504,157.819c-23.806,1.153-16.88-5.916-12.264-6.493" clip-rule="evenodd"/><g><path fill="none" fill-rule="evenodd" stroke="#5B4941" stroke-linecap="round" stroke-miterlimit="2.414" stroke-width="1.08" d="M69.647,157.529c-22.074,0.868-16.591-5.483-11.686-6.493" clip-rule="evenodd"/><path fill="none" fill-rule="evenodd" stroke="#6A574C" stroke-linecap="round" stroke-miterlimit="2.414" stroke-width="1.08" d="M69.937,157.242c-20.487,0.578-16.592-5.051-11.109-6.348" clip-rule="evenodd"/><path fill="none" fill-rule="evenodd" stroke="#7D695C" stroke-linecap="round" stroke-miterlimit="2.414" stroke-width="1.08" d="M70.081,156.809c-18.612,0.433-16.447-4.473-10.388-6.205" clip-rule="evenodd"/><path fill="none" fill-rule="evenodd" stroke="#8F7A6C" stroke-linecap="round" stroke-miterlimit="2.414" stroke-width="1.08" d="M70.37,156.52c-17.025,0.289-16.304-4.039-9.956-6.204" clip-rule="evenodd"/><path fill="none" fill-rule="evenodd" stroke="#9E8C7A" stroke-linecap="round" stroke-miterlimit="2.414" stroke-width="1.08" d="M70.514,156.232c-15.293,0-16.159-3.609-9.233-6.206" clip-rule="evenodd"/><path fill="none" fill-rule="evenodd" stroke="#B39F8C" stroke-linecap="round" stroke-miterlimit="2.414" stroke-width="1.08" d="M70.803,155.797c-13.563-0.143-16.16-3.174-8.657-6.059" clip-rule="evenodd"/><path fill="none" fill-rule="evenodd" stroke="#C3B19C" stroke-linecap="round" stroke-miterlimit="2.414" stroke-width="1.08" d="M70.947,155.51c-11.832-0.433-15.872-2.596-8.08-6.06" clip-rule="evenodd"/></g><path fill="none" fill-rule="evenodd" stroke="#D8C8B0" stroke-linecap="round" stroke-miterlimit="2.414" stroke-width="1.08" d="M71.091,155.222c-10.1-0.722-15.727-2.309-7.358-5.916" clip-rule="evenodd"/><path fill="#B4A996" fill-rule="evenodd" d="M69.504,153.778 c0-1.442,1.155-1.875,7.214-3.894c6.059-1.877,11.687-4.329,13.562-4.761c1.731-0.435,6.926-2.886,5.338-1.587 c-1.587,1.297-7.358,3.029-9.667,4.184c-2.453,1.01-11.687,3.895-12.841,4.904C71.957,153.635,69.504,154.5,69.504,153.778z" clip-rule="evenodd"/><path fill="#B4A996" fill-rule="evenodd" d="M242.927,89.431 c0,0,1.733-3.031,2.165-4.906c0.433-1.876-0.145,2.452-0.287,3.174c-0.145,0.577,1.441,0.865,5.049,0.865 c3.463,0,21.499,0.722,27.701,1.732c6.061,1.297,26.836,3.461,29.867,3.461c3.174,0,26.401,0.145,44.726-3.751 c0,0,20.054-3.317,37.944-11.687l-6.491,3.464c0,0-9.234,4.906-37.225,10.387c0,0-7.358,2.165-27.268,2.742 c0,0-16.448,0.432-22.796-0.578c0,0-22.654-3.462-24.673-3.606C269.475,90.583,253.894,88.854,242.927,89.431z" clip-rule="evenodd"/><path fill="#EDEBD7" fill-rule="evenodd" stroke="#E5E3CA" stroke-miterlimit="2.414" stroke-width=".36" d="M15.399,41.962c-0.289,0.433-0.722,1.442-0.866,2.742c-0.144,1.155-1.731,4.617-2.886,5.916 c-2.453,2.165,0.289,1.442,1.587,0.432c1.155-1.154,2.021-1.876,2.021-3.463c0-2.163,0.433-2.885,0.721-3.895 C16.266,42.827,16.842,39.942,15.399,41.962z" clip-rule="evenodd"/><path fill="#EDEBD7" fill-rule="evenodd" stroke="#E5E3CA" stroke-miterlimit="2.414" stroke-width=".36" d="M15.977,51.774c-0.721,0.143-3.607,3.317-4.04,4.617c-0.289,1.297-0.289,2.452,0.433,2.02c0.577-0.433,1.443-2.452,2.021-3.03 C14.967,54.514,17.996,51.629,15.977,51.774z" clip-rule="evenodd"/><path fill="#DDA075" fill-rule="evenodd" stroke="#000" stroke-miterlimit="2.414" stroke-width=".36" d="M393.123,77.887c6.636-3.461,15.293-8.655,22.651-15.87c11.109-10.965,16.015-28.712,13.273-29.432 c-0.865-0.145-2.452,1.587-5.051,6.059c-7.214,12.697-18.899,19.479-25.681,23.663c0,0,2.31,2.597,1.442,6.926 C399.036,72.983,393.123,77.887,393.123,77.887z" clip-rule="evenodd"/><path fill="none" fill-rule="evenodd" stroke="#DDA075" stroke-linecap="round" stroke-miterlimit="2.414" stroke-width="1.368" d="M400.336,62.017c1.299,1.154,3.174,7.215-2.452,12.409" clip-rule="evenodd"/><g><path fill="none" fill-rule="evenodd" stroke="#DDA980" stroke-linecap="round" stroke-miterlimit="2.414" stroke-width="1.368" d="M399.326,62.449c1.3,1.154,3.174,7.215-2.597,12.554" clip-rule="evenodd"/><path fill="none" fill-rule="evenodd" stroke="#DDB289" stroke-linecap="round" stroke-miterlimit="2.414" stroke-width="1.368" d="M398.316,63.026c1.297,1.01,3.174,7.07-2.597,12.554" clip-rule="evenodd"/><path fill="none" fill-rule="evenodd" stroke="#DDBB94" stroke-linecap="round" stroke-miterlimit="2.414" stroke-width="1.368" d="M397.45,63.461c1.298,1.153,3.176,6.924-2.74,12.696" clip-rule="evenodd"/><path fill="none" fill-rule="evenodd" stroke="#DEC39E" stroke-linecap="round" stroke-miterlimit="2.414" stroke-width="1.368" d="M396.439,64.036c1.299,1.154,3.174,6.783-2.74,12.696" clip-rule="evenodd"/><path fill="none" fill-rule="evenodd" stroke="#DECAA9" stroke-linecap="round" stroke-miterlimit="2.414" stroke-width="1.368" d="M395.574,64.47c1.155,1.153,3.029,6.781-3.028,12.984" clip-rule="evenodd"/><path fill="none" fill-rule="evenodd" stroke="#DED3B3" stroke-linecap="round" stroke-miterlimit="2.414" stroke-width="1.368" d="M394.564,65.048c1.298,1.009,3.174,6.636-3.029,12.984" clip-rule="evenodd"/></g><path fill="none" fill-rule="evenodd" stroke="#DFDCBF" stroke-linecap="round" stroke-miterlimit="2.414" stroke-width="1.368" d="M393.556,65.48c1.297,1.154,3.174,6.491-3.175,13.129" clip-rule="evenodd"/><path fill="#E8AD75" fill-rule="evenodd" d="M107.161,54.081 c0.578,1.587,3.463,9.09,7.07,11.109c0,0-1.876-2.02-2.886-3.751c-1.01-1.729-2.74-4.471-3.318-6.491 C107.449,53.072,105.574,49.897,107.161,54.081z" clip-rule="evenodd"/><path fill="#E8AD75" fill-rule="evenodd" d="M111.201,55.091 c0.289,1.299,5.338,8.945,7.214,11.254c2.02,2.02-2.453-2.309-4.617-5.339C111.922,58.41,111.201,55.091,111.201,55.091z" clip-rule="evenodd"/><path fill="#E8AD75" fill-rule="evenodd" d="M112.211,65.768 c-0.578-0.433-2.597-2.885-3.174-3.319c-0.578-0.433-2.309-1.443-1.588-0.143C108.315,63.461,112.211,65.768,112.211,65.768z" clip-rule="evenodd"/><path fill="#E8AD75" fill-rule="evenodd" d="M126.35,60.719 c0-1.732,1.01,5.194,3.029,9.377c0.577,1.155,0,1.3-0.72,0.145C128.082,69.232,126.35,64.326,126.35,60.719z" clip-rule="evenodd"/><path fill="#E8AD75" fill-rule="evenodd" d="M163.862,82.648 c-0.722,0,0-1.875,1.155-3.029c1.155-1.01,5.626-9.234,6.348-10.532c0.721-1.299,2.02-2.31,1.731,0 C172.664,71.251,166.46,82.505,163.862,82.648z" clip-rule="evenodd"/><path fill="#E8AD75" fill-rule="evenodd" d="M159.967,81.783 c-0.721,0,0.433-1.876,1.155-3.029c0.721-1.155,2.74-5.916,3.317-4.907C165.017,75.003,161.555,81.783,159.967,81.783z" clip-rule="evenodd"/><path fill="#E8AD75" fill-rule="evenodd" d="M169.49,81.351 c-0.867-0.722,0.866-2.596,1.875-3.896c0.866-1.297,3.174-5.049,4.329-7.502c1.01-2.452,2.309-3.462,1.73-1.01 C176.992,71.251,170.644,82.505,169.49,81.351z" clip-rule="evenodd"/><path fill="#E8AD75" fill-rule="evenodd" d="M156.215,81.351 c-0.577-0.433,3.174-11.831,4.329-12.841c1.01-1.009,2.453-1.732,1.442,1.01C161.122,71.972,157.514,82.071,156.215,81.351z" clip-rule="evenodd"/><path fill="#E8AD75" fill-rule="evenodd" d="M176.704,75.723 c0.577-1.443,3.028-5.194,3.174-6.059c0.144-1.01,2.02-2.31,1.875-0.578C181.609,70.674,175.26,80.051,176.704,75.723z" clip-rule="evenodd"/><path fill="#E8AD75" fill-rule="evenodd" d="M147.271,70.961 c0.144-2.02,0.577-7.791,1.298-8.8c0.721-1.01,1.587-1.732,1.299,0.145C149.724,64.181,147.126,77.167,147.271,70.961z" clip-rule="evenodd"/><path fill="#E8AD75" fill-rule="evenodd" d="M138.758,67.788 c-0.289-1.298-0.578-6.636-0.145-8.223c0.289-1.732,1.444-1.732,1.444-0.145C140.057,60.862,140.057,72.838,138.758,67.788z" clip-rule="evenodd"/><path fill="#E8AD75" fill-rule="evenodd" d="M147.126,11.808 c2.02-1.587,19.333-11.832,32.895-10.964c0,0,13.13,1.587,19.189,5.048c0,0,2.742,2.31-1.876,0.722 c-4.328-1.444-14.86-3.319-18.034-2.021c-3.03,1.299-8.225,1.876-9.233,1.731c-1.155-0.288-6.061,1.01-7.07,2.02 c-1.154,0.867-9.378,2.454-10.244,2.164C152.032,10.366,140.488,17.146,147.126,11.808z" clip-rule="evenodd"/><path fill="#614C43" fill-rule="evenodd" d="M41.081,155.655 c1.01-1.732,1.443-2.454,3.751-2.741c2.453-0.29,4.472-0.29,4.472-0.29s-3.029-1.729-0.289-1.587 c2.886,0.145,1.443,0.867,6.06,0.145c1.011,0,2.742-0.433-0.577,1.442c-2.597,1.299-0.289,3.031,1.299,3.609 c1.442,0.433,5.626,1.009,3.896,1.587c-1.587,0.578-3.175,3.174-4.762,3.317c-1.732,0.145-3.751,1.155-5.916,0.577 c-2.309-0.577-3.606,0.867-3.174,0.29c0.289-0.433,0.434-2.02,2.742-2.455c2.308-0.288,4.616-1.152,4.04-2.164 c-0.433-1.01-2.165-1.443-3.463-1.01C47.863,156.953,39.782,157.819,41.081,155.655z" clip-rule="evenodd"/><path fill="#614C43" fill-rule="evenodd" d="M63.011,167.774c0,0-2.741-0.432-3.606-1.01 c-0.721-0.577-3.751-1.009-4.617-0.433c-0.721,0.576-1.01,2.02,0,1.875c3.175-0.145,4.906,1.01,4.906,1.01 s-0.578,0.145-1.731,0.145c-1.154,0-5.338-0.29-6.204,0.432c-0.866,0.865-2.453,2.309-2.02,3.174 c0.288,1.01,3.606-0.145,4.905-0.145c1.299,0,7.07-0.143,8.081,0.435c1.153,0.575,0.144,1.153-0.867,0.865 c-1.154-0.145-8.657,0.722-9.233,2.31c-0.433,1.442,2.164,0.72,3.606,0.72c1.587,0,3.896,1.587,5.483,0.722 c1.443-1.01,2.02-0.867,3.751-1.299c2.02-0.433,3.462-0.143,2.453-1.297c-0.866-1.155-5.482-2.887-5.482-4.329 C62.435,169.361,65.752,167.774,63.011,167.774z" clip-rule="evenodd"/><path fill="#41332D" fill-rule="evenodd" d="M51.758,177.007c0,0,0.577-1.442,1.587-1.73 c0,0,3.463-1.155,6.06-1.299c2.597-0.145,1.155-0.288,0.577-0.288c-0.577,0-7.069,0.432-8.08,1.442 c-0.865,0.865-1.299,1.587-1.01,1.875C50.892,177.007,51.613,177.007,51.758,177.007z" clip-rule="evenodd"/><path fill="#41332D" fill-rule="evenodd" d="M52.047,169.071c0,0,1.875-0.288,4.761,0 c1.73,0-2.309-0.433-2.885-0.433C53.056,168.639,52.19,168.494,52.047,169.071z" clip-rule="evenodd"/><path fill="#41332D" fill-rule="evenodd" d="M45.121,162.436 c0,0,0.578-2.452,2.453-2.887c1.876-0.577,3.896-1.009,3.606-1.442c-0.289-0.578-0.865-0.288-1.442,0 c-0.434,0.29-1.732,0.722-2.309,0.722s-3.463,0.288-4.041,1.155c-0.433,1.009-0.433,1.875-0.433,1.875 S44.833,162.003,45.121,162.436z" clip-rule="evenodd"/><path fill="#41332D" fill-rule="evenodd" d="M45.41,152.481c0,0,2.02-0.435,2.453-0.145 c0.433,0.145-0.723-0.865-1.011-0.722C46.563,151.614,45.698,152.046,45.41,152.481z" clip-rule="evenodd"/><path fill="none" fill-rule="evenodd" stroke="#767361" stroke-linecap="round" stroke-miterlimit="2.414" stroke-width=".36" d="M67.917,66.635c0.721-0.29,1.875-2.309,2.453-5.916c0,0,1.009-6.783,0.721-8.37" clip-rule="evenodd"/><path fill="none" fill-rule="evenodd" stroke="#767361" stroke-linecap="round" stroke-miterlimit="2.414" stroke-width=".36" d="M64.311,53.072c0,0,0,2.741,0.144,4.039c0.144,1.299,0,5.195-1.009,6.205" clip-rule="evenodd"/><path fill="none" fill-rule="evenodd" stroke="#767361" stroke-linecap="round" stroke-miterlimit="2.414" stroke-width=".36" d="M60.848,61.729c0,0,0.865-3.031,0.865-5.051s-0.144-5.194-0.144-5.194" clip-rule="evenodd"/><path fill="none" fill-rule="evenodd" stroke="#767361" stroke-linecap="round" stroke-miterlimit="2.414" stroke-width=".36" d="M56.951,60.285c0,0,0.723-2.162,0.434-6.636" clip-rule="evenodd"/><path fill="none" fill-rule="evenodd" stroke="#767361" stroke-linecap="round" stroke-miterlimit="2.414" stroke-width=".36" d="M51.18,58.843c0,0,1.01-0.72,0.867-3.174c0,0,0.721-4.906,0.865-5.339" clip-rule="evenodd"/><path fill="none" fill-rule="evenodd" stroke="#767361" stroke-linecap="round" stroke-miterlimit="2.414" stroke-width=".36" d="M50.603,52.062c0,0,0.434,2.309,0.866,2.597c0.289,0.29,0.433,1.01,0.433,1.442" clip-rule="evenodd"/><path fill="none" fill-rule="evenodd" stroke="#767361" stroke-linecap="round" stroke-miterlimit="2.414" stroke-width=".36" d="M44.255,52.062c0,0.287-0.144,0.865,0,1.299c0.289,0.288,0.578,1.442,0.578,2.02" clip-rule="evenodd"/><path fill="none" fill-rule="evenodd" stroke="#767361" stroke-linecap="round" stroke-miterlimit="2.414" stroke-width=".36" d="M44.4,55.38c0,0,0.144,0.865-0.145,1.443" clip-rule="evenodd"/><path fill="none" fill-rule="evenodd" stroke="#767361" stroke-linecap="round" stroke-miterlimit="2.414" stroke-width=".36" d="M43.966,56.246c0,0-1.298,2.452-2.02,2.886" clip-rule="evenodd"/><path fill="none" fill-rule="evenodd" stroke="#767361" stroke-linecap="round" stroke-miterlimit="2.414" stroke-width=".36" d="M19.294,50.475c0,0,1.01,0.288,1.587,1.01c0.434,0.865,1.587,1.732,2.742,1.442c1.154-0.143,2.453-0.433,2.453-0.433" clip-rule="evenodd"/><path fill="none" fill-rule="evenodd" stroke="#9A967E" stroke-linecap="round" stroke-miterlimit="2.414" stroke-width=".36" d="M17.853,48.166c0,0-0.866-1.587-0.723-2.164c0.145-0.576,0.289-1.587,1.299-2.308" clip-rule="evenodd"/><path fill="none" fill-rule="evenodd" stroke="#767361" stroke-linecap="round" stroke-miterlimit="2.414" stroke-width=".36" d="M30.837,31.43c0,0-0.434,1.442-0.289,2.31c0.289,0.72,0.433,1.152,0.433,1.152" clip-rule="evenodd"/><path fill="none" fill-rule="evenodd" stroke="#767361" stroke-linecap="round" stroke-miterlimit="2.414" stroke-width=".36" d="M41.369,32.872c0,0-1.442,1.299-2.02,2.31c-0.577,1.154-0.866,1.875-0.577,2.165c0.288,0.432-0.145,1.297-0.145,1.297" clip-rule="evenodd"/><path fill="none" fill-rule="evenodd" stroke="#767361" stroke-linecap="round" stroke-miterlimit="2.414" stroke-width=".36" d="M71.091,39.653c0,0,1.154,1.3,0.721,3.319" clip-rule="evenodd"/><path fill="none" fill-rule="evenodd" stroke="#9A967E" stroke-linecap="round" stroke-miterlimit="2.414" stroke-width=".36" d="M122.743,93.325c0,0,2.31,0.29,3.462-0.577" clip-rule="evenodd"/><path fill="none" fill-rule="evenodd" stroke="#767361" stroke-linecap="round" stroke-miterlimit="2.414" stroke-width=".36" d="M125.196,93.615c0,0,3.463,0.72,5.771-1.01" clip-rule="evenodd"/><path fill="none" fill-rule="evenodd" stroke="#767361" stroke-linecap="round" stroke-miterlimit="2.414" stroke-width=".36" d="M152.464,126.076c-3.317,1.876-23.372,24.528-25.681,26.837c-2.165,2.309-2.885,4.472-2.885,4.472s-0.866,3.319-2.597,3.751" clip-rule="evenodd"/><path fill="none" fill-rule="evenodd" stroke="#767361" stroke-linecap="round" stroke-miterlimit="2.414" stroke-width=".36" d="M102.255,140.217c0,0,3.751-5.194,6.35-6.348c2.596-1.01,4.039-3.319,4.472-5.628c0.289-2.165,13.273-18.9,18.613-23.084" clip-rule="evenodd"/><path fill="#41332D" fill-rule="evenodd" d="M92.012,108.763c0,0-2.886,0-5.05-1.875 c-2.165-1.877-0.866-0.29-0.866-0.29c0.145,0.29,4.474,4.184,7.648,3.896C93.744,110.495,92.732,109.053,92.012,108.763z" clip-rule="evenodd"/><path fill="#41332D" fill-rule="evenodd" d="M94.897,113.958 c0,0-2.885,0.432-4.328-0.289c-1.443-0.867-4.617-3.463-4.329-2.741c0.288,0.577,3.751,2.886,4.472,3.319 c0.721,0.288,3.606,1.009,5.194,0.288L94.897,113.958z" clip-rule="evenodd"/><path fill="#614C43" fill-rule="evenodd" d="M94.032,121.027 c-0.866,0.288-1.154,0.577-2.453,0.722c-1.732,0.143-4.906,0.288-5.483,0.865c-0.433,0.577-0.433,1.587,0.866,1.587 c1.299,0,2.308,0.145,3.031,0.433c1.875,1.009-1.587,2.02-2.453,2.164c-0.721,0.29-4.618,0.723-5.193,1.732 c-0.723,1.155,0.144,2.597,1.587,2.164c1.587-0.433,5.771-2.164,6.637-1.587c0.721,0.578-1.155,2.02-1.732,2.597 c-0.721,0.433-4.905,1.732-5.338,3.319c-0.578,1.73,1.01,1.587,2.164,0.865c1.155-0.722,3.319-2.452,4.329-3.029 c3.174-2.454,0.288,2.164-0.145,2.597c-0.433,0.578-2.452,2.742-2.741,3.462c-0.289,0.722-0.578,2.164,1.298,1.731 c2.02-0.432,3.607-5.626,5.339-6.638c1.731-1.009,0.288,2.454,0,3.031c-0.289,0.433-2.021,3.319-0.866,3.895 c1.154,0.577,1.731,0,2.308-0.72c0.433-0.722,0.721-2.887,1.443-3.319c0,0,2.885-1.732,4.184-3.896 c0.865-1.587,1.587-3.895,2.164-5.481c0,0,0.144-1.587-3.031,0c-2.019,1.01-9.233,3.461-5.915-4.329 C94.464,122.182,95.186,120.595,94.032,121.027z" clip-rule="evenodd"/><path fill="#614C43" fill-rule="evenodd" d="M88.117,100.828 c0.721,0.433,2.453,1.3,3.174,3.319c0.721,1.875,2.165,4.184-0.145,3.895c-2.164-0.288-4.328-2.597-4.761-3.462 C86.096,103.57,84.509,98.376,88.117,100.828z" clip-rule="evenodd"/><path fill="#614C43" fill-rule="evenodd" d="M85.52,108.908 c0.576,0.72,4.473,4.184,6.637,4.617c2.163,0.433,3.75-0.433,3.029-1.01c-0.577-0.578-1.154-0.865-2.308-1.154 c-1.154-0.433-3.174-1.154-4.184-1.443C87.828,109.486,84.22,107.321,85.52,108.908z" clip-rule="evenodd"/><path fill="#070707" fill-rule="evenodd" d="M3.569,66.777 c-0.722-0.143,0.865,0.145,1.73-0.432c0.866-0.722,1.876-1.442,2.165-0.865c0.289,0.577-0.721,0.865-1.298,1.009 C5.444,66.777,4.29,67.067,3.569,66.777z" clip-rule="evenodd"/><path fill="#333" fill-rule="evenodd" stroke="#000" stroke-linecap="round" stroke-miterlimit="2.414" stroke-width=".216" d="M93.744,107.898c0.144,0.288,1.298,0.288,1.875,0.144c0.577-0.144,0.288,0.289,0,0.577c-0.288,0.145-1.875,0.723-2.741,0.29 C92.012,108.476,93.744,107.898,93.744,107.898z" clip-rule="evenodd"/><path fill="#333" fill-rule="evenodd" stroke="#000" stroke-linecap="round" stroke-miterlimit="2.414" stroke-width=".216" d="M96.629,112.515c0.144,0.288,1.154,0.433,1.73,0.288c0.578-0.143,0.434,0.29,0.145,0.435c-0.577,0.432-1.875,0.864-2.741,0.432 C94.897,113.092,96.629,112.515,96.629,112.515z" clip-rule="evenodd"/><path fill="#333" fill-rule="evenodd" stroke="#000" stroke-linecap="round" stroke-miterlimit="2.414" stroke-width=".216" d="M96.484,114.389c0.145,0.29,0.866,0.578,1.875,0.29c0.434-0.145,0.289,0.145,0,0.433c-0.289,0.144-1.587,0.722-2.596,0.289 C94.897,115.112,96.484,114.389,96.484,114.389z" clip-rule="evenodd"/><path fill="#333" fill-rule="evenodd" stroke="#000" stroke-linecap="round" stroke-miterlimit="2.414" stroke-width=".216" d="M85.52,142.958c0-0.29-0.145-0.578-0.723-0.722c-0.432-0.145-0.864,0.145-0.864,1.442c0,1.009,0.576,0.722,0.721,0.29 c0.144-0.29,0.578-0.145,0.866-0.433C85.808,143.246,85.52,142.958,85.52,142.958z" clip-rule="evenodd"/><path fill="#333" fill-rule="evenodd" stroke="#000" stroke-linecap="round" stroke-miterlimit="2.414" stroke-width=".216" d="M92.877,141.804c-0.289,0-0.578-0.145-0.866,0.288c-0.289,0.722,0,1.876,0.145,1.876c0.433,0,0.288-0.145,0.576-0.433 C93.166,143.246,93.744,142.092,92.877,141.804z" clip-rule="evenodd"/><path fill="#333" fill-rule="evenodd" stroke="#000" stroke-linecap="round" stroke-miterlimit="2.414" stroke-width=".216" d="M81.19,137.188c-0.289-0.29-0.433-0.577-0.866-0.29c-0.289,0.29-0.866,1.587-0.289,1.876c0.145,0,0.722-0.722,0.866-0.722 C81.334,137.908,81.479,137.62,81.19,137.188z" clip-rule="evenodd"/><path fill="#333" fill-rule="evenodd" stroke="#000" stroke-linecap="round" stroke-miterlimit="2.414" stroke-width=".216" d="M80.614,130.405c-0.144-0.288-0.289-0.577-0.721-0.433c-0.434,0.145-1.298,1.3-0.722,1.732c0,0,0.722-0.432,0.865-0.432 C80.47,131.272,80.902,130.982,80.614,130.405z" clip-rule="evenodd"/><path fill="#333" fill-rule="evenodd" stroke="#000" stroke-linecap="round" stroke-miterlimit="2.414" stroke-width=".216" d="M85.231,123.336c0.144-0.29,0.289-0.435-0.145-0.578c-0.433,0-1.298,0.433-1.153,1.155c0,0,0.433,0,0.576,0 C85.808,124.346,85.231,124.057,85.231,123.336z" clip-rule="evenodd"/><path fill="#AAA790" fill-rule="evenodd" d="M41.514,35.037c0,0,1.154,2.165,0.721,2.886 L41.514,35.037z" clip-rule="evenodd"/><path fill="#AAA790" fill-rule="evenodd" d="M43.534,37.633c0,0,1.01,2.742,0.578,3.319 L43.534,37.633z" clip-rule="evenodd"/><path fill="#D09F75" fill-rule="evenodd" d="M70.659,43.404 c-1.011-0.865,0.289,3.464,0,6.493c-0.145,1.01,1.442,3.319,1.442,0.722S72.101,44.704,70.659,43.404z" clip-rule="evenodd"/><path fill="#D09F75" fill-rule="evenodd" d="M59.116,38.643 c-0.721-0.143,1.443,3.751,1.154,5.338c-0.144,1.444,1.01-1.154,0.578-2.452C60.559,40.23,60.559,38.788,59.116,38.643z" clip-rule="evenodd"/><path fill="#D09F75" fill-rule="evenodd" d="M104.419,41.53 c0.145,1.297,0.577,4.761,1.154,6.78c0.578,2.165,1.299,2.165,0.578-0.432c-0.722-2.742-0.866-4.761-0.866-5.338 C105.286,41.962,104.275,35.614,104.419,41.53z" clip-rule="evenodd"/><path fill="#D09F75" fill-rule="evenodd" d="M104.275,51.052 c0,0-3.319-4.473-3.607-5.483c-0.144-0.865-1.154-2.452-1.587-3.029c-0.433-0.578-1.298-2.887-1.01-0.145 C98.648,46.001,102.832,49.897,104.275,51.052z" clip-rule="evenodd"/><path fill="#C48E6B" fill-rule="evenodd" d="M104.853,56.968 c2.164,1.155-3.751-4.906-5.339-7.215c-0.433-0.578-2.885-4.327-2.164-2.597C98.071,48.743,102.255,55.38,104.853,56.968z" clip-rule="evenodd"/><path fill="#C48E6B" fill-rule="evenodd" d="M105.43,61.729 c-1.01-0.867-6.349-3.751-6.925-4.761c-0.577-1.155-1.01,0.288,1.731,2.164C102.832,61.006,105.43,61.729,105.43,61.729z" clip-rule="evenodd"/><path fill="none" fill-rule="evenodd" stroke="#3B3930" stroke-linecap="round" stroke-miterlimit="2.414" stroke-width=".36" d="M141.932,89.719c0.289-0.865,2.453-7.936,1.731-10.822c0,0-0.865-1.729-3.895-1.729c0,0-5.628-1.155-7.647-1.877 c-2.02-0.72-7.792-3.174-9.379-3.894c-1.442-0.723-5.482-3.319-7.358-3.319" clip-rule="evenodd"/><path fill="none" fill-rule="evenodd" stroke="#3B3930" stroke-linecap="round" stroke-miterlimit="2.414" stroke-width=".36" d="M168.335,89.719c0,0,4.906-6.204,5.195-6.636c0.288-0.434,6.202-7.937,7.214-9.667" clip-rule="evenodd"/><path fill="none" fill-rule="evenodd" stroke="#3B3930" stroke-linecap="round" stroke-miterlimit="2.414" stroke-width=".36" d="M242.927,89.719c0,0,1.733-2.165,2.455-4.761" clip-rule="evenodd"/></g></g></g></switch></svg>