<?xml version="1.0" standalone="no"?>
<!DOCTYPE svg PUBLIC "-//W3C//DTD SVG 20010904//EN"
 "http://www.w3.org/TR/2001/REC-SVG-20010904/DTD/svg10.dtd">
<svg version="1.0" xmlns="http://www.w3.org/2000/svg"
 width="1600.000000pt" height="400.000000pt" 
 viewBox="-500 0 1600.000000 515.000000"
 preserveAspectRatio="xMidYMid meet">

<g transform="translate(0.000000,515.000000) scale(0.100000,-0.100000)"
fill="#000000" stroke="none">
<path d="M638 5138 c-2 -6 -22 -12 -43 -12 -28 -1 -41 -7 -43 -18 -4 -20 33
-42 60 -35 12 3 18 1 15 -6 -2 -7 -25 -13 -51 -15 -30 -2 -49 -8 -53 -18 -8
-22 27 -45 61 -39 26 5 28 3 22 -23 -4 -15 -16 -39 -26 -54 -26 -36 -26 -52 1
-45 12 3 33 -2 47 -11 23 -15 25 -15 42 5 9 12 20 48 24 80 5 42 12 62 28 74
27 21 18 49 -16 49 -18 0 -24 4 -20 15 3 8 9 14 12 13 36 -4 44 25 13 42 -26
13 -68 13 -73 -2z m16 -195 c-6 -25 -24 -56 -24 -41 0 10 22 68 26 68 2 0 1
-12 -2 -27z"/>
<path d="M724 4996 c-11 -28 0 -61 20 -61 27 0 44 30 30 53 -15 22 -43 27 -50
8z"/>
<path d="M900 5006 c0 -10 28 -13 41 -5 10 6 7 9 -13 9 -16 0 -28 -2 -28 -4z"/>
<path d="M960 5000 c0 -9 138 -3 149 6 2 2 -30 4 -72 4 -45 0 -77 -4 -77 -10z"/>
<path d="M1130 5006 c0 -2 7 -17 15 -32 15 -29 22 -13 9 20 -5 14 -24 23 -24
12z"/>
<path d="M796 4975 c-3 -8 -1 -15 4 -15 6 0 10 7 10 15 0 8 -2 15 -4 15 -2 0
-6 -7 -10 -15z"/>
<path d="M500 4945 c0 -12 7 -28 15 -35 13 -11 20 -9 40 10 35 33 31 45 -15
47 -35 1 -40 -2 -40 -22z"/>
<path d="M796 4941 c-4 -7 -5 -15 -2 -18 9 -9 19 4 14 18 -4 11 -6 11 -12 0z"/>
<path d="M1094 4942 c11 -5 23 -17 28 -28 6 -16 7 -15 5 6 -1 19 -8 26 -27 27
-21 2 -22 1 -6 -5z"/>
<path d="M1152 4900 c0 -14 2 -19 5 -12 2 6 2 18 0 25 -3 6 -5 1 -5 -13z"/>
<path d="M1090 4889 c0 -5 5 -7 10 -4 6 3 10 8 10 11 0 2 -4 4 -10 4 -5 0 -10
-5 -10 -11z"/>
<path d="M831 4854 c0 -11 3 -14 6 -6 3 7 2 16 -1 19 -3 4 -6 -2 -5 -13z"/>
<path d="M774 4822 c-23 -11 -35 -26 -44 -56 -12 -41 -57 -136 -64 -136 -2 0
-2 9 1 20 4 14 -2 23 -19 31 -19 8 -24 17 -20 35 2 13 8 24 13 24 5 0 9 9 9
20 0 11 -6 20 -13 20 -7 0 -17 10 -22 22 -13 29 -45 37 -45 11 0 -11 5 -24 12
-31 9 -9 2 -12 -35 -12 -48 0 -58 -9 -33 -29 8 -7 17 -23 20 -36 4 -14 13 -25
22 -25 8 0 12 -4 9 -10 -3 -5 -21 -10 -40 -10 -39 0 -52 -14 -34 -36 9 -11 22
-14 43 -10 l30 6 -32 -33 c-35 -36 -41 -64 -16 -74 11 -4 23 2 34 18 l18 23 4
-34 c2 -26 8 -35 21 -35 13 0 35 29 74 100 88 160 100 174 84 102 -7 -30 -5
-42 11 -62 15 -19 17 -29 8 -45 -6 -11 -11 -41 -11 -68 -1 -36 -7 -53 -27 -74
l-25 -28 -12 23 c-16 32 -41 23 -96 -36 -45 -48 -61 -88 -40 -101 5 -3 29 5
55 18 25 13 46 22 46 20 0 -18 -43 -103 -82 -163 -32 -50 -45 -78 -38 -85 21
-21 60 39 138 214 16 36 36 71 44 78 13 11 17 9 22 -12 7 -27 34 -42 49 -27 7
7 4 22 -8 44 -18 34 -18 34 6 66 23 31 23 33 6 62 -15 27 -15 33 -2 66 15 36
12 73 -6 73 -5 0 -8 12 -8 28 1 20 2 22 6 7 9 -35 24 -45 71 -45 25 0 42 3 38
8 -4 4 -24 7 -44 7 l-37 0 -6 60 c-3 33 -4 75 -3 93 1 17 1 31 1 31 -1 -1 -16
-8 -33 -17z m-188 -97 c-11 -8 -22 -12 -25 -9 -6 6 19 24 34 24 6 -1 1 -7 -9
-15z m74 -110 c0 -3 -7 -17 -16 -31 -13 -19 -20 -22 -30 -13 -19 16 -17 24 9
37 25 12 37 14 37 7z m10 -215 c0 -5 -15 -17 -32 -25 l-33 -16 28 25 c31 28
37 31 37 16z"/>
<path d="M3810 4768 c-35 -40 -68 -76 -75 -80 -15 -9 -65 44 -65 67 0 20 -17
27 -38 16 -12 -6 -23 -29 -30 -58 -51 -229 -81 -323 -104 -323 -4 0 -14 -7
-22 -16 -19 -18 -22 -129 -5 -140 8 -4 9 -27 4 -68 -4 -33 -7 -73 -7 -88 -1
-18 -5 -25 -14 -21 -9 3 -14 -2 -15 -13 -1 -11 -2 -23 -4 -29 -1 -5 -3 -25 -3
-42 -2 -29 -6 -33 -29 -34 -24 -2 -25 -2 -5 -6 19 -4 22 -11 22 -52 0 -96 -21
-144 -35 -81 -4 17 -11 30 -16 30 -12 0 -35 -49 -43 -92 -4 -21 -11 -38 -17
-38 -6 0 -7 -5 -4 -10 4 -6 -4 -19 -17 -30 -13 -11 -18 -20 -13 -19 24 3 34
-2 29 -16 -4 -8 -14 -15 -23 -15 -14 -1 -14 -2 2 -14 9 -7 17 -16 17 -20 0 -3
-8 -6 -17 -7 -15 0 -15 -2 2 -9 11 -5 14 -9 8 -9 -8 -1 -13 -14 -13 -32 0 -18
-4 -28 -10 -24 -6 4 -10 -5 -8 -22 1 -16 -2 -34 -6 -41 -5 -8 -1 -19 10 -28
18 -14 18 -15 -4 -9 -22 6 -23 5 -12 -15 9 -17 9 -24 1 -30 -16 -9 -2 -42 15
-36 15 6 18 -12 8 -38 -5 -12 -11 -6 -26 24 -22 44 -37 46 -31 3 3 -27 3 -27
-8 -5 -17 31 -32 27 -27 -8 2 -16 0 -32 -6 -35 -8 -3 -8 -7 0 -10 6 -3 9 -16
7 -29 -3 -13 2 -30 12 -39 9 -9 13 -21 10 -27 -4 -6 5 -24 19 -41 14 -17 26
-36 26 -43 0 -7 10 -18 23 -24 12 -6 17 -11 10 -11 -14 -1 -63 -45 -63 -56 0
-4 19 -4 43 0 75 12 147 14 147 4 0 -6 -6 -9 -12 -6 -17 6 -50 -12 -43 -22 9
-15 -49 -20 -100 -8 -49 11 -100 54 -117 98 -4 11 -12 19 -18 19 -5 0 -10 6
-10 13 0 6 -13 24 -29 39 -17 16 -37 52 -47 84 -12 39 -25 59 -40 66 -13 6
-26 19 -29 30 -4 10 -12 18 -18 18 -8 0 -7 4 2 9 12 8 12 14 -4 37 -11 17 -20
23 -23 16 -2 -6 -8 -12 -13 -12 -6 0 -8 4 -5 8 11 18 -49 70 -86 75 -40 6 -52
-6 -36 -37 6 -10 8 -50 6 -87 -3 -61 -2 -69 14 -69 13 0 18 -8 18 -26 0 -14 4
-23 8 -20 5 3 8 -9 7 -27 -1 -18 0 -39 4 -48 5 -14 8 -15 19 -3 7 8 10 14 7
14 -4 0 0 7 9 15 20 21 43 20 26 0 -11 -13 -10 -14 4 -9 9 3 16 12 16 20 0 8
6 14 14 14 17 0 18 -40 1 -41 -5 0 -2 -3 7 -7 16 -6 16 -10 4 -34 -12 -23 -12
-26 0 -21 12 4 14 0 8 -21 -4 -17 -2 -26 6 -26 8 0 11 -11 8 -30 -5 -31 6 -41
15 -16 3 7 19 18 36 24 30 11 31 10 32 -21 0 -27 2 -29 9 -12 8 19 9 18 11 -5
2 -14 4 -34 5 -45 1 -11 2 -26 3 -33 1 -7 6 -10 12 -6 8 4 9 0 4 -15 -8 -27 2
-27 26 2 13 16 19 18 19 7 1 -8 3 -31 6 -52 4 -34 1 -38 -46 -73 -51 -38 -224
-119 -324 -153 -58 -19 -191 -29 -239 -17 -20 5 -26 15 -31 49 -4 24 -9 55
-12 70 -3 21 6 40 41 87 25 32 45 64 45 69 0 5 6 7 14 4 19 -7 39 50 52 146 5
34 4 34 -9 11 l-14 -24 -11 33 c-8 22 -8 38 -2 51 20 36 69 192 64 200 -10 16
-24 9 -24 -11 0 -26 -49 -165 -87 -250 -29 -63 -166 -313 -184 -336 -11 -14
-89 21 -89 40 0 6 7 36 15 66 17 64 19 83 6 76 -5 -3 -16 -39 -25 -80 -13 -57
-21 -75 -36 -79 -24 -6 -25 6 -6 65 24 75 36 131 46 217 6 49 20 106 34 137
14 30 21 54 17 54 -18 0 -53 -103 -66 -200 -8 -58 -26 -141 -40 -184 -14 -44
-27 -97 -30 -119 -3 -21 -8 -43 -11 -48 -3 -6 -3 -28 1 -49 8 -48 27 -60 96
-63 46 -2 53 1 80 31 16 18 29 39 29 48 0 9 3 14 8 12 96 -49 108 -52 207 -52
123 -1 201 23 403 125 75 38 142 67 149 65 7 -3 15 -1 18 4 11 18 26 10 37
-20 8 -24 15 -29 29 -25 11 4 19 2 19 -4 0 -6 -3 -10 -7 -10 -20 3 -26 -2 -13
-11 10 -6 11 -10 3 -10 -7 0 -13 -8 -13 -19 0 -25 -24 -80 -47 -111 -11 -14
-40 -63 -64 -110 -24 -47 -48 -87 -52 -88 -22 -10 -69 -61 -63 -70 3 -6 1 -14
-5 -18 -8 -4 -9 -3 -5 4 4 7 3 12 -2 12 -15 0 -22 -28 -9 -33 9 -3 8 -8 -2
-20 -16 -20 -38 -23 -25 -4 5 7 1 5 -8 -6 -9 -10 -15 -24 -12 -31 5 -14 -85
-102 -128 -125 -29 -15 -75 -8 -80 12 -8 30 -74 137 -85 137 -7 0 -10 6 -7 14
3 7 -13 51 -35 97 -23 46 -41 90 -41 97 0 6 -4 12 -9 12 -10 0 -6 -18 28 -113
17 -48 19 -69 12 -118 -10 -73 -4 -219 10 -274 6 -22 13 -48 15 -58 1 -10 14
-41 28 -70 19 -38 27 -75 31 -137 6 -78 26 -161 75 -310 10 -30 26 -85 35
-122 18 -68 51 -118 53 -81 2 33 -20 112 -33 123 -7 6 -16 30 -20 53 -4 23
-13 52 -21 64 -7 12 -16 35 -19 52 -3 17 -14 53 -25 80 -10 27 -22 73 -25 103
-3 29 -8 64 -11 78 l-4 25 16 -22 c9 -13 23 -23 31 -23 8 0 12 -4 9 -9 -3 -5
1 -11 9 -15 20 -7 19 -4 -15 53 -31 54 -87 182 -96 222 -12 53 -25 180 -22
211 l3 33 25 -48 c24 -48 65 -97 81 -97 5 0 6 -8 2 -17 -6 -17 -5 -17 14 0 11
9 30 17 43 17 27 0 116 54 129 79 5 9 13 13 17 9 4 -4 1 -15 -6 -23 -21 -26
-14 -209 10 -276 l20 -54 -6 65 c-4 35 -6 102 -6 147 0 49 -5 83 -10 83 -7 0
-7 5 0 13 6 7 13 25 16 41 3 16 14 38 24 50 11 12 29 39 40 61 11 22 38 62 59
87 21 26 52 73 69 105 54 102 105 174 129 183 12 5 25 15 28 22 11 27 7 -17
-7 -77 -8 -33 -17 -96 -21 -140 -4 -44 -11 -89 -15 -100 -4 -10 -1 -42 6 -70
8 -27 14 -61 14 -75 0 -25 93 -160 111 -160 23 0 51 -85 54 -166 2 -47 6 -88
9 -93 3 -4 -4 -27 -15 -50 -27 -56 -33 -94 -20 -120 9 -16 9 -21 -1 -21 -8 0
-9 -3 -2 -10 6 -6 64 -11 135 -12 177 -1 312 31 475 112 81 41 139 77 174 110
29 28 56 50 60 50 3 0 17 11 30 25 41 44 2 27 -62 -28 -100 -83 -128 -102
-223 -149 -88 -44 -266 -95 -345 -100 -91 -5 -224 3 -210 12 8 5 26 10 40 10
14 0 40 9 58 20 18 11 36 20 41 20 4 0 29 20 55 44 l48 44 -3 58 c-2 34 0 60
6 61 6 1 9 -5 7 -14 -5 -22 19 -74 32 -70 6 2 16 13 22 25 l10 21 13 -22 13
-21 13 23 c10 20 13 21 18 7 12 -31 27 -6 27 44 0 27 4 51 9 55 6 3 8 -8 5
-27 -4 -21 0 -40 9 -53 15 -19 16 -18 24 15 l9 35 7 -27 c9 -33 25 -36 36 -6
6 18 9 19 14 5 9 -25 27 -21 27 6 l1 22 12 -23 c14 -25 27 -20 27 11 0 18 2
17 20 -4 l19 -24 1 35 c1 33 2 33 12 13 13 -27 24 -29 32 -6 6 15 8 15 16 3 7
-11 11 -8 19 13 6 16 11 34 11 41 0 7 7 27 16 45 8 17 20 77 25 134 5 56 16
138 24 182 25 139 28 158 29 240 2 75 5 83 38 130 36 49 88 183 88 224 0 26
45 57 63 44 6 -6 35 -10 62 -11 177 -2 315 -210 315 -474 l0 -68 -47 0 c-27 0
-43 -4 -36 -8 7 -4 30 -7 52 -7 39 1 41 -1 41 -30 0 -17 -3 -25 -8 -18 -5 8
-12 9 -22 2 -11 -8 -12 -12 -2 -16 6 -2 12 -13 12 -23 0 -10 -6 -21 -12 -24
-10 -5 -10 -7 0 -12 6 -3 12 -14 12 -25 0 -10 5 -19 11 -19 6 0 9 6 6 14 -4
10 0 12 14 9 19 -5 19 -6 -1 -20 -17 -12 -24 -12 -36 -2 -8 6 -17 9 -21 5 -3
-3 -2 -6 4 -6 7 0 6 -18 -3 -52 -7 -29 -16 -66 -19 -81 -3 -15 -10 -25 -15
-22 -6 4 -8 -8 -4 -30 3 -22 2 -35 -4 -31 -5 3 -7 -5 -5 -18 3 -13 -2 -49 -11
-79 -9 -30 -17 -72 -17 -94 -1 -37 -1 -37 -9 -8 l-8 30 -2 -35 c-3 -49 0 -74
11 -78 5 -2 9 -8 9 -13 0 -6 -4 -8 -9 -4 -6 3 -6 -7 -1 -26 9 -29 39 -72 64
-90 5 -4 4 -26 -4 -53 -7 -25 -10 -61 -8 -80 2 -20 1 -37 -3 -38 -12 -5 -30
-168 -19 -168 3 0 12 28 20 63 7 34 20 80 27 102 8 22 16 49 18 60 2 11 6 31
9 45 19 83 19 81 -11 112 -15 17 -23 28 -17 25 14 -8 23 42 13 69 -3 11 -2 22
3 25 5 3 11 32 13 64 5 65 18 92 14 30 -3 -72 -1 -85 19 -79 16 5 16 5 0 -6
-18 -11 -22 -38 -12 -77 6 -20 7 -20 35 -5 28 17 38 32 20 32 -6 0 -13 -4 -16
-10 -3 -5 -13 -10 -21 -10 -29 0 -4 17 42 30 38 11 44 15 28 21 -10 4 -14 8
-8 8 15 1 25 39 13 47 -16 9 -10 20 12 21 17 2 20 -2 16 -23 -3 -18 -1 -24 9
-20 16 6 19 -5 5 -20 -5 -5 -12 -19 -16 -31 -5 -18 -3 -22 9 -17 20 8 21 -10
2 -26 -10 -8 -12 -19 -7 -33 12 -34 2 -67 -20 -67 -6 0 -7 5 -4 10 9 14 -27
58 -43 52 -7 -2 -10 2 -6 12 3 9 1 16 -5 16 -6 0 -11 -13 -11 -29 0 -16 -3
-36 -6 -45 -3 -9 -1 -16 4 -16 6 0 12 10 14 22 2 12 10 23 18 25 11 3 11 2 3
-4 -8 -6 -9 -14 -3 -23 7 -10 10 -11 10 -2 0 6 3 12 8 12 9 0 9 -83 0 -91 -5
-3 -1 -14 7 -25 9 -10 14 -13 13 -5 -2 7 3 16 10 18 15 6 5 -24 -17 -50 -13
-15 -13 -20 -1 -27 12 -7 12 -11 -1 -26 -13 -16 -12 -16 9 -5 12 6 22 19 22
27 0 9 6 14 13 11 7 -2 11 -17 9 -34 -2 -20 3 -35 15 -44 10 -7 15 -10 11 -5
-4 5 -3 17 3 28 7 13 7 29 0 48 -5 16 -6 32 -1 35 8 5 14 -23 26 -127 5 -45
13 -65 41 -98 33 -38 35 -44 38 -129 3 -49 11 -108 19 -132 20 -57 21 -54 -13
-86 -15 -16 -40 -58 -55 -95 -27 -69 -30 -86 -20 -112 9 -23 108 -21 159 4 22
11 44 19 49 20 22 0 86 35 92 49 4 9 8 36 10 61 2 25 6 81 9 125 3 44 20 128
37 186 26 88 36 109 62 127 33 24 55 83 102 277 50 207 46 200 88 202 81 5 95
22 167 200 39 98 42 118 10 56 -23 -43 -28 -23 -7 28 7 19 12 47 9 62 -4 31
13 61 30 50 6 -4 8 2 5 15 -4 14 3 29 23 48 l29 28 1 -30 c0 -28 0 -28 16 10
12 28 13 43 6 55 -7 12 -6 19 6 27 12 10 15 33 15 120 -1 117 -37 391 -54 408
-6 6 -10 25 -10 42 0 32 -9 82 -36 200 -18 76 -17 84 1 84 14 0 45 83 45 122
0 48 -26 110 -56 133 -17 13 -37 39 -44 57 -8 18 -25 48 -39 66 -13 18 -26 43
-27 55 -4 33 -4 33 -12 20 -8 -13 -15 -10 -83 34 -19 13 -47 22 -64 22 -26 -1
-25 -2 12 -10 23 -6 46 -16 53 -24 11 -14 1 -14 -107 0 -24 3 -33 0 -33 -11 0
-8 -6 -14 -13 -14 -26 0 -26 13 -2 42 23 27 25 37 22 99 -3 64 -6 73 -36 100
-18 16 -43 29 -57 29 -22 0 -24 4 -24 43 0 23 -5 49 -10 57 -7 10 -10 11 -10
2 0 -10 -5 -9 -22 2 -28 18 -86 27 -93 16 -3 -5 14 -10 37 -12 35 -2 45 -8 59
-33 19 -33 15 -51 -39 -200 -19 -50 -26 -88 -25 -135 1 -72 -21 -133 -50 -138
-9 -2 -17 2 -17 9 0 8 -20 34 -44 59 -37 37 -44 50 -39 73 6 29 21 34 42 15
11 -11 12 -10 6 2 -4 8 -15 23 -24 34 -15 18 -15 18 17 11 38 -8 72 14 72 47
0 25 -20 31 -61 21 -25 -7 -35 -16 -37 -33 -6 -37 -33 -74 -43 -58 -5 8 -8 2
-6 -17 2 -24 -2 -31 -20 -33 -28 -4 -27 -9 -3 58 17 45 18 59 9 78 -14 25 -23
27 -68 11 -23 -8 -31 -17 -31 -34 0 -32 33 -42 67 -20 14 9 22 12 18 5 -4 -7
-21 -18 -39 -26 -28 -12 -29 -13 -7 -14 17 0 22 -4 17 -16 -3 -9 -6 -17 -6
-19 0 -2 -17 -11 -37 -20 -21 -9 -50 -23 -65 -31 -26 -14 -28 -14 -30 3 -3 37
4 77 17 97 7 12 16 32 20 46 7 23 35 90 42 99 1 2 9 -2 18 -9 8 -7 21 -10 30
-7 8 4 19 -1 25 -11 8 -15 11 -15 20 -2 6 8 9 28 8 45 -2 22 -9 31 -28 35 -36
8 -36 35 -2 70 28 28 54 35 103 31 8 -1 26 3 40 8 21 9 19 10 -21 11 -25 1
-39 4 -32 7 21 8 13 23 -14 23 -34 0 -66 -18 -58 -33 4 -7 4 -9 -1 -5 -13 12
-33 -10 -57 -61 -18 -39 -22 -42 -25 -23 -4 21 -33 32 -33 12 0 -5 -8 -10 -17
-10 -30 0 -83 -58 -83 -90 0 -16 -9 -45 -21 -64 -13 -22 -20 -50 -18 -73 1
-21 -3 -51 -10 -66 -6 -16 -11 -38 -11 -50 -1 -12 -6 -35 -13 -51 l-13 -29
-17 26 c-10 15 -14 27 -10 28 5 0 -1 4 -12 9 -19 7 -19 8 5 18 54 21 61 52 15
66 -25 7 -42 -3 -47 -28 -1 -11 -14 -31 -27 -45 -34 -38 -64 -87 -96 -161 -16
-36 -36 -73 -44 -83 -10 -12 -18 -48 -22 -95 -4 -64 -11 -85 -38 -127 l-32
-50 7 75 c3 41 8 82 9 90 1 8 6 71 10 140 4 69 9 141 10 160 12 151 17 207 20
220 3 8 14 92 25 185 28 238 29 244 47 305 8 30 17 61 19 69 3 9 13 12 33 8
35 -7 60 15 42 37 -6 7 -9 20 -7 27 2 8 10 48 16 89 13 74 43 144 76 171 9 7
39 16 67 19 28 3 52 10 54 17 6 17 -31 47 -105 84 -64 33 -70 34 -181 34 -100
0 -123 -3 -167 -23 -103 -47 -140 -124 -45 -92 35 11 43 11 66 -4 15 -10 34
-34 42 -54 20 -46 23 -183 6 -235 -13 -41 -2 -77 24 -77 18 0 16 -43 -12 -235
-3 -22 -10 -76 -16 -120 -5 -44 -14 -96 -19 -115 -8 -32 -21 -116 -25 -165
-12 -141 -18 -193 -30 -265 -13 -80 -37 -295 -39 -350 -1 -14 -5 -28 -11 -32
-6 -5 -3 -8 7 -8 9 0 15 -7 14 -16 -3 -18 -26 -35 -38 -28 -4 3 -5 -2 -2 -11
7 -18 -44 -155 -58 -155 -4 0 -8 -6 -8 -12 0 -7 -15 -30 -33 -50 -62 -72 -97
-117 -97 -125 0 -11 -50 -57 -86 -79 -17 -11 -52 -37 -78 -59 -27 -22 -52 -40
-57 -40 -6 0 -14 -7 -19 -15 -13 -20 -13 -4 0 21 6 10 16 19 23 19 7 0 19 9
27 20 8 11 20 20 27 20 7 0 13 5 13 10 0 6 22 33 50 61 27 27 61 74 76 105 14
30 36 67 49 82 30 36 101 178 110 222 4 19 14 51 23 70 28 66 31 75 46 140 26
112 28 122 31 265 6 264 -20 400 -111 580 -99 195 -120 220 -196 231 l-47 6
14 29 c18 33 19 63 4 90 -8 16 -6 26 8 46 10 14 23 33 28 42 6 9 20 30 31 46
21 29 104 196 104 209 0 11 -27 6 -56 -9 -69 -36 -86 -11 -94 138 0 16 -28 6
-51 -19 -34 -37 -107 -86 -113 -76 -3 5 -8 43 -12 85 -4 43 -10 80 -14 82 -5
3 -36 -28 -70 -67z m61 -66 c5 -47 3 -76 -6 -99 -8 -18 -17 -53 -20 -78 -4
-25 -12 -45 -17 -45 -12 0 -3 58 19 115 15 38 18 108 7 127 -6 10 -44 -9 -44
-23 0 -5 -12 -22 -26 -37 -32 -33 -44 -63 -44 -107 0 -19 -5 -37 -12 -41 -16
-10 -2 67 21 120 21 46 101 149 110 141 3 -3 8 -36 12 -73z m-191 -26 c18 -26
26 -47 20 -51 -5 -3 -10 -2 -10 3 0 5 -13 25 -30 43 -31 35 -37 49 -20 49 5 0
23 -20 40 -44z m373 -23 c7 -75 1 -98 -9 -34 -4 26 -12 41 -21 41 -22 0 -103
-70 -103 -89 0 -25 -25 -90 -40 -104 -25 -24 -3 92 27 138 23 36 113 112 134
114 3 1 9 -29 12 -66z m706 -22 l53 -34 -29 -12 c-33 -14 -95 -93 -110 -140
-5 -16 -16 -30 -24 -30 -8 0 -29 -10 -46 -23 -39 -28 -43 -28 -43 3 0 15 -6
25 -15 25 -8 0 -17 14 -21 38 -15 84 -60 141 -122 152 l-37 7 55 27 c52 25 62
27 170 24 111 -4 117 -5 169 -37z m-932 4 c-4 -8 -11 -15 -17 -15 -6 0 -6 7 2
20 14 22 24 19 15 -5z m-167 -38 c0 -12 0 -11 -24 28 l-17 30 20 -24 c12 -13
21 -28 21 -34z m34 -21 c-3 -15 -8 -25 -11 -23 -2 3 -1 17 3 31 3 15 8 25 11
23 2 -3 1 -17 -3 -31z m315 7 c-2 -25 -2 -26 -6 -5 l-5 24 -26 -24 -27 -23 24
28 c14 15 28 27 33 27 4 0 7 -12 7 -27z m151 -13 c-6 -12 -21 -20 -36 -20 -15
0 -27 -7 -30 -17 -10 -32 -48 -103 -56 -103 -4 0 1 23 12 52 22 58 55 94 91
101 13 2 25 5 27 6 1 0 -2 -8 -8 -19z m-143 -78 c-19 -39 -37 -69 -40 -66 -6
7 37 109 55 131 23 28 17 3 -15 -65z m-367 48 c0 -14 -6 -20 -22 -19 -22 0
-22 1 -3 9 11 5 16 9 12 9 -5 1 -5 6 -2 11 10 16 15 12 15 -10z m343 -5 c-3
-9 -8 -14 -10 -11 -3 3 -2 9 2 15 9 16 15 13 8 -4z m135 -35 c-7 -10 -14 -17
-17 -15 -4 4 18 35 25 35 2 0 -1 -9 -8 -20z m-338 0 c0 -5 -2 -10 -4 -10 -3 0
-8 5 -11 10 -3 6 -1 10 4 10 6 0 11 -4 11 -10z m183 -5 c-3 -9 -8 -14 -10 -11
-3 3 -2 9 2 15 9 16 15 13 8 -4z m-124 -50 c103 -35 191 -73 191 -84 0 -3 -4
-11 -8 -18 -10 -15 -73 1 -113 29 -15 10 -53 24 -85 33 -32 8 -63 20 -68 26
-8 7 -3 7 17 0 16 -6 34 -8 40 -4 20 12 -96 32 -161 27 -48 -3 -62 -2 -56 7 5
9 2 10 -9 6 -26 -10 -20 2 6 13 36 15 142 0 246 -35z m246 -4 c-8 -17 -21 -33
-27 -37 -8 -5 -7 1 3 16 8 14 19 31 23 38 15 25 16 11 1 -17z m-155 9 c8 -5
11 -10 5 -10 -5 0 -17 5 -25 10 -8 5 -10 10 -5 10 6 0 17 -5 25 -10z m-197
-61 c51 -17 125 -44 165 -61 65 -27 72 -32 66 -52 -7 -20 -14 -47 -34 -128
-13 -49 -49 -108 -66 -108 -13 0 -18 -12 -15 -32 0 -4 -14 -18 -32 -31 -36
-27 -87 -43 -87 -27 0 6 -7 6 -19 -2 -15 -9 -25 -9 -46 0 -14 7 -34 12 -44 12
-19 0 -81 62 -81 80 0 15 20 12 20 -2 0 -7 5 -5 11 5 5 9 7 22 4 27 -9 15 5
12 21 -5 17 -17 39 -21 29 -5 -3 6 -1 10 5 10 6 0 8 5 5 10 -4 6 -10 8 -15 5
-4 -3 -10 2 -14 10 -4 10 1 15 14 15 18 0 25 -16 21 -42 -2 -14 34 -9 57 8 15
10 21 22 17 33 -3 10 3 26 13 36 12 13 16 29 14 49 -5 29 -4 29 19 13 30 -21
67 -22 107 -1 38 18 40 28 10 48 -28 20 -45 20 -64 2 -20 -21 -18 -48 4 -44
10 2 17 12 16 26 -1 23 4 26 30 16 27 -10 18 -32 -20 -44 -30 -10 -39 -10 -52
4 -14 14 -14 17 3 36 21 23 20 23 -20 11 -30 -8 -31 -8 -30 33 0 22 4 47 9 55
5 8 4 16 -5 22 -21 13 -35 11 -21 -3 19 -19 15 -23 -36 -26 -26 -1 -42 1 -37
5 6 5 11 15 11 25 2 18 -53 32 -63 15 -3 -5 -9 -4 -13 3 -4 7 -13 9 -19 6 -6
-4 -9 -11 -7 -15 3 -4 -1 -8 -9 -8 -20 0 1 26 30 37 33 14 52 11 148 -21z
m-168 -39 c3 -5 -2 -10 -11 -10 -10 0 -15 -3 -11 -6 3 -3 21 -1 40 5 62 21
110 -22 91 -82 -9 -31 -43 -77 -56 -77 -6 0 -6 6 2 15 10 12 10 15 -1 15 -8 1
-2 8 14 16 28 15 39 63 15 65 -7 0 -26 2 -42 3 -40 3 -75 -27 -60 -51 6 -10
21 -19 33 -21 28 -4 17 -22 -14 -22 -13 0 -26 -6 -29 -12 -3 -7 -5 -1 -3 14 2
15 -1 25 -7 24 -6 -2 -7 -1 -3 2 4 2 5 19 1 38 -5 29 -3 35 17 42 18 7 20 10
6 15 -10 4 -14 13 -11 22 7 17 20 20 29 5z m-78 -22 c-3 -8 -6 -5 -6 6 -1 11
2 17 5 13 3 -3 4 -12 1 -19z m1062 -18 c9 0 23 -6 30 -12 8 -8 11 -8 8 -2 -4
7 3 14 15 17 28 8 30 5 22 -27 -4 -19 -13 -26 -29 -26 -13 0 -27 5 -30 10 -4
6 -15 8 -24 5 -15 -4 -18 1 -18 27 -1 18 1 27 4 21 3 -7 12 -13 22 -13z m-909
-35 c10 -12 10 -15 -4 -15 -9 0 -16 7 -16 15 0 8 2 15 4 15 2 0 9 -7 16 -15z
m389 -9 c18 -22 -12 -85 -41 -86 -6 0 -1 59 8 88 5 16 19 15 33 -2z m-445 -12
c5 -14 4 -15 -9 -4 -17 14 -19 20 -6 20 5 0 12 -7 15 -16z m129 -19 c-3 -9 -8
-14 -10 -11 -3 3 -2 9 2 15 9 16 15 13 8 -4z m-146 -77 c-3 -8 -6 -5 -6 6 -1
11 2 17 5 13 3 -3 4 -12 1 -19z m73 -6 c0 -4 -9 -13 -20 -20 -23 -14 -26 -8
-7 13 13 16 27 19 27 7z m-53 -28 c-3 -3 -12 -4 -19 -1 -8 3 -5 6 6 6 11 1 17
-2 13 -5z m-2 -24 c-3 -5 -13 -10 -21 -10 -8 0 -12 5 -9 10 3 6 13 10 21 10 8
0 12 -4 9 -10z m621 -102 c23 -45 12 -43 -13 3 -12 21 -17 37 -12 33 5 -3 16
-19 25 -36z m-76 -63 c7 -14 20 -25 29 -26 12 0 11 -2 -3 -8 -18 -7 -18 -8 -2
-14 10 -4 23 -4 29 0 8 4 8 1 -1 -9 -10 -12 -8 -21 11 -49 18 -27 24 -50 25
-108 1 -40 8 -83 14 -94 7 -12 13 -38 15 -57 1 -19 5 -68 7 -109 3 -40 11 -80
18 -89 11 -13 10 -15 -4 -9 -16 6 -18 -1 -20 -61 0 -37 -1 -73 -1 -79 1 -7 -4
-13 -9 -13 -6 0 -7 -11 -4 -24 3 -14 2 -36 -4 -50 -6 -16 -6 -27 0 -31 6 -4 4
-12 -5 -21 -13 -13 -18 -34 -14 -60 0 -4 -5 -10 -11 -14 -8 -5 -8 -11 3 -21 7
-8 12 -20 9 -27 -3 -11 2 -10 25 1 20 11 34 29 43 57 7 22 17 43 22 46 11 7
10 -39 0 -51 -5 -6 -19 -38 -32 -72 -24 -67 -34 -81 -25 -35 l5 27 -11 -25
c-37 -78 -73 -159 -96 -218 -15 -37 -30 -68 -35 -70 -4 -2 -8 -9 -8 -15 -1
-25 -118 -127 -147 -127 -4 0 -18 -11 -31 -24 -12 -13 -34 -27 -49 -31 -15 -3
-30 -10 -33 -15 -3 -5 -28 2 -55 15 -56 26 -69 30 -60 15 10 -17 -12 -11 -26
7 -12 15 -12 16 3 10 12 -4 21 0 28 13 9 16 5 21 -25 36 -19 9 -35 20 -35 25
0 5 -8 9 -17 9 -15 0 -14 2 3 15 10 9 13 14 5 13 -7 -2 -16 3 -19 11 -3 10 0
12 13 7 15 -5 16 -4 5 9 -7 9 -10 27 -6 45 5 29 -8 43 -17 18 -3 -10 -8 -9
-22 2 -11 9 -16 10 -11 3 4 -7 3 -13 -2 -13 -16 0 -77 154 -87 223 -8 54 -12
60 -50 79 l-29 16 56 12 c50 11 58 11 73 -4 9 -9 21 -16 26 -16 5 0 9 -7 9
-15 0 -8 4 -15 9 -15 15 0 20 27 8 39 -9 9 -7 11 8 10 37 -4 50 1 64 22 11 19
11 21 -4 16 -9 -4 -14 -3 -11 2 3 5 15 11 26 14 11 3 18 1 14 -4 -3 -5 0 -9 7
-9 6 0 9 -8 6 -20 -3 -11 -1 -18 4 -14 5 3 9 1 9 -4 0 -5 -13 -12 -30 -15 -16
-4 -30 -12 -30 -19 0 -9 3 -9 12 0 21 21 32 13 12 -9 -16 -18 -20 -19 -30 -5
-10 15 -13 15 -25 -1 -9 -11 -10 -14 -2 -9 9 5 11 2 7 -8 -3 -8 -12 -12 -19
-10 -15 6 -54 -45 -48 -63 3 -7 11 -13 19 -13 9 0 12 -5 9 -10 -4 -6 -1 -18 6
-26 9 -11 14 -12 19 -3 5 7 13 8 23 3 15 -9 17 -12 17 -35 0 -5 4 -8 9 -4 6 3
8 14 6 25 -2 12 3 21 15 25 24 8 70 51 63 59 -4 3 -18 6 -32 6 l-26 1 23 12
c12 7 19 17 15 21 -4 4 -3 7 2 6 19 -4 50 2 38 7 -19 7 -16 33 5 33 15 1 15 2
-2 15 -19 14 -19 15 -2 15 14 0 16 3 7 13 -23 28 42 68 67 41 6 -7 8 -15 3
-19 -5 -3 -11 1 -14 7 -2 7 -8 9 -13 5 -11 -11 15 -27 33 -20 16 6 18 33 2 33
-6 0 -9 7 -5 15 3 8 0 15 -7 16 -9 0 -9 2 1 6 6 2 10 9 7 13 -3 5 9 7 25 5
l31 -4 -23 19 c-13 11 -17 19 -10 20 6 0 12 -4 12 -10 0 -5 5 -10 10 -10 17 0
11 22 -12 47 -12 13 -16 23 -10 23 7 0 12 -5 12 -11 0 -8 4 -8 14 0 9 8 16 8
20 2 4 -5 -2 -12 -11 -14 -14 -4 -14 -5 -2 -6 8 0 24 6 35 14 10 9 13 14 5 13
-7 -2 -16 3 -18 10 -3 9 2 12 13 10 16 -2 19 4 19 35 0 26 -4 37 -15 37 -12 1
-12 2 2 11 10 5 15 16 12 24 -4 10 0 15 14 15 11 0 22 6 25 13 4 10 7 10 18 0
7 -7 20 -13 29 -12 10 0 11 2 3 6 -21 8 -15 23 9 23 22 0 22 1 -4 21 -30 24
-27 49 6 50 11 0 15 3 9 6 -7 2 -13 11 -13 19 0 8 -7 14 -15 14 -22 0 -18 17
5 23 23 6 27 27 5 27 -8 0 -15 -4 -15 -10 0 -5 -7 -7 -15 -4 -10 4 -15 0 -15
-14 0 -12 -9 -22 -21 -25 -16 -4 -20 -11 -16 -26 3 -14 0 -21 -9 -21 -8 0 -14
9 -14 20 0 11 3 20 8 20 4 0 8 19 10 43 1 23 7 44 13 45 5 2 14 13 20 24 10
18 8 19 -11 13 -15 -5 -20 -4 -16 4 4 6 16 11 28 11 14 0 18 5 14 15 -3 8 0
15 7 15 8 0 6 4 -3 10 -13 8 -12 10 3 10 10 0 24 15 35 38 9 20 20 39 24 42 3
3 9 34 13 70 4 36 11 68 17 71 6 4 3 11 -8 18 -13 7 -14 10 -5 11 12 0 12 3
-1 18 -8 9 -18 25 -21 35 -10 27 18 21 33 -8z m-480 -19 c27 -15 126 -11 148
7 6 5 12 6 12 1 -1 -18 -95 -195 -105 -196 -16 -1 -71 95 -90 158 -14 48 -8
54 35 30z m-63 -48 c8 -9 12 -22 8 -27 -3 -6 -1 -11 4 -11 6 0 11 -5 11 -12 0
-6 12 -27 27 -47 21 -29 22 -32 5 -17 -12 11 -25 16 -29 13 -4 -4 2 -13 12
-21 15 -11 17 -17 8 -28 -7 -8 -9 -24 -6 -37 5 -20 3 -22 -27 -19 -19 2 -35 9
-37 18 -4 12 -3 12 5 1 7 -10 11 -4 14 22 2 20 -2 43 -9 53 -17 23 -17 94 0
95 10 0 10 2 0 6 -7 2 -13 17 -12 31 0 16 3 21 6 12 3 -8 12 -23 20 -32z m238
-19 c-14 -30 -25 -48 -25 -40 0 18 41 104 46 98 3 -2 -7 -28 -21 -58z m1197
-76 c-6 -3 -10 -9 -7 -13 3 -5 1 -11 -5 -15 -6 -3 -10 4 -10 18 0 30 10 41 24
26 8 -8 7 -13 -2 -16z m-1222 13 c0 -3 -4 -8 -10 -11 -5 -3 -10 -1 -10 4 0 6
5 11 10 11 6 0 10 -2 10 -4z m-30 -67 c0 -6 -4 -7 -10 -4 -5 3 -10 11 -10 16
0 6 5 7 10 4 6 -3 10 -11 10 -16z m264 -24 c3 -8 1 -15 -4 -15 -6 0 -10 7 -10
15 0 8 2 15 4 15 2 0 6 -7 10 -15z m-292 -13 c-7 -2 -9 -9 -6 -15 5 -9 4 -9
-6 0 -15 13 -4 37 13 26 8 -5 8 -8 -1 -11z m1128 -11 c0 -23 -24 -71 -34 -68
-13 4 -9 46 6 65 12 14 28 16 28 3z m-1167 -63 c-71 -148 -98 -199 -101 -190
-4 14 108 246 115 238 4 -3 -3 -25 -14 -48z m1347 45 c-8 -2 -22 -7 -30 -9
-13 -5 -13 -6 0 -14 13 -8 12 -10 -2 -10 -23 0 -34 20 -17 31 8 5 25 8 39 8
14 0 18 -3 10 -6z m-1427 -91 c10 -14 0 -52 -13 -52 -9 0 -40 91 -40 116 0 7
8 14 18 16 13 3 18 -5 22 -32 3 -19 9 -41 13 -48z m1600 81 c9 -8 -22 -43 -38
-43 -18 0 -26 25 -12 39 12 12 40 15 50 4z m245 -31 c3 -26 -2 -33 -27 -46
-36 -19 -45 -20 -34 -3 4 6 8 18 10 26 6 45 14 59 30 57 12 -2 19 -13 21 -34z
m-1890 -105 c11 -27 12 -41 5 -48 -16 -16 -31 16 -38 82 -6 58 -4 56 33 -34z
m269 61 c-3 -8 -6 -5 -6 6 -1 11 2 17 5 13 3 -3 4 -12 1 -19z m503 12 c0 -5
-2 -10 -4 -10 -3 0 -8 5 -11 10 -3 6 -1 10 4 10 6 0 11 -4 11 -10z m-850 -43
c0 -12 8 -38 19 -57 30 -58 34 -100 11 -138 -11 -18 -20 -43 -20 -55 0 -12 -7
-32 -15 -43 -8 -12 -12 -23 -10 -26 2 -2 -5 -9 -15 -16 -17 -10 -20 -9 -26 15
-4 14 -2 61 5 102 22 136 27 172 30 221 1 28 21 25 21 -3z m322 -29 c-8 -8 -9
-4 -5 13 4 13 8 18 11 10 2 -7 -1 -18 -6 -23z m1585 -60 c-3 -7 -5 -2 -5 12 0
14 2 19 5 13 2 -7 2 -19 0 -25z m233 12 c6 -11 8 -20 6 -20 -3 0 -10 9 -16 20
-6 11 -8 20 -6 20 3 0 10 -9 16 -20z m-1337 3 c-7 -2 -19 -2 -25 0 -7 3 -2 5
12 5 14 0 19 -2 13 -5z m50 -33 c3 -11 1 -20 -4 -20 -5 0 -9 6 -9 14 0 8 -6
17 -12 19 -8 4 -7 6 3 6 9 1 19 -8 22 -19z m374 3 c3 -7 -4 -9 -16 -6 -12 3
-18 9 -15 15 7 11 26 6 31 -9z m397 -35 c50 -49 54 -69 12 -61 -18 4 -29 -2
-41 -21 -19 -29 -35 -34 -35 -11 0 14 -11 18 -80 29 -20 4 -45 13 -57 21 -21
15 -21 17 -5 35 9 11 24 20 33 20 9 0 23 8 32 18 10 11 30 17 54 17 32 0 47
-8 87 -47z m-450 -2 c-3 -9 -10 -16 -15 -16 -4 0 -6 -7 -3 -15 3 -7 -6 -30
-21 -50 -15 -19 -23 -35 -19 -35 5 0 2 -5 -6 -10 -13 -8 -12 -10 3 -10 10 0
20 -7 23 -15 9 -22 24 -18 24 5 0 11 5 20 11 20 8 0 8 5 -1 15 -7 8 -16 12
-21 9 -5 -3 -9 -1 -9 5 0 5 5 13 10 16 6 3 10 1 10 -4 0 -6 9 -11 21 -11 15 0
19 5 15 15 -12 32 5 13 20 -22 18 -44 27 -120 14 -128 -4 -3 -6 -14 -3 -25 12
-46 -24 -97 -51 -70 -5 5 -18 10 -29 10 -17 0 -17 1 -1 17 13 14 14 18 3 22
-8 2 -22 13 -32 24 -9 11 -20 17 -24 13 -4 -3 2 -13 13 -21 16 -12 17 -14 3
-15 -9 0 -19 7 -23 15 -10 26 5 45 35 45 16 0 29 5 29 11 0 7 -14 10 -35 7
-21 -2 -36 1 -39 8 -6 17 9 70 29 100 8 13 15 30 15 38 0 14 51 78 57 72 2 -2
1 -11 -3 -20z m716 15 c0 -5 -4 -21 -10 -35 -5 -14 -12 -47 -14 -73 -11 -97
-17 -115 -37 -110 -23 6 -24 1 -4 -19 13 -13 13 -18 -1 -39 -9 -14 -14 -31
-11 -39 3 -7 -1 -23 -9 -35 -8 -11 -13 -21 -10 -21 3 0 0 -13 -5 -30 -6 -16
-15 -30 -20 -30 -5 0 -9 -9 -9 -20 0 -11 4 -20 9 -20 10 0 -27 -119 -50 -161
-7 -13 -12 -36 -10 -51 1 -16 -2 -28 -7 -28 -10 0 -27 -54 -37 -120 -9 -55
-21 -80 -40 -80 -8 0 -17 -10 -20 -22 -5 -18 -21 -28 -71 -44 -56 -18 -64 -19
-64 -5 0 14 -2 14 -10 1 -8 -13 -10 -12 -10 3 0 9 7 17 15 17 13 0 12 8 -5 53
-11 28 -23 68 -26 87 -10 69 -36 131 -75 180 -38 48 -39 52 -33 107 3 32 13
83 21 113 9 30 17 69 19 85 1 17 3 32 4 35 2 3 3 16 4 30 1 20 6 25 26 25 14
0 30 -4 37 -8 6 -5 20 -7 30 -6 20 4 83 -22 83 -33 0 -13 45 -9 65 6 11 8 24
12 31 9 6 -2 28 3 49 11 21 9 48 16 60 16 16 0 27 9 37 30 9 22 18 30 30 26
14 -3 16 0 9 11 -5 10 -3 27 7 45 8 17 15 51 16 77 1 26 6 52 10 59 9 14 26
16 26 3z m-1069 -24 c-6 -8 -8 -17 -4 -20 3 -4 2 -7 -4 -7 -15 0 -22 11 -16
26 3 8 12 14 20 14 12 0 13 -3 4 -13z m-561 -33 c0 -8 -6 -14 -14 -14 -9 0
-12 7 -9 20 6 22 23 18 23 -6z m596 -71 c-7 -97 -21 -173 -33 -173 -8 0 5 124
17 154 7 19 6 26 -3 27 -9 0 -9 2 1 6 7 2 12 22 12 44 0 21 3 39 6 39 4 0 4
-44 0 -97z m-1426 57 c0 -5 -4 -10 -9 -10 -6 0 -13 5 -16 10 -3 6 1 10 9 10 9
0 16 -4 16 -10z m820 -19 c0 -6 -9 -9 -19 -8 -11 0 -17 5 -15 9 7 11 34 10 34
-1z m1773 -6 c-3 -9 -8 -14 -10 -11 -3 3 -2 9 2 15 9 16 15 13 8 -4z m287 -4
c0 -15 -7 -19 -30 -19 l-30 1 22 19 c27 23 38 23 38 -1z m-2900 5 c0 -3 -4 -8
-10 -11 -5 -3 -10 -1 -10 4 0 6 5 11 10 11 6 0 10 -2 10 -4z m640 -21 c0 -8
-4 -15 -10 -15 -5 0 -7 7 -4 15 4 8 8 15 10 15 2 0 4 -7 4 -15z m737 -1 c-3
-3 -12 -4 -19 -1 -8 3 -5 6 6 6 11 1 17 -2 13 -5z m-1477 -24 c0 -5 -2 -10 -4
-10 -3 0 -8 5 -11 10 -3 6 -1 10 4 10 6 0 11 -4 11 -10z m883 -5 c-3 -9 -8
-14 -10 -11 -3 3 -2 9 2 15 9 16 15 13 8 -4z m-130 -2 c-7 -2 -19 -2 -25 0 -7
3 -2 5 12 5 14 0 19 -2 13 -5z m1977 -13 c0 -5 -7 -10 -16 -10 -8 0 -12 5 -9
10 3 6 10 10 16 10 5 0 9 -4 9 -10z m-2254 -58 c-9 -8 -14 0 -21 33 l-6 30 16
-28 c9 -16 14 -31 11 -35z m312 39 c3 -9 0 -11 -7 -7 -7 4 -19 5 -28 2 -12 -5
-13 -9 -3 -21 10 -12 10 -15 -3 -15 -22 0 -26 21 -8 41 18 20 42 20 49 0z
m1899 -13 c-3 -8 -6 -5 -6 6 -1 11 2 17 5 13 3 -3 4 -12 1 -19z m138 4 c-3 -3
-11 0 -18 7 -9 10 -8 11 6 5 10 -3 15 -9 12 -12z m225 -15 c0 -12 -9 -40 -19
-62 l-18 -40 -7 42 c-6 31 -3 48 9 67 19 29 35 26 35 -7z m-2002 -43 c-11 -11
-18 -12 -22 -5 -4 6 0 11 8 11 9 0 16 5 16 12 0 6 3 8 7 4 4 -3 0 -14 -9 -22z
m1615 -17 c-5 -30 -4 -31 9 -13 12 16 18 17 37 7 26 -14 23 -36 -5 -37 -39 -2
-44 -4 -44 -23 0 -10 -6 -33 -14 -51 -13 -32 -14 -32 -25 -12 -16 30 -14 79 5
86 8 3 12 10 9 16 -3 5 -2 10 3 10 5 0 7 14 4 30 -3 24 -1 29 11 24 12 -4 15
-14 10 -37z m-1906 13 c-1 -18 -20 -26 -49 -21 -5 0 -8 -3 -8 -9 0 -5 5 -10
10 -10 6 0 10 -7 10 -15 0 -8 -4 -15 -10 -15 -5 0 -10 4 -10 9 0 5 -7 11 -15
15 -8 3 -14 2 -14 -2 1 -4 1 -13 0 -21 -2 -22 -14 -4 -17 24 -2 21 2 25 23 25
16 0 27 7 30 20 3 13 14 20 29 20 17 0 22 -5 21 -20z m-254 3 c-7 -2 -19 -2
-25 0 -7 3 -2 5 12 5 14 0 19 -2 13 -5z m7 -33 c0 -11 4 -20 9 -20 5 0 18 -18
29 -40 19 -39 19 -39 0 -37 -19 3 -68 77 -68 103 0 8 7 14 15 14 8 0 15 -9 15
-20z m491 -13 c-10 -9 -11 -8 -5 6 3 10 9 15 12 12 3 -3 0 -11 -7 -18z m1788
1 c-5 -10 -16 -18 -24 -18 -9 0 -12 -6 -9 -15 6 -15 -7 -21 -19 -9 -11 11 24
60 43 60 15 0 16 -4 9 -18z m-1809 -12 c0 -3 -5 -17 -10 -32 -7 -18 -7 -30 0
-40 9 -10 5 -13 -19 -12 -19 1 -31 6 -31 15 0 7 4 13 9 13 5 0 7 9 4 20 -4 14
0 20 11 20 9 0 16 5 16 10 0 6 5 10 10 10 6 0 10 -2 10 -4z m-83 -38 c-3 -7
-5 -2 -5 12 0 14 2 19 5 13 2 -7 2 -19 0 -25z m1912 10 c10 -28 -33 -118 -59
-125 -11 -3 -16 -13 -14 -29 1 -13 -2 -24 -7 -24 -5 0 -9 -12 -9 -27 1 -36
-51 -142 -69 -143 -11 0 -11 -3 -1 -15 10 -12 8 -20 -9 -41 -11 -14 -23 -41
-27 -60 -6 -31 -9 -34 -42 -34 -21 0 -44 -8 -56 -19 -31 -28 -62 -35 -70 -16
-7 20 10 55 27 55 8 0 6 4 -3 10 -10 6 -11 13 -5 18 6 4 18 20 28 35 10 15 22
25 26 22 5 -2 8 3 7 13 0 10 6 17 16 16 9 -1 14 4 12 11 -3 8 2 12 13 12 10
-1 17 4 15 11 -1 7 5 15 13 18 8 4 15 15 15 25 0 10 5 19 10 19 6 0 10 -5 10
-11 0 -5 4 -8 9 -5 4 3 7 26 6 51 -1 25 2 45 7 45 4 0 8 5 8 11 0 6 6 17 14
24 7 7 12 29 11 49 -1 19 2 33 6 30 4 -2 9 6 11 18 2 15 9 22 20 22 10 -1 15
2 12 7 -3 5 2 9 10 9 9 0 21 9 28 20 17 26 27 25 37 -2z m-2654 -28 c3 -5 1
-10 -4 -10 -6 0 -11 5 -11 10 0 6 2 10 4 10 3 0 8 -4 11 -10z m708 -15 c-10
-7 -20 -12 -21 -10 -7 7 23 33 31 28 5 -3 0 -11 -10 -18z m1042 15 c-3 -5 -12
-10 -18 -10 -7 0 -6 4 3 10 19 12 23 12 15 0z m-1722 -20 c-10 -11 -19 -20
-21 -20 -1 0 2 9 8 20 6 11 15 20 20 20 6 0 2 -9 -7 -20z m-429 -143 c-34 -65
-69 -109 -119 -150 l-40 -32 24 40 c44 74 120 213 138 252 l17 38 4 -48 c2
-38 -3 -60 -24 -100z m2060 118 c-4 -8 -10 -12 -15 -9 -11 6 -2 24 11 24 5 0
7 -7 4 -15z m-80 -93 c-1 -2 -19 1 -38 8 l-36 11 16 31 16 31 22 -39 c13 -21
21 -41 20 -42z m881 58 c-3 -5 -10 -10 -16 -10 -5 0 -9 5 -9 10 0 6 7 10 16
10 8 0 12 -4 9 -10z m-735 -55 c18 -11 11 -28 -10 -22 -12 3 -33 2 -48 -2 -15
-4 -33 -6 -39 -4 -19 7 -16 31 5 35 23 5 79 1 92 -7z m-1325 -5 c-28 -12 -37
-12 -30 0 3 6 16 10 28 9 21 0 21 -1 2 -9z m67 -2 c9 -7 19 -27 23 -45 6 -31
6 -32 -19 -20 -18 8 -21 13 -11 15 32 7 2 22 -31 16 -22 -4 -34 -2 -34 5 0 6
15 11 33 11 30 1 31 1 13 15 -15 11 -16 15 -5 15 8 0 22 -6 31 -12z m-149 -15
c4 -3 -5 -12 -20 -20 -29 -15 -38 -11 -30 12 6 15 38 21 50 8z m2377 -7 c0 -3
-4 -8 -10 -11 -5 -3 -10 -1 -10 4 0 6 5 11 10 11 6 0 10 -2 10 -4z m-1945 -36
c-3 -5 -10 -10 -16 -10 -5 0 -9 5 -9 10 0 6 7 10 16 10 8 0 12 -4 9 -10z m26
-11 c-11 -12 -25 -19 -33 -16 -9 4 -8 6 3 6 9 1 19 8 23 16 3 8 10 15 16 15 6
0 2 -9 -9 -21z m-462 -15 c-7 -9 -9 -18 -3 -22 12 -9 14 -42 3 -42 -5 0 -9 -7
-9 -15 0 -33 -18 -12 -22 25 -4 45 -1 54 22 63 23 8 23 8 9 -9z m2316 -14
c-18 -35 -19 -54 -2 -44 7 4 9 3 4 -2 -5 -5 -14 -9 -20 -9 -6 0 -14 -9 -17
-20 -8 -32 -81 -157 -87 -151 -8 8 115 256 127 256 6 0 4 -13 -5 -30z m-2195
-126 c18 -38 32 -79 32 -91 0 -13 7 -28 14 -34 8 -6 11 -15 8 -20 -3 -5 2 -9
10 -9 8 0 13 -6 11 -12 -7 -18 40 -65 124 -126 25 -18 49 -42 55 -55 7 -12 21
-22 33 -23 12 -1 30 -5 40 -9 24 -11 87 -12 94 -2 4 5 16 7 29 5 19 -3 13 -12
-50 -75 -40 -40 -76 -73 -81 -73 -5 0 -9 -7 -9 -15 0 -8 6 -15 14 -15 8 0 16
-5 18 -12 4 -11 14 -4 102 76 26 24 48 36 68 36 l30 0 -24 -29 c-13 -17 -31
-33 -40 -36 -10 -4 -24 -12 -30 -18 -7 -7 -35 -26 -62 -44 -40 -25 -54 -30
-73 -22 -36 14 -58 -3 -58 -45 -1 -51 16 -48 166 29 70 36 130 65 133 65 3 0
6 -7 6 -15 0 -8 5 -15 10 -15 6 0 10 9 10 20 0 11 -4 20 -10 20 -5 0 -6 8 -3
17 4 11 8 12 11 5 2 -7 8 -12 13 -12 4 0 6 7 2 15 -7 19 22 53 57 68 24 10 24
10 4 16 -21 6 -21 7 -4 39 10 18 22 34 27 35 4 1 7 7 7 13 -1 7 9 25 21 40 19
24 25 27 39 15 10 -9 13 -19 7 -30 -4 -9 -9 -38 -10 -66 -3 -78 -10 -124 -34
-202 -18 -60 -26 -75 -52 -87 -69 -34 -323 -108 -330 -96 -3 5 -1 11 5 15 18
11 11 35 -11 35 -31 0 -49 -28 -37 -56 8 -18 5 -30 -19 -66 -16 -23 -35 -55
-42 -70 -17 -33 -61 -64 -70 -51 -3 5 -15 15 -26 21 -19 11 -19 11 3 12 26 0
32 37 6 42 -17 3 -44 74 -44 116 0 18 4 22 18 18 43 -13 90 -17 95 -9 5 8 -68
46 -127 67 -12 4 -17 13 -13 26 3 13 0 20 -8 20 -8 0 -17 9 -20 20 -3 11 -10
20 -15 20 -5 0 -7 -8 -3 -17 5 -14 1 -13 -16 4 -11 12 -21 27 -21 32 0 5 -8
16 -19 23 -26 19 -46 63 -64 144 -14 64 -14 75 0 115 8 24 17 69 20 99 3 30
12 67 20 83 7 15 16 45 18 67 2 22 7 45 11 51 5 9 -1 10 -19 5 -34 -8 -38 1
-21 49 7 22 14 52 14 66 0 42 15 43 22 1 3 -21 21 -70 38 -108z m87 106 c45
-88 113 -233 113 -240 0 -5 -7 -7 -15 -4 -20 8 -19 -10 1 -30 8 -9 13 -20 10
-25 -4 -5 7 -19 24 -31 29 -21 39 -40 22 -40 -17 0 -101 87 -145 150 -40 59
-97 174 -97 199 0 5 9 13 20 16 11 3 20 13 20 21 0 24 33 12 47 -16z m714 -37
c-12 -20 -14 -14 -5 12 4 9 9 14 11 11 3 -2 0 -13 -6 -23z m-1733 -63 c1 -16
7 -41 12 -56 6 -15 8 -29 6 -31 -5 -6 -86 38 -86 46 0 16 41 71 53 71 7 0 14
-13 15 -30z m2333 -35 c9 -24 14 -46 11 -49 -4 -5 -42 87 -42 103 0 13 16 -15
31 -54z m-2486 13 c30 -14 30 -14 5 -72 -17 -42 -22 -46 -53 -46 -27 0 -36 6
-45 25 -36 79 14 129 93 93z m2553 -71 c2 -21 6 -36 10 -33 4 2 8 -16 9 -40 1
-24 8 -54 14 -65 8 -17 8 -23 -2 -30 -22 -13 -30 0 -28 49 1 61 -11 142 -22
142 -5 0 -9 -7 -9 -17 0 -9 -3 -14 -6 -10 -10 10 7 48 19 44 7 -2 13 -20 15
-40z m-2517 -24 c-9 -15 -10 -13 -9 12 2 39 12 56 16 28 2 -12 -1 -30 -7 -40z
m2483 -15 c-4 -6 -10 -5 -15 3 -14 22 -10 33 6 19 8 -7 12 -17 9 -22z m94 -33
c-3 -3 -9 2 -12 12 -6 14 -5 15 5 6 7 -7 10 -15 7 -18z m-723 -122 c-15 -204
-45 -382 -70 -419 -18 -28 -41 -33 -30 -6 21 53 46 182 60 312 11 111 28 200
37 200 6 0 7 -34 3 -87z m701 -10 c-10 -10 -19 5 -10 18 6 11 8 11 12 0 2 -7
1 -15 -2 -18z m-1087 -9 c2 -2 -5 -4 -16 -4 -12 0 -23 7 -27 15 -5 13 -2 14
17 4 12 -6 24 -13 26 -15z m1091 -23 c0 -6 -4 -13 -10 -16 -5 -3 -10 1 -10 9
0 9 5 16 10 16 6 0 10 -4 10 -9z m64 -40 c8 -13 -4 -42 -15 -35 -12 7 -12 44
0 44 6 0 12 -4 15 -9z m-999 -50 c3 -5 1 -12 -5 -16 -5 -3 -10 1 -10 9 0 18 6
21 15 7z m952 -16 c0 -8 -4 -15 -8 -15 -4 0 -9 7 -13 15 -3 9 0 15 8 15 7 0
13 -7 13 -15z m40 -37 c-3 -7 -5 -2 -5 12 0 14 2 19 5 13 2 -7 2 -19 0 -25z
m-50 -20 c-3 -8 -6 -5 -6 6 -1 11 2 17 5 13 3 -3 4 -12 1 -19z m6 -24 c8 -8
-3 -34 -15 -34 -6 0 -6 6 1 14 9 11 9 15 -1 19 -7 3 -8 6 -2 6 6 1 13 -2 17
-5z m-97 -60 c-18 -17 -21 -44 -6 -44 6 0 10 -5 10 -11 0 -8 -6 -7 -17 2 -15
12 -16 12 -9 -6 5 -15 4 -17 -4 -9 -14 14 12 84 30 84 7 0 5 -7 -4 -16z
m-2132 -10 c3 -8 2 -12 -4 -9 -6 3 -10 10 -10 16 0 14 7 11 14 -7z m2713 -39
c18 -28 21 -39 13 -60 -14 -36 -12 -105 3 -131 18 -31 86 -112 135 -161 23
-24 38 -43 32 -43 -5 0 -10 -6 -10 -13 0 -7 -9 -23 -20 -35 -11 -12 -19 -25
-18 -29 4 -13 -41 -173 -65 -231 -20 -51 -21 -52 -34 -30 -18 33 -16 48 10 58
12 5 16 9 8 9 -10 1 -11 4 -2 15 9 11 8 18 -4 30 -13 12 -13 16 -3 16 8 0 18
-4 24 -9 5 -6 10 13 11 52 2 46 7 65 20 75 13 9 14 15 6 20 -6 4 -9 19 -6 35
5 23 8 26 21 15 10 -8 13 -9 9 -1 -4 6 -2 13 4 15 8 3 7 9 -3 19 -8 8 -13 20
-10 27 2 6 -1 12 -7 12 -6 0 -11 6 -11 13 0 8 -10 19 -22 26 -19 9 -19 11 -3
6 l20 -5 -20 15 c-11 9 -20 21 -20 27 0 6 -6 13 -14 16 -8 3 -11 0 -7 -7 13
-21 -13 -11 -38 14 -27 27 -50 91 -36 100 5 3 4 20 0 38 -5 17 -7 46 -4 62 3
17 6 40 7 53 3 30 8 28 34 -13z m-470 -25 c-1 -11 -5 -20 -10 -20 -5 0 -7 6
-4 14 3 8 1 17 -6 20 -7 2 -5 5 5 5 11 1 16 -6 15 -19z m-847 -79 c0 -4 -19
-13 -42 -19 -24 -5 -73 -17 -110 -26 -36 -9 -72 -16 -80 -16 -21 1 53 32 97
41 22 4 56 12 75 17 46 13 60 14 60 3z m1396 -78 c13 -17 24 -35 24 -39 0 -12
134 -133 148 -134 26 0 10 -20 -17 -20 -19 0 -38 9 -54 28 -149 164 -147 161
-146 211 1 45 1 45 11 16 6 -16 21 -44 34 -62z m275 -23 c-26 -76 -54 -140
-62 -140 -11 0 -91 91 -85 97 3 3 12 0 20 -6 11 -9 20 -9 34 -2 11 6 21 8 24
6 7 -7 68 72 68 88 0 7 3 17 7 21 15 15 13 -12 -6 -64z m-1681 36 c0 -8 -4
-18 -10 -21 -5 -3 -10 3 -10 14 0 12 5 21 10 21 6 0 10 -6 10 -14z m-255 -6
c-11 -5 -29 -9 -40 -9 l-20 0 20 9 c11 5 29 9 40 9 l20 0 -20 -9z m210 -20
c-4 -12 -9 -19 -12 -17 -3 3 -2 15 2 27 4 12 9 19 12 17 3 -3 2 -15 -2 -27z
m-310 9 c4 -6 14 -8 22 -5 8 3 11 1 8 -4 -10 -16 -55 -12 -55 5 0 17 16 20 25
4z m1037 -41 c-2 -10 -9 -18 -14 -18 -7 0 -7 -4 -1 -12 6 -7 9 -37 8 -65 -2
-32 1 -50 7 -47 6 4 5 -3 -1 -14 -6 -11 -11 -31 -12 -44 0 -22 -1 -22 -9 -3
-13 31 -12 198 3 228 10 21 13 23 18 9 3 -9 4 -25 1 -34z m177 -7 c-1 -52 -3
-60 -25 -70 -14 -6 -24 -17 -23 -23 3 -29 -2 -49 -11 -43 -5 3 -8 20 -6 38 3
18 5 38 5 45 1 8 8 11 19 8 15 -5 18 -1 17 16 -1 13 0 28 4 33 6 11 8 17 10
40 0 8 3 15 5 15 3 0 5 -26 5 -59z m-39 -1 c0 -5 -7 -10 -16 -10 -8 0 -12 5
-9 10 3 6 10 10 16 10 5 0 9 -4 9 -10z m498 -23 c3 -12 -3 -17 -20 -16 -18 1
-19 2 -5 6 15 4 16 7 5 20 -11 14 -11 15 2 11 8 -2 16 -12 18 -21z m-538 -1
c0 -3 -4 -8 -10 -11 -5 -3 -10 -1 -10 4 0 6 5 11 10 11 6 0 10 -2 10 -4z m412
-32 c-3 -17 -8 -22 -15 -15 -11 11 -3 41 11 41 5 0 7 -12 4 -26z m181 -1 c-7
-2 -19 -2 -25 0 -7 3 -2 5 12 5 14 0 19 -2 13 -5z m23 -38 c16 -8 22 -15 14
-15 -9 0 -21 5 -28 12 -7 7 -12 8 -12 2 0 -6 3 -14 7 -18 4 -3 7 -15 8 -26 1
-15 -5 -20 -22 -20 -13 0 -22 4 -19 9 4 5 0 12 -6 14 -10 4 -10 7 0 15 8 5 13
12 13 16 -4 31 4 33 45 11z m-1831 -43 c-6 -16 -7 -16 -16 1 -8 13 -7 23 3 34
12 15 13 15 16 -1 2 -9 1 -25 -3 -34z m-120 14 c10 -10 11 -16 2 -25 -17 -17
-40 -14 -33 5 3 9 6 20 6 25 0 13 9 11 25 -5z m80 -44 c-8 -8 -25 10 -19 20 4
6 9 5 15 -3 4 -7 6 -15 4 -17z m1900 18 c3 -5 1 -10 -4 -10 -6 0 -11 5 -11 10
0 6 2 10 4 10 3 0 8 -4 11 -10z m-2065 -37 c-11 -17 -11 -17 -6 0 3 10 6 24 7
30 0 9 2 9 5 0 3 -7 0 -20 -6 -30z m120 2 c0 -8 -7 -15 -16 -15 -14 0 -14 3
-4 15 7 8 14 15 16 15 2 0 4 -7 4 -15z m1883 9 c-7 -3 -9 -12 -6 -20 3 -8 0
-14 -6 -14 -12 0 -15 23 -4 33 3 4 11 7 17 6 7 0 6 -2 -1 -5z m-142 -24 c6 0
8 -4 5 -9 -4 -5 0 -12 6 -14 8 -3 5 -6 -6 -6 -17 -1 -16 -4 8 -26 l27 -25 -24
0 c-30 0 -43 15 -49 58 -4 25 -1 32 9 27 8 -3 19 -5 24 -5z m-1811 -15 c0 -8
-9 -15 -20 -15 -13 0 -18 5 -14 15 4 8 12 15 20 15 8 0 14 -7 14 -15z m1915
-6 c-4 -5 -12 -9 -18 -8 -9 0 -8 2 1 6 6 2 9 10 6 15 -4 7 -2 8 5 4 6 -4 9
-12 6 -17z m-448 -111 c-3 -8 -6 -5 -6 6 -1 11 2 17 5 13 3 -3 4 -12 1 -19z
m-24 -28 c-3 -12 -8 -19 -11 -16 -5 6 5 36 12 36 2 0 2 -9 -1 -20z m266 -64
c9 -10 8 -15 -2 -19 -15 -6 -50 17 -40 26 11 11 30 8 42 -7z m145 -11 c-4 -8
-7 -15 -9 -15 -2 0 -5 7 -9 15 -3 9 0 15 9 15 9 0 12 -6 9 -15z m32 -257 c-30
-72 -45 -115 -55 -163 -37 -177 -33 -167 -83 -202 -44 -32 -148 -69 -148 -53
0 5 14 34 31 66 33 62 33 71 11 204 -4 25 -5 68 -2 95 l5 50 95 1 c67 0 104 5
125 16 17 9 31 16 32 17 2 1 -4 -14 -11 -31z"/>
<path d="M3867 4409 c7 -7 15 -10 18 -7 3 3 -2 9 -12 12 -14 6 -15 5 -6 -5z"/>
<path d="M3900 4396 c0 -2 7 -7 16 -10 8 -3 12 -2 9 4 -6 10 -25 14 -25 6z"/>
<path d="M3796 4322 c-9 -15 16 -29 49 -28 45 1 40 30 -7 34 -20 2 -39 -1 -42
-6z"/>
<path d="M3595 4040 c-3 -5 1 -10 10 -10 9 0 13 5 10 10 -3 6 -8 10 -10 10 -2
0 -7 -4 -10 -10z"/>
<path d="M3653 4040 c-13 -5 -23 -14 -23 -19 0 -20 63 -28 89 -12 12 8 12 12
2 25 -15 18 -35 19 -68 6z"/>
<path d="M3772 4014 c4 -3 12 -6 20 -8 7 -1 19 -5 26 -9 7 -5 12 -3 12 7 0 11
-10 16 -32 16 -17 0 -29 -3 -26 -6z"/>
<path d="M4159 3828 c5 -14 7 -29 4 -32 -4 -3 1 -6 9 -6 19 0 13 33 -8 51 -12
10 -13 8 -5 -13z"/>
<path d="M4150 3765 c-9 -10 -9 -15 -1 -15 6 0 11 5 11 11 0 5 5 7 10 4 6 -3
10 -1 10 4 0 16 -16 13 -30 -4z"/>
<path d="M4104 3647 c-11 -25 -8 -47 7 -47 6 0 8 4 5 9 -4 5 0 12 6 14 9 4 9
6 1 6 -6 1 -9 10 -6 21 7 27 0 25 -13 -3z"/>
<path d="M4130 3651 c0 -16 25 -19 38 -5 11 12 8 14 -13 14 -14 0 -25 -4 -25
-9z"/>
<path d="M4200 3649 c0 -5 5 -7 10 -4 6 3 10 8 10 11 0 2 -4 4 -10 4 -5 0 -10
-5 -10 -11z"/>
<path d="M4098 3573 c6 -2 12 -10 12 -17 0 -7 7 -13 15 -13 8 0 15 4 15 9 0 4
-5 8 -11 8 -5 0 -7 5 -4 10 3 6 -4 10 -17 9 -13 0 -17 -3 -10 -6z"/>
<path d="M4188 3553 c7 -3 16 -2 19 1 4 3 -2 6 -13 5 -11 0 -14 -3 -6 -6z"/>
<path d="M4088 3523 c7 -3 16 -2 19 1 4 3 -2 6 -13 5 -11 0 -14 -3 -6 -6z"/>
<path d="M4165 3520 c-3 -5 -1 -10 4 -10 6 0 11 5 11 10 0 6 -2 10 -4 10 -3 0
-8 -4 -11 -10z"/>
<path d="M4129 3443 c-13 -17 -13 -17 6 -3 11 8 22 16 24 17 2 2 0 3 -6 3 -6
0 -17 -8 -24 -17z"/>
<path d="M4100 3260 c-9 -6 -10 -10 -3 -10 6 0 15 5 18 10 8 12 4 12 -15 0z"/>
<path d="M4095 3230 c3 -5 10 -10 16 -10 5 0 9 5 9 10 0 6 -7 10 -16 10 -8 0
-12 -4 -9 -10z"/>
<path d="M4098 3203 c7 -3 16 -2 19 1 4 3 -2 6 -13 5 -11 0 -14 -3 -6 -6z"/>
<path d="M4079 3181 c12 -8 13 -12 1 -25 -7 -9 -10 -19 -8 -22 3 -3 16 9 28
25 l21 31 -28 0 c-21 0 -24 -3 -14 -9z"/>
<path d="M3895 3070 c3 -5 10 -10 16 -10 5 0 9 5 9 10 0 6 -7 10 -16 10 -8 0
-12 -4 -9 -10z"/>
<path d="M4065 3060 c-3 -6 1 -7 9 -4 18 7 21 14 7 14 -6 0 -13 -4 -16 -10z"/>
<path d="M3850 2992 c0 -4 12 -8 28 -9 23 -1 24 -1 7 7 -26 11 -35 12 -35 2z"/>
<path d="M3988 2913 c7 -3 16 -2 19 1 4 3 -2 6 -13 5 -11 0 -14 -3 -6 -6z"/>
<path d="M3785 2880 c3 -5 8 -10 11 -10 2 0 4 5 4 10 0 6 -5 10 -11 10 -5 0
-7 -4 -4 -10z"/>
<path d="M3870 2620 c-12 -8 -11 -10 8 -10 12 0 22 5 22 10 0 13 -11 13 -30 0z"/>
<path d="M3842 2575 c-1 -21 2 -24 28 -20 36 4 75 24 48 25 -9 0 -19 6 -22 13
-5 9 -7 9 -12 0 -4 -9 -11 -10 -23 -4 -13 8 -17 5 -19 -14z"/>
<path d="M3736 2541 c-4 -7 -5 -15 -2 -18 9 -9 19 4 14 18 -4 11 -6 11 -12 0z"/>
<path d="M5185 3630 c-3 -5 1 -10 9 -10 9 0 16 5 16 10 0 6 -4 10 -9 10 -6 0
-13 -4 -16 -10z"/>
<path d="M4710 3240 c0 -5 4 -10 9 -10 6 0 13 5 16 10 3 6 -1 10 -9 10 -9 0
-16 -4 -16 -10z"/>
<path d="M5020 3088 c-8 -13 -13 -26 -12 -30 1 -5 -1 -7 -5 -7 -19 3 -33 -2
-33 -12 0 -5 5 -7 10 -4 6 3 10 0 10 -7 0 -7 -14 -21 -30 -30 -17 -10 -33 -25
-37 -35 -4 -10 -11 -21 -17 -25 -8 -6 -7 -11 3 -17 11 -7 11 -9 0 -14 -12 -5
-12 -7 -1 -15 11 -7 11 -10 -2 -15 -9 -4 -16 -16 -16 -27 0 -19 2 -20 29 -6
33 18 85 80 105 126 l13 32 12 -30 c14 -32 48 -69 70 -74 26 -6 19 32 -12 65
-68 72 -75 84 -60 99 13 14 9 48 -6 48 -3 0 -13 -10 -21 -22z m-10 -83 c-7 -8
-17 -15 -23 -15 -5 0 -2 9 8 20 21 23 35 19 15 -5z"/>
<path d="M5080 3068 c0 -41 14 -63 50 -78 23 -10 34 -10 43 -1 8 8 6 11 -8 11
-12 0 -16 3 -9 8 6 4 -6 23 -33 48 l-43 41 0 -29z"/>
<path d="M5028 2937 c-3 -14 0 -33 5 -42 6 -12 6 -16 -1 -11 -13 8 -28 -14
-15 -23 5 -3 9 -19 9 -35 -1 -26 2 -29 32 -30 29 -1 33 2 29 21 -2 12 0 24 6
26 20 6 15 38 -9 54 -14 9 -31 27 -38 41 l-13 25 -5 -26z"/>
<path d="M4954 2858 c-45 -33 -47 -36 -39 -47 4 -8 16 -4 36 10 17 12 28 24
25 27 -3 3 -1 11 5 19 17 19 6 16 -27 -9z"/>
<path d="M4969 2787 c7 -9 10 -17 5 -17 -22 -1 41 -40 64 -40 26 0 21 14 -8
23 -8 2 -2 3 14 1 36 -5 28 5 -17 22 -17 6 -41 15 -52 20 -18 7 -18 6 -6 -9z"/>
<path d="M5475 2820 c3 -5 8 -10 11 -10 2 0 4 5 4 10 0 6 -5 10 -11 10 -5 0
-7 -4 -4 -10z"/>
<path d="M2259 2609 c-9 -17 -8 -23 2 -30 21 -13 46 -11 53 6 16 41 -34 63
-55 24z"/>
<path d="M841 4744 c0 -11 3 -14 6 -6 3 7 2 16 -1 19 -3 4 -6 -2 -5 -13z"/>
<path d="M1148 4730 c-7 -24 -3 -38 8 -28 3 4 4 17 2 30 l-3 23 -7 -25z"/>
<path d="M840 4705 c0 -8 4 -15 10 -15 5 0 7 7 4 15 -4 8 -8 15 -10 15 -2 0
-4 -7 -4 -15z"/>
<path d="M1070 4650 c0 -5 5 -10 10 -10 6 0 10 5 10 10 0 6 -4 10 -10 10 -5 0
-10 -4 -10 -10z"/>
<path d="M933 4643 c9 -2 25 -2 35 0 9 3 1 5 -18 5 -19 0 -27 -2 -17 -5z"/>
<path d="M1469 4423 c-12 -3 -18 -21 -22 -76 -3 -40 -13 -92 -21 -116 -9 -24
-20 -67 -25 -95 -11 -68 -67 -308 -87 -371 -8 -27 -42 -184 -75 -349 -32 -164
-61 -302 -64 -306 -3 -5 -9 -28 -14 -52 -5 -24 -19 -81 -31 -127 -12 -49 -19
-95 -15 -112 5 -22 3 -29 -8 -29 -9 0 -22 -3 -31 -6 -11 -4 -16 4 -21 33 -9
53 -32 103 -49 103 -8 0 -16 7 -19 15 -4 8 -25 24 -49 36 -37 19 -58 22 -152
21 -95 -1 -112 -4 -131 -22 -12 -11 -29 -20 -38 -20 -26 0 -76 -60 -88 -107
-11 -42 -12 -42 -54 -41 -49 3 -85 -21 -85 -55 0 -29 40 -95 61 -100 16 -4 22
-38 6 -37 -9 1 -57 -50 -57 -61 0 -4 -6 -14 -14 -22 -38 -38 -49 -295 -19
-432 4 -16 7 -46 8 -66 1 -19 4 -40 7 -45 8 -15 16 -55 23 -119 19 -171 48
-329 64 -349 16 -19 68 -30 84 -18 21 16 154 52 171 46 9 -3 26 5 42 21 33 33
82 49 101 34 21 -18 15 -38 -12 -45 -30 -7 -32 -13 -45 -144 -14 -144 -30
-206 -53 -202 -9 2 -17 -2 -17 -8 0 -5 5 -10 10 -10 6 0 10 -4 10 -10 0 -5 -5
-9 -12 -7 -6 1 -14 -6 -16 -17 -2 -11 0 -16 7 -12 6 4 11 0 11 -9 0 -11 -5
-15 -15 -11 -9 3 -15 0 -15 -9 0 -8 6 -15 14 -15 7 0 16 -10 20 -22 10 -38 7
-51 -9 -44 -11 4 -14 -1 -13 -19 1 -13 7 -23 13 -22 12 2 8 -184 -5 -197 -5
-5 -17 9 -29 32 -11 22 -18 42 -15 44 8 8 20 178 13 178 -3 0 -9 19 -13 42
-15 104 -19 118 -26 113 -5 -3 -11 -1 -14 4 -3 5 1 11 9 15 19 7 19 26 0 26
-8 0 -12 6 -9 14 3 8 -4 32 -16 55 -11 23 -18 41 -15 41 3 0 -4 9 -15 20 -11
11 -20 27 -20 35 0 25 -29 17 -43 -12 -7 -16 -18 -50 -25 -78 -6 -27 -23 -98
-37 -156 -14 -59 -25 -120 -25 -137 0 -17 -5 -34 -11 -38 -15 -9 -5 -90 15
-129 9 -16 16 -35 16 -42 0 -6 16 -30 35 -53 19 -23 41 -63 49 -88 8 -26 26
-71 41 -100 45 -92 44 -102 -21 -142 -69 -43 -156 -129 -151 -150 2 -9 12 -14
25 -13 17 2 22 -2 20 -15 -2 -11 2 -16 12 -13 8 2 31 4 52 5 24 1 46 10 67 29
32 28 51 28 51 1 0 -8 5 -14 11 -14 21 0 49 21 49 37 0 14 2 14 19 -1 19 -17
20 -17 36 8 12 17 15 36 12 55 -4 19 -2 31 6 34 9 3 9 7 0 18 -11 14 -11 56 1
314 2 39 9 129 17 202 12 122 14 132 36 142 32 15 33 14 33 -8 0 -11 5 -23 10
-26 6 -4 11 -25 10 -48 0 -42 6 -112 11 -112 1 0 3 -23 4 -51 1 -29 12 -73 24
-99 12 -26 20 -49 17 -52 -2 -3 6 -34 20 -69 13 -36 24 -84 24 -108 0 -43 0
-43 -52 -63 -52 -20 -64 -41 -20 -35 25 3 27 -1 9 -20 -19 -19 -51 -97 -44
-105 4 -3 15 1 25 10 17 15 18 15 17 -11 0 -17 5 -27 15 -27 8 0 20 -7 27 -15
15 -19 47 -2 51 29 3 18 6 19 24 10 11 -6 20 -9 21 -7 1 2 19 36 40 76 29 54
38 84 38 120 0 26 1 72 1 102 0 76 -2 173 -5 248 -2 35 0 65 5 68 5 3 7 2 6
-3 -3 -10 22 -84 32 -98 17 -22 58 -102 64 -125 8 -33 28 -55 109 -119 59 -47
75 -54 129 -60 91 -11 118 -60 33 -61 -42 0 -61 -31 -35 -55 28 -25 105 -5
155 41 34 31 37 37 30 71 -9 52 -29 72 -55 55 -14 -8 -27 -9 -45 -2 -15 6 -45
10 -68 10 -37 0 -49 7 -100 53 -31 28 -57 57 -57 63 0 7 -16 34 -34 62 -19 27
-57 98 -85 156 -28 58 -55 106 -61 106 -5 0 -10 7 -10 15 0 8 -11 22 -25 31
-31 20 -32 42 -3 46 28 4 36 28 9 28 -11 0 -22 4 -25 9 -4 5 4 7 15 4 15 -4
27 0 35 12 18 25 18 41 0 26 -12 -10 -20 -10 -38 1 -23 12 -23 13 11 18 43 6
51 27 16 40 -25 10 -30 38 -6 32 26 -6 50 44 61 126 7 45 15 84 19 87 11 6 85
-17 93 -30 4 -5 8 1 8 15 0 14 4 31 9 38 15 25 32 -67 46 -257 3 -35 16 -113
29 -175 14 -61 27 -138 31 -171 4 -33 13 -78 21 -100 8 -25 10 -43 4 -49 -17
-17 -11 -82 8 -106 14 -18 24 -21 43 -15 13 5 35 9 49 9 19 1 26 8 33 36 4 19
12 49 18 66 5 17 9 46 9 65 0 19 5 50 10 69 6 19 13 71 16 115 2 44 7 100 10
125 3 25 5 52 4 60 0 16 1 47 2 68 1 14 17 18 100 26 l56 6 7 -68 c4 -37 13
-89 21 -116 8 -27 14 -66 14 -85 1 -20 7 -63 15 -96 8 -33 15 -93 15 -133 0
-40 4 -82 10 -92 7 -12 6 -21 -3 -28 -11 -10 -13 -31 -8 -79 2 -21 50 -48 63
-35 6 6 17 8 24 5 19 -7 42 14 59 53 9 23 12 62 9 128 -3 73 -1 98 10 109 16
16 17 87 1 87 -6 0 -5 3 1 8 6 4 14 32 18 62 4 30 9 66 11 80 3 14 7 115 9
225 5 226 7 243 27 256 8 5 9 9 2 9 -7 0 -10 12 -8 32 2 18 6 94 10 168 3 74
12 180 18 235 16 133 -7 435 -33 435 -4 0 -4 -17 0 -37 12 -56 18 -203 8 -203
-4 0 -8 5 -8 10 0 6 -7 10 -15 10 -8 0 -15 -4 -15 -10 0 -5 5 -10 10 -10 6 0
10 -5 10 -11 0 -5 -4 -8 -9 -5 -5 3 -9 -12 -9 -34 -1 -29 3 -38 11 -33 7 4 5
-1 -3 -12 -8 -10 -14 -20 -12 -22 1 -1 1 -6 1 -10 -3 -12 -6 -36 -8 -55 0 -10
-8 -18 -17 -18 -10 0 -14 5 -10 15 6 17 -11 71 -20 62 -3 -3 0 -15 6 -27 7
-13 8 -25 3 -29 -5 -3 -4 -17 4 -31 7 -14 13 -19 13 -12 0 6 4 12 8 12 4 0 7
-15 6 -33 -1 -17 -5 -70 -8 -117 -3 -47 -6 -102 -6 -122 0 -27 -4 -38 -15 -38
-8 0 -15 5 -15 10 0 6 -4 10 -10 10 -5 0 -10 -21 -10 -47 0 -27 -4 -43 -8 -36
-4 7 -7 38 -6 70 1 32 -3 64 -8 70 -6 7 -8 19 -5 28 4 8 2 17 -3 20 -6 4 -10
15 -10 26 0 11 -7 19 -17 19 -12 0 -14 -3 -6 -8 7 -4 9 -13 4 -21 -5 -7 -13
-11 -19 -7 -6 3 -14 1 -18 -5 -4 -8 -3 -9 4 -5 7 4 12 1 12 -9 0 -11 -5 -15
-14 -12 -8 3 -16 -2 -19 -13 -3 -13 1 -21 13 -25 13 -4 19 -20 24 -63 9 -78 9
-77 2 -167 -9 -125 -12 -138 -36 -157 -24 -20 -42 -16 -22 4 7 7 12 20 12 31
0 12 4 16 13 11 10 -6 10 -4 0 7 -7 7 -13 32 -13 56 0 24 -4 43 -10 43 -5 0
-10 -8 -10 -17 -1 -16 -3 -15 -19 4 l-19 22 -6 -22 c-3 -12 -9 -52 -12 -89 -7
-70 -17 -98 -31 -84 -4 5 -3 11 3 13 8 3 8 20 -1 63 -9 41 -9 60 -2 60 6 0 -5
14 -24 31 -32 29 -34 29 -37 10 -2 -12 -7 -19 -12 -16 -9 6 -11 -93 -2 -110
10 -17 11 -55 1 -56 -5 -1 -20 -1 -34 -1 -72 0 -86 2 -79 14 4 7 3 8 -4 4 -7
-4 -28 -2 -49 3 -48 13 -55 5 -20 -25 27 -23 27 -26 31 -144 1 -66 0 -120 -4
-120 -10 0 -39 143 -40 195 -1 39 -21 95 -34 95 -8 0 -17 7 -20 16 -9 23 -8
24 13 24 20 0 35 25 25 42 -4 6 -8 36 -9 67 -3 77 -4 81 -15 81 -5 0 -10 -17
-11 -37 l-1 -38 -9 30 c-5 17 -11 47 -14 68 -4 21 -14 52 -24 68 l-18 30 -5
-25 c-3 -14 -2 -23 2 -21 10 6 24 -130 15 -145 -18 -29 -42 48 -24 81 7 14 7
19 -2 17 -15 -4 -38 114 -37 187 1 35 2 40 5 18 2 -18 10 -33 17 -33 8 0 11
10 8 30 -2 17 2 38 9 47 8 10 9 14 2 10 -6 -4 -14 -3 -18 3 -4 6 -10 8 -14 6
-4 -3 -5 11 -3 31 3 22 0 38 -9 43 -10 7 -11 25 -1 98 14 107 16 260 3 246 -5
-5 -11 -47 -14 -94 -2 -47 -10 -112 -17 -145 -9 -42 -10 -109 -6 -228 l7 -167
-26 -26 c-14 -14 -29 -22 -35 -19 -5 3 -8 28 -7 56 1 33 -3 53 -12 58 -17 11
-7 77 15 89 15 8 16 15 34 247 13 157 7 463 -9 493 -6 11 -8 22 -5 24 6 6 -94
108 -106 108 -6 0 -1 15 10 33 26 42 26 82 -1 101 l-22 15 21 68 c12 37 31
114 42 171 11 57 24 111 29 120 5 10 15 56 21 102 7 47 15 92 18 100 11 31 20
76 27 130 10 83 14 110 24 144 5 19 6 37 3 40 -3 3 -1 6 5 6 6 0 13 12 16 28
8 38 29 127 65 267 17 66 33 131 36 145 14 79 50 194 72 227 19 30 18 39 -6
63 -20 20 -23 21 -51 13z m-503 -1659 c4 -14 4 -50 1 -79 -5 -47 -3 -53 11
-48 14 6 15 4 4 -9 -10 -13 -10 -17 3 -22 9 -3 14 -2 10 3 -3 5 1 11 7 14 10
3 8 9 -5 24 -16 18 -16 21 -2 33 9 7 15 9 14 4 -1 -5 1 -20 5 -34 10 -37 13
-110 4 -110 -5 0 -13 12 -18 26 l-10 26 -20 -24 c-19 -23 -19 -23 -20 -1 -1
61 -38 72 -64 19 -19 -39 -20 -68 -5 -83 7 -7 2 -23 -19 -54 -17 -24 -28 -47
-26 -51 3 -5 -1 -8 -8 -8 -9 0 -9 -3 2 -10 11 -7 7 -10 -17 -10 -31 0 -38 7
-34 38 1 6 -3 12 -9 12 -22 0 -8 19 18 23 26 4 26 4 4 12 -17 6 -22 14 -20 37
1 16 6 32 10 34 16 10 8 34 -11 34 -17 0 -18 4 -9 34 7 22 16 32 24 29 9 -3
14 2 14 16 0 24 15 28 24 6 3 -8 10 -15 17 -15 6 0 9 7 5 15 -3 10 1 15 13 15
27 0 51 10 51 22 0 6 -6 8 -14 5 -7 -3 -19 0 -25 6 -9 9 -14 8 -22 -3 -9 -13
-10 -13 -6 0 4 16 37 19 74 6 18 -6 22 -4 17 7 -7 18 -70 29 -109 19 -22 -6
-32 -16 -36 -38 l-7 -29 -1 33 c-1 30 -3 32 -38 32 -49 0 -118 -24 -118 -41 0
-7 10 -18 22 -25 13 -6 20 -14 16 -17 -12 -13 33 -7 46 6 11 10 14 9 18 -1 3
-6 9 -10 14 -7 5 3 6 -23 3 -60 -3 -36 -1 -65 4 -65 5 0 7 -13 4 -30 -2 -16
-8 -30 -13 -30 -5 0 -9 -6 -9 -13 0 -8 -9 -22 -20 -32 -19 -18 -20 -17 -21 6
-5 125 -10 163 -21 171 -19 12 -28 10 -28 -7 0 -9 -6 -12 -15 -9 -12 5 -14 15
-9 42 5 24 3 33 -4 28 -15 -9 -26 36 -19 81 8 44 12 49 33 33 12 -11 17 -11
23 -2 4 7 25 15 46 19 29 5 41 2 50 -11 15 -20 61 -31 70 -16 3 5 15 10 26 10
10 0 19 3 19 8 0 11 42 29 72 31 22 1 29 -4 34 -25z m-523 4 c-31 -15 -29 -32
2 -24 19 5 23 3 19 -9 -4 -8 -1 -22 6 -30 13 -16 6 -35 -15 -35 -18 0 -28 32
-13 42 9 6 7 8 -7 6 -12 -2 -21 4 -23 15 -5 22 15 47 37 46 11 0 10 -3 -6 -11z
m725 -24 c2 -12 -13 -38 -36 -64 l-39 -44 -6 32 c-5 25 -2 37 14 53 12 12 19
29 16 39 -4 15 0 16 22 11 15 -4 27 -16 29 -27z m-488 -64 c0 -5 -8 -10 -17
-10 -15 0 -16 2 -3 10 19 12 20 12 20 0z m80 1 c0 -5 -7 -12 -16 -15 -14 -5
-15 -4 -4 9 14 17 20 19 20 6z m347 -73 c-3 -8 -6 -5 -6 6 -1 11 2 17 5 13 3
-3 4 -12 1 -19z m-285 -280 c-9 -9 -12 -7 -12 12 0 19 3 21 12 12 9 -9 9 -15
0 -24z m-199 -101 c5 -12 13 -16 25 -13 14 5 22 -1 31 -21 9 -20 14 -24 21
-14 5 8 15 11 25 7 11 -4 25 0 36 10 18 16 19 16 19 1 0 -23 20 -22 21 1 1 16
2 16 6 0 2 -10 8 -18 13 -18 14 0 48 54 43 68 -3 6 0 12 6 12 6 0 11 -11 11
-25 0 -31 14 -32 34 -3 13 18 16 19 16 6 0 -12 5 -15 15 -12 10 4 14 14 10 28
-4 12 -3 16 2 10 4 -6 15 -13 24 -16 14 -5 14 -14 6 -60 -5 -29 -20 -86 -34
-127 -13 -40 -28 -106 -33 -145 -6 -39 -15 -89 -21 -111 -6 -22 -10 -48 -10
-57 0 -13 -15 -20 -57 -28 -31 -6 -97 -20 -145 -31 -49 -11 -91 -18 -93 -16
-7 7 -6 118 2 147 13 52 13 191 0 196 -10 4 -10 19 -4 67 5 34 6 91 3 126 -6
55 -5 62 7 50 8 -8 17 -22 21 -32z m457 -49 c1 -51 3 -118 6 -148 11 -140 3
-263 -23 -345 l-26 -80 -19 45 c-29 69 -33 74 -64 85 -38 12 -39 12 -26 28 6
7 18 38 26 68 8 30 19 69 25 87 5 17 7 32 4 32 -3 0 2 9 11 19 10 11 25 17 35
14 11 -3 22 1 26 8 6 9 2 11 -13 7 -17 -5 -22 -2 -22 14 0 14 5 18 16 14 8 -3
12 -2 9 4 -3 6 -1 10 5 10 6 0 8 5 4 11 -5 8 -9 8 -14 -1 -4 -7 -10 -8 -13 -3
-9 14 9 36 23 28 9 -5 11 0 6 21 -8 43 -10 87 -3 104 3 8 8 27 11 43 11 47 15
30 16 -65z m1064 -67 c3 -24 2 -55 -2 -70 -6 -21 -8 -14 -12 34 -8 89 3 116
14 36z m-1174 -636 c0 -24 -4 -46 -8 -49 -4 -2 -8 20 -8 49 -1 30 3 52 7 49 5
-3 9 -25 9 -49z m-63 20 c-4 -8 -11 -15 -17 -15 -6 0 -6 7 2 20 14 22 24 19
15 -5z m-20 -57 c-3 -7 -5 -2 -5 12 0 14 2 19 5 13 2 -7 2 -19 0 -25z m518 -9
c-4 -5 -2 -9 3 -9 10 0 24 -48 27 -90 4 -59 17 -177 22 -194 3 -11 1 -16 -5
-12 -10 6 -22 69 -22 115 0 13 -9 61 -20 106 -23 94 -24 109 -10 100 6 -4 8
-11 5 -16z m57 -9 c3 -16 1 -30 -4 -30 -4 0 -8 14 -8 30 0 17 2 30 4 30 2 0 6
-13 8 -30z m-517 -30 c-2 -12 -9 -36 -16 -54 -10 -27 -9 -38 3 -62 41 -78 47
-91 54 -117 3 -15 2 -27 -2 -26 -19 4 -73 -14 -68 -22 3 -5 -2 -6 -10 -3 -9 3
-14 9 -11 13 2 4 -5 22 -16 41 -16 26 -17 31 -5 27 9 -4 16 -2 16 3 0 6 -4 10
-10 10 -20 0 -28 35 -18 80 5 25 9 62 9 83 -1 20 3 37 9 37 5 0 10 -4 10 -9 0
-5 8 -12 17 -15 10 -4 14 -4 11 0 -7 6 12 33 24 34 4 0 5 -9 3 -20z m140 -75
c0 -36 -2 -65 -5 -65 -28 0 -40 72 -20 111 18 34 25 21 25 -46z m867 3 c-8 -8
-6 -15 8 -27 15 -12 19 -30 20 -76 1 -33 1 -64 0 -70 -1 -5 -2 -13 -2 -16 1
-4 -10 -6 -23 -5 -29 1 -34 16 -5 16 14 0 18 5 13 16 -3 9 -7 25 -8 37 -4 35
-5 37 -14 37 -5 0 -7 -10 -5 -22 4 -21 4 -22 -5 -3 -15 32 -13 45 9 45 11 0
20 4 20 9 0 4 -11 6 -24 4 -26 -5 -36 -27 -31 -68 1 -14 -2 -25 -6 -25 -5 0
-9 17 -9 37 0 46 -8 39 -12 -10 -3 -46 -13 -36 -22 20 -6 42 -5 43 46 81 48
36 78 48 50 20z m-52 -198 c0 -5 -2 -10 -4 -10 -3 0 -8 5 -11 10 -3 6 -1 10 4
10 6 0 11 -4 11 -10z m-413 -32 c-3 -7 -5 -2 -5 12 0 14 2 19 5 13 2 -7 2 -19
0 -25z m413 -8 c0 -11 -4 -20 -9 -20 -5 0 -7 9 -4 20 3 11 7 20 9 20 2 0 4 -9
4 -20z m80 -50 c0 -5 -5 -10 -11 -10 -5 0 -7 5 -4 10 3 6 8 10 11 10 2 0 4 -4
4 -10z m-483 -52 c-3 -8 -6 -5 -6 6 -1 11 2 17 5 13 3 -3 4 -12 1 -19z m450
-10 c-3 -7 -5 -2 -5 12 0 14 2 19 5 13 2 -7 2 -19 0 -25z m-27 2 c13 -8 13
-10 -2 -10 -9 0 -20 5 -23 10 -8 13 5 13 25 0z m-410 -20 c0 -5 -4 -10 -10
-10 -5 0 -10 5 -10 10 0 6 5 10 10 10 6 0 10 -4 10 -10z m444 -30 c13 0 16 -5
12 -16 -3 -9 -8 -28 -11 -42 -5 -24 -4 -25 5 -7 9 16 9 14 5 -14 -3 -18 -5
-59 -5 -90 0 -53 -1 -55 -14 -30 -7 14 -16 51 -19 81 -4 30 -11 67 -17 82 -5
15 -10 37 -10 48 0 20 1 20 18 5 10 -10 27 -17 36 -17z m-408 -56 c-3 -8 -10
-13 -15 -10 -5 3 -9 -10 -9 -29 0 -19 4 -35 9 -35 5 0 9 -4 9 -10 0 -22 -19
-8 -31 23 -15 39 -14 98 3 108 15 10 42 -27 34 -47z m524 -19 c0 -8 -4 -15
-10 -15 -5 0 -7 7 -4 15 4 8 8 15 10 15 2 0 4 -7 4 -15z m-494 -100 c-3 -9
-10 -13 -16 -10 -6 4 -5 11 3 20 15 16 22 11 13 -10z m386 -87 c-17 -17 -42 4
-42 36 l0 31 25 -29 c14 -16 22 -33 17 -38z m58 0 c0 -5 -7 -8 -15 -8 -17 0
-18 2 -9 25 5 13 8 14 15 3 5 -7 9 -16 9 -20z m-1030 -368 c-6 -11 -13 -20
-16 -20 -2 0 0 9 6 20 6 11 13 20 16 20 2 0 0 -9 -6 -20z"/>
<path d="M1410 1375 c0 -5 5 -17 10 -25 5 -8 10 -10 10 -5 0 6 -5 17 -10 25
-5 8 -10 11 -10 5z"/>
<path d="M900 1200 c0 -5 5 -10 10 -10 6 0 10 5 10 10 0 6 -4 10 -10 10 -5 0
-10 -4 -10 -10z"/>
<path d="M675 4200 c-17 -33 -13 -61 10 -80 24 -20 47 6 40 44 -16 77 -25 84
-50 36z"/>
<path d="M1957 3959 c-17 -10 -24 -49 -9 -49 10 0 36 -134 56 -290 9 -63 20
-146 26 -185 30 -204 42 -306 37 -312 -4 -3 -18 6 -32 21 -32 35 -82 56 -118
49 -41 -8 -34 -33 9 -33 44 0 108 -36 100 -57 -3 -8 -2 -12 3 -8 8 4 41 -46
41 -62 0 -11 -107 9 -141 27 -23 11 -43 19 -45 17 -2 -1 8 -20 23 -40 30 -43
83 -62 143 -52 36 6 38 5 53 -32 8 -21 13 -50 10 -64 -4 -21 -9 -25 -29 -21
-31 6 -94 -6 -94 -18 0 -6 26 -10 59 -10 54 0 62 -3 105 -41 26 -23 46 -35 46
-27 0 8 -6 20 -12 26 -7 7 -11 28 -9 48 1 19 -2 41 -9 48 -6 8 -11 35 -12 61
0 27 -14 98 -29 159 -46 175 -130 724 -122 793 4 33 1 43 -14 51 -12 7 -25 7
-36 1z m18 -947 c-7 -8 -35 7 -35 18 0 6 7 6 20 -2 10 -7 17 -14 15 -16z m105
-2 c0 -5 -19 -10 -42 -9 -37 1 -39 2 -18 9 36 12 60 12 60 0z"/>
<path d="M5211 3760 c-17 -17 -31 -37 -31 -45 0 -18 12 -19 28 -3 8 8 15 8 26
-1 13 -11 16 -9 22 13 3 15 1 32 -5 40 -9 11 -9 15 1 19 7 3 8 6 2 6 -6 1 -25
-13 -43 -29z"/>
<path d="M2685 3613 c-4 -10 -9 -31 -11 -48 -3 -26 -1 -28 9 -12 34 52 36 54
36 22 0 -16 -6 -48 -14 -69 -9 -27 -11 -45 -4 -58 7 -13 6 -18 -2 -18 -7 0 -9
-3 -6 -7 12 -11 -15 -33 -40 -33 -23 0 -25 -3 -21 -32 3 -18 0 -40 -6 -50 -5
-9 -6 -21 -2 -25 5 -4 11 -2 14 6 2 7 12 21 21 30 9 9 15 25 13 36 -2 12 8 31
24 45 l27 25 -17 -32 c-21 -42 -20 -51 3 -24 13 15 21 18 26 10 12 -19 24 12
19 46 -3 17 -7 61 -9 98 -2 38 -7 77 -10 88 -8 24 -40 25 -50 2z"/>
<path d="M2543 3583 c-7 -16 -15 -41 -19 -58 -7 -33 -35 -65 -56 -65 -12 0
-55 -41 -86 -82 -7 -9 -15 -29 -18 -44 -3 -16 -9 -33 -14 -39 -5 -7 -8 -22 -5
-35 5 -26 15 -40 15 -21 0 7 5 9 10 6 6 -3 10 0 10 9 0 8 -5 16 -12 18 -7 3 2
11 20 19 18 7 32 21 32 30 0 19 27 45 37 36 3 -4 0 -13 -6 -21 -7 -8 -10 -20
-7 -25 7 -11 -12 -25 -34 -26 -21 0 -19 -28 2 -31 10 -1 20 2 23 6 10 17 36
-2 30 -21 -9 -28 2 -23 20 9 14 24 16 25 11 4 -7 -34 16 -22 36 19 9 19 21 39
25 44 4 6 8 15 9 20 3 23 17 55 24 55 5 0 11 14 15 31 5 23 3 34 -10 43 -12 8
-19 30 -21 62 -2 35 -1 43 6 29 5 -11 9 -29 10 -40 0 -11 10 -31 21 -44 17
-21 22 -22 34 -10 19 19 24 55 7 51 -20 -4 -51 39 -52 71 0 21 -5 27 -23 27
-15 0 -26 -9 -34 -27z"/>
<path d="M4980 3540 c-9 -6 -10 -10 -3 -10 6 0 15 5 18 10 8 12 4 12 -15 0z"/>
<path d="M5200 3460 c0 -5 5 -10 11 -10 5 0 7 5 4 10 -3 6 -8 10 -11 10 -2 0
-4 -4 -4 -10z"/>
<path d="M5790 3425 c7 -9 15 -13 17 -11 7 7 -7 26 -19 26 -6 0 -6 -6 2 -15z"/>
<path d="M5822 3370 c0 -14 2 -19 5 -12 2 6 2 18 0 25 -3 6 -5 1 -5 -13z"/>
<path d="M2755 3363 c-4 -10 -8 -37 -9 -61 -1 -34 1 -40 11 -29 16 16 30 107
15 107 -5 0 -13 -8 -17 -17z"/>
<path d="M2722 3290 c0 -14 2 -19 5 -12 2 6 2 18 0 25 -3 6 -5 1 -5 -13z"/>
<path d="M2611 3254 c0 -11 3 -14 6 -6 3 7 2 16 -1 19 -3 4 -6 -2 -5 -13z"/>
<path d="M2437 3253 c-3 -5 -5 -25 -5 -45 0 -35 1 -36 16 -21 12 12 13 18 4
21 -7 2 -10 13 -6 28 6 23 0 32 -9 17z"/>
<path d="M1698 3226 c-35 -27 -37 -51 -5 -42 36 11 76 13 80 3 3 -11 57 10 57
23 0 5 -7 10 -15 10 -8 0 -15 5 -15 11 0 8 -4 8 -14 0 -11 -10 -15 -8 -18 5
-3 16 -4 16 -20 1 -13 -14 -17 -14 -20 -3 -2 11 -9 9 -30 -8z"/>
<path d="M2396 3213 c-6 -14 -5 -15 5 -6 7 7 10 15 7 18 -3 3 -9 -2 -12 -12z"/>
<path d="M1622 3194 c-12 -8 -22 -26 -22 -38 0 -19 4 -22 25 -18 16 3 27 13
31 29 9 34 -7 46 -34 27z"/>
<path d="M3104 3190 c0 -16 7 -20 31 -20 l30 1 -25 13 -24 14 24 5 c22 4 22 4
-5 6 -25 1 -31 -3 -31 -19z"/>
<path d="M1480 3113 c0 -7 -4 -13 -9 -13 -5 0 -24 -24 -42 -52 -29 -48 -32
-61 -33 -136 -1 -46 0 -85 3 -88 3 -2 20 10 38 28 l33 32 0 -31 c0 -25 -5 -32
-26 -37 -65 -17 -174 -158 -174 -226 0 -19 9 -10 35 40 38 70 70 105 126 139
l36 21 6 -41 c7 -50 -14 -124 -56 -200 -18 -33 -28 -62 -24 -72 4 -10 7 -21 8
-25 4 -19 44 -33 93 -33 83 0 159 40 260 139 47 45 91 81 98 80 7 -2 12 2 13
9 0 20 16 28 25 13 5 -8 12 -11 16 -7 4 3 1 13 -5 21 -16 19 1 28 36 20 25 -6
26 -5 15 8 -7 9 -25 18 -41 20 -23 3 -27 1 -23 -14 3 -12 -1 -18 -12 -18 -9 0
-19 -7 -22 -15 -4 -8 -10 -15 -15 -15 -5 0 -19 -9 -31 -19 -13 -11 -50 -42
-82 -69 -33 -28 -77 -60 -97 -71 -37 -21 -38 -21 -44 -1 -6 20 -37 26 -118 23
-37 -1 -28 7 19 17 25 6 43 5 52 -2 8 -7 16 -8 23 -1 16 16 -1 42 -29 46 -24
3 -23 4 6 6 53 2 34 26 -20 25 l-45 0 11 28 c6 16 13 23 17 16 4 -6 12 -7 18
-3 9 5 7 11 -6 20 -15 11 -15 17 -5 39 6 15 20 26 31 26 26 0 44 25 36 50 -4
14 -15 20 -35 20 -18 0 -29 6 -32 18 -9 33 3 79 29 108 14 16 32 43 40 59 l16
30 -24 -20 -23 -20 18 28 c10 16 15 31 12 35 -9 8 -52 -35 -68 -68 -13 -26
-83 -110 -93 -110 -2 0 -2 28 1 62 9 96 49 160 110 177 29 8 29 8 -8 12 -27 4
-38 1 -38 -8z m79 -629 c3 -3 -1 -10 -8 -17 -11 -9 -14 -9 -18 1 -8 22 -35 14
-28 -8 3 -11 2 -20 -4 -20 -5 0 -12 9 -16 19 -11 36 -55 38 -55 3 0 -15 -2
-15 -10 -2 -16 25 13 37 77 32 32 -2 60 -6 62 -8z"/>
<path d="M2443 3083 c-15 -23 -37 -102 -30 -109 2 -3 26 8 52 23 47 26 51 20
17 -19 -20 -24 0 -23 21 0 21 23 31 108 15 118 -25 16 -61 9 -75 -13z m11 -72
c3 -5 -1 -11 -9 -15 -9 -3 -15 0 -15 9 0 16 16 20 24 6z"/>
<path d="M2640 3084 c-13 -33 -13 -34 4 -34 14 0 26 21 26 46 0 23 -20 16 -30
-12z"/>
<path d="M2987 2969 c-3 -11 -3 -28 0 -36 5 -12 9 -11 18 8 13 23 10 49 -5 49
-4 0 -10 -9 -13 -21z"/>
<path d="M3055 2840 c3 -5 11 -10 16 -10 6 0 7 5 4 10 -3 6 -11 10 -16 10 -6
0 -7 -4 -4 -10z"/>
<path d="M1740 2831 c-40 -8 -80 -28 -80 -39 0 -16 25 -32 49 -32 31 0 92 40
89 59 -4 18 -14 20 -58 12z m30 -31 c-8 -5 -17 -7 -19 -4 -3 3 1 9 9 14 8 5
17 7 19 4 3 -3 -1 -9 -9 -14z"/>
<path d="M1970 2807 c0 -7 9 -13 20 -14 24 -2 27 12 4 21 -22 8 -24 8 -24 -7z"/>
<path d="M1928 2772 c8 -5 10 -16 5 -28 -6 -17 -5 -18 12 -4 15 12 19 12 23 2
3 -10 8 -9 23 4 29 26 23 34 -28 34 -29 0 -43 -4 -35 -8z"/>
<path d="M2510 2541 c0 -5 9 -19 20 -32 l20 -24 -11 33 c-10 29 -29 45 -29 23z"/>
<path d="M4272 2508 c5 -15 28 -23 28 -10 0 5 -7 13 -16 16 -10 4 -14 1 -12
-6z"/>
<path d="M4310 2483 c0 -15 48 -60 83 -78 42 -21 45 -19 11 7 -16 12 -44 35
-61 52 -18 16 -33 25 -33 19z"/>
<path d="M2310 2472 c0 -4 8 -30 19 -59 43 -119 54 -199 55 -425 1 -174 -2
-220 -13 -230 -12 -11 -13 -10 -8 5 4 9 2 17 -3 17 -5 0 -7 6 -4 14 3 8 0 34
-7 57 -7 24 -13 55 -14 69 -1 14 -3 31 -4 38 0 6 -5 12 -9 12 -5 0 -9 -51 -10
-112 0 -62 1 -107 4 -100 6 13 24 7 24 -9 0 -5 -12 -9 -27 -9 -41 0 -72 61
-89 174 -21 141 -40 236 -49 244 -8 8 3 -97 16 -150 5 -21 12 -66 15 -100 6
-66 39 -184 55 -193 5 -4 9 -24 9 -45 0 -32 5 -42 28 -55 25 -15 29 -26 45
-123 10 -59 24 -141 31 -182 8 -41 23 -131 35 -200 11 -69 28 -159 36 -200 8
-41 17 -96 19 -123 4 -44 2 -49 -27 -71 -18 -13 -42 -27 -54 -30 -12 -4 -42
-26 -67 -50 -52 -49 -56 -68 -26 -135 11 -24 20 -49 20 -56 0 -7 7 -19 16 -26
15 -12 16 -10 8 21 -11 43 -8 130 4 142 6 6 16 -18 28 -61 18 -70 34 -93 34
-48 0 12 -7 47 -15 77 -13 48 -13 57 0 69 12 13 15 13 19 0 2 -8 12 -39 21
-69 33 -104 45 -84 24 38 -9 52 -9 66 2 73 17 10 22 0 38 -73 17 -81 36 -89
27 -12 -12 103 -12 108 6 112 12 2 19 -5 23 -25 19 -84 49 -130 38 -58 -4 28
-8 66 -8 85 0 52 27 46 43 -10 25 -85 32 -88 26 -11 -7 91 7 92 51 5 16 -32
31 -61 32 -63 1 -1 6 0 11 3 13 8 -10 109 -29 132 -26 32 -57 35 -121 13 -44
-14 -63 -17 -68 -9 -4 6 -13 44 -20 83 -7 40 -21 117 -31 172 -10 55 -30 163
-43 240 -13 77 -32 184 -42 238 l-18 98 23 42 c26 48 27 72 19 387 -3 139 -11
230 -22 284 -21 94 -54 186 -67 186 -5 0 -9 -3 -9 -8z"/>
<path d="M2165 2413 c4 -27 8 -57 10 -68 2 -11 4 -28 4 -37 1 -11 6 -15 15
-12 21 8 18 81 -5 127 -11 20 -22 37 -26 37 -3 0 -2 -21 2 -47z"/>
<path d="M2029 2407 c-4 -54 0 -89 10 -83 5 3 7 25 5 48 -4 43 -13 63 -15 35z"/>
<path d="M4450 2386 c0 -3 9 -10 20 -16 11 -6 20 -8 20 -6 0 3 -9 10 -20 16
-11 6 -20 8 -20 6z"/>
<path d="M4530 2362 c0 -6 9 -12 20 -15 11 -3 20 -3 20 -1 0 2 -9 8 -20 14
-11 6 -20 7 -20 2z"/>
<path d="M4615 2336 c40 -18 105 -29 105 -18 0 5 -23 12 -50 16 -28 4 -58 9
-68 12 -9 2 -3 -2 13 -10z"/>
<path d="M1396 2309 c-9 -28 -15 -179 -7 -179 9 0 25 179 17 188 -3 3 -8 -1
-10 -9z"/>
<path d="M2041 2263 c0 -20 4 -33 12 -33 9 0 8 -3 -2 -9 -8 -5 -9 -11 -3 -15
13 -8 23 19 12 30 -5 5 -10 20 -13 34 -4 21 -4 20 -6 -7z"/>
<path d="M2100 2280 c0 -5 5 -10 10 -10 6 0 10 5 10 10 0 6 -4 10 -10 10 -5 0
-10 -4 -10 -10z"/>
<path d="M2320 2212 c0 -37 -5 -73 -11 -79 -16 -16 11 -56 28 -41 7 6 13 18
13 27 0 14 2 14 10 1 7 -11 10 -6 10 21 0 35 -20 66 -33 52 -4 -3 -7 -1 -7 5
0 7 4 12 9 12 10 0 9 19 -2 38 -5 6 -5 17 -2 22 3 6 1 10 -4 10 -7 0 -11 -27
-11 -68z m40 -40 c0 -5 -7 -9 -15 -9 -8 0 -15 4 -15 9 0 4 7 8 15 8 8 0 15 -4
15 -8z"/>
<path d="M2100 2251 c0 -5 -2 -16 -5 -24 -4 -8 0 -14 10 -14 17 0 21 32 5 42
-5 3 -10 2 -10 -4z"/>
<path d="M4347 2180 c-16 -88 -29 -261 -23 -323 3 -38 17 -92 29 -119 l23 -51
-22 -66 c-12 -36 -29 -105 -38 -152 -11 -59 -27 -107 -54 -155 -20 -38 -49
-94 -64 -124 -46 -95 -84 -171 -147 -294 -34 -65 -63 -129 -65 -141 -2 -13
-10 -33 -16 -45 -9 -16 -8 -25 2 -37 10 -13 8 -19 -17 -39 -34 -27 -65 -17
-65 21 0 14 -4 25 -9 25 -10 0 -34 -61 -26 -68 5 -5 -28 -55 -62 -92 -27 -29
-25 -41 8 -57 24 -13 89 -8 121 8 24 13 42 73 29 98 -9 16 -7 23 7 33 24 17
52 74 52 107 0 39 27 119 63 188 31 62 33 63 73 63 52 0 106 -22 126 -52 20
-30 35 -16 18 17 -13 25 -83 52 -149 57 l-34 3 28 33 c23 28 33 32 64 29 52
-4 60 -12 92 -83 31 -69 49 -81 49 -35 0 44 -50 131 -92 160 -32 23 -36 30
-33 61 3 36 20 73 69 149 32 49 39 46 51 -27 4 -26 15 -48 28 -57 19 -13 20
-24 20 -119 -1 -122 -12 -160 -63 -236 -44 -64 -60 -129 -36 -150 13 -10 25
-10 58 -1 24 7 61 17 82 22 66 16 93 39 125 104 18 35 31 67 29 71 -1 5 4 20
12 34 15 26 47 133 55 185 5 34 9 42 -49 -89 -23 -52 -38 -72 -61 -83 -16 -7
-37 -18 -45 -24 -11 -7 -23 -7 -43 0 l-28 11 2 97 c1 54 3 110 6 125 5 32 31
40 55 16 22 -22 44 -23 83 -2 17 9 46 22 66 29 l37 13 -3 -56 c-4 -93 -25
-262 -36 -289 -5 -14 -8 -27 -6 -30 7 -7 36 81 42 127 3 25 8 63 11 85 2 22 8
99 11 172 5 122 4 134 -15 167 -12 20 -17 36 -12 36 6 0 10 5 10 11 0 5 -4 8
-9 5 -35 -22 -291 342 -291 412 0 11 -4 23 -8 26 -4 2 -9 21 -10 42 -2 20 -5
41 -7 45 -3 4 0 52 6 108 11 102 9 166 -4 101z m63 -552 c0 -4 -7 -5 -15 -2
-8 4 -15 16 -15 27 0 20 0 20 15 1 8 -10 15 -22 15 -26z m155 -168 c3 -5 1
-10 -4 -10 -6 0 -11 5 -11 10 0 6 2 10 4 10 3 0 8 -4 11 -10z m-125 -193 c0
-8 -7 -14 -15 -14 -25 0 -17 17 13 26 1 1 2 -5 2 -12z m225 -27 c3 -5 -1 -10
-10 -10 -9 0 -13 5 -10 10 3 6 8 10 10 10 2 0 7 -4 10 -10z m-222 -386 c-5
-14 -104 -67 -111 -59 -2 2 4 15 13 29 18 27 56 43 74 32 5 -4 12 -2 16 4 10
15 15 12 8 -6z"/>
<path d="M2040 2181 c0 -5 8 -11 18 -13 10 -3 19 0 19 6 0 7 -9 13 -19 13 -10
1 -18 -2 -18 -6z"/>
<path d="M2290 2160 c0 -5 5 -10 10 -10 6 0 10 5 10 10 0 6 -4 10 -10 10 -5 0
-10 -4 -10 -10z"/>
<path d="M1533 2115 c0 -22 2 -30 4 -17 2 12 2 30 0 40 -3 9 -5 -1 -4 -23z"/>
<path d="M2043 2112 c2 -23 0 -42 -5 -42 -4 0 0 -9 10 -20 10 -12 18 -16 21
-9 2 6 -3 15 -10 20 -11 7 -9 9 6 9 19 1 19 1 1 11 -14 9 -15 13 -6 19 10 6 9
13 -4 31 -16 24 -16 24 -13 -19z"/>
<path d="M2238 2088 c2 -29 5 -60 8 -68 4 -13 6 -13 14 0 8 12 10 10 10 -9 0
-29 13 -20 16 12 1 22 -35 117 -45 117 -3 0 -5 -24 -3 -52z"/>
<path d="M1966 2101 c-9 -14 4 -62 15 -55 10 6 8 49 -3 59 -3 4 -9 2 -12 -4z"/>
<path d="M1417 2093 c-2 -5 0 -21 4 -38 7 -29 7 -29 8 8 1 35 -3 46 -12 30z"/>
<path d="M1465 2060 c3 -5 8 -10 11 -10 2 0 4 5 4 10 0 6 -5 10 -11 10 -5 0
-7 -4 -4 -10z"/>
<path d="M2320 2055 c0 -8 2 -15 4 -15 2 0 6 7 10 15 3 8 1 15 -4 15 -6 0 -10
-7 -10 -15z"/>
<path d="M2350 2050 c0 -5 5 -10 11 -10 5 0 7 5 4 10 -3 6 -8 10 -11 10 -2 0
-4 -4 -4 -10z"/>
<path d="M1721 1990 c0 -37 2 -41 9 -22 6 13 6 31 0 45 -7 18 -9 14 -9 -23z"/>
<path d="M1521 1994 c0 -11 3 -14 6 -6 3 7 2 16 -1 19 -3 4 -6 -2 -5 -13z"/>
<path d="M5851 1929 c-13 -39 -13 -39 -2 -39 10 0 26 58 18 66 -3 3 -10 -9
-16 -27z"/>
<path d="M1891 1934 c0 -11 3 -14 6 -6 3 7 2 16 -1 19 -3 4 -6 -2 -5 -13z"/>
<path d="M3106 1916 c-61 -81 -83 -186 -63 -308 7 -43 6 -48 -10 -48 -31 0
-107 30 -129 51 -11 10 -24 16 -29 12 -4 -5 -5 -2 0 6 5 9 3 18 -6 25 -21 17
-41 55 -55 106 l-12 45 -1 -37 c-1 -48 33 -139 67 -180 14 -17 41 -37 59 -45
33 -13 33 -13 27 -69 -3 -31 -11 -84 -18 -117 -9 -42 -10 -68 -4 -81 7 -13 7
-16 -1 -12 -8 5 -11 -12 -11 -53 0 -33 5 -63 10 -66 6 -4 8 -25 6 -48 -5 -39
-4 -40 9 -23 12 16 12 22 2 28 -7 5 -8 8 -1 8 7 0 11 39 12 115 0 63 5 123 11
133 5 10 8 41 7 68 -2 27 1 55 6 61 6 7 8 21 5 32 -4 16 2 20 29 23 37 4 37 4
49 -67 4 -21 13 -52 22 -68 11 -22 13 -48 8 -116 -6 -74 -4 -93 11 -122 21
-41 24 -54 31 -142 2 -37 8 -65 11 -63 4 2 8 -39 9 -92 1 -54 3 -113 5 -132 4
-36 -9 -80 -24 -80 -13 0 -10 -74 4 -88 9 -9 7 -17 -9 -34 -12 -13 -28 -41
-37 -63 -16 -38 -16 -40 6 -57 25 -20 60 -18 107 5 24 12 26 17 23 62 -2 34
-10 57 -25 73 -19 21 -22 35 -22 115 -1 97 -4 117 -20 130 -6 4 -5 10 4 16 8
5 10 14 6 21 -5 7 -7 61 -6 119 6 211 6 209 -12 229 -10 11 -17 35 -17 58 -1
38 -22 143 -33 161 -3 5 -8 41 -11 81 -3 40 -11 92 -17 115 -6 23 -12 80 -12
127 0 87 6 104 60 186 25 39 9 38 -21 0z"/>
<path d="M1919 1923 c-1 -5 -1 -12 0 -17 1 -5 -4 -13 -11 -17 -10 -7 -9 -9 5
-9 12 0 17 8 17 25 0 23 -8 36 -11 18z"/>
<path d="M1877 1863 c-11 -10 -8 -25 3 -18 6 3 10 1 10 -4 0 -6 -4 -11 -10
-11 -5 0 -9 -3 -8 -7 0 -5 -3 -17 -8 -28 -8 -18 -9 -17 -15 10 l-7 30 -1 -31
c-1 -21 5 -34 15 -38 22 -8 21 -9 33 24 5 17 16 29 23 28 7 -2 14 7 16 20 4
23 17 29 25 12 3 -6 4 -5 3 2 -1 7 -13 15 -26 16 -17 3 -21 0 -17 -12 3 -8 2
-18 -3 -21 -6 -4 -10 3 -10 14 0 21 -11 27 -23 14z"/>
<path d="M2018 1863 c7 -3 16 -2 19 1 4 3 -2 6 -13 5 -11 0 -14 -3 -6 -6z"/>
<path d="M1440 1835 c-7 -41 4 -140 16 -152 12 -13 14 -10 14 19 -1 34 -27
151 -30 133z"/>
<path d="M3349 1768 c-1 -71 -7 -115 -19 -138 -5 -10 -10 -32 -10 -49 0 -16
-6 -58 -14 -93 -8 -35 -17 -117 -21 -183 -4 -79 -11 -123 -19 -130 -29 -23
-64 -135 -42 -135 8 0 8 -2 0 -8 -6 -4 -10 -32 -10 -64 1 -82 22 -57 31 37 5
58 15 91 41 140 33 63 35 69 34 168 -1 102 9 203 31 307 17 84 22 187 10 194
-7 5 -11 -10 -12 -46z"/>
<path d="M1617 1753 c-11 -10 -8 -71 3 -78 6 -4 10 12 10 39 0 47 -2 51 -13
39z"/>
<path d="M1847 1729 c-8 -31 4 -47 15 -19 5 13 5 27 0 32 -6 6 -12 0 -15 -13z"/>
<path d="M1510 1731 c0 -6 4 -13 10 -16 6 -3 7 1 4 9 -7 18 -14 21 -14 7z"/>
<path d="M1509 1653 c-1 -26 -1 -55 0 -65 1 -9 -3 -19 -9 -23 -5 -3 -10 -12
-10 -18 0 -7 4 -6 10 3 8 12 10 10 11 -10 3 -52 17 -87 38 -93 16 -4 17 4 13
77 -5 95 -22 168 -39 174 -9 2 -13 -11 -14 -45z"/>
<path d="M1820 1649 c0 -30 5 -61 11 -69 7 -11 8 3 5 48 -6 80 -16 93 -16 21z"/>
<path d="M1880 1666 c0 -8 -6 -17 -12 -19 -8 -3 -6 -6 5 -6 11 -1 17 6 17 19
0 11 -2 20 -5 20 -3 0 -5 -6 -5 -14z"/>
<path d="M1737 1633 c-2 -4 0 -19 6 -33 l10 -25 5 24 c4 24 -12 50 -21 34z"/>
<path d="M4070 1549 c0 -84 13 -171 30 -194 13 -17 21 -65 11 -65 -8 0 -27
-85 -22 -104 1 -4 -2 -13 -7 -20 -5 -6 -12 -28 -16 -48 -5 -27 -11 -36 -21
-32 -32 13 -126 -75 -183 -169 -25 -40 -10 -41 48 -2 51 34 90 45 90 25 0 -5
-5 -10 -11 -10 -5 0 -7 -5 -4 -10 4 -6 2 -16 -3 -23 -5 -7 -21 -44 -36 -84
-15 -40 -36 -83 -47 -97 -13 -16 -16 -27 -9 -31 6 -4 12 -5 14 -4 7 11 86 199
86 206 0 4 7 22 16 38 9 17 24 51 34 76 10 26 28 66 38 90 24 53 72 221 72
252 0 13 -4 27 -8 32 -5 6 -14 30 -21 55 -8 25 -17 56 -22 70 -5 14 -10 51
-11 83 -5 91 -18 66 -18 -34z m-60 -541 c0 -18 -12 -28 -52 -46 l-51 -22 18
22 c25 30 68 68 78 68 4 0 7 -10 7 -22z"/>
<path d="M4926 1567 c3 -10 9 -15 12 -12 3 3 0 11 -7 18 -10 9 -11 8 -5 -6z"/>
<path d="M1855 1549 c-4 -6 -5 -12 -2 -15 2 -3 7 2 10 11 7 17 1 20 -8 4z"/>
<path d="M1618 1423 c-2 -52 1 -74 10 -78 6 -2 12 -11 12 -19 0 -9 7 -12 19
-9 15 4 17 10 10 41 -4 20 -16 60 -27 87 l-20 50 -4 -72z"/>
<path d="M718 1380 c-19 -22 -23 -40 -9 -40 14 0 33 28 29 45 -2 13 -6 13 -20
-5z"/>
<path d="M4836 1305 c-3 -9 0 -15 9 -15 9 0 12 6 9 15 -4 8 -7 15 -9 15 -2 0
-5 -7 -9 -15z"/>
<path d="M4803 1266 c-1 -38 1 -43 19 -42 25 1 37 26 14 26 -11 0 -16 9 -16
30 0 47 -15 35 -17 -14z"/>
<path d="M4933 1291 c1 -15 4 -17 14 -9 7 5 10 14 7 19 -10 16 -23 9 -21 -10z"/>
<path d="M3216 1282 c-2 -4 -5 -27 -4 -49 0 -23 -3 -46 -6 -51 -3 -6 -2 -13 3
-17 24 -14 50 95 27 114 -8 7 -17 8 -20 3z"/>
<path d="M4895 1280 c-3 -5 -1 -10 4 -10 6 0 11 5 11 10 0 6 -2 10 -4 10 -3 0
-8 -4 -11 -10z"/>
<path d="M4713 1080 c0 -23 3 -28 9 -16 5 9 5 23 0 32 -6 12 -9 7 -9 -16z"/>
<path d="M2840 1090 c-13 -8 -12 -14 4 -44 14 -26 18 -53 17 -97 -1 -34 -4
-66 -7 -71 -3 -4 0 -8 6 -8 6 0 8 -5 4 -12 -10 -16 -12 -58 -3 -64 8 -5 16 61
19 160 1 46 6 74 15 80 20 16 -34 69 -55 56z m20 -20 c0 -5 -2 -10 -4 -10 -3
0 -8 5 -11 10 -3 6 -1 10 4 10 6 0 11 -4 11 -10z"/>
<path d="M4230 1031 c0 -5 5 -13 10 -16 6 -3 10 -2 10 4 0 5 -4 13 -10 16 -5
3 -10 2 -10 -4z"/>
<path d="M2921 974 c0 -11 3 -14 6 -6 3 7 2 16 -1 19 -3 4 -6 -2 -5 -13z"/>
<path d="M4673 865 c0 -27 2 -38 4 -22 2 15 2 37 0 50 -2 12 -4 0 -4 -28z"/>
<path d="M3209 809 c-16 -16 -18 -23 -8 -35 6 -8 20 -14 30 -14 15 0 19 7 16
35 -2 40 -9 43 -38 14z"/>
<path d="M4667 793 c-2 -4 -10 -29 -18 -56 -16 -57 -50 -103 -68 -93 -18 11
-33 57 -23 70 4 6 14 25 20 41 l12 30 -25 -30 c-31 -37 -45 -83 -33 -114 6
-17 3 -32 -13 -57 -11 -19 -25 -34 -30 -34 -5 0 -11 -11 -15 -25 -3 -14 -13
-29 -21 -33 -8 -5 -17 -27 -20 -50 -7 -52 6 -59 85 -44 128 24 133 27 125 71
-10 60 -3 118 21 174 12 28 14 42 6 57 -8 14 -8 32 -1 57 10 34 9 55 -2 36z"/>
<path d="M2905 781 c-3 -5 -1 -12 5 -16 5 -3 10 1 10 9 0 18 -6 21 -15 7z"/>
<path d="M2836 670 c-14 -59 -17 -83 -9 -91 9 -9 5 -19 -13 -38 -48 -51 -42
-108 11 -104 28 2 75 38 75 57 0 6 -11 21 -24 34 l-24 23 24 24 c26 27 35 56
10 36 -11 -10 -16 -8 -20 7 -4 11 -3 30 2 43 11 32 10 81 -3 86 -6 2 -19 -33
-29 -77z"/>
<path d="M2909 725 c0 -11 -2 -28 -4 -37 -2 -10 3 -18 11 -18 16 0 19 37 4 60
-8 12 -10 12 -11 -5z"/>
<path d="M3227 707 c-3 -8 -2 -18 3 -23 13 -14 0 -63 -15 -58 -24 9 -26 -15
-4 -38 l21 -23 -7 23 c-7 24 9 31 19 7 3 -8 11 -15 17 -15 8 0 10 14 6 43 -7
53 -32 104 -40 84z"/>
</g>
</svg>
