<?xml version="1.0" standalone="no"?>
<!DOCTYPE svg PUBLIC "-//W3C//DTD SVG 20010904//EN"
 "http://www.w3.org/TR/2001/REC-SVG-20010904/DTD/svg10.dtd">
<svg version="1.0" xmlns="http://www.w3.org/2000/svg"
 width="540.000000pt" height="541.000000pt" viewBox="0 0 540.000000 541.000000"
 preserveAspectRatio="xMidYMid meet">

<g transform="translate(0.000000,541.000000) scale(0.100000,-0.100000)"
fill="#000000" stroke="none">
<path d="M5108 5205 c-3 -3 -34 -8 -69 -11 -35 -2 -95 -9 -134 -14 -38 -4
-207 -6 -375 -3 -168 4 -318 6 -335 6 -16 -1 -149 -3 -295 -6 -146 -3 -289
-10 -319 -16 -32 -7 -102 -8 -180 -5 -69 4 -232 5 -361 4 -129 -1 -255 -3
-280 -3 -108 0 -390 14 -440 23 -32 6 -143 8 -270 4 -118 -3 -368 -1 -555 4
-279 9 -352 8 -405 -3 -36 -7 -123 -17 -195 -20 -71 -4 -148 -8 -169 -10 -21
-1 -69 4 -105 11 -42 9 -116 14 -206 12 -77 -1 -154 1 -170 5 -45 11 -68 -9
-56 -48 5 -17 12 -190 16 -385 11 -622 19 -840 35 -920 13 -63 5 -484 -10
-590 -6 -36 -12 -319 -15 -630 -3 -311 -7 -605 -10 -655 -9 -167 -7 -459 5
-555 6 -52 11 -187 10 -300 -5 -556 -4 -609 16 -718 8 -40 13 -76 13 -80 -6
-38 1 -43 48 -37 57 6 570 8 580 2 10 -6 392 -21 483 -19 36 0 175 4 310 8
339 11 513 10 595 -4 181 -29 433 -33 965 -13 179 6 550 14 825 16 275 3 519
7 542 11 29 4 48 2 58 -6 12 -10 19 -10 33 2 13 11 32 13 77 9 33 -3 101 0
150 7 50 6 135 11 190 10 l100 -3 -5 60 c-7 86 -4 172 9 318 8 98 8 134 -1
150 -6 12 -13 63 -14 114 -2 118 -15 286 -21 296 -3 5 -7 135 -9 290 -6 487
-15 956 -20 1107 -3 80 -7 397 -9 705 -4 559 -4 560 22 750 25 180 27 214 28
640 1 248 4 456 8 462 4 6 4 14 0 16 -15 8 -79 17 -85 12z m-3538 -53 c318 -7
422 -7 605 -1 55 2 121 0 148 -4 41 -7 47 -11 47 -33 0 -13 -3 -24 -7 -25 -5
0 -16 -2 -25 -4 -14 -3 -17 2 -12 21 4 17 1 26 -10 30 -21 8 -25 4 -29 -27 -3
-18 -11 -25 -31 -27 -32 -4 -30 -25 3 -30 21 -3 22 -7 17 -55 -4 -28 -8 -51
-9 -52 -43 -16 -77 -38 -77 -50 0 -8 6 -15 13 -15 9 0 13 -18 15 -57 3 -83 18
-93 138 -93 75 0 94 3 94 14 0 24 -18 29 -105 27 l-83 -2 -7 38 c-3 22 -1 51
4 66 l11 28 95 -4 c52 -1 95 -2 95 -1 0 1 3 9 6 18 5 13 -1 16 -29 16 -29 0
-36 4 -41 25 -4 14 -2 44 4 65 9 32 15 40 34 40 25 0 42 25 25 35 -5 4 -18 3
-29 0 -17 -5 -20 -2 -20 21 l0 27 113 -7 c61 -3 317 -8 567 -10 574 -5 584 -7
636 -125 34 -77 32 -144 -6 -220 -48 -93 -89 -114 -250 -131 -58 -6 -123 -16
-145 -22 -50 -13 -535 -3 -617 13 -69 14 -86 8 -99 -31 -6 -16 -16 -30 -21
-30 -6 0 -8 -10 -4 -22 20 -68 9 -71 -39 -10 -17 20 -43 50 -60 67 l-30 30
-295 -1 c-162 -1 -351 -8 -420 -14 -115 -11 -305 -10 -560 5 -47 2 -188 6
-315 9 -129 2 -242 9 -257 15 -15 6 -35 8 -43 5 -8 -4 -28 -1 -44 6 l-29 11
50 50 c50 50 78 62 78 33 0 -9 -9 -27 -20 -41 -21 -27 -19 -43 5 -43 18 0 41
36 50 77 5 25 2 36 -12 48 -19 16 -19 18 5 66 14 27 22 52 18 56 -3 3 -23 1
-43 -5 -21 -6 -68 -14 -105 -18 -50 -5 -68 -11 -68 -22 0 -12 13 -13 68 -10
37 3 75 9 86 13 17 8 17 6 2 -23 -9 -17 -43 -58 -75 -92 -32 -33 -56 -60 -53
-60 3 0 3 -3 0 -6 -8 -8 -59 20 -80 42 -30 34 -66 147 -67 212 -1 76 10 106
50 139 16 14 28 31 25 38 -7 18 104 19 207 1 49 -9 120 -14 164 -11 166 8 271
18 338 31 39 7 86 11 105 8 19 -3 177 -8 350 -12z m3585 -154 c14 -313 9 -659
-13 -833 -11 -88 -23 -187 -27 -219 -7 -64 -23 -90 -46 -76 -9 6 -21 2 -35
-11 l-22 -21 -19 29 c-43 68 -85 71 -143 11 -22 -23 -40 -46 -40 -50 0 -7 -23
2 -50 20 -2 2 1 6 7 10 6 4 15 20 18 35 6 21 4 27 -8 27 -9 0 -21 -8 -27 -17
-8 -14 -9 -12 -4 11 12 53 -17 24 -45 -44 -18 -47 -27 -59 -29 -43 -2 12 1 39
7 60 6 21 7 41 2 46 -15 15 -23 -11 -34 -119 -9 -89 -13 -104 -26 -98 -53 21
-65 -13 -40 -104 18 -65 35 -95 49 -87 4 2 7 -11 8 -30 1 -25 -3 -35 -18 -40
-11 -3 -29 -18 -40 -32 l-20 -25 -36 28 c-20 16 -50 40 -68 53 -36 27 -157 85
-201 95 -27 7 -28 9 -12 21 10 7 15 19 11 29 -7 19 -4 19 -48 1 -20 -8 -36
-13 -36 -10 0 3 12 10 26 16 25 9 26 11 10 22 -16 12 -16 14 -2 26 9 8 16 24
16 37 0 12 5 26 10 29 13 8 13 25 0 25 -6 0 -29 -12 -52 -27 -24 -14 -56 -29
-73 -33 -16 -4 -40 -10 -52 -14 -20 -6 -21 -4 -16 31 7 52 -23 88 -89 108 -28
8 -54 12 -59 9 -5 -3 -9 2 -9 10 0 9 -6 16 -14 16 -21 0 -26 23 -11 50 9 16
10 29 4 36 -7 8 6 76 36 201 25 103 47 198 50 211 3 12 1 22 -4 22 -5 0 -13
-15 -16 -32 -4 -18 -15 -51 -25 -73 -102 -231 -115 -256 -121 -239 -17 47 -52
154 -67 209 -16 57 -37 95 -73 134 -8 10 -18 25 -22 34 -4 10 -15 20 -24 23
-10 3 -26 10 -35 15 -72 38 -133 -25 -207 -213 -13 -31 -20 -61 -17 -66 3 -5
-8 -15 -25 -22 -58 -24 -109 -70 -141 -127 l-32 -57 -13 50 c-7 27 -14 86 -15
131 -3 80 -9 100 -22 68 -3 -8 -8 -80 -12 -160 -6 -130 -5 -145 10 -151 10 -4
14 -13 11 -24 -4 -12 1 -20 17 -25 13 -4 26 -7 31 -6 4 1 7 -6 7 -14 0 -8 -9
-15 -20 -15 -25 0 -25 -10 1 -70 23 -53 54 -70 89 -48 26 17 34 46 21 82 -6
15 -11 31 -11 35 0 5 30 11 68 14 37 4 90 9 117 12 42 5 47 4 30 -6 -11 -7
-39 -28 -62 -47 -53 -42 -57 -74 -13 -92 26 -11 34 -9 75 14 58 35 77 63 71
109 -4 30 -2 37 12 38 9 0 52 4 95 8 74 6 78 6 83 -15 3 -12 1 -32 -6 -43 -11
-22 -6 -41 10 -41 5 0 16 12 24 28 8 15 15 21 16 14 0 -7 -5 -22 -10 -33 -10
-17 -7 -20 20 -25 16 -4 30 -13 30 -20 0 -21 38 -16 52 7 7 11 27 29 44 40 26
16 36 17 63 8 60 -21 65 -82 10 -135 l-30 -28 3 24 c3 21 -2 26 -32 30 -34 5
-34 6 -12 18 12 7 22 19 22 27 0 29 -21 25 -60 -11 -38 -36 -39 -38 -23 -56
13 -14 26 -18 45 -14 40 8 34 -11 -9 -29 -50 -21 -107 -65 -96 -75 4 -5 24
-10 43 -12 l35 -4 -32 -13 c-33 -13 -44 -36 -20 -44 7 -2 0 -10 -16 -17 -16
-8 -26 -19 -23 -27 3 -7 -1 -13 -9 -13 -22 0 -18 -17 7 -34 26 -18 17 -21 -14
-5 -14 8 -23 8 -31 0 -7 -7 3 -22 34 -50 24 -21 41 -42 38 -45 -3 -4 -24 12
-45 34 -46 48 -73 52 -76 13 -2 -48 3 -75 19 -100 9 -13 13 -26 10 -29 -3 -3
-13 6 -22 20 -19 28 -55 35 -55 11 0 -8 5 -15 10 -15 22 0 8 -20 -17 -26 -16
-3 -38 -10 -49 -16 -16 -7 -37 -6 -78 6 -65 19 -91 15 -100 -17 -4 -17 -8 -19
-18 -9 -6 6 -24 12 -39 12 -15 0 -29 6 -32 14 -9 23 -47 26 -68 5 -23 -23 -29
-24 -29 -4 0 22 -31 18 -37 -5 -7 -26 -11 -25 -34 4 -11 14 -28 28 -39 31 -15
5 -18 12 -14 34 5 23 0 33 -24 52 -17 13 -31 31 -32 39 -4 27 0 41 10 35 5 -3
7 -12 4 -20 -4 -10 3 -18 21 -25 14 -5 33 -17 41 -25 9 -8 24 -15 35 -15 10 0
19 -5 19 -12 0 -6 10 -22 22 -35 37 -40 119 -28 199 29 13 9 23 6 52 -16 34
-26 39 -27 74 -15 42 13 65 37 58 57 -3 7 -1 11 4 8 5 -3 14 1 21 9 11 13 9
20 -11 41 -32 35 -91 64 -129 64 -24 0 -31 4 -28 18 1 9 -1 23 -5 29 -6 10 0
11 23 7 23 -5 30 -3 30 10 0 14 -7 17 -35 16 -3 0 -19 7 -37 16 -30 15 -32 15
-45 -2 -18 -25 -16 -37 7 -52 29 -18 24 -32 -9 -26 -20 4 -30 2 -34 -10 -9
-23 -37 -20 -37 4 0 21 -33 29 -45 10 -9 -15 -35 -12 -35 3 0 7 14 26 31 43
45 42 70 96 63 133 -6 30 -29 42 -36 19 -3 -9 -12 -9 -38 0 -45 16 -132 15
-154 -1 -24 -18 -14 -50 22 -67 15 -7 55 -15 89 -18 73 -6 75 -22 3 -22 -55 0
-74 -15 -36 -30 23 -8 24 -12 15 -32 -6 -13 -34 -34 -62 -47 -29 -14 -55 -27
-59 -29 -12 -6 -9 85 4 113 9 20 8 31 -2 50 -16 29 -7 95 15 107 8 5 15 22 15
39 0 17 9 51 21 76 19 43 20 73 1 73 -8 0 -28 -39 -57 -114 l-11 -29 -13 31
c-17 41 -29 40 -66 -3 l-29 -36 -24 26 c-24 26 -50 29 -44 5 11 -47 9 -90 -4
-90 -8 0 -14 -4 -14 -10 0 -5 -7 -10 -15 -10 -8 0 -15 -7 -15 -15 0 -8 -9 -15
-19 -15 -11 0 -21 -4 -23 -9 -1 -5 -37 -19 -78 -30 -41 -11 -109 -30 -150 -42
-41 -12 -100 -27 -130 -34 -68 -15 -301 -94 -314 -106 -18 -16 -24 -10 -34 34
-6 23 -27 81 -46 129 -20 48 -36 99 -36 114 0 14 -11 53 -24 87 -13 34 -37 95
-52 136 -43 111 -80 118 -129 24 -10 -21 -24 -45 -30 -53 -11 -14 -81 -175
-92 -212 -3 -10 -8 -18 -12 -18 -8 0 -61 124 -61 143 0 24 -58 140 -85 170
-26 30 -53 32 -65 7 -14 -27 -69 -274 -75 -335 -3 -33 -10 -87 -15 -120 -6
-33 -12 -112 -13 -174 l-4 -115 -69 -35 c-76 -40 -171 -127 -197 -183 -9 -19
-19 -74 -23 -121 -5 -78 -4 -91 19 -141 28 -62 45 -69 87 -36 14 11 29 20 34
20 5 0 17 7 26 15 14 13 16 8 18 -63 2 -42 7 -93 12 -112 5 -19 12 -99 14
-177 3 -78 8 -157 11 -175 5 -25 1 -44 -14 -69 -53 -91 -107 -183 -116 -200
-5 -11 -18 -22 -27 -25 -17 -5 -68 -93 -68 -117 0 -8 -31 -12 -98 -13 -53 -1
-133 -5 -177 -9 -99 -10 -122 -10 -210 -2 -38 4 -82 7 -97 7 -46 0 -34 31 26
68 70 43 82 58 91 111 l7 44 -41 -6 -41 -5 1 71 c1 40 7 92 14 117 8 25 19 80
26 122 l13 78 40 8 c23 5 44 7 47 6 3 -2 9 -61 13 -132 4 -71 11 -156 17 -188
6 -32 11 -97 13 -143 2 -75 5 -86 26 -103 20 -16 33 -18 70 -13 25 4 52 13 60
20 8 7 31 15 51 19 40 7 85 48 74 66 -4 7 -7 29 -7 51 1 43 -7 47 -68 29 -19
-5 -38 -6 -42 -2 -4 4 -1 46 7 94 7 47 11 111 8 141 -3 30 -2 85 2 121 6 59 9
66 29 66 12 0 30 6 40 13 18 13 18 16 2 63 -17 52 -26 161 -27 334 -1 94 1
110 24 150 36 64 50 240 29 355 -11 60 -43 135 -66 154 -21 18 -20 34 4 49 24
15 26 40 5 69 -9 12 -15 37 -14 55 2 41 -20 159 -34 176 -5 6 -19 12 -30 12
-16 0 -18 3 -10 11 6 6 9 17 7 24 -3 7 -1 16 5 20 13 7 15 45 3 45 -5 0 -16
-15 -25 -32 l-17 -33 6 48 c7 56 -11 66 -22 12 -7 -40 -14 -43 -32 -15 -17 27
-30 18 -25 -17 5 -28 4 -28 -40 -25 -35 3 -52 11 -78 38 -24 24 -42 34 -64 34
-39 0 -60 -22 -74 -77 -10 -38 -15 -43 -41 -43 -16 0 -33 -7 -38 -16 -7 -13
-11 -9 -16 20 -10 52 -30 47 -22 -6 4 -30 3 -39 -4 -28 -5 8 -10 22 -10 31 0
8 -5 20 -12 27 -14 14 -16 27 -24 152 -18 292 -29 1031 -17 1122 l5 37 68 -2
67 -2 -30 -30 c-65 -66 -75 -160 -30 -285 30 -87 50 -112 110 -142 24 -12 43
-25 43 -29 0 -9 91 -30 101 -23 4 2 20 -1 36 -7 17 -7 108 -13 233 -15 113 -1
286 -7 385 -13 249 -16 402 -16 525 -2 61 7 229 13 399 13 l294 0 25 -33 c42
-56 133 -139 151 -139 15 0 17 9 15 58 -1 31 3 70 9 86 10 27 12 28 61 22 113
-13 585 -19 643 -7 32 6 99 13 149 16 102 6 181 36 218 83 49 61 78 135 78
197 1 101 -50 202 -116 231 l-31 13 50 1 c28 0 307 1 620 1 314 1 599 4 635 9
36 4 95 8 131 9 l67 1 7 -162z m-2785 42 c0 -12 -8 -12 -35 0 -18 8 -17 9 8 9
15 1 27 -3 27 -9z m-5 -50 c-7 -11 -55 -9 -55 2 0 4 14 8 31 8 17 0 28 -4 24
-10z m-15 -50 c0 -5 -9 -10 -20 -10 -11 0 -20 5 -20 10 0 6 9 10 20 10 11 0
20 -4 20 -10z m1140 -591 c-11 -40 -20 -91 -20 -111 0 -28 -4 -38 -16 -38 -10
0 -14 6 -10 18 2 9 7 33 11 52 6 32 30 125 42 160 3 9 7 11 10 4 2 -6 -5 -45
-17 -85z m107 -7 c17 -49 29 -172 16 -172 -16 0 -23 13 -14 24 6 7 6 30 1 56
-5 25 -13 67 -18 93 -11 54 -4 54 15 -1z m-72 -282 c3 -5 1 -10 -4 -10 -6 0
-11 5 -11 10 0 6 2 10 4 10 3 0 8 -4 11 -10z m-114 -50 c23 -13 25 -43 4 -60
-26 -22 -107 -41 -122 -29 -16 14 -17 63 0 77 23 20 90 26 118 12z m-1971
-104 c0 -3 -4 -8 -10 -11 -5 -3 -10 -1 -10 4 0 6 5 11 10 11 6 0 10 -2 10 -4z
m-881 -76 c31 -50 52 -57 66 -22 5 13 9 10 20 -12 19 -36 19 -42 0 -26 -18 15
-19 3 -5 -34 11 -30 8 -32 -25 -10 -35 23 -31 4 6 -32 26 -25 38 -29 95 -30
48 -2 67 2 71 12 10 27 23 14 23 -25 0 -22 -6 -44 -15 -51 -25 -20 -19 -43 9
-38 33 7 41 -17 14 -42 -23 -21 -55 -19 -96 7 -25 15 -77 10 -88 -9 -9 -15 17
-28 42 -22 12 3 25 1 28 -5 4 -6 17 -11 30 -11 57 0 111 -50 136 -125 18 -54
22 -99 22 -233 -1 -112 -1 -114 -38 -180 -35 -63 -114 -151 -155 -173 -21 -11
-23 -6 -9 21 12 22 -11 46 -35 36 -8 -3 -15 -4 -15 -3 0 1 28 32 63 69 69 73
79 99 96 241 9 78 6 112 -12 134 -18 23 -24 4 -25 -73 -2 -137 -29 -251 -58
-240 -7 3 -30 -2 -50 -10 -50 -21 -155 -21 -199 0 -59 28 -79 80 -84 216 -2
63 -4 141 -3 173 1 31 -2 57 -7 57 -4 0 -15 -18 -25 -40 -14 -32 -15 -47 -8
-70 6 -16 8 -37 6 -47 -3 -10 -1 -62 5 -114 11 -112 35 -163 100 -215 24 -19
48 -34 54 -34 5 0 4 -7 -3 -15 -10 -12 -10 -18 0 -30 9 -11 10 -18 1 -28 -6
-8 -7 -17 -3 -22 20 -21 -71 7 -109 34 -94 68 -122 150 -122 354 0 108 4 141
15 155 9 9 25 38 36 64 26 59 72 91 120 83 19 -4 32 -2 32 5 0 5 11 10 24 10
76 0 113 30 62 50 -18 6 -34 5 -57 -7 -24 -12 -34 -13 -37 -5 -2 7 -12 12 -22
12 -25 0 -61 77 -59 126 0 22 -2 50 -5 64 -8 33 8 60 26 42 6 -6 17 -12 23
-12 14 0 47 79 39 92 -3 5 4 20 16 33 29 31 48 22 89 -45z m4408 17 c8 -17 13
-42 9 -58 -3 -17 0 -32 10 -40 8 -6 15 -10 17 -8 1 2 12 22 23 44 21 39 50 62
38 30 -4 -9 2 -25 14 -38 19 -20 21 -37 24 -179 2 -122 0 -154 -9 -146 -9 7
-20 4 -39 -11 -32 -25 -38 -23 -26 10 23 61 -29 91 -77 45 -21 -20 -38 -25
-91 -27 -59 -3 -66 -1 -75 19 -5 12 -17 22 -25 22 -22 0 -53 -63 -45 -91 5
-20 3 -19 -14 6 -32 48 -30 141 5 245 16 47 37 96 47 110 17 23 19 24 28 7 9
-16 18 -11 74 49 70 74 78 75 112 11z m-4267 -69 c0 -14 -19 1 -31 25 -12 22
-12 22 10 3 11 -11 21 -23 21 -28z m697 -20 c-3 -8 -6 -5 -6 6 -1 11 2 17 5
13 3 -3 4 -12 1 -19z m-1096 -105 c6 -21 11 -45 11 -53 0 -8 8 -23 16 -32 22
-25 3 -22 -25 4 -19 17 -23 32 -23 76 0 61 7 63 21 5z m1222 -14 c-9 -9 -12
-7 -10 9 1 14 5 18 11 12 7 -7 6 -14 -1 -21z m3125 -38 c-3 -25 -25 -42 -25
-19 0 7 -3 29 -8 48 l-7 35 21 -19 c14 -13 21 -29 19 -45z m-3098 9 c-18 -11
-22 -7 -14 14 5 13 10 14 18 6 8 -8 7 -13 -4 -20z m1660 -21 c0 -12 -43 6 -48
20 -3 9 2 9 22 0 14 -7 26 -16 26 -20z m-1774 -24 c-8 -19 -20 -43 -26 -52 -9
-15 -10 -14 -5 7 11 44 27 80 36 80 5 0 3 -16 -5 -35z m131 13 c-3 -8 -6 -5
-6 6 -1 11 2 17 5 13 3 -3 4 -12 1 -19z m173 -40 c-9 -34 -22 -64 -29 -66 -9
-3 -11 2 -6 18 9 30 45 110 49 110 2 0 -4 -28 -14 -62z m107 5 c-13 -13 -13
-10 -3 22 9 30 12 32 14 15 2 -13 -3 -29 -11 -37z m-27 17 c0 -11 -4 -20 -9
-20 -5 0 -7 9 -4 20 3 11 7 20 9 20 2 0 4 -9 4 -20z m2385 -10 c3 -5 -3 -10
-14 -10 -12 0 -21 5 -21 10 0 6 6 10 14 10 8 0 18 -4 21 -10z m-2525 -55 c-7
-25 -16 -45 -20 -45 -5 0 -1 22 8 50 19 61 30 58 12 -5z m-1330 -1 c0 -2 -18
-22 -40 -43 l-40 -38 0 64 0 63 40 -20 c22 -11 40 -23 40 -26z m1263 31 c-3
-9 -8 -14 -10 -11 -3 3 -2 9 2 15 9 16 15 13 8 -4z m2740 -26 c34 -17 67 -35
73 -41 12 -9 9 -13 -63 -98 -18 -20 -33 -42 -33 -47 0 -5 -19 -45 -43 -89 -23
-44 -48 -93 -55 -110 -12 -27 -16 -29 -55 -25 -23 2 -51 10 -62 17 -11 8 -32
14 -47 14 -52 0 -28 20 25 21 63 1 99 10 105 27 2 7 -7 12 -25 12 -15 1 -39 7
-53 15 -24 15 -23 15 25 13 46 -3 50 -1 47 18 -2 18 5 23 43 33 68 17 57 33
-17 26 -35 -4 -81 -8 -103 -10 -28 -3 -36 -2 -25 5 8 5 36 10 63 10 26 0 47 4
47 9 0 5 32 20 70 32 39 12 70 26 70 30 0 12 -51 11 -88 -2 -17 -6 -41 -9 -54
-7 -19 3 -15 8 30 31 28 15 52 32 52 37 0 14 -5 13 -50 -10 -22 -11 -61 -22
-87 -25 l-48 -4 45 10 c25 6 57 15 72 21 28 11 64 55 53 66 -7 8 -11 8 -80 11
-52 2 -50 5 20 29 51 17 83 13 148 -19z m-1673 17 c0 -3 -4 -8 -10 -11 -5 -3
-10 -1 -10 4 0 6 5 11 10 11 6 0 10 -2 10 -4z m87 -9 c4 -6 25 -27 46 -45 22
-19 32 -32 22 -32 -8 0 -15 -7 -15 -16 0 -13 -4 -13 -30 3 -23 13 -32 15 -42
5 -9 -9 -6 -19 17 -42 l29 -30 -32 0 c-25 0 -32 -4 -32 -19 0 -14 14 -24 53
-37 42 -15 47 -19 27 -22 -14 -1 -36 -5 -49 -8 -21 -5 -22 -7 -10 -20 9 -8 35
-18 60 -23 l44 -8 -63 -18 c-50 -15 -61 -21 -50 -29 18 -14 32 -46 29 -68 -3
-22 33 -32 61 -17 19 9 21 9 11 -2 -29 -30 5 -57 35 -27 7 7 12 8 12 3 0 -5
-15 -22 -34 -39 -18 -17 -36 -41 -40 -54 -10 -30 -28 -28 -20 3 5 19 2 25 -11
25 -14 0 -15 3 -5 15 10 12 10 18 0 30 -12 14 -15 14 -31 -1 -11 -10 -19 -14
-19 -9 0 4 -6 3 -13 -4 -10 -7 -17 -7 -24 0 -8 8 -13 8 -17 0 -4 -6 -12 -11
-18 -11 -6 0 2 16 16 35 28 36 17 48 -16 18 -10 -9 -18 -13 -18 -9 0 5 14 21
30 36 19 18 28 34 24 44 -12 31 -49 12 -87 -44 -9 -13 -17 -19 -17 -11 0 7 25
45 55 83 56 72 60 88 23 88 -20 0 -20 1 -5 18 19 21 22 42 7 42 -5 0 -10 -5
-10 -12 0 -9 -3 -9 -11 -1 -6 6 -19 9 -28 6 -9 -3 -1 9 18 27 22 21 30 35 23
42 -7 7 -5 19 6 38 18 31 11 50 -11 32 -8 -7 -17 -9 -20 -5 -6 5 99 81 115 82
4 1 11 -5 15 -12z m-147 -17 c0 -5 -8 -10 -17 -10 -15 0 -16 2 -3 10 19 12 20
12 20 0z m2374 -24 c-6 -16 -24 -23 -24 -8 0 10 22 33 27 28 2 -2 1 -11 -3
-20z m-931 7 c-7 -2 -19 -2 -25 0 -7 3 -2 5 12 5 14 0 19 -2 13 -5z m-2293
-28 c7 -8 8 -15 2 -15 -5 0 -15 7 -22 15 -7 8 -8 15 -2 15 5 0 15 -7 22 -15z
m3000 -5 c0 -5 -2 -10 -4 -10 -3 0 -8 5 -11 10 -3 6 -1 10 4 10 6 0 11 -4 11
-10z m168 -16 c24 -3 40 -10 35 -14 -7 -6 -120 -27 -190 -35 -31 -3 -29 9 5
31 41 28 55 33 82 29 14 -2 45 -7 68 -11z m-3185 -14 c49 -22 76 -50 97 -100
7 -16 18 -30 25 -30 7 0 15 -16 18 -37 2 -21 7 -47 10 -58 2 -11 8 -49 12 -85
4 -36 13 -78 20 -95 19 -42 26 -189 14 -281 -6 -44 -11 -87 -12 -97 -2 -23
-35 -47 -135 -97 -92 -46 -163 -54 -202 -22 l-22 18 41 48 c22 26 41 51 41 57
0 5 7 9 15 9 9 0 15 9 15 23 0 12 6 31 13 43 45 78 68 128 63 141 -11 27 -27
8 -75 -82 -65 -125 -71 -133 -93 -127 -20 5 -25 -14 -6 -20 9 -3 8 -10 -5 -22
-17 -17 -18 -17 -39 9 -19 25 -26 27 -70 23 l-49 -5 2 76 c1 50 10 102 27 154
13 43 22 80 19 83 -15 15 -34 -9 -52 -66 -18 -59 -20 -61 -27 -34 -4 16 -7 54
-7 85 1 32 -1 61 -4 66 -3 5 -7 47 -8 93 -1 47 -6 93 -11 103 -14 28 9 158 32
182 12 11 20 14 20 7 0 -20 17 -14 53 18 42 37 55 37 67 5 5 -14 14 -25 20
-25 5 0 10 -7 10 -15 0 -25 20 -17 72 30 28 25 54 45 58 45 4 0 28 -9 53 -20z
m2921 -19 c23 -44 85 -55 206 -38 94 14 139 27 193 53 25 12 27 12 27 -9 0
-12 1 -125 3 -250 2 -181 0 -227 -10 -223 -7 3 -25 -1 -40 -9 -45 -24 -133
-13 -133 16 0 7 -7 17 -15 23 -19 14 -83 102 -129 177 -19 32 -63 92 -98 134
-99 121 -96 114 -67 136 33 26 46 24 63 -10z m-2795 -56 c0 -14 -4 -9 -14 14
-8 18 -15 41 -14 50 1 22 28 -39 28 -64z m1956 65 c3 -6 -1 -7 -9 -4 -18 7
-21 14 -7 14 6 0 13 -4 16 -10z m-1225 -30 c-8 -5 -17 -7 -19 -4 -3 3 1 9 9
14 8 5 17 7 19 4 3 -3 -1 -9 -9 -14z m684 -47 l29 -33 -44 -19 c-31 -14 -47
-17 -56 -9 -21 17 -15 47 15 73 15 13 27 23 27 22 0 -1 13 -17 29 -34z m1280
11 c5 -14 4 -15 -9 -4 -17 14 -19 20 -6 20 5 0 12 -7 15 -16z m-2674 -34 c0
-5 -2 -10 -4 -10 -3 0 -8 5 -11 10 -3 6 -1 10 4 10 6 0 11 -4 11 -10z m184
-59 c2 -30 15 -74 31 -108 35 -71 30 -66 52 -55 10 5 27 6 38 2 14 -5 30 1 55
22 40 32 54 19 19 -18 -12 -13 -19 -27 -15 -31 4 -5 21 7 38 25 42 48 44 35 2
-17 -40 -52 -44 -70 -8 -46 35 23 41 13 14 -25 -21 -29 -23 -30 -44 -15 -38
28 -70 37 -117 33 l-46 -5 -13 101 c-19 144 -23 202 -15 194 4 -3 8 -29 9 -57z
m1995 -37 c13 -13 -10 -12 -35 2 l-29 16 30 -7 c16 -4 32 -9 34 -11z m-1919
-18 c0 -3 -4 -8 -10 -11 -5 -3 -10 -1 -10 4 0 6 5 11 10 11 6 0 10 -2 10 -4z
m2316 -22 c-4 -9 -9 -15 -11 -12 -3 3 -3 13 1 22 4 9 9 15 11 12 3 -3 3 -13
-1 -22z m-2518 -71 c5 -28 6 -57 1 -64 -9 -15 -15 9 -23 91 -6 66 8 48 22 -27z
m332 64 c0 -2 -17 -19 -37 -38 l-38 -34 34 38 c33 34 41 42 41 34z m2336 -43
c-7 -27 -26 -24 -26 5 0 21 23 47 28 31 2 -6 1 -22 -2 -36z m-3330 10 c-3 -9
-6 -31 -6 -50 0 -23 -8 -43 -24 -59 -17 -17 -25 -39 -30 -86 -8 -66 -31 -119
-53 -119 -36 0 -19 128 24 172 23 24 24 28 9 34 -35 14 -69 -45 -81 -140 -6
-46 -4 -61 14 -89 l21 -34 -21 -19 c-24 -21 -32 -13 -49 46 -11 42 -7 84 14
134 14 33 14 37 0 43 -24 9 -32 -6 -43 -78 -9 -51 -8 -77 3 -120 14 -53 13
-69 -4 -69 -16 0 -43 88 -36 116 4 15 10 52 12 82 8 86 67 159 174 217 73 39
85 42 76 19z m3164 11 c0 -15 -32 -66 -38 -61 -3 4 0 12 6 18 7 7 12 20 12 30
0 10 5 18 10 18 6 0 10 -2 10 -5z m-2071 -99 c-32 -45 -34 -79 -3 -40 20 25 6
-3 -19 -38 -20 -27 -47 -28 -47 -1 0 16 90 136 97 129 2 -2 -10 -24 -28 -50z
m1698 16 c16 13 126 21 118 8 -8 -14 -142 -32 -193 -27 -49 5 -122 28 -122 38
0 3 41 -3 91 -13 71 -14 95 -15 106 -6z m176 3 c-3 -9 -8 -14 -10 -11 -3 3 -2
9 2 15 9 16 15 13 8 -4z m-678 -13 c-3 -3 -11 0 -18 7 -9 10 -8 11 6 5 10 -3
15 -9 12 -12z m-1031 -36 c-16 -19 -37 -45 -47 -58 -17 -22 -17 -22 0 7 28 48
65 96 71 91 2 -3 -8 -21 -24 -40z m716 -2 c0 -3 -7 -1 -15 6 -8 7 -15 17 -15
22 0 5 7 3 15 -6 8 -8 15 -18 15 -22z m-340 9 c-1 -14 -51 -65 -58 -59 -3 4 7
20 23 36 33 32 35 33 35 23z m550 -3 c8 -5 11 -10 5 -10 -5 0 -17 5 -25 10 -8
5 -10 10 -5 10 6 0 17 -5 25 -10z m700 6 c0 -10 -46 -83 -75 -120 -70 -89
-249 -176 -460 -222 -125 -28 -318 -14 -454 31 -55 18 -163 75 -144 75 7 0 42
14 78 30 36 17 70 30 75 30 6 0 10 5 10 11 0 8 4 8 15 -1 8 -6 25 -13 38 -14
13 -2 61 -26 107 -54 89 -55 113 -61 140 -37 14 13 22 13 64 0 53 -16 136 -20
136 -7 0 10 -72 34 -115 39 -45 5 -56 23 -13 23 20 0 38 6 41 13 3 9 7 9 20
-1 20 -17 114 -51 121 -45 3 3 1 14 -5 24 -7 15 -6 19 6 19 8 0 15 5 15 11 0
8 13 9 40 5 58 -9 54 19 -6 45 -26 11 -45 22 -42 25 3 3 22 -3 41 -12 30 -14
39 -15 52 -4 9 7 14 19 11 26 -4 10 12 14 62 16 38 2 66 7 64 13 -1 6 -12 10
-25 11 -45 1 -53 5 -29 14 23 10 30 30 10 30 -6 0 -9 3 -6 6 4 3 21 -2 39 -11
28 -15 34 -15 43 -3 12 16 146 47 146 34z m132 -28 c-8 -8 -9 -4 -5 13 4 13 8
18 11 10 2 -7 -1 -18 -6 -23z m-2994 -8 c0 -23 -4 -30 -19 -30 -22 0 -24 12
-7 40 18 28 25 25 26 -10z m1122 22 c0 -4 -14 -27 -31 -50 -33 -45 -62 -59
-35 -17 9 14 23 36 32 50 16 24 34 33 34 17z m-227 -31 c17 -6 17 -8 -3 -26
-48 -44 -89 -144 -105 -257 -5 -38 -3 -48 8 -48 10 0 17 16 21 49 10 78 52
183 85 213 27 24 32 25 63 15 47 -17 58 -26 58 -47 0 -13 -14 -27 -39 -39 -96
-49 -165 -168 -166 -284 0 -37 -3 -67 -6 -67 -12 0 -41 51 -53 93 -11 40 -36
63 -36 34 0 -45 36 -120 71 -148 32 -25 38 -37 44 -82 3 -28 15 -94 27 -145
11 -51 18 -94 16 -95 -1 -2 -23 -13 -48 -26 -25 -14 -58 -35 -74 -48 -34 -28
-40 -25 -26 11 5 15 10 36 10 48 0 43 -107 238 -131 238 -5 0 -23 9 -38 21
-25 18 -36 20 -97 14 l-69 -8 -72 -74 c-86 -89 -106 -136 -97 -229 13 -125 98
-219 197 -219 l52 0 -23 -45 c-36 -71 -47 -78 -139 -86 l-83 -7 0 31 c0 17 -4
33 -9 36 -12 8 -24 87 -26 166 -1 37 -8 80 -18 100 -18 38 -43 122 -62 215 -7
33 -20 80 -30 105 -9 25 -25 77 -35 115 -32 123 -44 150 -64 147 -12 -2 -31
11 -52 35 -29 33 -33 44 -30 83 2 25 11 60 20 77 14 29 51 63 67 63 3 0 12
-26 19 -59 16 -77 24 -89 44 -72 14 12 16 10 16 -15 0 -16 -5 -36 -10 -44 -8
-13 -11 -12 -24 5 -8 11 -28 48 -43 82 -28 62 -49 77 -46 32 2 -36 65 -143 91
-154 18 -8 22 -19 23 -55 1 -25 1 -49 0 -54 -1 -5 3 -21 9 -36 19 -46 85 -64
127 -35 19 13 21 13 26 -4 5 -19 77 -41 137 -41 47 0 218 94 287 158 65 60
116 144 119 197 8 108 14 148 24 160 13 16 62 19 93 6z m2196 -33 c1 -4 -5 -5
-12 -3 -7 3 -20 -7 -29 -22 -10 -16 -18 -22 -18 -14 0 7 10 30 22 49 19 31 22
33 29 16 4 -10 8 -22 8 -26z m105 15 c-4 -16 -10 -32 -15 -37 -4 -5 -5 -15 -2
-22 3 -8 -1 -14 -11 -14 -12 0 -15 -7 -11 -27 5 -30 -67 -193 -85 -193 -14 0
-13 4 10 45 11 20 20 43 20 52 0 9 11 31 26 50 32 42 17 43 -23 1 -37 -39 -65
-92 -61 -115 2 -9 -3 -18 -11 -21 -10 -3 -11 2 -6 19 17 59 38 109 47 109 15
0 57 53 68 88 7 17 15 32 20 32 5 0 11 14 15 30 4 17 11 30 16 30 5 0 6 -12 3
-27z m-2080 -68 c-20 -36 -34 -71 -31 -78 2 -6 12 5 22 26 11 20 22 37 27 37
4 0 -6 -25 -22 -55 -35 -65 -38 -80 -9 -45 l21 25 -18 -33 -18 -32 -18 32
c-19 36 -24 73 -8 63 6 -3 10 -1 10 5 0 12 67 120 74 120 3 0 -11 -29 -30 -65z
m1323 19 c-7 -7 -57 18 -57 28 0 5 14 1 31 -7 17 -9 29 -19 26 -21z m-1347 6
c-6 -11 -13 -20 -16 -20 -2 0 0 9 6 20 6 11 13 20 16 20 2 0 0 -9 -6 -20z
m645 10 c-3 -5 -12 -10 -18 -10 -7 0 -6 4 3 10 19 12 23 12 15 0z m1695 -10
c-6 -11 -13 -20 -16 -20 -2 0 0 9 6 20 6 11 13 20 16 20 2 0 0 -9 -6 -20z
m-4100 -20 c-14 -11 -30 -24 -37 -30 -20 -16 -40 -12 -46 10 -4 16 0 20 21 21
15 0 36 4 47 9 34 15 41 10 15 -10z m4125 -37 c-16 -26 -34 -57 -42 -68 -12
-19 -13 -18 -13 7 0 24 68 121 79 112 2 -2 -9 -25 -24 -51z m335 38 c0 -38
-124 -68 -150 -36 -11 13 -6 15 36 15 32 0 59 7 79 20 37 24 35 24 35 1z
m-4830 -37 c0 -6 11 -21 25 -34 17 -16 21 -26 14 -31 -8 -5 -8 -20 -1 -53 9
-45 4 -99 -14 -127 -4 -8 -9 -63 -10 -124 -2 -60 -6 -179 -9 -263 -6 -121 -4
-156 6 -169 13 -15 11 -16 -11 -10 -14 4 -27 7 -30 7 -5 0 -6 704 -2 809 2 42
3 43 17 25 8 -10 15 -24 15 -30z m2670 36 c0 -5 8 -10 18 -10 9 0 25 -16 35
-36 20 -41 15 -55 -11 -31 -9 9 -32 29 -49 43 -38 30 -42 44 -13 44 11 0 20
-4 20 -10z m1724 -12 c-3 -13 -18 -41 -31 -63 -26 -41 -25 -30 5 42 18 44 39
60 26 21z m-160 -47 c-10 -28 -20 -49 -22 -47 -2 2 5 27 14 55 10 27 20 48 22
46 3 -2 -4 -27 -14 -54z m376 19 c0 -13 -1 -13 -10 0 -5 8 -10 22 -10 30 0 13
1 13 10 0 5 -8 10 -22 10 -30z m-1740 15 c0 -2 -10 -9 -22 -15 -22 -11 -22
-10 -4 4 21 17 26 19 26 11z m990 1 c0 -2 -8 -10 -17 -17 -16 -13 -17 -12 -4
4 13 16 21 21 21 13z m-700 -60 c49 -26 68 -53 29 -41 -39 11 -99 54 -99 71 0
11 3 12 13 4 6 -6 32 -21 57 -34z m1670 -26 c0 -33 0 -63 1 -67 0 -3 -16 -12
-35 -18 -44 -15 -47 -6 -6 18 17 10 30 22 30 28 0 13 -27 11 -50 -3 -17 -11
-22 -10 -30 2 -15 24 -6 34 39 44 38 8 42 12 37 33 -4 13 -2 23 4 23 6 0 10
-26 10 -60z m-4540 40 c13 -8 13 -10 -2 -10 -9 0 -20 5 -23 10 -8 13 5 13 25
0z m4276 -15 c-9 -14 -23 -36 -32 -50 -9 -14 -19 -24 -21 -22 -5 5 56 97 64
97 3 0 -2 -11 -11 -25z m-4053 -22 c-38 -63 -74 -94 -140 -124 -85 -38 -184
-61 -242 -57 -43 3 -46 2 -48 -24 -1 -16 0 -28 2 -28 10 0 183 42 205 50 14 4
44 11 67 13 l43 5 -38 -32 c-44 -36 -100 -62 -155 -71 -23 -4 -37 -11 -34 -18
6 -18 65 -9 124 19 55 26 165 130 169 159 3 18 72 95 86 95 14 0 -12 -48 -84
-153 -14 -21 -123 -100 -150 -110 -17 -6 -26 -27 -12 -27 36 0 234 162 234
191 0 5 5 9 10 9 6 0 10 -6 9 -12 -1 -7 1 -29 5 -49 5 -23 4 -45 -4 -59 -23
-43 -82 -99 -111 -105 -16 -4 -29 -11 -29 -16 0 -23 65 3 106 42 l32 31 11
-33 c6 -17 11 -35 11 -39 0 -16 -38 -23 -145 -31 -141 -9 -231 -24 -258 -42
-34 -22 -101 -31 -115 -15 -17 22 -19 225 -2 271 12 31 17 36 35 30 11 -5 63
-8 115 -7 80 0 104 5 144 24 26 14 50 28 53 33 11 18 -7 17 -47 -3 -23 -12
-44 -19 -47 -17 -2 3 5 8 16 12 12 3 21 10 21 15 0 4 18 11 40 15 27 5 55 21
88 50 26 24 48 42 50 40 2 -1 -5 -16 -15 -32z m1697 17 c0 -6 -12 -33 -26 -61
-14 -28 -23 -54 -20 -57 9 -8 45 28 68 70 12 21 25 38 30 38 4 0 -8 -25 -28
-55 -37 -59 -51 -114 -31 -127 9 -5 9 -10 -1 -20 -16 -16 -15 -28 1 -28 6 0
30 27 52 59 22 33 41 58 43 56 2 -1 -15 -31 -37 -66 -39 -61 -50 -89 -33 -89
4 0 27 34 52 76 25 41 54 83 64 92 11 9 5 -4 -12 -30 -18 -26 -32 -50 -32 -53
0 -4 -18 -32 -40 -64 -22 -31 -40 -60 -40 -64 0 -19 20 -2 49 43 18 27 37 52
42 56 11 6 -43 -86 -73 -125 -20 -26 -23 -41 -8 -41 5 0 22 19 37 43 37 58 44
25 8 -40 -16 -28 -23 -49 -16 -51 7 -2 5 -12 -5 -28 -9 -13 -13 -24 -8 -24 5
0 -2 -7 -14 -16 -12 -8 -22 -21 -21 -27 0 -9 2 -9 6 1 2 6 11 12 19 12 8 0 14
3 14 8 0 4 8 17 18 29 l17 23 0 -24 c0 -13 -3 -22 -6 -20 -9 5 -20 -26 -13
-37 10 -16 23 -10 60 29 40 41 26 17 -20 -35 -26 -30 -99 -63 -111 -52 -2 3
-9 54 -14 115 -6 60 -15 131 -21 159 -5 27 -12 72 -14 100 -3 27 -8 66 -11 85
-5 26 -2 45 12 70 11 19 25 45 32 58 12 23 31 30 31 12z m1740 -10 c-6 -11
-13 -20 -16 -20 -2 0 0 9 6 20 6 11 13 20 16 20 2 0 0 -9 -6 -20z m677 -22
c-3 -7 -5 -2 -5 12 0 14 2 19 5 13 2 -7 2 -19 0 -25z m-4273 1 c-7 -11 -44
-12 -44 -1 0 15 11 20 30 15 11 -3 17 -9 14 -14z m1423 -1 c-3 -8 -6 -5 -6 6
-1 11 2 17 5 13 3 -3 4 -12 1 -19z m547 -3 c-9 -14 -18 -25 -21 -25 -5 0 5 18
20 38 17 22 18 13 1 -13z m1572 -7 c-18 -26 -22 -17 -5 14 6 11 13 17 16 15 3
-3 -2 -16 -11 -29z m-1275 -1 c-10 -9 -11 -8 -5 6 3 10 9 15 12 12 3 -3 0 -11
-7 -18z m-2513 1 c16 -16 88 -27 190 -30 48 -1 30 -18 -20 -18 -71 0 -198 30
-198 47 0 16 12 17 28 1z m1902 -9 c0 -6 -4 -7 -10 -4 -5 3 -10 11 -10 16 0 6
5 7 10 4 6 -3 10 -11 10 -16z m1905 -28 c-8 -17 -21 -33 -27 -37 -8 -5 -7 1 3
16 8 14 19 31 23 38 15 25 16 11 1 -17z m574 -128 c-70 -160 -81 -203 -54
-203 17 0 43 55 43 92 0 24 8 47 58 153 26 53 64 115 64 102 0 -4 -20 -67 -45
-140 -25 -74 -45 -140 -45 -149 0 -8 -18 -40 -40 -71 -22 -30 -40 -60 -40 -64
0 -17 -49 -56 -63 -50 -15 6 -80 -33 -94 -56 -11 -19 -203 -190 -203 -182 0
13 65 89 110 129 107 95 222 215 215 225 -24 39 -148 -29 -231 -126 -27 -31
-49 -60 -49 -63 0 -11 -67 -121 -72 -117 -12 13 107 227 127 227 3 0 45 38 94
84 74 70 93 83 108 75 21 -11 40 17 102 146 39 80 75 145 81 145 2 0 -28 -71
-66 -157z m-2199 117 c-6 -11 -13 -20 -16 -20 -2 0 0 9 6 20 6 11 13 20 16 20
2 0 0 -9 -6 -20z m370 16 c0 -2 -8 -10 -17 -17 -16 -13 -17 -12 -4 4 13 16 21
21 21 13z m71 -16 c13 -10 18 -19 12 -20 -7 0 -13 -5 -13 -11 0 -6 8 -8 19 -4
11 3 23 1 26 -6 9 -13 -13 -29 -30 -22 -7 2 -43 -10 -81 -27 -37 -17 -71 -29
-75 -28 -5 2 5 18 20 36 23 26 30 29 35 16 8 -20 26 -9 26 17 0 11 7 22 15 25
10 4 13 13 10 25 -8 24 7 24 36 -1z m1211 -15 c-6 -21 3 -288 11 -365 2 -14
-1 -33 -5 -42 -6 -12 -5 -18 3 -18 7 0 9 -3 6 -7 -4 -3 -2 -12 3 -18 14 -17
-7 -112 -26 -119 -8 -3 -14 -10 -14 -17 0 -6 7 -9 15 -5 11 4 15 -2 15 -23 0
-22 -6 -30 -23 -35 -12 -3 -36 -23 -52 -45 -35 -46 -67 -66 -35 -21 11 16 25
32 30 35 17 11 11 25 -7 18 -15 -6 -16 -4 -5 9 7 9 9 19 4 22 -5 3 -21 -11
-36 -32 -27 -40 -158 -172 -170 -172 -4 0 6 17 23 37 31 38 40 60 19 47 -7 -4
-8 -3 -4 5 4 6 11 9 16 6 13 -8 150 161 150 187 0 7 -11 0 -25 -16 -14 -16
-25 -25 -25 -20 1 14 33 51 50 57 12 4 12 6 -3 12 -12 5 -23 0 -36 -16 -37
-46 -101 -111 -101 -102 0 5 17 27 37 49 38 40 76 104 68 112 -3 3 -46 -36
-96 -87 -50 -51 -93 -91 -95 -88 -12 12 18 57 41 63 14 3 32 19 41 35 8 16 19
29 24 29 5 0 7 6 4 13 -2 7 9 33 25 57 16 24 27 48 24 53 -3 4 19 35 47 68 29
33 50 63 46 66 -3 3 -15 -5 -26 -18 l-20 -24 13 35 c27 66 35 100 26 100 -5 0
-9 -6 -9 -13 0 -17 -48 -106 -74 -138 -12 -14 -27 -24 -33 -22 -6 2 -14 -5
-18 -16 -3 -12 -10 -21 -15 -21 -15 0 11 59 32 74 11 8 17 19 13 26 -7 11 63
170 75 170 4 0 26 32 49 70 23 39 44 70 46 70 2 0 0 -11 -3 -25z m554 -7 c-9
-12 -16 -19 -16 -15 0 11 24 47 28 42 2 -2 -3 -14 -12 -27z m-4318 -3 c72 -12
74 -13 28 -14 -53 -1 -126 17 -126 31 0 5 5 6 11 3 6 -4 45 -13 87 -20z m2647
15 c3 -5 2 -10 -4 -10 -5 0 -13 5 -16 10 -3 6 -2 10 4 10 5 0 13 -4 16 -10z
m1805 -10 c0 -5 -2 -10 -4 -10 -3 0 -8 5 -11 10 -3 6 -1 10 4 10 6 0 11 -4 11
-10z m-2264 -38 c-17 -16 -18 -16 -5 5 7 12 15 20 18 17 3 -2 -3 -12 -13 -22z
m38 -7 c-9 -14 -19 -23 -22 -20 -5 4 26 45 35 45 2 0 -4 -11 -13 -25z m1086
21 c0 -6 -93 -37 -97 -32 -2 2 15 11 39 19 47 17 58 19 58 13z m260 0 c0 -3
-4 -8 -10 -11 -5 -3 -10 -1 -10 4 0 6 5 11 10 11 6 0 10 -2 10 -4z m367 -58
c-19 -35 -48 -103 -66 -153 -18 -49 -38 -103 -46 -120 l-14 -30 0 38 c-1 51
40 189 55 183 6 -2 26 23 44 57 18 34 37 68 43 75 22 27 16 9 -16 -50z m720
43 c1 -10 -6 -21 -15 -24 -9 -3 -25 -8 -34 -12 -14 -6 -18 -2 -18 18 0 24 8
29 55 36 6 0 11 -8 12 -18z m-197 -16 c0 -8 -4 -17 -10 -20 -6 -4 -10 5 -10
20 0 15 4 24 10 20 6 -3 10 -12 10 -20z m-2645 5 c3 -5 1 -10 -4 -10 -6 0 -11
5 -11 10 0 6 2 10 4 10 3 0 8 -4 11 -10z m804 -33 c-115 -52 -209 -101 -209
-109 0 -11 7 -10 32 3 14 8 18 8 14 0 -4 -6 -25 -16 -47 -22 -22 -7 -38 -17
-36 -23 2 -6 -9 -38 -26 -71 -16 -33 -38 -82 -48 -110 -38 -108 -11 17 40 183
18 59 53 120 66 115 7 -2 32 5 55 17 62 32 58 19 -6 -15 -30 -16 -54 -33 -54
-37 0 -16 30 -8 97 26 37 18 78 37 89 40 12 4 24 16 27 27 5 18 8 19 28 8 22
-11 22 -12 -22 -32z m1299 23 c-7 -10 -14 -18 -15 -16 -6 6 9 36 18 36 5 0 4
-9 -3 -20z m-1760 -20 c-7 -10 -14 -17 -17 -15 -4 4 18 35 25 35 2 0 -1 -9 -8
-20z m1179 14 c-18 -18 -138 -82 -135 -71 3 6 33 27 69 44 64 33 78 38 66 27z
m-562 -14 c3 -5 2 -10 -4 -10 -5 0 -13 5 -16 10 -3 6 -2 10 4 10 5 0 13 -4 16
-10z m-95 -10 c0 -5 -7 -10 -15 -10 -8 0 -15 5 -15 10 0 6 7 10 15 10 8 0 15
-4 15 -10z m1725 -22 c-4 -18 -14 -44 -22 -58 -8 -14 -12 -18 -9 -9 2 10 10
35 17 58 15 49 23 54 14 9z m253 -160 l-1 -193 -14 85 c-7 47 -18 112 -22 145
-5 33 -13 75 -17 94 -5 22 -4 32 3 28 6 -4 18 2 28 13 10 11 20 20 21 20 2 0
3 -87 2 -192z m-2428 174 c0 -5 -7 -17 -15 -28 -14 -18 -14 -17 -4 9 12 27 19
34 19 19z m381 -26 c-12 -15 -130 -60 -137 -53 -3 2 19 14 48 26 29 12 60 26
68 31 23 14 34 12 21 -4z m964 -15 c-16 -31 -35 -49 -35 -33 0 5 7 15 15 22 8
7 15 19 15 26 0 8 5 14 10 14 6 0 4 -13 -5 -29z m-827 -2 c-7 -5 -19 -9 -27
-9 -11 0 -11 3 -1 14 6 8 18 12 27 9 12 -5 12 -7 1 -14z m-865 -9 c3 -11 1
-18 -4 -14 -5 3 -9 12 -9 20 0 20 7 17 13 -6z m1441 6 c-21 -15 -30 -14 -19 3
3 6 14 11 23 11 13 0 13 -2 -4 -14z m284 -24 c-11 -28 -38 -53 -38 -34 0 12
41 75 45 70 3 -2 -1 -19 -7 -36z m407 -47 c-19 -43 -38 -75 -42 -72 -3 4 11
40 33 81 21 42 40 74 41 72 2 -2 -12 -38 -32 -81z m-2955 65 c0 -5 -9 -10 -20
-10 -11 0 -20 5 -20 10 0 6 9 10 20 10 11 0 20 -4 20 -10z m1585 -20 c-10 -11
-25 -20 -34 -20 -11 1 -8 8 13 26 32 29 48 24 21 -6z m715 15 c-7 -9 -15 -13
-19 -10 -3 3 1 10 9 15 21 14 24 12 10 -5z m-1547 -37 c-7 -54 -20 -71 -15
-20 4 41 9 62 16 62 2 0 2 -19 -1 -42z m330 24 c-10 -10 -20 -17 -22 -16 -6 5
20 34 30 34 5 0 1 -8 -8 -18z m1956 -49 c-20 -21 -53 -56 -73 -78 l-38 -40 33
50 c18 28 37 52 42 54 4 2 20 14 35 27 40 35 41 29 1 -13z m-2199 12 c0 -8 -2
-15 -4 -15 -2 0 -6 7 -10 15 -3 8 -1 15 4 15 6 0 10 -7 10 -15z m640 0 c-7 -8
-20 -15 -29 -15 -29 0 -111 -31 -111 -42 0 -11 60 -6 93 7 13 5 16 3 11 -8 -3
-9 -22 -22 -42 -30 -54 -22 -95 -66 -121 -130 -34 -84 -44 -80 -15 5 14 40 27
82 29 92 3 11 9 24 15 30 5 5 10 18 10 27 0 12 23 26 78 48 89 34 99 36 82 16z
m320 2 c-14 -6 -52 -24 -85 -39 -53 -25 -57 -26 -32 -6 31 25 103 57 127 57 8
0 4 -5 -10 -12z m-160 -2 c0 -8 -52 -26 -58 -20 -3 2 6 9 19 14 28 11 39 13
39 6z m840 -5 c0 -13 -59 -75 -65 -69 -4 5 53 79 61 79 2 0 4 -5 4 -10z m620
6 c0 -2 -12 -12 -27 -21 l-28 -18 19 21 c17 20 36 29 36 18z m-2019 -47 c-12
-19 -21 -30 -21 -26 0 12 33 67 38 63 1 -2 -6 -19 -17 -37z m449 15 c-8 -8
-23 -20 -34 -25 -15 -7 -13 -3 7 15 31 29 47 35 27 10z m826 4 c4 -7 3 -8 -4
-4 -7 4 -12 1 -12 -9 0 -9 -5 -13 -11 -10 -5 4 -19 -1 -30 -11 -10 -9 -22 -14
-26 -11 -7 8 -9 7 37 35 42 26 37 25 46 10z m158 -2 c-21 -15 -30 -14 -19 3 3
6 14 11 23 11 13 0 13 -2 -4 -14z m885 -50 c-9 -8 -10 -7 -5 7 3 10 7 24 7 30
1 7 3 4 6 -7 3 -10 -1 -23 -8 -30z m-1759 31 c0 -2 -12 -14 -27 -28 l-28 -24
24 28 c23 25 31 32 31 24z m535 -16 c-16 -10 -41 -22 -55 -25 -14 -4 -5 4 20
18 53 29 79 34 35 7z m-1438 -68 c-2 -16 -4 -3 -4 27 0 30 2 43 4 28 2 -16 2
-40 0 -55z m1649 42 c-9 -14 -21 -25 -27 -25 -11 0 -4 15 19 43 22 25 28 12 8
-18z m-842 -6 c-27 -28 -73 -59 -90 -59 -4 0 4 10 18 23 74 67 126 93 72 36z
m125 -6 c-7 -10 -39 -45 -71 -79 -33 -33 -58 -65 -56 -70 3 -12 -24 -54 -36
-54 -5 0 -2 8 7 18 10 10 14 22 10 25 -3 4 2 16 12 27 10 11 15 23 12 27 -6 6
-29 -18 -99 -101 -10 -12 -17 -16 -18 -11 0 11 157 195 166 195 7 0 -6 -22
-29 -47 -11 -13 -17 -26 -12 -30 4 -5 10 -2 13 6 3 8 19 27 35 43 17 15 28 31
24 34 -4 4 3 13 16 20 32 18 41 16 26 -3z m806 -13 c-10 -11 -20 -18 -23 -15
-7 6 18 35 31 35 5 0 2 -9 -8 -20z m-3210 -160 c-2 -91 -8 -187 -14 -215 -11
-58 -5 -65 52 -65 35 0 36 -1 25 -20 -11 -17 -11 -22 0 -29 18 -11 -14 -37
-58 -45 -19 -3 -47 -9 -62 -12 -24 -5 -29 -2 -39 22 -6 16 -12 63 -14 104 -2
41 -9 113 -15 160 -11 85 -21 250 -15 260 2 3 35 5 73 5 l70 0 -3 -165z m2159
128 c-21 -24 -58 -56 -81 -71 -28 -19 -46 -40 -52 -60 -5 -18 -10 -24 -10 -14
-2 46 78 172 97 153 4 -4 -2 -14 -12 -22 -13 -9 -16 -18 -10 -24 6 -6 25 7 53
35 56 57 65 58 15 3z m1486 38 c0 -3 -4 -8 -10 -11 -5 -3 -10 -1 -10 4 0 6 5
11 10 11 6 0 10 -2 10 -4z m-583 -22 c0 -8 -13 -24 -28 -35 -27 -19 -27 -19
-22 1 3 11 12 20 19 20 8 0 14 7 14 15 0 8 4 15 8 15 5 0 9 -7 9 -16z m-1968
-8 c15 -8 39 -30 52 -48 32 -43 80 -140 81 -164 2 -30 -23 -138 -35 -152 -21
-26 -88 -54 -101 -42 -8 6 -20 8 -28 5 -31 -12 -83 64 -126 186 -25 73 -19
119 24 164 38 41 41 52 17 58 -10 3 6 5 35 6 29 0 66 -5 81 -13z m721 -7 c0
-14 -17 -10 -23 5 -4 10 -1 13 9 9 7 -3 14 -9 14 -14z m464 -1 c-4 -7 -23 -29
-41 -48 -49 -52 -110 -132 -147 -195 -19 -31 -37 -52 -39 -48 -11 17 64 128
143 214 77 84 101 106 84 77z m169 -5 c-13 -10 -18 -10 -25 0 -7 9 -11 9 -21
-3 -7 -8 -26 -26 -42 -40 -22 -18 -20 -14 8 16 29 31 45 41 68 40 26 -1 27 -2
12 -13z m-2771 -60 c-2 -38 -9 -88 -17 -113 -7 -25 -16 -79 -19 -120 -3 -41
-9 -86 -13 -99 -6 -23 -5 -24 38 -17 28 4 39 3 30 -3 -8 -5 -11 -16 -8 -25 5
-11 -6 -24 -33 -43 -22 -14 -42 -24 -45 -22 -2 3 -9 47 -16 98 -11 89 -13 94
-40 105 -33 12 -33 15 -22 179 l6 97 36 1 c28 0 104 20 106 28 1 0 -1 -29 -3
-66z m3450 35 c-22 -40 -47 -51 -37 -17 7 24 31 49 47 49 4 0 0 -14 -10 -32z
m1042 17 c3 -8 1 -15 -3 -15 -5 0 -11 7 -15 15 -3 8 -1 15 3 15 5 0 11 -7 15
-15z m-985 -33 c-6 -17 -22 -39 -37 -48 l-27 -17 18 26 c10 15 14 27 10 27 -3
0 4 11 17 25 29 31 33 28 19 -13z m-1359 24 c0 -2 -7 -7 -16 -10 -8 -3 -12 -2
-9 4 6 10 25 14 25 6z m1260 -15 c0 -5 -12 -16 -27 -23 -16 -8 -40 -22 -55
-32 -16 -10 -28 -14 -28 -8 0 5 24 24 53 40 61 36 57 35 57 23z m-900 -8 c-1
-10 -130 -141 -130 -132 0 6 5 12 78 97 35 40 52 52 52 35z m476 -10 c-43 -23
-96 -44 -96 -38 0 6 100 53 115 54 6 0 -3 -7 -19 -16z m-756 0 c-1 -25 -31
-252 -36 -269 -8 -30 13 -275 26 -288 19 -19 10 -26 -39 -26 l-48 0 -7 46 c-3
26 -6 86 -6 133 0 47 -4 91 -8 96 -4 6 -23 19 -43 29 -35 18 -36 20 -26 52 8
26 7 38 -6 58 -23 34 -21 43 6 50 32 8 146 86 158 108 10 18 29 25 29 11z
m444 -57 c-27 -25 -53 -45 -59 -45 -5 0 14 22 44 49 30 28 56 48 59 45 2 -2
-17 -25 -44 -49z m451 24 c-12 -19 -301 -128 -311 -117 -5 4 93 47 106 47 5 0
39 14 77 32 37 18 82 35 98 39 17 3 31 7 33 8 2 0 0 -3 -3 -9z m255 -52 c-31
-46 -114 -120 -104 -93 5 11 2 14 -12 8 -12 -4 -15 -3 -10 6 4 6 15 10 24 9
11 -2 18 5 20 17 2 15 90 91 109 95 1 0 -11 -19 -27 -42z m89 5 c-13 -16 -25
-30 -26 -32 -2 -2 -6 -2 -9 2 -6 6 43 57 54 57 3 0 -5 -12 -19 -27z m-722 5
c-2 -7 -11 -13 -19 -13 -9 0 -26 -9 -37 -19 -12 -11 -21 -15 -21 -9 0 18 45
49 73 52 5 1 7 -5 4 -11z m779 -44 c-10 -14 -20 -23 -23 -21 -2 3 3 17 13 31
9 15 19 24 22 22 2 -3 -3 -17 -12 -32z m881 28 c58 -4 193 -136 193 -190 0 -9
7 -29 14 -44 8 -16 11 -28 6 -28 -5 0 -14 16 -20 35 -15 45 -80 128 -129 163
-34 25 -44 27 -112 25 -128 -5 -173 -10 -222 -26 -30 -10 -47 -11 -45 -5 2 6
22 17 44 23 21 7 59 21 83 32 40 17 87 21 188 15z m-1008 -53 c-19 -12 -24 -2
-8 17 9 11 14 13 17 4 3 -7 -2 -16 -9 -21z m-1034 -16 c-1 -10 -11 -38 -23
-63 -16 -35 -20 -38 -15 -15 7 31 31 95 36 95 2 0 3 -8 2 -17z m1002 -11 c9
-6 0 -18 -29 -40 -64 -49 -76 -44 -27 13 33 37 37 39 56 27z m-417 -12 c-8 -5
-19 -10 -25 -10 -5 0 -3 5 5 10 8 5 20 10 25 10 6 0 3 -5 -5 -10z m490 6 c0
-3 -15 -15 -32 -27 l-33 -23 24 27 c22 24 41 35 41 23z m966 -45 c56 -25 66
-36 92 -93 11 -25 38 -69 61 -98 23 -28 41 -61 41 -71 0 -18 -6 -20 -51 -17
l-51 3 -19 54 c-23 67 -40 86 -98 112 -77 34 -131 41 -222 30 -46 -5 -95 -13
-109 -17 -24 -6 -23 -5 9 29 20 21 64 49 105 67 62 27 79 30 134 26 34 -3 83
-14 108 -25z m-1436 -16 c-14 -8 -29 -14 -35 -14 -5 0 1 6 15 14 14 8 30 14
35 14 6 0 -1 -6 -15 -14z m-999 -5 c11 0 17 -4 14 -10 -3 -5 -24 -10 -47 -10
-35 0 -39 2 -28 15 7 9 20 13 27 10 8 -3 24 -5 34 -5z m804 0 c-3 -5 -16 -15
-28 -21 -21 -10 -21 -9 2 10 25 23 36 27 26 11z m-1970 -44 c-37 -49 -43 -46
-8 3 15 22 30 38 32 36 1 -2 -9 -20 -24 -39z m2585 18 c-10 -26 -33 -54 -45
-54 -8 0 13 40 33 63 21 23 23 22 12 -9z m120 23 c0 -2 -10 -12 -22 -23 l-23
-19 19 23 c18 21 26 27 26 19z m-1649 -63 c-12 -26 -24 -45 -27 -42 -3 3 5 26
17 52 29 59 37 52 10 -10z m479 -27 c-17 -37 -32 -67 -34 -67 -3 0 9 35 27 77
17 42 32 72 34 67 2 -6 -10 -40 -27 -77z m1406 56 c-4 -10 -18 -27 -33 -37
-27 -20 -26 -14 10 37 21 30 33 30 23 0z m-1292 -8 c-9 -14 -18 -25 -20 -25
-2 0 2 11 8 25 6 14 15 25 20 25 5 0 1 -11 -8 -25z m-2609 6 c-6 -4 -22 -11
-37 -15 -21 -5 -28 -3 -28 9 0 11 11 15 37 15 22 0 33 -4 28 -9z m4150 -11
c-3 -5 -11 -10 -16 -10 -6 0 -7 5 -4 10 3 6 11 10 16 10 6 0 7 -4 4 -10z
m-3020 -60 c-9 -16 -20 -30 -26 -30 -5 0 0 14 13 30 12 17 23 30 25 30 2 0 -3
-13 -12 -30z m1499 5 c-9 -14 -18 -25 -21 -25 -5 0 5 18 20 38 17 22 18 13 1
-13z m916 21 c0 -2 -8 -10 -17 -17 -16 -13 -17 -12 -4 4 13 16 21 21 21 13z
m1150 -16 c6 -11 8 -20 6 -20 -3 0 -10 9 -16 20 -6 11 -8 20 -6 20 3 0 10 -9
16 -20z m-4657 -70 c-2 -19 -5 -55 -6 -79 -1 -25 -7 -46 -14 -49 -10 -3 -13
18 -13 82 0 52 5 94 13 106 12 20 12 20 18 -2 4 -13 5 -39 2 -58z m2827 76 c0
-3 -4 -8 -10 -11 -5 -3 -10 -1 -10 4 0 6 5 11 10 11 6 0 10 -2 10 -4z m1561
-15 c16 -22 55 -33 52 -14 -2 8 6 9 25 3 77 -22 107 -75 103 -183 -1 -39 -6
-76 -11 -82 -6 -7 -6 -16 -2 -20 4 -5 3 -6 -3 -3 -5 3 -19 2 -30 -2 -18 -6
-21 -1 -30 44 -8 42 -14 52 -32 54 -15 2 -23 -2 -23 -12 0 -8 -12 -42 -26 -75
-25 -57 -27 -59 -51 -48 -18 8 -23 16 -18 31 37 121 41 146 21 146 -9 0 -23
-15 -31 -32 -27 -63 -65 -167 -65 -179 0 -8 -6 -5 -13 6 -10 12 -22 16 -40 13
-15 -3 -27 -4 -27 -3 0 1 7 42 15 90 15 86 13 125 -6 125 -12 0 -24 -30 -37
-95 -6 -27 -13 -62 -16 -77 -6 -28 -20 -36 -31 -18 -3 6 -17 10 -31 10 -29 0
-34 35 -6 57 13 10 13 13 2 11 -17 -3 -17 -2 0 75 7 31 10 60 7 63 -12 12 -37
-6 -37 -26 0 -11 -4 -20 -10 -20 -5 0 -10 5 -10 11 0 8 -18 10 -54 7 l-55 -5
20 28 c10 15 19 34 19 42 0 16 41 27 103 27 22 0 48 6 56 14 33 28 140 51 113
24 -25 -25 -13 -38 18 -20 16 9 30 22 30 29 0 10 19 15 81 21 9 1 23 -7 30
-17z m-1721 -21 c-12 -16 -24 -30 -26 -30 -7 0 5 20 24 43 24 27 25 20 2 -13z
m-1509 -58 c9 -42 20 -87 24 -99 7 -21 4 -23 -32 -23 -22 0 -61 3 -86 6 l-45
6 18 41 c19 41 90 147 100 147 3 0 12 -35 21 -78z m609 63 c-7 -9 -15 -13 -17
-11 -7 7 7 26 19 26 6 0 6 -6 -2 -15z m120 7 c0 -4 -10 -13 -22 -21 -23 -14
-23 -14 -4 8 20 22 26 25 26 13z m267 -42 c-23 -27 -24 -35 -20 -103 3 -43 1
-77 -4 -80 -6 -4 -11 21 -12 60 -1 43 -7 73 -16 83 -8 9 -15 22 -15 29 0 9 -8
11 -24 7 -14 -3 -27 -2 -30 3 -9 13 44 31 88 29 27 -1 41 3 45 13 3 10 5 11 9
1 2 -6 -7 -25 -21 -42z m-233 -19 l-28 -26 22 26 c12 14 22 32 23 40 0 11 2
11 6 0 3 -7 -7 -25 -23 -40z m1633 3 c-20 -20 -37 -40 -37 -45 0 -5 -7 -9 -16
-9 -23 0 -14 13 34 54 56 46 67 46 19 0z m-1927 22 c0 -2 -8 -10 -17 -17 -16
-13 -17 -12 -4 4 13 16 21 21 21 13z m52 -98 c-27 -35 -37 -55 -29 -60 6 -4
16 -4 22 -1 5 4 3 -2 -7 -13 -9 -10 -21 -39 -28 -64 -6 -25 -17 -54 -24 -65
-7 -11 -16 -32 -19 -46 -9 -36 -45 -79 -66 -79 -28 0 -44 41 -36 90 6 33 4 41
-6 38 -23 -7 -40 -51 -35 -85 6 -40 -11 -43 -25 -6 -10 26 -8 41 16 121 13 42
-24 25 -46 -20 l-19 -43 5 35 c3 18 9 36 14 40 8 5 21 25 80 132 11 20 26 40
33 44 6 4 -3 -18 -20 -48 -32 -55 -41 -98 -22 -98 6 0 10 -8 10 -17 1 -13 11
-7 36 22 25 28 32 32 24 15 -7 -14 -19 -33 -28 -43 -19 -22 -7 -35 18 -19 29
18 32 15 15 -18 -16 -32 -19 -50 -7 -50 10 0 102 145 102 161 0 8 -8 5 -22 -7
-27 -24 -17 -6 36 65 23 29 45 60 51 67 5 7 11 11 13 9 2 -2 -14 -27 -36 -57z
m2231 36 c-9 -15 -19 -21 -21 -15 -4 13 16 41 29 41 5 0 2 -12 -8 -26z m-1974
-59 l-2 -65 -66 -2 c-36 -1 -81 -2 -98 -3 -38 -1 -42 9 -10 26 12 7 37 25 54
40 18 15 51 34 73 40 22 7 40 16 40 21 0 4 2 8 6 8 3 0 4 -29 3 -65z m1676 5
c3 -5 -1 -10 -9 -10 -9 0 -16 5 -16 10 0 6 4 10 9 10 6 0 13 -4 16 -10z
m-2665 -26 c0 -8 -5 -12 -10 -9 -6 4 -8 11 -5 16 9 14 15 11 15 -7z m3080 -35
l-10 -35 -157 -2 c-90 -1 -161 -6 -167 -12 -7 -7 2 -10 26 -10 20 0 38 -5 40
-11 2 -7 12 -7 31 0 23 9 176 17 222 12 19 -2 -47 -31 -84 -37 -20 -3 -97 -7
-171 -9 -265 -5 -615 -17 -621 -21 -12 -7 -874 -15 -892 -9 -12 5 -16 15 -12
33 10 55 11 56 312 57 153 1 298 6 323 10 25 4 56 9 70 11 141 24 365 31 403
12 12 -6 19 -5 23 5 4 12 40 15 185 16 99 1 185 4 192 6 7 2 72 7 146 9 73 3
136 7 139 11 11 10 11 -2 2 -36z m756 -19 c0 -44 -2 -49 -20 -45 -12 2 -33 4
-48 4 -32 1 -39 21 -7 21 11 0 18 4 14 9 -3 5 -30 7 -61 4 l-56 -6 4 28 c3 26
7 29 53 33 28 2 51 5 52 6 1 1 17 0 36 -2 32 -4 33 -5 33 -52z m-4144 -41 c-3
-56 0 -76 17 -109 l21 -41 -57 3 c-65 3 -77 18 -31 39 79 34 23 47 -222 49
-96 1 -184 1 -195 0 -11 0 -69 -3 -130 -5 -60 -3 -120 -6 -133 -8 -18 -4 -22
0 -22 24 0 33 7 36 26 12 12 -17 14 -17 36 4 27 25 58 30 316 55 72 7 132 16
132 21 0 5 -18 7 -40 5 -22 -2 -40 0 -40 4 0 13 88 9 94 -4 5 -10 7 -10 12 0
3 6 20 12 37 13 18 1 42 4 55 7 12 4 46 6 75 4 l53 -4 -4 -69z m233 49 c-6
-27 -3 -35 20 -54 23 -18 26 -26 20 -52 -9 -41 -28 -56 -53 -43 -24 13 -35 60
-16 68 10 3 14 23 14 59 0 32 4 54 11 54 7 0 8 -11 4 -32z m-620 2 l50 -7 -45
-2 c-25 -2 -91 -8 -147 -14 -83 -10 -103 -10 -103 0 0 7 9 13 19 13 11 0 23 5
26 10 7 12 127 12 200 0z m1107 -48 c-8 -26 -17 -53 -18 -59 -4 -15 -61 -18
-66 -4 -1 5 -74 11 -160 12 -144 4 -158 6 -158 22 0 10 3 16 8 14 4 -2 72 2
152 9 80 7 156 13 170 14 17 0 21 3 12 8 -19 13 -172 6 -312 -14 -29 -4 -31
-3 -12 5 12 6 22 17 22 25 0 12 31 14 189 15 l188 1 -15 -48z m-655 0 c-16
-18 -13 -77 6 -100 5 -7 7 -15 4 -18 -3 -3 -13 8 -21 25 -17 33 -22 91 -7 91
5 0 13 10 17 23 4 13 9 17 12 9 2 -7 -3 -21 -11 -30z m87 -9 c-3 -16 1 -49 9
-75 14 -44 14 -47 -5 -45 -21 1 -59 37 -40 37 8 0 12 18 12 48 0 27 3 52 7 55
14 15 22 6 17 -20z m1144 -19 l1 -34 -139 2 c-77 2 -140 5 -140 8 1 3 7 16 14
29 12 22 21 24 112 28 54 3 100 6 102 8 1 1 13 0 26 -2 18 -4 23 -12 24 -39z
m2740 30 c-12 -11 -70 -16 -63 -5 3 6 20 11 37 11 17 0 29 -3 26 -6z m-128
-63 c0 -5 -7 -11 -15 -15 -15 -5 -20 5 -8 17 9 10 23 9 23 -2z m-535 -11 c3
-5 1 -10 -4 -10 -6 0 -11 5 -11 10 0 6 2 10 4 10 3 0 8 -4 11 -10z m95 -32 c0
-14 -27 -9 -41 8 -10 13 -10 17 2 25 13 8 39 -13 39 -33z m-3051 23 c9 -6 -2
-11 -36 -16 -61 -8 -82 -20 -67 -35 9 -9 23 -8 55 3 63 21 117 29 123 19 3 -5
-26 -15 -65 -21 -51 -10 -69 -17 -65 -26 4 -10 -13 -14 -67 -17 -85 -4 -93 -2
-100 22 -5 19 -4 19 26 3 31 -16 31 -15 59 18 15 18 28 36 28 40 0 16 88 23
109 10z m2661 0 c0 -4 -11 -8 -25 -9 -14 -1 -25 2 -25 7 0 5 11 9 25 9 14 0
25 -3 25 -7z m634 -22 c-8 -14 -24 -10 -24 6 0 9 6 12 15 9 8 -4 12 -10 9 -15z
m-4144 -3 c0 -9 -40 -13 -46 -5 -3 5 6 9 20 9 14 0 26 -2 26 -4z m4030 0 c0
-16 -14 -36 -26 -36 -14 0 -19 22 -7 33 7 8 33 10 33 3z m-2010 -26 c0 -11 -4
-20 -9 -20 -6 0 -9 9 -8 20 1 11 5 20 9 20 4 0 8 -9 8 -20z m1930 10 c0 -5 -4
-10 -10 -10 -5 0 -10 5 -10 10 0 6 5 10 10 10 6 0 10 -4 10 -10z m-2767 -49
c8 -17 12 -32 9 -35 -8 -8 -135 -5 -207 4 l-60 8 65 0 c160 -1 185 1 171 15
-9 9 -58 12 -177 11 -90 0 -161 3 -156 8 4 4 65 9 135 10 70 2 127 7 127 12 0
4 7 6 15 3 8 -4 17 -2 20 3 10 16 42 -6 58 -39z m-888 29 c-28 -12 -37 -12
-30 0 3 6 16 10 28 9 21 0 21 -1 2 -9z m3235 6 c0 -11 -19 -15 -25 -6 -3 5 1
10 9 10 9 0 16 -2 16 -4z m-3307 -13 c-7 -2 -19 -2 -25 0 -7 3 -2 5 12 5 14 0
19 -2 13 -5z m4309 -8 c5 -7 14 -6 28 3 17 10 20 10 20 -3 0 -12 -16 -15 -82
-16 -46 0 -99 -1 -118 -1 -72 -2 -104 2 -94 11 18 18 234 23 246 6z m-4388 -6
c-3 -5 -20 -9 -37 -9 -18 0 -27 4 -20 8 16 10 64 11 57 1z m1580 2 c4 -5 -39
-10 -97 -10 -56 -1 -129 -6 -162 -10 -58 -8 -74 -7 -63 4 17 17 313 31 322 16z
m-1917 -17 c-3 -3 -12 -4 -19 -1 -8 3 -5 6 6 6 11 1 17 -2 13 -5z m-38 -8 c-2
-2 -20 -6 -39 -10 -25 -4 -31 -3 -20 4 14 9 69 15 59 6z m731 -5 c0 -24 -70
-29 -190 -14 l-55 7 45 6 c79 10 200 11 200 1z m380 -10 c0 -5 -9 -7 -20 -4
-11 3 -20 7 -20 9 0 2 9 4 20 4 11 0 20 -4 20 -9z m845 0 c10 -17 -34 -22
-170 -19 -130 3 -130 3 -65 14 89 14 227 17 235 5z m305 -1 c0 -5 -4 -10 -10
-10 -5 0 -10 5 -10 10 0 6 5 10 10 10 6 0 10 -4 10 -10z m-755 -10 c3 -5 1
-10 -4 -10 -6 0 -11 5 -11 10 0 6 2 10 4 10 3 0 8 -4 11 -10z m3195 -19 c0 -9
-5 -32 -10 -52 -5 -19 -17 -100 -25 -180 -23 -222 -41 -352 -53 -379 -6 -14
-21 -58 -32 -98 -12 -41 -23 -72 -26 -70 -6 6 24 286 35 328 17 64 22 110 12
110 -5 0 -13 -17 -19 -37 -7 -28 -8 -7 -5 82 2 66 5 163 6 215 l2 95 40 5 c52
7 75 1 75 -19z m-2053 13 c-3 -3 -12 -4 -19 -1 -8 3 -5 6 6 6 11 1 17 -2 13
-5z m1868 -16 c14 -56 23 -181 19 -273 -4 -117 -15 -228 -21 -221 -2 2 -18 78
-34 167 -16 90 -36 196 -44 234 -22 109 -22 111 47 114 21 1 29 -5 33 -21z
m-3507 5 c-10 -2 -28 -2 -40 0 -13 2 -5 4 17 4 22 1 32 -1 23 -4z m2065 0 c-7
-2 -21 -2 -30 0 -10 3 -4 5 12 5 17 0 24 -2 18 -5z m1173 -46 c0 -29 6 -133
13 -232 17 -250 25 -615 13 -615 -22 0 -89 240 -76 273 3 8 -2 43 -11 78 -27
104 -44 500 -23 535 4 5 24 10 45 11 l38 2 1 -52z m-3556 31 c0 -10 -69 -9
-135 2 -43 7 -36 8 43 7 50 -1 92 -5 92 -9z m163 5 c-24 -2 -62 -2 -85 0 -24
2 -5 4 42 4 47 0 66 -2 43 -4z m407 -3 c-8 -5 -19 -10 -25 -10 -5 0 -3 5 5 10
8 5 20 10 25 10 6 0 3 -5 -5 -10z m135 -1 c5 -7 -5 -8 -32 -3 -51 9 -54 14
-10 14 20 0 39 -5 42 -11z m926 -70 c-6 -24 -9 -101 -8 -171 1 -71 -2 -123 -7
-118 -4 4 -8 73 -8 152 1 171 3 201 17 210 15 11 17 -22 6 -73z m1639 77 c0
-4 -82 -47 -141 -74 -4 -2 -7 13 -7 32 l0 35 72 4 c39 1 72 4 74 5 1 1 2 0 2
-2z m-2757 -13 c-7 -2 -19 -2 -25 0 -7 3 -2 5 12 5 14 0 19 -2 13 -5z m544 -5
c-7 -3 -61 -7 -122 -8 -137 -3 -163 -2 -148 8 6 4 72 7 146 7 75 0 130 -3 124
-7z m96 5 c-13 -2 -35 -2 -50 0 -16 2 -5 4 22 4 28 0 40 -2 28 -4z m700 1 c36
-6 37 -8 37 -49 0 -40 -1 -42 -25 -37 -19 3 -23 8 -15 17 5 6 7 15 3 18 -11
12 -31 7 -35 -8 -2 -9 -14 -1 -36 25 l-33 40 33 0 c18 0 50 -3 71 -6z m796
-53 c1 -31 4 -70 7 -87 5 -29 4 -32 -28 -37 -18 -3 -94 -4 -168 -3 l-135 1 -3
56 c-4 72 10 109 40 108 13 0 66 4 118 9 52 5 111 9 131 9 l36 1 2 -57z m76
51 c6 -4 11 -35 12 -69 1 -34 7 -72 13 -83 10 -18 8 -20 -24 -20 -41 0 -45 8
-42 91 3 80 13 102 41 81z m260 -59 l0 -58 -80 -22 c-44 -12 -92 -22 -107 -22
-28 -1 -28 0 -28 62 0 113 -3 109 114 103 l101 -4 0 -59z m105 11 c0 -26 -5
-32 -35 -41 -33 -10 -35 -10 -35 12 0 12 3 36 6 53 6 28 8 29 35 19 23 -9 29
-17 29 -43z m569 5 c-26 -50 48 -529 82 -529 11 0 11 7 -1 50 -26 92 -68 493
-50 473 10 -10 57 -220 64 -286 3 -26 12 -93 21 -149 17 -117 19 -179 6 -222
-5 -17 -15 -50 -22 -73 -13 -46 -44 -86 -62 -80 -17 5 -46 98 -58 185 -12 83
-6 633 7 666 6 16 8 16 16 2 5 -10 4 -24 -3 -37z m-4314 21 c3 -5 -3 -10 -14
-10 -12 0 -21 5 -21 10 0 6 6 10 14 10 8 0 18 -4 21 -10z m749 -5 c241 -2 441
-6 444 -9 2 -3 6 -41 7 -85 2 -43 7 -85 11 -93 5 -7 7 -21 5 -31 -1 -10 4 -26
13 -36 12 -13 13 -28 6 -81 -16 -107 -25 -277 -18 -312 4 -18 8 -94 9 -168 1
-141 18 -237 44 -256 27 -20 -262 -27 -545 -13 -140 8 -337 14 -437 14 -171 0
-182 1 -187 19 -8 31 -1 33 70 24 37 -4 70 -6 73 -3 4 2 75 5 159 7 84 2 152
6 152 9 0 3 23 4 50 1 35 -3 50 -1 50 7 0 7 -4 10 -9 6 -5 -3 -12 -1 -15 4 -4
5 -54 7 -119 4 -61 -3 -177 -6 -257 -7 -129 -1 -145 1 -148 16 -3 15 6 17 85
14 48 -2 113 2 143 8 62 13 90 10 90 -8 0 -8 12 -11 35 -8 29 3 33 7 24 18 -9
12 -3 14 40 14 28 0 51 5 51 10 0 13 -182 16 -315 5 -33 -2 -53 -2 -45 1 8 3
22 8 30 11 8 3 33 8 55 9 22 2 52 9 67 15 14 6 75 12 135 14 59 3 128 6 153 9
25 2 67 5 93 5 33 1 47 5 45 13 -5 13 -35 14 -255 2 -119 -6 -133 -5 -133 10
0 15 -30 23 -43 10 -3 -4 -43 -7 -89 -9 -46 -1 -95 -7 -111 -14 -33 -13 -46
-39 -26 -53 11 -7 10 -8 -6 -6 -13 2 -22 15 -28 41 -5 21 -8 40 -6 41 3 3 58
8 178 16 3 0 0 5 -6 11 -6 6 -45 11 -90 11 l-79 -1 -17 182 c-10 100 -21 216
-26 257 -5 41 -12 116 -16 165 -3 50 -8 108 -10 130 -8 80 -10 79 144 70 75
-4 333 -9 575 -10z m1876 -35 c0 -54 -1 -55 -31 -40 -14 8 -19 21 -19 50 0 36
3 40 25 40 23 0 25 -3 25 -50z m229 17 c-8 -31 -7 -57 6 -97 5 -17 2 -17 -87
1 -129 27 -126 25 -121 57 12 78 3 72 112 72 l99 0 -9 -33z m89 -47 c2 -83 -2
-89 -39 -70 -36 20 -19 150 21 150 14 0 17 -13 18 -80z m-1438 46 c41 -1 153
3 248 8 l172 9 0 -107 0 -106 -27 -11 c-16 -6 -64 -13 -108 -15 -44 -2 -159
-9 -255 -14 -268 -15 -289 -5 -297 145 -3 47 -2 92 0 99 4 9 27 10 98 2 52 -5
128 -10 169 -10z m2448 4 c-15 -23 -38 -27 -38 -6 0 13 14 20 43 25 4 0 2 -8
-5 -19z m-3953 -12 c2 -7 6 -62 9 -123 3 -60 10 -146 15 -190 17 -143 20 -178
31 -310 22 -294 22 -285 0 -285 -11 0 -20 -4 -20 -10 0 -5 9 -10 20 -10 19 0
25 -11 21 -34 -1 -6 -3 -27 -3 -48 l0 -38 -49 0 -48 0 10 29 c12 35 6 356 -10
541 -20 233 -28 463 -17 477 14 16 36 16 41 1z m1972 -65 c-3 -10 -5 -4 -5 12
0 17 2 24 5 18 2 -7 2 -21 0 -30z m1848 27 c-3 -5 -14 -10 -23 -9 -14 0 -13 2
3 9 27 11 27 11 20 0z m45 -34 c0 -3 -4 -8 -10 -11 -5 -3 -10 -1 -10 4 0 6 5
11 10 11 6 0 10 -2 10 -4z m-1886 -31 c-4 -8 -8 -15 -10 -15 -2 0 -4 7 -4 15
0 8 4 15 10 15 5 0 7 -7 4 -15z m601 5 c3 -6 -4 -10 -17 -10 -18 0 -20 2 -8
10 19 12 18 12 25 0z m-407 -107 c5 -85 6 -83 -4 -165 -3 -32 -3 -88 1 -125 7
-59 9 -64 16 -39 5 16 6 56 3 88 -4 42 0 67 12 94 10 20 21 53 25 73 12 63 19
-427 8 -619 l-5 -105 -2 93 c-1 53 -6 92 -12 92 -14 0 -13 -187 1 -192 13 -4
30 -78 18 -78 -5 0 -9 6 -10 13 0 9 -2 9 -6 0 -2 -8 -22 -13 -44 -13 -32 0
-39 4 -39 19 0 10 7 22 16 25 13 5 14 16 8 63 -4 32 -7 68 -6 81 1 13 -3 44
-9 70 -15 66 -9 437 8 465 2 4 4 62 4 129 -1 135 8 152 17 31z m-191 55 c-3
-8 -6 -5 -6 6 -1 11 2 17 5 13 3 -3 4 -12 1 -19z m223 -48 c6 -11 8 -20 6 -20
-3 0 -10 9 -16 20 -6 11 -8 20 -6 20 3 0 10 -9 16 -20z m284 -165 c19 -66 46
-167 60 -225 15 -57 33 -111 40 -120 7 -8 21 -37 31 -65 10 -27 22 -54 26 -59
18 -21 16 2 -7 69 -13 39 -23 79 -23 90 0 20 21 -32 55 -138 15 -46 22 -57 36
-54 10 3 18 1 18 -4 0 -11 61 -81 67 -76 2 3 -10 28 -27 57 -17 29 -29 54 -26
57 2 3 16 -16 31 -41 15 -25 31 -44 35 -41 5 3 22 -8 39 -24 44 -43 101 -85
107 -78 3 3 -15 24 -40 48 -26 23 -44 44 -42 47 3 2 31 -10 62 -27 60 -32 84
-38 84 -21 0 6 -6 10 -12 10 -17 0 -135 106 -150 133 -6 12 16 -3 48 -34 56
-53 110 -89 134 -89 20 0 9 18 -18 29 -16 7 -51 35 -78 63 l-49 50 67 -45 c58
-38 75 -44 113 -43 54 3 68 13 29 21 -52 11 -127 49 -163 83 l-36 33 44 -22
c25 -12 74 -30 110 -41 111 -33 106 -32 106 -3 0 17 -5 25 -15 23 -13 -3 -50
24 -50 37 0 3 16 5 35 5 20 0 52 7 73 15 l37 15 -24 -20 c-13 -11 -29 -20 -37
-20 -19 0 -26 -17 -10 -23 7 -3 31 6 52 20 28 19 39 23 42 13 3 -8 17 1 39 26
l34 39 -35 -49 c-20 -27 -33 -52 -30 -57 3 -5 0 -18 -7 -30 -9 -17 -8 -23 2
-30 11 -7 4 -17 -28 -45 -41 -34 -53 -54 -35 -54 5 0 21 13 38 29 16 15 52 47
79 70 28 24 81 73 119 109 86 84 83 66 -5 -25 -83 -86 -220 -205 -298 -260 -3
-2 4 -10 15 -18 17 -14 -2 -15 -186 -14 -113 1 -217 -2 -232 -6 -25 -6 -29 -3
-55 44 -15 28 -35 51 -43 51 -9 0 -23 15 -32 32 -23 44 -98 245 -98 262 0 7
-7 27 -16 45 -9 18 -13 35 -10 38 3 3 10 -6 15 -21 6 -14 16 -26 22 -26 7 0 8
7 4 18 -39 97 -76 278 -74 362 1 54 0 56 43 -95z m239 98 c34 -20 70 -46 80
-57 36 -39 113 -60 227 -60 58 0 132 3 165 7 l60 6 -54 -24 c-29 -14 -61 -25
-70 -25 -9 0 -22 -9 -29 -20 -10 -17 -23 -20 -80 -20 -40 0 -79 6 -96 15 -58
31 -79 9 -23 -26 28 -18 44 -20 127 -16 56 3 110 11 133 21 20 9 37 14 37 11
0 -9 -65 -45 -82 -45 -14 0 -78 -54 -78 -66 0 -2 7 -4 15 -4 8 0 15 -7 15 -15
0 -50 207 34 270 110 7 9 23 21 34 26 20 10 -123 -132 -201 -199 -36 -31 -41
-32 -93 -27 -72 9 -138 33 -174 65 -47 41 -136 131 -136 136 0 7 52 -29 107
-73 41 -34 41 -34 48 -12 8 24 -8 40 -143 152 -69 56 -155 177 -126 177 3 0
34 -17 67 -37z m995 -38 c-12 -25 -25 -45 -30 -45 -9 0 34 89 44 90 4 0 -2
-20 -14 -45z m-298 10 c-13 -14 -28 -25 -34 -25 -6 0 2 11 18 25 37 32 46 32
16 0z m-76 -13 c-56 -40 -64 -44 -64 -33 0 9 76 58 94 60 5 1 -9 -12 -30 -27z
m-785 -31 c6 -19 9 -36 6 -39 -4 -5 -16 21 -30 68 -11 38 10 12 24 -29z m1281
40 c0 -11 -39 -59 -40 -49 0 14 23 58 32 58 4 0 8 -4 8 -9z m-2270 -5 c0 -3
-4 -8 -10 -11 -5 -3 -10 -1 -10 4 0 6 5 11 10 11 6 0 10 -2 10 -4z m1414 -12
c33 -12 65 -15 103 -11 39 4 53 3 45 -5 -16 -16 -121 -12 -180 7 -28 10 -52
19 -52 21 0 9 39 3 84 -12z m609 -58 c-10 -14 -22 -26 -26 -26 -4 0 2 13 14
30 13 16 24 28 27 26 2 -3 -4 -16 -15 -30z m-1526 2 c-3 -8 -6 -5 -6 6 -1 11
2 17 5 13 3 -3 4 -12 1 -19z m223 -108 c6 0 10 17 10 39 0 21 7 52 15 67 13
26 14 -6 11 -323 -2 -205 0 -355 5 -359 5 -3 9 -12 9 -20 0 -10 -12 -14 -41
-14 -30 0 -38 3 -32 13 10 15 14 165 4 171 -3 2 -2 58 4 123 6 65 10 132 8
148 -11 107 -18 249 -12 275 2 8 4 -15 6 -52 2 -38 8 -68 13 -68z m-333 68
c-3 -8 -6 -5 -6 6 -1 11 2 17 5 13 3 -3 4 -12 1 -19z m1706 -20 c-9 -24 -21
-47 -27 -53 -6 -5 -23 -28 -38 -50 -49 -71 -313 -333 -325 -321 -7 7 -4 10
147 176 63 69 146 163 184 208 38 45 71 82 72 82 2 0 -4 -19 -13 -42z m-64 4
c-34 -46 -115 -141 -122 -141 -4 -1 23 37 60 83 38 46 70 83 72 81 1 -2 -3
-12 -10 -23z m-2009 11 c0 -5 -14 -24 -31 -43 -16 -19 -37 -47 -47 -62 -9 -16
-20 -28 -25 -28 -9 0 -6 4 58 88 40 53 45 58 45 45z m1920 -7 c0 -7 -130 -168
-164 -204 -40 -42 -100 -88 -95 -73 3 9 249 278 257 280 1 1 2 -1 2 -3z m604
-89 c5 -31 4 -47 -3 -47 -6 0 -11 17 -11 39 0 21 -2 54 -5 72 -4 28 -4 30 4 9
4 -14 11 -47 15 -73z m-2459 -122 c-4 -49 -7 -127 -6 -171 2 -61 -1 -83 -12
-87 -7 -3 -22 -33 -32 -66 -10 -34 -22 -58 -26 -54 -4 4 4 78 17 163 26 173
27 180 17 180 -24 -1 -35 -27 -49 -115 -16 -100 -45 -185 -64 -185 -14 0 -13
12 10 74 12 30 23 63 25 73 14 63 59 222 74 261 10 26 22 65 26 87 l8 40 9
-55 c5 -30 6 -95 3 -145z m312 143 c-3 -8 -6 -5 -6 6 -1 11 2 17 5 13 3 -3 4
-12 1 -19z m2038 -119 c-8 -45 -17 -85 -20 -87 -7 -8 -6 11 5 86 5 37 12 81
14 97 7 49 9 52 13 18 2 -17 -3 -68 -12 -114z m-95 74 c-10 -16 -11 -15 -6 7
3 14 6 32 7 40 1 8 4 5 6 -7 2 -12 -1 -30 -7 -40z m-2461 -7 c-13 -19 -25 -33
-27 -31 -2 2 7 19 20 38 12 20 25 34 27 32 2 -3 -7 -20 -20 -39z m2319 1 c-6
-20 -15 -37 -20 -37 -11 0 -10 4 9 45 21 44 26 40 11 -8z m75 8 c-3 -9 -8 -14
-10 -11 -3 3 -2 9 2 15 9 16 15 13 8 -4z m-3946 -52 c-3 -10 -5 -4 -5 12 0 17
2 24 5 18 2 -7 2 -21 0 -30z m3228 27 c-3 -5 -14 -10 -23 -9 -14 0 -13 2 3 9
27 11 27 11 20 0z m-1601 -92 c-24 -51 -52 -97 -61 -102 -15 -8 -5 13 75 152
40 70 34 48 -14 -50z m453 50 c-3 -7 -5 -2 -5 12 0 14 2 19 5 13 2 -7 2 -19 0
-25z m1613 -22 c-12 -26 -26 -46 -31 -46 -5 0 2 23 17 51 31 63 45 58 14 -5z
m-120 40 c0 -2 -8 -10 -17 -17 -16 -13 -17 -12 -4 4 13 16 21 21 21 13z
m-1976 -53 c-37 -64 -86 -134 -91 -129 -3 2 0 14 7 25 16 31 101 151 106 151
3 0 -7 -21 -22 -47z m533 -5 c-3 -7 -5 -2 -5 12 0 14 2 19 5 13 2 -7 2 -19 0
-25z m1628 -17 c-17 -34 -28 -41 -19 -13 11 34 28 64 32 54 2 -6 -4 -24 -13
-41z m496 -15 c8 -24 7 -27 -6 -16 -8 7 -15 27 -14 44 0 17 3 24 6 16 2 -8 9
-28 14 -44z m-312 -25 c-7 -23 -14 -39 -16 -37 -3 2 1 23 8 45 7 23 14 39 16
37 3 -2 -1 -23 -8 -45z m-1872 2 c-3 -10 -5 -4 -5 12 0 17 2 24 5 18 2 -7 2
-21 0 -30z m73 -1 c0 -7 -4 -10 -10 -7 -5 3 -10 16 -10 28 0 18 2 19 10 7 5
-8 10 -21 10 -28z m2756 -132 c-12 -50 -14 -85 -8 -128 l8 -60 -110 -6 c-61
-3 -132 -9 -158 -12 -46 -6 -64 5 -37 21 6 4 8 14 4 23 -6 18 11 32 39 32 20
0 20 0 0 -15 -18 -15 -18 -16 5 -13 17 2 32 17 50 51 14 27 36 54 49 61 12 6
45 43 72 81 28 39 59 81 70 95 11 14 21 30 22 35 1 6 3 -14 5 -44 2 -29 -3
-84 -11 -121z m-1610 135 c-11 -8 -27 -15 -35 -15 -10 1 -7 6 9 15 33 19 50
18 26 0z m-133 -2 c-7 -2 -19 -2 -25 0 -7 3 -2 5 12 5 14 0 19 -2 13 -5z m283
-41 c-17 -16 -18 -16 -5 5 7 12 15 20 18 17 3 -2 -3 -12 -13 -22z m273 -21
c-12 -23 -24 -39 -26 -38 -2 2 7 22 19 45 13 22 24 39 26 37 2 -2 -6 -22 -19
-44z m368 12 c-3 -10 -5 -4 -5 12 0 17 2 24 5 18 2 -7 2 -21 0 -30z m-4025 -3
c3 -16 1 -30 -4 -30 -4 0 -8 14 -8 30 0 17 2 30 4 30 2 0 6 -13 8 -30z m3807
-75 c-25 -85 -28 -101 -15 -109 12 -8 11 -16 -7 -53 -25 -51 -16 -70 27 -53
21 8 27 7 24 -2 -3 -9 -33 -14 -99 -15 -78 -1 -89 1 -66 10 30 12 35 32 10 41
-15 6 -14 8 4 21 11 8 48 71 82 140 35 70 64 125 67 123 2 -2 -10 -49 -27
-103z m244 53 c-5 -51 -23 -92 -23 -54 0 20 21 106 26 106 2 0 0 -24 -3 -52z
m299 -45 c6 -13 19 -25 30 -29 24 -7 23 -34 -1 -34 -11 0 -21 -5 -23 -11 -2
-6 -16 1 -30 15 -26 23 -27 28 -21 92 l6 68 14 -39 c7 -22 18 -50 25 -62z
m-800 23 c-21 -36 -51 -75 -67 -88 l-30 -23 30 52 c36 61 84 123 96 123 4 0
-9 -29 -29 -64z m-2163 22 c-5 -17 -13 -36 -19 -42 -12 -11 -12 -11 9 47 14
37 22 34 10 -5z m717 -216 c9 -76 24 -34 20 56 l-5 87 10 -65 c22 -148 20
-180 -9 -174 -10 1 -34 6 -54 9 l-37 6 6 72 c6 83 22 113 25 46 0 -24 2 -48 3
-54 2 -5 3 -20 4 -32 0 -13 6 -23 12 -23 7 0 9 49 5 153 -4 140 -4 145 5 57 6
-52 12 -114 15 -138z m2434 208 c0 -4 -9 -27 -20 -51 -11 -24 -20 -59 -20 -76
0 -18 -3 -34 -7 -34 -5 -1 -21 -3 -37 -5 l-29 -3 22 23 c12 13 24 35 26 48 3
14 12 39 20 54 8 16 15 37 15 46 0 11 5 15 15 12 8 -4 15 -10 15 -14z m-3089
-86 c-17 -32 -30 -56 -31 -52 0 13 51 120 56 115 2 -2 -9 -31 -25 -63z m1410
40 c13 -14 17 -23 9 -19 -13 5 -46 45 -37 45 2 0 14 -11 28 -26z m-1500 -27
c-10 -9 -11 -8 -5 6 3 10 9 15 12 12 3 -3 0 -11 -7 -18z m2044 -68 c-39 -53
-100 -109 -119 -109 -3 0 14 19 37 43 23 23 60 63 81 90 55 68 56 51 1 -24z
m700 -36 c-3 -13 -13 -23 -22 -23 -14 0 -14 2 3 14 15 11 17 19 9 33 -6 10 -8
34 -6 53 l4 35 9 -45 c4 -25 6 -55 3 -67z m-3858 81 c-3 -3 -12 -4 -19 -1 -8
3 -5 6 6 6 11 1 17 -2 13 -5z m1553 -20 c0 -8 -5 -12 -10 -9 -6 4 -8 11 -5 16
9 14 15 11 15 -7z m2504 -29 c-4 -8 -8 -15 -10 -15 -2 0 -4 7 -4 15 0 8 4 15
10 15 5 0 7 -7 4 -15z m-884 -60 c0 -17 -88 -85 -110 -85 -24 0 -24 1 8 20 19
12 46 32 60 45 25 24 42 31 42 20z m-1487 -65 c10 -10 2 -11 -37 -6 -27 3 -58
7 -70 7 -15 1 -13 3 9 9 40 10 84 5 98 -10z m-528 0 c-3 -5 -11 -10 -16 -10
-6 0 -7 5 -4 10 3 6 11 10 16 10 6 0 7 -4 4 -10z m1870 -10 c3 -5 -1 -10 -10
-10 -9 0 -13 5 -10 10 3 6 8 10 10 10 2 0 7 -4 10 -10z m853 3 c-10 -2 -26 -2
-35 0 -10 3 -2 5 17 5 19 0 27 -2 18 -5z"/>
<path d="M3155 5105 c-16 -8 -41 -14 -55 -15 -14 0 -31 -4 -39 -9 -11 -7 -10
-11 6 -19 14 -8 34 -7 74 3 74 20 82 19 70 -4 -7 -11 -31 -24 -61 -31 -45 -11
-53 -10 -70 5 -18 16 -20 16 -26 2 -12 -33 -9 -79 7 -89 9 -7 38 -8 72 -4 l56
7 35 68 c19 37 31 73 27 79 -11 19 -63 22 -96 7z m10 -115 c-3 -5 -16 -10 -28
-9 -20 1 -20 2 3 9 14 4 26 8 28 9 2 1 0 -3 -3 -9z"/>
<path d="M1948 5043 c-100 -5 -104 -24 -8 -35 19 -2 25 -9 25 -28 0 -22 -5
-26 -48 -30 -53 -7 -81 -25 -57 -40 8 -5 21 -5 31 1 24 12 59 11 59 -2 0 -6
-11 -33 -25 -61 -29 -57 -30 -68 -11 -68 8 0 25 20 37 45 27 55 39 57 37 8 -2
-53 35 -82 104 -81 29 0 56 5 60 11 10 15 10 143 1 134 -4 -4 -14 -29 -23 -55
-14 -42 -20 -47 -49 -50 -47 -5 -64 14 -58 61 5 33 2 40 -14 44 -32 9 -21 23
16 23 28 0 35 4 35 20 0 15 -7 20 -29 20 -24 0 -29 4 -28 20 1 11 5 20 8 20 4
0 20 5 34 10 23 9 25 13 15 25 -7 8 -18 14 -24 13 -6 -1 -46 -4 -88 -5z"/>
<path d="M547 5013 c-14 -13 -6 -28 23 -45 38 -22 47 -7 17 26 -26 28 -30 30
-40 19z"/>
<path d="M1552 5009 c-29 -4 -56 -9 -59 -12 -13 -14 -22 -89 -17 -152 6 -92
23 -109 103 -100 87 10 91 12 91 51 0 38 -24 48 -35 14 -3 -11 -11 -20 -16
-20 -13 0 -16 0 -49 -10 -35 -10 -60 8 -60 44 0 20 6 24 50 30 27 4 52 12 56
18 13 20 13 136 1 140 -7 2 -36 1 -65 -3z m-18 -76 c-7 -44 -24 -68 -24 -35 0
20 19 72 27 72 2 0 1 -17 -3 -37z m53 -3 c-2 -11 -9 -26 -17 -33 -10 -10 -12
-9 -6 6 3 10 6 25 6 33 0 8 4 14 10 14 5 0 8 -9 7 -20z"/>
<path d="M1353 5003 c-12 -2 -22 -12 -22 -21 0 -9 -4 -44 -7 -78 -5 -49 -3
-64 11 -77 21 -22 25 -22 59 8 16 14 33 25 38 25 10 0 2 120 -9 131 -12 11
-46 16 -70 12z m45 -84 c-2 -26 -10 -46 -20 -53 -24 -15 -27 -8 -21 47 5 38 9
47 25 47 16 0 19 -6 16 -41z"/>
<path d="M2665 4998 c-2 -7 -8 -26 -12 -43 -9 -27 -14 -30 -61 -35 -55 -6 -68
-13 -57 -29 4 -7 25 -10 51 -7 53 5 55 -2 19 -89 -28 -67 -29 -75 -15 -75 5 0
23 27 40 60 l30 60 33 -36 c25 -27 42 -37 68 -38 37 -1 53 17 19 22 -27 4
-103 79 -97 95 2 7 12 14 23 16 23 4 44 20 44 33 0 6 -14 8 -35 4 -33 -7 -48
5 -25 19 16 10 12 55 -5 55 -9 0 -17 -6 -20 -12z"/>
<path d="M2903 5001 c-39 -3 -75 -10 -79 -14 -16 -15 20 -26 68 -20 26 3 48 3
48 0 0 -4 -13 -20 -30 -37 -26 -26 -70 -99 -70 -115 0 -15 30 -2 35 15 9 28
23 25 18 -3 -6 -31 18 -49 59 -45 32 3 33 5 45 63 11 55 11 61 -7 76 -19 16
-19 17 5 39 31 29 32 51 3 48 -13 -1 -55 -4 -95 -7z m61 -138 c-13 -56 -34
-60 -34 -8 0 28 4 35 20 35 17 0 19 -4 14 -27z"/>
<path d="M737 4979 c9 -9 9 -20 -2 -47 -19 -44 -11 -55 31 -47 38 7 38 7 24
-30 -9 -25 -11 -25 -34 -10 -34 23 -45 1 -15 -31 18 -19 20 -27 11 -36 -7 -7
-12 -18 -12 -25 0 -16 37 -17 42 -2 3 8 20 2 47 -15 33 -21 46 -25 55 -16 11
12 6 17 -59 63 l-25 18 20 29 c11 15 23 42 26 59 6 30 6 31 -32 31 -38 0 -39
1 -39 33 0 27 -4 33 -25 35 -20 3 -22 1 -13 -9z"/>
<path d="M3135 4928 c-22 -6 -50 -12 -62 -14 -13 -2 -23 -11 -23 -19 0 -11 12
-15 45 -15 62 0 57 -16 -10 -31 -61 -14 -76 -39 -23 -39 l32 0 -39 -35 c-27
-26 -35 -39 -27 -47 7 -7 22 -1 51 23 42 33 51 53 29 62 -7 3 -3 6 10 6 19 1
22 -4 22 -37 0 -21 -6 -47 -14 -58 -10 -14 -11 -23 -4 -32 9 -10 16 -8 35 9
19 19 23 33 23 80 l0 58 34 7 c37 6 54 29 30 38 -9 3 -24 1 -35 -4 -20 -11
-39 -6 -39 11 0 5 9 9 20 9 13 0 20 7 20 20 0 22 -11 23 -75 8z"/>
<path d="M1024 4905 c-8 -32 3 -93 23 -124 14 -21 20 -23 71 -18 58 6 73 17
65 48 -7 24 -18 24 -43 -1 -50 -50 -88 -5 -81 93 3 35 -26 37 -35 2z"/>
<path d="M1110 4896 c0 -21 28 -39 47 -31 16 6 16 8 -6 26 -27 22 -41 24 -41
5z"/>
<path d="M1184 4899 c-7 -12 21 -39 40 -39 21 0 41 19 31 28 -17 16 -63 23
-71 11z"/>
<path d="M937 4829 c-17 -59 -13 -90 10 -76 13 8 36 114 28 127 -12 20 -20 9
-38 -51z"/>
<path d="M2367 4856 c-6 -15 19 -56 34 -56 5 0 8 10 7 23 -6 42 -30 62 -41 33z"/>
<path d="M2289 4833 c-15 -40 5 -50 29 -15 12 16 19 32 15 36 -14 14 -34 5
-44 -21z"/>
<path d="M3336 4798 c-9 -12 -16 -31 -16 -41 0 -16 7 -18 53 -15 46 3 52 6 55
26 7 51 -62 73 -92 30z m42 -17 c11 -7 11 -9 -1 -14 -16 -6 -27 0 -27 15 0 10
11 10 28 -1z"/>
<path d="M1731 4764 c-6 -15 -9 -29 -6 -32 10 -11 40 14 40 33 0 29 -20 28
-34 -1z"/>
<path d="M3697 4463 c-4 -3 0 -17 9 -30 8 -13 18 -43 22 -66 8 -45 37 -69 73
-60 49 13 29 95 -33 136 -43 27 -59 32 -71 20z"/>
<path d="M3215 4419 c-4 -6 2 -19 14 -30 14 -13 21 -32 21 -55 0 -27 5 -37 24
-46 32 -14 53 -5 68 27 15 33 5 50 -48 87 -41 29 -69 35 -79 17z"/>
<path d="M3100 4295 c0 -12 -5 -26 -12 -33 -9 -9 -8 -12 4 -12 21 0 31 27 18
48 -8 15 -9 15 -10 -3z"/>
<path d="M3351 3606 c-23 -24 -23 -28 -9 -42 36 -36 181 -46 238 -15 77 41 33
72 -110 79 -92 4 -96 3 -119 -22z m192 -15 c31 -1 9 -18 -32 -25 -45 -7 -111
11 -89 25 7 5 33 7 58 5 25 -3 53 -5 63 -5z"/>
<path d="M472 3610 c4 -25 1 -29 -21 -32 -14 -2 -25 -7 -24 -13 3 -14 37 -21
89 -16 36 2 44 7 42 20 -2 9 -11 15 -20 13 -10 -1 -20 9 -26 28 -15 41 -46 41
-40 0z"/>
<path d="M483 3359 c-19 -51 -12 -236 11 -279 10 -19 21 -57 25 -84 3 -27 12
-51 19 -54 21 -7 9 127 -14 163 -16 25 -19 48 -19 157 0 70 -2 128 -5 128 -3
0 -11 -14 -17 -31z"/>
<path d="M554 3369 c-3 -6 -1 -16 4 -21 8 -8 8 -17 0 -31 -23 -44 19 -137 62
-137 30 0 30 12 0 40 -33 31 -39 70 -18 115 10 22 9 28 -3 36 -19 12 -36 11
-45 -2z"/>
<path d="M4740 3626 c0 -18 36 -27 67 -15 34 13 19 29 -28 29 -26 0 -39 -4
-39 -14z"/>
<path d="M4954 3630 c-27 -11 -38 -27 -24 -35 15 -9 80 17 80 32 0 15 -24 16
-56 3z"/>
<path d="M4826 3545 c-8 -21 1 -35 20 -35 10 0 14 8 12 22 -4 27 -23 34 -32
13z"/>
<path d="M4877 3543 c-13 -12 -7 -23 13 -23 11 0 20 7 20 15 0 15 -21 21 -33
8z"/>
<path d="M1467 3363 c-10 -9 -9 -43 1 -43 10 0 42 33 42 43 0 9 -35 9 -43 0z"/>
<path d="M1660 3356 c0 -14 48 -32 58 -22 2 3 -1 12 -8 21 -16 19 -50 20 -50
1z"/>
<path d="M1440 3199 c-33 -18 -35 -22 -42 -87 -6 -69 4 -100 43 -125 47 -30
159 40 159 100 l1 28 14 -26 c8 -14 31 -39 51 -54 29 -22 46 -28 82 -26 52 2
64 9 87 56 24 52 2 93 -70 128 -84 41 -122 33 -146 -30 -9 -24 -29 -23 -29 2
0 14 -76 55 -101 54 -8 0 -30 -9 -49 -20z m111 -49 c13 -15 15 -28 9 -56 -10
-41 -30 -69 -30 -41 0 24 -27 32 -56 17 -30 -17 -31 -34 -1 -48 22 -11 22 -11
1 -11 -32 -1 -46 23 -46 81 0 42 4 55 23 70 29 23 76 17 100 -12z m206 10 c41
-25 56 -52 44 -83 -16 -41 -81 -54 -74 -14 5 29 -29 52 -57 37 -25 -13 -32 14
-13 53 16 33 53 36 100 7z"/>
<path d="M1657 3013 c-13 -13 -7 -22 26 -37 44 -20 69 -23 74 -8 3 7 -4 12
-15 12 -11 0 -31 9 -45 20 -28 22 -31 23 -40 13z"/>
<path d="M1577 2704 c-13 -13 -7 -24 14 -24 11 0 19 5 17 12 -5 14 -22 21 -31
12z"/>
<path d="M4873 3248 c-15 -18 -36 -125 -28 -138 5 -8 11 -7 21 1 7 6 11 15 8
20 -3 5 2 32 11 61 15 51 8 81 -12 56z"/>
<path d="M4983 3193 c9 -9 19 -14 23 -11 10 10 -6 28 -24 28 -15 0 -15 -1 1
-17z"/>
<path d="M4896 3141 c-8 -12 12 -26 57 -40 44 -15 107 1 107 26 0 11 -5 13
-17 8 -38 -16 -62 -16 -91 -1 -35 18 -48 20 -56 7z"/>
<path d="M4920 3051 c0 -17 36 -31 77 -31 36 0 73 14 63 23 -12 10 -140 17
-140 8z"/>
<path d="M793 2603 c-7 -2 -13 -10 -13 -17 0 -23 -81 -106 -119 -122 -20 -9
-31 -18 -24 -21 22 -8 91 37 137 90 54 64 61 87 19 70z"/>
<path d="M2504 2375 c-9 -14 -14 -28 -11 -31 3 -3 13 8 22 25 19 37 12 41 -11
6z"/>
<path d="M2521 2254 c0 -11 3 -14 6 -6 3 7 2 16 -1 19 -3 4 -6 -2 -5 -13z"/>
<path d="M3030 2659 c0 -5 5 -7 10 -4 6 3 10 8 10 11 0 2 -4 4 -10 4 -5 0 -10
-5 -10 -11z"/>
<path d="M4171 2319 c-27 -29 -17 -39 11 -11 12 12 19 24 16 27 -3 4 -15 -4
-27 -16z"/>
<path d="M4127 2273 c-4 -3 -7 -13 -7 -21 0 -12 3 -12 15 -2 8 7 15 16 15 21
0 11 -14 12 -23 2z"/>
<path d="M4191 2233 c-13 -28 -13 -28 8 -9 22 20 27 36 13 36 -5 0 -14 -12
-21 -27z"/>
<path d="M4040 2205 c-20 -24 -6 -28 15 -5 10 11 13 20 8 20 -6 0 -16 -7 -23
-15z"/>
<path d="M705 2283 c-48 -7 -58 -43 -12 -43 25 1 57 22 57 39 0 6 -3 10 -7 10
-5 -1 -21 -4 -38 -6z"/>
<path d="M365 2256 c-29 -23 -29 -23 -6 -31 23 -7 50 15 51 43 0 18 -11 15
-45 -12z"/>
<path d="M4635 1889 c-11 -17 1 -21 15 -4 8 9 8 15 2 15 -6 0 -14 -5 -17 -11z"/>
<path d="M4816 1851 c-4 -5 -2 -12 3 -15 5 -4 12 -2 15 3 4 5 2 12 -3 15 -5 4
-12 2 -15 -3z"/>
<path d="M4570 1834 c0 -14 3 -14 15 -4 8 7 15 14 15 16 0 2 -7 4 -15 4 -8 0
-15 -7 -15 -16z"/>
<path d="M4697 1833 c-10 -9 -9 -23 1 -23 5 0 17 7 28 15 19 14 19 14 -2 15
-11 0 -24 -3 -27 -7z"/>
<path d="M3559 1656 c-2 -2 -51 -6 -109 -10 -139 -8 -209 -17 -216 -27 -7 -12
-4 -12 182 6 87 9 163 20 168 25 7 7 5 10 -5 10 -9 0 -18 -2 -20 -4z"/>
<path d="M3600 1650 c0 -5 4 -10 9 -10 6 0 13 5 16 10 3 6 -1 10 -9 10 -9 0
-16 -4 -16 -10z"/>
<path d="M3725 1642 c-55 -1 -104 -7 -110 -13 -11 -11 281 -10 330 1 49 12
-44 17 -220 12z"/>
<path d="M2703 1613 c-42 -2 -73 -8 -73 -14 0 -7 32 -9 90 -7 64 2 90 7 90 16
0 6 -8 11 -17 10 -10 -1 -51 -4 -90 -5z"/>
<path d="M2830 1610 c0 -5 5 -10 11 -10 5 0 7 5 4 10 -3 6 -8 10 -11 10 -2 0
-4 -4 -4 -10z"/>
<path d="M2910 1616 c0 -8 61 -12 66 -4 3 4 -11 8 -30 8 -20 0 -36 -2 -36 -4z"/>
<path d="M660 1640 c-41 -4 -113 -11 -160 -14 -46 -4 -89 -11 -95 -17 -10 -11
96 -7 263 10 58 5 72 4 72 -7 0 -9 6 -12 15 -8 9 3 58 9 110 12 109 8 129 26
28 24 -38 -1 -88 1 -113 4 -25 2 -79 1 -120 -4z"/>
<path d="M2135 1640 c-3 -5 1 -10 9 -10 9 0 16 5 16 10 0 6 -4 10 -9 10 -6 0
-13 -4 -16 -10z"/>
<path d="M3463 1314 c-7 -18 20 -44 44 -44 23 0 28 32 8 46 -25 19 -44 18 -52
-2z"/>
<path d="M3900 1360 c-11 -7 -11 -11 -1 -24 14 -17 41 -11 41 9 0 17 -23 25
-40 15z"/>
<path d="M617 1233 c-24 -6 -11 -23 18 -23 29 0 41 16 19 24 -9 3 -16 5 -17 5
-1 -1 -10 -3 -20 -6z"/>
<path d="M680 1230 c0 -5 9 -10 21 -10 11 0 17 5 14 10 -3 6 -13 10 -21 10 -8
0 -14 -4 -14 -10z"/>
<path d="M760 1232 c0 -5 14 -9 30 -10 17 0 30 4 30 9 0 5 -13 9 -30 9 -16 0
-30 -4 -30 -8z"/>
<path d="M570 1200 c0 -13 7 -20 20 -20 11 0 20 3 20 8 0 4 -9 13 -20 20 -18
11 -20 10 -20 -8z"/>
<path d="M620 1190 c0 -5 5 -10 11 -10 5 0 7 5 4 10 -3 6 -8 10 -11 10 -2 0
-4 -4 -4 -10z"/>
<path d="M700 1190 c0 -13 50 -13 70 0 11 7 4 10 -27 10 -24 0 -43 -4 -43 -10z"/>
<path d="M1235 1170 c-3 -5 1 -10 9 -10 9 0 16 5 16 10 0 6 -4 10 -9 10 -6 0
-13 -4 -16 -10z"/>
<path d="M1071 1161 c-10 -6 12 -9 63 -9 42 1 79 5 82 10 7 11 -127 10 -145
-1z"/>
<path d="M650 1150 c0 -6 62 -10 165 -10 103 0 165 4 165 10 0 6 -62 10 -165
10 -103 0 -165 -4 -165 -10z"/>
<path d="M990 1150 c0 -5 5 -10 10 -10 6 0 10 5 10 10 0 6 -4 10 -10 10 -5 0
-10 -4 -10 -10z"/>
<path d="M420 1125 c0 -11 12 -15 49 -15 57 0 75 15 30 24 -52 10 -79 7 -79
-9z"/>
<path d="M565 1130 c-3 -5 -1 -10 4 -10 6 0 11 5 11 10 0 6 -2 10 -4 10 -3 0
-8 -4 -11 -10z"/>
<path d="M700 1050 c-11 -7 -12 -10 -2 -10 7 0 20 -7 28 -15 9 -8 25 -15 36
-15 17 0 18 -2 8 -15 -11 -13 -15 -13 -23 -3 -7 10 -8 10 -4 -2 4 -13 -14 -15
-129 -13 -115 1 -134 -1 -134 -14 0 -13 15 -14 113 -9 122 8 130 8 261 1 49
-2 108 0 132 5 23 5 62 6 86 2 23 -4 57 -5 73 -1 26 6 23 7 -20 9 -27 1 -44 4
-37 7 6 2 10 9 6 14 -8 13 -44 11 -44 -3 0 -9 -3 -9 -12 0 -7 7 -41 12 -78 13
-47 1 -58 3 -40 9 18 6 3 8 -51 9 -70 1 -129 16 -129 34 0 10 -22 9 -40 -3z
m190 -50 c0 -5 -2 -10 -4 -10 -3 0 -8 5 -11 10 -3 6 -1 10 4 10 6 0 11 -4 11
-10z"/>
<path d="M990 1050 c0 -5 10 -10 23 -10 18 0 19 2 7 10 -19 13 -30 13 -30 0z"/>
<path d="M785 1040 c-3 -5 -2 -10 4 -10 5 0 13 5 16 10 3 6 2 10 -4 10 -5 0
-13 -4 -16 -10z"/>
<path d="M1083 1043 c9 -2 23 -2 30 0 6 3 -1 5 -18 5 -16 0 -22 -2 -12 -5z"/>
<path d="M424 1031 c-16 -16 10 -21 109 -20 61 1 121 5 132 9 11 5 16 9 10 10
-25 4 -247 5 -251 1z"/>
<path d="M1110 990 c0 -5 18 -10 40 -10 22 0 40 5 40 10 0 6 -18 10 -40 10
-22 0 -40 -4 -40 -10z"/>
<path d="M1220 990 c0 -13 11 -13 30 0 12 8 11 10 -7 10 -13 0 -23 -4 -23 -10z"/>
<path d="M1270 990 c0 -5 5 -10 10 -10 6 0 10 5 10 10 0 6 -4 10 -10 10 -5 0
-10 -4 -10 -10z"/>
<path d="M620 913 c-41 -2 -82 -6 -90 -10 -8 -3 -27 -5 -42 -4 -16 2 -28 -2
-28 -8 0 -6 15 -11 33 -11 18 0 37 -4 43 -9 12 -11 207 7 214 20 4 5 23 10 43
11 20 1 37 5 37 10 0 8 -45 8 -210 1z"/>
<path d="M850 909 c0 -5 5 -7 10 -4 6 3 10 8 10 11 0 2 -4 4 -10 4 -5 0 -10
-5 -10 -11z"/>
<path d="M690 840 c-12 -8 -10 -10 8 -10 13 0 20 4 17 10 -7 12 -6 12 -25 0z"/>
<path d="M760 840 c0 -6 7 -10 15 -10 8 0 15 2 15 4 0 2 -7 6 -15 10 -8 3 -15
1 -15 -4z"/>
<path d="M490 830 c0 -5 17 -10 38 -9 30 0 33 2 17 9 -28 12 -55 12 -55 0z"/>
<path d="M1069 806 c-2 -2 -84 -6 -183 -9 -122 -4 -182 -9 -190 -18 -8 -9 -8
-10 1 -5 7 4 20 3 29 -2 15 -8 15 -10 -1 -15 -19 -8 -58 10 -50 23 3 5 1 11
-5 15 -6 3 -13 -1 -16 -9 -3 -9 -12 -16 -20 -16 -8 0 -14 -4 -14 -10 0 -5 -7
-10 -16 -10 -8 0 -12 5 -9 10 3 6 1 10 -4 10 -6 0 -11 -4 -11 -9 0 -5 -7 -11
-14 -14 -9 -4 -13 -1 -10 6 3 8 -6 13 -23 15 -26 1 -27 1 -9 -13 17 -13 15
-14 -19 -8 -30 5 -37 3 -33 -8 2 -8 15 -16 29 -18 35 -5 259 21 253 30 -2 4
10 12 26 18 25 8 32 7 37 -5 3 -9 8 -11 12 -6 6 11 187 28 253 24 20 -1 40 3
43 8 3 6 0 10 -9 10 -8 0 -21 2 -28 5 -8 3 -16 4 -19 1z"/>
<path d="M1145 800 c-3 -5 1 -10 10 -10 9 0 13 5 10 10 -3 6 -8 10 -10 10 -2
0 -7 -4 -10 -10z"/>
<path d="M1208 793 c7 -3 16 -2 19 1 4 3 -2 6 -13 5 -11 0 -14 -3 -6 -6z"/>
<path d="M780 745 c11 -13 6 -15 -31 -16 -24 0 -53 -3 -64 -5 -62 -14 -134
-25 -162 -25 -18 1 -33 -3 -33 -8 0 -11 102 -18 170 -11 47 4 52 7 35 17 -18
10 -18 11 5 11 14 0 61 2 105 5 44 3 106 6 138 7 40 0 57 4 57 13 0 10 -14 13
-52 11 -29 -2 -53 -3 -53 -4 0 -1 -21 -2 -47 -3 -31 -2 -49 2 -52 10 -3 7 -11
13 -17 13 -8 0 -8 -4 1 -15z"/>
<path d="M491 624 c15 -19 156 -20 156 -1 0 8 -24 12 -84 13 -69 1 -81 -1 -72
-12z"/>
<path d="M710 620 c0 -5 16 -9 35 -8 19 1 35 5 35 10 0 4 -16 8 -35 8 -19 0
-35 -4 -35 -10z"/>
<path d="M956 622 c-3 -4 11 -9 30 -9 18 -1 31 3 28 8 -7 11 -51 12 -58 1z"/>
<path d="M1135 610 c3 -5 12 -10 20 -10 8 0 17 5 20 10 4 6 -5 10 -20 10 -15
0 -24 -4 -20 -10z"/>
<path d="M640 572 c0 -5 7 -13 16 -16 10 -4 14 -1 12 6 -5 15 -28 23 -28 10z"/>
<path d="M680 570 c0 -5 5 -10 10 -10 6 0 10 5 10 10 0 6 -4 10 -10 10 -5 0
-10 -4 -10 -10z"/>
<path d="M715 570 c-4 -6 22 -10 69 -10 44 0 76 4 76 10 0 6 -30 10 -69 10
-39 0 -73 -4 -76 -10z"/>
<path d="M940 570 c0 -5 5 -10 11 -10 5 0 7 5 4 10 -3 6 -8 10 -11 10 -2 0 -4
-4 -4 -10z"/>
<path d="M990 570 c0 -5 14 -10 31 -10 17 0 28 4 24 10 -3 6 -17 10 -31 10
-13 0 -24 -4 -24 -10z"/>
<path d="M942 449 c3 -8 11 -14 19 -14 8 0 17 -4 21 -10 4 -5 9 -7 12 -4 9 8
-8 26 -33 34 -17 5 -22 4 -19 -6z"/>
<path d="M1007 449 c7 -7 15 -10 18 -7 3 3 -2 9 -12 12 -14 6 -15 5 -6 -5z"/>
<path d="M1060 435 c17 -9 30 -10 42 -4 25 14 23 15 -24 16 -40 1 -41 0 -18
-12z"/>
<path d="M900 411 c0 -5 9 -7 20 -4 11 3 20 7 20 9 0 2 -9 4 -20 4 -11 0 -20
-4 -20 -9z"/>
<path d="M3086 1373 c-11 -11 -7 -22 14 -33 15 -8 25 -7 41 4 11 7 17 16 12
19 -17 9 -60 16 -67 10z"/>
<path d="M2563 768 c-1 -58 -1 -60 7 -23 11 51 12 85 2 85 -4 0 -8 -28 -9 -62z"/>
<path d="M2527 692 c-5 -68 0 -312 7 -319 2 -3 7 13 11 34 7 47 3 343 -6 349
-3 2 -9 -27 -12 -64z"/>
<path d="M2571 554 c0 -11 3 -14 6 -6 3 7 2 16 -1 19 -3 4 -6 -2 -5 -13z"/>
</g>
</svg>
