<?xml version="1.0" standalone="yes"?>
<svg xmlns="http://www.w3.org/2000/svg" width="1024" height="300">
<path style="fill:#f0efeb; stroke:none;" d="M0 0L0 300L1024 300L1024 0L0 0z"/>
<path style="fill:#453e33; stroke:none;" d="M138 48C134.324 42.7379 128.135 36.3296 121.961 34.0286C114.815 31.3656 103.457 32.4453 96 33.4244C91.0953 34.0684 72.7036 31.5622 77.6042 41.6821C79.9021 46.4275 89.2145 42.781 93 42.2894C98.2998 41.601 103.681 42.2748 109 41.9105C113.352 41.6124 117.63 40.4489 122 41.3904C127.626 42.6027 132.52 46.299 138 48z"/>
<path style="fill:#f0efeb; stroke:none;" d="M91 37L91 39L110 39L110 37L91 37z"/>
<path style="fill:#453e33; stroke:none;" d="M96 47L97 49C98.6351 48.455 98.455 48.6351 99 47L96 47M144 48C150.587 59.0462 164.56 52.2575 175 53.108C181.667 53.6511 186.959 57.6844 193 60C191.24 55.3046 187.912 53.3411 183 53C184.479 52.0143 184.203 52 186 52C183.123 47.6455 177.93 47.0641 173 47.0039C163.334 46.8858 153.706 48 144 48M91 48L92 49L91 48M102 48L102 54C103.195 53.4023 102.977 53.5339 104 52L104 58C105.915 59.2767 105.085 59.2767 107 58C109.449 63.683 111.87 68.9733 118 71L117 67C121.011 67.5826 124.191 69.75 128 71C124.893 64.3379 118.45 59.4848 113 54.7153C109.441 51.6004 106.785 48.7383 102 48M109 49L110 50L109 49M88 52C88.187 54.7107 88.2525 56.9075 91 55C91 56.7968 91.0143 56.5215 92 58C94.1831 56.3627 94.4476 57.762 95 55C96.1863 56.0356 96.6036 56.3386 98 57C96.7378 54.6375 96.4175 53.732 94 55C94 53.2032 93.9857 53.4785 93 52C92.75 53.5097 92.8197 54.4355 93 56C91.5987 54.3845 91.1865 53.1958 90 55L88 52z"/>
<path style="fill:#f0efeb; stroke:none;" d="M105 56L106 57L105 56M111 58C112.368 60.4395 113.502 61.741 116 63C114.637 60.6576 113.268 59.5083 111 58z"/>
<path style="fill:#453e33; stroke:none;" d="M86 62C87.3617 67.5975 89.3287 68.9324 95 69C93.5534 63.7844 91.8159 60.4524 86 62M100 61C100.535 64.0189 101.496 66.3266 103 69L96 69C96.7395 72.1178 97.8486 75.0127 99 78L92 78C92.2825 81.4579 93.0623 84.664 94 88L103 87C101.849 84.0127 100.739 81.1177 100 78C102.205 77.9059 103.894 77.6438 106 77L103 69L110 68C107.617 63.2721 105.36 61.1776 100 61M112 71L113 72L112 71M116 73C118.481 80.8399 125.534 87.6853 126 96C129.639 95.7657 136.427 97.4328 139.381 94.9722C142.684 92.2219 138.126 87.2135 136.71 84.7145C131.23 75.042 127.079 73.0012 116 73M107 77C108.004 80.4845 109.61 83.6576 111 87L104 87C105.216 95.1142 108.138 96.9939 116 97C114.61 93.6576 113.004 90.4845 112 87C114.85 86.9792 117.271 86.8102 120 86C117.325 79.3616 114.06 77.025 107 77z"/>
<path style="fill:#f0efeb; stroke:none;" d="M123 78C125.006 80.9399 126.457 81.7232 130 82C127.994 79.0602 126.543 78.2768 123 78M129 87C130.285 90.2053 131.602 90.7322 135 91C133.331 88.2551 132.176 87.5034 129 87z"/>
<path style="fill:#453e33; stroke:none;" d="M131 88L132 89L131 88M142.333 89.6667C142.278 89.7222 142.222 90.7778 142.667 90.3333C142.722 90.2777 142.778 89.2223 142.333 89.6667M144 96C147.868 98.995 152.576 100.312 157 102.312C165.059 105.955 172.878 110.053 181 113.568C199.683 121.653 218.396 132.396 238 138C232.306 130.194 223.57 124.165 216.4 117.715C211.372 113.191 206.059 106.902 200 104L208 119C196.319 112.493 181.665 108.893 169 104.495C160.803 101.649 152.625 97.1852 144 96M600 115C601 110.31 598.948 106.557 598 102L594 102L594 115L600 115C590.469 118.596 579.954 119.942 570 122.003C548.885 126.375 527.985 129.93 507 134C512.978 136.389 521.599 135.01 528 135C547.592 134.969 567.509 131.026 587 129.17C611.162 126.869 635.818 127.902 660 128.961C677.054 129.707 693.975 129.745 711 130.91C726.276 131.957 741.679 134.585 757 134.985C762.296 135.124 771.878 134.184 775 139C780.337 136.032 785.233 137.708 791 137.961C803.824 138.522 817.277 139.824 830 142.196C851.785 146.258 874.137 147.599 896 151.464C914.96 154.815 933.281 160.721 952 165C944.972 159.687 934.289 157.521 926 154.656C901.876 146.317 876.367 142.854 852 135.482C846.317 133.763 841.183 130.049 836 127.231C825.426 121.481 814.801 115.58 804 110.273C794.765 105.736 783.063 103.808 773 101.808C753.921 98.016 734.339 96.7661 715 96.9961C708.076 97.0785 700.89 96.3881 694 97.108C691.195 97.4011 688.76 98.8364 686 99.2199C681.397 99.8595 676.681 98.7023 672 99.439C647.832 103.243 624.486 113.065 600 115M117 97C119.579 105.954 123.049 107.999 132 108C129.4 99.3264 125.667 97.0009 117 97M98 98L101 109L111 109C109.709 100.388 106.387 98.0065 98 98z"/>
<path style="fill:#f0efeb; stroke:none;" d="M690 101L695 99C692.469 98.2899 691.484 98.8686 690 101M699 99C704.959 101.5 713.564 100 720 100C714.041 97.4995 705.436 99 699 99M690 103C688.751 106.335 688.155 109.442 688 113L684 113L686 112C681.635 110.98 678.151 116.744 675 112C667.009 113.877 664.082 113.073 664 104L667 104L667 109L670 109L672 103C667.322 103 662.736 102.893 658.17 104.075C654.967 104.904 651.528 104.777 648.424 105.763C646.182 106.475 642.365 107.422 640.607 108.988C638.026 111.286 639.397 116.823 642.303 118.258C645.053 119.615 649.031 119 652 119L672 119C675.516 119 679.565 119.786 682 117L684 117C686.459 119.814 690.47 118.869 694 119.285C703.281 120.381 712.657 120 722 120C722 116.029 723.552 107.863 720.972 104.603C719.444 102.672 716.327 103.071 714.17 102.546C709.718 101.461 705.765 100.559 701.089 101.129C697.154 101.608 694.095 103.198 690 103M595 103C595.097 107.553 595.198 112.329 600 114C598.481 110.272 597.21 107.054 597 103L595 103M744 121C747.186 116.161 758.689 119.581 764 120C762.466 121.023 762.598 120.804 762 122L764 126C773.885 126.082 793.61 134.919 794.776 120C794.985 117.334 794.333 114.634 794 112L788 112C789.846 111.087 790.795 110.599 792 109C786.138 110.392 782.636 108.289 777 107.657C773.716 107.29 770.304 108.79 767 109C764.26 116.614 754.785 114.369 748 114L749 108L755 110C754.218 108.416 753.13 107.4 752 106L757 106C750.145 103.097 736.455 101.149 729.148 103.318C725.106 104.518 724.589 113.331 727.603 115.836C730.02 117.844 734.027 117.478 736.911 118.259C739.39 118.931 741.515 120.33 744 121M672 107C673.506 107.683 674.315 107.826 676 108C674.19 106.76 674.223 106.816 672 107z"/>
<path style="fill:#453e33; stroke:none;" d="M113 109C113.641 113.279 115.172 117.092 117 121L106 122C108.958 133.066 110.905 144.48 111 156C105.611 156.111 101.095 157.828 95.9105 158.741C88.3966 160.064 79.6449 159.999 72 160C74.6127 161.098 77.1645 160.993 80 161C73.0306 163.06 65.9728 160.639 59 162C64.2165 164.189 71.3809 163 77 163C90.4849 163 102.634 161.737 116 164C115.807 172.999 113.891 183.632 104 185C106.698 185.969 109.161 185.353 112 185C110.521 185.986 110.797 186 109 186C115.115 187.881 124.419 186 131 186C118.145 189.8 101.406 189.999 88 190C93.9109 187.786 99.7717 188 106 188C96.9943 184.221 84.391 188.259 75 189C78.9587 190.661 83.7366 190 88 190C81.8624 191.814 74.4163 191.982 68 192L72 191C67.833 189.255 63.3784 190.654 59 191C60.2483 191.685 60.5484 191.749 62 192C56.4229 193.764 50.8152 193.999 45 194C47.4181 193.278 49.4717 193.052 52 193C46.2326 190.581 38.2228 192.999 32 193C33.2483 193.685 33.5484 193.749 35 194C28.8047 195.848 22.3426 196.177 16 195C16.9402 199.387 20.4621 197.435 24 197.083C28.9157 196.594 34.0647 196.023 39 196C63.3498 195.887 87.7007 191.225 112 190C112.004 196.568 112.713 203.942 118.329 208.411C122.554 211.773 130.797 212.553 136 213.6C152.093 216.838 169.617 217 186 217C185.341 219.609 184.313 221.64 183 224C185.489 223.223 187.672 222.183 190 221C193.103 226.631 202.175 226.298 208 227.576C220.633 230.346 233.317 232.674 246 235.2C252.608 236.516 259.245 239.317 266 238L265 235C266.421 236.788 266.697 237.706 267 240C278.737 240.934 292.2 247.485 303.91 245.837C309.528 245.047 311.089 237.535 317.015 237.813C330.172 238.432 343.019 245.09 356 247C356.144 253.772 357.973 260.676 363.185 265.367C371.202 272.582 389.689 272.032 397.502 264.363C401.092 260.837 402.352 254.786 403 250C407.975 250 412.204 249.416 416 253L409 253L409 261C424.084 261 439.127 261.802 454 259L454 255L449 252C456.794 242.414 475.915 248.022 487 246.715C494.663 245.81 502.359 246.645 510 245.826C523.169 244.416 538.415 240.394 551 236.251C555.553 234.752 559.583 232.154 564 230.351C567.181 229.052 570.747 228.797 573.787 227.137C576.355 225.736 577.546 222.773 580.213 221.599C585.32 219.351 592.542 220 598 220C596.663 212.227 585.289 212.549 579 211C582.577 209.933 586.318 209.684 590 209C588.752 208.315 588.452 208.251 587 208C589.57 207.437 591.393 207.564 594 208C593.35 206.7 593.853 207 592 207C602.419 205.633 611.558 205.872 622 205.996C630.019 206.092 638.092 205.7 646 207.375C655.775 209.446 663.761 213.974 674 214.826C684.67 215.715 694.611 210.514 705 209.882C711.183 209.506 717.771 213.38 724 214L720 210L726 211L719 206C724.104 205.488 728.248 202.328 733.13 201.599C735.751 201.207 738.343 202.548 741.039 202.37C745.467 202.078 750.311 200.852 753 205C753.685 203.752 753.749 203.452 754 202C755.391 205.109 756.145 208.046 759 210L756 201C774.045 199.576 791.861 199 810 199C817.683 199 826.434 197.834 833.996 199.228C840.451 200.419 841.984 207.9 848.015 209.721C853.844 211.482 860.036 210.681 866 211.09C878.016 211.912 889.928 212 902 212L902 208C900.135 208.676 900.137 209.096 899 208C895.896 209.688 894.104 209.688 891 208C889.484 208.957 888.661 209.387 887 210C886.224 207.868 885.87 207.229 884 206L884 210L866 209L866 202C871.606 202 879.384 200.503 884 204L886 204C889.856 201.079 894.332 202.425 898.911 201.871C906.574 200.944 914.199 198.641 922 197.715C935.748 196.082 949.629 193.122 963 189.511C970.676 187.438 978.186 183.874 986 182.376C990.514 181.51 995.42 182 1000 182C996.041 180.339 991.263 181 987 181L989 180C983.53 177.097 980.329 179.716 974.911 180.737C967.867 182.064 957.148 178.604 952 185C942.778 182.804 932.442 184 923 184C915.721 184 908.276 184.454 901.015 183.946C897.554 183.704 894.497 181.973 890.989 182.062C887.579 182.149 885.264 184.442 882.08 184.846C879.755 185.142 877.456 183.944 875.075 184.147C872.291 184.385 869.806 185.749 866.985 185.946C853.333 186.902 837.597 187.398 824 185.871C820.93 185.526 818.103 184.252 815 184.055C809.991 183.737 805.016 184.958 800 185C800.402 183.057 800.402 182.943 800 181C799.521 182.498 799.6 182.35 800 184C792.709 184.001 790.758 184.789 786 190C787.132 185.972 787.913 182.193 788 178C786.068 180.452 785.604 182.939 785 186C784.014 184.522 784 184.797 784 183L781 184C779.444 182.187 778.556 182.187 777 184C773.33 181.676 770.115 183.728 766 183.957C758.378 184.381 750.634 184 743 184C743.986 182.521 744 182.797 744 181C741.636 181.482 741.482 181.636 741 184C736.562 184.295 732.418 186.04 728 186.714C723.962 187.33 719.948 186.879 716 188C718.729 185.213 721.173 185.044 725 185L725 179C722.743 178.264 720.374 178.312 718.139 177.583C713.063 175.929 703.778 168.463 701 178L693 178L693 184C696.524 184.112 698.516 184.46 701 187C696.06 186.448 683.314 184.208 680 188C677.894 187.356 676.205 187.094 674 187L674 190C669.951 190.353 666.075 191.891 662.004 191.941C658.474 191.985 655.431 190.302 651.961 190.054C641.023 189.273 629.947 190.379 619 190C622.942 185.76 627.4 185.215 632.424 182.886C644.158 177.447 656.591 171.587 669.17 168.451C678.784 166.055 689.348 170.094 692 158C687.92 157.989 684.037 157.51 680 157C684.29 155.732 688.71 156.268 693 155L691 148C672.144 148 653.744 150.141 635 150.961C627.955 151.269 621.048 149.92 614 150.004C596.377 150.212 578.695 151 561 151C553.404 151 545.565 150.45 538 151.17C529.2 152.007 519.529 154.164 511 151C503.872 153.873 494.61 152.153 487 152.015C475.316 151.804 462.6 152.534 451 154C455.311 149.835 454.993 144.591 448 145L448 140C450.695 140.845 453.194 141.657 456 142L456 139C461.591 139.001 467.484 140.421 473 139.867C477.83 139.382 482.347 137.093 487.09 136.259C493.128 135.198 499.877 136 506 136C499.081 133.097 488.48 135 481 135C474.302 135 467.661 133.884 461 134.015C448.696 134.258 436.31 135.898 424 136C425.506 136.683 426.315 136.826 428 137C422.617 139.227 417.658 137.801 412 138.039C398.774 138.597 385.136 138.34 372 140C378.194 142.599 387.314 141 394 141C407.459 141 420.652 142.696 434 143C427.135 145.029 420.009 143.565 413 143.39C407.11 143.242 399.988 144.6 394 145.17C372.974 147.172 352.04 147.649 331 149.09C320.216 149.828 309.864 151 299 151C286.344 151 273.586 152.633 261 153.83C256.845 154.226 250.931 152.646 248 156C240.842 153.597 231.574 154.021 224 154C229.056 156.142 235.541 155.996 241 156L241 158L216 158C218.729 157.19 221.15 157.021 224 157C220.342 155.468 216.846 156.464 213 156.83C208.05 157.301 202.968 157 198 157C185.425 157 172.504 157.118 160 155.895C156.18 155.522 152.846 153.307 149 153.194C139.079 152.904 126.32 157.531 117 154C118.479 153.014 118.203 153 120 153L119 150C117.604 150.661 117.186 150.964 116 152L110 135L121 134C120.313 129.419 118.263 125.418 117 121C120.455 120.99 123.632 120.802 127 120C124.622 111.762 121.412 109.006 113 109z"/>
<path style="fill:#f0efeb; stroke:none;" d="M794 109C795.248 109.685 795.549 109.749 797 110C795.752 109.315 795.452 109.251 794 109M800 119C800.779 119.354 802.097 120.237 803.102 120.272C808.542 120.463 805.75 113.352 801.323 116.754C800.638 117.28 800.362 118.312 800 119z"/>
<path style="fill:#453e33; stroke:none;" d="M128 121C129.441 124.462 131.079 129.86 134.39 131.972C137.432 133.912 142.547 133 146 133C143.394 123.05 137.832 119.175 128 121z"/>
<path style="fill:#f0efeb; stroke:none;" d="M808.667 120.333C808.222 120.778 809.278 120.722 809.333 120.667C809.778 120.222 808.722 120.278 808.667 120.333M730 121C732.052 121.874 733.747 121.953 736 122C733.948 121.126 732.253 121.047 730 121M755.667 121.333C755.222 121.778 756.278 121.722 756.333 121.667C756.778 121.222 755.722 121.278 755.667 121.333M759 121L760 122L759 121M687.333 122.667C687.278 122.722 687.222 123.778 687.667 123.333C687.722 123.278 687.778 122.222 687.333 122.667M690 124L696 124C694.053 121.769 691.947 121.769 690 124M697 122C698.929 124.558 700.905 124.227 704 124C701.767 122.991 699.396 122.595 697 122M739 122C740.769 122.779 742.036 122.912 744 123C742.231 122.221 740.964 122.088 739 122M805 122C806.92 124.957 808.696 124.883 812 124C809.717 122.778 807.572 122.348 805 122M706 123C709.603 125.461 713.757 125 718 125C714.29 123.334 710.051 123.084 706 123M748 123C750.052 123.874 751.747 123.953 754 124C751.948 123.126 750.253 123.047 748 123M757 123L757 125L759 125L759 123L757 123M760 124C761.248 124.685 761.548 124.749 763 125C761.752 124.315 761.452 124.251 760 124M695 125C696.314 126.618 696.877 126.693 699 127C697.603 125.844 696.768 125.448 695 125M799 130C799.685 128.752 799.749 128.452 800 127L804 127L802 128C804.163 128.676 805.732 128.387 808 128C806.466 129.023 806.598 128.805 806 130C811.605 134.506 821.996 133.981 829 134C826.141 132.625 823.045 132.458 820.039 131.471C814.634 129.697 800.666 120.02 799 130M700 126C701.648 126.924 703.175 127.449 705 128C703.46 126.197 702.402 126.168 700 126M822 127C823.248 127.685 823.549 127.749 825 128C823.752 127.315 823.452 127.251 822 127z"/>
<path style="fill:#453e33; stroke:none;" d="M474 128C475.506 128.683 476.315 128.826 478 129L478 133C478.779 131.231 478.912 129.964 479 128L474 128z"/>
<path style="fill:#f0efeb; stroke:none;" d="M756 128L757 129L756 128M759 128C760.556 129.813 761.444 129.813 763 128L759 128M764 129L765 130L764 129M767 129C767.98 130.783 767.908 130.594 770 131C768.861 129.985 768.389 129.691 767 129M771.333 129.667C771.278 129.722 771.222 130.778 771.667 130.333C771.722 130.278 771.778 129.222 771.333 129.667M775 130C776.789 131.422 777.706 131.697 780 132C778.352 131.076 776.825 130.551 775 130z"/>
<path style="fill:#453e33; stroke:none;" d="M236 131C237.154 133.249 237.751 133.846 240 135C238.846 132.751 238.249 132.154 236 131z"/>
<path style="fill:#f0efeb; stroke:none;" d="M782.333 131.667C782.278 131.722 782.222 132.778 782.667 132.333C782.722 132.278 782.778 131.222 782.333 131.667M764 132L765 133L764 132M767 132C768.453 133.843 769.735 134.259 772 135C770.547 133.157 769.265 132.742 767 132M784.667 132.333C784.222 132.778 785.278 132.722 785.333 132.667C785.778 132.222 784.722 132.278 784.667 132.333z"/>
<path style="fill:#453e33; stroke:none;" d="M123 134C123.608 138.059 125.31 146.419 129.418 148.396C132.453 149.856 136.841 148.399 140 148C139.572 143.826 137.841 136.594 133.61 134.603C130.664 133.218 126.182 134 123 134M396 135C397.506 135.683 398.315 135.826 400 136C398.494 135.317 397.685 135.174 396 135M707 136C705.682 138.327 704.739 140.433 704 143C706.062 140.85 707.545 138.602 709 136L707 136M581 137C582.248 137.685 582.549 137.749 584 138C582.752 137.315 582.452 137.251 581 137z"/>
<path style="fill:#f0efeb; stroke:none;" d="M429 139C430.248 139.685 430.549 139.749 432 140C430.752 139.315 430.452 139.251 429 139z"/>
<path style="fill:#453e33; stroke:none;" d="M573 140C573.904 144.217 578.356 143 582 143L582 141L573 140M732 142C732.482 144.364 732.636 144.518 735 145C735 143.203 734.986 143.479 734 142L732 142M493 146C497.042 147.696 501.361 146.243 505 149C507.246 147.897 507.908 147.678 510 149C513.311 147.158 516.259 147.013 520 147L520 145C511.024 144.927 501.787 143.403 493 146M760 144C760.944 146.987 762.286 149.376 764 152C764.034 148.652 762.333 146.31 760 144M323 145C324.769 145.779 326.036 145.912 328 146C326.231 145.221 324.964 145.088 323 145M568 145C572.215 146.769 577.464 146 582 146L608 146C603.785 144.231 598.536 145 594 145L568 145M286 147L286 150L299 150C295.568 148.56 291.7 149 288 149C290.729 148.19 293.15 148.021 296 148C292.837 146.673 289.414 147 286 147M533 147L533 149L535 149L535 147L533 147M767 147L766 151C767.146 149.36 767.393 148.924 767 147M536 148C543.4 151.105 554.993 149 563 149L624 149C616.6 145.895 605.007 148 597 148L536 148M216 151C223.154 154.002 232.342 151.177 240 153C244.262 149.771 250.83 151 256 151C252.041 149.339 247.26 150 243 150C233.949 150 225 150.925 216 151z"/>
<path style="fill:#f0efeb; stroke:none;" d="M627 153C628.769 153.779 630.036 153.912 632 154C620.005 158.492 607.171 157.644 595.039 160.975C590.313 162.272 587.969 167.086 583 167.852C576.607 168.837 570.349 166.077 564 166.079C553.634 166.082 542.194 169.079 532 171L532 178L524 178L524 175L530 175L530 171C528.217 171.98 528.406 171.908 528 174C526.42 173.316 526.223 173.195 525 172C518.999 173.114 513.083 173 507 173C508.139 174.015 508.612 174.309 510 175C505.797 181.879 516.859 181 521 181L521 183L516 183C517.769 183.779 519.036 183.912 521 184L521 186L504 186L504 188C509.878 188 527.142 191.435 522 181C526.865 181.001 531.274 180.508 535 184C531.317 184.033 528.24 183.83 526 187C530.372 186.95 534.66 188.44 539 189C536.582 189.722 534.528 189.948 532 190C533.506 190.683 534.315 190.826 536 191C533.175 191.615 530.873 191.344 528 191C528.643 195.656 530.884 199.517 532 204C535.014 203.381 537.908 202.265 541 202.054C544.258 201.831 548.574 202.838 551.606 201.397C555.725 199.439 556.845 192.878 561.015 190.133C565.828 186.965 571.646 185.639 577 183.715C583.283 181.456 589.504 178.543 596 177C591.256 175.298 584.975 177.463 580 177.925C572.741 178.6 565.331 180.539 558.039 180.586C554.654 180.607 551.454 179.102 548 179C558.62 175.405 570.901 175.174 582 173.845C591.367 172.723 600.532 170.078 610 170L598 175C604.463 176.083 614.092 170.142 620 167.549C626.776 164.576 634.069 162.718 641 160.128C648.604 157.286 656.073 153.878 664 152C660.05 150.346 656.144 151.62 652 151.91C643.634 152.497 635.402 153 627 153z"/>
<path style="fill:#453e33; stroke:none;" d="M241.667 152.333C241.222 152.778 242.278 152.722 242.333 152.667C242.778 152.222 241.722 152.278 241.667 152.333z"/>
<path style="fill:#f0efeb; stroke:none;" d="M603 153C606.617 155.74 610.138 155.009 614 153C610.569 151.769 606.651 152.925 603 153z"/>
<path style="fill:#453e33; stroke:none;" d="M849 152C849.602 156.598 850.094 165.565 855 167C854.668 162.004 852.925 156.963 852 152L849 152M855 152C855.105 157.079 856.061 162.018 857 167L869 167C867.931 162.324 866.616 157.771 866 153L855 152M158 154C163.585 156.343 170.147 154.251 176 154C170.546 151.712 163.704 153.279 158 154M868 153L871 167C874.763 167.01 878.3 167.313 882 168C881.989 163.833 882.445 157.023 878.49 154.318C875.666 152.387 871.239 153.002 868 153z"/>
<path style="fill:#f0efeb; stroke:none;" d="M616 156L625 155C621.911 153.704 618.307 153.359 616 156M136 156C139.431 157.231 143.349 156.075 147 156C143.389 154.488 139.771 155.3 136 156M451 159C452.769 159.779 454.036 159.912 456 160C452.739 160.964 449.174 160.628 446.004 161.843C442.751 163.09 440.191 165.615 437 167C442.762 169.417 450.791 167 457 167C467.697 167 478.252 168.435 489 167.961C494.063 167.737 498.928 166.218 504 166L504 168L498 168C500.613 169.098 503.165 168.993 506 169C504.965 170.186 504.661 170.604 504 172C505.924 170.999 506.098 170.923 507 169C512.254 170.251 517.799 170.537 523 169C520.694 165.727 518.234 157.143 514.582 155.693C509.531 153.688 499.457 156.99 494 157.335C479.685 158.24 465.199 155.62 451 159M858 155L859 164L865 164C864.936 160.922 864.562 158.025 864 155L858 155M250.667 156.333C250.222 156.778 251.278 156.722 251.333 156.667C251.778 156.222 250.722 156.278 250.667 156.333M596 157C598.529 158.04 600.176 158.093 602 156L596 157M872 156L873 165L880 165L878 156L872 156M109 157L109 159L111 159L111 157L109 157M128 172C127.622 174.551 127.012 176.627 126 179C124.999 177.076 124.923 176.902 123 176L123 184C124.783 183.02 124.594 183.092 125 181C132.464 182.752 140.824 180.625 148.039 178.701C151.718 177.72 155.673 176.625 158 180C160.634 178.785 163.079 176.78 166.004 176.317C168.973 175.847 172.024 176.889 175 176.946C181.504 177.071 188.501 176.914 195 176.741C202.65 176.537 210.231 174.472 217.83 174.165C231.333 173.62 245.321 174 259 174C255.811 179.204 247.646 180.394 242 182C245.416 183.968 258.096 183.218 259 179L262 180L262 163C249.259 163 236.728 165 224 165C227.411 163.707 230.779 162.758 234 161C225.254 157.33 211.47 160.217 202 159.985C189.464 159.678 175.459 155.598 163 157.619C159.747 158.146 157.046 160.092 154 161.191C144.893 164.475 136.73 168.017 128 172M119.333 158.667C119.278 158.722 119.222 159.778 119.667 159.333C119.722 159.278 119.778 158.222 119.333 158.667M122 158C123.248 158.685 123.548 158.749 125 159C123.752 158.315 123.452 158.251 122 158M142 158C143.506 158.683 144.315 158.826 146 159C144.494 158.317 143.685 158.174 142 158M127 159C128.248 159.685 128.548 159.749 130 160C128.752 159.315 128.452 159.251 127 159z"/>
<path style="fill:#453e33; stroke:none;" d="M490 159C491.248 159.685 491.548 159.749 493 160C491.752 159.315 491.452 159.251 490 159z"/>
<path style="fill:#f0efeb; stroke:none;" d="M566 161L566 163C572.03 163.004 579.039 165.111 584.911 163.582C587.443 162.922 589.682 161.168 592 160C584.334 156.783 574.104 160.933 566 161M88 160C93.4692 162.295 101.099 161 107 161C101.531 158.705 93.9013 160 88 160M109.667 160.333C109.222 160.778 110.278 160.722 110.333 160.667C110.778 160.222 109.722 160.278 109.667 160.333z"/>
<path style="fill:#453e33; stroke:none;" d="M793.667 160.333C793.222 160.778 794.278 160.722 794.333 160.667C794.778 160.222 793.722 160.278 793.667 160.333M192 164C195.624 165.517 199.186 164.611 203 164.155C209.982 163.32 216.996 162.553 224 162C213.918 157.769 202.206 163.887 192 164M789 161C792.432 165.66 798.742 164.999 804 165L802 162C797.33 162.768 793.588 161.674 789 161z"/>
<path style="fill:#f0efeb; stroke:none;" d="M264 163L265 181L269 181L269 176C269.562 177.801 269.824 179.122 270 181C273.243 180.431 275.3 180.031 278 182C284.469 180.612 290.427 179.322 297 178.424C299.509 178.081 303.183 178.331 305.012 176.258C307.844 173.046 307.916 166.045 308 162C293.393 163.153 278.689 163 264 163z"/>
<path style="fill:#453e33; stroke:none;" d="M176 165L176 167C180.08 166.989 183.963 166.51 188 166C184.303 164.448 179.983 165 176 165M953 165C956.494 167.641 960.756 168.994 965 170C961.522 167.368 957.286 165.762 953 165M505 167C506.769 167.779 508.036 167.912 510 168C508.231 167.221 506.964 167.088 505 167M518 167L519 168L518 167z"/>
<path style="fill:#f0efeb; stroke:none;" d="M448 168C449.506 168.683 450.315 168.826 452 169C450.494 168.317 449.685 168.174 448 168z"/>
<path style="fill:#453e33; stroke:none;" d="M801 168L801 172C801.71 170.24 801.71 169.76 801 168z"/>
<path style="fill:#f0efeb; stroke:none;" d="M449 170C455.902 172.977 464.617 172 472 172C465.946 169.46 455.655 170.055 449 170M491 170C492.248 170.685 492.548 170.749 494 171C492.752 170.315 492.452 170.251 491 170z"/>
<path style="fill:#453e33; stroke:none;" d="M778 170L778 172L780 172L780 170L778 170M966 170C966.545 171.635 966.365 171.455 968 172L968 170L966 170M764 173C767.375 174.807 771.216 175.49 775 176C772.541 172.163 768.175 171.946 764 173M975 174L976 175L975 174z"/>
<path style="fill:#f0efeb; stroke:none;" d="M192 180C198.389 182.681 207.306 180.076 214 179.285C227.725 177.664 242.18 176.002 256 176C250.64 173.751 244.6 175.715 239 175.961C226.758 176.497 214.35 177.163 202.17 178.414C198.667 178.774 195.617 179.96 192 180M708 175C704.857 180.124 699.411 179 694 179C698.795 181.536 704.221 180.076 704 187C706.97 186.367 709.046 186.28 712 187C713.002 180.864 717.655 181.015 723 181C719.133 179.362 714.207 179.181 710 179L710 175L708 175M564 177C567.88 178.627 571.954 177.751 576 177C572.135 175.393 568.07 176.679 564 177M181 177C183.89 178.213 186.874 177.998 190 178C187.11 176.787 184.126 177.002 181 177M419 187C422.937 187 427.128 186.58 431 187.333C434.074 187.931 436.973 189.58 440 190C443.81 190.529 447.305 189.359 451 189C459.81 188.144 469.143 189 478 189C487.548 189 497.595 191.595 501 181C482.5 175.379 461.13 178 442 178C432.186 178 424.187 177.108 419 187z"/>
<path style="fill:#453e33; stroke:none;" d="M538 179L537 183L544 183L541 181C542.479 180.014 542.203 180 544 180C541.948 179.126 540.253 179.047 538 179M793 179L793 181L795 181L795 179L793 179M547 182C549.093 181.594 549.02 181.783 550 180C548.42 180.684 548.223 180.805 547 182z"/>
<path style="fill:#f0efeb; stroke:none;" d="M142 183C139.943 184.582 138.613 184.826 136 185C140.213 186.764 144.575 185.254 149 185.039C161.683 184.422 174.301 182.001 187 182C182.454 180.092 177.75 181.545 173 181.791C170.313 181.93 167.684 181.191 165 181.39C156.869 181.992 150.292 184.539 142 183M694 182C696.331 182.984 698.457 182.981 701 183C698.668 182.015 696.543 182.019 694 182M716 182L716 184L723 184C720.689 182.607 718.691 182.235 716 182z"/>
<path style="fill:#453e33; stroke:none;" d="M430 183C427.943 184.582 426.612 184.826 424 185C427.959 186.661 432.737 186 437 186C434.764 184.515 432.591 183.713 430 183M558 186L558 188L560 188L560 186L558 186z"/>
<path style="fill:#f0efeb; stroke:none;" d="M791 192C796.592 190.669 802.283 191 808 191L808 187C802.264 186.547 789.427 182.646 791 192M269 190L269 194C258.012 191.856 245.222 195.907 234 196C243.41 199.949 256.591 191.629 265 198C261.959 197.1 259.169 197.008 256 197C259.406 198.446 263.399 198.876 267 200C263.004 203.196 266.797 206.078 270 208L269 209C270.452 208.749 270.752 208.685 272 208C271.105 205.958 270.464 204.172 270 202L275 205C274.341 202.391 273.313 200.36 272 198L288 198L288 196L272 196C279.809 193.67 300.845 189.919 304 200C306.653 194.543 307.139 191.377 314 191C309.269 189.015 303.954 190.359 299 190.83C291.411 191.552 283.627 192 276 192C284.266 188.904 295.191 189.073 304 189C299.27 187.015 293.953 188.357 289 188.83C282.373 189.463 275.661 189.999 269 190M527 188L528 189L527 188M954 188C955.249 188.685 955.548 188.749 957 189C955.752 188.315 955.451 188.251 954 188z"/>
<path style="fill:#453e33; stroke:none;" d="M54.6667 191.333C54.2222 191.778 55.2778 191.722 55.3333 191.667C55.7778 191.222 54.7222 191.278 54.6667 191.333z"/>
<path style="fill:#f0efeb; stroke:none;" d="M232 193C236.385 194.84 241.389 193.83 246 193.285C252.564 192.511 259.389 192.004 266 192C261.787 190.232 257.415 191.41 253 191.83C246.147 192.482 238.88 192.943 232 193M697.667 191.333C697.222 191.778 698.278 191.722 698.333 191.667C698.778 191.222 697.722 191.278 697.667 191.333z"/>
<path style="fill:#453e33; stroke:none;" d="M536 192C537.248 192.685 537.548 192.749 539 193C537.752 192.315 537.452 192.251 536 192M551 192C551.176 193.878 551.438 195.199 552 197C553.524 194.586 553.251 193.705 551 192z"/>
<path style="fill:#f0efeb; stroke:none;" d="M440 193C442.613 194.098 445.165 193.993 448 194C445.387 192.902 442.836 193.007 440 193M408 201L412 198C406.294 196.434 401.331 203.132 400 208C403.49 207.776 406.001 208.062 408 205L409 209L411 209L411 204C414.177 204.815 417.052 205.308 419 208C420.396 207.339 420.814 207.036 422 206C424.419 207.594 425.253 206.668 426 204L427 208C429.461 204.397 429 200.243 429 196C424.211 196.223 421.449 198.564 417.08 199.817C414.237 200.633 410.939 200.466 408 201M603 196L603 198C621.69 199.475 640.249 199.555 659 200.015C678.13 200.483 696 200.53 715 197C711.301 195.448 706.983 196 703 196L681 196C664.983 196 648.946 197.019 633 197C623.011 196.988 613.042 196 603 196M725 198C727.052 198.874 728.747 198.953 731 199C728.948 198.126 727.253 198.047 725 198M457 199C459.331 199.984 461.457 199.981 464 200C461.668 199.015 459.543 199.019 457 199M276 200L276 206C277.522 203.704 278.557 202.302 281 201C279.231 200.221 277.964 200.088 276 200M283.667 200.333C283.222 200.778 284.278 200.722 284.333 200.667C284.778 200.222 283.722 200.278 283.667 200.333M473 200L473 203L476 203L476 200L473 200z"/>
<path style="fill:#453e33; stroke:none;" d="M811 200C810.274 202.179 810.561 201.78 809 201C810.572 203.742 812.391 202.841 813 200L811 200M817 200L817 204L821 203L821 201L817 200z"/>
<path style="fill:#f0efeb; stroke:none;" d="M287 204L290 202C287.86 200.882 287.473 201.749 287 204M457 205L464 205L464 201C460.308 201.12 458.223 201.313 457 205z"/>
<path style="fill:#453e33; stroke:none;" d="M804 201L804 203L808 203L808 201L804 201M814 201C814.545 202.635 814.365 202.455 816 203L816 201L814 201M822.333 201.667C822.278 201.722 822.222 202.778 822.667 202.333C822.722 202.278 822.778 201.222 822.333 201.667M824 201L824 203L826 203C825.455 201.365 825.635 201.545 824 201M829 201L829 204C829.696 202.446 829.696 202.554 829 201z"/>
<path style="fill:#f0efeb; stroke:none;" d="M255.333 202.667C255.278 202.722 255.222 203.778 255.667 203.333C255.722 203.278 255.778 202.222 255.333 202.667M281 202C281.931 204.741 282.819 206.104 285 208C284.29 205.056 283.573 203.608 281 202M560.333 202.667C560.278 202.722 560.222 203.778 560.667 203.333C560.722 203.278 560.778 202.222 560.333 202.667M242.333 203.667C242.278 203.722 242.222 204.778 242.667 204.333C242.722 204.278 242.778 203.222 242.333 203.667z"/>
<path style="fill:#453e33; stroke:none;" d="M734 203C734.299 205.392 734.32 206.044 733 208L733 210C734.038 211.154 734.038 210.846 733 212C736.727 213.524 741.223 211.68 744.698 214.104C747.261 215.893 748.081 219.605 750 222C750.602 217.618 750.211 214.261 752 210C746.68 208.968 741.404 207.441 736 207C737.036 205.814 737.339 205.396 738 204L734 203M782 203L782 208L788 208L788 203L782 203z"/>
<path style="fill:#f0efeb; stroke:none;" d="M854 204L855 209C857.396 208.998 861.374 209.653 863.353 207.977C864.926 206.644 864.226 204.45 862.562 203.603C859.978 202.286 856.559 203.244 854 204z"/>
<path style="fill:#453e33; stroke:none;" d="M880.667 203.333C880.222 203.778 881.278 203.722 881.333 203.667C881.778 203.222 880.722 203.278 880.667 203.333M809 204C809.899 206.124 809.876 206.101 812 207C811.098 205.077 810.924 205.001 809 204z"/>
<path style="fill:#f0efeb; stroke:none;" d="M844 204C846.088 209.322 851.658 210.147 853 204L844 204M280 205L280 210C280.83 207.97 280.83 207.03 280 205M288 205L289 206L288 205z"/>
<path style="fill:#453e33; stroke:none;" d="M807.333 205.667C807.278 205.722 807.222 206.778 807.667 206.333C807.722 206.278 807.778 205.222 807.333 205.667M815.333 205.667C815.278 205.722 815.222 206.778 815.667 206.333C815.722 206.278 815.778 205.222 815.333 205.667M817.333 205.667C817.278 205.722 817.222 206.778 817.667 206.333C817.722 206.278 817.778 205.222 817.333 205.667M819 205C820.446 207.283 821.31 207.582 824 208L824 212L829 212L829 209L825 209C824.071 205.669 822.257 205.424 819 205M826 205C826.578 207.697 827.261 207.789 830 208L829 205C827.387 205.982 827.507 206.11 826 205z"/>
<path style="fill:#f0efeb; stroke:none;" d="M251 206C251.684 207.58 251.805 207.777 253 209C252.309 207.612 252.015 207.139 251 206M242.667 207.333C242.222 207.778 243.278 207.722 243.333 207.667C243.778 207.222 242.722 207.278 242.667 207.333M264 207L263 209C264.263 208.029 264.392 208.306 264 207M584.667 208.333C584.222 208.778 585.278 208.722 585.333 208.667C585.778 208.222 584.722 208.278 584.667 208.333z"/>
<path style="fill:#453e33; stroke:none;" d="M809 209L809 211L811 211L811 209L809 209M813 209C815.072 211.563 817.794 211.735 821 212L821 210L813 209z"/>
<path style="fill:#f0efeb; stroke:none;" d="M556 210C558.283 211.222 560.428 211.652 563 212C561.074 209.792 558.875 210.032 556 210M740 210C741.506 210.683 742.315 210.826 744 211C742.494 210.317 741.685 210.174 740 210M748.333 211.667C748.278 211.722 748.222 212.778 748.667 212.333C748.722 212.278 748.778 211.222 748.333 211.667z"/>
<path style="fill:#453e33; stroke:none;" d="M850 211C853.432 213.988 857.665 214.229 862 215.235C870.811 217.282 878.913 219 888 219C884.009 217.31 879.343 217.615 875.089 216.755C866.71 215.063 858.405 212.735 850 211z"/>
<path style="fill:#f0efeb; stroke:none;" d="M567 212L568 213L567 212z"/>
<path style="fill:#453e33; stroke:none;" d="M729.667 212.333C729.222 212.778 730.278 212.722 730.333 212.667C730.778 212.222 729.722 212.278 729.667 212.333M889 213L889 215L892 215L892 213L889 213M730 214L730 216L733 216L733 214L730 214M736 214C737.458 215.081 738.248 215.436 740 216C738.686 214.382 738.123 214.307 736 214z"/>
<path style="fill:#f0efeb; stroke:none;" d="M510 216L511 217L510 216M519 216L517 217C518.482 217.791 519.796 217.87 519 216M521 217L521 224C518.956 222.701 518.569 222.328 518 220L514 220L515 223L508 225C508.058 222.216 508.352 219.709 509 217C502.984 219.302 496.479 220.106 490 220C490.482 222.364 490.636 222.518 493 223C493 228.374 492.605 232.856 491 238C500.943 232.664 513.006 237.951 523 231L523 234C534.177 230.307 546.904 232.044 558 228L558 226C546.297 222.161 533.579 214.674 521 217z"/>
<path style="fill:#453e33; stroke:none;" d="M734 218L734 220L740 220L740 218L734 218z"/>
<path style="fill:#f0efeb; stroke:none;" d="M519 219L520 220L519 219z"/>
<path style="fill:#453e33; stroke:none;" d="M746.333 219.667C746.278 219.722 746.222 220.778 746.667 220.333C746.722 220.278 746.778 219.222 746.333 219.667M771 225C774.986 224.399 777.927 223.584 780 220C776.51 220.836 771.808 221.231 771 225M496 221C498.052 221.874 499.747 221.953 502 222C499.948 221.126 498.253 221.047 496 221z"/>
<path style="fill:#f0efeb; stroke:none;" d="M512 221L513 222L512 221M519 221L520 222L519 221M390.667 222.333C390.222 222.778 391.278 222.722 391.333 222.667C391.778 222.222 390.722 222.278 390.667 222.333M393 222L394 223L393 222M240 223C241.769 223.779 243.036 223.912 245 224C243.231 223.221 241.964 223.088 240 223z"/>
<path style="fill:#453e33; stroke:none;" d="M513 224C514.969 225.063 516.798 225.532 519 226C517.246 223.573 515.931 223.603 513 224M747.333 223.667C747.278 223.722 747.222 224.778 747.667 224.333C747.722 224.278 747.778 223.222 747.333 223.667z"/>
<path style="fill:#f0efeb; stroke:none;" d="M256 224C258.613 225.098 261.165 224.993 264 225L264 228L256 228L256 232C260.21 232.332 263.823 232.96 268 232C268.032 234.875 267.792 237.074 270 239C268.722 228.897 266.876 224.008 256 224M355 225C361.159 227.585 371.58 226.528 378 225C372.071 222.512 361.106 223.195 355 225M385.333 224.667C385.278 224.722 385.222 225.778 385.667 225.333C385.722 225.278 385.778 224.222 385.333 224.667z"/>
<path style="fill:#453e33; stroke:none;" d="M747.333 226.667C747.278 226.722 747.222 227.778 747.667 227.333C747.722 227.278 747.778 226.222 747.333 226.667M508 232L519 232C516.565 226.641 510.28 226.311 508 232M519.333 227.667C519.278 227.722 519.222 228.778 519.667 228.333C519.722 228.278 519.778 227.222 519.333 227.667z"/>
<path style="fill:#f0efeb; stroke:none;" d="M392 228L393 229L392 228M271 229C271.094 231.205 271.356 232.894 272 235C273.267 233.457 273.489 232.952 274 231C272.7 231.65 273 231.147 273 233L271 229M273.667 229.333C273.222 229.778 274.278 229.722 274.333 229.667C274.778 229.222 273.722 229.278 273.667 229.333M276 229L280 232C280.438 229.383 278.363 229.275 276 229z"/>
<path style="fill:#453e33; stroke:none;" d="M750 229L750 231L752 231L752 229L750 229z"/>
<path style="fill:#f0efeb; stroke:none;" d="M230.667 230.333C230.222 230.778 231.278 230.722 231.333 230.667C231.778 230.222 230.722 230.278 230.667 230.333M284 230L284 236C285.978 234.352 286.312 232.5 287 230L284 230z"/>
<path style="fill:#453e33; stroke:none;" d="M735 236C738.111 235.599 741.031 235.006 744 234C742.231 233.221 740.964 233.088 739 233L743 232C739.074 230.532 736.76 232.51 735 236M746 231C748.057 232.582 749.387 232.826 752 233C749.987 231.775 748.342 231.355 746 231z"/>
<path style="fill:#f0efeb; stroke:none;" d="M276.667 232.333C276.222 232.778 277.278 232.722 277.333 232.667C277.778 232.222 276.722 232.278 276.667 232.333M288 232L288 237C288.83 234.969 288.83 234.031 288 232M294 232L294 236C294.71 234.241 294.71 233.759 294 232z"/>
<path style="fill:#453e33; stroke:none;" d="M734 232C733.014 233.478 733 233.203 733 235C734.082 233.616 734.191 233.662 734 232z"/>
<path style="fill:#f0efeb; stroke:none;" d="M292 233L292 236C292.696 234.446 292.696 234.554 292 233M276 235L276 237L278 237L278 235L276 235z"/>
<path style="fill:#453e33; stroke:none;" d="M740 236L739 244L734 244C734.308 241.637 734.83 240.075 736 238L733 237C732.551 240.817 732.882 244.214 733 248L729 244C728.202 251.801 723.15 256.919 727.264 264.985C731.831 273.94 747.454 273.822 751.258 263.995C754.336 256.041 748.144 252.192 745.603 245.83C744.264 242.479 745.201 238.355 746 235L740 236z"/>
<path style="fill:#f0efeb; stroke:none;" d="M272.333 236.667C272.278 236.722 272.222 237.778 272.667 237.333C272.722 237.278 272.778 236.222 272.333 236.667M400 237C402.217 240.439 404.999 241.659 409 241C406.201 239.119 403.24 237.927 400 237z"/>
<path style="fill:#453e33; stroke:none;" d="M731 237C730.043 238.517 729.613 239.339 729 241C730.466 239.505 730.961 239.038 731 237M737 237L738 238L737 237z"/>
<path style="fill:#f0efeb; stroke:none;" d="M743 237C742.029 240.31 742.029 242.69 743 246C744.256 243.006 744.256 239.994 743 237M289.333 238.667C289.278 238.722 289.222 239.778 289.667 239.333C289.722 239.278 289.778 238.222 289.333 238.667M376 238C377.248 238.685 377.548 238.749 379 239C377.752 238.315 377.452 238.251 376 238M386 242C386.794 245.317 388.487 248.499 387.75 252C387.232 254.461 385.379 255.531 385 258C383.977 256.466 384.195 256.598 383 256C379.996 259.089 378.356 260.06 375 257L370 258C380.788 268.766 395.367 252.771 386 242M410 242C410.98 243.783 410.908 243.594 413 244C411.777 242.805 411.58 242.684 410 242M375 243L372 248L375 247L375 253C378.41 252.737 379.901 252.321 381 249L376 252C376.377 249.297 376.145 246.575 377 244L375 243M403 246L408 245C405.7 244.084 404.623 244.121 403 246M383 246L382 255C385.191 252.568 385.154 249.208 383 246M366 248L366 251C366.696 249.446 366.696 249.554 366 248M371.667 250.333C371.222 250.778 372.278 250.722 372.333 250.667C372.778 250.222 371.722 250.278 371.667 250.333M736.109 253.032C727.933 257.508 734.782 269.84 742.891 265.667C750.931 261.529 743.906 248.763 736.109 253.032M373 253L374 254L373 253z"/>
<path style="fill:#453e33; stroke:none;" d="M734 258C737.479 255.717 739.907 255.338 744 256C740.214 253.136 736.297 253.835 734 258z"/>
<path style="fill:#f0efeb; stroke:none;" d="M368.333 255.667C368.278 255.722 368.222 256.778 368.667 256.333C368.722 256.278 368.778 255.222 368.333 255.667M374 255C375.377 255.911 376.44 256.404 378 257C376.686 255.382 376.123 255.307 374 255M380 255L381 256L380 255z"/>
<path style="fill:#453e33; stroke:none;" d="M744.333 257.667C744.278 257.722 744.222 258.778 744.667 258.333C744.722 258.278 744.778 257.222 744.333 257.667M382.667 258.333C382.222 258.778 383.278 258.722 383.333 258.667C383.778 258.222 382.722 258.278 382.667 258.333M739 259L740 260L739 259M734.333 260.667C734.278 260.722 734.222 261.778 734.667 261.333C734.722 261.278 734.778 260.222 734.333 260.667M737.333 260.667C737.278 260.722 737.222 261.778 737.667 261.333C737.722 261.278 737.778 260.222 737.333 260.667M744 261L745 262L744 261M739 262L740 263L739 262M735.667 263.333C735.222 263.778 736.278 263.722 736.333 263.667C736.778 263.222 735.722 263.278 735.667 263.333z"/>
</svg>
