<svg xmlns="http://www.w3.org/2000/svg" xmlns:xlink="http://www.w3.org/1999/xlink" id="svg2" version="1.1" viewBox="-200 0 1416.23 443.25"><title id="title5174">bunny eating carrot</title><defs id="defs4"><linearGradient id="linearGradient4868"><stop id="stop4870" offset="0" style="stop-color:#c8beb7"/><stop id="stop4872" offset="1" style="stop-color:#917c6f"/></linearGradient><linearGradient id="linearGradient3391"><stop id="stop3393" offset="0" style="stop-color:#447821"/><stop id="stop3395" offset="1" style="stop-color:#5aa02c"/></linearGradient><linearGradient id="linearGradient3397" x1="310.32" x2="296.54" y1="370" y2="434.48" gradientUnits="userSpaceOnUse" xlink:href="#linearGradient3391"/><linearGradient id="linearGradient3399" x1="250.37" x2="346.84" y1="434.65" y2="351.42" gradientUnits="userSpaceOnUse" xlink:href="#linearGradient3391"/><clipPath id="clipPath4199" clipPathUnits="userSpaceOnUse"><use id="use4201" width="1" height="1" x="0" y="0" xlink:href="#path3338"/></clipPath><filter id="filter4472" color-interpolation-filters="sRGB"><feGaussianBlur id="feGaussianBlur4474" stdDeviation="1.274"/></filter><clipPath id="clipPath4485" clipPathUnits="userSpaceOnUse"><use id="use4487" width="1" height="1" x="0" y="0" xlink:href="#path3316"/></clipPath><filter id="filter4499" width="1.623" height="1.575" x="-.312" y="-.287" color-interpolation-filters="sRGB"><feGaussianBlur id="feGaussianBlur4501" stdDeviation="1.271"/></filter><filter id="filter4503" width="1.623" height="1.575" x="-.312" y="-.287" color-interpolation-filters="sRGB"><feGaussianBlur id="feGaussianBlur4505" stdDeviation="1.271"/></filter><filter id="filter4513" color-interpolation-filters="sRGB"><feGaussianBlur id="feGaussianBlur4515" stdDeviation=".21"/></filter><linearGradient id="linearGradient4596" x1="353.31" x2="423.31" y1="325.35" y2="324.25" gradientUnits="userSpaceOnUse"><stop id="stop4592" offset="0" style="stop-color:#fca"/><stop id="stop4594" offset="1" style="stop-color:#f95"/></linearGradient><filter id="filter4886" color-interpolation-filters="sRGB"><feGaussianBlur id="feGaussianBlur4888" stdDeviation="2.918"/></filter><clipPath id="clipPath4892" clipPathUnits="userSpaceOnUse"><use id="use4894" width="1" height="1" x="0" y="0" xlink:href="#path3352"/></clipPath><filter id="filter4927" width="1.129" height="1.241" x="-.064" y="-.121" color-interpolation-filters="sRGB"><feGaussianBlur id="feGaussianBlur4929" stdDeviation="3.192"/></filter><linearGradient id="linearGradient4961" x1="344.93" x2="341.03" y1="355.11" y2="344.97" gradientUnits="userSpaceOnUse"><stop id="stop4965" offset="0" style="stop-color:#165016"/><stop id="stop4967" offset="1" style="stop-color:#0a4b0a;stop-opacity:0"/></linearGradient><linearGradient id="linearGradient4971" x1="360.52" x2="357.79" y1="355.5" y2="336.2" gradientUnits="userSpaceOnUse"><stop id="stop4975" offset="0" style="stop-color:#0b280b"/><stop id="stop4977" offset="1" style="stop-color:#217821"/></linearGradient><filter id="filter4991" width="1.083" height="1.539" x="-.042" y="-.269" color-interpolation-filters="sRGB"><feGaussianBlur id="feGaussianBlur4993" stdDeviation="1.552"/></filter><filter id="filter5035" width="1.201" height="1.298" x="-.1" y="-.149" color-interpolation-filters="sRGB"><feGaussianBlur id="feGaussianBlur5037" stdDeviation="2.068"/></filter><filter id="filter5043" width="1.266" height="1.182" x="-.133" y="-.091" color-interpolation-filters="sRGB"><feGaussianBlur id="feGaussianBlur5045" stdDeviation="10.034"/></filter><filter id="filter5055" width="1.166" height="1.228" x="-.083" y="-.114" color-interpolation-filters="sRGB"><feGaussianBlur id="feGaussianBlur5057" stdDeviation="3.267"/></filter><clipPath id="clipPath5061" clipPathUnits="userSpaceOnUse"><use id="use5063" width="1" height="1" x="0" y="0" xlink:href="#path3314"/></clipPath><radialGradient id="radialGradient5065" cx="491.57" cy="360.1" r="27.456" gradientTransform="matrix(1.8632 -1.0238 .51623 .93946 -609.66 524.49)" gradientUnits="userSpaceOnUse" xlink:href="#linearGradient4868"/><radialGradient id="radialGradient5067" cx="340" cy="363.42" r="21.386" gradientTransform="matrix(1.4639 1.5721 -.73419 .68365 109.09 -419.6)" gradientUnits="userSpaceOnUse" xlink:href="#linearGradient4868"/><radialGradient id="radialGradient5069" cx="357.79" cy="431.47" r="48.131" gradientTransform="matrix(.68614 2.2163 -1.7991 .55699 882.31 -607.6)" gradientUnits="userSpaceOnUse" xlink:href="#linearGradient4868"/><radialGradient id="radialGradient5071" cx="487.35" cy="452.1" r="32.111" gradientTransform="matrix(.31025 2.9726 -1.7496 .18260 1139.1 -1106.1)" gradientUnits="userSpaceOnUse" xlink:href="#linearGradient4868"/><linearGradient id="linearGradient5132" x1="537.06" x2="436.88" y1="495.91" y2="88.947" gradientUnits="userSpaceOnUse"><stop id="stop5126" offset="0" style="stop-color:#241f1c"/><stop id="stop5128" offset="1" style="stop-color:#ac9d93"/></linearGradient><filter id="filter5134" color-interpolation-filters="sRGB"><feGaussianBlur id="feGaussianBlur5136" stdDeviation="2.098"/></filter><clipPath id="clipPath5142" clipPathUnits="userSpaceOnUse"><use id="use5144" width="1" height="1" x="0" y="0" xlink:href="#path3320"/></clipPath><filter id="filter5166" width="1.17" height="1.221" x="-.085" y="-.111" color-interpolation-filters="sRGB"><feGaussianBlur id="feGaussianBlur5168" stdDeviation="2.612"/></filter><radialGradient id="radialGradient5170" cx="443.18" cy="309.85" r="37.98" gradientTransform="matrix(-1.1272 .51497 -.34220 -.74901 1059.2 321.49)" gradientUnits="userSpaceOnUse" xlink:href="#linearGradient4868"/><linearGradient id="linearGradient5172" x1="385.55" x2="389.14" y1="325.07" y2="350.98" gradientUnits="userSpaceOnUse"><stop id="stop4604" offset="0" style="stop-color:#f60"/><stop id="stop4606" offset="1" style="stop-color:#a40"/></linearGradient></defs><g id="layer3" transform="translate(-238.03 -79.401)"><path id="path4580" d="m568.28 82.438c-15.99-0.068-40.17 8.127-59.53 21.562-28.138 19.524-56.341 56.968-63.688 70.438-5.9642 10.934-22.188 27.786-31.406 44.656-16.976 31.067-36.128 58.776-48.375 93.344-3.7757 0.0657-7.6164 0.3234-11.406 1.6562-4.8651 1.711-9.4039 5.4007-12.25 11.312-2.2009 4.5717-3.4345 9.327-4.125 14.062-3.0069 0.79548-9.1316 2.4522-17.5 4.5938-4.8345 1.2372-9.7538 2.4455-13.719 3.3438-3.9649 0.89821-7.6458 1.4062-7.4062 1.4062-4.1648 0-8.163 1.6394-12.062 3.3438-1.9497 0.85219-3.7563 1.7517-5.25 2.625-0.74684 0.43663-1.3984 0.8621-2.0312 1.3438-0.6329 0.48165-1.2646 0.71672-2.0938 2.375-0.66432 1.3286-1.0132 2.5616-1.2812 3.6562-1.6124 0.43839-1.7635 0.45917-3.6562 1-2.7577 0.78798-5.624 1.6376-8.0312 2.4375-2.4073 0.79988-3.9132 1.0923-5.9688 2.5312-1.4266 0.99859-2.981 2.0952-4.25 3.1875-0.63449 0.54613-1.1384 0.84213-1.9375 2.1562-0.39958 0.65706-1.4977 2.2405-0.25 4.7188 0.62384 1.2391 1.7915 2.0184 2.5938 2.3125 0.16864 0.0618 0.22794 0.0231 0.375 0.0625a4.556 4.556 0 0 0 3.9062 3.5c-1.1998 1.5511-2.4281 3.1693-3.4062 4.4688-0.66537 0.8839-1.2238 1.6634-1.6875 2.3125-0.46369 0.64906-0.70041 0.86958-1.1875 1.8438-0.532 1.064-0.76719 2.6994-0.34375 4s1.2248 2.0911 1.8438 2.5938c0.31629 0.25686 0.56337 0.36106 0.84375 0.53125-0.49527 1.4167-0.60948 1.7061-1.2188 3.5625-0.68766 2.0952-1.3587 4.2791-1.875 6.1875-0.25815 0.95419-0.4657 1.8543-0.625 2.6875-0.1593 0.83323-0.37361 1.4188-0.21875 2.8125-0.0188-0.16947-0.14901 2.1193-0.59375 3.9062-0.22237 0.89348-0.49038 1.7559-0.71875 2.375s-0.63 1.1156-0.1875 0.5625c0.089-0.1112-1.4129 1.3851-2.5938 2.4062-1.1808 1.0212-2.2188 1.875-2.2188 1.875a4.556 4.556 0 0 0 2.75 8.0938l4.1562 0.125c-0.0445 0.44063-0.0509 0.4101-0.0937 0.875-0.14449 1.5688-0.2854 3.2501-0.34375 4.7812-0.0583 1.5311-0.13473 2.7326 0.1875 4.3438 0.39595 1.9798 1.1571 4.0839 2.0938 6.1875 0.93665 2.1036 1.7571 3.9446 3.5625 5.75 0.86974 0.86974 2.993 1.6541 4.75 1.3438 0.32192 0.93046 0.71773 1.8639 2.5625 3.0938 1.2771 0.85139 3.362 1.044 4.6562 0.59375 1.2943-0.45027 1.9828-1.1048 2.5-1.6562 1.0344-1.1029 1.5249-2.0735 2-3.0312 0.95014-1.9156 1.5312-3.7812 1.5312-3.7812a4.556 4.556 0 0 0 0.21875 -1.8438l-1.88-20.94a4.556 4.556 0 0 0 0.65625 -1.375l0.5625-1.9688a4.556 4.556 0 0 0 5.02 -5.52s-0.5496-2.4256-1.0938-5.0938c-0.27208-1.3341-0.52387-2.75-0.71875-3.875s-0.28125-2.266-0.28125-1.875c0 0.79199 0.0234-0.1284 0.15625-0.90625 0.13289-0.77785 0.32034-1.8543 0.5625-3.0938 0.48432-2.4789 1.1587-5.6439 1.8125-8.75 0.52612-2.4995 0.58991-2.8561 1.0312-4.9062a4.556 4.556 0 0 0 2.0625 -1.2188s1.8107-1.8744 3.6875-4.125c0.93841-1.1253 1.9179-2.3507 2.75-3.5938a4.556 4.556 0 0 0 1.25 0.9375c-0.31583 1.0983-0.56979 2.0049-0.9375 3.2188-0.72034 2.3779-1.4936 4.8255-2.125 6.75-0.31571 0.96227-0.59769 1.7975-0.8125 2.4062-0.21481 0.60875-0.48954 1.2291-0.28125 0.8125l-4.4688 8.9688a4.556 4.556 0 0 0 1.5 5.7812l-0.125 0.5a4.556 4.556 0 0 0 0.5 3.3438c-0.47405 0.52992-0.98505 1.0753-1.4062 1.5625-0.62088 0.7181-1.0118 1.1426-1.5625 1.9688-0.9196 1.3794-0.93825 1.9427-1.2188 2.8438-0.2805 0.90103-0.54837 1.8885-0.78125 2.8125-0.46576 1.848-0.84375 3.5-0.84375 3.5a4.556 4.556 0 0 0 1.9375 4.75c-0.15737 4.4394-0.31058 11.546 0.375 16.688 0.53717 4.0288 2.3406 8.5239 4 12.5s3.2188 7.2188 3.2188 7.2188a4.556 4.556 0 0 0 8.25 -0.15625s0.81693-1.7761 1.625-3.7188c0.40404-0.97134 0.79297-1.9732 1.125-2.875 0.16602-0.45088 0.30734-0.87785 0.4375-1.3125s0.34375-0.59815 0.34375-1.9375c0-1.1446-0.1067-1.4485-0.21875-2.4375-0.0315-0.27769-0.0889-0.63251-0.125-0.9375l0.15625-0.0312a4.556 4.556 0 0 0 3.1875 -5.375s-0.45882-2.1022-0.90625-4.3438c-0.22372-1.1208-0.4563-2.273-0.59375-3.1562-0.0481-0.30892-0.0265-0.60086-0.0312-0.875 0.124-0.28109 0.24156-0.59206 0.4375-1 0.51723-1.0769 1.2322-2.4617 1.9375-3.8125 1.4106-2.7016 2.8125-5.25 2.8125-5.25a4.556 4.556 0 0 0 0.3125 -3.625 4.556 4.556 0 0 0 6.0312 -5.7188s-0.93447-2.6557-1.9062-5.5c-0.97178-2.8443-2.1106-6.2934-2.125-6.3438 0.35139 1.2299 0.11821 0.65555 0.125 0.28125 0.007-0.3743 0.0446-0.95693 0.0937-1.6562 0.0983-1.3986 0.25191-3.2415 0.4375-5.0312 0.37118-3.5796 0.8125-7 0.8125-7a4.556 4.556 0 0 0 0.0312 -0.53125 4.556 4.556 0 0 0 2.4688 -4.2812s-0.1723-3.1414-0.34375-6.4375c-0.16105-3.0961-0.29412-6.3978-0.3125-6.7812 0.11641-0.33175 0.3126-0.83175 0.5625-1.4375 0.52233-1.2661 1.2484-2.9279 2-4.5625 0.75157-1.6346 1.5284-3.2448 2.125-4.4688 0.2231-0.45775 0.3696-0.80374 0.53125-1.125 0.35205-0.21326 0.75369-0.42864 1.3125-0.75 1.387-0.79765 3.2791-1.8568 5.2812-2.9375 1.511-0.8156 2.2814-1.1422 3.7812-1.9062-0.21431 2.5256-0.21558 5.5544 0.25 9.0938 0.56901 4.3256 1.5381 8.9495 4.4375 12.719 3.4243 4.4516 8.3243 9.6802 15.125 12.875-1.288 1.2729-2.5498 2.6082-3.6562 4.1875-2.7687 3.9521-5.1586 8.8502-7.1562 14.125-3.9954 10.55-6.4903 22.432-5.8125 31.469 0.73916 9.8555 7.3963 23.94 13.75 36.75s12.531 23.625 12.531 23.625a4.556 4.556 0 0 0 4.0312 2.3125l21.53-0.35c0.70251 0.52854 1.1339 0.8849 2.5938 1.8125 2.276 1.4462 4.8528 3.1579 8.4375 3.5625 3.6306 0.40975 6.5666-0.70082 9.1562-1.625 1.157-0.41291 1.2558-0.53092 2.0625-0.875 0.82144 0.40797 1.6612 0.69475 2.5 0.9375 1.8454 0.53404 3.7411 0.77859 5.625 0.78125 1.8839 0.003 3.7165-0.17874 5.5938-0.9375 0.26414-0.10676 0.54188-0.39278 0.8125-0.53125a4.556 4.556 0 0 0 0.4375 0.0312 4.556 4.556 0 0 0 0.0312 0c0.35325 0.17651 0.56046 0.36178 1 0.53125 1.2967 0.49997 3.1191 0.78223 4.8125 0.5 2.5247-0.42078 3.7905-1.6025 5.25-3.0625 0.75802-0.75829 1.4968-1.6553 2.1562-2.6562 5.5533 0.59575 11.974 0.99872 19.688 0.53125 9.7272-0.58953 20.105-2.8775 28.469-5 1.3589 1.7336 2.9964 3.1125 4.6562 4.125 2.6645 1.6253 5.196 2.5938 8.0312 2.5938 2.6994 0 5.9419-0.34219 7.9688-0.5625l1.7812 0.28125c1.9946 0.98286 4.768 2.5086 8.8438 2.2188 3.0657-0.21799 5.2138-1.4453 7.1562-2.5312 1.317-0.7363 1.9158-1.1753 2.625-1.6562 0.72637 0.0853 1.1194 0.17373 2.25 0.25 0.98068 0.0662 2.0128 0.13023 3.0625 0.0937 1.0496-0.0365 1.9371 0.0783 3.7188-0.8125 1.3952-0.69759 2.1309-1.4504 3-2.5 0.86906-1.0496 1.6959-2.3583 2.3125-3.9688 1.0888-2.8439 1.2593-6.7169-0.25-10.656 0.23369-0.70224 0.67463-1.8657 1.2812-3.2812 1.2372-2.887 3.0844-6.8398 5-11.219 3.8311-8.7579 8.0871-18.939 8.7812-27.5 0.73493-9.0642-2.9924-21.643-7.4375-33.531-2.2225-5.9443-4.6764-11.574-7.0312-16.156-2.3549-4.5827-4.1029-7.9391-7.0625-10.344-3.0559-2.4829-7.3488-4.4846-12.125-4.9062l1.0938-4.5625c2.4918-0.12358 5.4491-0.89583 7.875-3.625 1.8878-2.1238 2.4228-4.2763 3.0312-6.9062 0.6085-2.63 0.97677-5.6749 1.0625-8.875 0.17146-6.4003-0.55321-13.451-4.375-18.906-3.2154-4.5897-8.2252-5.8429-12.438-6.9688-2.8125-0.7517-3.8771-0.82149-5.2812-1.0312-2.1229-18.604-4.187-36.34-4.9375-41.969-1.0761-8.0704-1.6039-16.139-1.4062-22.969 0.19769-6.8294 1.2775-12.493 2.625-15.188 1.1553-2.3106 7.5737-10.068 15.344-17.375 7.77-7.3073 17.181-14.793 24.719-18.969 19.373-10.733 51.176-17.974 75.406-35.281 12.209-8.7206 23.042-20.768 27.219-31.688 2.0885-5.4596 2.5936-11.644-1.4062-16-3.9998-4.3556-10.494-5.2572-19.156-4.0938-32.016 4.3004-57.782 10.179-88.562 35.75-21.763 18.08-57.769 53.341-65.125 60.562-1.7045-3.0146-4.1212-6.1048-8-8.0938-2.3522-1.2061-4.8825-1.9028-7.4375-2.3125 2.3053-5.0392 5.7611-11.195 11.062-17.188 11.892-13.443 25.992-18.42 57.688-41.219 15.884-11.426 30.94-23.942 41.781-35.281 5.4208-5.6698 9.8003-10.997 12.75-16s4.8299-9.8609 3.4062-14.844c-0.94287-3.3001-3.6538-5.705-6.5625-6.9375s-6.1489-1.6721-9.7812-1.6875zm-119.59 144-1.4375 2.25c-0.15777-0.10079-0.45755-0.29799-0.8125-0.875l2.25-1.375z" transform="translate(0,2)" style="color:#000;filter:url(#filter5134);fill:url(#linearGradient5132)"/><path id="path3314" d="m417.66 221.29c-25.211 46.137-54.567 83.78-59.528 146.06-4.9607 62.284 15.984 132.84 15.984 132.84s38.032 0 42.992 1.1024c4.9607 1.1024 17.087 4.4095 35.276 3.3071s41.89-8.819 41.89-8.819l19.291-78.268s-12.126-109.13-14.331-125.67c-2.2047-16.536-2.2047-33.071 1.6536-40.788 3.8583-7.7166 25.626-29.296 41.89-38.307 20.394-11.299 51.811-18.465 74.961-35 23.15-16.536 41.906-47.84 9.9213-43.544-31.812 4.273-56.157 9.7164-86.26 34.725-23.641 19.64-69.725 65.04-69.725 65.04l-22.047-8.819s3.3071-15.433 15.984-29.764 27.008-19.291 58.426-41.89 59.528-49.607 56.221-61.182c-3.3071-11.575-41.89-3.3071-68.898 15.433s-55.67 56.772-62.284 68.898c-6.6142 12.126-22.692 28.677-31.418 44.646z" style="color:#000;fill:#e3dedb"/><path id="path5049" d="m491.28 258.06c-0.5894-0.0141-1.2237-0.003-1.8438 0.0312 0.12403 13.259 11.043 66.147 11.594 79.375 0.55119 13.228-0.5625 32.531-0.5625 32.531l-24.781 13.781s-1.6762 12.133-1.125 17.094c0.55119 4.9607 11.031 6.0625 11.031 6.0625s-4.9601 15.423-6.0625 19.281c-1.1024 3.8583 0.67682 23.803-0.31426 41.106-1.0809 18.871-9.96 30.405-40.37 22.248-23.97-6.42-44.19-61.69-44.19-61.69l4.9375 95.344 140.56-6.5938-17.625-181.91-17.1-71.1s-5.3152-5.3506-14.156-5.5625z" clip-path="url(#clipPath5061)" style="color:#000;filter:url(#filter5043);fill:#917c6f"/><path id="path4207" d="m443.1 277.17c-9.4043 1.3788-11.254 13.181-9.75 20.969-0.0105 4.2795 2.1867 11.658 7.9375 9.0625 6.0398-1.5852 13.002-5.6077 12.469-12.688 0.14475-5.4043 1.3289-13.423-4.2188-16.531-1.9832-0.96734-4.2826-0.97334-6.4375-0.8125zm-19.719 2.75c-10.763 1.7899-16.254 15.251-13.906 24.906 3.6251 6.4527 15.975 5.2646 17.219-2.5938 1.9651-6.6339 2.9378-15.01-0.5625-21.25-0.70226-0.69572-1.7361-1.1962-2.75-1.0625z" style="color:#000;filter:url(#filter4472);fill:#ac9d93"/><path id="path3316" d="m446.03 279.38c-2.9626 0.10335-5.9217 1.159-7.4375 2.8125-2.7512 3.0013-4.3299 8.7087-4.25 12.531 0.10018 4.7922 0.95987 15.037 5.0938 15.312 4.1339 0.2756 14.449-5.3819 15-8 0.55119-2.6181 2.0628-15.278-0.96875-19.688-1.5158-2.2047-4.4749-3.0721-7.4375-2.9688zm-21.219 2.8125c-6.6142 0.55118-10.439 6.3185-12.656 11.594-2.0301 4.8302-3.327 12.932 0.53125 15.688 3.0502 2.1788 11.02 2.219 13.5-0.8125 2.4803-3.0315 3.3125-10.75 3.3125-10.75s1.9267-16.27-4.6875-15.719z" style="color:#000;fill:#fff"/><path id="path4477" d="m409.33 304.05s2.3385 3.7026 4.3846 4.2872c2.0462 0.58462 7.7949-0.7697 8.477-0.86717 0.68205-0.0974 4.1592-2.0963 4.8413-8.6246 0.68206-6.5283 0.1077-11.176 0.31599-13.762 0.0951-1.1815 0.79621-3.9851 0.79621-3.9851l3.4005 1.8081 2.241 25.626s5.1641 0.29231 5.6513 0.0974c0.48718-0.19487 2.6573-3.5008 5.9701-4.4752 3.3128-0.97437 5.4801-0.93114 6.4545-2.685 0.97437-1.7539 1.3238-9.8509 1.5186-12.092 0.19487-2.241 2.1338-6.9584 2.1338-6.9584l2.3385 1.9487 0.38974 23.872-24.359 7.5026-25.041-1.9487z" clip-path="url(#clipPath4485)" style="color:#000;filter:url(#filter5035);fill:#b7c4c8"/><path id="path3320" d="m426.34 315.81s-3.7618-2.9773-7.3032-1.5158c-8.6812 3.5827-7.5788 23.839-7.5788 23.839s13.504 15.984 14.469 16.398c0.96457 0.41339 2.5052 4.4146 5.7874 5.0985 3.3071 0.68899 6.8898 1.9292 13.366-5.0985 2.7464-2.9802 16.398 0.27559 25.355-3.3071 8.9568-3.5827 21.452-14.366 15.295-26.595-6.2974-12.508-17.608-20.2-29.764-21.358-7.2015-0.68631-19.705 9.0946-19.705 9.0946z" style="color:#000;fill:url(#radialGradient5170)"/><path id="path4904" d="m442.04 349.04-19.823 0.57059-60.092 28.66-2.75 24.232 38.573 8.819s15.175-8.4672 21.494-14.311c13.549-12.53 32.533-41.344 34.186-43.548 1.6536-2.2047-11.589-4.4219-11.589-4.4219z" style="opacity:.63137;color:#000;filter:url(#filter5055);fill:#6c5d53"/><path id="path5138" d="m424.01 350.78 17.914-4.8697s0.69831 3.6076 2.4348 3.1305c3.0501-0.83801 6.261-8.6959 6.261-8.6959s2.9566 6.0871 10.087 4.6958c7.1306-1.3913 21.74-8.522 23.653-17.566 1.9131-9.0437 4.5219-12.522 4.5219-12.522l9.0437 30.436-42.61 26.262-30.088-3.8262z" clip-path="url(#clipPath5142)" style="color:#000;filter:url(#filter5166);fill:#6c5d53"/><path id="path3322" d="m423.58 314.44c0.55119 2.7559 3.7205 4.5473 6.2008 4.4095 2.4803-0.13779 6.752-2.2047 7.0276-4.9607 0.2756-2.7559 0.1378-8.4056-3.4449-8.2678s-6.5347 0.0564-8.5434 2.2048c-1.532 1.6385-1.7376 4.1272-1.2402 6.6142z" style="color:#000;fill:#000"/><path id="path3324" d="m289.23 307.09c0 2.93-2.1901 5.3052-4.8918 5.3052-2.7016 0-4.8918-2.3752-4.8918-5.3052s2.1901-5.3052 4.8918-5.3052c2.7016 0 4.8918 2.3752 4.8918 5.3052z" transform="translate(161.36 -10.913)" style="color:#000;fill:#000"/><path id="path3326" d="m289.23 307.09c0 2.93-2.1901 5.3052-4.8918 5.3052-2.7016 0-4.8918-2.3752-4.8918-5.3052s2.1901-5.3052 4.8918-5.3052c2.7016 0 4.8918 2.3752 4.8918 5.3052z" transform="translate(138.21 -8.4326)" style="color:#000;fill:#000"/><path id="path3328" d="m289.23 307.09c0 2.93-2.1901 5.3052-4.8918 5.3052-2.7016 0-4.8918-2.3752-4.8918-5.3052s2.1901-5.3052 4.8918-5.3052c2.7016 0 4.8918 2.3752 4.8918 5.3052z" transform="matrix(.24675 0 0 .24675 350.31 220.48)" style="color:#000;filter:url(#filter4503);fill:#fff"/><path id="path3330" d="m289.23 307.09c0 2.93-2.1901 5.3052-4.8918 5.3052-2.7016 0-4.8918-2.3752-4.8918-5.3052s2.1901-5.3052 4.8918-5.3052c2.7016 0 4.8918 2.3752 4.8918 5.3052z" transform="matrix(.24675 0 0 .24675 373.74 217.58)" style="color:#000;filter:url(#filter4499);fill:#fff"/><path id="path3332" d="m463.27 221.97c-6.1437-3.1503-15.709-2.7559-20.394-0.55118-4.6851 2.2047-6.063 2.6181 0 2.8937 6.063 0.27559 9.9298 2.6563 3.4449 3.5827-7.7166 1.1024-16.096 6.3814-8.9568 5.2363 2.8762-0.46139 4.5473-0.82678 7.5788-0.27559 3.0315 0.55118 8.3579 2.5464 12.677 2.7559 4.7118 0.22859 14.055-1.6536 14.055-1.6536s-1.4261-8.4095-8.4056-11.988z" style="color:#000;fill:#c8beb7"/><path id="path3334" d="m427.3 322.57s-0.41339-1.5158 1.2402-1.6536 9.3972 5.5144 11.437 10.197c2.6238 6.023 2.208 13.681-0.41339 19.705-0.89428 2.0551-3.3071 4.9607-4.8229 4.6851-1.5158-0.27559-6.2008-3.4449-6.2008-3.4449z" style="color:#000;fill:#241c1c"/><path id="path3336" d="m381.17 368.94s4.2872 3.7026 3.7026 7.7949c-0.58462 4.0923-6.1123 13.182-9.3539 16.564-4.6568 4.8593-23.188 5.0196-22.995 1.1692l1.1692-12.277z" style="color:#000;fill:#6c5d53"/><path id="path3338" d="m428.72 320.96s-39.131-4.6156-51.533-4.0891c-12.403 0.52653-25.186-2.5352-31.454 10.484-5.082 10.556-5.7073 22.354-1.9903 31.156 9.2755 21.965 24.557 18.333 34.846 15.777 10.29-2.5556 22.314-10.41 33.903-14.509 7.5284-2.6628 23.053-6.5186 23.053-6.5186 1.9292 0 7.2585-10.135 5.0126-19.911-1.5732-6.8478-11.837-12.391-11.837-12.391z" style="color:#000;fill:url(#linearGradient5172)"/><g id="g4193" clip-path="url(#clipPath4199)"><path id="path3401" d="m333.62 359 22.216-12.472s11.968-9.106 13.527 10.771c7.8691 7.1731 11.513 3.9324 21.275-2.1966 9.2281-5.794 23.904-6.6331 38.963-8.5548 5.6172-0.71683 9.2441-5.5891 9.3931-8.7278 0.45662-9.618 2.5864-13.507 2.5864-13.507l10.913 7.7949-7.0154 40.144-90.421 15.59z" style="color:#000;filter:url(#filter4927);fill:#7f1a00"/><path id="path3403" d="m346.1 327.82s1.1567 2.9238 3.6901 0.78016c2.6644-2.2545 10.377-2.9769 12.216-0.48746 2.5095 3.397 4.6032 3.8516 6.3098 1.656-0.72719-3.1216-0.2783-4.5152-4.2872-8.5744 15.785-2.5334 71.713 3.118 71.713 3.118l-1.9487-2.1436s-53.925-5.0898-59.047-4.8718c-9.159 0.38974-17.539 1.1692-19.487 1.9487-1.9487 0.7795-7.6 4.677-9.159 8.5744z" style="color:#000;filter:url(#filter4991);fill:url(#linearGradient4596)"/></g><path id="path4969" d="m350.77 339.13s1.901-4.8946 4.0923-5.2616c3.5184-0.5892 7.4975 1.593 8.9642 5.8462 1.9487 5.6513 1.8726 10.205-0.38975 13.836-2.1745 3.4902-8.1847 4.8718-9.3539 2.7282s-3.3128-17.149-3.3128-17.149z" style="color:#000;fill:url(#linearGradient4971)"/><path id="path3340" d="m366.36 385.12s9.159-8.9642 8.1847-13.251c-0.97437-4.2872-3.8416-11.103-8.5744-13.641-2.2904-1.2285-7.7949 0.19487-7.7949 0.19487s-0.89068-3.6979-5.2616-4.4821c-2.7336-0.49047-8.1847 1.559-8.1847 1.559s-0.58462-2.7282-3.5077-2.5334c-1.9541 0.13027-8.5744 5.6513-9.159 9.3539-0.58462 3.7026-0.19487 15.005 3.7026 20.072 3.8975 5.0667 9.3181 10.842 17.035 13.047 0 0 7.8723 1.874 10.986-2.2272 1.6608-2.1878 2.5749-8.0913 2.5749-8.0913z" style="color:#000;fill:url(#radialGradient5067)"/><path id="path3342" d="m355.65 352.95s-19.567 1.5158-23.563 3.0315c-3.9961 1.5158-18.051 9.2324-18.465 9.7835-0.41339 0.55119-6.3386 12.953-6.3386 14.331s0.68899 13.917 0.68899 13.917l-2.6181-3.5827-0.96458 6.8898 1.1024 0.68898s-1.6825 13.853-1.2927 15.217c0.38975 1.3641 4.0923 12.082 4.0923 12.082l-5.2616-4.2872-1.9487 6.6257 1.1692 3.3128s-5.6513 10.328-5.8462 11.692c-0.19487 1.3641 1.7539 9.9385 1.7539 9.9385l-2.7282 0.77949-1.559-2.7282s1.1692 8.7693 1.1692 9.7437c0 0.97437-3.118 7.9898-3.118 7.9898s-6.0411-12.472-6.8206-18.318c-0.7795-5.8462-0.19488-20.267-0.19488-20.267l-2.1436 0.38975s1.3641-6.4308 2.1436-7.6001c0.7795-1.1692 5.8462-6.6257 5.8462-6.6257l-2.7282-1.7539 1.559-6.6257-3.3128 1.3641 4.4821-8.9642c0.7795-1.559 6.6257-20.267 5.8462-19.877-0.77949 0.38975-3.7026 0.58462-3.7026 0.58462s2.7282-5.4564 4.4821-7.0154 6.6257-13.641 7.9898-14.031c1.3641-0.38975 9.7437-6.8206 13.057-7.4052 3.3128-0.58462 33.128-4.2872 33.128-4.2872z" style="color:#000;fill:url(#linearGradient3397)"/><path id="path3344" d="m354.55 336.14s-11.024 6.4764-13.228 7.0276c-2.2047 0.55118-37.481 10.197-42.441 10.197-4.9607 0-16.536 5.5118-17.362 7.1654-0.82677 1.6536-1.378 4.9607-1.378 4.9607l4.1339-0.82678s-20.394 5.2363-23.15 7.1654c-2.7559 1.9291-6.063 4.4095-4.6851 4.4095 1.378 0 8.5434-3.3071 7.7166-2.2047-0.82678 1.1024-4.6851 5.5118-4.6851 5.5118l10.748-2.4803s-12.677 15.984-13.504 17.638c-0.82677 1.6536 4.1339 2.2047 4.1339 2.2047s-5.5118 15.158-5.2363 17.638c0.2756 2.4803-1.378 8.819-2.4803 10.197-1.1024 1.378-5.5118 4.9607-5.5118 4.9607l9.0946 0.2756s-1.378 10.748-0.82677 13.504c0.55118 2.7559 2.7559 7.9922 4.4095 9.6457 1.6536 1.6536 2.7559-6.6142 2.7559-6.6142s2.2047 9.3701 3.8583 10.473c1.6536 1.1024 3.8583-5.5118 3.8583-5.5118l-1.9292-20.945-2.2047-3.3071 3.0315 0.27559 2.7559-9.6457 2.7559 4.4095s-2.2047-9.9213-2.2047-11.85c0-1.9292 5.2362-25.906 5.2362-25.906l1.6536 3.8583s6.8898-7.1654 7.1654-9.6457 2.7559-7.1654 2.7559-7.1654 10.473-9.9213 10.197-8.2678c-0.27559 1.6536 1.1024 6.063 1.1024 6.063s4.6851-7.7166 6.063-9.0946c1.378-1.378 16.811-7.1654 20.118-7.1654 3.3071 0 16.811-0.96458 20.118-1.5158 3.3071-0.55119 9.9213 3.8583 9.9213 3.8583s5.9158-1.9412 6.063-6.752c0.41339-13.504-8.819-12.539-8.819-12.539z" style="color:#000;fill:url(#linearGradient3399)"/><path id="path3346" d="m381.95 403.82c-6.4354-3.7004-16.369-7.7949-26.893-5.4564-10.523 2.3385-21.046 33.518-19.877 49.108 1.1692 15.59 25.723 58.462 25.723 58.462l22.995-0.38975s6.3213 5.0262 10.133 5.4564c3.8836 0.43831 11.303-3.118 11.303-3.118 2.7153 3.1018 13.601 3.229 13.057-0.38975 2.9231 1.3641 4.0923 2.7282 6.4308 2.3385 2.3385-0.38974 7.8617-5.9186 6.2359-13.641-3.118-14.81-17.928-18.708-17.928-18.708s7.4052-7.4052 3.8975-19.098c-3.5077-11.692-14.648-42.817-35.077-54.565z" style="color:#000;fill:url(#radialGradient5069)"/><path id="path3348" d="m485.23 478.27s-3.5077 14.031-2.3385 19.487c1.1692 5.4564 7.7949 8.5744 10.913 8.5744 3.118 0 9.7437-0.77949 9.7437-0.77949s5.5693 2.9405 8.5548 2.7282c3.2937-0.2342 8.9169-4.3149 8.9169-4.3149s6.598 0.92135 8.157 0.14186 5.8543-5.8381 2.4331-12.586c-1.0721-2.1145 14.031-28.452 15.2-42.872 1.1692-14.421-13.641-51.057-19.877-56.124-6.2359-5.0667-15.94-8.0901-26.853 5.9408s-16.347 40.401-16.113 50.651c0.45661 20.055 1.2638 29.153 1.2638 29.153z" style="color:#000;fill:url(#radialGradient5071)"/><path id="path3350" d="m505.5 337.23s-13.251 10.523-16.369 13.251c-3.118 2.7282-20.267 20.267-17.539 29.621 2.7282 9.3539 6.9803 15.248 14.031 15.98 2.5844 0.26811 6.2359-4.677 6.2359-4.677s7.0154 3.118 11.692 2.7282c4.677-0.38975 8.9642-8.1847 8.9642-8.1847l2.7282-11.303s4.8718 1.7538 7.9898-1.7539 4.97-21.108-0.58462-29.036c-3.5162-5.019-17.149-6.6257-17.149-6.6257z" style="color:#000;fill:url(#radialGradient5065)"/><path id="path3352" d="m558.41 96.719c-1.4824-0.0043-3.3762 0.33587-5.7188 1.0938-18.74 6.063-55.121 26.459-65.594 39.688-10.473 13.228-21.245 27.239-31.969 40.781-4.382 5.5338-7.1557 8.8459-13.219 16.562-6.063 7.7166-11.689 20.412-8.2812 22.594 5.0521 3.2342 14.903-4.9596 19.312-12.125 4.4095-7.1654 23.137-28.135 43.531-40.812s54.008-39.687 58.969-45.75c4.3406-5.3052 13.345-22.001 2.9688-22.031zm59.59 48.471c-0.78372-0.0162-1.6075-0.003-2.4688 0.0312-13.78 0.55119-38.596 13.787-46.312 17.094-7.7166 3.3071-27.072 19.48-40.219 29.75-13.885 10.847-33.616 28.664-40.781 33.625-7.1654 4.9607-8.8358 14.103-4.4062 18.75 3.4789 3.65 11.017 0.006 14.875-2.75 3.8583-2.7559 24.859-24.641 39.688-33.625 14.59-8.8392 32.479-11.024 47.406-19.281 14.858-8.2188 35.249-21.513 41.312-29.781 5.6841-7.751 2.662-13.57-9.0938-13.812z" style="color:#000;fill:#ac9d93"/><path id="path3356" d="m416.39 472.5s-12.034 7.4713-15.892 8.0225c-3.2965 0.47093-20.6 4.7934-26.112 3.691-5.5118-1.1024-8-1.375-8-1.375s5.8068 2.4601 5.5312 3.5625-1.375 6.3438-1.375 6.3438 4.3834-4.9488 6.3125-5.5c1.9292-0.55119 15.162-4.9744 18.469-5.25 3.3071-0.27559 17.375-3.8438 17.375-3.8438zm1.8086 16.651c2.1742 7.0359 2.3189 12.621-0.28125 18.188l1.9375 1.4062c2.7889-7.0523 1.7784-13.64-1.6562-19.594zm-14.75 1.5312c3.6197 5.5908 4.5061 11.845 0.71875 17.625l2.75-0.96875c1.3063-4.4793 4.7815-12.71-3.4688-16.656z" style="color:#000;fill:#6c5d53"/><path id="path3358" d="m497.66 476.91c-10.992 2.8505-12.233-0.39571-12.233-0.39571l-1.0716 6.0407s7.1542-4.3658 15.969-4.6875c6.2484-0.22803 18.75 0.53125 18.75 0.53125s-15.121-3.1208-21.414-1.4888zm6.8206 11.145c-0.76602 6.0413-0.7569 14.22-2.5 17.656l3.3125 0.53125c-1.3437-1.7906-0.84715-10.883-0.8125-18.188zm14.875 1.375c0.35633 4.718 1.9127 12.757 0.28125 15.156l2.75-1.0938c-1.7835-2.2572-2.5499-11.506-0.75-13.125z" style="color:#000;fill:#6c5d53"/><path id="path3360" d="m343.67 354.12c-2.067 0.96458-6.75 13.781-6.75 13.781 1.5635-3.7968 3.659-8.7932 8.0111-12.401 0.19487-1.1692-1.2611-1.3804-1.2611-1.3804zm12.656 1.5312c-1.7914 0.82678-6.75 14.188-6.75 14.188 1.8141-3.8537 3.9407-7.103 8.4062-11.156 0.48718-1.2667-1.6562-3.0312-1.6562-3.0312z" style="color:#000;fill:#6c5d53"/><path id="path3362" d="m514.39 367.09c0.34783 2.5355 1.3025 7.0324 0.017 7.2812l3.0143-0.125c0.56241-3.6468-1.9568-4.8189-3.0312-7.1562zm-38.031 9.9062-0.8125 11.844 2.5938 3.3125c-1.9294-3.0484-1.3918-9.798-1.7812-15.156zm11.562 1.6562c-1.378 3.8583 2.625 13.781 2.625 13.781l3.0312-0.40625c-4.9216-4.4554-3.8039-8.9196-5.6562-13.375z" style="color:#000;fill:#6c5d53"/><path id="path4507" d="m426.72 307.22s-0.73078 1.559 0.0487 1.7539c0.77949 0.19487 3.8 0.24359 3.8 0.24359s-3.8028 0.4183-5.2129 1.559c-0.60457 0.48908-1.1205 2.0462-1.1205 2.0462s-0.18896-2.3758 0.2923-3.4103c0.43594-0.93703 2.1923-2.1923 2.1923-2.1923z" style="color:#000;filter:url(#filter4513);fill:#666"/><path id="path4877" d="m549.53 79.531-88.188 58.406-44.094 78.281 24.812 12.125 7.7128-9.3599s-11.02-2.2161-12.122-6.0744c-1.1024-3.8583 11.599-17.973 17.634-24.816 6.4774-7.3448 24.249-24.786 30.312-32.503 6.063-7.7166 24.246-27.551 38.577-33.614s52.904-26.471 52.904-26.471zm80.469 51.25-57.312 12.688-105.28 81 9.375 31.438 16.525-5.5226s-10.461-3.8481-7.7047-12.116c2.7559-8.2678 68.881-54.017 73.842-58.978 4.9607-4.9607 28.666-17.082 44.65-23.696 15.984-6.6142 31.418-3.8772 31.418-3.8772z" clip-path="url(#clipPath4892)" style="color:#000;filter:url(#filter4886);fill:#6c5d53"/><path id="use4931" d="m354.94 336.12c-0.25164 0-0.40625 0.0312-0.40625 0.0312s-11.014 6.4488-13.219 7c-1.5403 0.38508-19.104 5.1522-31.312 8.0312l1.78 6.82c5.2205-2.158 13.188-4.9062 15.469-4.9062 3.3071 0 16.818-0.98007 20.125-1.5312 3.3071-0.55119 9.9375 3.875 9.9375 3.875s5.9152-1.9392 6.0625-6.75c0.36172-11.816-6.676-12.562-8.4375-12.562z" style="color:#000;fill:url(#linearGradient4961)"/><path id="path5073" d="m384.46 319.41s0.42852 3.579 1.8166 5.1182c0.97918 1.0858 4.1901 2.4568 4.1901 2.4568z" style="opacity:.3;color:#000;fill:#d45500"/><path id="path5075" d="m390.57 327.29s-0.42852-3.579-1.8166-5.1182c-0.97918-1.0858-4.1901-2.4568-4.1901-2.4568z" style="opacity:.3;color:#000;fill:#fca"/><path id="path5077" d="m408.63 322.55s0.16441 4.8366 1.429 6.7625c0.89206 1.3586 3.9767 2.821 3.9767 2.821z" style="opacity:.3;color:#000;fill:#a40"/><path id="path5079" d="m414.12 332.54s-0.16441-4.8366-1.429-6.7625c-0.89206-1.3586-3.9767-2.821-3.9767-2.821z" style="opacity:.3;color:#000;fill:#fca"/><path id="path5081" d="m405.82 349.23s-2.5903 4.0878-2.6312 6.3914c-0.0289 1.625 1.6948 4.5717 1.6948 4.5717z" style="opacity:.3;color:#000;fill:#520"/><path id="path5083" d="m404.73 360.58s2.5903-4.0878 2.6312-6.3914c0.0289-1.625-1.6948-4.5717-1.6948-4.5717z" style="opacity:.3;color:#000;fill:#ff7f2a"/><path id="path5089" d="m432.09 334.5s-1.8204 4.484-1.4502 6.758c0.26116 1.6041 2.4823 4.1965 2.4823 4.1965z" style="opacity:.3;color:#000;fill:#803300"/><path id="path5091" d="m433.5 345.28s1.6469-4.5506 1.1896-6.8087c-0.32256-1.5929-2.6417-4.0981-2.6417-4.0981z" style="opacity:.3;color:#000;fill:#fca"/><path id="path5093" d="m382.57 345.57s-1.9996 4.407-1.7212 6.6941c0.19633 1.6134 2.3113 4.2931 2.3113 4.2931z" style="opacity:.3;color:#000;fill:#520"/><path id="path5095" d="m383.06 356.96s1.9996-4.407 1.7212-6.6941c-0.19633-1.6134-2.3113-4.2931-2.3113-4.2931z" style="opacity:.3;color:#000;fill:#f95"/></g><metadata/></svg>