<?xml version="1.0" standalone="no"?>
<!DOCTYPE svg PUBLIC "-//W3C//DTD SVG 20010904//EN"
 "http://www.w3.org/TR/2001/REC-SVG-20010904/DTD/svg10.dtd">
<svg version="1.0" xmlns="http://www.w3.org/2000/svg"
 width="850.000000pt" height="852.000000pt" viewBox="0 0 850.000000 852.000000"
 preserveAspectRatio="xMidYMid meet">

<g transform="translate(0.000000,852.000000) scale(0.100000,-0.100000)"
fill="#000000" stroke="none">
<path d="M7421 8075 c-14 -100 -41 -383 -40 -429 l1 -61 19 90 c10 50 19 115
19 145 0 30 3 91 6 135 5 65 1 160 -5 120z"/>
<path d="M3925 7950 c3 -5 10 -10 16 -10 5 0 9 5 9 10 0 6 -7 10 -16 10 -8 0
-12 -4 -9 -10z"/>
<path d="M5430 7945 c-21 -25 -8 -50 28 -53 26 -3 34 1 41 20 5 14 5 28 -1 36
-14 16 -53 15 -68 -3z"/>
<path d="M4150 7773 c-25 -98 -23 -95 -78 -113 -28 -9 -67 -29 -86 -43 -19
-15 -38 -27 -43 -27 -4 -1 -22 -20 -40 -44 -21 -29 -52 -54 -95 -75 -35 -18
-81 -43 -103 -57 -22 -13 -57 -32 -77 -41 -21 -9 -38 -19 -38 -23 0 -3 -17
-13 -37 -20 -39 -15 -300 -146 -318 -160 -5 -4 -68 -38 -140 -75 -193 -100
-162 -85 -375 -180 -80 -36 -122 -55 -265 -121 -33 -15 -68 -28 -77 -29 -10
-1 -26 -8 -35 -17 -23 -19 -104 -51 -111 -43 -3 3 0 11 6 17 16 16 15 31 0 21
-7 -4 -17 -8 -23 -10 -5 -1 -21 -5 -34 -9 -18 -5 -22 -4 -16 6 5 9 4 11 -4 6
-6 -4 -9 -11 -6 -15 2 -5 -7 -13 -20 -19 -14 -7 -25 -17 -25 -23 0 -8 5 -8 15
1 12 10 19 10 27 2 9 -9 8 -12 -5 -12 -9 0 -20 -6 -24 -12 -9 -14 -43 -21 -43
-9 0 4 5 12 12 19 9 9 8 12 -4 12 -11 0 -15 6 -11 21 5 19 4 20 -15 10 -14 -7
-21 -20 -19 -33 1 -17 -6 -24 -30 -31 -18 -6 -33 -14 -33 -18 0 -5 -6 -9 -13
-9 -7 0 -41 -11 -75 -24 -47 -19 -62 -21 -62 -11 0 8 -4 16 -9 20 -15 8 -100
-29 -215 -94 -60 -34 -113 -58 -121 -55 -9 4 -21 1 -29 -5 -7 -6 -15 -9 -17
-6 -3 2 -5 -15 -4 -38 l1 -42 47 -2 c25 -1 70 -9 98 -18 73 -21 103 -19 147
10 20 13 53 30 72 36 19 7 43 19 53 27 9 8 29 17 43 18 14 2 34 10 43 18 10 9
25 16 35 16 10 0 24 7 32 15 23 23 51 18 58 -9 5 -22 53 -56 79 -56 5 0 23 -6
40 -14 52 -23 98 -36 128 -36 33 0 36 -4 40 -50 2 -19 7 -40 11 -46 5 -6 4
-24 -2 -38 -14 -38 -13 -48 7 -44 15 3 17 14 14 91 -2 54 1 87 8 87 17 0 67
54 80 86 19 48 57 77 91 69 21 -5 29 -2 32 9 2 11 7 13 18 6 9 -6 11 -13 5
-17 -5 -5 -11 -38 -12 -75 -2 -54 1 -68 12 -68 14 0 18 30 18 142 0 10 5 14
13 11 8 -3 14 -11 14 -19 0 -24 50 -66 69 -57 9 4 40 7 69 6 38 -2 52 1 52 11
0 8 9 16 21 19 12 3 18 10 15 16 -4 5 3 15 14 21 12 6 20 21 20 35 0 14 5 25
10 25 6 0 10 -7 10 -15 0 -21 13 -19 81 15 80 41 164 49 252 25 75 -20 72 -14
87 -165 5 -52 13 -124 16 -159 6 -58 5 -64 -10 -58 -13 5 -15 2 -10 -21 9 -37
13 -42 29 -42 11 0 14 13 10 58 -13 183 -14 270 -2 321 12 48 18 57 53 75 68
35 177 110 229 159 28 25 51 41 53 36 8 -22 -23 -82 -59 -112 -52 -45 -50 -67
9 -94 64 -29 116 -40 184 -38 105 4 180 21 198 45 10 14 117 40 136 34 10 -4
29 -19 41 -33 19 -23 22 -37 22 -116 0 -49 -3 -122 -7 -161 -4 -39 -4 -125 0
-190 16 -244 14 -309 -6 -275 -16 26 -147 14 -177 -16 -28 -28 69 -134 164
-179 l37 -18 0 -80 c0 -55 -3 -76 -10 -66 -7 11 -12 12 -20 4 -8 -8 -7 -14 5
-24 25 -20 18 -37 -15 -35 -19 1 -30 -3 -30 -12 0 -17 -16 -17 -23 1 -6 15
-55 27 -63 15 -6 -11 16 -48 46 -76 14 -12 20 -23 13 -23 -17 0 11 -51 38 -70
42 -29 70 -62 65 -77 -3 -8 -6 -18 -6 -23 0 -4 -21 -11 -46 -15 -102 -15 -204
-70 -204 -109 0 -12 15 -37 34 -55 27 -26 32 -36 23 -46 -16 -17 -27 -9 -27
18 0 16 -3 18 -12 9 -16 -16 -31 -15 -25 1 3 9 -2 13 -16 12 -23 -2 -34 -20
-18 -30 16 -10 13 -23 -7 -29 -18 -6 -23 -41 -9 -63 15 -23 -39 -46 -93 -40
-57 7 -120 -1 -120 -15 0 -6 7 -8 15 -5 8 4 17 2 20 -3 4 -6 18 -10 33 -11 15
0 21 -3 13 -6 -9 -4 -5 -10 15 -19 16 -8 36 -18 44 -23 8 -5 24 -13 35 -16 13
-5 15 -9 7 -12 -6 -3 -10 -9 -6 -14 3 -5 -8 -9 -24 -9 -16 0 -36 -7 -43 -16
-11 -14 -10 -18 6 -30 10 -8 16 -17 12 -20 -6 -6 73 -74 123 -105 11 -8 12
-12 3 -15 -7 -3 -13 -12 -13 -20 0 -8 -5 -14 -11 -14 -5 0 -7 -4 -4 -10 3 -5
24 -8 45 -6 44 4 53 -9 18 -24 -26 -10 -30 -8 52 -13 14 -1 42 4 64 10 21 7
42 11 46 8 5 -3 10 -1 12 5 1 5 13 7 26 4 16 -5 22 -14 22 -33 0 -14 9 -41 20
-59 26 -43 25 -57 -2 -38 -30 21 -52 20 -118 -5 -70 -26 -87 -42 -116 -104
-25 -53 -30 -94 -15 -141 5 -16 12 -41 15 -57 4 -15 22 -45 41 -66 l35 -38
-68 -70 c-39 -41 -87 -105 -115 -155 -45 -81 -49 -94 -64 -210 -9 -67 -17
-172 -18 -232 -2 -147 15 -206 131 -451 31 -67 71 -110 131 -142 57 -30 157
-33 220 -6 19 8 38 12 41 9 5 -5 -9 -156 -23 -249 -15 -104 -177 -329 -277
-387 -62 -34 -78 -28 -60 24 22 60 18 104 -11 133 -25 25 -27 26 -64 11 -34
-13 -38 -18 -36 -49 l1 -34 -24 30 c-14 17 -32 42 -41 56 -21 34 -41 46 -95
54 -39 6 -49 3 -74 -18 -27 -23 -28 -26 -14 -53 8 -16 16 -33 18 -38 3 -5 -7
-6 -21 -2 -51 12 -167 -44 -167 -81 0 -49 80 -112 144 -114 l31 -1 -32 -11
c-36 -14 -83 -52 -83 -68 0 -25 36 -69 63 -79 17 -5 50 -10 73 -10 35 0 44 -3
44 -18 0 -19 31 -43 69 -54 38 -11 77 23 91 79 6 27 18 57 25 67 14 18 16 18
32 3 10 -8 56 -32 103 -52 79 -34 90 -37 166 -33 70 4 89 9 146 41 37 20 69
37 72 37 3 0 6 -10 6 -23 0 -13 4 -27 9 -32 11 -11 52 -162 58 -215 4 -29 -3
-47 -35 -95 -43 -66 -82 -175 -82 -230 0 -28 4 -35 19 -35 27 0 51 10 51 22 0
6 11 19 24 29 45 35 38 119 -11 119 -7 0 -13 3 -13 7 0 13 60 100 85 121 14
12 25 26 25 32 0 5 11 10 24 10 13 0 29 7 36 15 19 23 27 18 37 -22 16 -70 91
-81 160 -24 33 27 39 29 53 16 20 -18 71 -20 88 -3 9 9 16 8 30 -5 10 -9 32
-17 48 -16 l29 1 -31 9 c-40 11 -47 29 -24 59 l18 23 27 -21 c21 -17 31 -19
47 -11 11 6 21 9 24 7 5 -6 -31 -130 -46 -159 -26 -47 -124 -131 -170 -145
-55 -17 -63 -17 -54 -3 3 6 -5 21 -20 33 l-27 21 31 37 c32 39 38 83 11 83 -8
0 -32 -26 -54 -59 -33 -47 -51 -63 -94 -82 -30 -13 -55 -24 -56 -24 -2 0 -3
10 -4 22 -2 27 -22 40 -51 33 -23 -6 -23 -5 6 37 17 24 42 56 56 73 16 18 22
33 16 39 -16 16 -88 -74 -135 -171 -46 -94 -54 -130 -33 -151 19 -19 30 -15
88 37 49 44 104 70 119 56 3 -3 -3 -19 -12 -34 -21 -35 -22 -74 -3 -90 11 -10
21 -9 46 4 17 9 34 23 37 30 3 8 9 13 13 10 4 -2 15 4 25 15 9 10 34 21 54 25
55 9 102 42 165 115 31 36 72 81 90 100 30 30 35 43 37 90 1 30 6 60 10 65 4
6 9 40 10 75 0 36 7 88 15 115 7 28 13 73 13 100 -1 129 8 133 30 15 7 -36 15
-72 18 -80 3 -8 6 -31 8 -50 2 -19 5 -44 8 -56 12 -49 36 -123 45 -140 6 -11
24 -49 41 -85 29 -65 69 -109 98 -109 8 0 33 -15 56 -33 45 -36 213 -137 227
-137 5 0 17 -13 27 -30 24 -41 56 -39 96 5 37 43 51 44 86 6 37 -39 76 -49
102 -25 27 24 17 88 -19 128 -26 28 -26 29 -5 23 13 -3 25 -1 28 3 3 5 -8 11
-25 15 -31 7 -50 30 -50 63 0 28 -57 102 -79 102 -32 0 -30 -23 5 -95 28 -57
31 -70 20 -79 -8 -6 -16 -21 -18 -33 -3 -20 -5 -21 -27 -10 -16 8 -28 27 -35
57 -14 53 -58 115 -86 123 -30 8 -34 -9 -12 -46 32 -52 37 -77 15 -77 -23 0
-43 -19 -43 -41 0 -13 -12 -10 -70 17 -39 19 -80 34 -93 34 -23 0 -118 82
-130 112 -3 10 -13 18 -22 18 -8 0 -15 5 -15 11 0 5 5 7 10 4 13 -8 13 17 1
47 -19 48 -24 63 -22 71 0 4 -5 20 -13 35 -7 15 -16 46 -20 70 -5 36 -4 42 12
42 9 0 28 7 40 16 12 8 22 10 22 5 0 -17 59 -43 80 -36 12 4 20 2 20 -4 0 -6
-7 -11 -15 -11 -8 0 -15 -4 -15 -9 0 -5 11 -8 24 -7 13 0 23 3 21 6 -1 3 1 14
6 25 6 17 8 14 8 -12 1 -35 -32 -68 -77 -80 -26 -6 -44 8 -83 67 -30 44 -32
12 -5 -45 27 -54 55 -74 88 -63 7 3 18 -5 23 -16 6 -12 28 -27 49 -34 50 -16
98 5 121 54 9 20 24 38 33 41 28 10 82 66 82 84 0 10 5 21 10 24 6 3 10 -3 10
-14 0 -22 35 -51 62 -51 26 0 5 -40 -36 -68 -36 -24 -66 -28 -84 -10 -9 9 -12
8 -12 -4 0 -9 10 -24 22 -32 l21 -15 -27 -13 c-25 -11 -30 -10 -47 12 -10 14
-19 21 -20 15 -1 -5 -3 -23 -5 -38 -6 -58 -41 -73 -81 -35 -32 30 -43 13 -11
-19 34 -34 75 -34 104 1 13 14 31 26 42 26 10 0 48 29 84 64 l65 65 22 -29
c28 -38 27 -43 -9 -38 -16 3 -30 1 -30 -4 0 -18 33 -20 78 -5 26 8 51 13 55
10 4 -3 19 -30 33 -60 15 -35 41 -71 70 -96 42 -37 44 -41 26 -48 -20 -8 -58
-69 -42 -69 5 0 24 -14 42 -30 26 -24 41 -30 68 -28 33 3 35 5 32 38 -2 30
-20 72 -66 154 -6 12 -23 37 -39 58 -57 75 -80 143 -88 262 -4 61 -12 138 -18
171 -12 68 -8 198 8 299 7 37 9 77 5 88 -9 29 15 117 39 139 27 25 37 24 37
-3 0 -13 4 -29 9 -37 20 -32 99 57 84 95 -2 7 1 15 8 20 9 5 11 -8 5 -59 -3
-36 -2 -68 3 -71 14 -9 91 52 102 81 6 17 7 35 1 48 -6 14 -3 34 14 69 15 32
21 59 17 78 -3 15 -1 34 5 41 6 7 11 35 12 62 4 142 8 212 15 227 3 9 1 26 -5
38 -7 13 -8 20 -3 17 5 -3 6 25 2 64 -3 39 -5 82 -3 97 2 15 4 108 4 207 2
221 -12 354 -42 407 l-22 39 28 22 c77 60 106 91 116 125 16 59 12 61 -14 6
-28 -60 -66 -90 -148 -115 -75 -24 -233 -26 -264 -5 -11 8 -43 23 -71 34 -28
11 -80 39 -116 62 -52 34 -70 53 -82 84 -9 23 -32 64 -50 91 -19 28 -38 68
-44 91 -6 22 -22 50 -35 63 l-24 23 -7 -41 c-9 -55 -83 -124 -156 -145 -118
-35 -212 -8 -246 72 -18 44 -54 42 -63 -3 -12 -57 -37 -90 -89 -116 -45 -24
-56 -25 -103 -17 -42 7 -61 17 -90 48 -21 22 -38 49 -38 60 0 29 -18 60 -35
60 -14 0 -27 -15 -93 -105 -38 -52 -36 -52 39 8 l47 37 12 -30 c7 -17 31 -48
54 -71 l41 -40 71 3 c63 3 77 7 125 41 33 22 59 49 66 67 15 39 26 38 49 -5
21 -40 62 -60 145 -70 98 -12 142 11 251 132 l36 41 11 -43 c6 -24 22 -56 35
-72 25 -31 59 -94 71 -133 7 -24 7 -24 -26 6 -65 60 -105 70 -95 24 3 -16 2
-30 -2 -31 -4 0 -16 -3 -27 -5 -11 -3 -37 -5 -57 -5 -28 1 -38 -3 -38 -14 0
-9 7 -18 15 -21 8 -4 15 -11 15 -18 0 -8 -22 -12 -61 -13 -33 -1 -67 -7 -74
-13 -10 -8 -27 -7 -63 5 -38 13 -55 14 -70 6 -11 -6 -27 -8 -35 -5 -8 3 -17
-2 -20 -10 -4 -9 -13 -16 -22 -16 -8 0 -24 -6 -35 -12 -14 -9 -23 -10 -28 -3
-4 6 -18 11 -32 12 -14 0 -29 2 -35 3 -31 7 -55 -1 -55 -19 0 -25 -11 -32 -38
-24 -15 3 -22 13 -22 29 0 36 -18 74 -35 74 -8 0 -15 7 -15 15 0 19 -17 19
-36 0 -9 -8 -24 -15 -35 -15 -10 0 -19 -6 -19 -14 0 -8 -5 -16 -11 -18 -5 -2
-11 -10 -12 -18 -1 -8 -10 -25 -18 -38 -11 -15 -15 -37 -12 -69 4 -57 8 -61
35 -44 18 11 20 11 15 -3 -5 -11 1 -18 21 -23 15 -4 34 -6 43 -5 8 2 24 -7 34
-18 10 -11 24 -20 32 -20 7 0 13 -7 13 -15 0 -21 59 -20 75 1 10 15 13 13 18
-15 5 -24 12 -31 31 -31 13 0 26 -7 30 -15 9 -23 25 -18 38 13 6 15 11 30 10
33 -1 8 83 -14 99 -27 34 -26 99 -35 155 -23 55 12 60 19 56 72 -2 21 2 21 34
0 20 -13 30 -14 44 -5 10 6 29 9 41 7 12 -3 29 1 36 7 10 8 17 8 25 0 13 -13
58 13 58 33 0 13 45 26 65 19 6 -3 18 -20 27 -39 8 -19 12 -33 8 -30 -4 2 -7
-2 -7 -10 0 -8 4 -12 9 -9 10 6 10 -35 -1 -98 -6 -37 -5 -46 5 -38 6 6 15 30
18 53 7 42 7 43 42 39 28 -4 41 1 65 24 29 28 44 79 16 55 -8 -6 -18 -7 -22
-3 -5 4 -5 2 -2 -4 8 -14 -21 -41 -48 -46 -15 -2 -21 3 -23 22 -7 63 -25 109
-53 129 -20 15 -28 28 -25 44 3 12 5 26 5 31 1 4 11 6 23 3 12 -4 28 -1 35 4
6 6 18 7 25 3 7 -5 18 -9 23 -10 6 0 17 -2 25 -3 13 -1 13 -2 0 -11 -13 -8
-12 -10 3 -10 23 0 22 12 -4 33 -29 25 -18 32 20 13 16 -9 39 -16 51 -16 23 0
24 -4 9 -32 l-11 -21 -13 22 c-10 20 -13 21 -18 7 -5 -12 -3 -15 5 -10 8 5 9
2 5 -10 -4 -10 -3 -15 3 -11 6 3 10 1 10 -4 0 -14 -37 -51 -50 -51 -16 0 -74
31 -82 44 -5 8 -8 7 -8 -2 0 -24 48 -62 78 -62 21 0 35 -8 48 -27 10 -16 18
-30 17 -33 -1 -3 6 -6 15 -6 9 0 31 -4 49 -8 27 -6 37 -3 57 17 22 22 27 23
37 10 27 -32 62 -42 95 -28 39 16 43 22 49 82 4 39 3 43 -4 19 -20 -58 -46
-70 -122 -57 -13 2 -29 54 -24 75 4 15 3 17 -3 8 -5 -8 -13 -14 -18 -15 -5 -1
-9 -15 -10 -31 0 -33 -26 -56 -64 -56 -39 0 -84 60 -58 76 7 5 8 2 3 -6 -5 -8
-4 -11 3 -6 6 4 8 14 5 24 -6 15 -5 16 13 2 17 -13 18 -13 7 0 -11 15 -7 66 7
75 4 3 18 -4 31 -14 16 -13 34 -17 54 -14 16 2 44 -1 60 -7 29 -11 29 -12 11
-26 -11 -8 -15 -14 -9 -14 7 0 15 5 18 10 10 15 28 12 22 -4 -3 -8 0 -17 7
-19 19 -7 15 31 -4 43 -12 8 -11 10 8 10 12 0 22 5 22 10 0 6 11 10 25 10 20
0 26 -8 39 -50 8 -27 18 -115 22 -195 6 -132 5 -145 -10 -145 -24 0 -31 27
-12 45 9 9 16 24 16 33 0 14 -2 14 -13 -2 -9 -13 -23 -17 -52 -14 l-40 3 -3
63 c-2 34 -7 62 -12 62 -6 0 -10 -8 -11 -17 -2 -52 -12 -80 -35 -100 -27 -25
-72 -31 -78 -10 -14 47 -39 107 -52 123 -14 18 -15 16 -9 -21 3 -22 7 -61 8
-87 1 -27 4 -48 7 -48 3 0 6 -20 7 -45 2 -44 1 -45 -20 -34 -12 7 -30 20 -40
31 -19 19 -37 16 -37 -5 1 -16 66 -57 91 -57 20 0 20 -1 -2 -31 -26 -37 -76
-61 -101 -48 -9 5 -22 26 -29 46 -19 58 -49 93 -78 93 -17 0 -22 -3 -13 -8 7
-5 10 -16 6 -25 -3 -10 -1 -17 6 -17 6 0 8 5 5 10 -3 6 -2 10 4 10 15 0 48
-52 58 -90 6 -23 19 -40 36 -48 15 -7 34 -29 42 -50 9 -20 22 -44 30 -53 13
-14 13 -18 -5 -34 -18 -17 -20 -17 -14 -2 3 10 1 17 -5 17 -6 0 -11 -9 -11
-20 0 -32 -30 -37 -52 -9 l-19 24 3 -30 c2 -24 9 -31 36 -39 32 -9 33 -11 29
-47 -2 -21 0 -36 5 -33 4 3 6 10 3 15 -3 5 9 -1 28 -14 l33 -22 -28 -31 c-16
-17 -44 -39 -63 -49 -33 -19 -34 -19 -59 6 -33 31 -32 40 2 70 27 24 27 24 4
27 -13 2 -34 -6 -50 -20 -26 -22 -48 -32 -147 -72 -35 -14 -36 -16 -10 -12 17
2 58 12 93 22 55 16 64 17 72 4 6 -8 8 -21 5 -28 -3 -8 -8 -50 -11 -95 -5 -61
-11 -87 -25 -99 -10 -10 -22 -18 -27 -18 -5 0 -17 -9 -28 -21 -32 -35 -96 -68
-164 -83 -95 -20 -163 -37 -178 -45 -34 -16 -483 19 -527 41 -17 9 -47 18 -67
22 -31 6 -38 12 -49 44 -15 45 -15 137 -1 174 10 25 14 26 64 22 l53 -4 -50
27 c-43 22 -113 85 -116 102 -9 70 -13 161 -7 161 5 0 8 7 8 15 0 8 11 39 24
69 30 67 41 129 27 153 -6 10 -11 13 -11 5 0 -7 -5 -18 -11 -25 -5 -7 -19 -27
-29 -44 -23 -38 -54 -43 -70 -13 -13 24 -8 46 28 118 l26 53 -22 21 c-18 19
-25 20 -47 10 -31 -15 -36 6 -5 26 13 8 20 23 20 45 0 26 -7 37 -36 56 -30 21
-35 30 -32 53 4 25 1 28 -22 28 -29 0 -60 27 -60 53 0 9 16 31 35 48 19 18 35
37 35 43 0 6 -7 0 -16 -12 -17 -24 -62 -30 -82 -10 -24 24 -13 55 31 83 57 38
184 162 202 198 10 19 -21 -5 -88 -69 -56 -55 -126 -111 -154 -127 l-51 -27
-4 31 c-4 27 0 32 31 49 56 29 89 66 198 225 54 79 89 112 145 137 42 19 50
38 16 38 -41 -1 -102 -53 -155 -134 -64 -98 -160 -207 -207 -234 -35 -21 -36
-21 -33 -2 2 11 13 30 25 43 21 22 31 92 36 245 1 21 5 31 13 28 7 -3 10 1 6
10 -3 9 3 21 16 30 12 9 19 19 16 23 -2 5 8 11 23 14 18 4 33 16 40 32 14 30
8 47 -13 38 -8 -3 -15 -1 -15 5 0 6 5 12 12 14 6 2 8 10 4 17 -5 7 -14 10 -22
7 -9 -3 -14 1 -14 14 0 23 -62 56 -82 44 -11 -6 -11 -5 0 8 7 9 21 14 30 11
11 -2 26 7 40 26 19 26 20 34 10 56 -6 14 -16 25 -23 25 -22 0 -34 21 -23 40
13 21 -18 67 -63 94 -16 9 -27 21 -24 26 3 5 -8 16 -25 25 -29 15 -30 17 -30
90 0 69 6 86 23 68 4 -3 2 -12 -4 -19 -8 -10 -3 -14 23 -19 18 -3 46 -4 62 -3
23 2 33 -3 42 -21 16 -31 35 -42 51 -29 9 7 10 15 2 30 -6 11 -8 22 -5 25 3 3
10 -6 15 -20 5 -14 13 -27 18 -30 17 -11 66 6 70 24 6 22 21 25 29 5 9 -24 34
-27 118 -15 76 11 128 34 149 66 4 7 21 10 41 8 28 -4 40 1 70 31 38 37 38 48
-2 95 -17 20 -38 27 -27 9 3 -5 1 -10 -5 -10 -7 0 -9 8 -5 20 5 16 2 20 -15
20 -26 0 -54 -26 -44 -41 4 -8 3 -9 -4 -5 -7 4 -12 19 -12 34 -1 56 -46 81
-74 41 -13 -19 -18 -20 -50 -9 -29 9 -41 9 -64 -2 -15 -8 -44 -13 -64 -10 -20
2 -48 -3 -64 -11 -26 -14 -32 -14 -56 1 -42 25 -45 45 -5 37 21 -4 27 -3 18 3
-19 13 -4 34 20 27 12 -4 19 -2 19 7 -1 20 -24 45 -37 41 -9 -3 -11 6 -8 32 4
31 2 38 -15 42 -22 6 -26 18 -10 28 6 3 10 11 10 16 0 6 -5 7 -12 3 -7 -5 -8
-3 -3 5 5 9 17 4 41 -20 19 -18 34 -39 34 -46 0 -18 38 -36 58 -27 19 8 28 11
42 13 5 0 15 12 23 26 l13 25 16 -36 c14 -30 14 -36 2 -41 -8 -3 -14 -10 -14
-17 0 -7 21 -12 57 -13 46 -1 63 3 92 24 20 14 29 23 20 20 -9 -3 -16 0 -16 7
0 7 10 12 21 12 13 -1 20 4 18 13 -2 9 4 12 17 8 11 -3 19 -2 18 2 -1 3 6 17
15 30 l17 24 7 -28 c5 -20 2 -31 -9 -40 -14 -10 -14 -15 -3 -36 7 -13 11 -30
8 -37 -5 -17 18 -15 24 3 9 24 44 19 44 -6 0 -19 4 -21 32 -15 47 9 98 52 98
82 0 20 4 24 18 20 16 -5 18 -2 14 25 -3 23 0 36 12 45 10 7 17 16 17 21 -1
12 20 77 28 85 4 4 4 -20 0 -55 -5 -54 -3 -65 14 -84 25 -29 57 -30 64 -3 3
11 17 23 32 26 14 4 32 12 40 18 7 6 4 -7 -8 -29 -28 -53 -28 -77 2 -73 12 2
28 7 35 11 20 13 54 -2 48 -21 -13 -40 145 -76 161 -37 5 14 8 14 22 2 9 -8
31 -18 50 -22 32 -7 33 -9 17 -21 -23 -16 -11 -37 18 -30 20 5 20 4 2 -9 -23
-18 -14 -45 15 -45 12 0 19 -3 16 -7 -4 -3 0 -15 10 -25 12 -13 13 -18 3 -18
-7 0 -11 -3 -8 -6 4 -3 0 -22 -9 -42 -14 -33 -14 -37 3 -49 26 -19 33 -17 50
21 13 27 24 35 52 40 43 7 50 1 33 -25 -17 -29 -5 -37 27 -18 39 21 37 59 -5
80 l-32 16 25 12 c15 6 53 14 87 18 58 6 60 5 55 -15 -4 -15 -2 -22 8 -22 20
0 30 50 13 61 -14 10 -55 7 -94 -6 -11 -3 6 8 37 24 69 37 140 54 191 46 72
-13 59 -41 -64 -141 -81 -65 -166 -119 -247 -159 -48 -23 -60 -34 -56 -47 6
-20 -6 -24 -23 -7 -8 8 -17 4 -32 -12 -23 -25 -28 -49 -10 -49 14 0 59 -47 59
-61 0 -5 -4 -9 -10 -9 -17 0 -42 -61 -35 -87 3 -14 18 -29 34 -36 l29 -12 -34
-25 c-39 -29 -51 -59 -34 -90 9 -16 9 -25 1 -33 -14 -14 -14 -50 1 -65 9 -9 9
-18 0 -37 -17 -38 -15 -72 7 -94 12 -12 17 -27 14 -45 -3 -15 -1 -26 6 -26 6
0 11 -4 11 -10 0 -5 -6 -10 -14 -10 -8 0 -16 -6 -19 -12 -3 -8 -9 -2 -15 13
-5 14 -24 47 -40 73 -17 27 -34 61 -37 76 -7 32 -31 51 -88 69 -32 11 -41 10
-62 -3 -40 -27 -32 -46 19 -46 71 0 92 -13 121 -75 15 -30 30 -55 35 -55 4 0
11 -17 15 -37 8 -42 44 -119 86 -179 30 -44 90 -76 164 -88 45 -8 174 9 189
25 13 12 1 12 -44 -1 -32 -8 -33 -8 -15 5 11 8 26 19 33 25 7 6 21 8 32 5 11
-4 20 -2 20 3 0 5 35 26 78 47 98 49 112 63 112 116 0 36 2 40 15 29 13 -11
15 -10 9 6 -25 78 -40 92 -75 74 -26 -14 -24 -23 4 -15 15 4 18 3 8 -3 -10 -7
-10 -14 -2 -30 6 -11 11 -33 12 -48 4 -56 -10 -75 -77 -105 -35 -16 -66 -29
-69 -29 -2 0 -11 24 -20 53 -9 30 -22 62 -30 73 -20 26 -19 34 5 34 23 0 28
38 8 59 -11 10 -4 12 32 11 60 -2 171 39 212 79 17 17 35 31 39 31 4 0 9 9 12
19 3 13 -9 32 -40 60 l-44 42 23 20 c13 10 38 26 56 34 31 13 33 17 27 49 -6
28 -3 37 14 48 25 15 27 28 6 28 -8 0 -15 4 -15 9 0 8 -80 33 -97 30 -27 -5
-21 5 20 31 45 29 60 57 35 64 -7 2 -35 10 -61 16 -34 9 -45 16 -38 23 6 6 11
19 11 29 0 10 6 27 12 38 13 21 1 57 -18 53 -5 -1 -12 7 -17 19 -4 11 -16 22
-27 25 -11 3 -20 9 -20 14 0 16 -65 26 -120 19 l-54 -7 54 49 c30 27 78 64
106 83 75 51 90 70 76 99 -8 19 -22 27 -59 33 -61 10 -213 10 -327 0 l-89 -8
16 25 c35 53 17 59 -61 21 -63 -30 -73 -32 -39 -5 14 11 29 30 32 41 4 11 9
18 12 15 6 -5 10 -2 62 43 19 17 38 28 42 26 10 -7 27 17 31 45 2 14 9 24 16
22 8 -1 11 2 7 8 -3 5 -15 10 -25 10 -10 0 -22 5 -25 10 -3 6 -1 10 4 10 6 0
11 7 11 15 0 8 6 16 13 16 6 1 17 2 22 4 6 1 16 3 23 3 16 2 -22 40 -51 51
-12 5 -29 4 -37 0 -13 -7 -92 -44 -124 -58 -5 -2 0 13 12 33 23 40 28 61 12
51 -5 -3 -10 -1 -10 5 0 7 7 10 15 7 18 -7 29 8 18 26 -4 6 -8 17 -8 22 -1 6
-6 9 -13 7 -7 -1 -12 5 -12 13 0 9 -6 15 -12 14 -7 -1 -26 4 -43 11 -37 16
-55 18 -77 7 -21 -9 -98 -122 -98 -143 0 -8 -9 -23 -19 -33 -11 -11 -17 -22
-15 -25 2 -4 -1 -2 -7 3 -7 6 -8 29 -4 65 8 64 53 141 88 152 85 25 251 126
298 180 19 22 59 138 59 171 0 16 -8 25 -27 30 -37 9 -52 7 -166 -33 -115 -39
-120 -36 -87 52 29 78 49 179 43 217 -6 39 -16 58 -61 121 -32 44 -38 48 -68
43 -40 -7 -94 -45 -94 -66 0 -9 -10 -32 -22 -51 -12 -19 -23 -44 -24 -55 -5
-40 -24 -111 -43 -160 -10 -27 -24 -83 -30 -124 -12 -75 -22 -103 -49 -133 -8
-10 -17 -39 -19 -65 -2 -26 -13 -63 -24 -82 -11 -20 -28 -63 -39 -96 -10 -33
-19 -53 -19 -44 -1 9 -8 19 -15 22 -10 4 -13 1 -10 -7 3 -8 0 -17 -7 -22 -7
-4 -10 -3 -6 3 4 6 -3 27 -13 49 -11 21 -20 47 -20 58 0 37 -69 65 -71 29 0
-12 -4 -8 -11 10 -5 15 -13 27 -17 27 -13 0 -75 -32 -93 -48 -16 -13 -18 -13
-18 0 0 10 -13 14 -52 14 -31 0 -53 5 -56 12 -5 17 -22 15 -22 -4 0 -8 -5 -12
-11 -9 -5 4 -22 8 -35 10 -36 4 -62 31 -46 47 14 14 16 28 3 28 -12 0 -53 -85
-55 -115 0 -13 -3 -21 -5 -19 -3 2 -15 -6 -28 -18 -23 -21 -25 -22 -34 -5 -6
9 -21 17 -34 17 -21 0 -23 -3 -17 -22 5 -13 6 -36 2 -53 -6 -29 -7 -28 -28 27
-11 31 -30 74 -42 95 -11 21 -16 39 -12 41 5 1 7 15 4 30 l-6 27 -7 -25 c-4
-16 -6 -4 -6 35 1 33 -2 76 -5 95 -3 19 -1 41 4 48 7 8 7 25 0 55 -6 23 -14
62 -17 87 -7 55 -29 90 -55 90 -29 0 -88 -57 -122 -117 -29 -51 -42 -67 -33
-40 2 6 6 77 9 157 7 180 9 187 49 193 18 3 73 15 122 26 186 42 239 47 313
28 37 -9 95 -17 130 -17 48 0 62 -3 62 -15 0 -20 46 -30 65 -15 8 7 15 21 15
31 0 14 7 19 25 19 14 0 39 13 57 30 17 17 27 30 23 30 -4 0 3 9 16 20 13 11
30 25 37 31 19 16 114 50 121 43 3 -3 0 -9 -8 -13 -9 -6 -7 -10 8 -14 11 -2
22 0 24 6 2 7 16 2 34 -11 33 -23 63 -29 63 -12 0 6 -8 10 -18 10 -16 0 -43
31 -41 46 0 4 -5 11 -13 15 -10 7 -9 9 5 9 9 0 17 -4 17 -9 0 -11 125 -35 145
-27 9 3 13 2 10 -4 -3 -6 1 -10 10 -10 11 0 15 5 12 14 -10 26 4 25 51 -3 189
-111 317 -128 386 -53 64 69 76 84 76 92 0 11 51 -6 142 -49 81 -37 118 -47
118 -32 0 6 8 8 18 5 13 -5 14 -4 3 4 -8 6 -20 8 -28 5 -7 -3 -13 1 -13 10 0
8 -6 18 -12 20 -10 4 -10 8 1 15 11 8 10 12 -8 21 -17 10 -21 9 -21 -3 0 -32
-96 -22 -158 16 -42 26 -29 46 18 30 18 -7 28 -7 25 -2 -9 14 -1 12 39 -6 23
-12 33 -22 29 -33 -3 -12 -1 -11 11 3 18 22 12 38 -9 29 -8 -3 -15 0 -15 7 0
13 9 12 85 -10 22 -6 51 -14 65 -16 14 -3 34 -10 45 -15 42 -19 134 -47 139
-42 3 3 12 -2 21 -11 9 -9 23 -16 31 -16 8 0 26 -8 41 -17 14 -10 40 -17 57
-18 20 0 30 -5 28 -13 -1 -7 9 -17 22 -22 13 -5 33 -22 46 -39 12 -17 27 -31
35 -31 7 0 15 -7 19 -15 7 -18 7 -18 -39 1 -21 8 -44 13 -52 10 -9 -4 -17 1
-20 14 -6 22 -11 24 -30 12 -16 -10 -28 -88 -15 -96 14 -8 43 4 36 15 -3 5 -1
9 4 9 6 0 13 -7 16 -16 3 -8 10 -13 15 -9 5 3 12 1 16 -5 8 -13 58 -13 89 1
19 9 29 9 39 0 12 -9 16 -7 20 8 5 22 52 32 151 30 56 0 72 3 91 21 35 33 23
67 -29 76 -22 5 -50 8 -60 9 -11 0 -21 5 -23 11 -3 8 8 10 32 7 21 -3 35 0 35
6 0 6 -5 11 -12 11 -6 0 -9 3 -6 6 6 6 49 -13 58 -26 4 -5 80 -33 164 -60 16
-5 33 -7 38 -4 4 3 24 -4 43 -16 42 -26 77 -33 86 -18 5 7 13 4 25 -10 10 -12
21 -19 26 -16 4 3 8 0 8 -7 0 -7 8 -9 21 -6 23 6 49 -1 49 -13 0 -13 -83 -41
-90 -29 -4 6 -12 3 -21 -7 -9 -12 -10 -15 -1 -10 7 4 12 2 12 -6 0 -19 67 -78
89 -78 20 0 77 36 128 80 17 15 35 29 40 31 18 8 53 77 53 106 0 48 -50 81
-127 84 -56 2 -267 48 -413 90 -41 12 -88 24 -105 26 -16 3 -35 9 -41 14 -6 5
-51 22 -100 38 l-89 30 3 288 c3 375 -10 487 -23 188 -4 -115 -9 -266 -10
-335 -3 -146 5 -140 -140 -98 -28 8 -56 13 -63 10 -7 -2 -19 4 -26 13 -7 10
-25 18 -39 18 -15 0 -27 3 -27 8 0 4 -22 5 -49 2 -46 -5 -49 -4 -53 18 -2 19
-9 24 -28 22 -22 -2 -20 0 10 15 26 13 35 24 35 42 0 22 -4 25 -35 25 -21 0
-38 6 -42 15 -3 8 -6 -6 -4 -32 1 -32 -3 -49 -12 -53 -7 -3 -10 -10 -6 -16 4
-8 3 -9 -4 -5 -6 4 -9 13 -5 22 3 8 2 14 -3 13 -5 -1 -22 3 -39 10 -16 7 -38
13 -47 14 -10 1 -18 5 -18 10 0 5 -7 7 -15 3 -8 -3 -15 0 -15 6 0 6 -3 9 -6 6
-3 -4 -21 0 -39 8 -19 8 -47 14 -62 14 -15 0 -37 7 -47 15 -10 8 -23 12 -27 9
-5 -3 -21 1 -36 9 -34 18 -174 57 -203 57 -11 0 -28 4 -38 10 -9 5 -52 21 -94
36 -61 21 -78 31 -78 46 0 24 -26 34 -46 17 -20 -16 -45 -20 -59 -9 -5 4 -30
13 -55 20 -61 16 -100 33 -101 45 -1 5 -1 73 -1 150 1 101 -1 133 -8 116 -6
-13 -11 -79 -13 -148 -2 -119 -3 -124 -22 -120 -19 5 -101 35 -240 86 -33 13
-80 29 -105 37 -25 8 -59 21 -77 29 -17 8 -34 15 -38 15 -3 0 -30 11 -58 25
-91 42 -190 77 -261 91 -38 8 -74 18 -79 23 -6 6 -23 8 -38 5 -91 -14 -84 -16
-85 23 0 23 -7 39 -18 45 -10 6 -28 20 -40 32 -13 13 -35 21 -56 22 -19 1 -65
4 -101 8 l-66 7 -13 -48z m-236 -467 c-3 -9 -12 -16 -20 -16 -8 0 -14 -4 -14
-8 0 -10 -104 -127 -148 -167 -18 -16 -79 -74 -135 -127 -55 -54 -104 -98
-107 -98 -3 0 -39 -34 -80 -75 -76 -77 -91 -85 -205 -110 l-30 -6 39 35 c21
20 42 33 47 30 5 -3 9 1 9 8 1 7 20 35 44 62 39 45 44 47 64 35 36 -23 58 -1
54 53 -3 39 -1 46 18 51 12 3 24 15 27 26 3 12 9 21 13 21 5 0 43 34 85 75 43
41 81 75 86 75 4 0 19 10 33 23 13 12 51 35 83 52 32 16 66 36 76 44 19 16 61
39 65 36 1 -1 0 -10 -4 -19z m773 -66 c8 0 11 -5 7 -12 -5 -7 -2 -9 9 -5 8 3
21 -1 27 -8 7 -8 16 -12 21 -9 5 3 9 0 9 -6 0 -7 7 -10 14 -7 26 10 32 -61 7
-86 -14 -14 -31 6 -31 39 0 11 -9 29 -20 39 -17 15 -20 16 -15 3 4 -9 1 -19
-5 -23 -13 -8 -69 51 -70 73 0 7 -7 20 -15 28 -8 9 -15 20 -15 27 0 6 14 -4
31 -21 17 -18 38 -32 46 -32z m-1110 -55 c-13 -27 -27 -33 -27 -10 0 11 22 32
37 35 0 0 -4 -11 -10 -25z m963 -77 c0 -10 13 -32 28 -50 35 -42 68 -105 59
-114 -10 -11 -137 117 -137 139 0 13 -5 17 -15 13 -10 -3 -15 1 -15 13 0 11
-3 28 -6 38 -3 10 2 7 10 -7 l15 -25 -3 33 c-3 25 -1 30 10 22 10 -9 11 -6 8
12 -4 16 2 11 20 -17 14 -22 26 -48 26 -57z m-384 -46 c-11 -156 -25 -228 -46
-255 -20 -24 -30 -21 -33 12 -1 11 -5 21 -9 21 -4 0 -8 9 -8 20 0 11 -7 23
-15 26 -21 9 -19 63 5 120 12 26 19 55 18 63 -4 19 31 63 44 55 5 -3 7 -2 6 3
-2 5 4 16 12 25 24 26 32 -2 26 -90z m69 98 c3 -5 1 -10 -4 -10 -6 0 -11 5
-11 10 0 6 2 10 4 10 3 0 8 -4 11 -10z m510 0 c3 -5 1 -10 -4 -10 -6 0 -11 5
-11 10 0 6 2 10 4 10 3 0 8 -4 11 -10z m213 -53 c40 -26 75 -47 77 -47 3 0 43
-25 90 -55 46 -30 87 -55 90 -55 3 0 30 -16 60 -35 54 -34 69 -55 41 -55 -8 0
-21 -9 -29 -20 -8 -11 -17 -17 -20 -13 -4 3 -15 -3 -25 -15 -11 -12 -21 -19
-24 -17 -3 3 -18 1 -33 -5 -19 -7 -31 -7 -40 0 -9 8 -15 8 -20 0 -3 -5 -12
-10 -18 -10 -8 0 -7 3 2 9 11 7 11 13 -3 32 -13 19 -16 20 -16 6 0 -9 -4 -17
-10 -17 -5 0 -10 9 -10 20 0 11 -4 20 -10 20 -5 0 -10 -6 -10 -12 0 -7 -12 0
-26 15 -24 26 -25 29 -10 46 16 17 14 19 -29 30 -41 10 -44 13 -35 31 13 25 7
26 -16 3 -13 -13 -19 -14 -22 -5 -2 6 -9 12 -16 12 -7 0 -22 19 -34 43 -12 23
-22 38 -22 33 0 -5 -7 -3 -15 4 -14 12 -19 81 -8 103 10 18 74 -3 141 -46z
m137 43 c3 -6 -1 -7 -9 -4 -18 7 -21 14 -7 14 6 0 13 -4 16 -10z m-1535 -4 c0
-2 -8 -10 -17 -17 -16 -13 -17 -12 -4 4 13 16 21 21 21 13z m1740 -22 c0 -14
-3 -14 -15 -4 -8 7 -15 14 -15 16 0 2 7 4 15 4 8 0 15 -7 15 -16z m-155 -4 c3
-6 -1 -7 -9 -4 -18 7 -21 14 -7 14 6 0 13 -4 16 -10z m642 -16 c-5 -5 -57 13
-57 20 0 3 14 0 31 -6 16 -6 28 -12 26 -14z m-2371 1 c9 -8 24 -15 34 -15 10
0 22 -4 25 -10 4 -6 -1 -7 -11 -3 -11 4 -15 3 -10 -5 4 -6 -5 -19 -21 -29 -15
-10 -35 -25 -43 -33 -13 -14 -14 -14 -5 -1 6 9 -13 -7 -40 -35 -28 -28 -71
-64 -95 -80 -25 -16 -47 -31 -50 -34 -9 -10 -174 -115 -204 -131 -16 -7 -54
-39 -85 -69 -50 -49 -61 -55 -99 -55 -23 0 -42 -2 -42 -5 0 -3 -11 -6 -25 -6
-14 -1 -25 2 -25 8 0 5 5 6 12 2 6 -4 8 -3 5 4 -4 5 -16 8 -27 5 -16 -4 -20 0
-20 20 0 20 -4 24 -20 20 -26 -7 -26 9 1 26 18 11 23 11 31 -1 6 -9 7 -5 2 12
-3 14 -3 22 1 18 12 -11 36 28 29 46 -4 11 -1 16 11 16 9 0 13 -4 10 -10 -9
-14 6 -12 35 6 14 8 17 13 8 10 -12 -3 -18 0 -18 9 0 22 -12 19 -56 -15 -21
-16 -44 -30 -50 -30 -6 0 -19 -9 -29 -20 -10 -11 -24 -20 -31 -20 -7 0 -18 -9
-24 -20 -6 -11 -15 -18 -21 -15 -5 4 -22 -3 -38 -14 -16 -12 -32 -21 -36 -21
-4 0 -19 -8 -33 -19 -15 -10 -48 -30 -73 -44 -44 -25 -46 -25 -93 -10 -40 13
-51 14 -74 2 -28 -14 -82 -19 -82 -8 0 4 8 10 18 13 34 13 73 38 78 51 3 7 13
11 22 8 9 -2 28 6 42 19 13 13 27 23 30 24 3 0 13 4 22 8 9 4 23 9 32 10 8 1
23 9 33 17 18 16 146 79 159 79 4 0 38 16 75 35 37 19 75 32 83 29 11 -4 16
-1 16 10 0 10 9 16 24 16 14 0 37 11 53 24 23 19 59 37 83 41 3 0 15 6 28 13
12 7 27 10 32 7 18 -11 10 -30 -17 -43 -57 -26 -73 -37 -73 -50 0 -7 -4 -11
-9 -8 -16 10 -41 -5 -41 -24 0 -10 -7 -20 -17 -22 -14 -3 -14 -5 -1 -15 11
-10 21 -7 52 15 21 14 33 28 27 30 -6 2 -8 8 -5 13 4 6 11 6 19 -1 10 -9 18
-7 33 8 11 11 23 17 27 14 4 -4 6 -2 5 3 -1 6 -2 15 -1 20 1 13 68 11 106 -4
23 -9 34 -9 52 0 24 13 39 63 29 96 -5 16 2 24 31 38 21 10 51 25 66 32 16 8
31 13 34 10 3 -3 15 3 27 15 40 38 79 47 102 23z m1962 6 c1 -1 3 0 5 1 8 6
46 -25 41 -34 -5 -7 -2 -8 5 -4 7 5 20 2 29 -6 9 -8 29 -19 44 -26 23 -9 26
-9 21 4 -4 10 0 12 11 8 8 -3 14 -11 13 -17 -1 -7 5 -11 14 -9 12 2 20 -10 30
-42 9 -30 18 -43 28 -41 9 1 24 -2 34 -7 15 -8 16 -11 3 -23 -19 -20 -25 -19
-45 6 -9 11 -29 22 -44 22 -27 2 -30 8 -29 57 0 14 -2 19 -5 12 -2 -6 -9 -10
-14 -6 -5 3 -9 0 -9 -5 0 -21 -36 -10 -89 27 -30 20 -61 42 -69 47 -21 13 -42
32 -42 38 0 4 58 2 68 -2z m-127 -48 c46 -27 93 -53 104 -60 11 -7 28 -16 37
-19 10 -3 15 -10 12 -16 -3 -5 -11 -5 -19 2 -9 8 -20 7 -40 -2 -24 -11 -29
-10 -45 10 -10 12 -23 22 -29 22 -12 0 -111 92 -111 103 0 11 3 10 91 -40z
m292 32 c-3 -9 -8 -14 -10 -11 -3 3 -2 9 2 15 9 16 15 13 8 -4z m106 -21 c19
-8 36 -12 39 -9 3 3 11 0 19 -6 7 -6 13 -9 13 -5 0 3 14 -8 32 -24 17 -17 38
-28 46 -25 7 3 12 0 10 -6 -2 -7 -16 -13 -31 -15 -15 -1 -25 1 -23 5 3 4 -4
13 -16 20 -11 7 -17 8 -13 2 3 -6 1 -11 -4 -11 -6 0 -11 5 -11 11 0 5 -4 8 -9
4 -5 -3 -13 -1 -16 5 -6 10 -67 40 -107 54 -10 3 -18 10 -18 16 0 12 36 5 89
-16z m201 11 c19 -7 28 -14 20 -14 -8 0 -28 6 -45 14 -39 17 -21 18 25 0z m65
-25 c3 -6 -1 -7 -9 -4 -18 7 -21 14 -7 14 6 0 13 -4 16 -10z m452 -6 c-3 -3
-12 -4 -19 -1 -8 3 -5 6 6 6 11 1 17 -2 13 -5z m10 -30 c-3 -3 -12 -4 -19 -1
-8 3 -5 6 6 6 11 1 17 -2 13 -5z m-2164 -75 c-5 -5 -7 7 -4 29 5 34 6 35 9 8
2 -16 0 -32 -5 -37z m1930 47 c4 -10 1 -13 -8 -9 -8 3 -12 9 -9 14 7 12 11 11
17 -5z m-2157 -23 c-10 -10 -19 5 -10 18 6 11 8 11 12 0 2 -7 1 -15 -2 -18z
m1419 -29 c19 -16 19 -16 -5 -9 -31 9 -50 25 -29 25 7 0 23 -8 34 -16z m-2059
-50 c-15 -14 -31 -22 -35 -19 -3 4 2 11 12 16 9 6 23 16 30 24 6 7 14 11 17 8
3 -3 -8 -16 -24 -29z m851 -16 c-2 -13 -4 -5 -4 17 -1 22 1 32 4 23 2 -10 2
-28 0 -40z m1558 34 c40 -25 96 -33 118 -18 9 7 14 16 10 19 -15 15 20 5 72
-20 46 -23 54 -31 49 -48 -9 -30 -17 -36 -65 -46 -57 -13 -175 7 -235 39 -11
6 -27 13 -36 16 -11 3 -15 12 -11 26 7 27 29 36 48 20 12 -10 15 -10 15 3 0 9
-8 18 -17 20 -15 4 -15 5 2 6 11 0 34 -7 50 -17z m-1398 -27 c-4 -8 -2 -17 2
-20 5 -3 7 -15 4 -28 -5 -18 -3 -20 8 -9 16 15 29 16 29 1 0 -5 -5 -7 -12 -3
-8 5 -9 2 -5 -9 5 -14 2 -16 -21 -12 -15 3 -22 3 -16 0 7 -3 10 -15 7 -25 -4
-14 0 -20 13 -21 11 -1 6 -5 -11 -8 -36 -9 -58 5 -51 32 3 11 1 28 -4 38 -8
14 -4 22 15 37 14 11 25 25 25 31 0 6 5 11 11 11 6 0 9 -7 6 -15z m96 -8 c4 3
7 -1 7 -9 0 -9 -10 -18 -23 -20 -21 -4 -23 -1 -19 25 4 27 6 28 17 14 7 -9 15
-14 18 -10z m2184 7 c-3 -3 -12 -4 -19 -1 -8 3 -5 6 6 6 11 1 17 -2 13 -5z
m-2237 -19 c0 -8 -4 -15 -10 -15 -5 0 -7 7 -4 15 4 8 8 15 10 15 2 0 4 -7 4
-15z m1795 5 c-3 -5 -12 -10 -18 -10 -7 0 -6 4 3 10 19 12 23 12 15 0z m520
-8 c11 -6 15 -12 8 -12 -6 0 -15 5 -18 10 -4 6 -9 9 -13 6 -4 -2 -16 0 -27 5
-18 7 -17 8 5 6 14 -2 34 -8 45 -15z m-2492 -43 c-7 -26 -23 -35 -34 -18 -14
22 -11 42 6 35 10 -3 15 1 15 12 0 13 2 14 9 3 5 -7 6 -22 4 -32z m-1348 21
c3 -5 -1 -10 -9 -10 -9 0 -16 5 -16 10 0 6 4 10 9 10 6 0 13 -4 16 -10z m1382
-32 c-3 -7 -5 -2 -5 12 0 14 2 19 5 13 2 -7 2 -19 0 -25z m-1012 2 c3 -5 1
-10 -4 -10 -6 0 -11 5 -11 10 0 6 2 10 4 10 3 0 8 -4 11 -10z m3856 -8 c7 10
9 9 9 -4 0 -25 -20 -32 -34 -12 -7 9 -18 14 -24 10 -7 -4 -12 -3 -12 3 0 16
24 18 39 4 11 -12 15 -12 22 -1z m-124 -39 c-8 -7 -47 7 -47 17 0 4 9 6 20 3
13 -3 20 0 21 8 1 8 3 6 6 -4 3 -10 2 -21 0 -24z m-3779 13 c-16 -5 -28 -16
-28 -23 0 -7 -4 -13 -10 -13 -7 0 -8 38 -1 46 1 0 16 1 34 0 l32 0 -27 -10z
m3835 -24 c-18 -5 -27 3 -18 17 4 7 10 7 20 -2 11 -10 11 -13 -2 -15z m-2545
-10 c2 -14 -2 -22 -11 -22 -15 0 -29 34 -19 45 11 11 27 -2 30 -23z m49 6 c-3
-8 -6 -5 -6 6 -1 11 2 17 5 13 3 -3 4 -12 1 -19z m-103 -11 c18 -18 14 -37 -8
-37 -10 0 -36 39 -36 55 0 9 29 -3 44 -18z m2774 6 c19 -19 42 -16 43 5 0 10
3 12 6 4 2 -6 9 -10 14 -7 5 4 6 -1 2 -10 -4 -13 -1 -16 13 -13 10 2 28 -4 38
-14 18 -16 43 -22 98 -22 9 0 15 -2 13 -6 -2 -4 31 -17 73 -29 97 -28 162 -54
162 -63 0 -12 -7 -10 -146 36 -72 25 -165 49 -206 55 -74 10 -123 29 -161 63
-19 17 -19 17 9 15 16 -1 35 -8 42 -14z m-353 -39 c28 -12 43 -23 34 -23 -9
-1 -43 13 -75 30 -65 33 -38 29 41 -7z m-4625 2 c0 -16 -27 -29 -42 -20 -7 5
-4 12 7 21 24 17 35 17 35 -1z m-170 -76 c0 -5 -7 -10 -16 -10 -8 0 -12 5 -9
10 3 6 10 10 16 10 5 0 9 -4 9 -10z m-50 -20 c0 -5 -5 -10 -11 -10 -5 0 -7 5
-4 10 3 6 8 10 11 10 2 0 4 -4 4 -10z m-180 -20 c0 -5 -2 -10 -4 -10 -3 0 -8
5 -11 10 -3 6 -1 10 4 10 6 0 11 -4 11 -10z m1170 0 c-20 -13 -33 -13 -25 0 3
6 14 10 23 10 15 0 15 -2 2 -10z m-1080 -10 c-20 -13 -33 -13 -25 0 3 6 14 10
23 10 15 0 15 -2 2 -10z m110 -6 c0 -4 -25 -17 -155 -74 -27 -12 -143 -50
-152 -50 -16 0 35 29 97 55 160 66 210 83 210 69z m5685 -4 c3 -6 -1 -7 -9 -4
-18 7 -21 14 -7 14 6 0 13 -4 16 -10z m-5715 -50 c0 -5 -7 -10 -16 -10 -8 0
-12 5 -9 10 3 6 10 10 16 10 5 0 9 -4 9 -10z m100 -10 c0 -5 -5 -10 -11 -10
-5 0 -7 5 -4 10 3 6 8 10 11 10 2 0 4 -4 4 -10z m2270 -590 c15 -64 20 -110
10 -110 -3 0 -14 6 -23 13 -14 9 -19 33 -23 102 -6 81 -5 88 9 70 8 -11 20
-45 27 -75z m663 -80 c-7 -27 -13 -25 -11 4 1 14 5 23 9 20 4 -2 5 -13 2 -24z
m232 -61 c11 -16 1 -19 -13 -3 -7 8 -8 14 -3 14 5 0 13 -5 16 -11z m-859 -151
c42 -12 94 -55 94 -79 0 -10 -39 3 -73 26 -13 8 -40 16 -60 17 -31 3 -37 7
-37 26 0 26 11 27 76 10z m1384 -12 c0 -3 -4 -8 -10 -11 -5 -3 -10 -1 -10 4 0
6 5 11 10 11 6 0 10 -2 10 -4z m56 -43 c-36 -39 -40 -40 -30 -10 4 12 7 27 7
32 0 6 12 10 27 10 l27 0 -31 -32z m-294 -68 c-9 -19 -21 -35 -26 -35 -4 0 -2
10 6 23 8 12 18 28 22 35 16 27 15 10 -2 -23z m-1076 -7 c5 -8 2 -9 -12 -4
-10 5 -27 11 -37 14 -14 3 -15 7 -6 13 14 8 43 -4 55 -23z m290 -5 c-3 -3 -1
-13 3 -22 6 -10 4 -20 -5 -28 -15 -15 -29 0 -17 20 4 6 6 20 4 31 -2 12 1 16
9 11 6 -4 9 -9 6 -12z m24 -77 c0 -8 -4 -17 -9 -21 -12 -7 -24 12 -16 25 9 15
25 12 25 -4z m35 4 c3 -5 2 -10 -4 -10 -5 0 -13 5 -16 10 -3 6 -2 10 4 10 5 0
13 -4 16 -10z m-545 -99 c0 -14 -5 -18 -19 -14 -12 3 -18 13 -17 28 1 19 4 21
19 14 9 -5 17 -18 17 -28z m590 19 c-6 -11 -16 -18 -21 -14 -6 3 -3 12 8 20
24 18 26 17 13 -6z m-343 4 c-3 -3 -12 -4 -19 -1 -8 3 -5 6 6 6 11 1 17 -2 13
-5z m-154 -138 c18 -8 39 -16 47 -18 32 -9 -8 -14 -47 -6 -27 6 -43 15 -43 24
0 17 4 17 43 0z m1532 -6 c-3 -5 -12 -10 -18 -10 -7 0 -6 4 3 10 19 12 23 12
15 0z m-1335 -80 c8 -5 11 -10 5 -10 -5 0 -17 5 -25 10 -8 5 -10 10 -5 10 6 0
17 -5 25 -10z m-306 -26 c34 -13 16 -39 -46 -68 -35 -17 -65 -31 -68 -32 -11
-6 -59 75 -49 82 33 20 129 31 163 18z m21 -171 c-3 -5 -115 52 -115 58 0 6
59 33 90 42 11 3 16 -8 21 -47 3 -28 5 -52 4 -53z m-57 -385 c2 7 8 12 13 12
6 0 7 -5 4 -10 -4 -7 3 -8 22 -4 28 7 28 7 9 -14 -10 -12 -30 -21 -45 -21 -35
0 -94 -12 -106 -21 -6 -5 -19 -2 -30 6 -19 14 -19 15 3 20 12 4 22 10 22 15 0
17 44 27 74 16 22 -8 31 -7 34 1z m282 -51 c0 -3 -8 -4 -17 -2 -10 2 -22 4
-26 4 -4 1 -2 7 5 14 10 11 15 12 25 1 7 -7 13 -15 13 -17z m-255 -167 c4 -6
-8 -10 -28 -10 -42 0 -97 -36 -116 -75 -36 -75 -19 -190 34 -230 60 -45 116
-67 161 -63 40 3 44 1 44 -19 0 -21 -5 -23 -46 -23 -73 0 -116 18 -177 74 -54
49 -57 54 -69 123 -11 68 -11 75 12 122 13 28 34 60 46 72 31 29 127 49 139
29z m-29 -74 c6 -26 29 -40 46 -29 7 4 9 -2 6 -15 -10 -37 30 -148 58 -165 8
-4 14 -21 14 -37 0 -23 -5 -30 -20 -31 -11 -1 -24 -2 -30 -3 -5 -1 -9 2 -7 6
1 4 -8 15 -21 23 -16 12 -21 22 -16 41 4 15 2 24 -5 24 -20 0 -23 -28 -8 -60
9 -16 13 -30 11 -30 -17 0 -66 35 -97 69 -35 39 -37 45 -37 107 0 61 2 68 31
95 38 36 66 38 75 5z m1944 -89 c0 -7 13 -34 29 -59 l30 -47 -50 -10 c-61 -13
-69 -13 -46 0 28 17 19 25 -23 21 -51 -5 -77 12 -53 36 8 9 25 17 36 17 11 1
30 14 41 28 23 29 36 34 36 14z m-150 -72 c0 -8 12 -23 26 -34 32 -25 23 -26
-39 -5 -25 8 -52 25 -60 37 -14 22 -13 22 29 18 28 -2 44 -8 44 -16z m-376
-161 c3 -8 2 -12 -4 -9 -6 3 -10 10 -10 16 0 14 7 11 14 -7z m-1463 -28 c32
-13 33 -15 30 -67 -3 -62 -28 -96 -75 -101 -23 -2 -33 2 -43 22 -21 40 -15 74
19 118 18 23 33 42 34 42 1 0 17 -6 35 -14z m1014 4 c3 -5 1 -10 -4 -10 -6 0
-11 5 -11 10 0 6 2 10 4 10 3 0 8 -4 11 -10z m-737 -67 c13 -15 22 -36 22 -55
0 -36 24 -68 52 -68 11 0 18 -7 18 -18 0 -10 7 -28 16 -40 14 -20 14 -22 -3
-22 -18 0 -47 46 -38 61 8 12 -56 22 -68 10 -17 -17 -29 -13 -18 6 6 12 3 32
-10 65 -22 56 -27 137 -6 104 7 -11 22 -30 35 -43z m-96 -38 c3 -44 8 -91 10
-105 3 -22 -5 -29 -52 -52 -74 -35 -184 -154 -259 -280 -13 -21 -25 -38 -28
-38 -10 0 -32 35 -32 50 0 22 74 100 95 100 23 0 51 17 43 25 -4 3 -18 0 -33
-6 -22 -10 -29 -9 -46 6 -22 20 -27 60 -9 71 8 4 7 9 -2 14 -7 5 -20 3 -29 -2
-23 -15 -48 -4 -59 24 -9 25 0 46 64 148 30 46 35 51 35 30 0 -27 24 -69 47
-83 15 -9 18 -37 3 -37 -5 0 -10 -4 -10 -10 0 -5 7 -10 15 -10 8 0 15 -5 15
-12 0 -21 33 -48 60 -48 15 0 35 10 46 22 19 21 19 21 -1 13 -46 -18 -63 -17
-79 6 -25 36 -19 59 25 101 36 34 42 37 55 23 22 -21 62 -29 87 -17 20 10 19
11 -11 11 -43 1 -72 17 -72 39 0 10 -4 22 -9 28 -5 5 -7 23 -4 39 4 30 5 30
66 30 l62 0 7 -80z m1255 -37 c-3 -8 -6 -5 -6 6 -1 11 2 17 5 13 3 -3 4 -12 1
-19z m-1253 -163 c-4 -8 1 -17 10 -21 24 -9 19 -30 -18 -71 -35 -40 -56 -74
-56 -92 0 -23 30 -10 57 24 15 19 47 49 71 66 l42 30 0 -25 c0 -16 6 -26 15
-26 20 0 19 -8 -5 -48 -11 -18 -20 -41 -20 -52 0 -10 -9 -26 -21 -34 -19 -13
-19 -36 1 -36 4 0 30 20 57 44 38 35 55 44 73 39 20 -5 22 -10 17 -57 -8 -63
-22 -139 -37 -194 -12 -45 -30 -48 -30 -6 0 33 -25 81 -50 94 -15 8 -27 7 -49
-5 -28 -14 -31 -14 -45 6 -12 18 -21 21 -51 16 -29 -5 -36 -3 -31 8 3 8 -1 30
-10 50 -11 28 -20 35 -42 35 -15 0 -33 -5 -39 -11 -7 -7 -14 -1 -23 20 -7 17
-21 33 -31 36 -18 6 -17 9 9 42 29 40 189 183 203 183 5 0 6 -7 3 -15z m-364
-45 c11 0 20 -10 24 -24 3 -14 13 -32 22 -41 15 -15 15 -18 -7 -41 -31 -33
-97 -53 -109 -34 -8 13 -4 117 6 168 l5 24 20 -26 c11 -14 29 -26 39 -26z
m2188 -27 c-1 -16 -6 -34 -12 -41 -5 -8 -11 -24 -13 -35 -2 -17 -1 -19 6 -7 5
8 7 18 5 22 -3 4 2 5 10 2 12 -5 13 -9 3 -25 -6 -10 -15 -19 -20 -19 -4 0 -5
-4 -2 -10 12 -19 -25 -10 -45 12 -20 22 -20 22 -20 1 0 -28 25 -46 63 -46 21
0 38 -8 50 -24 20 -25 64 -31 97 -13 22 12 25 3 33 -84 4 -44 2 -53 -24 -79
-28 -27 -31 -28 -52 -14 -12 9 -21 21 -19 27 1 6 -2 9 -7 6 -5 -4 -11 0 -14 6
-5 16 11 50 22 44 4 -3 5 9 3 27 -4 28 -6 30 -16 13 -42 -71 -88 -95 -117 -60
-10 13 -10 17 1 24 12 7 11 12 -3 28 -9 10 -17 28 -17 39 0 11 -7 40 -15 63
-8 24 -18 68 -21 99 -5 46 -4 54 7 44 19 -18 49 -16 84 6 17 11 31 20 32 20 2
1 2 -11 1 -26z m69 -3 c7 0 2 -20 -13 -51 -14 -28 -28 -49 -31 -45 -11 11 -11
71 0 78 9 6 9 8 0 8 -7 0 -13 5 -13 11 0 7 9 9 23 5 12 -3 27 -6 34 -6z
m-1692 -60 c-10 -11 -23 -20 -28 -20 -6 0 -2 9 8 20 10 11 23 20 28 20 6 0 2
-9 -8 -20z m1724 -6 c6 4 11 0 11 -11 0 -14 2 -15 9 -5 7 11 10 10 15 -3 12
-32 6 -53 -20 -69 -31 -21 -70 -18 -68 6 1 10 -2 15 -7 12 -16 -9 -10 13 11
39 11 14 20 31 20 39 0 11 2 10 9 -1 5 -7 14 -10 20 -7z m-2328 -74 c12 0 19
-7 19 -20 0 -12 11 -32 24 -45 22 -22 23 -28 13 -55 -6 -17 -16 -29 -22 -26
-7 2 -10 -7 -7 -25 4 -28 5 -29 23 -13 23 21 43 10 29 -17 -9 -15 -7 -19 5
-19 18 0 18 1 4 -39 -6 -17 -15 -31 -21 -31 -5 0 -7 4 -4 8 3 5 -2 9 -10 9 -8
0 -11 -4 -6 -9 11 -11 3 -56 -11 -65 -6 -4 -8 0 -4 10 4 10 2 17 -5 17 -7 0
-6 5 2 15 7 8 10 15 7 15 -3 0 -12 3 -21 6 -21 8 -21 -21 -1 -70 8 -20 13 -36
10 -36 -13 0 -67 135 -57 145 3 2 11 0 19 -6 9 -9 13 -8 13 0 0 6 -6 14 -14
17 -8 3 -17 13 -20 21 -5 13 -4 14 8 4 12 -10 15 -9 13 7 -1 13 -6 18 -17 14
-13 -5 -13 -4 -1 12 8 9 20 15 28 12 8 -3 12 -2 9 3 -3 4 6 18 19 29 27 23 31
37 15 47 -5 3 -10 -1 -10 -10 0 -9 -5 -13 -11 -9 -6 3 -15 0 -20 -7 -6 -9 -7
-4 -3 15 5 19 3 27 -4 22 -6 -3 -13 -20 -17 -36 -8 -35 -22 -39 -30 -7 -13 52
1 131 22 123 8 -3 23 -6 34 -6z m191 -17 c18 -16 25 -74 12 -108 -4 -8 -22
-22 -42 -31 -28 -11 -40 -12 -62 -2 l-27 11 20 41 c21 44 64 106 74 106 4 0
15 -7 25 -17z m1912 -15 c9 -35 7 -84 -4 -113 -8 -21 -13 -25 -24 -16 -7 6
-16 8 -19 5 -3 -4 -14 10 -23 29 l-17 36 31 26 c18 15 32 33 32 41 0 22 17 16
24 -8z m-1794 -49 c18 -32 3 -113 -26 -140 -22 -21 -24 -21 -31 -3 -4 10 -17
30 -29 43 -24 26 -22 51 5 52 10 0 11 2 4 6 -7 2 -13 9 -13 14 0 6 4 7 10 4 6
-4 7 1 3 11 -5 13 -3 16 10 11 9 -3 16 -3 16 1 -5 30 36 31 51 1z m411 -26
c15 4 18 2 10 -7 -6 -6 -11 -29 -13 -50 -1 -27 -9 -43 -25 -53 -35 -23 -45 -8
-37 55 8 69 12 76 30 61 8 -6 23 -9 35 -6z m-311 -75 c19 -32 18 -69 -1 -76
-5 -2 -9 -12 -9 -22 0 -16 -27 -48 -33 -39 -2 2 -11 16 -20 31 -9 14 -25 29
-36 33 -18 5 -18 7 -1 41 39 75 68 84 100 32z m1775 -18 c4 -6 17 -4 36 5 21
11 29 12 29 3 0 -6 10 -22 21 -35 18 -18 19 -25 10 -37 -22 -26 -62 -29 -86
-6 -12 11 -26 17 -30 13 -5 -5 -3 0 5 10 13 18 14 18 22 -2 4 -12 13 -21 19
-21 8 0 8 4 -1 15 -8 10 -9 15 -2 15 6 0 16 -8 22 -17 9 -15 11 -15 7 -2 -3 9
0 22 6 29 9 10 9 11 0 6 -6 -3 -14 -2 -18 4 -3 5 -12 10 -18 10 -7 0 -6 -4 3
-10 9 -6 10 -10 3 -10 -6 0 -15 4 -18 10 -4 6 -15 4 -29 -5 -20 -13 -23 -13
-23 0 0 8 5 11 11 8 6 -3 5 0 -1 8 -21 22 -16 42 6 29 11 -5 23 -15 26 -20z
m-1670 0 c9 -10 20 -39 22 -63 5 -43 4 -44 -18 -40 -13 2 -33 -2 -44 -10 -18
-14 -20 -12 -31 20 -8 23 -9 44 -3 60 5 13 8 27 8 31 -5 29 40 31 66 2z m-355
-10 c-6 -11 -14 -20 -19 -20 -4 0 -13 -10 -19 -22 -7 -16 -11 -18 -11 -7 -1
19 36 69 50 69 6 0 5 -8 -1 -20z m69 -11 c20 -33 20 -93 1 -129 -11 -20 -50
-28 -50 -10 0 6 5 10 11 10 5 0 7 5 3 12 -6 9 -9 9 -12 0 -3 -10 -7 -10 -18
-1 -18 15 -18 33 1 26 8 -4 17 -2 20 4 4 5 3 9 -2 8 -21 -4 -23 3 -9 23 9 12
16 29 16 38 -1 8 -8 2 -17 -15 -22 -40 -40 -58 -48 -45 -8 13 20 66 40 73 8 4
15 13 15 22 0 26 29 17 49 -16z m1866 -6 c-20 -118 -36 -137 -68 -83 -19 32
-16 50 9 50 8 0 14 4 14 9 0 25 21 61 35 61 13 0 15 -7 10 -37z m296 -56 c3
-66 1 -80 -14 -88 -12 -7 -26 -6 -45 3 -23 11 -27 20 -30 61 -3 46 -2 48 33
63 20 8 38 21 42 30 9 24 11 14 14 -69z m-1696 43 c23 0 27 -3 15 -10 -8 -5
-10 -10 -5 -10 6 0 9 -30 8 -72 -1 -45 -6 -73 -12 -72 -6 1 -15 2 -21 3 -13 2
-47 81 -55 131 -7 42 -6 43 16 37 13 -4 38 -7 54 -7z m1533 -80 c16 0 31 -3
35 -6 18 -18 -59 -104 -94 -104 -46 0 -67 92 -30 129 10 10 16 23 13 28 -4 5
5 -4 20 -19 18 -18 38 -28 56 -28z m-1896 33 c32 -28 20 -83 -17 -83 -13 0
-35 -4 -48 -9 -25 -10 -25 -9 -11 17 8 15 14 39 14 53 0 43 28 53 62 22z m101
-15 c6 -17 -3 -81 -13 -91 -9 -10 -60 21 -60 36 0 12 50 67 61 67 4 0 9 -6 12
-12z m-296 -50 c23 -25 45 -133 23 -111 -7 6 -20 9 -29 5 -14 -5 -15 -4 -1 14
14 17 14 18 -2 6 -13 -11 -20 -11 -37 0 -26 16 -28 31 -3 24 13 -4 18 -1 18
14 0 14 -5 18 -17 15 -23 -8 -32 10 -19 35 14 26 42 25 67 -2z m397 -10 c15
-25 -7 -142 -35 -183 -24 -35 -79 -74 -79 -56 0 6 9 28 20 48 24 45 26 85 5
117 -13 19 -13 29 -4 49 20 44 72 58 93 25z m1824 -38 c32 0 32 -1 32 -47 -1
-78 -23 -147 -49 -151 -16 -3 -25 5 -36 32 -15 35 -15 36 19 69 35 35 55 77
37 77 -5 0 -12 -8 -15 -17 -8 -24 -70 -66 -92 -61 -37 7 -39 33 -4 87 l33 51
22 -20 c12 -11 35 -20 53 -20z m-291 -22 c-3 -7 -5 -2 -5 12 0 14 2 19 5 13 2
-7 2 -19 0 -25z m-1658 -8 c24 -30 27 -67 6 -97 -12 -17 -25 -22 -55 -20 -39
1 -44 6 -43 44 0 7 -2 12 -6 11 -12 -2 -41 14 -36 22 2 4 -14 4 -36 0 -33 -6
-39 -5 -37 8 2 8 9 17 17 20 9 3 11 0 6 -8 -5 -9 -4 -11 4 -6 6 4 9 11 6 16
-9 15 56 37 107 36 36 -1 51 -7 67 -26z m328 -29 c28 -32 28 -38 3 -51 -17 -9
-23 -5 -45 30 -14 22 -25 44 -25 49 0 16 43 -2 67 -28z m1439 6 c9 3 14 -1 14
-13 1 -30 26 -56 62 -63 l33 -7 -32 -32 c-33 -33 -60 -39 -95 -21 -27 14 -36
2 -12 -16 29 -22 81 -19 107 8 l22 22 23 -24 c16 -16 31 -22 48 -18 52 10 52
-73 0 -150 -26 -38 -39 -32 -51 26 l-7 35 -22 -44 c-21 -45 -46 -64 -46 -36 0
8 -9 21 -21 30 -20 14 -20 15 -4 49 9 20 15 43 13 53 -3 17 -61 -62 -84 -116
-8 -19 -11 18 -11 162 l0 187 24 -19 c14 -10 31 -16 39 -13z m-111 5 c-3 -3
-12 -7 -19 -8 -16 -2 -56 -35 -56 -46 0 -5 7 -8 15 -8 17 0 19 -9 6 -29 -7
-11 -14 -8 -36 14 l-26 29 34 17 c18 10 39 24 46 33 7 8 19 12 27 9 8 -3 12
-8 9 -11z m-1900 -42 c-8 -12 -38 -5 -43 10 -3 7 0 10 7 6 6 -4 11 -2 11 5 0
8 4 8 15 -1 8 -7 13 -16 10 -20z m1777 -32 c12 -26 28 -40 53 -48 19 -6 35
-15 35 -20 0 -16 -51 -69 -78 -82 -34 -16 -82 -12 -82 8 0 8 7 26 16 39 9 14
16 48 17 85 1 68 13 73 39 18z m-1669 -16 c19 -21 32 -88 19 -96 -5 -3 -23 -1
-40 3 -17 5 -34 5 -39 0 -5 -5 -23 3 -43 21 -19 16 -29 29 -22 30 7 0 10 5 7
10 -9 14 18 13 32 -1 17 -17 43 -3 43 23 0 19 -2 20 -10 8 -8 -12 -10 -12 -10
-1 0 8 -7 11 -20 8 -11 -3 -18 -2 -15 3 9 15 83 9 98 -8z m1807 8 c0 -5 -4
-10 -10 -10 -5 0 -10 5 -10 10 0 6 5 10 10 10 6 0 10 -4 10 -10z m-1530 -36
c-11 -12 -10 -13 2 -9 8 3 24 -6 37 -19 20 -21 22 -28 11 -41 -16 -20 -64 -19
-81 1 -11 13 -10 20 5 42 9 15 20 36 23 47 4 12 8 15 11 7 2 -7 -2 -19 -8 -28z
m167 28 c7 -5 9 -20 4 -47 -4 -22 -4 -55 0 -72 8 -39 -1 -41 -42 -12 -34 24
-37 49 -9 74 11 10 20 29 20 42 0 24 7 28 27 15z m-342 -62 c21 -24 20 -25
-22 -33 -30 -6 -33 -4 -33 17 0 41 26 49 55 16z m165 -109 c0 -9 3 -27 6 -41
5 -17 3 -22 -4 -15 -5 6 -12 19 -14 30 -3 17 -6 16 -21 -12 -15 -28 -15 -32 0
-37 22 -9 9 -19 -15 -12 -29 10 -39 108 -15 140 l18 23 22 -30 c13 -17 23 -38
23 -46z m1494 53 c3 -8 2 -12 -4 -9 -6 3 -10 10 -10 16 0 14 7 11 14 -7z
m-1394 -14 c0 -6 15 -19 33 -30 17 -11 26 -20 19 -20 -7 0 -11 -4 -7 -10 3 -5
-9 -17 -27 -26 -22 -11 -33 -13 -36 -5 -2 6 -8 11 -13 11 -6 0 -7 -4 -4 -10 3
-5 0 -7 -9 -4 -13 5 -36 53 -36 76 0 10 37 26 63 27 9 1 17 -4 17 -9z m1379
-7 c-1 -5 -1 -16 0 -27 1 -15 4 -16 16 -6 8 7 15 20 16 29 0 10 4 6 10 -9 6
-15 7 -50 3 -85 -4 -33 -7 -82 -6 -110 1 -46 -25 -193 -27 -152 -2 27 -20 20
-27 -10 -9 -36 -34 -65 -51 -58 -8 2 -12 1 -9 -4 9 -14 -42 -23 -64 -11 -26
14 -25 27 5 75 13 22 25 48 25 57 0 10 11 19 28 23 28 6 55 34 81 84 11 19 11
25 0 32 -11 7 -11 9 2 9 10 0 19 12 23 31 10 51 8 56 -21 52 -16 -3 -37 3 -48
11 -12 9 -15 15 -7 16 7 0 10 5 6 11 -4 7 4 20 17 30 27 21 29 22 28 12z
m-121 -30 c12 -3 23 -10 23 -17 1 -6 3 -21 4 -33 2 -23 -20 -51 -32 -39 -3 3
-14 -1 -24 -10 -20 -18 -48 -16 -62 6 -14 24 30 113 52 104 9 -3 26 -9 39 -11z
m-95 -25 c-4 -7 -8 -18 -9 -25 -1 -7 -9 -27 -18 -44 -9 -18 -14 -35 -11 -37 3
-3 5 0 5 6 0 7 11 5 30 -6 29 -17 39 -45 21 -57 -6 -3 -9 -14 -8 -25 1 -10 5
-17 9 -14 4 3 5 12 2 22 -5 14 -2 13 10 -3 9 -11 23 -28 31 -38 18 -21 20 -36
3 -19 -17 17 -25 15 -31 -9 -4 -15 -2 -19 10 -15 9 4 13 1 10 -6 -2 -7 -10
-12 -16 -10 -7 1 -10 -2 -6 -8 16 -26 -70 -76 -112 -65 -27 6 -76 86 -67 109
8 21 -9 20 -33 -1 -10 -10 -14 -15 -9 -10 18 14 24 7 36 -42 13 -57 8 -70 -40
-106 -44 -32 -68 -32 -118 5 -26 18 -44 26 -48 19 -8 -13 43 -68 74 -80 32
-12 24 -28 -32 -66 -36 -25 -59 -33 -91 -33 -49 0 -60 10 -79 71 -7 24 -17 51
-20 60 -8 18 -11 17 119 55 57 17 135 57 135 70 0 3 -15 -3 -33 -13 -17 -11
-75 -32 -127 -48 -52 -16 -98 -34 -102 -39 -5 -7 -11 -7 -20 2 -6 6 -19 12
-27 12 -13 0 -16 -17 -19 -98 -5 -207 -7 -217 -35 -220 -28 -4 -50 22 -62 71
-5 19 -3 27 6 27 18 0 69 50 69 68 0 9 -11 3 -30 -14 -41 -39 -84 -40 -110 -3
-19 26 -20 30 -5 65 13 32 13 40 2 51 -11 11 -21 6 -59 -32 -56 -55 -87 -59
-118 -15 l-22 31 29 35 c49 63 55 73 50 86 -3 8 -9 3 -15 -12 -5 -14 -19 -34
-31 -45 -19 -16 -24 -17 -33 -5 -8 12 -9 12 -4 -2 4 -13 -3 -22 -24 -33 -41
-21 -57 -19 -57 8 -1 54 -3 58 -25 57 -37 -3 -44 0 -28 11 11 8 8 9 -13 4
l-28 -6 20 22 c12 13 26 19 36 15 10 -3 14 -2 10 5 -14 22 29 37 96 35 63 -2
70 -4 106 -40 48 -47 80 -64 143 -76 49 -9 114 1 80 13 -30 11 -100 15 -94 6
3 -5 0 -9 -5 -9 -6 0 -11 5 -11 10 0 6 -5 10 -10 10 -6 0 -23 11 -38 25 -15
14 -35 25 -44 25 -10 0 -18 7 -18 15 0 7 -6 18 -12 22 -18 11 -55 93 -63 137
-4 20 -11 39 -16 42 -5 3 -9 9 -9 14 0 17 38 20 80 5 25 -9 71 -14 110 -13 36
1 72 -2 78 -6 6 -4 72 -7 147 -8 106 -1 156 4 232 21 180 41 263 67 285 89 16
16 31 15 21 0z m-1083 -35 c-24 -45 -26 -73 -5 -73 9 0 16 10 16 25 2 37 3 43
12 51 4 4 7 0 7 -8 0 -9 14 -21 30 -28 25 -10 29 -17 24 -34 -9 -28 -4 -25
-56 -31 -40 -5 -47 -3 -62 19 -22 34 -21 41 12 82 36 45 47 43 22 -3z m-153
-19 c-3 -3 -12 -4 -19 -1 -8 3 -5 6 6 6 11 1 17 -2 13 -5z m1468 -4 c-3 -5
-12 -10 -18 -10 -7 0 -6 4 3 10 19 12 23 12 15 0z m-43 -30 c-2 -16 -8 -27
-13 -24 -5 3 -9 0 -9 -6 0 -6 -4 -9 -9 -5 -10 5 18 65 30 65 3 0 4 -13 1 -30z
m-1355 -15 c1 -17 -1 -22 -3 -13 -3 9 -11 15 -17 12 -8 -3 -13 4 -13 16 0 34
31 19 33 -15z m-158 -53 c1 -7 -3 -10 -9 -7 -5 3 -10 21 -9 38 1 31 1 31 9 7
4 -14 8 -31 9 -38z m41 54 c0 -3 -4 -8 -10 -11 -5 -3 -10 -1 -10 4 0 6 5 11
10 11 6 0 10 -2 10 -4z m1390 -6 c0 -5 -7 -10 -16 -10 -8 0 -12 -4 -9 -10 3
-5 -2 -10 -12 -10 -16 1 -15 3 6 20 26 23 31 24 31 10z m-1374 -26 c-3 -9 -6
-21 -7 -27 0 -7 -4 -3 -8 8 -9 22 -5 35 11 35 5 0 7 -7 4 -16z m84 6 c0 -5 -2
-10 -4 -10 -3 0 -8 5 -11 10 -3 6 -1 10 4 10 6 0 11 -4 11 -10z m48 -22 c6 -6
22 -13 34 -15 29 -5 34 -10 47 -57 9 -34 8 -40 -12 -57 -30 -25 -41 -24 -54 9
l-11 27 -1 -27 c-2 -45 -32 -45 -43 -1 -7 27 10 42 24 22 8 -11 9 -10 4 3 -3
10 -1 20 4 23 6 3 15 16 21 27 9 17 9 20 -3 16 -8 -4 -18 4 -25 18 -12 26 -5
32 15 12z m1307 -9 c-4 -5 -12 -9 -18 -8 -9 0 -8 2 1 6 6 2 9 10 6 15 -4 7 -2
8 5 4 6 -4 9 -12 6 -17z m-1153 -33 c7 -33 -27 -54 -42 -27 -14 27 -13 58 3
64 17 6 34 -10 39 -37z m1072 28 c5 -14 4 -15 -9 -4 -17 14 -19 20 -6 20 5 0
12 -7 15 -16z m-1339 -34 c16 -17 16 -20 3 -15 -9 4 -19 13 -22 21 -7 19 -2
18 19 -6z m-7 -47 c19 -4 22 -10 18 -28 -4 -15 -1 -25 9 -29 8 -3 15 -11 15
-18 0 -9 -3 -8 -10 2 -8 13 -10 12 -10 -2 0 -10 -7 -18 -15 -18 -8 0 -15 9
-15 20 0 21 -16 26 -40 10 -25 -15 -40 8 -34 52 6 56 12 61 37 38 12 -12 32
-23 45 -27z m330 -6 c3 -15 -1 -17 -25 -11 -38 9 -44 14 -37 25 10 17 58 6 62
-14z m-353 -77 c3 -5 2 -10 -4 -10 -5 0 -13 5 -16 10 -3 6 -2 10 4 10 5 0 13
-4 16 -10z m-99 -16 c-3 -9 -6 -44 -6 -80 0 -60 -1 -64 -25 -70 -14 -4 -29 -4
-32 -1 -15 16 -4 76 23 119 28 45 53 65 40 32z m267 -54 c3 -11 1 -20 -4 -20
-5 0 -9 3 -10 8 0 4 -2 15 -4 25 -4 23 11 12 18 -13z m1008 8 c26 -19 34 -21
67 -11 20 5 44 12 52 14 11 3 14 -3 12 -24 -2 -19 1 -26 8 -22 6 3 8 11 4 16
-3 5 11 1 30 -8 24 -12 36 -25 36 -40 0 -12 11 -30 25 -41 25 -20 36 -50 13
-36 -6 4 -8 3 -5 -3 7 -11 -25 -44 -59 -61 -15 -8 -27 -7 -46 2 -22 12 -28 11
-43 -3 -12 -10 -15 -11 -10 -2 5 8 9 35 10 60 1 25 3 51 5 56 1 6 2 24 1 40
l-1 30 -22 -35 c-23 -36 -50 -62 -57 -54 -2 2 3 12 11 21 18 21 30 73 17 73
-5 0 -9 -13 -9 -29 0 -31 -15 -50 -23 -29 -2 7 -7 -4 -11 -24 -5 -30 -11 -38
-29 -38 -15 0 -18 3 -9 8 7 5 10 16 6 25 -8 22 -24 12 -24 -14 0 -26 -18 -20
-42 12 -17 23 -15 75 2 64 10 -6 50 43 50 61 0 19 6 18 41 -8z m-1131 1 c0 -3
-13 -9 -30 -11 -19 -3 -30 0 -30 7 0 6 14 12 30 12 17 0 30 -4 30 -8z m1445
-31 c-2 -24 -4 -49 -4 -55 -2 -26 -21 -12 -22 15 l-1 27 -13 -29 -13 -30 -16
32 c-15 29 -15 33 -1 38 8 3 23 3 32 0 10 -4 15 -4 11 -1 -5 5 17 38 29 44 1
1 0 -18 -2 -41z m-2211 -39 c-3 -5 2 -9 10 -9 9 0 16 -7 16 -15 0 -20 -2 -19
-39 15 -37 36 -39 43 -6 28 13 -6 22 -15 19 -19z m848 3 c-7 -2 -9 -9 -6 -14
4 -7 2 -8 -4 -4 -6 4 -9 13 -6 21 4 8 11 12 17 8 8 -5 7 -8 -1 -11z m103 0
c-3 -3 -11 0 -18 7 -9 10 -8 11 6 5 10 -3 15 -9 12 -12z m-425 -38 c0 -8 6
-17 13 -19 16 -7 16 -110 0 -126 -10 -10 -18 -10 -38 -1 -20 9 -25 19 -25 46
0 19 5 47 12 63 13 31 15 38 17 54 2 15 21 0 21 -17z m510 5 c0 -7 -10 -27
-21 -46 -16 -26 -24 -31 -30 -21 -6 8 -1 18 13 29 14 11 17 18 9 23 -6 4 -11
3 -11 -2 0 -6 -10 -8 -22 -4 -14 3 -19 1 -14 -6 3 -6 2 -13 -4 -17 -5 -3 -10
1 -10 10 0 12 -5 15 -22 9 -20 -6 -21 -5 -9 9 7 9 16 15 20 13 4 -3 22 -1 41
4 50 12 60 11 60 -1z m740 -2 c0 -28 26 -66 50 -73 14 -4 40 -6 58 -5 29 2 33
0 28 -16 -12 -41 -26 -155 -20 -165 11 -17 -17 1 -48 31 -25 25 -25 27 -10 56
12 23 12 28 1 19 -32 -26 -88 -52 -127 -59 -40 -6 -41 -6 -61 34 -34 66 -34
68 57 136 28 21 52 43 52 47 0 4 5 8 10 8 6 0 10 -6 10 -13z m-1059 -47 c-6
-4 -7 -23 -2 -75 1 -5 6 -3 11 5 8 12 10 11 10 -7 0 -31 12 -29 32 5 14 21 18
23 18 9 0 -10 4 -16 9 -12 22 13 19 -16 -3 -30 -27 -18 -48 -12 -77 22 -20 22
-30 71 -17 79 5 3 3 13 -4 21 -12 15 -11 15 9 2 12 -7 19 -16 14 -19z m1474
-137 c-17 -43 -61 -85 -122 -117 -43 -21 -64 -21 -56 2 21 63 69 144 108 182
26 24 54 58 63 75 l17 30 3 -65 c2 -42 -3 -79 -13 -107z m-1738 119 c-21 -39
-21 -39 -1 -73 11 -18 31 -36 44 -39 22 -5 24 -10 22 -47 -4 -48 11 -82 36
-84 9 -1 4 -5 -13 -9 -56 -13 -209 12 -202 34 2 6 27 11 62 10 l58 -1 -27 19
c-20 15 -26 28 -26 58 0 21 5 42 10 45 6 3 10 11 10 18 0 6 -9 2 -20 -8 -22
-22 -28 -57 -16 -94 6 -18 5 -22 -5 -19 -8 3 -13 15 -11 28 1 16 -2 21 -13 17
-20 -8 -28 8 -20 45 7 29 106 138 126 138 4 0 -2 -17 -14 -38z m195 -83 c15
-63 27 -117 28 -120 0 -7 -67 -39 -83 -39 -7 0 3 10 21 21 35 23 38 38 4 20
-30 -16 -69 -13 -76 5 -23 59 11 107 68 98 28 -5 29 -4 11 7 -33 19 -45 41
-45 79 0 42 5 49 28 46 12 -2 23 -33 44 -117z m508 78 c38 10 41 9 46 -12 7
-30 -18 -78 -55 -104 -33 -24 -48 -27 -34 -8 15 18 22 56 13 62 -5 3 -11 -3
-13 -12 -3 -10 -5 -1 -6 20 -1 39 -11 46 -31 22 -9 -11 -10 -28 -3 -64 9 -47
9 -49 -12 -47 -28 3 -47 15 -40 27 4 5 2 9 -3 9 -5 0 -14 11 -19 24 -9 19 -7
28 14 52 14 16 29 28 34 27 4 -2 6 4 2 13 -5 13 0 12 31 -3 30 -14 44 -15 76
-6z m-190 -27 c0 -5 -5 -10 -11 -10 -5 0 -7 5 -4 10 3 6 8 10 11 10 2 0 4 -4
4 -10z m610 -5 c20 -11 31 -25 36 -49 12 -64 55 -87 139 -73 39 7 40 7 59 -34
10 -22 28 -44 40 -49 20 -8 17 -12 -11 -14 -7 -1 -13 -5 -12 -10 0 -12 -50
-36 -78 -36 -38 0 -63 18 -63 45 0 14 -4 25 -10 25 -5 0 -10 11 -10 25 0 14
-4 25 -10 25 -5 0 -10 -20 -10 -45 0 -40 -3 -47 -26 -55 -28 -11 -56 2 -53 24
1 6 -1 19 -6 29 -6 15 -10 16 -16 5 -7 -10 -9 -9 -9 4 0 9 7 21 16 26 17 9 12
32 -7 32 -6 0 -8 -4 -4 -9 3 -5 1 -12 -5 -16 -6 -4 -10 5 -10 19 0 14 5 26 11
26 8 0 10 18 6 60 -4 33 -4 60 -1 60 3 0 18 -7 34 -15z m-285 -49 c4 -17 16
-47 27 -66 l20 -35 -33 -27 c-18 -16 -39 -28 -47 -28 -23 0 -52 20 -52 36 0 8
-7 26 -16 40 -16 24 -16 26 15 69 18 25 29 45 26 45 -3 0 -4 4 0 10 11 19 54
-12 60 -44z m-1331 25 c19 -11 37 -17 40 -14 3 4 6 1 6 -5 0 -27 -143 -5 -154
23 -8 23 65 19 108 -4z m358 -127 c-6 -34 -18 -38 -42 -14 -26 26 -26 60 0 67
11 3 17 10 14 15 -4 6 0 14 7 19 11 6 15 0 20 -27 3 -19 4 -46 1 -60z m682 27
c9 -8 16 -19 16 -27 0 -16 -48 -51 -82 -59 -23 -6 -26 -4 -21 14 3 11 10 18
16 14 6 -4 8 4 5 20 -3 17 0 28 9 31 8 3 13 11 12 18 -1 7 0 24 1 38 2 24 2
24 15 -6 8 -17 21 -36 29 -43z m-96 49 c4 0 7 -20 7 -45 0 -25 -3 -45 -7 -45
-5 0 -8 -7 -8 -15 0 -29 -19 -14 -31 24 -14 48 -5 95 17 87 9 -3 19 -6 22 -6z
m-59 -119 c8 -15 9 -27 3 -33 -7 -7 -12 -3 -17 11 -3 12 -14 21 -22 21 -9 0
-13 -3 -10 -6 8 -8 -11 -44 -23 -44 -15 0 -41 62 -47 113 -6 47 -6 48 18 38
17 -6 32 -5 49 4 25 13 25 13 30 -33 3 -26 12 -58 19 -71z m-609 91 c0 -13
-12 -22 -22 -16 -10 6 -1 24 13 24 5 0 9 -4 9 -8z m934 -33 c3 -17 3 -35 0
-40 -7 -12 -34 -11 -34 1 0 6 4 10 8 10 5 0 9 7 9 15 0 8 -4 15 -9 15 -8 0
-12 -19 -11 -48 1 -7 -12 -19 -28 -27 -26 -14 -29 -13 -44 8 -18 25 -21 20 55
72 46 30 46 30 54 -6z m1043 -31 c-1 -35 2 -81 6 -103 13 -68 16 -155 6 -155
-6 0 -23 7 -39 15 -40 21 -40 58 0 92 35 29 34 41 -2 22 -12 -7 -31 -14 -41
-16 -24 -4 -57 14 -57 32 0 8 -7 18 -15 23 -13 7 -11 11 11 21 47 21 101 69
114 101 7 16 14 30 15 30 1 0 2 -28 2 -62z m-809 -113 c-5 -16 -8 -59 -8 -95
0 -64 -1 -65 -28 -67 -33 -2 -63 23 -55 45 4 10 15 30 26 46 11 15 22 45 24
65 2 20 10 41 18 47 19 14 19 28 1 21 -8 -3 -22 3 -32 15 -18 19 -18 21 16 51
l35 31 5 -64 c3 -36 2 -78 -2 -95z m-1385 108 c9 -8 -24 -32 -45 -33 -10 0
-18 5 -18 10 0 6 9 10 20 10 11 0 20 5 20 10 0 11 13 13 23 3z m1934 -33 c-3
-11 -2 -20 1 -20 4 -1 22 -13 40 -29 l32 -28 -21 -27 c-23 -29 -91 -76 -111
-76 -20 0 -58 42 -58 66 0 14 8 25 20 29 11 3 20 13 20 21 0 8 -4 12 -10 9
-17 -10 -11 12 7 26 14 12 16 12 8 0 -5 -9 -4 -12 3 -7 6 4 9 13 5 21 -3 8 -1
15 5 15 15 0 21 -22 10 -42 -9 -19 7 -24 60 -19 15 1 21 -2 17 -8 -3 -6 -1
-11 4 -11 6 0 11 4 11 10 0 15 -31 28 -53 22 -17 -4 -19 -2 -13 14 5 10 11 27
13 37 7 24 17 22 10 -3z m-766 1 c-9 -6 -11 -18 -7 -35 4 -16 2 -26 -5 -26 -6
0 -9 -6 -6 -13 7 -19 -20 -77 -35 -76 -10 0 -10 2 0 6 6 2 10 9 6 14 -10 17
-24 9 -24 -15 0 -28 -24 -40 -50 -26 -30 16 -39 41 -33 90 l5 45 47 0 c36 -1
50 4 64 22 10 13 26 23 35 23 14 0 14 -2 3 -9z m-171 -35 c0 -37 -33 -91 -70
-115 l-25 -16 28 37 c15 20 27 41 27 46 0 6 6 12 13 15 9 3 9 8 1 16 -9 10
-15 8 -28 -4 -15 -15 -16 -15 -16 5 0 25 25 37 45 20 12 -10 15 -9 15 9 0 11
2 21 5 21 3 0 5 -15 5 -34z m303 17 c31 -36 21 -91 -23 -116 -38 -23 -57 -21
-75 7 -23 35 -10 106 19 106 11 0 28 5 36 10 21 13 25 13 43 -7z m-406 -33
c-3 -11 -1 -23 4 -26 6 -4 6 -10 0 -17 -5 -7 -10 -15 -10 -19 -1 -5 -4 -9 -8
-10 -9 -3 -22 80 -15 87 14 14 34 3 29 -15z m-142 -18 c-3 -3 -11 0 -18 7 -9
10 -8 11 6 5 10 -3 15 -9 12 -12z m95 3 c0 -9 -9 -15 -22 -15 -21 0 -21 0 -2
15 24 18 24 18 24 0z m-89 -94 c-2 -13 0 -13 13 -2 13 11 16 11 16 -1 0 -7 13
-21 28 -30 28 -17 63 -14 116 8 12 4 17 4 13 -2 -8 -13 10 -41 20 -31 4 5 3
11 -3 15 -13 9 -12 28 3 43 9 9 17 5 36 -17 23 -27 26 -54 6 -54 -5 0 -9 -9
-9 -20 0 -11 -4 -20 -8 -20 -4 0 -8 -10 -9 -21 -1 -12 -5 -24 -8 -27 -11 -11
-40 14 -60 54 -11 21 -21 41 -22 43 -2 2 -9 -1 -17 -8 -33 -28 -90 -19 -113
18 -6 10 -14 40 -17 67 -6 42 -5 46 5 24 7 -14 11 -32 10 -39z m429 0 c0 -5
14 -14 30 -21 39 -16 38 -31 -5 -69 -41 -36 -70 -40 -85 -12 -16 30 -12 46 18
79 27 31 42 39 42 23z m670 -53 c25 -4 25 -4 -7 -21 -39 -21 -86 -22 -103 -2
-10 12 -7 20 17 44 l28 29 20 -23 c11 -13 31 -25 45 -27z m-785 -6 c30 -22
-25 -93 -70 -91 -11 0 -14 3 -7 6 16 6 47 64 44 81 -3 13 17 16 33 4z m588
-182 c3 -11 1 -18 -4 -14 -5 3 -9 12 -9 20 0 20 7 17 13 -6z"/>
<path d="M4765 7120 c3 -5 8 -10 11 -10 2 0 4 5 4 10 0 6 -5 10 -11 10 -5 0
-7 -4 -4 -10z"/>
<path d="M5121 6823 c14 -16 42 -17 37 -1 -2 6 -14 12 -26 13 -17 1 -19 -1
-11 -12z"/>
<path d="M3174 7016 c-10 -8 -15 -18 -11 -22 4 -5 12 -3 16 5 5 7 12 12 17 11
5 -1 10 3 12 9 5 15 -11 14 -34 -3z"/>
<path d="M3320 6980 c-9 -6 -10 -10 -3 -10 6 0 15 5 18 10 8 12 4 12 -15 0z"/>
<path d="M5340 7100 c0 -5 5 -10 11 -10 5 0 7 5 4 10 -3 6 -8 10 -11 10 -2 0
-4 -4 -4 -10z"/>
<path d="M4310 6834 c0 -8 5 -12 10 -9 6 3 10 10 10 16 0 5 -4 9 -10 9 -5 0
-10 -7 -10 -16z"/>
<path d="M4120 3750 c-8 -5 -12 -12 -9 -15 4 -3 12 1 19 10 14 17 11 19 -10 5z"/>
<path d="M6136 3294 c-10 -25 1 -29 14 -5 6 12 7 21 1 21 -5 0 -12 -7 -15 -16z"/>
<path d="M6197 3281 c-4 -17 -3 -21 5 -13 5 5 8 16 6 23 -3 8 -7 3 -11 -10z"/>
<path d="M6167 3273 c-4 -3 -7 -11 -7 -17 0 -6 5 -5 12 2 6 6 9 14 7 17 -3 3
-9 2 -12 -2z"/>
<path d="M6155 3230 c-3 -5 -1 -10 4 -10 6 0 11 5 11 10 0 6 -2 10 -4 10 -3 0
-8 -4 -11 -10z"/>
<path d="M3956 3327 c3 -10 9 -15 12 -12 3 3 0 11 -7 18 -10 9 -11 8 -5 -6z"/>
<path d="M4056 3284 c-8 -20 -8 -24 2 -24 4 0 8 9 9 20 2 24 -3 26 -11 4z"/>
<path d="M4107 3283 c-9 -2 -15 -9 -12 -14 9 -14 22 -11 29 6 3 8 4 14 3 14
-1 -1 -10 -3 -20 -6z"/>
<path d="M4065 3250 c-16 -7 -17 -9 -3 -9 9 -1 19 -7 21 -13 3 -7 6 -3 6 10 1
12 0 22 -1 21 -2 0 -12 -4 -23 -9z"/>
<path d="M4300 3136 c0 -2 7 -9 15 -16 9 -7 15 -8 15 -2 0 5 -7 12 -15 16 -8
3 -15 4 -15 2z"/>
<path d="M6213 3135 c0 -8 4 -12 9 -9 5 3 6 10 3 15 -9 13 -12 11 -12 -6z"/>
<path d="M6122 3050 c0 -14 2 -19 5 -12 2 6 2 18 0 25 -3 6 -5 1 -5 -13z"/>
<path d="M4027 3021 c-4 -17 -3 -21 5 -13 5 5 8 16 6 23 -3 8 -7 3 -11 -10z"/>
<path d="M4079 3018 c-5 -16 -4 -46 2 -42 4 2 7 13 6 24 -1 17 -5 26 -8 18z"/>
<path d="M6180 2910 c0 -5 5 -10 10 -10 6 0 10 5 10 10 0 6 -4 10 -10 10 -5 0
-10 -4 -10 -10z"/>
<path d="M5923 2785 c0 -8 4 -12 9 -9 5 3 6 10 3 15 -9 13 -12 11 -12 -6z"/>
<path d="M5675 2500 c-10 -11 -16 -22 -13 -25 3 -3 13 6 22 20 20 30 16 32 -9
5z"/>
<path d="M5630 2449 c0 -5 5 -7 10 -4 6 3 10 8 10 11 0 2 -4 4 -10 4 -5 0 -10
-5 -10 -11z"/>
<path d="M5733 2375 c-9 -10 -9 -16 -2 -20 14 -9 22 0 17 18 -2 13 -5 13 -15
2z"/>
<path d="M5686 2355 c-3 -8 -1 -15 4 -15 13 0 22 18 11 24 -5 3 -11 -1 -15 -9z"/>
<path d="M5687 2325 c-8 -8 -18 -11 -22 -7 -5 4 -5 1 -1 -5 9 -16 36 -17 36
-3 0 6 10 15 23 20 l22 9 -22 0 c-12 1 -28 -6 -36 -14z"/>
<path d="M4343 2188 c3 -9 1 -19 -6 -22 -9 -3 -9 -5 0 -5 18 -1 23 13 11 29
-8 12 -9 12 -5 -2z"/>
<path d="M5811 2164 c0 -11 3 -14 6 -6 3 7 2 16 -1 19 -3 4 -6 -2 -5 -13z"/>
<path d="M5776 2102 c-4 -13 -5 -26 -2 -29 10 -11 18 4 14 29 l-4 23 -8 -23z"/>
<path d="M5525 2020 c-3 -5 -1 -10 4 -10 6 0 11 5 11 10 0 6 -2 10 -4 10 -3 0
-8 -4 -11 -10z"/>
<path d="M4793 2050 c1 -21 10 -18 13 5 1 8 -2 15 -6 15 -5 0 -8 -9 -7 -20z"/>
<path d="M4790 2001 c0 -7 -5 -9 -12 -5 -7 5 -8 3 -2 -7 5 -8 9 -17 10 -21 4
-21 6 -21 15 1 6 16 6 28 -1 35 -7 7 -10 6 -10 -3z"/>
<path d="M5491 1863 c-14 -49 -13 -63 1 -38 13 21 23 75 14 75 -3 0 -10 -17
-15 -37z"/>
<path d="M5500 1810 c0 -5 5 -10 10 -10 6 0 10 5 10 10 0 6 -4 10 -10 10 -5 0
-10 -4 -10 -10z"/>
<path d="M4508 1863 c7 -3 16 -2 19 1 4 3 -2 6 -13 5 -11 0 -14 -3 -6 -6z"/>
<path d="M4520 1841 c0 -6 4 -12 8 -15 5 -3 9 1 9 9 0 8 -4 15 -9 15 -4 0 -8
-4 -8 -9z"/>
<path d="M4841 1884 c0 -11 3 -14 6 -6 3 7 2 16 -1 19 -3 4 -6 -2 -5 -13z"/>
<path d="M5700 1750 c-9 -6 -10 -10 -3 -10 6 0 15 5 18 10 8 12 4 12 -15 0z"/>
<path d="M5810 7792 c-18 -14 -21 -25 -17 -44 8 -31 41 -42 62 -21 21 21 19
32 -10 39 -28 7 -31 14 -13 32 19 19 3 14 -22 -6z"/>
<path d="M3485 7628 c-28 -15 -28 -14 -20 -37 4 -14 15 -21 30 -21 28 0 43 19
25 30 -10 6 -10 8 1 12 7 2 9 10 5 16 -9 15 -15 15 -41 0z"/>
<path d="M5113 7563 c-7 -2 -13 -13 -13 -23 0 -22 19 -30 42 -19 34 18 6 57
-29 42z"/>
<path d="M2933 7357 c1 -95 7 -161 13 -167 8 -8 10 34 7 147 -2 87 -8 162 -14
167 -5 6 -8 -52 -6 -147z"/>
<path d="M3364 7459 c-8 -14 11 -33 25 -25 16 10 13 36 -3 36 -8 0 -18 -5 -22
-11z"/>
<path d="M5780 7424 c-11 -12 -10 -18 3 -32 16 -15 18 -15 33 0 19 18 12 48
-9 48 -8 0 -20 -7 -27 -16z"/>
<path d="M3423 7362 c-21 -13 -20 -62 2 -62 18 0 38 37 31 56 -6 16 -15 17
-33 6z"/>
<path d="M6511 7321 c-15 -10 -8 -41 9 -41 15 0 25 29 14 40 -5 5 -15 5 -23 1z"/>
<path d="M6606 7281 c-22 -24 -15 -51 12 -51 25 0 45 24 40 47 -5 25 -31 27
-52 4z"/>
<path d="M6340 7283 c-17 -7 -30 -23 -30 -40 0 -18 31 -45 46 -39 9 4 11 -4 7
-29 -4 -27 -1 -35 16 -45 32 -17 60 -9 79 22 15 25 15 28 -3 48 -14 15 -28 20
-47 18 -28 -4 -37 5 -18 17 16 10 12 42 -6 49 -18 7 -23 7 -44 -1z"/>
<path d="M2061 7264 c0 -11 3 -14 6 -6 3 7 2 16 -1 19 -3 4 -6 -2 -5 -13z"/>
<path d="M3197 7260 c-6 -23 14 -43 37 -34 17 7 19 14 10 38 -9 22 -41 20 -47
-4z"/>
<path d="M2063 7200 c0 -25 2 -35 4 -22 2 12 2 32 0 45 -2 12 -4 2 -4 -23z"/>
<path d="M6517 7203 c-2 -5 0 -21 4 -38 7 -29 7 -29 8 8 1 35 -3 46 -12 30z"/>
<path d="M2429 7159 c-20 -20 -20 -22 -3 -40 22 -24 46 -24 67 -1 22 24 21 39
-2 52 -28 14 -38 13 -62 -11z"/>
<path d="M2571 7156 c-9 -10 -8 -16 4 -26 19 -15 47 3 38 26 -7 18 -27 18 -42
0z"/>
<path d="M2061 7124 c0 -11 3 -14 6 -6 3 7 2 16 -1 19 -3 4 -6 -2 -5 -13z"/>
<path d="M2055 7070 c3 -44 15 -49 15 -7 0 21 -4 37 -9 37 -5 0 -8 -14 -6 -30z"/>
<path d="M6800 7046 c0 -18 17 -29 30 -21 8 5 7 11 -1 21 -15 18 -29 18 -29 0z"/>
<path d="M1505 7010 c-6 -20 -15 -24 -47 -21 -10 1 -27 -4 -38 -12 -21 -14
-21 -15 5 -19 14 -3 28 -2 31 3 2 4 10 6 17 3 14 -5 67 39 67 56 0 18 -28 11
-35 -10z"/>
<path d="M2518 7019 c-23 -13 -11 -39 18 -39 28 0 44 28 23 41 -17 11 -20 11
-41 -2z"/>
<path d="M7576 7009 c4 -7 0 -9 -14 -5 -24 8 -36 -7 -27 -34 8 -25 50 -37 70
-20 19 16 19 31 0 24 -11 -5 -13 -2 -9 10 3 9 11 16 17 16 17 0 -2 14 -24 17
-13 2 -18 -1 -13 -8z"/>
<path d="M6620 7000 c0 -5 5 -10 11 -10 5 0 7 5 4 10 -3 6 -8 10 -11 10 -2 0
-4 -4 -4 -10z"/>
<path d="M7192 6968 c-27 -27 -2 -73 35 -66 9 2 24 16 33 31 13 24 13 29 0 37
-21 13 -54 12 -68 -2z"/>
<path d="M1722 6833 c-20 -17 -26 -33 -23 -60 0 -6 15 -16 31 -22 26 -8 34 -7
55 12 15 13 27 34 28 52 2 28 -1 30 -34 33 -23 2 -43 -3 -57 -15z"/>
<path d="M2196 6824 c-12 -12 -13 -20 -6 -35 19 -35 60 -16 60 28 0 27 -30 31
-54 7z"/>
<path d="M6380 6783 c0 -15 20 -39 20 -25 0 9 7 8 28 -4 26 -16 26 -15 -3 10
-30 26 -45 32 -45 19z"/>
<path d="M6468 6731 c10 -6 9 -10 -7 -14 -24 -6 -28 -27 -5 -27 8 0 13 4 10 9
-3 5 1 11 9 15 8 3 17 1 20 -4 4 -6 12 -10 18 -10 14 0 -33 40 -48 40 -5 0 -4
-4 3 -9z"/>
<path d="M7485 6540 c3 -5 8 -10 11 -10 2 0 4 5 4 10 0 6 -5 10 -11 10 -5 0
-7 -4 -4 -10z"/>
<path d="M3726 6506 c3 -9 16 -16 28 -15 14 0 16 2 6 6 -8 3 -21 10 -28 16 -9
7 -11 6 -6 -7z"/>
<path d="M1127 6503 c-4 -3 -7 -12 -7 -20 0 -15 26 -18 34 -4 7 11 -18 33 -27
24z"/>
<path d="M6245 6460 c3 -5 10 -10 16 -10 5 0 9 5 9 10 0 6 -7 10 -16 10 -8 0
-12 -4 -9 -10z"/>
<path d="M5295 6440 c-3 -5 1 -10 10 -10 9 0 13 5 10 10 -3 6 -8 10 -10 10 -2
0 -7 -4 -10 -10z"/>
<path d="M3027 6388 c-6 -31 -10 -274 -4 -268 7 7 21 290 14 290 -3 0 -7 -10
-10 -22z"/>
<path d="M3134 6359 c-3 -6 0 -15 7 -20 10 -6 11 -9 2 -9 -19 0 -16 -17 4 -24
9 -4 23 0 32 9 8 8 10 15 4 15 -6 0 -13 9 -16 20 -6 22 -22 26 -33 9z"/>
<path d="M3361 6294 c0 -11 3 -14 6 -6 3 7 2 16 -1 19 -3 4 -6 -2 -5 -13z"/>
<path d="M6726 6248 c-14 -50 -25 -122 -20 -130 4 -6 2 -13 -4 -17 -6 -4 -15
-25 -20 -48 -12 -52 3 -79 36 -69 22 7 31 26 11 26 -5 0 -8 4 -5 9 8 13 20
241 12 241 -4 0 -8 -6 -10 -12z"/>
<path d="M7592 6232 c-18 -12 -29 -92 -13 -92 22 0 10 -18 -26 -40 -22 -13
-45 -19 -59 -16 -16 4 -27 0 -38 -15 -27 -39 16 -95 65 -85 16 3 29 4 29 2 0
-8 -174 -138 -195 -146 -34 -13 -63 -73 -45 -95 20 -24 41 -18 100 26 75 56
134 90 175 99 40 9 40 12 -20 -90 -56 -95 -58 -150 -4 -150 18 0 32 6 34 15 3
8 7 22 10 31 4 13 14 8 50 -25 38 -35 48 -40 65 -31 17 9 20 21 20 85 0 78 28
165 63 194 10 7 17 26 17 42 0 22 7 32 30 44 36 19 42 68 10 85 -12 6 -17 16
-13 26 7 18 -34 64 -57 64 -9 0 -26 14 -39 30 -12 17 -26 28 -32 24 -5 -3 -16
-1 -22 5 -18 14 -89 23 -105 13z m92 -451 c-7 -73 -15 -82 -48 -58 -16 12 -17
18 -7 50 12 36 50 92 57 84 3 -2 1 -36 -2 -76z"/>
<path d="M2520 6186 c0 -9 7 -16 16 -16 17 0 14 22 -4 28 -7 2 -12 -3 -12 -12z"/>
<path d="M3760 6155 c0 -13 -4 -14 -22 -4 -22 11 -22 10 -6 -7 13 -13 22 -15
37 -8 17 8 17 11 5 22 -12 11 -14 10 -14 -3z"/>
<path d="M3025 6080 c11 -52 25 -72 18 -25 -3 22 -10 45 -15 50 -7 7 -8 -2 -3
-25z"/>
<path d="M5415 6089 c-4 -6 -5 -12 -2 -15 2 -3 7 2 10 11 7 17 1 20 -8 4z"/>
<path d="M2051 6076 c-13 -16 -6 -42 14 -50 19 -7 38 19 30 44 -7 23 -27 26
-44 6z"/>
<path d="M7838 5858 c-16 -17 -28 -32 -28 -34 0 -2 11 -4 25 -4 15 0 36 -11
48 -24 42 -45 113 0 79 50 -9 14 -67 44 -84 44 -7 -1 -25 -15 -40 -32z"/>
<path d="M7406 5732 c-14 -23 -17 -88 -4 -105 17 -23 68 -14 68 12 0 60 -44
125 -64 93z"/>
<path d="M2821 5698 c-1 -21 4 -38 9 -38 11 0 11 14 0 50 -7 22 -8 21 -9 -12z"/>
<path d="M2827 5629 c-13 -49 -1 -372 13 -339 6 16 7 325 1 343 -8 20 -8 20
-14 -4z"/>
<path d="M7747 5566 c-33 -35 -80 -96 -111 -143 -27 -41 -55 -49 -52 -15 2 26
-34 26 -62 0 -58 -52 -64 -48 -10 6 55 55 57 59 50 94 -7 32 -12 37 -40 40
-40 4 -56 -23 -26 -45 16 -12 17 -15 4 -23 -8 -5 -40 -25 -70 -44 -62 -40 -45
-49 30 -15 l45 20 -50 -50 c-27 -28 -57 -54 -67 -57 -20 -6 -25 -44 -5 -44 6
0 31 11 54 24 l43 25 -16 -25 c-9 -13 -38 -38 -65 -55 -26 -18 -50 -38 -53
-45 -10 -27 15 -24 61 7 l48 32 -41 -44 c-23 -24 -66 -75 -96 -114 -30 -38
-65 -79 -77 -89 -20 -18 -27 -46 -15 -59 13 -12 36 7 56 47 11 22 34 59 51 81
35 46 228 245 238 245 4 0 -4 -30 -18 -67 -14 -38 -28 -80 -33 -95 -4 -14 -13
-35 -19 -45 -8 -14 -9 -10 -4 17 10 50 9 74 -2 80 -5 3 -13 -17 -18 -45 -9
-59 -36 -146 -48 -159 -14 -15 -11 -36 5 -36 19 0 69 91 122 222 55 138 80
180 143 243 l51 49 0 -77 c0 -92 13 -122 72 -168 24 -18 46 -38 50 -44 10 -14
-1 -81 -23 -138 -26 -65 -24 -81 11 -110 l30 -26 -34 -20 c-40 -25 -52 -26
-60 -6 -9 24 -26 17 -38 -15 -7 -20 -24 -38 -50 -51 -22 -11 -42 -19 -44 -17
-2 2 15 34 37 71 40 67 44 97 15 97 -9 0 -28 -12 -44 -27 -16 -16 -83 -74
-150 -131 -111 -95 -132 -118 -132 -143 0 -16 36 -10 61 10 25 19 141 72 147
66 9 -9 -186 -329 -271 -444 -44 -60 -58 -91 -39 -91 15 0 38 32 71 95 17 33
84 148 150 255 l119 195 66 29 c63 28 66 29 85 12 19 -17 20 -17 30 3 6 11 11
26 11 34 0 9 28 26 68 43 84 35 85 36 71 66 -7 16 -25 30 -50 37 -21 6 -41 16
-44 21 -3 4 6 43 20 86 14 42 25 95 25 118 0 37 -6 48 -50 93 -49 51 -50 52
-50 115 0 34 5 80 11 101 18 64 -29 92 -74 43z m-237 -230 c0 -2 -8 -10 -17
-17 -16 -13 -17 -12 -4 4 13 16 21 21 21 13z m145 -486 c-24 -48 -32 -54 -112
-91 -47 -22 -88 -37 -92 -34 -7 9 139 148 188 180 46 29 51 14 16 -55z"/>
<path d="M3248 5512 c-30 -6 -20 -30 17 -42 38 -13 50 -9 66 22 10 19 9 20
-25 16 -20 -2 -37 -1 -38 2 -2 3 -11 4 -20 2z"/>
<path d="M5375 5440 c-3 -5 -1 -10 4 -10 6 0 11 5 11 10 0 6 -2 10 -4 10 -3 0
-8 -4 -11 -10z"/>
<path d="M4970 5409 c0 -5 5 -7 10 -4 6 3 10 8 10 11 0 2 -4 4 -10 4 -5 0 -10
-5 -10 -11z"/>
<path d="M5421 5222 c-10 -10 -16 -11 -24 -3 -6 6 -26 11 -45 11 -42 0 -94
-50 -125 -119 l-20 -45 23 -18 c12 -10 30 -18 40 -18 10 0 25 -3 34 -6 11 -4
19 2 25 17 5 13 10 18 10 12 1 -21 77 -66 100 -58 11 3 45 -2 77 -11 52 -15
60 -15 84 -1 15 9 36 13 49 10 17 -4 29 1 46 20 13 14 30 27 37 29 18 6 -10
59 -34 66 -10 2 -20 13 -23 23 -4 11 -15 24 -26 29 -10 6 -26 26 -34 45 -18
45 -37 44 -81 -2 -23 -24 -38 -33 -41 -25 -2 6 -8 12 -13 12 -5 0 -10 -6 -13
-12 -3 -11 -1 9 6 46 3 14 -38 13 -52 -2z"/>
<path d="M5350 4827 c0 -20 50 -64 92 -81 78 -33 178 -11 208 44 17 31 6 35
-27 10 -36 -26 -126 -37 -175 -21 -19 6 -46 23 -58 36 -26 28 -40 32 -40 12z"/>
<path d="M5330 4809 c0 -34 48 -83 85 -85 17 -1 17 0 -5 18 -13 10 -28 22 -35
26 -6 4 -19 18 -28 32 -11 15 -17 19 -17 9z"/>
<path d="M4904 4799 c-3 -6 -27 -24 -52 -40 -38 -24 -57 -29 -108 -29 -35 0
-66 5 -69 10 -7 12 -45 14 -45 3 0 -22 69 -53 121 -54 30 -1 45 -3 34 -6 -41
-10 -41 -26 -1 -20 27 4 52 18 78 44 20 20 35 39 33 42 -3 2 4 15 16 27 12 13
16 24 10 28 -5 4 -13 1 -17 -5z m-24 -64 c-7 -9 -15 -13 -17 -11 -7 7 7 26 19
26 6 0 6 -6 -2 -15z m-40 -30 c-7 -8 -17 -15 -23 -15 -6 0 -2 7 9 15 25 19 30
19 14 0z"/>
<path d="M3776 4763 c-11 -11 -6 -23 8 -23 8 0 17 4 20 9 7 10 -19 23 -28 14z"/>
<path d="M5179 4722 l-43 -39 -35 25 c-51 34 -110 27 -157 -19 -18 -19 -34
-37 -34 -41 0 -18 29 -6 53 22 33 37 51 38 83 3 14 -15 37 -28 52 -29 15 -1
34 -5 43 -8 10 -5 26 6 48 34 41 51 87 54 104 8 8 -22 26 -23 34 -3 6 18 -21
51 -59 71 -38 19 -40 19 -89 -24z"/>
<path d="M5205 4634 c-16 -8 -37 -22 -46 -30 -20 -18 -39 -17 -63 1 -32 24
-61 18 -115 -25 -28 -22 -60 -40 -71 -40 -54 0 -83 -82 -55 -155 9 -25 18 -45
20 -45 2 0 10 3 19 6 22 8 20 31 -4 44 -23 13 -36 70 -21 98 29 55 109 26 150
-53 18 -34 34 -51 49 -53 14 -2 22 2 22 11 0 18 -72 112 -96 125 -15 8 -13 14
19 46 33 32 40 35 59 25 12 -7 30 -21 39 -33 l17 -20 37 29 c20 17 50 38 66
48 28 18 29 18 52 -7 18 -19 26 -23 35 -14 9 9 7 17 -10 35 -25 27 -61 29
-103 7z"/>
<path d="M5355 4551 c-37 -16 -149 -120 -140 -129 13 -13 55 14 82 52 40 56
101 80 132 52 11 -10 24 -31 30 -48 9 -25 7 -33 -13 -53 -21 -21 -24 -35 -7
-35 3 0 18 11 34 24 35 30 35 63 -3 114 -34 48 -53 51 -115 23z"/>
<path d="M7784 4544 c-17 -7 11 -60 41 -80 31 -20 43 -12 37 26 -6 42 -44 68
-78 54z"/>
<path d="M5322 4443 c-12 -19 -21 -37 -19 -39 6 -7 71 18 87 33 13 13 13 16
-4 29 -29 21 -38 17 -64 -23z"/>
<path d="M4908 4463 c-36 -9 -30 -73 7 -73 7 0 24 -9 38 -20 39 -31 47 -26 40
28 -9 69 -24 81 -85 65z"/>
<path d="M3995 4410 c4 -6 11 -8 16 -5 14 9 11 15 -7 15 -8 0 -12 -5 -9 -10z"/>
<path d="M4119 4363 c-13 -15 -12 -15 9 -4 23 12 28 21 13 21 -5 0 -15 -7 -22
-17z"/>
<path d="M4505 4280 c-3 -5 -1 -10 4 -10 6 0 11 5 11 10 0 6 -2 10 -4 10 -3 0
-8 -4 -11 -10z"/>
<path d="M3018 4183 c-31 -38 -50 -76 -56 -115 -6 -33 -13 -43 -32 -48 -36
-10 -208 -97 -239 -121 -14 -11 -29 -28 -32 -36 -4 -11 -15 -2 -41 35 -61 83
-127 123 -162 97 -16 -12 -18 -23 -13 -92 11 -139 26 -203 47 -203 13 0 13 16
0 39 -5 10 -12 67 -16 125 l-7 107 41 -37 c23 -20 48 -47 57 -60 14 -22 14
-23 -2 -17 -10 4 -23 13 -29 21 -7 10 -13 12 -18 4 -3 -6 5 -19 19 -29 72 -51
72 -50 34 -46 l-34 4 35 -17 c28 -14 31 -18 17 -21 -16 -4 -15 -7 8 -19 30
-15 49 -10 41 12 -3 8 -2 14 2 14 4 0 13 14 20 30 8 17 21 30 32 30 10 0 25
12 35 26 22 34 31 23 10 -13 -11 -17 -11 -21 -2 -10 15 18 32 24 22 7 -4 -6 1
-7 11 -3 14 5 16 3 11 -11 -4 -10 -3 -15 3 -11 5 3 16 -8 24 -24 20 -39 85
-91 113 -91 39 0 37 22 -6 57 -41 35 -98 119 -88 130 10 9 124 -106 137 -138
12 -28 33 -38 44 -21 8 14 -48 100 -104 158 -29 30 -50 57 -47 61 4 3 13 0 22
-7 8 -7 21 -10 29 -7 27 11 106 -101 106 -150 0 -13 5 -23 10 -23 18 0 10 62
-16 120 -25 57 -25 57 -10 136 17 87 35 134 52 134 31 0 88 -102 118 -208 9
-33 15 -39 24 -30 7 7 12 17 12 24 0 20 49 3 79 -27 16 -16 36 -49 44 -74 15
-43 15 -45 -6 -60 -14 -10 -25 -11 -31 -5 -17 17 -66 11 -98 -11 -35 -25 -53
-62 -57 -114 -2 -19 -2 -19 -12 -2 -6 10 -9 27 -6 38 3 10 1 17 -4 13 -5 -3
-9 0 -9 5 0 13 -27 15 -34 3 -3 -5 12 -44 34 -88 21 -43 35 -80 31 -82 -5 -1
-25 -12 -47 -22 -38 -20 -53 -15 -54 17 0 15 -49 73 -61 73 -5 0 -9 -8 -9 -17
0 -14 -3 -13 -23 5 -48 45 -126 22 -172 -52 -19 -28 -18 -28 6 -47 13 -10 31
-19 39 -20 66 -6 110 19 110 61 0 28 2 30 28 24 38 -9 60 -37 68 -90 10 -67
46 -97 63 -52 l8 22 17 -26 c22 -34 12 -55 -41 -79 -45 -21 -93 -19 -121 4
-14 11 -27 3 -18 -12 9 -15 74 -29 116 -25 19 1 41 3 47 3 7 1 23 17 35 36 14
21 29 33 38 30 8 -3 33 2 55 9 47 17 85 66 85 112 0 40 -17 55 -49 43 -19 -8
-22 -14 -16 -37 9 -35 12 -37 30 -22 32 27 15 -13 -21 -46 -37 -36 -62 -42
-82 -22 -18 18 -15 25 18 37 36 12 37 27 7 72 -12 19 -28 46 -34 61 -11 25
-10 27 17 33 43 9 73 37 98 92 20 41 27 48 53 48 16 0 29 0 29 0 1 0 3 -34 7
-76 5 -69 3 -82 -21 -129 -31 -62 -33 -74 -5 -40 51 64 77 171 54 224 -5 11
-4 26 3 37 17 27 15 36 -9 42 -12 3 -19 10 -16 14 8 13 -27 84 -56 115 -14 15
-46 33 -71 40 -45 12 -61 32 -80 103 -3 11 -16 32 -28 47 -13 14 -31 36 -40
47 -22 26 -50 27 -70 4z m-68 -193 c0 -5 -5 -10 -11 -10 -5 0 -7 5 -4 10 3 6
8 10 11 10 2 0 4 -4 4 -10z m310 -257 l-13 -28 -7 30 c-6 31 8 51 24 35 6 -6
4 -20 -4 -37z m-56 -56 c6 -23 3 -29 -20 -38 -40 -14 -47 1 -23 51 22 46 29
44 43 -13z m-327 -134 c12 -31 12 -33 -12 -39 -30 -7 -85 13 -85 32 0 18 41
45 64 42 11 -2 25 -17 33 -35z m257 -41 c2 -4 -1 -16 -7 -28 -10 -17 -15 -18
-34 -9 -22 11 -19 28 7 38 22 8 28 8 34 -1z"/>
<path d="M6472 4140 c0 -14 2 -19 5 -12 2 6 2 18 0 25 -3 6 -5 1 -5 -13z"/>
<path d="M3014 4026 c-10 -41 -1 -71 23 -74 14 -2 20 -8 16 -18 -3 -8 -1 -14
5 -14 15 0 21 37 8 55 -6 9 -18 15 -26 13 -11 -2 -15 6 -14 30 2 38 -3 42 -12
8z"/>
<path d="M7469 3984 c-1 -99 -10 -223 -25 -373 -8 -84 -13 -155 -10 -158 4 -4
14 60 21 125 1 15 8 67 14 116 12 91 17 324 7 334 -3 3 -6 -17 -7 -44z"/>
<path d="M6240 3999 c0 -5 5 -7 10 -4 6 3 10 8 10 11 0 2 -4 4 -10 4 -5 0 -10
-5 -10 -11z"/>
<path d="M5161 3977 c-6 -6 -11 -15 -11 -19 0 -13 20 -9 35 6 12 12 12 15 1
19 -7 3 -19 0 -25 -6z"/>
<path d="M5121 3964 c0 -11 3 -14 6 -6 3 7 2 16 -1 19 -3 4 -6 -2 -5 -13z"/>
<path d="M4957 3943 c3 -7 9 -10 14 -7 14 8 11 21 -5 21 -8 0 -12 -6 -9 -14z"/>
<path d="M3070 3799 l0 -53 22 22 c18 18 20 26 13 48 -18 50 -35 41 -35 -17z"/>
<path d="M2666 3797 c3 -10 9 -15 12 -12 3 3 0 11 -7 18 -10 9 -11 8 -5 -6z"/>
<path d="M6017 3799 c7 -7 15 -10 18 -7 3 3 -2 9 -12 12 -14 6 -15 5 -6 -5z"/>
<path d="M6133 3796 c0 -8 6 -12 14 -9 7 3 10 9 7 14 -8 14 -21 11 -21 -5z"/>
<path d="M4705 3790 c-3 -5 -1 -10 4 -10 6 0 11 5 11 10 0 6 -2 10 -4 10 -3 0
-8 -4 -11 -10z"/>
<path d="M5975 3781 c-3 -5 -2 -12 3 -15 5 -3 9 1 9 9 0 17 -3 19 -12 6z"/>
<path d="M6050 3775 c0 -8 5 -15 10 -15 6 0 10 7 10 15 0 8 -4 15 -10 15 -5 0
-10 -7 -10 -15z"/>
<path d="M2770 3767 c0 -19 43 -57 63 -57 24 0 21 6 -15 40 -36 33 -48 37 -48
17z"/>
<path d="M6017 3773 c-3 -5 1 -14 9 -21 12 -11 14 -9 14 8 0 20 -14 27 -23 13z"/>
<path d="M6148 3763 c7 -3 16 -2 19 1 4 3 -2 6 -13 5 -11 0 -14 -3 -6 -6z"/>
<path d="M6180 3765 c0 -7 30 -13 34 -7 3 4 -4 9 -15 9 -10 1 -19 0 -19 -2z"/>
<path d="M6069 3700 c-14 -8 -16 -26 -9 -65 1 -5 5 1 9 15 4 15 3 28 -3 32 -7
5 -4 8 7 8 9 0 17 5 17 10 0 12 -1 12 -21 0z"/>
<path d="M7050 3701 c0 -5 5 -11 11 -13 10 -3 14 -99 21 -465 1 -57 6 -99 10
-95 6 6 22 301 19 350 -1 6 -1 18 -2 25 -1 6 0 49 1 94 3 87 -7 113 -41 113
-11 0 -19 -4 -19 -9z"/>
<path d="M2821 3674 c0 -11 3 -14 6 -6 3 7 2 16 -1 19 -3 4 -6 -2 -5 -13z"/>
<path d="M6207 3683 c-10 -10 -8 -33 2 -33 6 0 9 9 8 20 -1 23 -1 22 -10 13z"/>
<path d="M2735 3641 c-3 -5 -2 -12 3 -15 5 -3 9 1 9 9 0 17 -3 19 -12 6z"/>
<path d="M6232 3630 c-16 -26 -15 -31 3 -24 10 4 15 0 15 -15 0 -12 3 -21 8
-21 4 0 7 18 7 40 1 43 -13 52 -33 20z"/>
<path d="M2480 3618 c0 -7 6 -46 14 -86 14 -72 38 -120 90 -174 l25 -26 -23
-16 c-34 -22 -116 -149 -142 -220 -31 -85 -40 -202 -20 -263 9 -26 18 -64 21
-83 10 -68 83 -147 126 -136 14 3 16 -1 9 -23 -4 -14 -4 -35 0 -46 14 -39 -1
-99 -33 -132 -17 -18 -39 -33 -48 -33 -10 0 -20 -4 -23 -9 -10 -16 -90 -18
-135 -3 -51 16 -118 66 -126 94 -4 10 -12 18 -19 18 -20 0 -87 97 -97 140 -15
64 -14 223 1 246 11 18 8 27 -26 72 -61 82 -160 118 -259 93 -94 -24 -179
-141 -130 -181 11 -9 27 -8 76 8 47 15 68 17 93 10 29 -9 33 -15 46 -77 8 -36
14 -90 15 -119 0 -35 5 -58 15 -65 16 -13 48 -92 57 -140 8 -41 42 -52 68 -22
32 37 46 35 49 -8 3 -35 2 -37 -15 -21 -17 16 -49 13 -49 -3 0 -16 85 -93 103
-93 5 0 25 -13 44 -30 18 -17 40 -30 47 -30 8 0 16 -6 19 -13 15 -40 224 -62
314 -33 16 5 23 2 27 -11 8 -28 36 -183 34 -191 -1 -4 1 -23 5 -42 3 -19 11
-91 18 -160 15 -159 61 -281 135 -357 7 -7 20 -33 29 -58 15 -39 23 -46 56
-55 27 -8 45 -8 59 0 14 7 32 8 56 1 33 -9 38 -8 65 21 21 24 38 32 67 34 51
2 78 17 130 71 58 62 57 92 -4 149 -25 24 -43 48 -39 54 3 5 -1 20 -9 32 -11
16 -12 26 -5 40 6 11 8 32 4 46 -11 44 -14 511 -3 597 5 44 13 117 17 162 6
61 14 92 32 120 21 32 78 151 109 228 46 113 36 229 -31 339 -22 37 -41 77
-41 89 -2 26 -16 47 -33 47 -20 0 -8 -111 14 -126 26 -19 62 -108 68 -170 6
-54 -8 -147 -32 -219 -17 -52 -63 -142 -76 -150 -12 -8 -2 196 12 232 11 31
12 156 0 149 -4 -3 -11 -19 -14 -35 -3 -16 -12 -35 -20 -43 -25 -24 -40 -91
-39 -165 1 -40 -2 -74 -7 -77 -10 -6 -12 -89 -15 -456 -1 -257 6 -425 24 -548
5 -37 10 -86 10 -109 0 -23 6 -47 13 -52 70 -57 72 -60 60 -71 -9 -10 -14 -7
-25 9 -7 11 -18 21 -25 21 -20 0 -25 -19 -9 -36 17 -17 12 -63 -8 -76 -16 -11
-48 -10 -41 2 10 17 -21 75 -49 89 -15 8 -36 31 -48 50 -12 20 -28 42 -35 50
-8 7 -11 22 -7 33 4 13 2 18 -4 14 -5 -3 -12 3 -15 14 -3 13 -1 18 6 13 9 -5
9 -3 1 8 -16 21 -25 102 -14 138 5 17 5 31 1 31 -12 0 -11 246 1 343 8 66 8
91 -1 100 -38 38 -58 -122 -55 -449 3 -271 5 -281 99 -356 58 -47 82 -75 72
-84 -3 -3 -14 0 -25 7 -30 19 -55 -4 -47 -43 8 -36 -17 -39 -33 -3 -16 35 -47
32 -61 -6 -8 -24 -15 -30 -33 -27 -21 3 -23 8 -21 49 2 45 1 47 -47 80 -27 18
-51 43 -54 55 -4 13 -13 30 -22 39 -11 11 -18 40 -22 85 -2 38 -8 67 -12 65
-14 -9 -21 27 -31 149 -5 66 -12 123 -15 128 -3 4 -3 8 0 8 13 0 37 -65 33
-86 -3 -19 1 -26 19 -30 30 -8 32 -44 4 -69 -33 -30 -13 -84 32 -85 26 0 31
18 6 23 -18 3 -17 5 7 6 23 1 27 3 15 11 -11 7 -12 12 -4 18 6 4 15 22 19 41
5 26 10 30 17 20 7 -10 8 -4 4 18 -3 19 -1 33 6 35 6 2 -6 21 -26 43 -32 33
-36 44 -33 77 4 39 -1 46 -19 28 -7 -7 -11 -6 -11 5 0 8 4 15 9 15 4 0 8 9 8
20 0 11 -4 20 -8 20 -5 0 -16 6 -26 13 -15 11 -12 12 23 10 33 -1 41 2 47 20
10 27 6 50 -9 59 -9 6 -9 8 1 8 18 0 15 36 -5 56 -16 15 -16 17 0 29 16 11 16
13 2 19 -11 4 -14 13 -9 31 4 15 1 32 -7 42 -12 14 -11 15 6 10 17 -6 20 -2
20 21 0 15 -10 43 -21 63 -12 20 -27 54 -34 75 -22 67 -31 81 -66 97 -27 13
-34 23 -34 46 0 20 6 30 20 34 24 6 27 42 5 55 -14 7 -14 18 -5 78 6 38 24 96
39 129 28 56 30 75 12 75 -4 0 -24 -33 -44 -74 -39 -79 -65 -195 -71 -311 -2
-38 -8 -71 -14 -73 -35 -11 -112 73 -112 122 0 9 -7 36 -16 61 -12 37 -13 56
-5 98 6 29 13 70 16 91 8 64 65 167 138 251 l35 40 29 -23 c53 -43 88 -53 139
-42 76 17 86 29 19 23 -57 -4 -63 -3 -120 35 -33 22 -65 48 -71 58 -10 18 -7
19 48 18 32 0 53 3 46 7 -9 6 -8 10 4 14 9 4 25 1 35 -5 13 -8 13 -10 2 -7 -9
3 -16 -1 -16 -9 0 -19 7 -17 37 6 14 11 19 19 11 18 -8 -2 -17 5 -19 15 -2 10
2 17 12 17 8 0 18 6 22 13 4 6 3 9 -1 4 -5 -4 -21 5 -37 20 -27 26 -28 26 -42
7 -16 -21 -11 -38 7 -28 9 5 9 3 0 -6 -7 -7 -20 -14 -30 -15 -10 0 -23 -4 -29
-8 -6 -3 -24 -3 -40 2 l-29 8 39 7 c40 8 96 55 96 82 0 16 -12 18 -25 5 -6 -5
-31 -16 -57 -25 -59 -19 -106 -12 -113 18 -5 23 -13 74 -14 94 -1 6 -12 12
-26 12 -14 0 -25 -6 -25 -12z m-676 -664 c3 -8 2 -12 -4 -9 -6 3 -10 10 -10
16 0 14 7 11 14 -7z m183 -201 c-9 -9 -20 -13 -24 -9 -4 4 -1 11 7 16 25 16
35 11 17 -7z m25 -113 c-5 -15 -5 -35 2 -52 7 -20 7 -31 -1 -39 -8 -8 -15 -3
-27 19 -10 19 -12 33 -6 37 6 3 10 14 10 24 0 16 20 44 27 37 2 -2 0 -14 -5
-26z m46 -31 c-3 -20 -5 -19 -9 9 -3 20 -2 29 4 23 5 -5 7 -19 5 -32z m-24 -4
c5 -22 4 -26 -4 -15 -5 8 -10 24 -10 34 0 26 6 18 14 -19z m616 -20 c9 -24 30
-35 30 -15 0 6 -5 10 -12 10 -6 0 -9 3 -6 6 13 12 68 -29 68 -51 0 -6 -3 -5
-8 1 -8 13 -85 27 -77 14 3 -5 1 -11 -5 -15 -6 -4 -9 10 -7 34 1 23 3 41 5 41
1 0 7 -11 12 -25z m50 -55 c-19 -13 -30 -13 -30 0 0 6 10 10 23 10 18 0 19 -2
7 -10z m-581 -24 l22 -24 -30 2 c-30 1 -42 22 -24 39 8 9 6 10 32 -17z m604
-32 c-7 -3 -9 -12 -6 -20 3 -7 8 -12 12 -10 3 2 7 -7 7 -21 1 -13 -1 -22 -4
-19 -3 3 -11 1 -19 -6 -10 -8 -17 -8 -25 0 -9 9 -7 12 10 12 25 0 25 0 13 33
-10 26 -6 38 13 36 7 0 6 -2 -1 -5z m-77 -113 c-3 -5 10 -12 30 -16 20 -3 34
-9 31 -11 -10 -11 -77 9 -77 22 0 8 5 14 11 14 5 0 8 -4 5 -9z m-362 -45 c-3
-9 -10 -16 -16 -16 -5 0 -6 -4 -3 -10 3 -5 2 -10 -2 -10 -5 0 -13 8 -20 19
-10 15 -9 18 5 17 12 -1 16 6 14 22 -2 21 0 22 13 8 8 -8 12 -22 9 -30z m285
-2 c-7 -13 -18 -24 -25 -24 -7 0 -16 -9 -19 -20 -4 -14 -14 -20 -33 -19 -25 2
-25 2 -4 6 18 4 23 9 19 25 -6 22 2 33 43 61 30 21 39 7 19 -29z m-209 -14 c0
-5 -5 -10 -11 -10 -5 0 -7 5 -4 10 3 6 8 10 11 10 2 0 4 -4 4 -10z m105 -19
c-6 -5 -25 10 -25 20 0 5 6 4 14 -3 8 -7 12 -15 11 -17z m-108 -17 c-3 -3 -12
-4 -19 -1 -8 3 -5 6 6 6 11 1 17 -2 13 -5z m310 -53 c5 -36 3 -41 -11 -35 -9
4 -15 9 -12 11 3 3 1 16 -4 29 -11 28 -2 60 12 46 5 -5 12 -28 15 -51z m23
-155 c0 -3 -4 -8 -10 -11 -5 -3 -10 -1 -10 4 0 6 5 11 10 11 6 0 10 -2 10 -4z"/>
<path d="M2096 2507 c3 -10 9 -15 12 -12 3 3 0 11 -7 18 -10 9 -11 8 -5 -6z"/>
<path d="M5935 3610 c-3 -5 -1 -10 6 -10 9 0 8 -5 -3 -17 -15 -19 -18 -43 -5
-43 4 0 10 0 13 0 4 0 0 8 -7 17 -12 15 -12 16 4 10 13 -5 17 -1 17 18 0 26
-15 41 -25 25z"/>
<path d="M6065 3610 c-3 -5 -1 -10 4 -10 6 0 11 5 11 10 0 6 -2 10 -4 10 -3 0
-8 -4 -11 -10z"/>
<path d="M2700 3581 c0 -5 7 -11 14 -14 10 -4 13 -1 9 9 -6 15 -23 19 -23 5z"/>
<path d="M5770 3584 c0 -9 -19 -20 -100 -57 -34 -16 -34 -16 -5 -11 62 12 128
54 111 71 -3 3 -6 2 -6 -3z"/>
<path d="M5955 3544 c-16 -24 -21 -26 -68 -21 -45 4 -49 3 -31 -10 48 -35 105
-19 125 35 11 30 -5 28 -26 -4z"/>
<path d="M2670 3554 c0 -1 6 -7 14 -13 10 -9 15 -8 19 2 3 8 -3 13 -14 13 -11
0 -19 -1 -19 -2z"/>
<path d="M1313 3525 c-3 -9 -3 -19 1 -22 8 -9 37 18 30 28 -8 14 -24 11 -31
-6z"/>
<path d="M4750 3507 c0 -20 43 -57 66 -57 14 0 11 5 -13 20 -18 11 -33 27 -33
35 0 8 -4 15 -10 15 -5 0 -10 -6 -10 -13z"/>
<path d="M5590 3500 c-8 -5 -45 -14 -83 -20 -38 -7 -66 -14 -64 -17 8 -7 130
18 157 32 14 8 21 14 15 14 -5 1 -17 -4 -25 -9z"/>
<path d="M1271 3481 c-16 -10 -6 -31 15 -31 8 0 14 9 14 20 0 22 -7 25 -29 11z"/>
<path d="M2695 3450 c-3 -5 -1 -10 4 -10 6 0 11 5 11 10 0 6 -2 10 -4 10 -3 0
-8 -4 -11 -10z"/>
<path d="M2824 3445 c-10 -8 -14 -15 -8 -15 6 0 17 7 24 15 16 19 9 19 -16 0z"/>
<path d="M5258 3443 c7 -3 16 -2 19 1 4 3 -2 6 -13 5 -11 0 -14 -3 -6 -6z"/>
<path d="M2847 3409 c7 -7 15 -10 18 -7 3 3 -2 9 -12 12 -14 6 -15 5 -6 -5z"/>
<path d="M2889 3393 c-13 -16 -12 -17 4 -4 16 13 21 21 13 21 -2 0 -10 -8 -17
-17z"/>
<path d="M2951 3388 c-9 -24 1 -44 17 -34 12 7 13 56 0 56 -5 0 -13 -10 -17
-22z"/>
<path d="M2805 3390 c-3 -5 -1 -10 4 -10 6 0 11 5 11 10 0 6 -2 10 -4 10 -3 0
-8 -4 -11 -10z"/>
<path d="M3000 3370 c0 -5 4 -10 9 -10 6 0 13 5 16 10 3 6 -1 10 -9 10 -9 0
-16 -4 -16 -10z"/>
<path d="M2720 3340 c-8 -5 -10 -10 -5 -10 6 0 17 5 25 10 8 5 11 10 5 10 -5
0 -17 -5 -25 -10z"/>
<path d="M3210 3211 c0 -5 7 -14 15 -21 12 -10 15 -10 15 3 0 8 -7 17 -15 21
-8 3 -15 2 -15 -3z"/>
<path d="M3151 3144 c0 -11 3 -14 6 -6 3 7 2 16 -1 19 -3 4 -6 -2 -5 -13z"/>
<path d="M3226 3144 c-8 -21 -8 -24 3 -24 5 0 11 9 14 20 6 24 -8 27 -17 4z"/>
<path d="M3165 3120 c-3 -5 -1 -10 4 -10 6 0 11 5 11 10 0 6 -2 10 -4 10 -3 0
-8 -4 -11 -10z"/>
<path d="M5920 3006 c0 -2 8 -10 18 -17 15 -13 16 -12 3 4 -13 16 -21 21 -21
13z"/>
<path d="M5969 3008 c-4 -15 -6 -38 -3 -38 2 0 8 9 14 20 7 14 7 20 0 20 -5 0
-10 -1 -11 -2z"/>
<path d="M7564 2945 c-7 -17 12 -45 30 -45 23 0 36 22 25 42 -12 22 -47 24
-55 3z"/>
<path d="M5545 2900 c-58 -21 -53 -25 11 -9 24 6 44 15 44 20 0 5 -1 8 -2 8
-2 -1 -25 -10 -53 -19z"/>
<path d="M3050 2871 c0 -6 4 -13 10 -16 6 -3 7 1 4 9 -7 18 -14 21 -14 7z"/>
<path d="M5436 2872 c-3 -5 8 -6 25 -4 16 2 29 6 29 8 0 8 -49 4 -54 -4z"/>
<path d="M4958 2843 c7 -3 16 -2 19 1 4 3 -2 6 -13 5 -11 0 -14 -3 -6 -6z"/>
<path d="M5238 2843 c6 -2 18 -2 25 0 6 3 1 5 -13 5 -14 0 -19 -2 -12 -5z"/>
<path d="M5288 2843 c7 -3 16 -2 19 1 4 3 -2 6 -13 5 -11 0 -14 -3 -6 -6z"/>
<path d="M5034 2828 c13 -9 122 -9 155 1 13 3 -19 6 -72 6 -52 0 -90 -3 -83
-7z"/>
<path d="M2997 2656 c-3 -8 1 -17 9 -20 9 -4 14 1 14 14 0 23 -15 27 -23 6z"/>
<path d="M6945 2500 c-3 -5 -1 -10 4 -10 6 0 11 5 11 10 0 6 -2 10 -4 10 -3 0
-8 -4 -11 -10z"/>
<path d="M6887 2473 c-15 -15 -5 -43 25 -68 26 -22 39 -26 67 -21 43 7 52 15
44 44 -4 17 -11 22 -25 19 -11 -3 -22 2 -28 14 -11 19 -68 27 -83 12z"/>
<path d="M7509 2326 c-1 -3 -3 -10 -4 -16 -1 -5 -3 -13 -4 -16 0 -3 -11 2 -23
10 -36 25 -50 20 -46 -16 3 -28 10 -36 48 -55 59 -29 130 -15 102 20 -7 8 -8
18 -4 23 4 4 -1 2 -10 -5 -15 -11 -18 -11 -18 2 0 8 5 17 10 19 6 2 -3 11 -20
21 -16 10 -31 16 -31 13z"/>
<path d="M6621 2266 c-17 -20 -5 -53 21 -62 32 -10 53 22 34 50 -17 27 -39 31
-55 12z"/>
<path d="M6407 2069 c-24 -14 -5 -39 29 -39 31 0 37 13 13 33 -22 20 -19 19
-42 6z"/>
<path d="M1736 2041 c-8 -13 0 -65 15 -97 10 -20 12 -20 45 -5 34 15 43 34 24
46 -6 4 -8 10 -6 14 3 4 -4 8 -15 8 -11 1 -28 12 -38 24 -12 16 -20 19 -25 10z"/>
<path d="M563 1844 c-7 -18 28 -54 52 -54 20 0 46 30 43 49 -5 24 -86 28 -95
5z"/>
<path d="M2249 1800 c0 -3 -3 -27 -5 -55 -4 -37 -2 -46 6 -35 8 11 10 3 9 -35
-2 -80 0 -105 9 -105 11 0 3 200 -8 220 -5 8 -10 13 -11 10z"/>
<path d="M6322 1768 c7 -19 38 -22 38 -4 0 10 -9 16 -21 16 -12 0 -19 -5 -17
-12z"/>
<path d="M2752 1740 c-26 -25 -27 -27 -7 -27 8 0 15 6 15 12 0 7 10 17 23 23
15 7 17 11 6 11 -8 1 -25 -8 -37 -19z"/>
<path d="M1106 1725 c-3 -9 -6 -22 -5 -28 0 -7 5 -1 10 12 5 13 8 26 5 28 -2
2 -6 -3 -10 -12z"/>
<path d="M1915 1646 c-24 -17 -13 -49 16 -44 31 4 49 35 29 48 -20 13 -23 12
-45 -4z"/>
<path d="M7426 1641 c-24 -26 -17 -52 17 -71 26 -14 29 -14 43 4 16 22 10 55
-14 74 -21 16 -26 15 -46 -7z"/>
<path d="M3641 1577 c-15 -19 -3 -47 21 -47 15 0 19 6 16 27 -4 31 -20 40 -37
20z"/>
<path d="M2250 1549 c0 -5 5 -7 10 -4 6 3 10 8 10 11 0 2 -4 4 -10 4 -5 0 -10
-5 -10 -11z"/>
<path d="M6920 1537 c0 -19 20 -36 36 -30 19 7 18 29 -2 37 -24 9 -34 7 -34
-7z"/>
<path d="M7568 1511 c-12 -17 -14 -30 -7 -54 5 -18 9 -33 9 -34 0 -2 14 -3 30
-3 42 0 49 24 18 58 -14 15 -27 33 -30 41 -3 11 -8 9 -20 -8z"/>
<path d="M1052 1483 c-6 -3 -10 -9 -7 -14 4 -5 -1 -6 -9 -3 -9 4 -18 0 -22
-10 -4 -11 -11 -13 -22 -7 -10 4 -32 7 -49 5 -18 -1 -33 2 -33 7 0 6 -4 7 -10
4 -5 -3 -10 -1 -10 4 0 7 -7 7 -20 -1 -27 -17 -25 -49 5 -82 35 -37 69 -48
114 -36 55 15 83 49 79 97 -2 27 -7 38 -16 36z"/>
<path d="M2041 1469 c-19 -8 -21 -12 -11 -24 15 -18 46 -20 56 -4 11 19 -18
38 -45 28z"/>
<path d="M7034 1465 c-7 -18 3 -35 21 -35 21 0 28 19 15 35 -16 19 -29 19 -36
0z"/>
<path d="M3655 1460 c-3 -5 3 -14 14 -20 26 -13 35 2 11 18 -11 7 -21 8 -25 2z"/>
<path d="M2270 1390 c-19 -36 14 -56 40 -25 10 12 10 18 0 30 -17 20 -27 19
-40 -5z"/>
<path d="M6636 1378 c-22 -31 -20 -50 10 -71 46 -34 87 7 61 63 -16 33 -51 38
-71 8z"/>
<path d="M1925 1380 c-9 -15 4 -30 26 -30 23 0 26 25 3 34 -21 8 -22 8 -29 -4z"/>
<path d="M2036 1349 c-8 -12 -13 -25 -11 -29 9 -15 45 -17 62 -5 14 11 16 18
7 32 -16 26 -40 27 -58 2z"/>
<path d="M3440 1355 c0 -21 30 -31 41 -14 14 23 11 29 -16 29 -16 0 -25 -6
-25 -15z"/>
<path d="M3584 1319 c-9 -16 20 -41 39 -33 21 8 22 30 1 38 -23 9 -32 7 -40
-5z"/>
<path d="M2665 1290 c-4 -7 -3 -16 3 -22 13 -13 54 0 49 15 -5 16 -43 21 -52
7z"/>
<path d="M1390 1255 c0 -8 6 -15 14 -15 8 0 16 7 20 15 4 10 -1 15 -14 15 -11
0 -20 -7 -20 -15z"/>
<path d="M6827 1243 c-4 -3 -7 -24 -7 -45 0 -31 7 -46 30 -70 27 -27 36 -30
73 -25 48 7 83 40 48 45 -12 2 -21 7 -21 12 0 5 -9 12 -20 15 -13 4 -20 15
-20 31 0 21 -3 24 -27 18 -18 -5 -30 -2 -38 9 -7 9 -15 14 -18 10z"/>
<path d="M7234 1235 c-10 -24 4 -45 28 -45 22 1 22 1 4 15 -11 8 -15 15 -8 15
6 0 9 7 6 15 -4 8 -10 15 -15 15 -5 0 -12 -7 -15 -15z"/>
<path d="M3320 1170 c0 -5 5 -10 10 -10 6 0 10 5 10 10 0 6 -4 10 -10 10 -5 0
-10 -4 -10 -10z"/>
<path d="M573 1164 c-22 -10 -14 -34 14 -45 22 -8 30 -7 40 8 7 9 12 22 10 28
-4 11 -45 17 -64 9z"/>
<path d="M5380 1120 c-14 -26 4 -63 28 -58 26 5 28 54 3 67 -17 9 -22 8 -31
-9z"/>
<path d="M1660 1093 c0 -37 13 -55 33 -47 21 8 21 23 1 52 -21 30 -34 28 -34
-5z"/>
<path d="M5550 1065 c-17 -20 -5 -62 21 -70 24 -8 59 19 59 46 0 34 -58 51
-80 24z"/>
<path d="M7494 1055 c-15 -23 -15 -27 0 -50 9 -14 20 -25 24 -25 11 1 62 72
62 87 0 8 -12 13 -35 13 -26 0 -39 -6 -51 -25z"/>
<path d="M3525 1060 c-12 -19 4 -62 22 -58 24 5 26 22 4 47 -12 14 -22 18 -26
11z"/>
<path d="M2902 1033 c-7 -2 -17 -14 -23 -25 -14 -27 14 -58 53 -58 15 0 28 2
28 5 0 17 -26 55 -38 55 -8 0 -12 6 -8 15 3 8 4 15 3 14 -1 0 -8 -3 -15 -6z"/>
<path d="M4207 1003 c-2 -5 -7 -20 -11 -35 -5 -22 -3 -25 14 -21 11 3 20 11
20 19 0 8 6 11 15 8 8 -4 15 -1 15 5 0 6 -7 11 -16 11 -8 0 -12 5 -9 10 3 6
-1 10 -9 10 -8 0 -17 -3 -19 -7z m10 -25 c-3 -8 -6 -5 -6 6 -1 11 2 17 5 13 3
-3 4 -12 1 -19z"/>
<path d="M1922 979 c-16 -26 3 -86 30 -95 26 -8 56 4 63 25 7 22 -11 74 -24
67 -4 -3 -17 1 -27 9 -25 19 -27 19 -42 -6z"/>
<path d="M7110 981 c-8 -17 -7 -24 10 -41 23 -23 38 -22 54 3 8 12 8 22 0 35
-16 25 -51 27 -64 3z"/>
<path d="M4090 971 c0 -5 10 -11 23 -14 12 -3 33 -9 46 -13 19 -6 22 -4 20 11
-3 12 -16 18 -46 21 -24 2 -43 0 -43 -5z"/>
<path d="M1604 960 c-35 -14 -64 -59 -64 -99 1 -58 50 -101 116 -101 42 0 100
32 109 60 9 29 -5 90 -21 90 -8 0 -14 -5 -14 -10 0 -20 -51 -31 -86 -20 -45
15 -51 38 -17 66 29 24 18 31 -23 14z"/>
<path d="M5243 900 c-12 -11 -27 -20 -33 -20 -10 0 -14 -13 -11 -37 1 -7 -7
-13 -19 -13 -24 0 -24 1 -5 -43 14 -34 28 -49 50 -53 6 -1 17 -5 26 -8 19 -8
79 41 63 52 -17 11 -11 56 9 64 35 15 13 61 -34 73 -17 4 -31 -1 -46 -15z"/>
<path d="M5719 824 c-6 -7 -8 -17 -5 -23 3 -5 1 -11 -5 -13 -8 -3 -7 -15 6
-41 14 -30 23 -37 45 -37 16 0 36 7 44 16 21 20 20 78 0 95 -22 18 -71 20 -85
3z m54 -20 c-3 -7 -11 -10 -19 -7 -20 8 -17 22 5 20 10 0 17 -7 14 -13z"/>
<path d="M6197 774 c-10 -11 3 -24 24 -24 23 0 25 15 3 24 -19 7 -19 7 -27 0z"/>
<path d="M6076 752 c-12 -20 3 -103 25 -134 37 -52 113 -42 166 21 30 36 31
89 1 100 -13 5 -30 5 -38 1 -8 -4 -43 -10 -77 -12 -57 -5 -62 -3 -65 16 -2 16
-5 18 -12 8z"/>
<path d="M4582 588 c-18 -18 -15 -36 9 -48 15 -9 24 -8 35 1 19 15 18 29 -3
45 -22 17 -26 17 -41 2z"/>
<path d="M6555 567 c-4 -10 -5 -21 -1 -24 10 -10 18 4 13 24 -4 17 -4 17 -12
0z"/>
<path d="M5730 560 c0 -5 4 -10 9 -10 6 0 13 5 16 10 3 6 -1 10 -9 10 -9 0
-16 -4 -16 -10z"/>
</g>
</svg>
