<?xml version="1.0" encoding="UTF-8" standalone="no"?>
<!-- Created with Inkscape (http://www.inkscape.org/) -->

<svg
   xmlns:dc="http://purl.org/dc/elements/1.1/"
   xmlns:cc="http://creativecommons.org/ns#"
   xmlns:rdf="http://www.w3.org/1999/02/22-rdf-syntax-ns#"
   xmlns:svg="http://www.w3.org/2000/svg"
   xmlns="http://www.w3.org/2000/svg"
   xmlns:sodipodi="http://sodipodi.sourceforge.net/DTD/sodipodi-0.dtd"
   xmlns:inkscape="http://www.inkscape.org/namespaces/inkscape"
   version="1.1"
   id="svg2"
   xml:space="preserve"
   width="1620.20001"
   height="335.49332"
   viewBox="0 0 620.20001 335.49332"
   sodipodi:docname="新闻传播学院图标.eps"
   inkscape:version="0.92.2 5c3e80d, 2017-08-06"><metadata
     id="metadata8"><rdf:RDF><cc:Work
         rdf:about=""><dc:format>image/svg+xml</dc:format><dc:type
           rdf:resource="http://purl.org/dc/dcmitype/StillImage" /><dc:title></dc:title></cc:Work></rdf:RDF></metadata><defs
     id="defs6" /><sodipodi:namedview
     pagecolor="#ffffff"
     bordercolor="#666666"
     borderopacity="1"
     objecttolerance="10"
     gridtolerance="10"
     guidetolerance="10"
     inkscape:pageopacity="0"
     inkscape:pageshadow="2"
     inkscape:window-width="640"
     inkscape:window-height="480"
     id="namedview4"
     showgrid="false"
     inkscape:zoom="0.59496935"
     inkscape:cx="310.10001"
     inkscape:cy="167.74666"
     inkscape:window-x="0"
     inkscape:window-y="0"
     inkscape:window-maximized="0"
     inkscape:current-layer="g12" /><g
     id="g10"
     inkscape:groupmode="layer"
     inkscape:label="ink_ext_XXXXXX"
     transform="matrix(1.3333333,0,0,-1.3333333,0,335.49333)"><g
       id="g12"
       transform="scale(0.1)"
       style="fill:#800080"><path
         d="m 681.391,1099.73 -47.692,-2.36 v 284.38 l 47.692,4.02 z m -86.828,278.75 c 0.343,0 0.695,0.02 1.035,0.05 l 25.996,2.19 v -283.96 l -27.606,-1.37 c -6.679,-0.33 -11.828,-6 -11.5,-12.68 0.325,-6.48 5.672,-11.51 12.086,-11.51 0.199,0 0.406,0 0.606,0.01 l 130.761,6.48 c 6.672,0.34 11.821,6.01 11.489,12.69 -0.328,6.48 -5.672,11.51 -12.086,11.51 -0.199,0 -0.403,0 -0.61,-0.01 l -31.246,-1.56 v 286.47 l 32.867,2.78 c 6.661,0.56 11.606,6.42 11.04,13.08 -0.559,6.66 -6.434,11.68 -13.079,11.04 l -130.75,-11.04 c -6.664,-0.56 -11.609,-6.42 -11.043,-13.08 0.532,-6.32 5.825,-11.09 12.04,-11.09"
         style="fill:#800080;fill-opacity:1;fill-rule:nonzero;stroke:none"
         id="path14"
         inkscape:connector-curvature="0" /><path
         d="m 2457.79,1447.07 -56.69,-26.79 v 505.73 l 56.69,45.62 z m -119.88,431.54 c 2.67,0 5.35,0.87 7.59,2.66 l 31.39,25.26 v -497.7 l -44.15,-20.86 c -6.05,-2.85 -8.64,-10.07 -5.77,-16.11 2.06,-4.38 6.41,-6.94 10.95,-6.94 1.73,0 3.49,0.37 5.16,1.17 l 128.94,60.93 c 2.3,0.42 4.41,1.33 6.05,2.86 l 58.95,27.86 c 6.05,2.86 8.64,10.07 5.78,16.11 -2.86,6.05 -10.06,8.65 -16.12,5.78 L 2482,1458.51 v 532.6 l 57.44,46.22 c 5.21,4.19 6.03,11.82 1.84,17.02 -4.19,5.21 -11.8,6.03 -17.02,1.85 l -193.94,-156.06 c -5.21,-4.19 -6.03,-11.82 -1.85,-17.02 2.4,-2.98 5.9,-4.51 9.44,-4.51"
         style="fill:#800080;fill-opacity:1;fill-rule:nonzero;stroke:none"
         id="path16"
         inkscape:connector-curvature="0" /><path
         d="m 804.5,894.832 -50.797,-1.383 v 299.461 l 50.797,3.16 z m -97.156,295.238 c 0.246,0 0.508,0 0.761,0.02 l 33.497,2.07 V 893.121 l -34.575,-0.941 c -6.687,-0.18 -11.957,-5.739 -11.769,-12.418 0.172,-6.571 5.555,-11.782 12.09,-11.782 0.113,0 0.222,0 0.332,0 l 145.851,3.969 c 6.688,0.172 11.953,5.742 11.77,12.422 -0.172,6.57 -5.559,11.77 -12.094,11.77 -0.109,0 -0.223,0 -0.332,-0.012 l -36.27,-0.969 v 301.66 l 37.348,2.31 c 6.676,0.41 11.742,6.16 11.332,12.83 -0.414,6.67 -6.133,11.71 -12.832,11.33 l -145.848,-9.04 c -6.671,-0.41 -11.746,-6.15 -11.332,-12.83 0.395,-6.42 5.727,-11.35 12.071,-11.35"
         style="fill:#800080;fill-opacity:1;fill-rule:nonzero;stroke:none"
         id="path18"
         inkscape:connector-curvature="0" /><path
         d="m 1066.17,901.961 -53.63,-1.473 v 308.532 c 17.92,1.12 35.75,2.23 53.63,3.35 z M 962.953,1205.94 c 0.254,0 0.508,0.01 0.766,0.03 11.41,0.7 22.859,1.42 34.297,2.14 V 900.09 l -35.387,-0.969 c -6.68,-0.172 -11.945,-5.742 -11.766,-12.43 0.18,-6.562 5.563,-11.769 12.094,-11.769 0.109,0 0.227,0 0.336,0 l 159.427,4.367 c 6.69,0.172 11.96,5.75 11.77,12.43 -0.19,6.691 -5.8,12.203 -12.43,11.769 l -41.37,-1.129 v 310.921 c 14.17,0.89 28.39,1.79 42.46,2.67 6.67,0.42 11.74,6.17 11.33,12.84 -0.42,6.68 -6.19,11.78 -12.85,11.33 -52.74,-3.32 -106.28,-6.67 -159.419,-9.99 -6.672,-0.42 -11.75,-6.16 -11.328,-12.83 0.398,-6.42 5.73,-11.36 12.07,-11.36"
         style="fill:#800080;fill-opacity:1;fill-rule:nonzero;stroke:none"
         id="path20"
         inkscape:connector-curvature="0" /><path
         d="m 1364.4,910.199 c -21.53,-0.597 -43.54,-1.211 -66.11,-1.84 v 318.661 c 22.57,1.44 44.57,2.84 66.11,4.22 z M 1243.98,1223.6 c 0.26,0 0.52,0.01 0.77,0.02 13.16,0.84 26.12,1.66 39.01,2.48 V 907.949 c -13.25,-0.359 -26.58,-0.73 -40.1,-1.109 -6.69,-0.192 -11.96,-5.738 -11.77,-12.43 0.18,-6.57 5.56,-11.769 12.1,-11.769 0.11,0 0.22,0 0.34,0.007 63.31,1.75 123.9,3.442 179.38,5 6.68,0.18 11.95,5.762 11.76,12.442 -0.18,6.68 -5.53,12.109 -12.44,11.762 -14.36,-0.411 -29.1,-0.821 -44.11,-1.243 v 321.561 c 15.39,0.99 30.52,1.96 45.23,2.91 6.67,0.43 11.73,6.19 11.3,12.86 -0.43,6.67 -6.03,11.74 -12.86,11.3 -55.47,-3.58 -116.05,-7.44 -179.36,-11.45 -6.67,-0.43 -11.75,-6.18 -11.32,-12.86 0.41,-6.4 5.73,-11.33 12.07,-11.33"
         style="fill:#800080;fill-opacity:1;fill-rule:nonzero;stroke:none"
         id="path22"
         inkscape:connector-curvature="0" /><path
         d="m 3957.94,1382.3 37.93,-20.7 V 968.23 l -29.32,7 c -6.54,1.579 -13.03,-2.46 -14.58,-8.968 -1.56,-6.5 2.46,-13.043 8.96,-14.582 l 81.42,-19.41 c 0.94,-0.239 1.88,-0.34 2.81,-0.34 5.48,0 10.44,3.742 11.77,9.3 1.55,6.508 -2.46,13.032 -8.97,14.579 l -30.3,7.23 v 386.671 l 21.7,-11.84 c 1.83,-1 3.82,-1.48 5.78,-1.48 4.29,0 8.44,2.28 10.64,6.31 3.2,5.87 1.04,13.22 -4.83,16.42 l -81.42,44.44 c -5.86,3.19 -13.22,1.03 -16.42,-4.84 -3.19,-5.86 -1.04,-13.22 4.83,-16.42"
         style="fill:#800080;fill-opacity:1;fill-rule:nonzero;stroke:none"
         id="path24"
         inkscape:connector-curvature="0" /><path
         d="m 4092.28,1308.99 31.81,-17.36 V 937.648 l -23.21,5.543 c -6.51,1.579 -13.03,-2.472 -14.58,-8.972 -1.55,-6.5 2.47,-13.039 8.98,-14.578 l 63.77,-15.2 c 0.94,-0.242 1.89,-0.351 2.82,-0.351 5.47,0 10.43,3.738 11.76,9.308 1.55,6.5 -2.46,13.032 -8.97,14.582 l -23.62,5.629 v 348.771 l 15.02,-8.19 c 1.83,-1.01 3.83,-1.49 5.78,-1.49 4.29,0 8.45,2.29 10.64,6.32 3.21,5.86 1.04,13.22 -4.83,16.42 l -63.78,34.8 c -5.86,3.2 -13.21,1.04 -16.42,-4.83 -3.2,-5.87 -1.04,-13.22 4.83,-16.42"
         style="fill:#800080;fill-opacity:1;fill-rule:nonzero;stroke:none"
         id="path26"
         inkscape:connector-curvature="0" /><path
         d="m 300.922,777.109 c 2.648,-1.519 5.683,-2.449 8.953,-2.449 0.094,0 0.191,0 0.289,0 1.84,0.031 40.32,0.629 103.457,1.621 v -6.242 c -63.363,-0.879 -101.996,-1.418 -103.84,-1.43 -4.008,-0.058 -7.218,-3.347 -7.16,-7.379 0.055,-3.96 3.289,-7.16 7.262,-7.16 0.031,0 0.062,0 0.097,0 1.84,0.032 40.395,0.559 103.641,1.442 v -54.684 c -42.09,0.133 -80.051,0.254 -112.699,0.344 z m 21.375,665.871 c 2.879,2.69 5.801,5.34 8.836,7.93 3.926,0.37 8.273,0.77 13.234,1.24 -0.078,-0.36 -0.211,-0.69 -0.211,-1.06 v -174.65 l -35.113,-2.46 c -3.258,-0.23 -6.098,-1.75 -8.121,-4 v 68.42 c -0.383,34.75 5.996,90.16 21.375,104.58 z m 138.062,51.45 c 268.575,25.94 832.341,82.62 1120.051,112.25 70.44,7.26 115.62,12.23 134.3,14.78 47.49,6.5 94.54,19.61 139.83,38.98 15.19,6.49 30.3,13.76 44.94,21.59 57.53,30.83 82.71,54.52 83.53,55.31 l 648.33,597 c 0.15,0.14 0.3,0.29 0.44,0.43 0.31,0.3 32.04,31.3 85.31,64.24 59.69,36.89 154.19,80.88 265.46,80.88 66.36,0 135.09,-16.11 204.27,-47.88 95.7,-43.95 158.75,-103.11 159.36,-103.69 0.29,-0.26 0.58,-0.52 0.87,-0.77 l 980.35,-817.92 c 2.29,-2.25 17.9,-18.25 29.91,-43.28 l -993.64,826.15 c -2.67,2.51 -66.44,61.89 -166.26,107.29 -72.53,32.98 -144.82,49.69 -214.86,49.69 -117.22,0 -216.32,-45.59 -278.8,-83.84 -55.97,-34.26 -88.43,-65.76 -89.6,-66.91 l -303.4,-275.92 c -4.63,-0.82 -8.23,-4.11 -9.45,-8.59 l -55.85,-50.79 c -2.64,-1.04 -4.71,-3.04 -6.06,-5.51 l -268.93,-244.57 c -0.29,-0.28 -28.69,-28.04 -82.96,-56.83 -13.98,-7.41 -28.42,-14.28 -42.93,-20.42 -43.19,-18.29 -88.03,-30.67 -133.29,-36.8 -18.38,-2.49 -63.29,-7.38 -133.47,-14.54 -308.96,-31.51 -1033.474,-99.35 -1222.701,-117.02 21.61,12.02 52.317,21.57 105.25,26.69 z M 4369.31,1400.8 c -0.09,-0.71 -0.12,-1.42 -0.12,-2.13 v -29.56 c -0.45,3.06 -2.07,5.96 -4.74,7.95 l -33.89,25.25 c -5.38,4.02 -12.96,2.89 -16.93,-2.46 -4,-5.37 -2.89,-12.95 2.47,-16.95 l 21.75,-16.21 v -275.35 l -9.67,4.24 c -6.13,2.68 -13.26,-0.12 -15.94,-6.24 -2.69,-6.13 0.11,-13.26 6.24,-15.94 l 33.89,-14.83 c 1.57,-0.7 3.22,-1.02 4.84,-1.02 4.66,0 9.1,2.72 11.09,7.26 0.59,1.32 0.8,2.7 0.89,4.08 v -77.531 c -0.44,4.532 -3.35,8.629 -7.92,10.261 l -33.88,12.06 c -6.29,2.24 -13.22,-1.05 -15.46,-7.34 -2.25,-6.31 1.04,-13.219 7.34,-15.469 l 20.05,-7.133 V 816.52 l -61.76,8.429 v 54.43 c 1.63,-2.34 4.01,-4.168 7,-4.891 l 35.96,-8.566 c 0.95,-0.231 1.9,-0.344 2.82,-0.344 5.47,0 10.43,3.742 11.76,9.301 1.55,6.512 -2.46,13.031 -8.96,14.582 l -16.09,3.84 v 296.839 l 7.47,-4.08 c 1.85,-1 3.84,-1.48 5.79,-1.48 4.3,0 8.45,2.29 10.65,6.31 3.2,5.87 1.04,13.22 -4.83,16.43 l -35.95,19.63 c -5.5,2.98 -12.14,1.15 -15.62,-3.86 v 75.98 c 0.89,-1.24 2.01,-2.35 3.39,-3.21 l 35.97,-22.48 c 1.99,-1.24 4.21,-1.84 6.39,-1.84 4.04,0 7.98,2.02 10.29,5.69 3.54,5.67 1.81,13.13 -3.85,16.68 l -19.7,12.31 v 180.53 l 42.52,-35.36 c 3.08,-2.56 7.66,-2.14 10.23,0.94 0.09,0.11 0.11,0.25 0.2,0.38 8.95,-26.52 6.34,-51.68 6.31,-51.91 z m -66.43,-708.28 v 70.179 l 66.31,-8.039 v -60.871 z m -944.56,-18.098 c -0.23,0 -8.92,-0.274 -24.43,-0.66 v 206.527 c 15.14,-1.758 23.65,-2.93 23.93,-2.969 l 99.58,-12.07 V 676.32 Z m -164.1,-3.391 c -24.29,-0.351 -48.47,-0.633 -72.6,-0.859 v 226.789 c 24.04,-1.09 48.13,-2.352 72.29,-3.981 47.68,-3.21 87.35,-6.949 115.78,-9.98 V 673.191 c -28.43,-0.66 -67.98,-1.472 -115.47,-2.16 z m -409.66,-0.203 v 223.043 c 55.06,3.52 122.69,6.379 197.99,6.379 37.72,0 76.13,-0.809 114.87,-2.262 V 669.941 c -38.76,-0.312 -77.18,-0.48 -114.87,-0.48 -75.25,0 -142.89,0.609 -197.99,1.367 z m -165.17,3.391 -58.23,1.679 v 194.5 l 58.92,7.84 c 0.32,0.051 33.07,4.762 88.13,9.762 15.25,1.379 32.74,2.828 52.14,4.23 V 671.18 c -19.57,0.308 -37.19,0.629 -52.56,0.929 -55.2,1.09 -88.04,2.102 -88.4,2.11 z m -688.26,19.84 v 92.421 c 26.61,2.848 37.7,5.059 37.97,5.122 l 4.23,0.57 V 692.82 l -4.65,0.141 c -0.62,0.027 -11.51,0.5 -37.55,1.098 z m -83.56,1.461 c -4.01,0.058 -8.13,0.109 -12.17,0.16 v 83.371 c 4.14,0.238 8.34,0.449 12.46,0.711 15.83,1 30.4,2.039 43.61,3.078 7.37,0.582 14.1,1.16 20.3,1.719 v -90.09 c -6.3,0.133 -13.14,0.261 -20.66,0.39 -13.2,0.219 -27.74,0.45 -43.54,0.661 z m -411.37,74.429 c 49.64,0.731 94.84,1.391 133.88,1.981 v -74.711 c -38.14,0.121 -83.33,0.261 -133.88,0.429 z m -136.02,-1.969 c 42.41,0.61 83.19,1.2 121.5,1.758 v -72.047 c -38,0.118 -78.74,0.25 -121.5,0.387 z m -144.8,-2.07 c 44.46,0.629 88.12,1.262 130.28,1.871 v -69.66 c -41.86,0.129 -85.52,0.27 -130.28,0.41 z m -155.857,-2.211 c 47.307,0.68 94.697,1.34 141.337,2.012 v -67.129 c -46.29,0.137 -93.63,0.289 -141.337,0.438 z m -121.445,-1.711 c 36.09,0.512 72.656,1.032 109.344,1.551 v -64.488 c -36.406,0.121 -72.957,0.23 -109.344,0.347 z m -119.601,-1.679 c 35.003,0.492 70.957,1 107.5,1.519 v -62.387 c -36.168,0.098 -72.098,0.207 -107.5,0.329 z m -123.27,-1.707 c 35.43,0.488 72.652,1.007 111.164,1.546 v -60.347 c -37.867,0.109 -75.047,0.23 -111.164,0.347 z M 523.48,757.039 c 31.61,0.43 65.809,0.91 102.047,1.422 V 700.18 c -35.207,0.109 -69.363,0.211 -102.047,0.308 z m -9.683,-0.129 v -56.39 c -31.707,0.101 -62,0.191 -90.492,0.281 v 54.847 c 26.511,0.372 56.902,0.793 90.492,1.262 z m 0,20.942 v -6.422 c -33.582,-0.461 -63.977,-0.891 -90.492,-1.25 v 6.25 c 26.508,0.422 56.898,0.902 90.492,1.422 z m -106.063,203.847 38.895,1.551 V 813.121 c -13.887,-0.223 -26.836,-0.422 -38.895,-0.609 z m -97.859,-124.41 c 0.109,0 0.215,0 0.332,0 l 78.238,2.102 c 4.106,0.097 7.5,2.379 9.606,5.558 v -52.59 c -54.164,-0.847 -86.766,-1.359 -88.453,-1.39 -3.18,-0.047 -6.106,-0.981 -8.676,-2.449 v 52.941 c 2.223,-2.512 5.359,-4.172 8.953,-4.172 z m -0.004,308.311 c 0.25,0 0.496,0.01 0.746,0.02 l 33.539,2.06 V 882.41 l -34.601,-0.922 c -3.457,-0.09 -6.496,-1.656 -8.633,-4.047 V 1169.8 c 2.226,-2.52 5.363,-4.2 8.949,-4.2 z m 79.098,89.71 c 3.898,0.28 7.074,2.48 9.082,5.51 v -71.74 c -2.313,3.47 -6.192,5.78 -10.676,5.5 l -78.23,-4.79 c -3.293,-0.21 -6.176,-1.72 -8.223,-3.99 v 68.21 c 2.23,-2.53 5.371,-4.21 8.949,-4.21 0.277,0 0.567,0.01 0.852,0.03 z m 111.316,137.78 c -1.847,0.86 -3.847,1.42 -6.035,1.2 l -120.703,-10.13 c -6.664,-0.55 -11.609,-6.41 -11.051,-13.07 0.531,-6.32 5.817,-11.1 12.047,-11.1 0.344,0 0.684,0.01 1.027,0.05 l 22.481,1.89 v -87.92 c -2.324,3.49 -6.242,5.79 -10.778,5.45 l -33.433,-2.34 v 173.97 c 0,0.67 -0.145,1.32 -0.395,1.9 33.172,3.1 84,7.85 146.84,13.75 z m 64.504,-101.12 -54.82,-3.86 v 179.53 c 17.445,1.64 35.746,3.36 54.82,5.15 z m -64.504,-202.84 c -1.726,0.81 -3.59,1.38 -5.621,1.35 l -38.351,-1.88 v 93.09 c 2.05,-3.83 6.019,-6.43 10.585,-6.43 0.254,0 0.504,0 0.754,0.02 l 32.633,2 z m 9.684,-202.259 v 290.999 l 55.426,3.41 V 888.359 Z m -9.684,400.559 -34.738,-2.45 c -4.016,-0.28 -7.254,-2.61 -9.234,-5.78 v 87.61 l 39.968,3.36 c 1.446,0.12 2.758,0.59 4.004,1.16 z M 446.629,1366 v -277.88 l -38.895,-1.92 v 276.54 z m -72.555,-361.43 c -6.679,-0.26 -11.883,-5.89 -11.609,-12.582 0.254,-6.508 5.625,-11.617 12.078,-11.617 0.168,0 0.332,0 0.5,0.008 l 23.008,0.93 v -103.27 c -2.172,3.27 -5.731,5.551 -9.922,5.551 -0.109,0 -0.223,0 -0.332,0 l -33.957,-0.91 v 285.59 l 35.023,2.15 c 3.95,0.24 7.16,2.45 9.188,5.52 v -90.22 l -24.094,-1.19 c -6.676,-0.33 -11.816,-6 -11.492,-12.68 0.32,-6.48 5.672,-11.52 12.078,-11.52 0.207,0 0.406,0.01 0.609,0.01 l 120.711,5.96 c 1.586,0.08 3.067,0.5 4.422,1.12 v -59.19 c -1.543,0.72 -3.211,1.19 -5.008,1.19 -0.168,0 -0.332,0 -0.496,-0.01 z m 1329.706,370.81 c -15.88,-1.48 -43.05,-3.74 -81.16,-6.73 v 203.91 c 0,0.77 -0.25,1.46 -0.44,2.17 37.7,3.93 65.03,6.93 81.6,8.96 z m 197.87,50.06 c -4.74,-2.17 -9.74,-4.35 -15.23,-6.55 -7.37,-2.94 -14.92,-5.78 -22.41,-8.43 -3.21,-1.14 -5.6,-3.5 -6.92,-6.36 v 108.69 c 8.16,3.19 16.34,6.45 24.29,9.98 6.12,2.7 8.88,9.86 6.17,15.96 -2.7,6.12 -9.85,8.88 -15.96,6.17 -9.33,-4.13 -18.91,-8.06 -28.48,-11.69 -36.06,-13.69 -73.44,-23.7 -111.12,-29.75 -3.29,-0.53 -5.65,-1.03 -7.89,-1.51 -1.17,-0.25 -2.24,-0.48 -3.37,-0.69 v 83.58 c 0,0.42 -0.18,0.77 -0.24,1.17 44.06,6.62 87.68,18.9 129.75,36.71 14.89,6.31 29.72,13.37 44.06,20.97 2.53,1.34 4.94,2.67 7.35,4 z m 127.48,225.53 c -3.66,1.07 -7.72,0.6 -10.91,-1.96 l -57.66,-46.4 c -2.3,-1.86 -3.55,-3.06 -4.02,-5.84 -0.95,-1.72 -5.77,-9.22 -22.53,-19.39 -5.71,-3.47 -7.53,-10.92 -4.06,-16.64 2.28,-3.75 6.27,-5.82 10.36,-5.82 2.14,0 4.31,0.57 6.28,1.76 13.5,8.21 21.5,15.61 26.31,21.45 v -360.21 l -9.92,-4.7 c -1.98,-0.92 -3.66,-2.37 -4.87,-4.17 -0.93,-0.86 -6.02,-5.06 -21.88,-10.72 -6.3,-2.25 -9.58,-9.18 -7.34,-15.47 1.78,-4.96 6.44,-8.04 11.41,-8.04 1.35,0 2.73,0.22 4.06,0.7 17.86,6.38 26.92,12.28 31.42,16.98 l 53.35,25.22 v -86.06 c -2.46,0.72 -5.1,0.87 -7.67,-0.12 l -57.65,-22.16 c -1.89,-0.73 -3.56,-1.92 -4.86,-3.43 -1.08,-0.8 -6.25,-4.16 -22.02,-8.73 -6.42,-1.87 -10.12,-8.59 -8.26,-15 1.54,-5.3 6.38,-8.74 11.63,-8.74 1.11,0 2.25,0.15 3.37,0.48 14.13,4.1 23.82,8.29 29.66,12.67 V 854.32 l -7.88,-1.179 c -0.44,-0.071 -0.91,-0.161 -1.34,-0.262 -0.2,-0.051 -21.3,-4.707 -74.81,-9.481 -10.54,-0.937 -21.35,-1.796 -32.21,-2.617 v 76.199 c 1.89,-4.371 6.09,-7.371 10.95,-7.371 0.54,0 1.09,0.039 1.64,0.121 8.08,1.09 15.76,2.211 23.04,3.309 28.73,4.371 47.22,8.731 61.54,12.41 6.47,1.672 10.36,8.27 8.69,14.75 -1.67,6.481 -8.27,10.36 -14.74,8.699 -7.51,-1.937 -16.3,-4.058 -27.19,-6.289 v 359.211 c 0,0.63 -0.24,1.17 -0.35,1.76 15.33,6.66 27.02,13.08 36.71,18.8 5.76,3.4 7.68,10.82 4.28,16.58 -3.4,5.76 -10.83,7.68 -16.58,4.27 -13.49,-7.95 -30.95,-17.37 -58.16,-26.84 -7.39,-2.57 -14.94,-5.06 -22.45,-7.38 -3.5,-1.09 -6.02,-3.67 -7.38,-6.79 v 91.97 c 1.98,-4.45 6.28,-7.25 10.96,-7.25 1.35,0 2.72,0.22 4.05,0.7 7.8,2.76 15.63,5.71 23.28,8.76 29.28,11.68 48.09,23.29 62.63,33.11 5.54,3.74 7,11.27 3.25,16.81 -3.74,5.54 -11.27,7.01 -16.8,3.25 -6.62,-4.47 -14.22,-9.34 -23.44,-14.43 v 220.18 c 0,1.14 -0.28,2.19 -0.65,3.2 39.13,23.79 59.27,43.48 60.08,44.29 l 48.68,44.28 z m 44.09,-113.56 -22.3,-15.05 v 236.6 c 0,2.29 -0.87,4.3 -2.07,6.05 l 24.37,22.17 z m 164.55,111.07 -35.69,-24.09 c -0.88,-0.6 -1.48,-1.43 -2.16,-2.19 v 138.86 c 0,0.94 -0.33,1.78 -0.53,2.65 l 32.32,26.01 c 5.21,4.19 6.04,11.82 1.84,17.02 -4.19,5.21 -11.8,6.02 -17.02,1.85 l -121.52,-97.8 v 87.75 c 0,2.43 -0.95,4.56 -2.29,6.37 l 145.05,131.91 z m 62.91,42.45 -38.7,-26.11 v 287.4 c 0,1.95 -0.57,3.73 -1.39,5.36 l 40.09,36.45 z m 249.77,168.59 -55.01,-37.13 c -5.53,-3.74 -7,-11.26 -3.26,-16.81 3.74,-5.53 11.26,-6.99 16.81,-3.26 l 117.21,79.13 c 0.32,0.24 32.44,23.6 86.41,48.44 20.89,9.61 42.38,18.23 64.09,25.71 v -148.54 c -24.93,-7.22 -49.69,-15.67 -73.66,-25.31 -56.35,-22.63 -89.17,-43.53 -90.15,-44.17 l -116.81,-68.85 c -5.77,-3.39 -7.69,-10.81 -4.29,-16.57 2.26,-3.83 6.29,-5.96 10.44,-5.96 2.09,0 4.21,0.54 6.13,1.68 l 38.72,22.82 v -567.21 l -47.88,-12.34 c -6.47,-1.66 -10.37,-8.27 -8.71,-14.73 1.67,-6.49 8.32,-10.36 14.75,-8.71 l 117.07,30.15 c 0.32,0.1 32.77,9.11 87.33,18.69 21.79,3.83 44.29,7.25 67.06,10.21 V 968.551 c -27.03,-2.012 -50.94,-4.199 -71,-6.262 -55.83,-5.738 -88.25,-11.008 -89.37,-11.187 L 2482,930.879 v 351.731 l 54.19,20.83 c 6.24,2.4 9.36,9.4 6.97,15.64 -2.4,6.24 -9.4,9.35 -15.65,6.96 l -193.94,-74.54 c -6.24,-2.4 -9.36,-9.4 -6.96,-15.65 1.85,-4.81 6.44,-7.76 11.3,-7.76 1.44,0 2.91,0.26 4.34,0.81 l 34.64,13.31 V 915.059 L 2199.92,888.43 v 107.511 c 2.27,-2.55 5.45,-4.171 8.93,-4.171 1,0 2.02,0.128 3.03,0.378 l 152.86,39.382 c 6.47,1.67 10.37,8.27 8.7,14.74 -1.67,6.49 -8.31,10.36 -14.74,8.7 l -33,-8.49 v 493.75 l 42.16,24.86 c 5.77,3.39 7.68,10.8 4.29,16.57 -3.39,5.75 -10.82,7.68 -16.57,4.28 l -152.87,-90.08 c -1.12,-0.67 -1.96,-1.58 -2.79,-2.51 v 112.97 c 2.35,-2.61 5.6,-4.07 8.95,-4.07 2.33,0 4.68,0.67 6.76,2.07 l 152.87,103.17 c 5.54,3.75 6.99,11.27 3.26,16.81 -3.75,5.54 -11.27,7 -16.82,3.27 l -30.06,-20.3 v 303.84 c 0,1.48 -0.36,2.86 -0.84,4.17 l 226.41,205.9 z m 112.52,72.65 c -31.94,-17.24 -49.99,-30.38 -50.7,-30.92 l -37.62,-25.39 v 357.41 c 0,2.84 -1.12,5.34 -2.76,7.4 l 52.22,47.5 c 0.21,0.2 14.15,13.67 38.86,32.23 z m -37.4,-215.21 c 0.2,0.13 13.59,8.62 37.4,20.4 v -605.1 c -29.53,-6.17 -46.17,-10.79 -46.95,-11.01 l -44.73,-11.52 v 575.24 z m 102.27,462.17 c 1.97,-1.25 4.2,-1.88 6.46,-1.88 1.77,0 3.55,0.39 5.21,1.18 27.66,13.2 62.72,27.59 102.51,38.96 v -628.83 c -43.27,-7.01 -81.26,-16.15 -110.99,-24.47 -5.23,-1.47 -8.84,-6.24 -8.84,-11.66 v -169.58 c 0,-0.46 0.22,-0.86 0.26,-1.31 0.05,-0.46 -0.06,-0.91 0.04,-1.37 0.09,-0.41 0.35,-0.74 0.47,-1.13 0.2,-0.58 0.42,-1.12 0.7,-1.66 0.42,-0.81 0.91,-1.53 1.49,-2.22 0.36,-0.43 0.69,-0.84 1.11,-1.22 0.73,-0.65 1.54,-1.15 2.4,-1.61 0.43,-0.23 0.8,-0.52 1.26,-0.7 1.37,-0.53 2.84,-0.89 4.37,-0.89 0.89,0 1.8,0.1 2.7,0.31 29.08,6.63 66.24,13.89 108.53,19.47 V 972.809 c -15.56,-0.77 -30.43,-1.637 -44.61,-2.559 v 170.23 c 0,3.47 -1.48,6.77 -4.07,9.06 -2.6,2.3 -6.06,3.38 -9.48,2.96 -27.84,-3.37 -55.38,-7.44 -81.91,-12.1 -6.41,-1.12 -12.48,-2.23 -18.27,-3.34 v 611.68 c 7.69,3.42 15.96,6.96 24.88,10.55 25.99,10.44 52.89,19.54 79.97,27.03 0.27,0.08 0.45,0.27 0.71,0.36 0.8,0.28 1.49,0.68 2.21,1.12 0.65,0.4 1.28,0.75 1.84,1.24 0.58,0.52 1.02,1.12 1.49,1.74 0.47,0.63 0.94,1.21 1.28,1.91 0.34,0.66 0.5,1.37 0.71,2.1 0.22,0.81 0.44,1.59 0.49,2.43 0.01,0.27 0.15,0.5 0.15,0.77 v 174.36 c 0,3.85 -1.83,7.49 -4.95,9.77 -3.12,2.27 -7.15,2.93 -10.81,1.76 -28.01,-8.87 -55.81,-19.65 -82.66,-31.99 -5.34,-2.46 -10.4,-4.89 -15.31,-7.29 v 386.32 c 0,2.08 -0.66,3.95 -1.59,5.67 7.94,5.4 16.49,11 25.75,16.66 3.5,2.14 7.13,4.3 10.85,6.48 v -170.37 c 0,-4.16 2.13,-8.02 5.65,-10.23 z m 427.21,219.6 v -165.02 c -58.26,19.06 -116.21,28.72 -172.5,28.72 -92.39,0 -176.88,-27.83 -236.15,-54.16 v 157.03 c 0,2.5 -0.94,4.7 -2.25,6.63 60.26,31.96 143.22,63.03 238.4,63.03 56.46,0 114.5,-11.41 173.03,-33.62 -0.2,-0.87 -0.53,-1.69 -0.53,-2.61 z m 63.79,-30.84 v -397.57 c -6.68,2.5 -13.49,4.97 -20.53,7.37 -26.53,9.07 -53.39,16.6 -79.88,22.4 -0.45,0.1 -0.87,-0.02 -1.32,0.02 -0.43,0.05 -0.82,0.26 -1.27,0.26 -0.38,0 -0.71,-0.19 -1.08,-0.22 -0.84,-0.08 -1.62,-0.24 -2.41,-0.49 -0.74,-0.22 -1.41,-0.47 -2.07,-0.82 -0.71,-0.37 -1.31,-0.8 -1.93,-1.3 -0.59,-0.48 -1.14,-0.97 -1.63,-1.56 -0.5,-0.58 -0.9,-1.21 -1.28,-1.89 -0.4,-0.71 -0.72,-1.42 -0.96,-2.2 -0.12,-0.37 -0.38,-0.65 -0.46,-1.04 -0.1,-0.45 0.03,-0.87 -0.02,-1.32 -0.05,-0.44 -0.26,-0.82 -0.26,-1.26 v -176.38 c 0,-5.81 4.12,-10.8 9.83,-11.89 25.68,-4.91 51.71,-11.28 77.36,-18.94 9.29,-2.77 18.16,-5.65 26.82,-8.56 v -625.34 c -7.07,1.02 -14.3,2.02 -21.79,3 -26.26,3.43 -52.87,6.27 -79.1,8.46 -3.36,0.29 -6.72,-0.85 -9.21,-3.16 -2.49,-2.28 -3.91,-5.52 -3.91,-8.91 V 973.43 c -15.95,0.699 -31.82,1.261 -47.64,1.691 v 421.869 c 36.01,-2.55 72.44,-6.74 109.02,-12.97 3.53,-0.6 7.12,0.38 9.84,2.68 2.74,2.3 4.3,5.68 4.3,9.25 v 172.58 c 0,0.41 -0.18,0.75 -0.22,1.14 -0.09,0.83 -0.25,1.61 -0.49,2.39 -0.23,0.74 -0.49,1.42 -0.85,2.1 -0.37,0.68 -0.79,1.29 -1.28,1.89 -0.49,0.61 -1,1.15 -1.6,1.65 -0.58,0.48 -1.19,0.88 -1.87,1.26 -0.71,0.4 -1.43,0.71 -2.23,0.96 -0.38,0.12 -0.68,0.38 -1.08,0.46 -37.9,7.94 -75.68,13.48 -113,16.69 0.05,0.47 0.28,0.88 0.28,1.36 v 633.94 c 35.06,-5.34 70.54,-14.28 106.18,-26.99 3.69,-1.33 7.81,-0.76 11.03,1.5 3.23,2.27 5.13,5.96 5.13,9.9 v 174.96 c 4.04,-1.73 8.09,-3.34 12.13,-5.18 9.87,-4.48 19.3,-9.15 28.46,-13.88 -0.65,-1.47 -1.01,-3.08 -1.01,-4.79 z m 105.94,-69.44 v -376.93 c -20.56,11.47 -48.27,25.52 -81.73,39.29 v 399.38 c 35.74,-20.26 64.34,-40.73 83.57,-55.71 -1.06,-1.8 -1.84,-3.78 -1.84,-6.03 z m 246.28,-207.62 v -322.71 l -31.06,19.41 c -5.66,3.54 -13.13,1.81 -16.68,-3.85 -0.32,-0.52 -0.38,-1.11 -0.61,-1.66 v 192.08 l 28.18,-21.01 c 2.18,-1.62 4.72,-2.39 7.23,-2.39 3.7,0 7.34,1.68 9.72,4.86 3.99,5.37 2.89,12.95 -2.48,16.94 l -199.44,148.62 c -5.38,4.01 -12.95,2.89 -16.93,-2.47 v 167.48 c 3.06,-2.68 4.9,-4.37 5.06,-4.5 l 220.05,-182.98 c -1.82,-2.12 -3.04,-4.8 -3.04,-7.82 z m 67.47,-56.12 v -308.76 l -43.26,27.03 v 328.08 l 46.32,-38.51 c -1.84,-2.13 -3.06,-4.82 -3.06,-7.84 z m 167.58,-136.83 v -104.76 l -127.47,94.98 c -4.99,3.72 -11.75,2.86 -15.9,-1.53 v 138.39 l 145.34,-120.85 c -1.14,-1.85 -1.97,-3.9 -1.97,-6.23 z m 48.09,-40 v -266.74 l -23.88,14.93 v 279.56 l 25.85,-21.51 c -1.14,-1.85 -1.97,-3.9 -1.97,-6.24 z m 448.59,-366.83 v -69.77 c -0.82,1.63 -1.91,3.15 -3.47,4.32 l -44.38,33.06 c -5.39,4.02 -12.96,2.89 -16.94,-2.47 -3.99,-5.36 -2.89,-12.94 2.47,-16.94 l 27.4,-20.42 v -296.86 l -15.31,6.7 c -6.03,2.65 -13.04,-0.06 -15.8,-6.02 v 107.49 l 9.53,-5.2 c 1.84,-1 3.83,-1.48 5.79,-1.48 4.29,0 8.44,2.28 10.64,6.31 3.2,5.87 1.04,13.22 -4.84,16.42 l -51.17,27.93 c -5.61,3.07 -12.49,1.11 -15.89,-4.19 v 83.68 c 0.94,-1.45 2.12,-2.74 3.69,-3.72 l 51.17,-31.98 c 1.99,-1.25 4.21,-1.85 6.4,-1.85 4.04,0 7.98,2.02 10.28,5.69 3.54,5.67 1.81,13.14 -3.85,16.68 l -23.47,14.67 v 196.01 l 68.07,-56.59 c -0.21,-0.46 -0.32,-0.95 -0.32,-1.47 z m 0,-387.58 c -1.22,2.46 -3.15,4.6 -5.85,5.78 l -19.38,8.49 v 91.68 c 1.04,-1.48 2.32,-2.81 4.01,-3.73 l 21.22,-11.59 z m -15.56,-16.4 c 1.58,-0.69 3.22,-1.01 4.84,-1.01 4.44,0 8.6,2.5 10.72,6.64 v -73.79 c -1.36,2.63 -3.63,4.82 -6.64,5.9 l -44.39,15.79 c -6,2.13 -12.45,-0.85 -15,-6.58 v 78.63 c 1.19,-2.64 3.23,-4.9 6.09,-6.15 z m -96.41,-250.281 v 63.512 c 1.64,-2.512 4.15,-4.442 7.29,-5.192 l 51.17,-12.211 c 0.94,-0.218 1.89,-0.328 2.82,-0.328 5.48,0 10.44,3.739 11.76,9.301 1.55,6.5 -2.46,13.027 -8.95,14.578 l -18.15,4.321 v 113.27 c 1.33,-2.82 3.72,-5.12 6.89,-6.25 l 24.22,-8.63 V 826.27 Z m 55.89,-67.277 48.92,-5.93 v -71.203 l -48.92,-0.93 z m -51.72,6.269 42.04,-5.09 v -79.429 l -42.04,-0.813 z m -49.96,6.071 40.28,-4.891 V 690.27 l -40.28,-0.782 z m -53.42,6.468 41.32,-5.011 V 689.27 l -41.32,-0.801 z m -59.88,7.27 47.78,-5.801 V 688.238 l -47.78,-0.906 z m -55.18,6.691 40.65,-4.929 V 687.039 l -40.65,-0.769 z m -75.63,9.168 58.68,-7.121 V 685.941 l -58.68,-1.121 z m -82.87,10.051 63.51,-7.699 V 684.449 l -63.51,-1.219 z m -87.54,10.621 65.76,-7.98 V 682.809 l -65.76,-1.258 z m -121.8,14.77 97.59,-11.84 V 681.09 l -97.59,-1.871 z m -24.2,2.941 V 678.75 l -102.91,-1.969 v 185.528 z m -102.91,47.156 102.91,-14.047 v -18.48 l -102.91,12.48 z m -147.71,20.293 c 14.04,-1.883 21.99,-3.109 22.34,-3.16 l 101.17,-13.82 v -20.43 l -97.71,11.848 c -0.24,0.031 -9.38,1.301 -25.8,3.203 z m -212.27,18.93 c 23.73,-1.223 47.53,-2.609 71.4,-4.441 48.25,-3.668 88.29,-7.981 116.67,-11.411 v -22.757 c -28.48,3.019 -67.75,6.707 -114.8,9.867 -24.5,1.66 -48.91,2.929 -73.27,4.019 z m 234.26,159.779 39.65,-9.45 c 6.52,-1.59 13.03,2.45 14.57,8.96 1.55,6.5 -2.45,13.03 -8.96,14.58 l -39.3,9.37 c -0.66,0.17 -5.09,1.36 -12.85,3.23 v 216.07 c 1.39,-1.97 3.2,-3.67 5.64,-4.53 l 60.16,-21.42 V 942.781 l -53.27,7.27 c -0.66,0.109 -66.28,10.359 -165.75,17.929 -22.66,1.731 -45.27,3.102 -67.82,4.282 v 161.088 c 21.59,-1.98 43.35,-4.39 64.89,-7.21 97.79,-12.74 162.06,-29.9 163.04,-30.15 z m -31.1,631.85 v -599.66 c -20.34,4.39 -48.52,9.92 -82.82,15.34 v 620.46 c 35.39,-13.13 63.7,-26.39 82.82,-36.14 z m 173.72,-269.16 -59.51,26.04 v 551.76 l 59.51,-44.34 z m 255.91,-112 -31.79,13.91 v 464.54 l 31.79,-23.68 z m 51.7,274.53 -15.76,9.84 c -3.7,2.31 -8.09,2.18 -11.73,0.37 v 151.99 l 15.19,-11.33 c 2.18,-1.62 4.72,-2.4 7.23,-2.4 1.75,0 3.47,0.41 5.07,1.14 z M 3786.25,892.039 V 993.34 l 106.16,-25.32 c 0.94,-0.231 1.89,-0.329 2.82,-0.329 5.48,0 10.44,3.739 11.76,9.289 1.55,6.508 -2.46,13.04 -8.97,14.579 l -20.71,4.953 v 151.678 l 41.1,-14.64 V 874 Z m 31.8,-40.988 63.51,-8.68 V 828.43 l -63.51,7.691 z m -87.54,11.949 65.76,-8.969 V 838.77 l -65.76,7.98 z m -24.21,3.309 V 849.68 l -97.59,11.84 v 18.121 z m -183.59,194.921 c 1.47,-3.33 4.25,-6.05 8.07,-6.96 l 156.72,-37.37 c 0.95,-0.24 1.9,-0.35 2.83,-0.35 1.29,0 2.54,0.25 3.75,0.64 V 904.629 l -171.37,23.41 z m 0,213.17 31.37,-11.17 c 1.33,-0.47 2.7,-0.7 4.05,-0.7 4.98,0 9.64,3.09 11.4,8.05 0.36,0.97 0.34,1.96 0.42,2.94 v -203.7 l -33.55,7.99 c -5.8,1.41 -11.4,-1.76 -13.69,-7.05 z m 115.82,-220.94 -44.37,10.58 v 516.78 l 44.37,-24.21 z m 59.89,317.72 -22.17,9.71 c -4.78,2.09 -10.1,0.78 -13.51,-2.78 v 165.28 l 21.77,-11.88 c 1.85,-1.01 3.83,-1.48 5.8,-1.48 2.98,0 5.86,1.17 8.11,3.2 z m 63.37,-54.16 c 0.01,0 0.01,0 0.02,-0.01 l 34.38,-15.05 c 1.59,-0.69 3.23,-1.02 4.86,-1.02 1.77,0 3.46,0.51 5.06,1.24 v -103.2 c -0.36,0.16 -0.62,0.47 -1,0.59 l -93.75,33.37 c -0.46,0.23 -0.95,0.35 -1.44,0.51 l -34.47,12.27 c -4.61,1.64 -9.52,0.27 -12.71,-3.03 v 118.69 c 1.05,-1.09 2.32,-2.02 3.81,-2.67 z m 24.46,-136.43 10.74,-3.82 c 1.34,-0.48 2.71,-0.7 4.06,-0.7 1.79,0 3.46,0.51 5.06,1.25 v -163.83 l -19.36,4.62 c -0.17,0.04 -0.33,-0.02 -0.5,0.02 z m -123.51,45.46 c 1.26,-1.33 2.75,-2.47 4.6,-3.14 l 26.74,-9.51 V 1040 c -0.35,0.11 -0.6,0.35 -0.96,0.44 l -30.38,7.25 z m 55.54,-324.722 v 303.462 l 43.76,-15.58 V 895.352 Z m 134.82,100.952 -22.78,5.44 v 444.23 l 22.78,-12.44 z m -74.48,477.88 27.49,-15 V 1324 c -0.08,0.04 -0.13,0.11 -0.21,0.14 l -27.28,11.95 z m -255.91,142.69 c 1.03,-2.35 2.64,-4.48 5.09,-5.81 l 42.15,-23.01 v -173.28 c -0.48,4.12 -2.89,7.92 -6.97,9.71 l -40.27,17.62 z m -173.72,-123.09 c 1.23,-1.74 2.75,-3.28 4.84,-4.2 l 68.33,-29.9 c 0.01,0 0.02,-0.01 0.03,-0.01 l 131.08,-57.37 c 1.59,-0.7 3.24,-1.02 4.86,-1.02 4.66,0 9.1,2.71 11.09,7.25 0.49,1.11 0.6,2.26 0.73,3.41 v -141.57 c -0.62,4.29 -3.39,8.13 -7.76,9.69 l -199.44,70.98 c -5.21,1.85 -10.7,-0.22 -13.76,-4.51 z m 90,-560.291 v 364.721 l 59.51,-21.18 V 931.34 Z m 520.61,-120.508 -58.68,7.121 v 13.648 l 58.68,-8.019 z m 57.6,-6.992 -40.65,4.941 v 12.5 l 40.65,-5.558 z m 62.31,3.371 v -10.918 l -47.78,5.797 v 11.652 z m 53.42,-17.399 -41.32,5.008 v 10.731 l 41.32,-5.641 z m 52.38,2.95 v -9.313 l -40.28,4.891 v 9.922 z m 51.72,-7.063 v -8.519 l -42.04,5.101 v 9.16 z M 3888.8,1540.97 c 1.99,-1.25 4.21,-1.85 6.41,-1.85 4.03,0 7.98,2.02 10.27,5.7 3.55,5.66 1.83,13.13 -3.85,16.68 l -23.23,14.52 v 133.03 l 40.01,-29.82 V 1274.9 l -33.1,14.5 c -2.64,1.16 -5.42,1.12 -8,0.42 v 136.49 l 12.11,-6.62 c 1.84,-1 3.83,-1.48 5.79,-1.48 4.29,0 8.44,2.29 10.63,6.31 3.21,5.87 1.05,13.23 -4.83,16.43 l -111.27,60.72 c -3.61,1.97 -7.7,1.71 -11.12,0 v 108.17 z m -226.06,329.32 c 0.49,-0.53 0.83,-1.15 1.42,-1.6 l 34.26,-25.52 v -155.19 c -0.58,0.53 -1,1.16 -1.69,1.59 l -33.99,21.25 z m 21.16,-201.24 c 1.99,-1.25 4.21,-1.85 6.41,-1.85 2.95,0 5.86,1.11 8.11,3.14 v -119.51 c -0.73,0.68 -1.39,1.43 -2.31,1.94 l -156.72,85.52 c -5.87,3.21 -13.22,1.04 -16.43,-4.83 -0.14,-0.26 -0.13,-0.56 -0.25,-0.83 v 139.87 c 0.94,-2.16 2.31,-4.16 4.47,-5.5 z M 3127.95,1973 c 20.8,-5.05 41.77,-11.12 62.53,-18.21 96.88,-33.11 160.6,-77.65 161.23,-78.09 0.19,-0.13 0.37,-0.26 0.56,-0.38 l 39.65,-24.77 c 2,-1.25 4.21,-1.85 6.4,-1.85 4.04,0 7.98,2.02 10.28,5.69 3.54,5.67 1.82,13.14 -3.85,16.68 l -39.37,24.61 c -1.45,1.02 -7.14,4.92 -16.39,10.64 v 197.14 c 0.71,-0.99 1.43,-1.98 2.46,-2.75 l 63.34,-47.19 v -559.21 l -51.25,22.43 c -5.35,2.35 -11.3,0.34 -14.55,-4.25 v 201.3 c 2.11,-1.22 3.27,-1.93 3.35,-1.99 0.17,-0.1 0.36,-0.21 0.55,-0.31 l 39.64,-21.64 c 1.85,-1 3.83,-1.48 5.79,-1.48 4.29,0 8.44,2.29 10.64,6.31 3.2,5.87 1.04,13.22 -4.83,16.43 l -39.37,21.49 c -4.67,2.84 -52.6,31.56 -128.43,58.15 -1.69,1.1 -3.57,1.85 -5.7,1.99 -10.45,3.58 -21.35,7.11 -32.78,10.52 -23.16,6.92 -46.63,12.81 -69.9,17.57 z m -145.4,-573.13 c 16.3,0 32.78,-0.49 49.34,-1.29 V 975.762 c -16.55,0.32 -33.02,0.5 -49.34,0.5 -39.99,0 -77.8,-0.922 -112.82,-2.352 v 419.52 c 35.19,3.88 73.25,6.44 112.82,6.44 z m 0,176.26 c 56.16,0 114.15,-5.95 172.5,-17.56 v -148.36 c -58.29,9.21 -116.25,13.87 -172.5,13.87 -92.63,0 -177.3,-13.55 -236.15,-26.16 v 145.28 c 57.66,15.57 142.87,32.93 236.15,32.93 z m 0,662.1 c 16.56,0 33.3,-0.98 50.16,-2.74 V 1598.8 c -16.85,1 -33.59,1.54 -50.16,1.54 -40.83,0 -80.08,-3.26 -116.32,-8.2 v 631.62 c 36.13,8.68 75.43,14.47 116.32,14.47 z M 2784.56,932.711 c 54.99,4 122.65,7.23 197.99,7.23 37.71,0 76.12,-0.902 114.87,-2.562 V 912.52 c -38.73,1.449 -77.14,2.25 -114.87,2.25 -75.22,0 -142.84,-2.821 -197.99,-6.34 z m -223.4,-26.629 60.82,9.148 c 0.32,0.051 32.8,5.329 87.42,10.93 14.93,1.539 32.03,3.141 50.95,4.692 v -24.051 c -19.92,-1.43 -37.85,-2.922 -53.46,-4.34 -55.47,-5.031 -88.57,-9.789 -88.81,-9.832 l -56.92,-7.578 z m -161.5,-42.523 v 18.211 l 137.29,20.66 v -20.602 z m 0,-14.649 137.29,18.27 V 676.59 l -137.29,3.961 z m -122.27,-16.269 98.06,13.05 V 681.25 l -98.06,2.82 z m -107.04,-14.25 85.25,11.347 V 684.699 l -85.25,2.449 z m -94.79,-12.621 73.01,9.718 V 687.789 l -73.01,2.09 z m -19.37,-2.571 V 690.441 l -63.49,1.829 v 102.48 z m 119.53,510.561 -29.18,-13.79 v 421.21 l 29.18,23.48 z m 60.19,11.25 c -0.17,1.14 -0.32,2.31 -0.85,3.41 -2.85,6.05 -10.06,8.65 -16.11,5.78 l -19.03,-9 v 152.18 c 2.33,-2.59 5.58,-4.06 8.95,-4.06 2.09,0 4.2,0.54 6.13,1.68 l 20.91,12.32 z m -35.99,-150.82 28.54,10.98 c 4.21,1.61 6.82,5.37 7.45,9.54 v -171.36 l -30.07,-7.75 c -2.45,-0.63 -4.36,-2.11 -5.92,-3.89 z m -53.38,-293.799 v 273.279 l 29.18,11.22 V 884.781 Z m -49.61,257.719 c 1.4,-0.56 2.87,-0.95 4.41,-0.95 1.44,0 2.91,0.26 4.34,0.81 l 16.65,6.4 V 991.699 c -2.23,0.813 -4.63,1.199 -7.09,0.571 l -18.31,-4.719 z m 25.4,150.42 -25.4,-12 v 128.89 l 25.4,14.97 z m 68,5.36 c 1.94,0.43 3.7,1.21 5.17,2.45 l 33.8,15.97 c 3.86,1.83 6.09,5.48 6.61,9.43 v -123.82 c -0.12,0.97 -0.12,1.94 -0.49,2.89 -2.4,6.24 -9.4,9.34 -15.64,6.96 L 2097,1160.57 c -0.03,-0.01 -0.05,-0.03 -0.07,-0.04 v 93.53 c 1.41,-0.55 2.88,-0.94 4.42,-0.94 1.73,0 3.49,0.37 5.16,1.16 z m -139.41,84.42 24.22,14.27 V 981.949 l -24.22,-6.238 z m 97.65,-534.341 v -13.84 l -73.01,-9.719 v 12.57 z m 107.03,0.41 -85.25,-11.348 v 14.219 l 85.25,12.828 z m 119.85,33.742 v -17.793 l -98.06,-13.047 v 16.078 z m 82.34,395.179 V 927.238 l -56.69,-8.539 v 332.821 z m -197.67,-243.72 v 472.01 l 41.37,24.38 v -485.73 z m -165.11,660.53 c 1.93,-1.19 4.1,-1.87 6.33,-1.87 2.67,0 5.35,0.87 7.58,2.67 l 13.41,10.79 v -137.32 c -3.52,1.28 -7.51,1.12 -10.84,-1.14 l -16.48,-11.12 z m -102.74,-93.06 36.86,29.66 v -119.05 l -22.42,-15.14 c -5.54,-3.74 -7,-11.27 -3.26,-16.81 2.34,-3.46 6.16,-5.33 10.05,-5.33 2.33,0 4.68,0.67 6.76,2.07 l 102.07,68.89 v -98.08 c -3.28,1.19 -6.98,1.12 -10.22,-0.79 l -104.77,-61.75 c -5.75,-3.38 -7.68,-10.81 -4.28,-16.56 2.25,-3.84 6.29,-5.97 10.44,-5.97 2.09,0 4.2,0.54 6.13,1.68 l 9.5,5.61 v -124.43 c -2.73,0.79 -5.72,0.74 -8.5,-0.58 l -28.36,-13.4 z m 0.35,-502.54 36.51,14.04 V 970.09 l -18.66,-4.801 c -6.48,-1.668 -10.37,-8.269 -8.71,-14.738 1.41,-5.473 6.33,-9.09 11.71,-9.09 1.01,0 2.03,0.109 3.04,0.379 l 104.77,26.98 c 0.39,0.102 0.68,0.371 1.05,0.508 V 876.75 L 1992.7,857.238 v 236.872 c 0,0.14 -0.07,0.26 -0.08,0.4 z m 0.08,-273.998 63.49,9.558 v -12.242 l -63.49,-8.437 z m -61.57,-9.301 c 24.88,2.988 37.21,5.43 40.31,6.098 l 1.89,0.281 v -10.781 l -6.62,-0.887 c -0.15,-0.031 -10.68,-2.113 -35.58,-4.82 z m -95.73,-8.34 c 4.42,0.301 8.9,0.551 13.28,0.859 14.79,1.059 29.53,2.231 43.83,3.5 6.94,0.61 13.32,1.239 19.26,1.84 v -9.922 c -6.51,-0.597 -13.6,-1.207 -21.44,-1.828 -13.14,-1.031 -27.64,-2.058 -43.38,-3.058 -3.82,-0.242 -7.71,-0.434 -11.55,-0.66 z m 2.32,247.269 V 839.422 c -12.98,-0.883 -26.1,-1.66 -39.33,-2.371 v 207.099 c 13.24,1.77 26.34,3.78 39.33,5.99 z m 0,455.53 v -334.89 c -12.97,-2.77 -26.09,-5.26 -39.33,-7.49 v 329.97 c 13.24,3.65 26.34,7.85 39.33,12.41 z m -116.99,-376.74 c 2.94,0.25 5.13,0.53 7.42,0.81 1.96,0.25 4.01,0.52 6.9,0.78 38.95,3.68 77.64,9.77 114.99,18.09 9.9,2.2 19.83,4.6 29.49,7.1 6.47,1.68 10.35,8.3 8.68,14.77 -1.69,6.48 -8.31,10.31 -14.77,8.67 -5.36,-1.39 -10.88,-2.63 -16.35,-3.94 v 117.46 c 1.94,-4.46 6.23,-7.34 10.96,-7.34 1.19,0 2.4,0.18 3.59,0.55 7.78,2.41 15.59,4.99 23.24,7.65 2.36,0.82 4.55,1.64 6.77,2.46 V 939.012 c -3.97,-0.684 -8.1,-1.352 -12.56,-2.043 -7.17,-1.078 -14.72,-2.168 -22.66,-3.25 -4.39,-0.59 -7.73,-3.571 -9.34,-7.367 V 1053.6 c 7.35,1.38 14.72,2.78 21.9,4.29 6.54,1.38 10.72,7.81 9.34,14.35 -1.38,6.54 -7.82,10.72 -14.35,9.33 -9.4,-1.98 -19.07,-3.88 -28.74,-5.63 -36.43,-6.6 -74.19,-11.44 -112.25,-14.36 -3.17,-0.24 -5.43,-0.46 -7.59,-0.69 -1.5,-0.16 -2.97,-0.29 -4.67,-0.44 z m -16.95,125.1 V 920.172 c -16.01,-0.57 -42.89,-1.422 -81.16,-2.57 v 330.578 c 37.45,2.56 64.62,4.52 81.16,5.85 z m 16.95,-465.069 v 8.711 c 32.98,0.84 65.71,2.199 97.72,4.109 v -9.152 c -31.99,-1.699 -64.71,-2.918 -97.72,-3.668 z m 0,-14.531 c 32.99,0.75 65.72,1.961 97.72,3.648 v -82.199 c -31.71,0.371 -64.44,0.641 -97.72,0.793 z m -133.71,-2.239 c 54.02,0.809 94.75,1.457 116.76,1.86 v -77.289 c -21.97,0.078 -62.7,0.218 -116.76,0.398 z m 116.76,16.399 c -21.89,-0.399 -62.62,-1.059 -116.76,-1.879 v 8.418 c 53.94,0.93 94.66,1.66 116.76,2.121 z m -180.05,238.76 V 830.379 c -20.94,-0.348 -43.22,-0.719 -66.54,-1.109 v 195.24 c 23.26,0.99 45.54,1.94 66.54,2.84 z M 1436.2,792.602 c 49.64,0.82 94.83,1.578 133.88,2.25 v -8.391 c -39.03,-0.59 -84.23,-1.25 -133.88,-1.992 z m -136.02,-2.223 c 42.41,0.691 83.19,1.351 121.5,1.992 v -8.101 c -38.31,-0.571 -79.08,-1.149 -121.5,-1.758 z m -144.8,-2.34 c 44.46,0.711 88.12,1.422 130.28,2.102 v -7.84 c -42.16,-0.61 -85.82,-1.219 -130.28,-1.86 z m 56.81,226.271 V 825.281 c -18.76,-0.312 -37.7,-0.609 -56.81,-0.922 v 187.611 c 19.1,0.79 38.04,1.57 56.81,2.34 z M 999.523,785.539 c 47.307,0.762 94.697,1.512 141.337,2.262 v -7.563 c -46.64,-0.668 -94.02,-1.34 -141.337,-2.008 z m -121.445,-1.93 c 36.09,0.571 72.656,1.161 109.344,1.743 v -7.293 c -36.688,-0.52 -73.254,-1.028 -109.344,-1.528 z m 52.281,219.181 V 820.762 c -16.695,-0.262 -33.32,-0.532 -49.847,-0.793 V 1000.75 Z M 758.477,781.711 c 35.003,0.559 70.957,1.117 107.5,1.711 v -7.07 c -36.539,-0.512 -72.497,-1.024 -107.5,-1.5 z m -123.27,-1.941 c 35.43,0.55 72.652,1.14 111.164,1.75 v -6.84 c -38.508,-0.551 -75.734,-1.059 -111.164,-1.559 z m 46.934,212.96 V 816.828 c -15.528,-0.25 -30.766,-0.488 -45.692,-0.719 V 990.891 Z M 625.527,779.609 v -6.621 C 589.289,772.48 555.098,772 523.48,771.559 V 778 c 31.61,0.5 65.805,1.039 102.047,1.609 z m 3670.103,-1.398 -48.92,5.93 v 8.359 l 48.92,-6.68 z m 73.56,-2.441 v -6.481 l -66.31,8.043 v 7.508 z m -26.49,398.1 c 1.03,-1.48 2.31,-2.8 4,-3.72 l 4.71,-2.58 c 1.85,-1.01 3.84,-1.48 5.79,-1.48 4.29,0 8.44,2.28 10.64,6.3 0.76,1.39 1.17,2.88 1.35,4.36 v -106.51 c -0.22,4.43 -2.77,8.6 -7.13,10.5 l -19.36,8.48 z m 7.28,183.78 c 2.17,-1.62 4.71,-2.39 7.22,-2.39 3.7,0 7.34,1.68 9.72,4.86 1.98,2.67 2.69,5.87 2.27,8.92 v -191.27 c 0.15,4.43 -2.02,8.78 -6.17,11.05 l -4.72,2.57 c -5.47,3.01 -12.13,1.17 -15.6,-3.85 v 70.81 c 0.89,-1.24 2.01,-2.35 3.38,-3.21 l 4.71,-2.94 c 2,-1.25 4.22,-1.85 6.41,-1.85 4.03,0 7.98,2.02 10.27,5.69 3.55,5.67 1.83,13.14 -3.83,16.69 l -4.71,2.94 c -5.48,3.42 -12.55,1.84 -16.23,-3.36 v 90.77 z m -5.82,-495.4 c 1.53,-1.512 3.3,-2.77 5.54,-3.289 l 4.71,-1.133 c 0.94,-0.219 1.88,-0.328 2.82,-0.328 5.47,0 10.43,3.738 11.76,9.301 1.55,6.5 -2.46,13.039 -8.97,14.578 l -4.71,1.121 c -4.21,1.031 -8.28,-0.469 -11.15,-3.289 v 102.801 l 9,-3.203 c 1.34,-0.481 2.71,-0.7 4.05,-0.7 4.98,0 9.65,3.09 11.41,8.039 0.47,1.321 0.56,2.661 0.57,3.981 V 812.43 l -25.03,3.422 z m -53.98,35.789 c -4.93,1.191 -9.84,-0.84 -12.62,-4.719 v 112.39 l 10.46,-3.72 c 1.34,-0.47 2.72,-0.7 4.06,-0.7 4.51,0 8.63,2.62 10.71,6.77 V 895.031 Z m 3.6,418.351 c -5.47,3.42 -12.55,1.84 -16.22,-3.38 v 98.61 l 7.29,-5.43 c 2.17,-1.62 4.7,-2.4 7.22,-2.4 3.69,0 7.35,1.68 9.72,4.87 0.48,0.65 0.65,1.41 1,2.11 v -100.01 z m -301.45,188.42 -22.17,13.86 c -5.66,3.54 -13.14,1.81 -16.68,-3.85 -3.55,-5.67 -1.83,-13.14 3.85,-16.68 l 81.4,-50.89 c 2.01,-1.24 4.22,-1.84 6.41,-1.84 4.03,0 7.98,2.02 10.27,5.7 3.55,5.66 1.83,13.13 -3.84,16.67 l -37.46,23.41 v 241.61 l 109.39,-90.95 c -0.43,-1.01 -0.67,-2.13 -0.67,-3.3 v -215.31 l -18.33,11.46 c -5.67,3.54 -13.14,1.83 -16.68,-3.85 -3.55,-5.66 -1.83,-13.13 3.84,-16.68 l 63.78,-39.86 c 1.99,-1.25 4.21,-1.84 6.4,-1.84 4.03,0 7.98,2.01 10.27,5.69 3.55,5.67 1.83,13.14 -3.85,16.68 l -28.49,17.81 v 215.68 l 83.68,-69.58 c -0.32,-0.75 -0.52,-1.56 -0.52,-2.42 v -195.66 l -15.59,9.76 c -5.58,3.49 -12.91,1.82 -16.52,-3.67 v 109.49 l 10.41,-7.76 c 2.18,-1.62 4.71,-2.39 7.23,-2.39 3.69,0 7.34,1.68 9.71,4.86 4,5.37 2.89,12.95 -2.46,16.94 l -53.94,40.19 c -5.39,4.01 -12.97,2.89 -16.94,-2.47 -4,-5.36 -2.89,-12.94 2.47,-16.94 l 29,-21.61 v -325.03 l -16.91,7.41 c -6.13,2.68 -13.26,-0.12 -15.95,-6.24 -2.68,-6.12 0.12,-13.26 6.24,-15.94 l 53.94,-23.61 c 1.58,-0.69 3.22,-1.01 4.84,-1.01 4.67,0 9.11,2.71 11.09,7.25 2.69,6.13 -0.1,13.27 -6.23,15.95 l -22.5,9.84 v 101.45 c 1.08,-1.7 2.42,-3.25 4.3,-4.28 l 29.54,-16.11 V 913.66 l -20.93,4.988 c -5.15,1.25 -10.21,-1.089 -12.91,-5.32 v 123.262 l 13.59,-4.83 c 1.34,-0.48 2.71,-0.71 4.06,-0.71 4.97,0 9.64,3.09 11.4,8.05 2.24,6.3 -1.05,13.22 -7.35,15.46 l -53.93,19.2 c -6.28,2.23 -13.22,-1.05 -15.46,-7.34 -2.25,-6.3 1.04,-13.22 7.34,-15.47 l 25.83,-9.19 V 838.781 l -93.93,12.821 v 223.588 l 19.7,-7.01 c 1.35,-0.48 2.72,-0.71 4.07,-0.71 4.98,0 9.63,3.09 11.4,8.05 2.25,6.3 -1.04,13.22 -7.34,15.46 l -70.97,25.26 c -6.28,2.25 -13.22,-1.04 -15.46,-7.34 -2.24,-6.3 1.05,-13.22 7.35,-15.46 L 4063,1082.08 V 854.25 l -120.38,16.449 v 254.231 l 28.8,-10.24 c 1.34,-0.48 2.71,-0.71 4.05,-0.71 4.98,0 9.65,3.09 11.41,8.05 2.24,6.3 -1.05,13.23 -7.35,15.46 l -42.37,15.08 c -1.74,1.18 -3.7,1.97 -5.93,2.11 l -46.72,16.63 c -2.43,0.87 -4.89,0.69 -7.2,0.05 v 95.11 l 48.48,-21.22 c 0.01,0 0.02,0 0.03,-0.01 l 44.81,-19.61 c 1.57,-0.7 3.22,-1.02 4.84,-1.02 4.66,0 9.1,2.71 11.1,7.26 2.67,6.12 -0.11,13.26 -6.24,15.93 l -37.71,16.51 v 396.89 l 25.63,-19.09 c 2.16,-1.63 4.7,-2.41 7.21,-2.41 3.7,0 7.35,1.69 9.72,4.87 3.99,5.37 2.89,12.95 -2.47,16.95 l -95.02,70.8 c -2.78,2.07 -6.13,2.73 -9.29,2.18 v 111.14 l 116.89,-97.19 c -1.8,-1.93 -2.96,-4.49 -2.96,-7.35 z M 1362.74,1349.13 c -21,-1.54 -42.46,-3.11 -64.45,-4.71 v 197.46 c 0,0.23 -0.11,0.43 -0.13,0.66 22.13,2.14 43.8,4.25 64.93,6.32 -0.14,-0.57 -0.35,-1.11 -0.35,-1.72 z m -350.2,-25.33 v 184.71 c 0,2.72 -1.57,5.01 -3.79,6.25 19.15,1.83 38.31,3.65 57.42,5.47 v -192.59 c -17.88,-1.28 -35.71,-2.56 -53.63,-3.84 z M 741.602,1488.11 V 1304.49 L 706.496,1302 c -6.664,-0.47 -11.687,-6.27 -11.219,-12.94 0.457,-6.37 5.77,-11.25 12.067,-11.25 0.285,0 0.574,0.02 0.867,0.03 l 145.852,10.36 c 6.667,0.48 11.691,6.27 11.218,12.93 -0.476,6.67 -6.312,11.63 -12.933,11.23 l -37.266,-2.65 v 186.64 c 0,0.01 -0.012,0.02 -0.012,0.03 60.387,5.71 122.91,11.64 185.59,17.61 -1.586,-1.33 -2.644,-3.26 -2.644,-5.48 v -185.75 c -11.977,-0.86 -23.965,-1.72 -35.914,-2.57 -6.672,-0.48 -11.688,-6.27 -11.215,-12.94 0.453,-6.38 5.765,-11.24 12.066,-11.24 0.285,0 0.578,0.01 0.871,0.02 53.156,3.8 106.706,7.64 159.436,11.44 6.67,0.48 11.68,6.28 11.21,12.94 -0.48,6.67 -6.31,11.56 -12.94,11.21 -13.54,-0.97 -27.22,-1.96 -40.84,-2.93 v 192.93 c 69.45,6.65 138.05,13.23 203.07,19.52 v -197.78 c -13.42,-0.99 -26.94,-1.97 -40.64,-2.96 -6.68,-0.49 -11.69,-6.28 -11.2,-12.95 0.46,-6.37 5.77,-11.23 12.06,-11.23 0.29,0 0.59,0.01 0.89,0.04 63.32,4.59 123.91,9.02 179.39,13.12 6.67,0.49 11.68,6.3 11.18,12.96 -0.49,6.67 -6.26,11.68 -12.96,11.18 -14.71,-1.09 -29.83,-2.19 -45.21,-3.33 v 196.95 c 0,1.09 -0.27,2.1 -0.7,3.03 77.4,7.56 146.86,14.45 202.72,20.14 9.27,0.95 18.08,1.85 26.47,2.72 0,-0.17 -0.09,-0.3 -0.09,-0.47 v -205.23 c -8.87,-0.69 -18.18,-1.41 -28.04,-2.16 l -15.42,-1.18 c -6.66,-0.51 -11.66,-6.32 -11.16,-12.99 0.48,-6.35 5.79,-11.19 12.06,-11.19 0.31,0 0.62,0.01 0.93,0.04 l 15.44,1.17 c 70.39,5.4 115.47,9.09 134,10.98 16.67,1.7 33.48,4.04 49.95,6.96 6.58,1.16 10.97,7.44 9.81,14.03 -1.17,6.57 -7.42,10.92 -14.04,9.8 -12.69,-2.24 -25.59,-4.03 -38.47,-5.53 v 99.48 c 3.5,0.49 6.04,1.02 8.45,1.53 1.89,0.41 3.87,0.84 6.65,1.28 14.47,2.33 28.87,5.4 43.2,8.83 v -328.1 c -15.34,-2.24 -30.76,-4.19 -46.25,-5.66 -3.2,-0.29 -5.49,-0.58 -7.66,-0.86 -1.42,-0.17 -2.81,-0.35 -4.39,-0.51 v 102.36 c 14.17,1.39 28.4,3.11 42.44,5.28 6.6,1.02 11.13,7.2 10.1,13.81 -1.01,6.61 -7.15,11.17 -13.81,10.11 -15.94,-2.46 -32.19,-4.44 -48.28,-5.86 -18.38,-1.64 -63.29,-4.85 -133.44,-9.54 l -15.41,-1.04 c -6.67,-0.44 -11.73,-6.2 -11.28,-12.87 0.42,-6.4 5.74,-11.31 12.06,-11.31 0.27,0 0.54,0.01 0.81,0.03 l 15.44,1.03 c 9.21,0.62 17.97,1.21 26.31,1.77 V 917.09 c -8.67,-0.25 -17.79,-0.52 -27.47,-0.809 l -15.43,-0.441 c -6.68,-0.192 -11.94,-5.762 -11.74,-12.449 0.19,-6.563 5.56,-11.75 12.09,-11.75 0.12,0 0.24,0 0.36,0 l 15.42,0.449 c 71.6,2.09 115.37,3.461 133.82,4.18 16.41,0.64 33.03,1.519 49.41,2.628 6.67,0.454 11.71,6.223 11.26,12.891 -0.44,6.672 -6.21,11.723 -12.89,11.27 -13.19,-0.899 -26.52,-1.528 -39.77,-2.118 v 115.219 c 2.82,0.21 4.92,0.42 7.14,0.65 1.98,0.2 4.06,0.41 6.97,0.63 14.8,1.15 29.53,2.65 44.19,4.35 V 836.059 c -22.19,-1.028 -44.63,-1.797 -67.19,-2.321 -19.55,-0.437 -67.16,-1.297 -133.6,-2.437 -11.9,-0.199 -24.47,-0.41 -37.56,-0.629 v 197.398 c 16.08,0.69 31.44,1.36 45.82,1.99 6.69,0.29 11.86,5.94 11.57,12.62 -0.29,6.68 -6.08,11.9 -12.62,11.56 -51.95,-2.27 -115.55,-4.97 -186.36,-7.94 -6.68,-0.27 -11.87,-5.92 -11.59,-12.6 0.27,-6.5 5.63,-11.6 12.08,-11.6 0.17,0 0.35,0 0.52,0.01 14.53,0.62 28.67,1.21 42.56,1.8 V 829.039 c -65.44,-1.09 -138.83,-2.277 -215.95,-3.527 v 189.398 c 13.99,0.58 27.85,1.15 41.58,1.72 6.68,0.28 11.87,5.91 11.6,12.59 -0.28,6.69 -5.96,11.95 -12.6,11.59 -54.85,-2.26 -111.98,-4.62 -169.82,-6.99 -6.69,-0.27 -11.88,-5.91 -11.6,-12.59 0.27,-6.51 5.63,-11.6 12.08,-11.6 0.17,0 0.34,0 0.51,0.01 14.18,0.58 28.32,1.16 42.4,1.74 V 824.121 c -64.62,-1.031 -130.69,-2.09 -195.973,-3.133 v 182.382 l 37.695,1.53 c 6.676,0.28 11.875,5.91 11.598,12.59 -0.266,6.68 -6.004,11.97 -12.59,11.6 l -150.535,-6.12 c -6.68,-0.26 -11.875,-5.9 -11.61,-12.58 0.266,-6.51 5.625,-11.609 12.086,-11.609 0.164,0 0.336,0 0.496,0.008 l 33.957,1.381 V 819.738 c -59.316,-0.937 -117.144,-1.859 -171.738,-2.726 v 176.199 l 31.578,1.277 c 6.684,0.274 11.875,5.902 11.606,12.582 -0.27,6.69 -6.012,12.13 -12.582,11.61 l -130.754,-5.28 c -6.684,-0.26 -11.875,-5.9 -11.606,-12.58 0.258,-6.511 5.625,-11.609 12.086,-11.609 0.164,0 0.328,0 0.496,0.008 l 29.274,1.179 V 815.91 c -63.258,-1 -120.34,-1.89 -168.031,-2.64 v 170.371 l 39.437,1.589 c 1.621,0.059 3.145,0.469 4.535,1.098 v -99.726 l -23.969,-0.641 c -6.679,-0.18 -11.957,-5.742 -11.773,-12.422 0.176,-6.578 5.559,-11.777 12.098,-11.777 0.105,0 0.218,0 0.324,0 l 130.605,3.527 c 6.68,0.172 11.957,5.742 11.774,12.422 -0.176,6.68 -5.586,11.949 -12.426,11.758 l -31.844,-0.848 v 293.259 l 32.918,2.02 c 6.676,0.41 11.746,6.15 11.336,12.83 -0.414,6.67 -6.191,11.74 -12.824,11.34 l -140.34,-8.63 c -4.418,-0.27 -7.969,-2.99 -9.851,-6.66 v 73.74 c 2.164,-3.4 5.824,-5.72 10.074,-5.72 0.281,0 0.57,0.01 0.863,0.03 l 140.848,9.92 c 6.672,0.48 11.695,6.26 11.222,12.93 -0.468,6.67 -6.261,11.73 -12.925,11.23 l -31.922,-2.25 v 181.04 c 51.312,4.82 107.793,10.13 167.394,15.76 -0.101,-0.44 -0.265,-0.87 -0.265,-1.35 z m 12.101,-182.76 v 182.76 c 0,0.86 -0.195,1.68 -0.519,2.42 16.394,1.55 33,3.11 49.793,4.71 V 1308.85 Z M 1712.2,672.512 c 46.42,-0.203 91.85,-0.602 135.04,-1.203 15.77,-0.2 30.29,-0.438 43.46,-0.649 55.13,-0.941 76.71,-1.879 77.1,-1.89 l 185.66,-5.348 c 1.74,-1.184 3.73,-2.043 6,-2.043 2.06,0 3.87,0.723 5.51,1.711 l 453.69,-13.059 c 0.33,-0.019 33.3,-1.043 88.65,-2.133 61.74,-1.207 159.61,-2.648 275.24,-2.648 40.7,0 82.24,0.199 124.14,0.559 0.94,-0.219 1.83,-0.559 2.83,-0.559 1.1,0 2.08,0.352 3.1,0.621 27.21,0.25 54.53,0.551 81.95,0.949 98.83,1.43 163.83,3.379 164.35,3.399 l 1129.33,21.64 c 6.67,0.121 11.99,5.653 11.87,12.332 -0.13,6.61 -5.53,11.879 -12.1,11.879 -0.09,0 -0.16,0 -0.24,0 l -82.28,-1.59 v 703.29 c 0.66,7.06 2.95,42.37 -12.27,77.56 -16.25,37.53 -40.33,60.18 -41.34,61.12 -0.24,0.23 -0.49,0.44 -0.73,0.66 l -980.42,817.98 c -6.46,6.05 -70.55,64.82 -168.76,109.92 -73.98,33.97 -147.81,51.19 -219.43,51.19 -119.79,0 -220.86,-46.93 -284.55,-86.31 -55.08,-34.05 -88.04,-65.68 -91.46,-69.02 l -648.31,-596.99 c -0.23,-0.21 -23.28,-21.64 -75.9,-49.83 -13.7,-7.34 -27.85,-14.14 -42.06,-20.22 -42.31,-18.09 -86.21,-30.33 -130.48,-36.38 -18.28,-2.5 -63.06,-7.43 -133.1,-14.65 -287.65,-29.62 -851.311,-86.29 -1119.827,-112.22 -87.867,-8.49 -124.98,-28.83 -159.398,-61.11 -32.32,-30.29 -33.043,-114.83 -32.856,-131.27 V 701.289 c -56.711,0.172 -90.113,0.27 -90.113,0.27 l -0.074,-24.2 c 0,0 1044.798,-3.211 1404.088,-4.379 66.49,-0.21 114.13,-0.378 133.69,-0.468"
         style="fill:#800080;fill-opacity:1;fill-rule:nonzero;stroke:none"
         id="path28"
         inkscape:connector-curvature="0" /><path
         d="m 4633.35,656.121 c -0.1,0 -0.21,0 -0.32,0 l -1211.1,-21.652 c -0.7,-0.008 -70.19,-1.949 -175.9,-3.387 -76.73,-1.043 -153.07,-1.582 -226.91,-1.582 -123.75,0 -228.47,1.449 -294.54,2.66 -59.16,1.078 -94.35,2.11 -94.74,2.121 l -694.88,18.739 c -0.34,0.011 -34.67,0.949 -94.17,1.89 -14.15,0.231 -29.75,0.449 -46.7,0.668 -46.38,0.582 -95.19,0.981 -145.06,1.192 -20.98,0.089 -72.08,0.25 -143.39,0.468 C 1120.39,658.41 0.109375,661.609 0.109375,661.609 L 0,625.301 c 0,0 1120.28,-3.199 1505.53,-4.371 71.28,-0.219 122.37,-0.391 143.35,-0.469 49.77,-0.199 98.47,-0.609 144.76,-1.199 16.91,-0.211 32.47,-0.442 46.58,-0.653 59.26,-0.949 93.41,-1.879 93.76,-1.89 l 694.83,-18.739 c 0.35,-0.019 35.73,-1.039 95.11,-2.128 66.22,-1.211 171.18,-2.653 295.2,-2.653 74.01,0 150.51,0.52 227.4,1.571 106,1.429 175.74,3.378 176.25,3.402 l 1210.9,21.637 c 10.03,0.171 18.01,8.441 17.84,18.472 -0.18,9.93 -8.27,17.84 -18.16,17.84"
         style="fill:#800080;fill-opacity:1;fill-rule:nonzero;stroke:none"
         id="path30"
         inkscape:connector-curvature="0" /><path
         d="m 1520.42,1142.16 c -19.55,-1.04 -40.2,-2.11 -61.7,-3.23 v 313.58 c 21.5,1.91 42.13,3.74 61.7,5.49 z m -76.22,-3.98 c -14.73,-0.77 -29.77,-1.55 -45.23,-2.34 -6.68,-0.34 -11.81,-6.03 -11.47,-12.71 0.34,-6.47 5.68,-11.49 12.08,-11.49 0.21,0 0.42,0.01 0.64,0.02 70.82,3.65 134.44,6.97 186.41,9.77 6.67,0.36 11.79,6.06 11.43,12.73 -0.35,6.67 -5.87,11.8 -12.73,11.44 -15.01,-0.8 -31.11,-1.66 -47.96,-2.55 v 316.47 c 17.5,1.58 34.18,3.09 49.71,4.51 6.66,0.61 11.56,6.49 10.95,13.15 -0.61,6.66 -6.51,11.55 -13.15,10.96 -51.95,-4.75 -115.55,-10.41 -186.35,-16.62 -6.66,-0.59 -11.58,-6.46 -11,-13.12 0.55,-6.3 5.84,-11.05 12.05,-11.05 0.35,0 0.71,0.02 1.07,0.04 14.88,1.31 29.35,2.59 43.55,3.84 v -313.05"
         style="fill:#800080;fill-opacity:1;fill-rule:nonzero;stroke:none"
         id="path32"
         inkscape:connector-curvature="0" /><path
         d="m 930.57,1112.14 -52.492,-2.63 v 292.92 c 17.422,1.48 34.875,2.97 52.492,4.47 z m -64.593,-3.23 -35.036,-1.75 c -6.679,-0.33 -11.828,-6.02 -11.496,-12.7 0.328,-6.46 5.676,-11.5 12.086,-11.5 0.203,0 0.407,0.01 0.61,0.02 l 150.55,7.53 c 6.676,0.32 11.821,6.01 11.481,12.7 -0.332,6.66 -6.067,11.88 -12.695,11.47 l -36.379,-1.82 v 295.27 c 12.679,1.08 25.293,2.16 38.019,3.24 6.66,0.57 11.598,6.43 11.028,13.09 -0.567,6.66 -6.418,11.69 -13.09,11.03 -50.778,-4.33 -101.313,-8.63 -150.539,-12.81 -6.661,-0.56 -11.602,-6.42 -11.036,-13.08 0.532,-6.32 5.825,-11.08 12.047,-11.08 0.348,0 0.692,0.01 1.039,0.04 11.012,0.93 22.282,1.9 33.411,2.84 v -292.49"
         style="fill:#800080;fill-opacity:1;fill-rule:nonzero;stroke:none"
         id="path34"
         inkscape:connector-curvature="0" /><path
         d="m 1212.19,1126.3 c -18.77,-0.96 -37.71,-1.91 -56.81,-2.87 v 302.69 c 19.1,1.65 38.04,3.28 56.81,4.9 z m -71.33,-3.61 c -14.44,-0.73 -28.95,-1.46 -43.5,-2.19 -6.68,-0.33 -11.82,-6.02 -11.49,-12.7 0.32,-6.47 5.68,-11.49 12.08,-11.49 0.21,0 0.41,0 0.62,0.01 57.84,2.91 114.98,5.8 169.83,8.59 6.68,0.35 11.82,6.03 11.48,12.71 -0.34,6.67 -6.11,11.91 -12.7,11.47 -13.36,-0.68 -26.86,-1.36 -40.47,-2.06 v 305.24 c 14.17,1.22 28.22,2.44 42.12,3.64 6.67,0.58 11.6,6.45 11.02,13.11 -0.57,6.66 -6.49,11.62 -13.1,11.01 -54.85,-4.75 -111.98,-9.67 -169.82,-14.63 -6.66,-0.56 -11.6,-6.43 -11.03,-13.09 0.54,-6.31 5.83,-11.07 12.05,-11.07 0.34,0 0.7,0.01 1.04,0.04 14.01,1.2 27.97,2.4 41.87,3.59 v -302.18"
         style="fill:#800080;fill-opacity:1;fill-rule:nonzero;stroke:none"
         id="path36"
         inkscape:connector-curvature="0" /><path
         d="m 4064.6,1210.93 -24.57,10.75 c -6.11,2.69 -13.26,-0.1 -15.94,-6.24 -2.68,-6.11 0.1,-13.25 6.24,-15.94 l 70.95,-31.05 c 1.58,-0.69 3.23,-1.03 4.86,-1.03 4.65,0 9.1,2.72 11.09,7.26 2.68,6.12 -0.11,13.26 -6.24,15.95 l -27.02,11.82 v 353.42 l 14.93,-11.13 c 2.18,-1.62 4.72,-2.39 7.23,-2.39 3.7,0 7.34,1.67 9.71,4.86 4,5.36 2.89,12.95 -2.47,16.94 l -70.95,52.88 c -5.4,4.02 -12.96,2.88 -16.95,-2.47 -3.99,-5.36 -2.89,-12.95 2.47,-16.94 l 36.66,-27.32 v -359.37"
         style="fill:#800080;fill-opacity:1;fill-rule:nonzero;stroke:none"
         id="path38"
         inkscape:connector-curvature="0" /><path
         d="m 1352.82,365.191 c -9.42,-1.492 -39.02,-14.48 -61.44,-18.8 -22.34,-4.352 -39.75,-8.68 -47.68,-14.442 -7.94,-5.789 -11.57,-22.449 -11.57,-22.449 0,0 -3.59,3.68 -2.2,14.52 1.44,10.812 5.83,36.101 7.94,59.941 2.24,23.867 -0.72,53.508 5.83,55.699 6.5,2.129 25.34,-1.488 39.74,-5.789 14.44,-4.351 18.07,7.199 19.5,20.18 1.49,12.988 -12.24,23.871 -21.66,31.078 -9.37,7.242 -28.88,13.062 -28.88,13.062 0,0 -5.79,-10.882 -10.22,-18.082 -4.31,-7.218 -23.1,-23.121 -23.1,-23.121 -4.94,-5.058 -7.23,-15.918 -6.46,-29.617 0.72,-13.769 -7.94,-36.91 -9.42,-55.68 -1.43,-18.8 -6.28,-78.062 -8.66,-104.07 -2.15,-26.031 0.72,-88.859 2.38,-106.93 1.21,-18.07 9.2,-21.019 17.22,-13.761 7.85,7.191 13.69,26.039 16.51,47.718 2.96,21.641 7.98,64.313 10.27,84.5 2.06,20.274 7.13,24.602 15.74,26.774 8.7,2.187 21.71,-0.731 21.71,-0.731 0,0 -1.39,-10.089 -2.16,-23.089 -0.71,-12.993 -0.71,-37.633 0.77,-66.5 1.39,-28.911 -0.77,-73.743 -1.48,-91.774 -0.68,-18.066 -1.44,-123.648312 -1.44,-123.648312 0,0 5.11,-2.121098 15.16,7.968752 10.14,10.11326 21.66,33.24996 23.9,67.97266 2.11,34.6679 4.98,109.1089 4.35,143.7889 -0.8,34.68 -0.8,65.781 -7.3,71.52 -6.47,5.789 -2.87,17.359 0,18.07 2.95,0.762 54.17,18.82 66.59,23.141 12.21,4.379 6.37,13.007 2.83,21.75 -3.63,8.621 -17.36,12.25 -26.77,10.8"
         style="fill:#800080;fill-opacity:1;fill-rule:nonzero;stroke:none"
         id="path40"
         inkscape:connector-curvature="0" /><path
         d="m 1087.58,200.391 c -3.59,-5.051 -10,-4.321 -10,-4.321 l -3.77,17.352 c 0,0 -5.7,-12.281 -9.33,-15.203 -3.67,-2.879 -2.19,15.91 -2.19,15.91 l 25.29,11.582 c 0,0 3.63,-20.25 0,-25.32 z m 0,-45.512 -7.99,10.121 c 0,0 0.77,9.379 3.68,10.09 2.88,0.719 5.79,-2.891 4.31,-20.211 z m 42.61,137.301 c 2.91,0 6.59,-4.309 7.4,-9.379 0.54,-5.071 -8.12,-4.903 -7.4,-2.871 2.2,5.761 -2.83,12.25 0,12.25 z m 36.86,-39.75 c -2.69,-5.059 -14.44,-38.301 -18.75,-36.828 -4.35,1.41 -23.09,4.308 -23.09,4.308 0,0 -0.76,9.379 0,15.91 0.63,6.469 6.59,1.461 13.68,6.469 7.22,5.082 21.66,17.359 29.64,26.07 7.94,8.672 5.88,18.063 -2.91,23.821 -8.7,5.8 -26.01,4.32 -26.01,4.32 0,0 10.18,10.129 18.07,18.07 7.94,7.989 20.18,18.789 13.72,29.668 -6.46,10.84 -22.33,8.653 -22.33,8.653 0,0 15.29,16.621 27.4,35.437 12.34,18.774 -15.92,28.192 -26.68,23.813 -10.9,-4.313 -23.15,-13.692 -30.46,-10.789 -7.17,2.867 2.96,9.367 19.56,17.308 16.68,7.988 59.24,20.27 65.08,28.93 5.78,8.68 -7.95,22.398 -19.52,25.301 -11.57,2.898 -28.88,12.98 -46.86,20.98 -18.26,7.93 -44,18.059 -53.6,14.379 -9.37,-3.57 -11.48,-15.141 -0.72,-26.691 10.77,-11.571 13.69,-18.809 13.69,-18.809 l -16.6,-2.129 c 0,0 -23.86,-4.402 -35.43,-5.84 -11.53,-1.422 -23.14,-1.422 -35.43,0 -12.242,1.438 -26.684,5.078 -26.684,5.078 0,0 -5.07,-17.347 -6.503,-34.679 -1.391,-17.352 2.105,-23.828 9.371,-33.961 7.175,-10.149 21.666,-10.149 28.206,-2.891 6.46,7.211 34.67,23.121 34.67,23.121 0,0 -18.79,-23.879 -26.77,-36.16 -7.9,-12.277 -12.96,-25.289 -1.44,-37.578 11.62,-12.262 20.99,-4.352 37.59,9.398 16.68,13.75 39.02,18.082 39.02,18.082 l -7.9,-10.113 c 0,0 -34.76,-26.039 -42.69,-39.008 -7.94,-13.039 -5.03,-27.488 -0.63,-31.109 4.26,-3.57 30.36,4.348 30.36,4.348 l -22.52,-15.188 c 0,0 -49.77,-36.152 -61.392,-46.223 -11.532,-10.136 -23.008,-29.679 -18.118,-40.519 5.114,-10.84 14.438,-9.367 27.67,-2.149 12.87,7.219 28.75,16.61 28.75,16.61 0,0 0,-5.77 0,-15.149 0,-9.41 -8.7,-20.222 -7.22,-31.07 1.43,-10.891 14.44,-27.48 32.56,-28.949 17.98,-1.422 18.79,30.348 18.79,30.348 l 6.46,-8.629 c 0,0 7.31,-28.911 9.41,-41.903 2.11,-13.0075 5.84,-17.3864 17.32,-16.6794 11.52,0.7227 15.16,14.4924 15.16,14.4924 l 2.87,88.859 c 0,0 15.2,-12.281 26.01,-20.961 10.9,-8.648 24.62,-7.937 30.4,5.082 5.83,12.989 -18.83,28.18 -19.5,36.141 -0.68,7.949 7.17,44.078 4.3,39.008"
         style="fill:#800080;fill-opacity:1;fill-rule:nonzero;stroke:none"
         id="path42"
         inkscape:connector-curvature="0" /><path
         d="m 1524.13,274.84 c -2.23,15.879 -2.23,31.082 -10.08,49.871 0,0 -20.99,-24.531 -19.6,-47.68 1.48,-23.133 7.26,-48.441 4.43,-77.351 -2.95,-28.918 -13.05,-43.371 -6.54,-56.371 6.54,-13 21.71,-27.438 30.36,-26.028 8.62,1.469 12.96,20.278 12.96,37.598 0,17.32 0.72,77.332 -0.71,88.902 -1.3,11.571 -8.66,15.18 -10.82,31.059"
         style="fill:#800080;fill-opacity:1;fill-rule:nonzero;stroke:none"
         id="path44"
         inkscape:connector-curvature="0" /><path
         d="m 1734.61,458.43 c -15.29,5.769 -58.7,-0.7 -66.64,-1.442 -8.03,-0.769 -8.03,3.633 -19.51,5.762 -11.48,2.18 -18.08,0.762 -24.58,-5.762 -6.46,-6.527 -10.13,-13.008 -18.79,-17.328 -8.7,-4.371 -16.69,9.379 -23.14,15.121 -6.55,5.84 -8.61,12.34 -15.97,7.969 -7.17,-4.32 -4.3,-20.961 -6.46,-21.68 -2.15,-0.718 -12.24,-2.172 -15.87,-9.398 -3.64,-7.203 1.48,-17.313 10.13,-25.293 8.61,-7.93 18.75,-15.918 28.17,-13.731 9.37,2.184 16.81,13 16.81,13 0,0 10.64,-4.296 18.66,-1.429 7.85,2.883 3.54,10.113 2.11,18.07 -1.44,7.93 -2.11,11.582 3.64,20.223 5.73,8.648 13.05,7.949 20.98,0.726 7.94,-7.258 11.48,-17.34 20.28,-20.949 8.56,-3.629 10,2.891 18.69,7.93 8.75,5.07 14.45,5.761 34.72,-2.16 20.19,-7.969 19.51,-31.789 20.19,-44.797 0.76,-12.981 0,-89.633 0.76,-103.332 0.76,-13.782 2.15,-162.649 0.71,-168.442 -1.47,-5.769 -25.29,19.532 -25.29,19.532 0,0 11.57,-32.52 25.29,-52.7583 13.73,-20.2226 30.37,-35.4414 36.87,-31.7929 6.5,3.6093 2.24,29.6523 -0.72,52.7421 -2.78,23.1601 1.43,101.1991 -0.76,177.0901 -2.02,75.871 10.89,64.32 11.61,106.23 0.72,41.938 -36.86,70.141 -51.89,75.899"
         style="fill:#800080;fill-opacity:1;fill-rule:nonzero;stroke:none"
         id="path46"
         inkscape:connector-curvature="0" /><path
         d="m 2010.53,410.719 c -10.82,2.883 -13.06,-15.957 -24.63,-37.559 -11.48,-21.719 -38.92,-84.578 -50.41,-109.89 -11.66,-25.301 -10.98,-43.36 -5.2,-45.508 5.83,-2.16 44.84,1.437 44.84,1.437 0,0 2.88,-82.39 2.21,-90.34 -0.77,-7.988 0,-32.5192 18.74,-33.9801 18.75,-1.457 20.23,20.2301 20.23,46.9801 0,26.762 0.67,83.852 0.67,100.43 0,16.672 -1.43,61.461 -4.26,69.422 0,0 16.59,39 18.84,55.668 2.11,16.582 -10.18,40.449 -21.03,43.34"
         style="fill:#800080;fill-opacity:1;fill-rule:nonzero;stroke:none"
         id="path48"
         inkscape:connector-curvature="0" /><path
         d="m 2166.64,273.41 c -4.35,-1.449 -7.22,2.891 -7.22,2.891 0,0 7.94,13.73 18.07,24.57 10.19,10.84 13.01,20.231 6.46,24.578 -6.46,4.313 -20.18,-0.738 -20.18,-0.738 l -2.24,8.648 c 0,0 10.18,5.813 28.21,6.532 18.07,0.73 3.63,-26.02 0,-35.411 -3.55,-9.378 -18.79,-29.64 -23.1,-31.07 z m -52.02,-18.058 c -2.2,-0.762 -3.64,5.738 -7.99,18.058 -4.35,12.281 -6.46,26.012 -0.67,33.219 5.79,7.242 31.75,15.93 31.75,15.93 l -0.67,-8.688 c 0,0 -13.81,-6.5 -14.49,-10.84 -0.71,-4.351 -3.58,-11.601 1.44,-11.601 5.11,0 14.48,1.48 14.48,1.48 l 0.68,-22.398 c 0,0 -22.38,-14.461 -24.53,-15.16 z m 153.87,-7.262 c -14.39,-2.879 -27.4,-5.801 -44.76,-6.5 -17.35,-0.699 -26.72,-0.699 -26.72,-0.699 0,0 -6.51,-6.52 -13.06,-8.68 -6.46,-2.199 -14.48,0.687 -10.04,3.609 4.35,2.879 14.39,5.77 18.79,7.961 4.31,2.188 21.66,23.129 31.03,42.641 9.42,19.519 14.49,43.34 18.75,55.668 4.35,12.301 6.55,39.691 -8.65,39.691 -15.08,0 -37.59,-5.019 -51.99,-9.39 -14.48,-4.309 -22.42,-6.5 -22.42,-6.5 0,0 0.76,16.64 5.07,23.148 4.48,6.5 7.22,9.41 15.96,10.102 8.57,0.699 22.29,2.211 32.56,10.847 9.96,8.672 9.96,22.41 3.5,28.942 -6.5,6.5 -15.87,10.82 -26.01,9.359 -10.05,-1.43 -20.27,-2.16 -20.27,-2.16 0,0 5.07,12.301 5.07,20.223 0,7.957 -11.53,7.957 -19.55,7.257 -7.81,-0.769 -20.19,0 -20.19,-6.488 0,-6.5 7.94,-2.191 8.7,-6.5 0.72,-4.402 -3.63,-21.691 -3.63,-21.691 0,0 -26.01,-12.328 -40.46,-15.219 -14.48,-2.859 -27.49,-2.133 -29.68,-4.301 -2.11,-2.191 -0.68,-11.582 7.97,-20.269 8.66,-8.68 10.82,-12.289 18.08,-11.571 7.4,0.758 41.93,3.649 41.93,3.649 l -2.24,-32.528 c 0,0 -23.81,-15.902 -32.29,-17.363 -8.88,-1.437 -8.88,4.32 -8.88,10.844 0,6.519 0.77,18.078 12.29,29.609 0,0 -22.38,-10.82 -30.23,-36.133 -8.03,-25.277 -13.81,-40.457 -12.38,-60.687 1.48,-20.231 2.21,-44.07 17.36,-51.301 15.2,-7.262 19.47,-7.262 27.45,-4.371 7.89,2.922 26.01,9.41 26.01,9.41 0,0 -3.58,-8.687 -15.87,-16.597 -12.34,-7.973 -26.69,-10.883 -34.72,-14.473 -7.85,-3.59 -18.02,-12.981 -19.55,-23.117 -1.44,-10.133 8.74,-9.422 15.29,-20.25 6.41,-10.832 10.05,-31.082 17.94,-32.512 7.98,-1.441 23.86,0 27.49,10.871 3.63,10.809 2.25,26.688 -3.59,31.758 -5.78,5.082 -5.78,5.082 -5.78,5.082 0,0 7.22,4.309 16.64,6.488 9.33,2.133 21.66,8.699 21.66,8.699 0,0 0,-39.027 3.59,-57.089 3.63,-18.079 10.31,-33.258 -5.7,-39.059 -15.92,-5.7812 -37.54,-10.8086 -44.89,-11.5703 -7.18,-0.7109 -7.18,-0.7109 -7.18,-0.7109 0,0 1.39,13.6914 4.36,18.0432 2.82,4.347 -10.19,-10.0823 -15.97,-17.3323 -5.79,-7.1992 -20.19,-10.1211 -17.9,-15.8789 2.02,-5.7891 10,-14.4727 22.29,-17.3906 12.29,-2.8907 36.83,-1.3789 62.08,0.7382 25.33,2.1797 46.32,10.1329 50.63,26.7305 4.35,16.6602 0.89,28.1911 -7.18,55.6801 -7.94,27.429 -12.33,62.871 -12.33,62.871 0,0 10.85,7.242 32.61,9.429 21.61,2.11 45.51,5.02 54.84,9.34 9.46,4.371 10.19,14.52 10.19,21.711 0,7.211 -1.53,10.879 -16.02,7.93"
         style="fill:#800080;fill-opacity:1;fill-rule:nonzero;stroke:none"
         id="path50"
         inkscape:connector-curvature="0" /><path
         d="m 3043.26,383.961 c 7.26,-4.313 7.26,-4.313 7.26,-4.313 l 0.71,-13.007 c 0,0 -8.7,1.441 -15.2,-1.45 -6.54,-2.871 -20.23,-10.8 -20.23,-10.8 0,0 1.49,25.988 2.92,40.441 1.39,14.457 2.16,20.957 3.72,28.879 1.35,7.961 4.17,24.578 4.17,24.578 l 31.85,-0.699 c 0,0 -22.43,-22.461 -23.14,-38.301 -0.72,-15.918 0.71,-20.988 7.94,-25.328 z m 119.97,-3.582 c -15.92,0 -59.97,-0.731 -70.86,-2.18 -10.86,-1.437 -17.36,-2.91 -17.36,-2.91 l 3.64,9.43 c 0,0 5.82,7.203 17.35,13.73 11.56,6.473 11.56,14.449 7.26,22.403 -4.3,7.929 -10.89,11.546 -10.89,11.546 l 2.23,10.84 c 0,0 14.45,10.121 20.19,15.192 5.83,5.082 4.39,13.699 -0.5,18.769 -5.24,5.063 -16.86,4.36 -16.86,4.36 v 7.23 c 0,0 0.77,34.652 -21.66,33.961 -22.38,-0.73 -5.52,-17.371 -7.22,-27.48 -1.48,-10.141 -10.81,-20.25 -18.03,-23.829 -7.26,-3.64 -23.91,-9.41 -23.91,-9.41 0,0 -0.67,10.098 -14.44,12.989 -13.68,2.902 -18.08,2.179 -20.95,-2.891 -2.95,-5.008 -0.71,-5.777 1.45,-17.348 2.19,-11.543 -1.45,-41.883 -2.16,-62.859 -0.62,-20.961 -1.47,-44.813 -1.47,-44.813 l -10.09,-2.179 c 0,0 -4.36,34.718 -1.45,57.832 2.87,23.136 -0.71,36.136 -5.74,50.597 -5.06,14.442 -14.43,12.301 -20.14,11.571 -5.78,-0.731 -6.63,-6.5 -8.11,-23.86 -1.39,-17.359 -3.63,-71.558 -2.15,-85.289 1.44,-13.691 0.76,-26.742 0.76,-26.742 0,0 -7.94,-14.469 -23.9,-7.219 0,0 -2.16,31.828 -11.58,33.258 -9.37,1.434 -23.14,-21.719 -28.88,-37.59 -5.78,-15.929 -13.05,-41.918 -10.85,-62.136 2.16,-20.274 6.55,-26.762 15.93,-28.954 9.45,-2.168 17.3,2.891 22.37,9.422 5.12,6.469 15.88,54.899 15.88,54.899 0,0 16.64,-0.688 32.6,5.781 15.88,6.531 53.46,20.988 64.32,25.32 10.8,4.34 59.19,19.508 59.19,19.508 0,0 -41.88,-36.137 -66.24,-47.699 -24.76,-11.527 -52.29,-18.059 -52.29,-18.059 0,0 -7.05,-26.031 -1.34,-31.101 5.78,-5.039 23.09,-2.879 33.89,0.742 10.86,3.609 33.2,23.84 43.38,28.91 10.09,5.07 15.92,4.301 15.92,4.301 0,0 -3.63,-16.57 -9.46,-24.524 -5.74,-7.929 -13.72,-2.859 -13.72,-2.859 0,0 0.71,-22.449 -0.73,-28.219 -1.43,-5.808 -25.25,-3.621 -38.21,-7.218 -13.08,-3.653 -15.24,-7.973 -11.61,-23.852 3.63,-15.941 8.65,-26.051 22.42,-26.051 13.72,0 39.74,5.063 39.74,5.063 0,0 -0.71,-25.293 -2.2,-40.453 -1.43,-15.2 -7.26,-26.008 -22.38,-28.207 -15.16,-2.1528 -25.25,-2.8911 -31.8,2.199 -6.54,5.019 -7.25,23.84 -7.25,23.84 0,0 -15.84,-15.192 -13.01,-23.879 2.95,-8.6604 9.45,-16.6136 15.19,-27.4534 5.79,-10.8281 23.15,-15.9102 33.46,-18.0703 9.92,-2.1602 50.37,-4.3399 61.94,6.5234 11.57,10.8594 10.85,35.4103 10.85,51.2893 0,15.929 -2.92,42.64 -5.83,50.609 -2.91,7.93 -2.91,7.93 -2.91,7.93 0,0 24.66,1.449 34.71,5.058 10.19,3.622 13.01,10.122 18.08,16.684 5.06,6.469 12.28,19.457 6.55,24.539 -5.84,5.027 -12.34,13 -26.07,11.527 -13.68,-1.398 -32.51,-4.308 -37.57,-4.308 -5.07,0 -10.86,3.621 2.86,9.379 13.73,5.812 35.48,13.769 41.98,27.472 6.46,13.707 5.74,23.868 -3.63,36.118 -9.38,12.312 -31.8,10.152 -31.8,10.152 0,0 11.52,12.309 25.29,18.051 13.77,5.789 28.94,8.668 45.53,8.668 16.63,0 32.56,7.218 37.63,17.351 5.02,10.11 -9.43,24.598 -25.34,24.598"
         style="fill:#800080;fill-opacity:1;fill-rule:nonzero;stroke:none"
         id="path52"
         inkscape:connector-curvature="0" /><path
         d="m 3312.08,291.43 c -0.72,29.672 2.24,34.73 2.24,34.73 l 10.05,-2.91 c 0,0 -7.94,11.582 -9.43,18.84 -1.43,7.219 -7.16,11.558 -13.67,17.308 -6.5,5.793 -12.88,10.114 -12.29,-1.429 0,0 0.76,-75.867 0,-102.617 -0.59,-26.762 1.43,-44.832 2.92,-73.032 1.38,-28.199 7.98,-50.57 13.01,-59.949 5.01,-9.422 16.54,2.879 22.37,12.988 5.83,10.11 -5.83,34.711 -6.32,54.911 -0.95,20.25 -8.12,71.582 -8.88,101.16"
         style="fill:#800080;fill-opacity:1;fill-rule:nonzero;stroke:none"
         id="path54"
         inkscape:connector-curvature="0" /><path
         d="m 3364.1,343.531 c 5.11,13.707 23.15,31.758 15.92,41.918 -7.18,10.09 -20.85,12.281 -33.27,10.09 -12.24,-2.168 -20.05,-7.969 -30.32,-9.391 -10.05,-1.429 -18.79,-2.886 -18.79,-2.886 0,0 4.35,-12.981 11.84,-23.141 6.95,-10.121 19.91,-14.473 19.91,-14.473 0,0 2.24,-6.476 4.39,-18.789 2.2,-12.289 6.56,-14.418 9.38,-19.488 2.96,-5.07 -15.21,0.738 -15.21,0.738 0,0 11.66,-15.199 24.63,-23.148 13,-7.93 33.22,-13.742 34.67,-5.813 1.47,7.961 -5.08,17.352 -15.12,31.114 -10.09,13.758 -12.96,19.5 -8.03,33.269"
         style="fill:#800080;fill-opacity:1;fill-rule:nonzero;stroke:none"
         id="path56"
         inkscape:connector-curvature="0" /><path
         d="m 3555.65,303.031 c 8.03,8.68 10.86,15.219 5.11,20.219 -5.83,5.07 -11.57,2.199 -18.11,-1.43 -6.55,-3.57 -60.73,-28.91 -74.37,-36.859 -13.8,-7.93 -32.52,-15.152 -32.52,-15.152 0,0 -2.28,7.222 12.89,18.773 15.2,11.598 30.4,21.68 39.06,24.598 8.69,2.89 41.22,12.269 46.95,23.129 5.83,10.8 5.12,30.332 -5.02,28.882 -10.13,-1.492 -24.58,-2.871 -32.43,-8.679 -7.89,-5.801 -35.52,-10.121 -35.52,-10.121 0,0 18.7,11.578 38.3,23.121 19.52,11.558 44.05,20.949 58.58,28.937 14.44,7.93 39.42,13.449 33.28,39.723 -2.92,12.289 -31.72,7.226 -45.57,4.34 l -25.34,-4.34 c 0,0 -10.1,20.957 -19.51,34.668 -9.38,13.769 -30.31,23.89 -30.31,23.89 0,0 -4.36,-7.941 -2.84,-23.89 1.39,-15.852 0,-27.442 0,-36.129 0,-8.652 -8.74,-10.063 -13.09,-13.711 -4.35,-3.59 -14.4,-4.34 -18.08,-3.59 -3.63,0.68 -11.56,19.488 -11.56,19.488 0,0 -18.8,-26 -23.11,-41.168 -4.34,-15.199 -5.83,-31.089 7.18,-42.652 13.01,-11.547 18.84,-9.379 24.67,-5.769 5.69,3.582 12.25,31.761 12.25,31.761 0,0 18.07,7.969 29.63,12.989 11.54,5.082 46.25,13.769 46.25,13.769 0,0 -10.81,-12.289 -22.43,-20.976 -11.52,-8.653 -34.71,-29.614 -40.45,-34.68 -5.79,-5.063 -15.11,-8.641 -20.22,-13 -5.03,-4.34 -7.23,-20.922 -1.45,-25.992 5.8,-5.071 13.69,-5.809 13.69,-5.809 0,0 -23.1,-20.949 -31.8,-27.441 -8.61,-6.52 -25.97,-18.84 -25.97,-18.84 0,0 0,-36.102 2.11,-42.641 2.2,-6.5 11.66,-5.027 18.08,3.653 6.54,8.648 33.27,20.187 46.95,28.187 13.77,7.949 39.06,17.332 39.06,17.332 0,0 -41.88,-49.172 -51.98,-59.992 -10.14,-10.797 -18.83,-20.25 -18.83,-20.25 l 5.11,21.73 c 0,0 -25.34,-40.488 -31.85,-54.23 -6.54,-13.738 -13.72,-25.32 -4.34,-28.207 9.46,-2.844 20.99,1.469 20.99,1.469 0,0 19.51,32.55 34.66,51.32 15.16,18.758 50.6,59.269 65.03,75.891 14.45,16.609 28.98,39.039 36.87,47.679"
         style="fill:#800080;fill-opacity:1;fill-rule:nonzero;stroke:none"
         id="path58"
         inkscape:connector-curvature="0" /><path
         d="m 3623.6,311.711 c -0.73,7.23 -5.78,-31.102 -7.94,-57.813 -2.24,-26.757 -6.51,-41.949 -7.27,-65.816 -0.4,-23.844 8.03,-46.941 -10,-49.832 -18.2,-2.891 -63.73,-8.691 -77.45,-7.941 -13.68,0.711 -13.68,-1.45 -12.29,12.312 1.48,13.688 2.19,43.328 0,54.899 -2.11,11.589 -2.88,28.878 -2.88,28.878 0,0 -4.34,10.122 -8.56,-2.878 0,0 -3.67,-13 -10.94,-36.141 -7.22,-23.141 -13.01,-45.52 -13.63,-62.828 -0.81,-17.379 9.28,-35.4494 33.9,-36.1408 24.58,-0.7188 93.2,7.1914 112.93,10.0898 19.29,2.91 40.28,18.039 40.99,40.449 0.71,22.442 -11.52,51.321 -19.51,79.5 -7.93,28.211 -16.63,86.031 -17.35,93.262"
         style="fill:#800080;fill-opacity:1;fill-rule:nonzero;stroke:none"
         id="path60"
         inkscape:connector-curvature="0" /><path
         d="m 2665.32,141.141 c 2.82,7.218 18.78,20.25 18.78,20.25 15.88,3.609 5.79,-6.512 5.79,-18.082 0,-11.559 -7.98,-27.508 -8.7,-31.821 -0.76,-4.316 -2.2,3.621 -2.2,10.883 0,7.188 -6.46,1.457 -12.91,4.301 -6.59,2.887 -3.68,7.269 -0.76,14.469 z m 16.59,70.808 c 28.92,2.942 14.44,-17.301 13.72,-23.109 -0.76,-5.77 -7.93,-0.758 -14.44,2.91 -6.46,3.59 -11.57,3.59 -11.57,11.551 0,7.918 12.29,8.648 12.29,8.648 z m -80.15,20.262 c 5.79,5.828 25.84,27.769 25.84,27.769 l 0.63,-31.199 c 0,0 -32.3,-2.441 -26.47,3.43 z m -107.77,15.879 -1.48,-104.07 c 0,0 -9.32,9.41 -12.24,21.679 -2.83,12.313 -6.23,29.961 -6.23,32.84 0,2.91 -1.26,19.66 0.89,31.191 2.2,11.559 13.23,24.168 13.23,24.168 7.31,7.954 5.83,-5.808 5.83,-5.808 z m 171.1,144.558 -11.66,-15.628 -1.48,11.218 z m 2.92,-36.109 2.5,-7.809 -12.24,-1.429 z m 107.14,-61.437 c -22.42,2.878 -123.6,2.117 -123.6,2.117 v 22.422 c 0,0 13.04,6.519 20.98,8.679 7.9,2.192 24.62,6.512 35.43,8.7 10.81,2.152 21.71,6.511 17.32,18.058 -4.35,11.563 -7.94,12.301 -16.6,10.813 -8.7,-1.43 -8.7,-3.571 -12.33,-5.032 -3.54,-1.461 -9.37,-0.738 -11.52,3.602 -2.21,4.309 10.04,16.609 15.87,24.578 5.88,7.949 5.06,13.723 -0.72,18.789 -5.74,5.07 -16.64,5.774 -16.64,5.774 0,0 -10.81,-3.614 -17.26,-1.461 -6.59,2.218 -7.27,20.257 -7.27,20.257 0,0 16.64,-8.687 24.53,-10.109 8.03,-1.437 13.81,7.93 16.64,18.063 2.96,10.109 -4.35,19.507 -9.37,31.089 -4.98,11.547 -10.18,25.981 -17.4,26.75 -7.13,0.688 -32.52,-18.8 -45.52,-27.472 -12.96,-8.688 -49.83,-44.821 -49.83,-44.821 0,0 16.6,-4.32 27.45,-2.187 10.81,2.187 23.14,6.508 26.05,-1.422 2.83,-7.93 3.55,-20.937 2.11,-24.559 -1.39,-3.671 -27.4,-14.468 -27.4,-14.468 0,0 -14.53,24.566 -17.4,31.097 -2.88,6.493 -7.45,-2.078 -11.79,-11.468 -4.36,-9.411 -15.62,-34.809 -15.62,-34.809 0,0 -13.81,2.168 -25.33,0.688 -11.57,-1.391 -20.27,-2.879 -20.27,-2.879 l 0.71,33.25 c 0,0 7.99,-4.309 8.75,7.238 0.67,11.519 -4.39,25.293 -13.73,31.09 -9.46,5.769 -18.12,5.043 -20.94,-7.25 -2.96,-12.321 -2.16,-73.707 -2.16,-73.707 0,0 -51.34,-20.203 -70.86,-29.653 -19.51,-9.371 -36.06,-16.597 -53.5,-17.359 -17.35,-0.711 -21.66,-5.75 -14.44,-13.699 7.26,-7.93 21.67,-23.16 30.36,-26.692 8.66,-3.668 23.14,-0.75 32.48,5.012 9.41,5.809 35.51,23.859 47.71,31.82 12.29,7.93 24.67,15.161 26.78,13.7 2.2,-1.391 6.45,-10.852 6.45,-10.852 0,0 0,-2.867 -3.59,-5.758 -3.58,-2.851 -42.65,-36.121 -56.37,-52.742 -13.64,-16.629 -10.13,-18.789 -5.79,-33.277 4.36,-14.442 5.79,-32.5 13.15,-37.551 7.17,-5.082 28.43,3.008 28.43,3.008 0,0 -1.83,-27.59 0.36,-49.989 2.15,-22.421 20.18,-64.3198 34.66,-64.3198 14.5,0 10.9,33.9418 12.3,76.5698 1.43,42.649 -0.05,153.25 -0.05,153.25 0,0 9.42,9.391 15.97,20.27 6.45,10.789 13.72,33.941 13.72,33.941 0,0 5.03,11.508 7.94,7.207 2.92,-4.32 2.16,-15.867 2.92,-24.566 0.67,-8.672 0.67,-15.891 7.13,-18.082 6.59,-2.18 17.45,-3.57 19.6,7.27 2.14,10.812 5.02,21.679 14.44,31.058 9.41,9.383 28.92,21.684 28.92,21.684 l 0.77,-17.364 c 0,0 -37.63,-45.527 -52.84,-53.457 -15.15,-7.961 -28.92,-1.461 -29.6,-6.519 -0.72,-5.031 7.94,-25.301 15.21,-26.731 7.22,-1.472 25.24,2.149 32.56,10.821 7.13,8.668 28.84,26.75 28.84,26.75 0,0 -5.83,-12.282 -16.64,-26.75 -10.85,-14.403 -36.82,-44.082 -43.37,-54.922 -6.46,-10.828 -8.66,-21.668 -1.48,-26.75 7.27,-5.008 11.61,-3.621 11.61,-3.621 0,0 -2.19,-49.129 -0.71,-73.668 1.44,-24.6408 7.93,-39.8205 18.07,-41.2229 10.08,-1.4687 19.68,19.4609 18.7,30.3519 -0.67,10.871 -2.82,46.949 -4.88,60.011 -2.29,13 -1.58,26.719 -1.58,26.719 l 37.59,0.731 v -5.801 c 0,0 -15.88,-1.449 -18.66,-4.301 -3.01,-2.957 -7.35,-17.348 -2.25,-23.148 5.03,-5.813 15.12,-10.871 15.12,-10.871 0,0 0,-7.93 -4.3,-15.879 -4.31,-7.961 -13.05,-20.961 -15.25,-28.903 -2.11,-7.937 7.26,-18.0583 15.97,-20.238 8.7,-2.1914 33.23,0 33.23,0 0,0 0,-23.8398 2.2,-31.8086 2.1,-7.9101 6.5,-10.832 18.02,-8.6523 11.53,2.1211 23.86,2.8593 29.65,17.3125 5.78,14.4765 23.1,57.8204 28.25,92.5394 5.03,34.679 20.18,70.109 -2.28,79.5 -22.38,9.398 -32.38,7.929 -51.98,4.32 -19.56,-3.621 -33.24,-2.922 -33.24,-2.922 l -2.19,50.621 c 0,0 18.07,-14.488 38.34,-22.398 20.23,-7.961 58.48,-17.352 73.69,-18.082 15.15,-0.692 41.17,-7.961 44.8,10.121 3.68,18.058 -10.85,29.629 -33.23,32.551"
         style="fill:#800080;fill-opacity:1;fill-rule:nonzero;stroke:none"
         id="path62"
         inkscape:connector-curvature="0" /><path
         d="m 1656.8,290.398 -5.11,12.563 c 0,0 8.52,3.48 8.52,-1.723 0,-5.117 -3.41,-10.84 -3.41,-10.84 z m -4.71,-65.41 c -2.91,-2.886 -31.13,-13.039 -31.13,-13.039 l 27.5,35.422 c 0,0 6.46,-19.473 3.63,-22.383 z m -28.43,36.313 c 0,0 13.76,1.179 10.89,-5.692 -2.87,-6.871 -11.48,-13.097 -11.48,-13.097 z m 30.85,91.308 c 4.53,-1.711 6.28,-6.847 5.12,-8.558 -1.08,-1.711 -17.09,-3.43 -20.5,-3.43 -3.45,0 -5.74,6.289 -5.74,6.289 1.7,0 16.55,7.41 21.12,5.699 z m 78.44,-119.711 c -0.67,7.262 -7.17,14.473 -15.11,29.653 -7.98,15.179 -28.88,50.629 -31.08,61.469 -2.2,10.812 2.2,20.91 -3.64,25.98 -5.73,5.078 -11.56,9.398 -7.84,13.699 3.54,4.383 20.13,5.071 23.72,10.879 3.63,5.801 2.25,18.793 -4.3,26.774 -6.5,7.937 -13.01,10.097 -22.43,6.476 -9.37,-3.609 -40.45,-17.367 -51.31,-22.379 -10.71,-5.07 -24.57,-5.801 -24.57,-5.801 0,0 -16.6,1.422 -7.99,-15.187 8.75,-16.633 15.21,-19.531 16.69,-26.75 1.44,-7.199 -5.83,-18.77 -8.7,-35.41 -2.87,-16.61 -6.5,-38.262 -5.74,-54.211 0.67,-15.879 0,-38.258 0,-38.258 0,0 -6.5,-12.312 -12.24,-20.992 -5.88,-8.692 -7.99,-22.371 -0.73,-25.289 7.18,-2.86 31.72,6.519 39.74,13.008 7.85,6.511 33.95,23.121 33.95,23.121 0,0 2.87,-42.66 1.35,-49.871 -1.35,-7.188 0,-14.45 8.75,-18.059 8.65,-3.609 19.55,-5.078 20.94,10.109 1.48,15.161 1.48,69.36 1.48,69.36 0,0 23.81,5.793 32.52,8.691 8.7,2.91 17.3,5.801 16.54,12.988"
         style="fill:#800080;fill-opacity:1;fill-rule:nonzero;stroke:none"
         id="path64"
         inkscape:connector-curvature="0" /></g></g></svg>
