<?xml version="1.0" standalone="no"?>
<!DOCTYPE svg PUBLIC "-//W3C//DTD SVG 20010904//EN"
 "http://www.w3.org/TR/2001/REC-SVG-20010904/DTD/svg10.dtd">
<svg version="1.0" xmlns="http://www.w3.org/2000/svg"
 width="608.000000pt" height="458.000000pt" viewBox="0 0 608.000000 458.000000"
 preserveAspectRatio="xMidYMid meet">

<g transform="translate(0.000000,458.000000) scale(0.100000,-0.100000)"
fill="#000000" stroke="none">
<path d="M4766 4025 c-3 -9 -6 -28 -6 -41 0 -33 25 -41 130 -43 47 -1 126 -6
175 -11 217 -24 298 -30 423 -32 114 -3 132 -1 132 13 0 8 -5 20 -11 26 -12
12 -4 15 59 28 37 8 43 24 10 27 -13 1 -39 3 -58 5 -19 1 -141 7 -270 12 -129
5 -242 11 -250 14 -8 3 -85 8 -171 12 -139 5 -157 4 -163 -10z m81 -11 c-3 -3
-12 -4 -19 -1 -8 3 -5 6 6 6 11 1 17 -2 13 -5z m253 -24 c29 -5 5 -6 -70 -3
-63 3 -117 7 -119 9 -8 7 144 2 189 -6z m303 -27 c-7 -2 -19 -2 -25 0 -7 3 -2
5 12 5 14 0 19 -2 13 -5z m80 0 c-7 -2 -19 -2 -25 0 -7 3 -2 5 12 5 14 0 19
-2 13 -5z m-216 -19 c-3 -3 -12 -4 -19 -1 -8 3 -5 6 6 6 11 1 17 -2 13 -5z
m270 0 c-3 -3 -12 -4 -19 -1 -8 3 -5 6 6 6 11 1 17 -2 13 -5z m-170 -10 c-3
-3 -12 -4 -19 -1 -8 3 -5 6 6 6 11 1 17 -2 13 -5z"/>
<path d="M2059 3768 c0 -46 -16 -115 -18 -80 -2 27 -21 10 -22 -20 -1 -18 -3
-25 -6 -15 -8 30 -23 8 -23 -35 0 -33 3 -38 13 -29 8 6 17 8 20 4 4 -3 7 4 7
16 0 12 4 20 10 16 5 -3 14 9 19 27 9 31 10 31 16 11 4 -13 12 -23 17 -23 5 0
8 -6 7 -12 -3 -29 2 -49 11 -43 6 3 13 -1 16 -10 4 -9 13 -14 21 -11 10 4 11
1 4 -12 -6 -12 -5 -23 5 -36 7 -11 15 -18 17 -15 2 2 16 25 31 52 15 26 29 47
31 47 7 0 -14 -52 -27 -67 -7 -9 -7 -13 2 -13 7 0 10 -7 7 -15 -4 -8 -2 -17 3
-20 6 -4 10 -1 10 6 0 7 3 10 6 7 3 -4 -2 -20 -10 -37 -20 -38 -20 -52 -1 -27
8 11 15 14 15 8 0 -19 20 -14 41 11 11 12 18 18 17 12 -2 -5 1 -12 6 -15 5 -3
24 22 42 55 36 63 44 67 20 10 -14 -32 -13 -39 6 -36 4 0 5 -6 2 -14 -4 -10 0
-15 11 -15 9 0 14 -3 11 -8 -9 -15 -10 -117 -1 -116 6 1 16 19 23 40 l12 39
-4 -52 c-3 -30 -1 -53 4 -53 6 0 10 9 10 20 0 13 5 18 15 14 9 -4 15 0 15 10
0 21 16 20 25 -1 6 -17 7 -17 21 1 12 17 14 17 14 3 0 -9 11 -29 25 -44 l24
-28 1 40 c0 31 6 44 26 59 l26 19 -17 -27 c-16 -24 -16 -26 -1 -32 10 -4 15
-13 12 -20 -3 -7 -2 -16 3 -18 9 -6 46 73 37 81 -3 3 -13 0 -23 -8 -16 -13
-16 -13 0 11 22 32 21 44 -3 37 -11 -3 -20 -1 -20 5 0 6 -9 8 -20 5 -12 -3
-20 0 -20 7 0 17 18 72 37 114 8 18 13 38 10 45 -5 17 -37 -35 -72 -117 -17
-39 -35 -72 -41 -73 -7 -1 -14 22 -17 54 -5 52 -3 60 24 94 16 20 29 42 29 49
0 14 -85 -46 -110 -77 -21 -27 -32 -30 -23 -6 5 12 2 15 -9 10 -14 -5 -15 3
-10 55 4 45 2 59 -6 54 -7 -4 -12 -15 -12 -24 -1 -9 -9 -32 -19 -51 l-18 -35
-13 25 c-13 24 -13 24 -26 -16 l-12 -40 -1 47 c-1 26 -6 58 -12 72 -9 20 -8
38 5 84 17 62 21 112 8 112 -4 0 -13 -22 -19 -49 -13 -56 -72 -186 -98 -216
-12 -14 -11 -9 4 18 24 43 28 72 6 43 -8 -11 -17 -17 -20 -14 -3 3 1 11 10 18
16 14 21 45 5 35 -5 -3 -10 -1 -10 4 0 19 -27 12 -42 -11 -14 -20 -14 -19 -10
17 4 32 2 37 -11 32 -14 -5 -17 5 -19 60 -2 42 -8 68 -15 71 -9 2 -13 -12 -14
-50z m201 -219 c0 -27 -3 -48 -7 -46 -10 6 -8 97 2 97 3 0 5 -23 5 -51z m210
-28 c-5 -11 -15 -23 -22 -27 -7 -5 -8 -2 -3 7 21 37 44 55 25 20z m7 -93 c-2
-13 -4 -3 -4 22 0 25 2 35 4 23 2 -13 2 -33 0 -45z m-54 17 c-3 -9 -8 -14 -10
-11 -3 3 -2 9 2 15 9 16 15 13 8 -4z m134 -97 c-2 -18 -4 -6 -4 27 0 33 2 48
4 33 2 -15 2 -42 0 -60z"/>
<path d="M2782 3596 c-12 -40 -22 -79 -22 -85 0 -7 -4 -9 -10 -6 -5 3 -15 -5
-21 -19 -7 -14 -17 -22 -25 -19 -8 3 -21 2 -30 -1 -13 -5 -11 -12 16 -43 27
-30 30 -37 17 -45 -9 -4 -25 -24 -38 -44 -18 -30 -19 -38 -8 -45 20 -12 31 -7
55 29 16 24 23 28 28 17 3 -8 12 -12 21 -9 10 4 15 0 15 -10 0 -9 8 -16 18
-16 16 0 18 7 15 58 l-5 57 21 -30 c12 -16 21 -35 21 -42 0 -7 9 -17 20 -23
11 -6 20 -20 20 -31 0 -47 70 33 91 104 12 42 -10 30 -50 -29 -36 -53 -36 -55
-15 46 8 39 -7 38 -31 -2 l-20 -33 -3 33 c-2 24 -8 32 -20 30 -15 -3 -17 6
-14 76 2 43 0 76 -5 73 -4 -3 -6 15 -4 39 5 66 -12 53 -37 -30z m15 -166 c-9
-79 -12 -90 -19 -65 -9 34 10 181 23 168 4 -4 2 -51 -4 -103z m-37 8 c0 -12
-1 -19 -3 -17 -1 2 -9 12 -16 22 -12 14 -11 17 3 17 10 0 16 -8 16 -22z m-38
-5 c8 -10 18 -25 22 -33 4 -8 0 -6 -8 5 -9 11 -24 26 -33 33 -9 6 -12 12 -6
12 5 0 17 -8 25 -17z m165 -90 c-3 -10 -5 -4 -5 12 0 17 2 24 5 18 2 -7 2 -21
0 -30z m-187 -13 c-6 -11 -13 -20 -16 -20 -2 0 0 9 6 20 6 11 13 20 16 20 2 0
0 -9 -6 -20z"/>
<path d="M953 3644 c-3 -8 -3 -35 0 -59 l6 -44 -73 -40 c-78 -44 -106 -49
-146 -27 -32 18 -56 5 -65 -34 -5 -21 -2 -39 9 -55 16 -24 15 -29 -21 -103
-34 -71 -37 -84 -37 -163 1 -94 17 -134 73 -182 27 -22 27 -24 11 -35 -19 -12
-73 -117 -110 -212 -26 -67 -28 -215 -5 -304 8 -31 15 -75 15 -96 0 -52 57
-175 101 -220 36 -36 116 -102 131 -108 4 -2 8 -7 8 -12 0 -5 -13 -2 -30 6
-16 9 -41 17 -56 20 -14 3 -37 18 -51 34 -28 33 -57 41 -49 13 2 -10 8 -33 11
-52 7 -31 9 -33 20 -18 17 24 34 21 41 -7 5 -23 34 -45 34 -27 0 34 71 3 76
-32 3 -21 -10 -22 -26 -2 -25 31 -38 18 -27 -27 15 -67 16 -68 27 -68 8 0 9
11 5 30 -9 42 11 38 26 -5 14 -37 26 -44 35 -20 7 16 54 10 66 -9 14 -21 21 5
10 40 -9 30 -8 33 4 23 8 -6 14 -22 14 -36 0 -36 20 -17 21 20 1 18 3 24 6 15
2 -10 13 -18 23 -18 10 0 20 -4 22 -10 2 -5 9 -6 17 -1 12 8 12 12 -3 26 -9
10 -15 20 -12 23 7 6 66 -18 66 -28 0 -3 6 -7 13 -7 25 0 147 -62 147 -75 0
-10 2 -10 8 0 9 13 25 8 117 -33 17 -8 57 -21 90 -31 77 -21 91 -34 36 -34
-24 0 -49 -6 -57 -15 -17 -16 -11 -35 10 -35 8 0 24 -8 36 -18 22 -18 22 -18
-21 -14 -36 4 -41 2 -36 -12 4 -10 1 -16 -8 -16 -8 0 -15 -4 -15 -10 0 -5 6
-10 14 -10 7 0 28 -3 45 -6 24 -5 31 -3 31 10 0 10 9 16 24 16 13 0 27 7 30
16 3 8 2 13 -2 11 -4 -3 -16 4 -26 14 -19 19 -19 19 17 19 20 0 37 4 37 8 0
11 64 16 207 17 120 0 121 0 147 -28 20 -22 26 -38 26 -73 0 -27 -4 -43 -10
-39 -5 3 -7 0 -5 -7 8 -21 -134 -178 -162 -178 -8 0 -30 -11 -50 -25 -20 -13
-40 -22 -45 -19 -4 3 -8 1 -8 -5 0 -12 -54 -42 -64 -36 -3 3 -4 3 -2 0 4 -7
-50 -66 -59 -65 -4 1 -16 -18 -28 -42 -12 -24 -24 -44 -27 -46 -3 -1 -4 -32
-2 -69 3 -47 1 -64 -7 -59 -7 5 -9 1 -5 -8 3 -9 9 -16 13 -16 4 0 13 -11 19
-25 14 -31 15 -46 2 -25 -5 8 -10 10 -10 4 0 -6 6 -17 13 -23 8 -6 12 -23 9
-41 -4 -27 -2 -30 22 -30 16 0 26 -5 26 -15 0 -10 -11 -15 -35 -15 -34 0 -35
1 -35 40 l0 40 -110 0 -110 0 0 45 c0 43 -1 45 -30 45 -29 0 -30 -2 -30 -45 0
-25 -4 -45 -10 -45 -5 0 -10 -12 -10 -26 0 -14 -4 -23 -10 -19 -5 3 -10 15
-10 26 0 14 -7 19 -30 19 -25 0 -30 -4 -30 -25 0 -14 -4 -25 -10 -25 -5 0 -10
11 -10 25 0 23 -3 25 -50 25 l-50 0 0 -40 c0 -22 -4 -40 -10 -40 -5 0 -10 16
-10 35 0 25 -4 35 -15 35 -9 0 -18 7 -21 15 -4 8 -15 15 -25 15 -15 0 -19 7
-19 40 l0 40 -44 0 c-39 0 -45 -3 -48 -22 -4 -30 -32 -30 -36 0 -5 30 -39 30
-44 0 -3 -21 -9 -23 -65 -26 l-63 -3 0 71 0 70 -50 0 c-43 0 -50 -3 -50 -20 0
-17 -7 -20 -50 -20 l-50 0 0 -51 c0 -31 -4 -48 -10 -44 -5 3 -10 15 -10 26 0
14 -7 19 -30 19 -25 0 -30 -4 -30 -25 0 -14 -4 -25 -10 -25 -6 0 -10 30 -10
70 l0 70 -50 0 c-38 0 -50 -4 -50 -15 0 -8 -7 -15 -15 -15 -9 0 -15 -10 -15
-26 0 -25 -20 -54 -37 -54 -5 0 -7 27 -5 60 4 50 2 60 -12 60 -10 0 -16 9 -16
25 0 16 -6 25 -15 25 -8 0 -15 -5 -15 -11 0 -6 -7 -17 -15 -25 -9 -10 -15 -34
-15 -65 0 -52 -3 -57 -26 -35 -19 20 -19 86 1 86 9 0 15 9 15 25 0 16 -6 25
-15 25 -9 0 -15 9 -15 25 0 18 -5 25 -20 25 -20 0 -20 -7 -20 -565 l0 -565
3040 0 3040 0 0 851 0 851 -42 -7 c-55 -9 -58 -11 -58 -41 0 -15 -6 -24 -15
-24 -22 0 -18 -17 5 -23 27 -7 27 -47 0 -54 -15 -4 -18 -11 -14 -30 9 -34 -8
-43 -78 -43 -55 0 -58 -1 -58 -24 0 -30 -13 -40 -40 -31 -13 4 -20 15 -20 31
0 15 -6 24 -15 24 -8 0 -15 9 -15 20 0 11 -4 20 -10 20 -5 0 -10 -20 -10 -45
0 -33 4 -45 15 -45 9 0 15 -9 15 -25 0 -23 -3 -25 -50 -25 -47 0 -50 -2 -50
-25 0 -24 -2 -25 -75 -25 l-75 0 0 -50 c0 -47 -2 -50 -25 -50 -20 0 -25 5 -25
25 0 20 -5 25 -25 25 -20 0 -25 5 -25 25 0 20 -5 25 -25 25 -20 0 -25 5 -25
26 0 31 -23 28 -28 -4 -2 -15 2 -22 12 -22 10 0 16 -9 16 -25 0 -20 5 -25 25
-25 20 0 25 -5 25 -25 0 -20 5 -25 25 -25 20 0 25 -5 25 -25 0 -23 -3 -25 -50
-25 -47 0 -50 2 -50 25 0 20 -5 25 -25 25 -23 0 -25 -4 -25 -44 0 -49 -21 -99
-45 -102 -12 -2 -15 8 -15 47 0 27 -4 49 -10 49 -5 0 -10 -11 -10 -25 0 -18
-5 -25 -20 -25 -15 0 -20 7 -20 25 0 14 -4 25 -10 25 -5 0 -10 -4 -10 -9 0 -5
-9 -11 -20 -14 -17 -4 -20 -14 -20 -66 0 -48 3 -61 15 -61 12 0 15 -13 15 -60
l0 -61 -25 25 c-23 23 -25 33 -25 106 0 64 -3 80 -15 80 -11 0 -15 -12 -15
-45 0 -25 -4 -45 -10 -45 -5 0 -10 7 -10 15 0 9 -9 15 -25 15 -20 0 -25 5 -25
25 0 21 -5 25 -29 25 -23 0 -30 -5 -33 -25 -4 -17 -1 -25 8 -25 8 0 14 -7 14
-15 0 -8 -7 -15 -15 -15 -9 0 -15 -9 -15 -25 0 -16 6 -25 15 -25 8 0 15 -4 15
-10 0 -5 21 -11 48 -11 29 -1 36 -4 20 -6 -16 -2 -28 -9 -28 -14 0 -5 -22 -9
-50 -9 l-50 0 0 50 c0 47 -2 50 -25 50 -23 0 -25 3 -25 50 0 38 -4 50 -15 50
-11 0 -15 -11 -15 -40 0 -22 -4 -40 -9 -40 -5 0 -13 -9 -16 -20 -6 -20 -45
-29 -45 -10 0 6 -22 10 -50 10 -47 0 -50 -2 -50 -25 0 -14 -4 -25 -10 -25 -5
0 -10 11 -10 25 0 22 -4 24 -37 22 -35 -2 -38 1 -41 26 -3 21 -9 27 -28 27
-18 0 -27 9 -39 36 -8 20 -12 47 -9 60 5 18 2 24 -10 24 -9 0 -16 7 -16 15 0
8 -4 15 -8 15 -18 0 -31 -25 -26 -54 4 -26 3 -28 -6 -11 -8 16 -9 12 -6 -19 5
-50 -10 -156 -24 -170 -8 -8 -9 -6 -5 7 4 10 2 17 -4 17 -6 0 -11 4 -11 10 0
5 6 7 13 4 19 -7 21 60 2 76 -9 7 -18 10 -22 7 -3 -4 -13 1 -22 11 -37 42 -67
31 -110 -38 -11 -19 -21 -30 -21 -24 0 5 6 19 14 29 11 15 11 21 -2 36 -8 9
-21 15 -29 12 -8 -3 -10 -9 -5 -12 5 -3 1 -19 -9 -36 l-19 -30 0 43 0 43 -22
-21 c-17 -16 -19 -23 -10 -32 20 -20 14 -23 -36 -23 -46 -1 -47 -2 -44 -29 2
-18 0 -26 -7 -22 -7 5 -10 -26 -8 -94 1 -77 6 -103 17 -110 11 -7 12 -12 4
-17 -7 -5 -14 -19 -17 -33 -2 -14 -5 -1 -6 28 0 31 -5 52 -12 52 -8 0 -10 20
-6 66 4 57 3 65 -12 62 -11 -2 -17 -16 -19 -41 -3 -30 -7 -37 -18 -33 -9 3
-31 6 -50 6 -38 0 -43 10 -17 36 13 13 14 19 5 22 -9 3 -6 12 9 33 11 16 18
36 15 44 -3 8 -2 14 2 14 18 -3 26 2 16 9 -12 8 -27 95 -15 87 4 -2 8 2 8 9 0
8 -6 12 -12 9 -15 -5 -28 24 -18 39 3 6 2 8 -3 5 -6 -3 -15 7 -21 24 -6 16 -7
27 -2 23 5 -3 9 -2 9 1 0 12 -55 57 -92 76 -21 11 -38 27 -38 36 0 9 -3 14 -6
10 -9 -8 -57 17 -75 39 -9 11 -9 15 -1 10 6 -4 12 -3 12 2 0 5 9 13 20 18 14
6 17 13 10 24 -7 12 -12 11 -31 -5 -21 -19 -22 -19 -16 -2 5 14 2 20 -13 24
-12 3 -17 10 -13 17 4 6 8 16 10 21 1 6 5 21 9 34 5 17 4 22 -5 17 -11 -7 -10
9 6 67 7 26 -4 21 -43 -23 -20 -22 -42 -40 -50 -40 -8 0 -11 -6 -8 -15 8 -19
24 -15 46 10 20 23 23 14 7 -17 -8 -15 -8 -22 1 -28 17 -11 -8 -80 -27 -73 -7
3 -13 9 -13 14 0 5 -12 27 -26 48 -14 21 -26 55 -27 74 -1 19 -4 33 -6 31 -3
-2 -13 13 -22 33 -18 38 -18 38 5 48 31 14 93 86 111 129 8 20 19 36 24 36 5
0 8 6 8 13 -1 6 5 33 12 60 10 35 18 47 33 47 24 0 78 58 78 83 0 12 -4 16
-12 11 -7 -5 -3 5 10 20 12 16 22 37 22 48 0 11 5 28 10 39 11 19 9 20 -22 23
-7 1 -15 19 -18 41 -4 33 -8 39 -25 37 -11 -2 0 9 25 24 25 15 46 31 48 35 2
4 18 27 36 51 19 23 39 60 46 81 17 53 23 46 15 -15 -8 -58 -47 -117 -96 -147
-20 -13 -25 -21 -18 -31 5 -9 9 -10 9 -3 0 6 9 15 20 18 25 8 103 112 95 125
-3 6 -2 10 4 10 6 0 8 6 6 13 -2 6 2 39 9 72 13 57 14 58 15 20 1 -22 8 -53
16 -69 8 -15 15 -40 15 -55 0 -39 33 -85 75 -105 21 -10 33 -22 28 -27 -15
-15 -160 -31 -182 -19 -13 7 -22 7 -26 0 -3 -5 -12 -10 -18 -10 -7 0 2 11 18
25 41 33 20 31 -45 -4 -50 -27 -51 -30 -31 -40 12 -7 26 -9 32 -6 5 4 45 7 87
6 72 0 108 6 267 52 45 13 51 18 62 53 15 50 16 107 2 137 -9 20 -6 33 15 75
39 77 34 174 -13 277 -27 58 -51 140 -51 175 0 49 -32 125 -59 140 -12 6 -21
18 -21 26 0 8 -15 21 -32 29 -18 7 -39 23 -46 34 -15 25 -47 27 -60 4 -9 -14
-10 -14 -16 5 -9 27 -42 29 -55 4 -7 -14 -3 -29 19 -63 24 -36 28 -52 24 -80
l-6 -36 -63 1 c-36 1 -69 -4 -75 -10 -17 -17 9 -54 38 -54 32 0 60 -16 98 -56
17 -19 41 -34 53 -34 11 0 21 -5 21 -11 0 -5 4 -8 10 -4 15 9 -1 35 -22 35
-11 0 -37 18 -57 40 -25 27 -48 42 -76 48 -65 13 -41 27 40 24 69 -4 87 3 68
22 -4 4 -6 24 -4 44 2 28 -5 47 -28 79 -17 23 -26 45 -22 48 5 3 20 -9 32 -27
12 -18 31 -41 41 -51 15 -14 16 -22 8 -32 -9 -11 -5 -17 19 -30 28 -14 31 -14
31 0 0 8 -4 15 -10 15 -5 0 -10 7 -10 15 0 9 -9 34 -21 56 -20 41 -20 57 0 44
6 -3 11 -17 11 -30 0 -12 11 -33 25 -46 13 -13 25 -32 25 -41 0 -10 6 -18 14
-18 8 0 18 -9 21 -20 3 -11 11 -20 16 -20 15 0 10 32 -8 53 -17 19 -17 19 4 6
27 -16 42 -49 49 -108 6 -47 12 -65 64 -211 40 -115 38 -193 -9 -244 -10 -12
-24 -38 -30 -58 -18 -54 -47 -59 -87 -15 -24 25 -34 48 -39 84 -3 26 -13 61
-21 76 -11 19 -16 61 -17 135 -1 65 -6 106 -12 105 -6 -2 -10 -46 -10 -108 0
-58 -3 -105 -7 -105 -5 0 -8 -7 -8 -16 0 -8 -4 -13 -9 -10 -8 5 -49 -30 -77
-66 -6 -8 -30 -53 -52 -101 -22 -48 -48 -90 -56 -93 -9 -3 -16 -12 -16 -20 0
-8 -4 -14 -10 -14 -5 0 -6 8 -3 18 4 9 -12 -2 -36 -26 -54 -55 -75 -44 -23 12
41 44 55 66 72 110 17 46 -4 27 -34 -29 -15 -30 -45 -70 -66 -89 -21 -19 -36
-37 -33 -40 3 -3 -6 -8 -20 -11 -17 -5 -47 4 -98 29 -117 57 -116 54 -81 118
17 29 40 84 52 121 17 53 28 70 47 78 40 15 145 10 228 -11 85 -22 145 -26
145 -10 0 10 -5 12 -55 15 -16 1 -52 8 -80 15 -56 15 -218 19 -252 7 -20 -7
-23 -5 -23 17 0 14 5 26 10 26 6 0 10 11 10 25 0 14 -4 25 -9 25 -5 0 -15 16
-21 36 -11 31 -10 38 3 45 13 8 12 16 -8 64 -27 68 -48 91 -104 117 -63 29
-103 32 -156 14 -45 -15 -47 -15 -52 3 -5 18 -42 41 -67 41 -26 0 -66 -52 -66
-86 0 -18 5 -36 10 -39 6 -3 10 -15 10 -26 0 -15 -4 -17 -17 -10 -21 10 -118
30 -184 38 -98 11 -234 -34 -361 -120 l-36 -25 -4 96 c-2 54 -1 115 3 137 5
39 6 39 13 12 5 -15 6 -36 3 -47 -3 -13 0 -20 9 -20 8 0 11 -6 8 -15 -4 -8 -1
-15 5 -15 6 0 15 10 20 23 5 13 15 28 23 35 12 9 14 8 14 -10 -1 -11 5 -23 13
-26 9 -3 11 0 7 7 -4 6 -4 26 0 44 l8 32 5 -29 c10 -48 35 -55 72 -21 18 17
29 24 25 18 -4 -7 -3 -13 3 -13 6 0 8 -7 5 -15 -7 -17 11 -21 21 -5 4 6 10 8
14 6 11 -7 51 22 51 37 0 8 -3 8 -12 -1 -18 -18 -27 -15 -21 7 6 24 -22 35
-50 19 -20 -10 -21 -10 -9 5 8 9 12 22 10 28 -3 8 -21 -3 -46 -25 -53 -48 -58
-24 -7 33 20 22 32 42 28 44 -5 3 -34 -12 -66 -33 -59 -40 -71 -44 -37 -12 23
21 39 82 21 82 -6 0 -11 15 -11 33 0 17 -4 39 -10 47 -7 11 -11 9 -19 -13 -6
-16 -14 -46 -17 -68 -4 -22 -15 -57 -25 -77 l-19 -36 0 35 c0 20 6 57 14 82
18 59 3 71 -23 20 -15 -30 -41 -132 -41 -161 0 -2 -16 27 -36 65 -55 107 -103
147 -226 192 -93 34 -169 44 -348 45 -163 1 -244 -4 -280 -17 -61 -22 -75 -13
-42 26 8 9 11 17 6 17 -5 0 -23 -17 -41 -37 -17 -21 -34 -35 -37 -32 -8 8 37
131 65 176 29 47 18 52 -12 6 -22 -34 -32 -54 -67 -143 -9 -24 -10 -24 -21 15
-18 68 -80 118 -196 159 -55 20 -107 36 -116 36 -10 0 -21 16 -29 43 -8 23
-20 50 -28 60 -19 21 -70 23 -79 1z m60 -7 c21 -14 36 -87 18 -87 -6 0 -11 11
-11 24 0 33 -10 57 -21 50 -5 -3 -6 -24 -2 -47 6 -38 5 -41 -10 -28 -10 8 -17
28 -17 51 0 51 11 61 43 37z m111 -126 c6 -5 40 -18 76 -29 42 -13 79 -33 105
-56 21 -20 34 -36 27 -36 -7 0 -12 5 -12 10 0 6 -7 10 -15 10 -22 0 -18 -27 5
-40 11 -6 22 -23 26 -38 11 -51 15 -62 24 -62 5 0 10 8 12 18 8 34 29 -26 23
-62 -6 -27 -11 -33 -26 -29 -10 3 -19 0 -19 -6 0 -6 7 -11 15 -11 19 0 39 -36
24 -45 -7 -5 -4 -14 7 -26 22 -24 12 -35 -45 -48 l-43 -9 7 46 c3 26 7 58 8
72 1 14 6 31 11 39 7 11 5 13 -8 8 -28 -11 -38 2 -21 26 20 29 19 50 -5 72
-11 10 -20 28 -20 41 0 57 -56 104 -87 73 -7 -7 -9 -3 -6 14 3 14 0 27 -5 31
-14 9 -54 -58 -46 -78 10 -26 -4 -66 -21 -60 -10 4 -15 27 -17 87 l-3 82 -22
-37 c-13 -22 -19 -45 -16 -59 4 -16 2 -20 -8 -17 -10 4 -13 20 -10 63 3 51 1
57 -11 44 -8 -8 -18 -27 -22 -42 -6 -25 -26 -39 -26 -17 0 6 -5 10 -11 10 -6
0 -8 -7 -5 -16 5 -13 -2 -15 -46 -12 -32 2 -52 -1 -55 -8 -4 -11 15 -16 110
-30 62 -10 53 -24 -12 -18 -78 9 -117 -6 -46 -17 28 -4 79 -14 115 -22 l65
-15 -75 -1 c-82 -1 -120 -8 -120 -22 0 -5 11 -9 25 -9 l26 0 -21 -22 c-30 -32
-25 -51 20 -78 22 -14 42 -33 46 -43 3 -10 17 -25 31 -34 23 -16 24 -17 7 -24
-15 -6 -13 -8 9 -8 16 -1 42 8 57 19 l28 20 6 -25 c9 -36 50 -53 74 -32 22 20
68 22 75 4 3 -7 -6 -31 -19 -53 -21 -35 -33 -94 -18 -94 3 0 28 25 55 54 28
30 60 58 71 62 12 4 29 15 38 26 15 19 17 19 30 3 17 -20 21 -156 5 -167 -5
-4 -23 -8 -39 -8 -24 0 -27 -2 -16 -15 10 -12 9 -15 -6 -16 -11 -1 -25 -1 -32
0 -8 1 -19 -2 -25 -7 -17 -13 -105 -14 -113 -1 -5 8 -8 8 -13 1 -4 -6 -11 -8
-17 -4 -8 5 -7 17 3 41 14 33 14 33 29 13 9 -13 21 -19 30 -15 12 5 12 8 -5
20 -11 7 -18 20 -15 28 4 9 0 15 -10 15 -9 0 -16 -4 -16 -10 0 -5 -13 -10 -30
-10 -24 0 -28 3 -23 18 5 14 3 15 -7 5 -10 -9 -17 -10 -27 -2 -21 18 -15 29
17 29 22 0 30 5 30 18 0 13 -8 17 -33 17 -17 0 -36 -3 -42 -7 -5 -3 -36 -13
-68 -22 -52 -15 -138 -56 -160 -76 -23 -21 -127 28 -171 81 -64 76 -59 234 9
302 24 25 36 82 20 99 -24 23 -23 63 1 72 12 5 15 2 10 -11 -4 -9 -2 -19 4
-23 6 -4 12 -16 13 -28 1 -24 19 -34 42 -26 25 10 17 41 -15 54 -38 16 -29 32
10 18 26 -9 36 -6 82 24 60 38 94 55 123 61 31 6 127 -2 139 -12z m120 -113
c28 -56 16 -124 -24 -128 -36 -5 -40 0 -40 48 0 41 28 112 44 112 3 0 12 -14
20 -32z m449 -97 c3 -12 -1 -22 -12 -26 -15 -6 -15 -8 1 -19 10 -7 15 -16 11
-20 -13 -13 -31 -77 -26 -95 3 -12 11 -17 27 -14 16 3 22 12 24 36 2 17 6 34
10 37 15 10 43 62 38 67 -3 4 9 17 26 30 25 18 45 23 90 23 61 0 82 -16 59
-44 -6 -7 -8 -16 -4 -20 4 -4 1 -11 -7 -16 -8 -5 -15 -15 -16 -22 0 -7 -6 -25
-12 -40 -6 -15 -9 -34 -6 -42 8 -20 34 -8 34 15 0 11 14 33 30 49 17 16 30 34
30 40 0 5 5 10 11 10 7 0 19 8 28 18 24 28 46 32 90 19 l41 -12 -45 -20 c-25
-11 -45 -25 -45 -31 0 -6 -7 -17 -15 -24 -9 -7 -13 -15 -10 -18 2 -3 -10 -17
-28 -33 -25 -22 -29 -31 -20 -40 10 -10 18 -8 36 9 13 12 29 22 36 22 7 0 9 5
6 11 -4 6 2 13 14 16 12 3 21 9 21 14 0 5 8 9 18 9 10 0 22 4 28 9 40 36 124
29 165 -15 26 -27 18 -49 -12 -33 -11 6 -27 8 -35 5 -8 -3 -14 -1 -14 4 0 17
-80 -27 -131 -71 -27 -24 -53 -46 -58 -49 -15 -9 -30 -79 -20 -86 13 -7 38 25
39 48 0 10 5 15 13 12 8 -3 18 5 25 18 6 13 11 18 11 11 1 -17 31 -4 31 14 0
8 5 11 12 7 6 -4 16 0 22 8 12 16 86 32 86 19 0 -5 11 -8 26 -8 26 0 114 -81
114 -106 0 -6 3 -23 7 -36 l6 -24 -26 19 c-15 10 -27 25 -27 32 0 18 -25 42
-44 42 -9 0 -16 4 -16 8 0 15 -67 12 -80 -3 -6 -7 -17 -12 -24 -9 -7 2 -23
-14 -36 -38 -29 -50 -41 -78 -34 -78 8 0 51 44 62 65 7 11 12 14 12 6 0 -7 6
-11 14 -8 8 3 17 1 20 -6 3 -8 10 -5 21 8 16 19 16 19 10 -7 -7 -29 3 -36 22
-17 8 8 14 5 23 -11 6 -12 14 -19 17 -16 7 7 27 -14 52 -55 22 -36 31 -146 11
-134 -5 3 -10 -2 -11 -12 0 -10 -3 -13 -6 -6 -3 9 -11 9 -29 -3 -23 -16 -24
-15 -24 5 0 12 -4 19 -10 16 -5 -3 -10 -1 -10 6 0 6 -8 9 -20 6 -11 -3 -20 -1
-20 4 0 14 -30 11 -31 -3 0 -10 -2 -10 -6 0 -3 8 -11 5 -24 -10 -16 -20 -18
-20 -19 -5 0 9 -4 17 -8 17 -15 0 -92 -59 -92 -70 0 -13 11 -12 33 4 25 19
144 3 167 -24 3 -3 16 -13 30 -22 37 -23 37 -67 -1 -149 -27 -58 -62 -99 -84
-99 -3 0 -5 11 -5 25 0 31 -18 33 -29 3 -8 -22 -9 -22 -17 -4 -7 19 8 52 23
49 5 -1 10 7 10 18 2 23 -1 23 -32 3 -15 -10 -25 -26 -25 -40 0 -29 -4 -30
-30 -4 -20 20 -23 62 -6 88 4 7 4 12 -1 12 -21 -1 -36 -21 -42 -56 -3 -20 -12
-39 -19 -42 -9 -3 -11 3 -6 22 7 29 2 31 -27 16 -26 -14 -25 10 1 69 28 60 26
86 -9 112 -26 19 -29 29 -41 125 -16 126 -9 228 20 283 16 32 17 41 6 41 -20
0 -44 -67 -52 -144 -7 -67 -17 -77 -29 -29 -7 31 -42 66 -89 91 -18 10 -31 23
-29 29 3 7 -8 15 -24 19 -15 3 -46 14 -68 24 -54 25 -115 33 -148 21 -15 -6
-27 -7 -27 -1 0 5 -12 10 -27 12 -28 4 -24 8 22 23 9 2 15 16 15 33 0 16 3 32
7 36 7 6 12 25 16 57 3 22 30 46 58 52 13 2 27 5 30 6 4 0 9 -8 12 -18z m-398
-27 c0 -11 -6 -18 -14 -16 -8 2 -18 -3 -22 -10 -7 -10 -9 -9 -9 5 0 9 5 17 10
17 6 0 10 7 10 16 0 9 6 14 13 12 6 -3 12 -13 12 -24z m211 -9 c2 -19 -8 -32
-42 -55 -49 -33 -53 -27 -24 30 12 24 28 40 42 43 13 2 23 5 23 6 0 0 1 -10 1
-24z m-422 -6 c30 -14 39 -34 26 -59 -13 -25 -43 -33 -95 -26 -45 7 -92 46
-80 66 18 28 104 39 149 19z m116 -24 c19 -19 41 -35 49 -35 9 0 2 -9 -16 -21
-17 -11 -42 -37 -54 -57 -20 -34 -22 -35 -30 -17 -4 11 -8 53 -8 93 -1 84 8
90 59 37z m227 13 c-3 -8 -6 -5 -6 6 -1 11 2 17 5 13 3 -3 4 -12 1 -19z m107
-36 c3 -5 2 -18 -1 -30 -4 -17 -13 -22 -40 -22 -19 0 -44 -5 -56 -11 -13 -6
-4 7 20 30 41 39 66 50 77 33z m1023 -59 c-3 -10 -5 -4 -5 12 0 17 2 24 5 18
2 -7 2 -21 0 -30z m-1263 19 c3 -5 -6 -15 -19 -22 -27 -14 -31 -25 -15 -35 15
-9 12 -25 -5 -25 -8 0 -15 7 -15 15 0 18 -21 20 -39 3 -11 -11 -12 -9 -3 7 22
43 82 78 96 57z m2786 -12 c12 -23 3 -25 -22 -6 -22 16 -23 26 -3 26 8 0 19
-9 25 -20z m-2966 -5 c-4 -8 -10 -15 -15 -15 -5 0 -9 -7 -9 -15 0 -15 -26 -20
-54 -9 -29 11 -18 34 17 34 17 0 39 5 47 10 20 13 20 13 14 -5z m379 -34 c-3
-13 2 -21 17 -26 15 -5 19 -12 15 -26 -4 -12 -1 -21 9 -25 9 -3 13 -10 10 -16
-3 -5 3 -18 14 -29 23 -21 42 -8 22 16 -7 9 -8 15 0 20 19 11 10 25 -16 25
-14 0 -23 4 -20 9 15 24 169 21 160 -4 -4 -8 10 -15 41 -19 36 -6 44 -10 36
-20 -14 -16 -4 -26 25 -26 12 0 32 -11 45 -25 13 -13 32 -25 42 -25 9 0 16 -3
15 -7 -1 -5 15 -42 34 -83 20 -41 38 -92 41 -113 5 -33 4 -36 -12 -27 -10 5
-38 9 -62 9 -24 -1 -64 3 -89 8 -43 8 -45 9 -61 63 -11 36 -23 57 -35 60 -11
4 -36 14 -57 24 -46 20 -66 18 -81 -9 -6 -11 -14 -22 -17 -25 -8 -6 -34 -65
-50 -111 -17 -50 10 -105 62 -128 l38 -16 -38 -27 -37 -27 4 30 c3 21 -1 31
-13 35 -9 4 -20 1 -24 -5 -10 -15 -2 -59 11 -67 5 -3 -15 -29 -44 -58 -61 -60
-148 -168 -148 -185 0 -7 -19 12 -42 40 -51 62 -141 126 -204 145 -56 17 -57
-3 -1 -22 39 -14 105 -56 148 -95 28 -26 86 -100 88 -111 3 -20 17 -10 26 18
6 17 17 41 25 53 14 20 18 21 43 10 15 -7 27 -16 27 -21 0 -4 7 -8 16 -8 8 0
13 -4 10 -9 -4 -5 -1 -11 5 -13 6 -2 12 -16 12 -31 1 -15 4 -27 7 -27 10 0 10
-86 -1 -118 -13 -39 -6 -53 11 -23 13 25 42 180 35 191 -3 4 -5 30 -6 56 -1
27 -6 60 -11 74 -17 44 -17 78 -2 84 9 3 12 2 9 -5 -4 -6 0 -16 9 -22 9 -7 17
-30 18 -54 2 -24 7 -43 12 -43 4 0 6 -6 3 -14 -3 -8 -1 -16 6 -19 7 -2 11 -25
11 -60 -1 -31 2 -57 7 -57 10 0 -9 -66 -33 -114 -11 -22 -22 -56 -23 -75 -2
-20 -6 -45 -10 -56 -6 -17 -4 -17 14 4 12 13 21 31 21 40 0 9 9 31 21 50 11
18 21 52 23 75 1 23 5 47 9 53 9 14 6 223 -3 243 -1 3 -1 13 0 24 1 10 -3 16
-8 12 -5 -3 -7 5 -5 18 3 13 0 27 -6 30 -23 15 -8 34 64 81 41 27 75 55 75 63
0 25 51 62 86 62 36 0 42 -8 22 -28 -22 -22 0 -23 38 -3 49 27 69 26 96 -1
l21 -21 -28 -23 c-36 -28 -30 -38 13 -22 64 25 95 -31 45 -80 -15 -16 -45 -63
-66 -105 -36 -75 -51 -95 -45 -59 1 9 -1 22 -4 28 -4 6 -9 26 -10 45 -2 35
-22 66 -32 50 -8 -13 -14 -101 -7 -101 3 0 6 -21 6 -48 1 -33 5 -46 14 -44 14
3 -36 -97 -72 -142 l-23 -28 2 33 c1 19 5 42 9 52 4 10 3 17 -4 17 -6 0 -8 6
-5 14 3 8 1 30 -4 49 -5 19 -6 41 -1 48 4 7 4 18 -1 24 -5 6 -5 27 0 50 12 51
12 57 1 50 -5 -3 -11 3 -13 12 -3 15 -7 14 -21 -8 -12 -18 -16 -36 -11 -54 5
-20 9 -24 16 -13 11 16 0 -49 -18 -112 -8 -28 -10 -46 -4 -48 6 -2 5 -12 -2
-25 -8 -15 -8 -22 0 -25 7 -2 8 -11 2 -28 -6 -15 -6 -24 1 -24 6 0 5 -9 -3
-22 -11 -21 -15 -36 -20 -76 -2 -18 -115 -107 -163 -128 -22 -9 -50 -21 -62
-27 -11 -5 -26 -7 -31 -3 -6 3 -12 2 -14 -3 -1 -5 -31 -13 -65 -18 -34 -5 -60
-6 -57 -1 3 4 14 8 24 8 22 0 35 16 19 25 -6 4 2 18 21 35 28 25 30 29 14 38
-16 9 -16 11 4 23 23 15 30 39 10 39 -6 0 -2 11 11 23 13 15 19 30 15 41 -3 9
1 27 10 41 9 14 13 25 8 25 -5 0 -7 16 -6 35 3 33 2 35 -21 29 -20 -5 -25 -2
-25 12 -1 12 -8 6 -21 -19 -19 -36 -18 -77 1 -77 4 0 6 -10 2 -22 -4 -16 -2
-19 9 -13 8 5 5 -2 -5 -14 -11 -12 -21 -32 -23 -44 -2 -12 -13 -31 -24 -43
-15 -16 -17 -23 -7 -26 7 -3 -6 -13 -30 -23 -41 -18 -55 -35 -30 -35 7 0 -4
-9 -25 -20 -21 -11 -43 -18 -49 -14 -5 4 -14 1 -18 -6 -6 -9 -23 -10 -66 -4
-33 4 -49 9 -36 12 17 3 22 10 22 32 0 25 5 30 35 36 19 3 32 10 29 15 -3 5 0
9 6 9 7 0 10 7 6 15 -3 9 0 15 9 15 8 0 15 9 15 19 0 10 7 22 16 25 8 3 12 11
9 17 -4 6 4 23 18 37 27 29 44 72 29 72 -5 0 -34 -27 -65 -60 -31 -33 -62 -60
-67 -60 -6 0 -8 -4 -5 -10 3 -5 1 -10 -5 -10 -7 0 -10 -7 -6 -15 4 -10 -1 -15
-14 -15 -24 0 -70 -21 -70 -32 0 -4 14 -8 32 -8 45 0 28 -11 -24 -15 -23 -2
-49 2 -55 7 -9 7 -13 7 -13 -1 0 -6 -10 -10 -22 -10 -13 1 -30 -1 -38 -5 -8
-3 -33 5 -55 19 -34 21 -37 24 -17 25 14 0 22 5 20 12 -6 18 13 34 50 43 18 3
32 10 32 15 0 4 11 11 25 14 14 4 25 13 25 20 0 8 16 17 38 21 20 4 42 10 47
15 6 4 22 10 38 14 15 3 27 10 27 15 0 10 -84 -4 -162 -29 -33 -10 -66 -16
-74 -13 -8 3 -16 -2 -20 -10 -7 -20 -83 -33 -161 -28 -16 1 -30 18 -55 68 -23
47 -29 68 -20 70 6 3 12 10 12 18 0 8 10 11 30 9 17 -2 30 0 30 5 0 5 11 12
25 15 14 4 25 11 25 17 0 6 5 7 12 3 7 -5 9 -1 6 12 -4 17 -1 20 25 16 25 -4
29 -2 24 12 -5 12 0 16 23 16 16 0 32 5 36 11 3 6 15 9 25 6 11 -3 19 -2 19 2
0 6 110 4 143 -3 9 -2 17 -1 17 3 0 5 -28 15 -63 24 -61 15 -112 13 -123 -4
-3 -5 -16 -9 -29 -9 -13 0 -27 -4 -30 -10 -3 -5 -19 -10 -36 -10 -16 0 -29 -3
-29 -8 0 -4 -17 -6 -37 -5 -50 3 -76 -6 -69 -22 4 -10 -2 -11 -26 -4 -39 11
-38 10 -48 54 -7 31 -5 38 15 51 13 8 38 16 57 16 18 0 41 7 51 16 9 8 17 12
17 9 0 -3 11 0 25 7 19 10 37 11 71 4 30 -7 49 -7 56 0 11 11 -43 24 -112 27
-48 2 -130 31 -130 46 0 5 -4 9 -10 9 -5 0 -10 -9 -10 -21 0 -15 -4 -19 -16
-15 -9 3 -20 6 -25 6 -15 0 -7 88 8 94 7 3 13 1 13 -5 0 -12 72 -8 81 5 4 5
10 -1 14 -13 8 -26 25 -28 25 -1 0 16 6 18 32 15 18 -2 38 -11 44 -19 6 -9 14
-13 17 -10 3 3 12 2 19 -2 13 -8 18 -10 37 -13 5 0 17 -8 26 -17 9 -9 18 -14
21 -11 10 10 -30 67 -46 67 -8 0 -28 11 -44 25 -16 14 -35 25 -43 25 -7 0 -13
5 -13 10 0 6 -4 9 -9 8 -4 -2 -18 8 -29 22 -18 21 -23 23 -32 10 -8 -13 -10
-12 -10 4 0 10 -7 24 -15 30 -8 6 -17 26 -19 45 -3 29 2 40 30 68 29 28 38 32
54 23 11 -6 57 -13 102 -16 46 -3 88 -7 95 -9 8 -3 0 -24 -22 -61 -19 -32 -35
-65 -35 -73 0 -9 -3 -27 -7 -40 -4 -15 -2 -22 4 -18 6 4 13 24 16 44 4 21 20
60 37 86 28 45 32 47 75 47 38 0 45 -3 45 -20 0 -11 4 -20 9 -20 5 0 7 9 4 20
-6 24 -1 25 38 4 17 -8 50 -18 72 -21 61 -8 161 -3 165 8 2 5 15 9 28 9 14 0
27 7 30 15 4 8 13 15 21 15 37 0 54 59 28 99 -3 6 -1 11 5 11 18 0 2 59 -27
102 -21 31 -23 41 -13 53 7 8 23 15 35 15 18 0 22 -4 18 -19z m1042 -46 c-8
-21 -18 -35 -21 -32 -3 3 2 22 11 42 23 47 31 38 10 -10z m830 -89 c63 -29 85
-54 75 -81 -7 -16 -9 -17 -9 -3 -1 17 -18 34 -26 26 -3 -2 0 -20 5 -39 l9 -34
-48 53 c-26 28 -51 52 -54 52 -11 0 -8 -38 3 -45 5 -3 15 -15 20 -25 9 -16 8
-18 -7 -13 -12 5 -15 2 -11 -9 4 -9 1 -21 -5 -27 -8 -8 -8 -11 1 -11 6 0 9 -7
6 -15 -5 -12 3 -15 35 -15 29 0 41 4 41 14 0 12 6 13 29 5 34 -12 63 -85 39
-100 -19 -12 -33 -5 -33 16 0 10 -8 23 -17 29 -14 8 -21 6 -33 -9 -8 -11 -13
-27 -11 -36 2 -11 -3 -15 -18 -12 -26 5 -59 -28 -54 -53 2 -13 20 -21 72 -31
38 -7 73 -10 78 -7 18 12 6 36 -29 57 -29 16 -33 23 -20 25 10 2 23 -1 30 -6
7 -5 20 -8 31 -6 17 2 18 -2 12 -50 -7 -61 -30 -112 -56 -126 -11 -6 -37 -7
-59 -4 -44 7 -53 17 -107 121 -18 35 -51 86 -72 115 -22 29 -43 63 -47 76 -4
13 -16 27 -28 32 -22 9 -22 9 1 9 17 1 26 -7 33 -29 15 -40 29 -38 29 4 0 19
5 38 11 41 5 4 8 12 6 18 -5 15 28 65 62 94 33 29 54 29 116 -1z m-2285 -31
c0 -8 -4 -15 -10 -15 -5 0 -24 -13 -42 -29 -31 -27 -37 -28 -93 -22 -56 6 -58
7 -37 19 36 21 145 61 165 62 9 0 17 -7 17 -15z m17 -59 c-10 -14 -26 -21 -52
-22 l-39 -1 39 33 c30 25 43 30 52 22 11 -9 11 -15 0 -32z m1728 14 c-3 -5
-12 -10 -20 -10 -7 0 -22 -11 -33 -25 -11 -14 -25 -25 -31 -25 -6 0 -11 -7
-11 -15 0 -8 -5 -15 -11 -15 -6 0 -9 -7 -5 -15 3 -9 0 -15 -9 -15 -8 0 -15 -6
-15 -14 0 -8 -7 -17 -16 -20 -8 -3 -12 -10 -9 -16 3 -5 -1 -10 -9 -10 -20 0
-21 -36 -3 -47 8 -4 22 -21 32 -36 14 -21 21 -25 29 -16 8 8 8 13 -1 16 -16 6
-17 33 -2 33 6 0 9 6 6 14 -3 8 7 26 24 40 16 14 29 33 29 41 0 8 5 15 11 15
8 0 8 5 -1 15 -11 13 -8 15 14 15 14 0 26 4 26 10 0 5 7 7 15 4 8 -4 15 -2 15
3 0 12 75 38 87 30 5 -3 15 -2 23 3 9 5 20 4 28 -2 10 -9 15 -9 21 0 10 17 79
-36 117 -90 45 -63 48 -70 33 -67 -24 4 -89 -13 -89 -23 0 -5 -4 -7 -9 -4 -10
7 -91 -24 -91 -35 0 -4 -14 -21 -31 -37 -31 -29 -31 -30 -11 -36 27 -9 62 9
62 31 0 13 3 14 12 5 16 -16 31 -15 25 1 -3 9 9 12 44 11 27 0 49 3 49 7 0 5
11 4 25 -1 20 -8 25 -6 25 7 0 13 7 10 30 -12 17 -16 30 -31 30 -34 0 -4 -15
-7 -32 -8 -55 -4 -130 -20 -137 -29 -6 -9 -22 -15 -56 -19 -11 -1 -24 -3 -29
-4 -5 0 -6 -4 -3 -8 4 -3 -1 -11 -11 -17 -52 -31 -86 -56 -76 -56 7 0 14 -7
17 -14 4 -10 1 -13 -9 -9 -11 4 -12 0 -6 -18 5 -13 14 -24 21 -25 7 -2 7 0 1
3 -15 7 35 51 65 59 28 7 31 14 13 33 -11 11 -9 11 9 2 30 -15 56 -14 50 3 -4
9 3 13 21 13 15 0 42 3 59 6 18 3 35 2 38 -3 3 -5 13 -9 23 -9 44 1 95 -10
102 -21 4 -7 12 -10 18 -6 5 3 12 0 15 -7 3 -9 -7 -11 -37 -9 -24 2 -62 -2
-87 -9 -24 -7 -48 -11 -54 -9 -22 7 -51 7 -60 0 -5 -4 -22 -10 -36 -14 -30 -7
-46 -35 -27 -47 15 -9 13 -11 -31 -34 -18 -9 -52 -34 -75 -55 l-42 -39 -76 77
c-71 71 -159 192 -141 192 4 0 3 4 -3 8 -5 4 -17 25 -25 46 -8 22 -21 42 -28
44 -10 3 -12 0 -6 -14 22 -54 20 -57 -14 -40 -17 9 -35 14 -40 12 -11 -7 -53
29 -44 37 3 4 1 13 -5 20 -7 8 -9 16 -6 20 3 3 8 21 10 39 3 18 6 44 8 58 6
42 23 77 43 84 14 6 15 4 6 -5 -9 -9 -8 -15 3 -26 13 -13 12 -19 -7 -49 -14
-23 -19 -43 -15 -59 8 -29 36 -34 36 -6 0 11 5 23 10 26 6 3 10 11 10 16 0 6
-4 8 -9 4 -25 -15 28 75 56 96 18 13 31 30 28 36 -5 14 43 42 90 54 45 11 77
10 70 -1z m-1668 -16 c18 -5 20 -9 11 -29 -9 -21 -12 -22 -39 -8 -24 12 -28
18 -18 29 13 16 15 16 46 8z m517 -34 c6 -6 2 -12 -8 -16 -22 -8 -69 13 -60
27 7 11 53 4 68 -11z m-55 -31 c17 -6 31 -18 31 -26 0 -12 -8 -14 -37 -8 -45
8 -47 10 -40 30 8 18 6 18 46 4z m106 -35 c0 -23 6 -48 12 -56 11 -12 9 -18
-7 -33 -11 -10 -20 -26 -20 -36 0 -24 -65 -56 -83 -40 -8 6 -16 8 -20 5 -11
-12 -46 7 -40 22 3 8 -1 14 -10 14 -17 0 -31 40 -18 53 16 16 71 -3 71 -24 0
-10 -4 -19 -10 -19 -5 0 -10 5 -10 10 0 6 -10 10 -22 10 -20 0 -21 -1 -3 -20
20 -22 45 -26 63 -8 9 9 18 9 37 0 28 -13 34 -2 10 18 -13 11 -13 14 2 26 10
7 19 23 20 36 0 13 4 33 8 46 4 13 3 22 -3 22 -5 0 -13 -10 -17 -22 -6 -20 -8
-21 -12 -5 -6 23 15 49 36 45 12 -3 16 -15 16 -44z m-80 -41 c3 -8 1 -22 -3
-30 -8 -13 -10 -13 -15 0 -3 8 -22 17 -41 21 -38 7 -43 15 -25 33 14 14 76 -4
84 -24z m1757 -25 c-7 -7 -12 -8 -12 -2 0 6 3 14 7 17 3 4 9 5 12 2 2 -3 -1
-11 -7 -17z m-65 -70 c-3 -8 -6 -5 -6 6 -1 11 2 17 5 13 3 -3 4 -12 1 -19z
m35 0 c-7 -7 -12 -8 -12 -2 0 6 3 14 7 17 3 4 9 5 12 2 2 -3 -1 -11 -7 -17z
m38 -3 c0 -8 -4 -15 -10 -15 -5 0 -7 7 -4 15 4 8 8 15 10 15 2 0 4 -7 4 -15z
m621 -118 c17 -66 127 -168 165 -153 15 6 18 -13 8 -50 -4 -15 -18 -23 -52
-30 -41 -8 -53 -6 -96 15 -48 25 -76 64 -76 108 0 10 -7 31 -15 47 -16 31 -20
103 -6 124 5 9 9 -4 9 -36 2 -55 16 -102 32 -102 13 0 13 42 -1 99 -5 24 -6
53 -3 65 7 18 9 17 16 -14 5 -19 14 -52 19 -73z m-1571 1 c0 -9 14 -32 31 -50
39 -43 76 -120 84 -181 4 -26 11 -50 16 -53 11 -6 -15 -34 -31 -34 -6 0 -10 6
-8 12 3 7 -3 20 -11 30 -9 10 -29 49 -46 88 -16 38 -33 70 -37 70 -12 0 -9
-92 5 -130 6 -20 23 -49 35 -65 l24 -30 -57 -3 c-62 -3 -85 8 -85 42 0 19 2
18 24 -9 13 -16 27 -27 30 -24 4 3 -1 33 -10 65 -8 32 -19 74 -24 92 -8 33 3
205 16 246 6 18 9 16 25 -15 10 -19 18 -42 19 -51z m114 -35 c16 -15 47 -52
69 -80 21 -29 41 -53 43 -53 15 0 -3 35 -46 88 -27 34 -47 62 -45 62 12 0 46
-39 84 -95 22 -33 70 -92 108 -132 l69 -72 -45 -29 c-26 -16 -51 -32 -57 -35
-11 -6 -64 86 -64 109 0 6 -19 41 -42 80 -24 38 -49 81 -57 96 -8 15 -29 44
-48 64 -18 20 -33 38 -33 41 0 8 37 -17 64 -44z m-179 -212 c8 -23 7 -24 -31
-17 -46 9 -161 24 -223 30 -41 5 -165 59 -177 78 -3 4 5 27 18 49 20 37 23 39
26 19 5 -30 49 -100 63 -100 7 0 9 10 5 25 -6 24 -5 25 31 25 4 0 8 -6 8 -13
0 -6 6 -22 13 -35 15 -26 36 -20 27 9 -10 29 19 24 60 -12 21 -19 35 -26 35
-18 0 8 15 21 33 29 23 11 40 32 62 75 l30 60 6 -90 c4 -49 10 -101 14 -114z
m985 179 c0 -4 -6 -13 -14 -19 -11 -9 -15 -7 -18 12 -4 20 -1 23 14 19 10 -2
18 -8 18 -12z m34 -33 c-10 -20 -21 -34 -26 -31 -13 8 -10 19 13 48 28 36 34
27 13 -17z m-800 -72 c1 -6 12 -27 24 -47 13 -21 21 -42 17 -47 -3 -6 3 -28
14 -50 l20 -39 -28 14 c-20 10 -34 30 -50 70 -11 31 -21 66 -21 77 -1 12 -7
33 -14 46 -22 40 -7 57 16 19 11 -18 21 -37 22 -43z m1581 54 c-8 -12 -35 -12
-35 0 0 11 22 20 33 14 4 -2 5 -9 2 -14z m-854 -16 c19 -16 41 -35 50 -44 28
-28 199 -109 230 -109 16 0 29 4 29 9 0 5 11 9 25 9 14 0 25 -6 25 -13 0 -8 5
-15 11 -17 18 -6 -1 -58 -25 -63 -11 -3 -43 0 -71 6 -27 6 -72 13 -100 15 -27
2 -61 6 -75 9 -17 4 -31 0 -45 -12 -18 -17 -21 -17 -36 -3 -8 9 -13 22 -11 28
7 22 -17 12 -34 -13 -9 -14 -12 -29 -8 -37 5 -7 10 -22 11 -33 2 -10 9 -22 15
-26 9 -6 10 -16 2 -36 -12 -36 -40 -38 -36 -3 1 14 -4 30 -13 36 -16 12 -49
84 -38 84 3 0 3 3 0 7 -4 3 -13 -1 -20 -11 -11 -15 -12 -13 -12 16 0 26 -4 33
-20 33 -21 1 -89 -44 -81 -53 3 -3 11 0 19 6 13 11 37 2 40 -14 1 -5 5 -8 10
-6 4 1 7 -2 7 -8 0 -5 -4 -10 -10 -10 -5 0 -10 -5 -10 -11 0 -5 4 -8 8 -5 8 5
9 1 14 -69 2 -28 9 -42 22 -48 14 -6 16 -10 6 -21 -7 -10 -8 -21 -2 -33 11
-21 7 -33 -29 -88 -32 -48 -83 -98 -104 -101 -18 -3 -19 8 -4 23 9 9 8 16 -5
28 -9 9 -20 14 -24 11 -10 -6 -9 24 2 42 4 6 3 12 -2 12 -6 0 -8 9 -5 20 3 11
0 20 -6 20 -6 0 -10 3 -10 8 4 21 -2 42 -10 38 -17 -11 -39 5 -34 25 3 11 -1
21 -10 25 -9 3 -13 12 -10 20 3 8 0 14 -7 14 -10 0 -10 3 0 15 7 9 11 18 8 21
-3 3 -24 -16 -47 -42 -26 -29 -37 -50 -31 -54 7 -5 6 -11 -5 -20 -21 -17 -19
-27 6 -35 19 -6 20 -8 3 -26 -16 -18 -16 -19 1 -19 10 0 28 8 39 17 12 10 5 1
-13 -20 -19 -20 -29 -37 -22 -37 7 0 9 -4 6 -10 -3 -5 3 -15 14 -22 14 -9 17
-16 10 -25 -6 -7 -7 -18 -3 -25 5 -7 7 -21 6 -30 -4 -22 6 -23 32 -1 12 9 4 0
-16 -21 -43 -41 -47 -51 -18 -43 11 3 20 1 20 -5 0 -5 5 -6 10 -3 6 3 10 4 10
1 0 -9 -60 -37 -60 -29 0 5 -4 3 -8 -4 -10 -16 -126 -52 -133 -41 -3 5 -9 9
-13 9 -23 -3 -27 2 -8 9 17 7 22 17 22 46 0 33 -2 36 -25 32 l-24 -5 18 26
c22 30 35 141 18 141 -7 0 -7 4 1 12 18 18 15 31 -5 24 -16 -6 -16 -6 0 12 9
10 17 26 17 35 0 9 5 19 11 23 7 4 7 10 1 16 -11 11 -56 -15 -82 -47 -10 -12
-10 -15 0 -15 9 0 7 -7 -5 -20 -10 -11 -14 -20 -9 -20 5 0 0 -7 -11 -16 -17
-12 -18 -16 -5 -24 12 -8 12 -10 -3 -16 -22 -8 -22 -24 1 -25 10 0 12 -3 5 -6
-7 -2 -13 -11 -13 -19 0 -9 5 -12 10 -9 30 19 -5 -42 -49 -83 -22 -21 -31 -36
-24 -40 8 -5 7 -16 -3 -40 l-14 -33 -70 3 c-38 1 -70 4 -70 6 0 10 31 60 44
71 9 8 16 21 16 31 0 10 6 20 14 23 8 3 17 20 21 37 4 17 13 34 21 37 9 3 14
17 12 40 -1 24 3 38 15 44 9 6 17 15 17 20 0 13 -39 1 -58 -17 -7 -8 -18 -14
-23 -14 -5 0 -9 -5 -9 -11 0 -6 -10 -19 -22 -29 l-23 -19 25 5 c23 5 24 5 5
-7 -11 -6 -28 -20 -38 -31 -10 -10 -24 -15 -30 -11 -9 5 -9 3 0 -8 15 -18 -9
-55 -29 -43 -7 4 -10 4 -6 -1 4 -4 -1 -23 -12 -41 -16 -24 -17 -33 -8 -37 7
-3 -2 -6 -19 -6 -18 -1 -33 -5 -33 -11 0 -5 -7 -10 -15 -10 -8 0 -15 -4 -15
-9 0 -10 -35 -3 -122 25 -32 10 -58 22 -58 27 0 4 -4 5 -10 2 -5 -3 -18 -1
-27 4 -14 8 -6 10 35 11 49 0 53 2 47 20 -5 14 -2 20 9 20 18 0 22 16 6 23 -6
3 -5 4 2 3 18 -4 28 10 67 86 18 37 37 65 42 62 5 -3 8 0 7 7 -2 7 7 18 20 24
26 12 29 25 5 25 -26 0 -103 -56 -103 -74 0 -7 -30 -44 -52 -64 -9 -9 -15 -19
-12 -23 2 -4 -5 -10 -16 -14 -11 -3 -20 -10 -20 -14 0 -10 -73 -45 -120 -58
-19 -5 -60 -11 -90 -11 l-55 -2 38 16 c25 11 36 21 33 30 -3 8 -1 14 5 14 6 0
8 4 5 9 -7 10 22 23 34 16 5 -3 17 7 27 22 23 36 32 45 66 67 15 10 27 22 27
26 0 11 -41 0 -60 -15 -8 -7 -37 -23 -64 -36 -27 -12 -51 -30 -53 -40 -3 -9
-19 -20 -36 -23 -24 -5 -28 -9 -18 -15 10 -7 1 -11 -32 -16 -26 -4 -47 -10
-47 -14 0 -11 -63 -31 -85 -26 -11 2 -32 6 -47 10 -38 7 -35 21 5 29 27 5 33
11 33 29 -1 18 9 25 54 40 30 9 66 26 80 38 l25 20 -40 -7 c-22 -4 -47 -10
-55 -14 -8 -4 -48 -13 -88 -20 -66 -12 -103 -28 -70 -31 7 -1 -4 -5 -26 -9
-46 -9 -103 2 -125 24 -14 15 -10 16 39 16 50 1 53 2 36 15 -23 18 -23 18 37
33 26 7 57 20 68 31 11 10 47 26 80 36 33 10 63 23 66 28 8 13 -97 -1 -114
-14 -7 -6 -20 -9 -29 -7 -12 2 0 16 42 47 32 25 64 51 70 59 7 10 37 16 95 18
92 5 119 10 119 25 0 6 -5 7 -11 4 -18 -12 -157 -16 -164 -5 -3 5 11 29 33 52
21 24 53 68 72 98 18 30 40 66 49 80 8 14 16 31 17 38 4 25 13 25 51 0 51 -33
124 -55 208 -63 101 -9 154 -25 161 -50 10 -31 35 -55 58 -56 12 0 15 -3 9 -6
-7 -2 -13 -11 -13 -19 0 -8 -7 -14 -15 -14 -8 0 -15 -4 -15 -10 0 -5 5 -10 11
-10 5 0 7 -4 4 -10 -3 -5 -15 -10 -26 -10 -10 0 -19 -4 -19 -10 0 -5 -7 -10
-15 -10 -8 0 -15 -4 -15 -10 0 -13 46 -13 69 -1 9 5 27 32 40 59 l24 50 43 -4
c32 -3 45 0 52 11 7 13 14 14 36 5 15 -5 31 -8 36 -5 4 3 23 -9 41 -26 27 -25
39 -30 66 -26 40 7 111 54 179 120 54 52 99 81 228 147 101 51 157 54 207 13z
m-841 -113 c0 -9 8 -27 17 -40 16 -24 16 -24 -1 -11 -17 14 -46 73 -46 94 0
17 29 -26 30 -43z m937 -113 c-3 -7 4 -24 14 -38 16 -20 20 -22 30 -9 8 12 9
9 3 -10 -8 -29 -22 -40 -41 -33 -7 3 -13 -2 -13 -11 0 -10 9 -16 25 -16 35 0
59 40 51 85 -7 34 -6 35 26 34 30 0 31 -1 10 -9 -19 -8 -21 -13 -12 -30 13
-25 37 -26 43 -2 3 11 5 9 6 -8 0 -27 -20 -60 -38 -60 -6 0 -11 -4 -11 -10 0
-18 32 -10 52 12 13 16 18 33 16 55 -3 26 0 33 14 33 28 0 51 -44 43 -82 -9
-41 -22 -58 -46 -58 -11 0 -19 -7 -19 -16 0 -9 -9 -28 -20 -43 -10 -15 -27
-48 -37 -72 -33 -82 -74 -119 -133 -119 -35 0 -90 25 -90 41 0 6 -4 8 -8 5 -5
-3 -24 10 -42 29 l-33 34 39 50 c27 37 40 47 47 38 6 -8 7 -7 4 4 -3 9 5 32
18 51 13 19 28 54 35 77 6 24 22 54 35 67 27 27 40 31 32 11z m294 -66 c-23
-31 -51 -42 -51 -18 0 6 -3 21 -6 32 -7 27 43 49 65 29 11 -10 10 -17 -8 -43z
m-29 -73 c-6 -25 -19 -38 -39 -38 -18 0 5 48 26 53 9 3 17 5 18 6 0 0 -1 -9
-5 -21z m-76 -85 c-17 -69 -68 -160 -114 -200 -26 -24 -53 -41 -60 -38 -7 3
-11 1 -8 -4 7 -11 -22 -23 -36 -14 -7 3 -8 1 -4 -5 12 -19 -70 -14 -117 7 -66
30 -87 34 -87 19 0 -8 -4 -6 -11 5 -5 9 -20 17 -32 17 -22 1 -22 1 -2 12 11 7
26 13 34 14 7 2 23 12 36 24 l23 22 51 -30 c28 -16 49 -31 47 -33 -3 -2 22 -2
55 -1 54 3 62 7 96 43 20 21 46 60 57 86 26 59 55 103 68 103 6 0 7 -12 4 -27z
m-2740 -17 c3 -8 13 -12 24 -9 23 6 32 -8 15 -24 -10 -9 -19 -5 -41 18 -15 16
-22 29 -16 29 7 0 15 -6 18 -14z m439 4 c-27 -12 -43 -12 -25 0 8 5 22 9 30 9
10 0 8 -3 -5 -9z m-348 -62 c-3 -8 -6 -5 -6 6 -1 11 2 17 5 13 3 -3 4 -12 1
-19z m2253 -50 c0 -16 -3 -19 -11 -11 -6 6 -8 16 -5 22 11 17 16 13 16 -11z
m-39 -30 c-13 -10 -27 -15 -32 -12 -5 3 -9 1 -9 -4 0 -6 -8 -13 -17 -16 -10
-3 -1 10 21 29 21 19 43 32 49 28 6 -4 1 -14 -12 -25z m-74 -74 c-3 -3 -12 -4
-19 -1 -8 3 -5 6 6 6 11 1 17 -2 13 -5z m-97 -64 c-33 -26 -49 -26 -19 0 13
10 29 19 34 19 6 1 -1 -8 -15 -19z m230 -15 c0 -5 -5 -3 -10 5 -5 8 -10 20
-10 25 0 6 5 3 10 -5 5 -8 10 -19 10 -25z m-140 11 c0 -3 -4 -8 -10 -11 -5 -3
-10 -1 -10 4 0 6 5 11 10 11 6 0 10 -2 10 -4z m67 -48 c-2 -13 -4 -5 -4 17 -1
22 1 32 4 23 2 -10 2 -28 0 -40z m214 43 c23 37 38 -52 27 -157 -9 -84 -25
-147 -36 -140 -4 2 -8 -10 -8 -27 l-1 -31 18 23 c11 13 19 29 19 37 0 7 8 18
18 23 11 7 13 10 3 11 -9 0 -11 7 -6 23 4 12 10 74 14 137 l6 115 18 -33 c10
-18 15 -37 12 -41 -3 -5 0 -11 6 -13 5 -2 13 -22 16 -46 3 -23 9 -42 14 -42
10 0 -8 -61 -22 -74 -9 -8 -10 -7 -4 3 6 10 4 12 -4 7 -7 -5 -10 -14 -7 -21 4
-12 -3 -44 -25 -102 -7 -20 -16 -23 -59 -23 -28 0 -49 4 -46 9 8 12 -61 -4
-79 -19 -8 -7 -15 -9 -15 -4 0 4 -6 1 -12 -8 -16 -18 -52 -33 -42 -17 5 8 -3
10 -25 7 -18 -3 -31 0 -31 6 0 6 -5 4 -11 -4 -9 -12 -9 -11 -4 5 4 11 15 49
25 85 9 36 22 64 29 63 15 -4 48 30 44 44 -2 6 1 14 6 18 6 3 11 15 11 26 0
12 5 19 12 17 15 -5 48 22 48 40 0 7 5 10 10 7 6 -3 10 -1 10 4 0 6 5 11 10
11 6 0 10 -11 10 -25 0 -14 -4 -25 -8 -25 -5 0 -8 -18 -8 -39 1 -45 10 -62 13
-24 0 14 5 28 10 32 4 3 9 17 10 31 9 94 17 143 21 131 4 -11 6 -11 13 0z
m-361 -21 c-24 -15 -36 -11 -14 4 10 8 21 12 24 10 2 -3 -2 -9 -10 -14z m319
-23 c-1 -20 -3 -25 -6 -13 -4 15 -7 16 -14 5 -6 -9 -9 -10 -9 -2 0 6 4 14 10
18 5 3 6 13 3 22 -4 11 -3 14 5 9 7 -4 11 -22 11 -39z m-89 -32 c0 -3 -4 -5
-9 -5 -5 0 -14 14 -20 31 -16 46 -14 48 9 11 11 -18 20 -35 20 -37z m-319 23
c1 -7 1 -16 0 -20 0 -5 4 -8 10 -8 8 0 8 -5 -1 -15 -16 -19 -31 -20 -24 -1 3
8 1 17 -5 20 -12 7 -4 36 10 36 5 0 10 -6 10 -12z m260 -19 c-5 -13 -10 -19
-10 -12 -1 15 10 45 15 40 3 -2 0 -15 -5 -28z m-301 -34 c0 -17 -4 -24 -12
-19 -6 4 -8 3 -5 -2 3 -6 -15 -30 -40 -54 -26 -25 -44 -37 -40 -28 3 9 9 33
13 52 3 20 10 33 15 30 5 -3 6 1 4 9 -3 7 4 25 15 40 19 23 23 25 36 13 8 -8
14 -26 14 -41z m109 52 c-2 -1 -13 -9 -24 -17 -19 -14 -19 -14 -6 3 7 9 18 17
24 17 6 0 8 -1 6 -3z m-832 -20 c10 4 14 2 10 -4 -4 -6 3 -8 20 -5 14 3 23 1
20 -4 -3 -5 7 -9 21 -10 63 -2 238 -26 245 -33 4 -4 -18 -34 -48 -66 -30 -33
-55 -64 -55 -70 -1 -17 -27 -45 -35 -37 -5 4 -5 2 -1 -5 7 -13 -13 -53 -28
-53 -5 0 -18 -8 -29 -17 -11 -10 -17 -12 -13 -5 4 6 2 12 -3 12 -6 0 -11 -6
-11 -13 0 -19 -35 -49 -45 -40 -4 5 -6 1 -2 -9 3 -9 -2 -23 -14 -34 -10 -9
-19 -29 -20 -43 0 -24 -1 -24 -9 -6 -7 16 -9 11 -9 -20 -1 -29 2 -36 9 -25 8
12 10 9 10 -12 0 -18 -5 -28 -15 -28 -8 0 -15 -4 -15 -10 0 -5 6 -10 14 -10 8
0 17 -4 20 -8 9 -15 -6 -52 -20 -52 -8 0 -14 -5 -14 -11 0 -5 4 -8 9 -5 5 4 4
-5 -2 -18 -7 -14 -14 -24 -17 -24 -30 2 -42 -4 -38 -20 4 -15 0 -17 -23 -14
-26 4 -29 1 -29 -22 0 -14 -4 -26 -10 -26 -5 0 -10 4 -10 9 0 5 -23 11 -52 13
-29 3 -54 11 -56 17 -2 6 -24 11 -48 11 -37 0 -44 -3 -44 -20 0 -21 -19 -28
-21 -7 -1 25 -8 49 -15 55 -4 4 -5 0 -1 -9 5 -14 2 -15 -19 -5 -16 8 -19 12
-9 14 8 2 15 6 15 8 0 10 -28 34 -39 34 -6 0 -11 7 -11 15 0 8 -4 15 -10 15
-5 0 -10 7 -10 16 0 11 -6 15 -18 12 -15 -4 -18 -1 -14 18 3 15 11 24 23 24
12 0 19 7 19 18 0 26 11 34 27 20 11 -9 16 -9 23 2 5 8 7 17 4 19 -3 3 -9 -1
-14 -9 -8 -13 -10 -13 -10 1 0 8 16 21 35 29 19 7 37 20 40 28 3 8 12 11 20 8
8 -3 15 -1 15 4 0 6 23 24 50 41 28 17 50 34 50 39 0 4 16 15 35 24 19 9 35
19 35 22 0 3 -5 2 -12 -2 -7 -4 -8 -3 -4 5 4 6 15 10 24 9 9 -2 17 2 17 7 1
28 50 115 62 111 8 -4 13 3 13 17 0 18 -2 19 -10 7 -13 -20 -13 -4 1 21 5 11
13 18 17 15 4 -2 7 21 6 52 -1 31 1 52 3 45 2 -7 11 -9 20 -6z m632 -47 c-10
-28 -19 -65 -19 -83 0 -17 -9 -43 -20 -57 -23 -29 -26 -50 -6 -50 7 0 19 -7
27 -16 7 -8 20 -13 30 -11 12 3 15 0 12 -14 -4 -14 0 -19 16 -19 11 0 21 4 21
8 0 5 14 9 31 10 17 0 28 -2 24 -6 -4 -4 -9 -7 -13 -7 -3 0 -16 -10 -29 -23
-13 -13 -28 -20 -35 -16 -6 4 -8 3 -5 -2 6 -11 -98 -77 -120 -77 -7 0 -13 -5
-13 -10 0 -5 -7 -6 -16 -3 -10 4 -13 2 -8 -6 5 -7 0 -9 -14 -6 -12 4 -20 2
-16 -3 3 -5 0 -9 -5 -9 -6 0 -11 5 -11 10 0 6 -5 10 -11 10 -6 0 -8 -7 -5 -16
5 -13 2 -15 -14 -11 -11 3 -20 1 -20 -5 0 -6 -9 -8 -20 -5 -12 3 -29 -3 -43
-15 -12 -11 -15 -16 -7 -12 13 7 13 5 1 -9 -7 -9 -11 -18 -7 -18 3 -1 11 -3
16 -4 6 -1 15 -3 20 -4 6 0 10 -6 10 -12 0 -6 -6 -9 -14 -6 -9 4 -17 -1 -19
-11 -3 -12 -5 -11 -6 6 -1 25 -17 28 -45 7 -10 -8 -22 -12 -27 -10 -4 3 -10 1
-14 -5 -3 -5 -12 -10 -18 -10 -7 0 -6 4 3 10 12 8 10 10 -8 10 -13 0 -21 -4
-18 -8 3 -5 -11 -14 -31 -20 -29 -9 -39 -9 -45 1 -6 9 -8 8 -8 -3 0 -11 -3
-10 -12 4 -21 37 -43 56 -63 56 -17 0 -21 7 -23 34 -2 20 4 40 13 49 18 19 20
31 3 22 -7 -4 -4 1 6 9 11 9 25 16 30 16 6 0 5 4 -3 9 -11 7 -9 12 10 21 13 7
28 18 32 24 5 6 6 2 2 -10 -4 -16 1 -26 19 -37 18 -12 26 -13 29 -4 4 9 7 9
18 0 7 -7 31 -13 54 -13 22 0 50 -7 62 -15 19 -13 23 -13 37 1 9 9 35 16 60
17 25 1 42 5 39 11 -4 5 3 7 15 4 12 -4 22 -2 22 4 0 6 7 7 16 4 8 -3 12 -2 9
4 -3 6 0 10 7 10 8 0 23 7 34 16 18 14 18 15 -6 8 -14 -4 -33 -8 -42 -9 -10
-1 -21 -4 -24 -8 -4 -4 -19 -4 -33 -2 -22 5 -23 4 -6 -4 16 -8 12 -9 -20 -9
-22 0 -69 -3 -105 -7 -49 -6 -74 -4 -102 8 -22 9 -40 12 -43 6 -4 -5 -12 -9
-18 -9 -8 0 -8 3 1 9 8 4 13 11 13 15 -3 21 1 34 15 52 8 10 12 13 8 5 -5 -9
-3 -12 5 -7 6 4 10 13 9 19 -4 17 44 97 54 91 4 -3 8 -1 8 5 0 5 11 22 25 37
24 26 25 26 25 5 0 -25 2 -25 48 -9 31 12 35 11 52 -12 10 -13 16 -28 14 -32
-3 -4 2 -8 11 -8 10 0 13 -5 9 -12 -4 -6 -3 -8 4 -4 6 3 13 2 17 -4 3 -5 15
-10 26 -10 11 0 17 -4 14 -10 -3 -5 1 -10 10 -10 8 0 18 -7 21 -15 4 -8 10
-15 16 -15 5 0 6 5 3 10 -3 6 1 10 11 10 13 0 11 5 -10 26 -26 27 -36 77 -16
89 5 3 6 13 3 22 -4 11 -3 14 5 9 8 -5 10 -2 6 8 -4 9 1 18 10 22 9 3 14 10
11 14 -3 5 3 13 12 19 10 5 17 13 16 18 -2 4 2 9 7 9 23 3 24 5 10 14 -12 8
-11 10 7 10 l21 0 -19 -50z m416 30 c-8 -13 32 -19 46 -6 11 9 11 8 0 -6 -15
-21 -54 -10 -59 17 -3 11 0 15 7 10 6 -3 9 -10 6 -15z m-1159 -13 c3 -3 19 -3
35 0 25 5 29 2 29 -16 0 -11 -9 -35 -20 -53 -12 -21 -20 -27 -20 -16 0 9 -9
20 -20 23 -11 3 -20 13 -20 22 0 9 -6 13 -15 9 -10 -3 -15 1 -15 13 0 10 3 20
6 23 7 7 31 4 40 -5z m654 -43 c-18 -35 -30 -72 -30 -95 0 -23 -5 -39 -12 -39
-14 0 -58 40 -58 52 0 17 -36 43 -58 42 -18 -1 -20 1 -11 13 7 7 14 12 16 9 2
-2 17 10 33 26 35 34 52 29 50 -16 -1 -17 -2 -48 -1 -70 1 -34 3 -37 17 -25
13 11 15 26 11 71 -5 62 1 73 43 81 14 2 26 5 28 6 1 0 -11 -24 -28 -55z m484
27 l24 -10 -16 -47 c-26 -70 -42 -68 -39 5 1 34 3 61 4 61 1 0 13 -4 27 -9z
m-654 -26 c-13 -14 -26 -22 -29 -19 -3 3 5 14 19 24 34 27 38 25 10 -5z m400
22 c0 -2 -25 -25 -55 -51 -30 -26 -55 -43 -55 -37 0 5 23 28 51 50 49 39 59
45 59 38z m-17 -49 c-11 -13 -29 -34 -41 -47 -12 -13 -19 -27 -17 -31 3 -4 -2
-13 -10 -20 -10 -8 -15 -9 -15 -2 0 6 -8 9 -17 6 -10 -4 11 21 47 55 67 62 88
78 53 39z m71 -3 c-4 -8 -11 -15 -16 -15 -6 0 -5 6 2 15 7 8 14 15 16 15 2 0
1 -7 -2 -15z m52 -11 c-3 -9 -6 -20 -6 -25 0 -6 -5 -7 -12 -3 -7 5 -8 3 -3 -6
5 -8 1 -18 -10 -27 -11 -7 -13 -13 -6 -13 8 0 2 -18 -16 -50 -15 -27 -32 -50
-36 -50 -16 0 -20 33 -5 44 8 6 15 14 16 19 2 21 26 75 32 72 3 -2 12 10 19
26 13 30 38 42 27 13z m51 -36 c-2 -13 -4 -5 -4 17 -1 22 1 32 4 23 2 -10 2
-28 0 -40z m-127 17 c0 -13 -93 -104 -101 -99 -15 9 -10 22 9 20 9 0 16 5 14
12 -1 8 2 11 8 7 5 -3 10 -1 10 6 0 14 39 59 52 59 4 0 8 -2 8 -5z m643 -9 c4
-10 1 -13 -9 -9 -15 6 -19 23 -5 23 5 0 11 -7 14 -14z m-1649 -21 c-5 -13 -2
-14 20 -5 25 9 32 4 27 -23 -1 -5 3 -6 8 -3 15 9 24 -13 12 -28 -6 -7 -9 -15
-7 -17 2 -2 -10 -15 -27 -29 -17 -14 -28 -19 -24 -12 5 7 3 12 -3 12 -6 0 -8
5 -5 10 3 6 1 10 -4 10 -6 0 -11 9 -11 21 0 15 -5 19 -15 15 -22 -8 -18 8 8
38 26 30 28 31 21 11z m1096 -46 c-8 -23 -20 -48 -28 -55 -7 -8 -10 -14 -5
-14 4 -1 -3 -8 -17 -16 -14 -8 -17 -13 -8 -10 11 3 15 1 12 -8 -3 -8 -14 -12
-24 -9 -16 4 -18 9 -9 24 5 10 15 19 21 19 6 0 8 3 4 7 -3 4 4 13 16 21 13 7
16 11 7 8 -14 -4 -14 2 4 45 26 61 48 51 27 -12z m517 45 c23 -9 40 -20 37
-25 -3 -5 2 -6 10 -3 11 4 16 0 16 -10 0 -9 7 -16 16 -16 9 0 23 -8 31 -17 9
-11 11 -12 7 -3 -5 10 0 8 15 -4 16 -15 19 -22 9 -29 -9 -6 -7 -7 5 -3 22 7
68 -18 86 -46 7 -12 8 -17 2 -13 -6 3 -11 1 -11 -4 0 -6 7 -11 15 -11 8 0 16
-7 16 -15 2 -24 4 -29 13 -44 6 -9 5 -12 0 -8 -6 3 -11 -3 -11 -14 -2 -16 1
-18 11 -10 16 14 26 4 25 -23 -1 -18 -2 -18 -9 4 -6 19 -8 12 -7 -26 1 -29 5
-50 10 -47 12 7 8 -8 -7 -23 -8 -8 -19 -14 -25 -14 -6 0 -11 -7 -11 -15 0 -9
-6 -18 -14 -21 -8 -3 -17 -16 -20 -30 -4 -14 -14 -24 -24 -24 -13 0 -14 -2 -3
-9 9 -6 10 -11 2 -15 -6 -4 -15 -5 -20 -2 -5 4 -11 1 -13 -5 -6 -19 -80 -17
-107 3 -13 10 -36 18 -50 18 -15 0 -36 7 -47 16 -10 8 -14 13 -8 10 10 -5 30
23 22 29 -2 1 -20 12 -40 24 -21 12 -38 27 -38 33 0 6 -6 8 -13 5 -7 -3 -24 2
-38 9 l-24 15 25 -6 c21 -5 22 -4 8 5 -10 6 -32 13 -49 15 -17 2 -34 7 -38 11
-3 4 1 5 11 1 10 -4 18 1 21 13 4 14 12 17 33 14 16 -3 37 -5 47 -5 9 0 17 -3
17 -7 0 -4 12 -9 26 -10 14 -1 31 -5 37 -9 7 -4 15 -8 19 -8 3 0 10 -4 15 -9
5 -5 2 -6 -5 -1 -10 5 -13 2 -10 -9 1 -10 6 -17 11 -17 4 1 16 1 28 1 14 0 19
5 16 14 -3 7 0 20 6 27 10 11 9 11 -5 0 -14 -11 -19 -9 -29 7 -7 12 -19 18
-27 14 -9 -3 -13 -1 -9 5 4 6 1 11 -6 10 -36 -1 -61 4 -50 11 6 4 -8 7 -30 7
-23 0 -51 4 -62 9 -11 5 -33 10 -49 11 -16 2 -32 8 -36 15 -4 7 -13 9 -19 6
-6 -4 -17 -4 -23 1 -7 4 -19 8 -26 9 -26 4 -42 13 -42 24 0 6 4 9 9 5 5 -3 16
2 24 10 9 8 20 15 26 15 6 0 19 9 29 21 19 19 22 20 78 5 45 -12 60 -12 66 -3
4 7 8 8 8 4 0 -10 35 24 35 34 0 4 3 11 8 15 4 4 7 18 7 32 0 31 29 92 43 92
6 0 31 -7 54 -16z m-490 -102 c-6 -15 -15 -30 -20 -33 -5 -3 -8 -8 -7 -10 4
-8 -23 -59 -31 -59 -16 0 -19 19 -3 28 9 5 15 13 15 18 -2 21 11 44 21 38 7
-5 9 -1 5 9 -3 8 -1 29 6 46 10 28 12 29 19 11 4 -11 2 -32 -5 -48z m-143 43
c-4 -9 -15 -20 -25 -25 -28 -16 -37 -11 -9 5 14 8 21 14 17 15 -11 0 2 20 13
20 5 0 7 -7 4 -15z m-144 -9 c0 -3 -4 -8 -10 -11 -5 -3 -10 -1 -10 4 0 6 5 11
10 11 6 0 10 -2 10 -4z m-906 -51 c-1 -5 -5 -20 -9 -32 -5 -18 -2 -23 12 -24
14 0 12 -3 -7 -12 -14 -6 -29 -17 -33 -24 -5 -8 -12 -11 -18 -8 -5 4 -20 -6
-34 -22 l-25 -28 16 48 c9 26 20 47 25 47 5 0 9 8 9 18 0 14 -2 14 -9 3 -7
-11 -10 -10 -13 5 -2 11 4 24 17 31 23 15 71 13 69 -2z m1195 -49 c-7 -14 -16
-26 -20 -26 -5 0 0 13 9 29 20 36 27 34 11 -3z m-159 -1 c-7 -9 -19 -14 -26
-11 -8 3 -11 0 -8 -8 5 -13 -35 -31 -45 -20 -8 8 42 44 62 44 9 0 17 5 17 12
0 6 3 8 6 5 4 -4 1 -14 -6 -22z m3020 5 c0 -5 -2 -10 -4 -10 -3 0 -8 5 -11 10
-3 6 -1 10 4 10 6 0 11 -4 11 -10z m-2980 -23 c0 -2 -17 -20 -39 -41 -29 -28
-41 -34 -46 -24 -5 7 -5 10 0 6 4 -4 24 8 44 27 35 34 41 38 41 32z m-1296
-18 c-5 -8 1 -10 18 -7 22 4 24 2 20 -20 -4 -22 -2 -24 17 -19 20 5 21 3 9
-11 -7 -9 -19 -21 -26 -25 -7 -5 -10 -12 -7 -16 2 -5 -4 -16 -15 -26 -18 -16
-18 -16 -14 2 3 10 -6 35 -19 55 l-25 36 21 21 c24 23 32 27 21 10z m1195 -26
c2 -2 -6 -3 -18 -3 -14 0 -20 4 -15 12 4 7 3 8 -5 4 -9 -6 -9 -11 -1 -21 9
-11 3 -19 -26 -39 -28 -19 -40 -22 -46 -13 -5 8 -8 7 -8 -5 0 -19 -37 -44 -59
-39 -7 1 -11 -2 -8 -6 3 -5 -3 -15 -15 -22 -11 -7 -17 -8 -14 -2 4 7 1 8 -8 5
-11 -4 -16 0 -16 10 0 9 5 16 11 16 6 0 9 6 6 14 -4 10 5 18 25 25 26 9 31 8
35 -9 5 -19 6 -19 18 -3 7 9 10 24 7 32 -3 9 -1 12 5 8 6 -4 13 -3 15 1 1 5
21 20 42 35 32 21 43 24 55 15 9 -7 18 -14 20 -15z m191 17 c0 -5 -5 -10 -11
-10 -5 0 -7 5 -4 10 3 6 8 10 11 10 2 0 4 -4 4 -10z m120 -2 c0 -10 -9 -9 -35
2 -17 8 -16 8 8 7 15 -1 27 -5 27 -9z m-74 -18 c9 0 12 -5 8 -12 -4 -7 -3 -8
4 -4 15 9 82 -35 82 -54 0 -12 2 -12 9 -2 6 11 10 10 15 -3 3 -10 12 -15 21
-11 8 3 15 1 15 -4 0 -6 6 -10 14 -10 8 0 18 -5 22 -12 4 -7 3 -8 -4 -4 -20
12 -13 -5 11 -26 12 -11 16 -17 10 -13 -9 4 -11 1 -7 -9 3 -9 10 -14 14 -11
10 6 42 -30 33 -38 -3 -4 -1 -7 6 -7 7 0 9 -4 6 -10 -3 -5 0 -10 7 -10 10 0
10 -2 -1 -9 -11 -7 -11 -15 0 -45 16 -43 24 -45 38 -8 10 24 11 25 6 2 -3 -14
-8 -40 -12 -58 -4 -23 -12 -34 -29 -38 -17 -4 -24 -13 -24 -30 0 -13 -4 -24
-10 -24 -5 0 -10 23 -10 50 l0 50 -74 0 c-56 0 -75 -4 -80 -15 -3 -8 -13 -15
-23 -16 -14 0 -12 -2 5 -10 13 -5 22 -15 19 -21 -5 -15 -50 -12 -55 2 -2 6
-23 10 -46 10 l-43 0 -10 -57 c-6 -32 -10 -45 -9 -28 1 21 -7 38 -29 58 -16
16 -24 26 -17 22 8 -4 12 1 12 14 0 19 -6 21 -59 21 -33 0 -63 -4 -66 -10 -9
-15 -22 -12 -29 6 -5 14 -4 15 9 4 13 -11 14 -10 9 4 -3 9 -12 16 -20 16 -8 0
-14 7 -14 16 0 10 -6 14 -15 10 -12 -4 -15 5 -15 49 0 48 -2 55 -20 55 -11 0
-20 4 -20 9 0 4 11 6 26 3 22 -4 24 -2 19 20 -4 16 -1 29 9 37 11 9 16 10 16
2 0 -6 -4 -11 -10 -11 -5 0 -10 -4 -10 -8 0 -5 7 -9 15 -9 8 0 15 6 15 14 0 7
5 13 11 13 6 0 8 7 5 17 -7 18 36 63 61 63 8 0 11 5 8 10 -3 6 2 10 12 10 14
0 15 2 5 9 -11 7 -11 9 2 14 20 8 69 -2 77 -15 5 -8 13 -6 24 5 18 19 35 22
35 7 0 -5 -5 -10 -12 -10 -6 0 -9 -2 -6 -5 12 -12 39 9 37 29 -2 29 2 43 8 29
2 -7 11 -13 19 -13z m-136 -4 c0 -3 -4 -8 -10 -11 -5 -3 -10 -1 -10 4 0 6 5
11 10 11 6 0 10 -2 10 -4z m1467 -38 c-3 -8 -6 -5 -6 6 -1 11 2 17 5 13 3 -3
4 -12 1 -19z m-1572 2 c4 -6 3 -9 -2 -8 -4 2 -9 -1 -11 -7 -5 -17 -106 -115
-119 -115 -7 0 -17 -9 -23 -20 -6 -11 -15 -18 -19 -15 -5 2 -11 -5 -14 -16 -3
-12 -9 -19 -14 -16 -4 2 -21 -2 -38 -9 -16 -7 -23 -13 -15 -14 9 0 5 -6 -10
-15 -33 -19 -45 -19 -29 1 10 13 10 17 -1 24 -8 5 -17 7 -21 4 -4 -2 -11 1
-15 7 -4 8 -3 9 4 5 6 -4 20 2 32 14 11 11 25 20 30 20 6 0 10 5 10 12 0 6 3
8 7 5 3 -4 12 -2 20 4 7 6 13 8 13 4 0 -5 8 -1 18 8 9 8 35 17 57 19 30 2 42
9 50 26 5 12 16 22 23 22 8 0 12 6 9 15 -4 8 -1 17 5 21 7 5 8 2 3 -6 -5 -8
-3 -11 6 -8 8 3 14 9 14 14 0 10 14 34 20 34 2 0 7 -5 10 -10z m388 -4 c4 -10
1 -13 -9 -9 -15 6 -19 23 -5 23 5 0 11 -7 14 -14z m72 -16 c3 -5 12 -7 20 -3
8 3 15 1 15 -5 0 -5 -9 -12 -20 -15 -11 -3 -18 0 -17 6 1 6 -7 13 -18 15 -17
4 -18 3 -5 -13 14 -17 14 -17 -7 -4 -16 9 -19 16 -10 21 17 11 35 10 42 -2z
m-568 -53 c0 -7 -9 -13 -19 -13 -18 0 -18 1 -2 13 10 7 18 13 19 13 1 0 2 -6
2 -13z m1600 -9 c-3 -8 -6 -5 -6 6 -1 11 2 17 5 13 3 -3 4 -12 1 -19z m-2783
-10 c-5 -10 -4 -10 6 -1 10 9 16 8 28 -3 8 -8 22 -12 31 -9 13 5 14 4 4 -6 -7
-7 -13 -21 -13 -31 0 -22 -18 -24 -26 -3 -8 20 -19 19 -21 -2 -3 -45 -8 -61
-15 -57 -5 3 -6 10 -3 15 4 5 -1 12 -9 15 -12 5 -13 11 -6 24 13 24 13 33 -1
24 -6 -3 -3 5 6 20 17 26 32 37 19 14z m1059 -5 c10 -10 -59 -53 -84 -53 -12
0 -19 3 -15 7 4 4 15 8 24 8 10 0 18 9 20 23 2 15 10 22 26 22 12 0 26 -3 29
-7z m1463 -5 c5 -7 3 -8 -5 -4 -7 5 -18 0 -27 -10 -10 -14 -14 -15 -12 -4 5
27 32 38 44 18z m-1866 -12 c0 -3 -4 -8 -10 -11 -5 -3 -10 -1 -10 4 0 6 5 11
10 11 6 0 10 -2 10 -4z m2250 0 c0 -3 -4 -8 -10 -11 -5 -3 -10 -1 -10 4 0 6 5
11 10 11 6 0 10 -2 10 -4z m50 -15 c0 -11 -5 -23 -12 -27 -8 -5 -9 -2 -5 9 3
10 2 17 -4 17 -6 0 -7 5 -4 10 10 17 25 11 25 -9z m-239 -6 c5 4 6 -1 2 -10
-5 -13 -7 -14 -14 -3 -5 7 -8 18 -8 23 0 6 3 4 6 -3 2 -6 9 -10 14 -7z m-2031
-5 c8 -5 11 -10 5 -10 -5 0 -17 5 -25 10 -8 5 -10 10 -5 10 6 0 17 -5 25 -10z
m1950 -4 c0 -2 -8 -10 -17 -17 -16 -13 -17 -12 -4 4 13 16 21 21 21 13z m620
-21 c0 -8 -7 -15 -15 -15 -8 0 -15 7 -15 15 0 8 7 15 15 15 8 0 15 -7 15 -15z
m-3124 -18 c1 -9 -2 -15 -7 -11 -5 3 -7 9 -4 14 3 4 0 11 -5 13 -6 3 -5 4 1 3
7 -1 13 -10 15 -19z m1707 3 c-3 -11 -7 -20 -9 -20 -2 0 -4 9 -4 20 0 11 4 20
9 20 5 0 7 -9 4 -20z m927 0 c0 -5 -2 -10 -4 -10 -3 0 -8 5 -11 10 -3 6 -1 10
4 10 6 0 11 -4 11 -10z m-182 -29 c-13 -15 -25 -27 -27 -25 -4 4 39 54 47 54
2 0 -7 -13 -20 -29z m93 6 c-10 -9 -11 -8 -5 6 3 10 9 15 12 12 3 -3 0 -11 -7
-18z m366 -9 c-3 -7 -5 -2 -5 12 0 14 2 19 5 13 2 -7 2 -19 0 -25z m-2282 4
c-3 -3 -11 0 -18 7 -9 10 -8 11 6 5 10 -3 15 -9 12 -12z m-101 -25 c8 -31 7
-84 -2 -72 -4 6 -13 10 -19 11 -7 1 -19 2 -25 3 -12 1 -14 23 -9 75 2 22 48 7
55 -17z m2541 22 c4 -6 -1 -17 -11 -24 -21 -16 -74 -20 -74 -7 0 5 15 7 33 5
17 -2 26 0 20 3 -7 3 -13 12 -13 20 0 16 36 19 45 3z m-2400 -9 c-3 -5 -1 -10
6 -10 7 0 10 -2 7 -5 -3 -3 -13 -2 -22 1 -14 5 -15 9 -4 15 17 11 20 11 13 -1z
m142 4 c-3 -3 -12 -4 -19 -1 -8 3 -5 6 6 6 11 1 17 -2 13 -5z m928 -4 c8 -13
-5 -13 -25 0 -13 8 -13 10 2 10 9 0 20 -4 23 -10z m-915 -15 c0 -7 -30 -13
-34 -7 -3 4 4 9 15 9 10 1 19 0 19 -2z m1593 -9 c4 -10 1 -13 -9 -9 -15 6 -19
23 -5 23 5 0 11 -7 14 -14z m537 -12 c0 -2 -17 -4 -37 -3 -29 0 -33 2 -18 8
18 7 55 4 55 -5z m-831 -49 c6 -3 11 -28 11 -56 0 -48 -1 -49 -30 -49 -28 0
-30 2 -30 40 0 29 -4 40 -15 40 -8 0 -15 5 -15 11 0 6 7 9 15 5 8 -3 15 -1 15
4 0 6 -6 10 -12 11 -10 0 -10 2 0 6 6 2 9 10 6 15 -4 6 -2 8 4 4 6 -3 14 -1
18 6 5 8 10 5 15 -9 4 -12 12 -24 18 -28z m398 39 c-3 -3 -12 -4 -19 -1 -8 3
-5 6 6 6 11 1 17 -2 13 -5z m-652 -22 c-3 -3 -11 0 -18 7 -9 10 -8 11 6 5 10
-3 15 -9 12 -12z m905 8 c0 -5 -2 -10 -4 -10 -3 0 -8 5 -11 10 -3 6 -1 10 4
10 6 0 11 -4 11 -10z m-2366 -12 c-3 -5 -10 -5 -16 -2 -8 5 -9 1 -4 -12 5 -14
4 -16 -5 -7 -14 14 -6 30 15 30 8 0 13 -4 10 -9z m1364 -7 c-5 -23 -48 -28
-48 -4 0 12 8 18 26 19 18 2 24 -2 22 -15z m-957 -14 c-10 -9 -11 -8 -5 6 3
10 9 15 12 12 3 -3 0 -11 -7 -18z m1204 13 c3 -6 -1 -7 -9 -4 -18 7 -21 14 -7
14 6 0 13 -4 16 -10z m560 -17 c-9 -8 -18 -13 -21 -10 -8 8 19 36 29 30 4 -2
0 -11 -8 -20z m-2415 -13 c0 -13 -7 -20 -20 -20 -23 0 -25 5 -7 25 17 20 27
18 27 -5z m455 10 c-3 -5 -12 -10 -18 -10 -7 0 -6 4 3 10 19 12 23 12 15 0z
m1357 -2 c20 -1 34 -6 32 -10 -3 -5 -10 -5 -16 -2 -7 5 -9 1 -5 -9 4 -12 2
-14 -10 -10 -12 5 -14 1 -9 -18 l7 -24 -14 23 c-13 22 -13 21 -14 -14 -1 -20
-7 -40 -15 -45 -7 -5 -8 -9 -3 -9 17 -1 -39 -40 -57 -40 -15 0 -18 9 -18 45 0
38 3 45 20 45 11 0 20 -4 20 -10 0 -5 7 -10 15 -10 18 0 20 26 3 34 -10 5 -10
7 0 12 14 7 16 34 2 34 -5 0 -10 5 -10 11 0 6 8 8 18 5 9 -3 34 -6 54 -8z
m-1312 -8 c8 -5 11 -10 5 -10 -5 0 -17 5 -25 10 -8 5 -10 10 -5 10 6 0 17 -5
25 -10z m90 6 c0 -2 -8 -10 -17 -17 -16 -13 -17 -12 -4 4 13 16 21 21 21 13z
m-198 -33 c-3 -16 -7 -22 -10 -15 -4 13 4 42 11 42 2 0 2 -12 -1 -27z m2353
17 c3 -6 -1 -7 -9 -4 -18 7 -21 14 -7 14 6 0 13 -4 16 -10z m-1845 -15 c19
-22 8 -25 -12 -3 -10 10 -14 18 -9 18 5 0 14 -7 21 -15z m830 5 c0 -5 -9 -10
-20 -10 -11 0 -20 5 -20 10 0 6 9 10 20 10 11 0 20 -4 20 -10z m154 -2 c-3 -4
-9 -8 -15 -8 -5 0 -9 4 -9 8 0 5 7 9 15 9 8 0 12 -4 9 -9z m546 -8 c0 -11 -4
-20 -10 -20 -5 0 -10 9 -10 20 0 11 5 20 10 20 6 0 10 -9 10 -20z m-2552 -7
c-10 -2 -26 -2 -35 0 -10 3 -2 5 17 5 19 0 27 -2 18 -5z m1802 -3 c0 -5 -4
-10 -10 -10 -5 0 -10 5 -10 10 0 6 5 10 10 10 6 0 10 -4 10 -10z m-800 -10 c0
-5 -2 -10 -4 -10 -3 0 -8 5 -11 10 -3 6 -1 10 4 10 6 0 11 -4 11 -10z m656
-35 c-7 -36 -26 -40 -26 -4 0 19 21 51 29 43 2 -1 0 -19 -3 -39z m-636 -29 c0
-26 -6 -18 -14 19 -5 22 -4 26 4 15 5 -8 10 -24 10 -34z m-730 14 c-12 -23
-16 -24 -26 -8 -4 6 -3 8 3 5 6 -4 13 0 17 8 3 8 8 15 11 15 3 0 1 -9 -5 -20z
m260 -5 c-7 -9 -15 -13 -19 -10 -3 3 1 10 9 15 21 14 24 12 10 -5z m497 -27
c-3 -8 -6 -5 -6 6 -1 11 2 17 5 13 3 -3 4 -12 1 -19z m860 -20 c-3 -8 -6 -5
-6 6 -1 11 2 17 5 13 3 -3 4 -12 1 -19z m-1410 6 c-3 -3 -12 -4 -19 -1 -8 3
-5 6 6 6 11 1 17 -2 13 -5z m-100 -20 c-3 -3 -12 -4 -19 -1 -8 3 -5 6 6 6 11
1 17 -2 13 -5z m1343 -40 c0 -8 -19 -13 -24 -6 -3 5 1 9 9 9 8 0 15 -2 15 -3z
m153 -64 c3 -11 1 -20 -4 -20 -5 0 -9 9 -9 20 0 11 2 20 4 20 2 0 6 -9 9 -20z
m-1576 4 c-3 -3 -12 -4 -19 -1 -8 3 -5 6 6 6 11 1 17 -2 13 -5z m1545 -23 c2
-17 1 -28 -4 -25 -8 5 -12 54 -4 54 2 0 6 -13 8 -29z m-1305 -13 c-3 -8 -6 -5
-6 6 -1 11 2 17 5 13 3 -3 4 -12 1 -19z m1167 6 c3 -8 2 -12 -4 -9 -6 3 -10
10 -10 16 0 14 7 11 14 -7z m-1417 -26 c-3 -7 -5 -2 -5 12 0 14 2 19 5 13 2
-7 2 -19 0 -25z m1617 -34 c3 -8 2 -12 -4 -9 -6 3 -10 10 -10 16 0 14 7 11 14
-7z m30 -80 c3 -8 2 -12 -4 -9 -6 3 -10 10 -10 16 0 14 7 11 14 -7z m13 -61
c-3 -10 -5 -4 -5 12 0 17 2 24 5 18 2 -7 2 -21 0 -30z m-50 5 c-3 -8 -6 -5 -6
6 -1 11 2 17 5 13 3 -3 4 -12 1 -19z"/>
<path d="M841 3155 c-25 -66 -26 -79 -7 -98 16 -16 136 -23 136 -9 0 5 -18 16
-40 25 -46 18 -65 54 -55 104 10 53 -12 38 -34 -22z"/>
<path d="M791 3187 c-18 -22 -41 -85 -41 -112 0 -16 12 -38 29 -56 24 -24 38
-29 75 -29 51 0 61 14 19 25 -62 15 -96 82 -69 134 9 16 16 35 16 41 0 14 -15
13 -29 -3z"/>
<path d="M690 3145 c-12 -20 -24 -52 -27 -73 -4 -34 -1 -40 38 -69 42 -32 69
-42 69 -24 0 5 -7 14 -16 22 -22 18 -44 64 -44 91 0 13 7 36 15 52 18 35 18
36 1 36 -8 0 -24 -16 -36 -35z"/>
<path d="M1340 3140 c0 -5 7 -10 15 -10 8 0 15 5 15 10 0 6 -7 10 -15 10 -8 0
-15 -4 -15 -10z"/>
<path d="M1350 3110 c0 -5 5 -10 10 -10 6 0 10 5 10 10 0 6 -4 10 -10 10 -5 0
-10 -4 -10 -10z"/>
<path d="M1200 3010 c0 -5 5 -10 10 -10 6 0 10 5 10 10 0 6 -4 10 -10 10 -5 0
-10 -4 -10 -10z"/>
<path d="M1322 2978 c-14 -14 -16 -28 -3 -28 9 0 24 30 18 36 -2 2 -9 -2 -15
-8z"/>
<path d="M1170 2949 c0 -5 5 -7 10 -4 6 3 10 8 10 11 0 2 -4 4 -10 4 -5 0 -10
-5 -10 -11z"/>
<path d="M1210 3380 c0 -5 5 -10 10 -10 6 0 10 5 10 10 0 6 -4 10 -10 10 -5 0
-10 -4 -10 -10z"/>
<path d="M1205 3326 c3 -11 0 -23 -7 -27 -7 -4 -10 -10 -8 -13 3 -2 13 1 22 8
16 12 16 15 2 32 -15 19 -16 19 -9 0z"/>
<path d="M1846 3293 c-3 -10 -5 -21 -3 -24 1 -4 -6 -16 -16 -26 -20 -23 -36
-143 -19 -143 5 0 15 14 21 30 5 17 8 30 5 30 -3 0 3 12 14 28 11 15 23 42 27
59 3 18 11 35 16 38 17 11 9 25 -15 25 -15 0 -27 -7 -30 -17z"/>
<path d="M2130 2942 c-17 -5 -40 -31 -40 -45 0 -5 6 -4 14 2 11 9 15 9 18 -1
3 -8 9 -5 17 10 15 28 11 41 -9 34z"/>
<path d="M2172 2839 c-34 -25 -72 -79 -55 -79 3 0 21 11 40 26 18 14 38 22 43
19 6 -4 16 -3 23 2 33 23 127 -10 127 -44 0 -7 5 -13 10 -13 6 0 10 9 10 21 0
23 -28 88 -39 90 -3 0 -32 2 -64 3 -49 3 -62 -1 -95 -25z"/>
<path d="M2073 2745 c-15 -16 -16 -25 -5 -25 4 0 13 9 20 20 14 23 3 26 -15 5z"/>
<path d="M1020 3230 c0 -5 5 -10 10 -10 6 0 10 5 10 10 0 6 -4 10 -10 10 -5 0
-10 -4 -10 -10z"/>
<path d="M1070 3210 c8 -5 20 -10 25 -10 6 0 3 5 -5 10 -8 5 -19 10 -25 10 -5
0 -3 -5 5 -10z"/>
<path d="M1035 3190 c4 -6 11 -8 16 -5 14 9 11 15 -7 15 -8 0 -12 -5 -9 -10z"/>
<path d="M1540 2956 c0 -2 9 -6 20 -9 11 -3 20 -1 20 4 0 5 -9 9 -20 9 -11 0
-20 -2 -20 -4z"/>
<path d="M1536 2931 c-7 -10 22 -37 30 -28 4 3 -1 13 -9 22 -9 8 -18 11 -21 6z"/>
<path d="M1507 2870 c-3 -11 -1 -23 4 -26 5 -3 9 2 9 10 0 10 6 13 18 9 15 -6
15 -5 3 10 -18 22 -28 21 -34 -3z"/>
<path d="M757 2852 c-18 -19 -23 -42 -9 -42 4 0 15 14 24 30 19 33 10 40 -15
12z"/>
<path d="M823 2848 c-13 -16 -15 -80 -2 -73 5 4 9 -1 9 -9 0 -9 4 -16 8 -16 5
0 7 -13 4 -30 -3 -20 0 -30 9 -30 7 0 10 3 6 6 -3 3 -1 18 4 32 7 18 6 28 -3
33 -10 7 -9 15 5 40 14 26 15 30 2 25 -13 -5 -20 5 -16 27 2 11 -16 8 -26 -5z"/>
<path d="M1917 2820 c17 -42 33 -53 33 -22 0 20 -27 62 -40 62 -5 0 -1 -18 7
-40z"/>
<path d="M971 2777 c-17 -21 -24 -73 -12 -94 9 -16 10 -14 11 14 0 17 5 44 10
59 12 31 8 41 -9 21z"/>
<path d="M1044 2777 c-17 -20 -33 -74 -27 -96 8 -30 21 -17 15 15 -3 17 3 36
17 54 11 16 21 32 21 35 0 9 -15 5 -26 -8z"/>
<path d="M1897 2784 c-8 -8 3 -34 14 -34 11 0 12 27 0 34 -4 3 -11 3 -14 0z"/>
<path d="M1432 2748 c3 -7 15 -14 29 -16 24 -4 24 -3 4 12 -24 19 -38 20 -33
4z"/>
<path d="M993 2733 c-15 -5 -18 -63 -4 -63 5 0 11 15 14 33 5 37 6 36 -10 30z"/>
<path d="M1404 2716 c22 -18 56 -21 56 -6 0 6 -6 10 -12 10 -7 0 -24 3 -38 6
-24 5 -24 5 -6 -10z"/>
<path d="M1350 2710 c0 -5 14 -16 30 -25 35 -18 39 -11 8 16 -26 21 -38 24
-38 9z"/>
<path d="M1177 2703 c-4 -3 -7 -13 -7 -21 0 -8 -7 -20 -17 -27 -11 -9 -14 -18
-8 -31 8 -18 9 -17 12 4 5 25 23 31 23 7 0 -8 7 -15 15 -15 8 0 15 8 15 19 0
24 -25 73 -33 64z"/>
<path d="M1210 2692 c0 -30 29 -62 57 -62 l27 0 -22 20 c-12 11 -26 20 -32 20
-5 0 -10 9 -10 20 0 11 -4 20 -10 20 -5 0 -10 -8 -10 -18z"/>
<path d="M1276 2702 c-10 -17 1 -49 20 -56 9 -3 12 -2 8 5 -3 6 -9 22 -13 37
-5 17 -10 22 -15 14z"/>
<path d="M1320 2686 c0 -15 8 -30 21 -36 26 -14 35 -7 14 10 -8 7 -15 18 -15
26 0 7 -4 16 -10 19 -6 3 -10 -5 -10 -19z"/>
<path d="M1067 2683 c-2 -5 -7 -20 -11 -34 -4 -21 -2 -28 13 -32 14 -3 20 2
24 19 4 25 -7 33 -17 12 -3 -7 -4 -1 -1 15 5 26 1 36 -8 20z"/>
<path d="M1475 2670 c-3 -6 2 -13 12 -17 10 -4 21 -11 25 -17 4 -6 10 -7 14
-3 8 7 -24 47 -37 47 -4 0 -11 -5 -14 -10z"/>
<path d="M1040 2576 c0 -2 9 -6 20 -9 11 -3 20 -1 20 4 0 5 -9 9 -20 9 -11 0
-20 -2 -20 -4z"/>
<path d="M1631 2539 c-16 -26 -17 -35 -8 -50 7 -11 15 -19 19 -19 14 0 29
-183 17 -205 -3 -5 -3 -21 1 -35 7 -25 7 -25 23 10 16 37 21 250 6 250 -4 0
-10 18 -14 40 -8 48 -19 50 -44 9z"/>
<path d="M1026 2531 c-22 -3 -41 -11 -43 -17 -2 -6 8 -9 26 -6 16 2 39 -1 51
-8 25 -13 42 -4 20 10 -11 7 -12 10 -2 10 7 0 10 5 7 10 -3 6 -9 9 -13 9 -4
-1 -25 -5 -46 -8z"/>
<path d="M1720 2526 c-6 -9 -10 -21 -8 -28 3 -8 9 -4 17 10 15 28 9 39 -9 18z"/>
<path d="M923 2266 c-6 -7 -30 -16 -52 -20 -23 -3 -41 -10 -41 -15 0 -5 -16
-12 -35 -15 -19 -4 -35 -12 -35 -17 0 -12 101 -2 110 11 3 4 21 8 40 9 58 3
79 7 86 14 4 4 23 7 43 8 38 1 93 15 76 20 -5 1 -23 3 -40 4 -16 1 -55 5 -85
8 -39 4 -58 2 -67 -7z"/>
<path d="M3242 2919 c-14 -23 -16 -56 -2 -64 11 -7 46 43 36 53 -4 3 -11 0
-16 -8 -6 -8 -10 -10 -10 -4 0 5 5 15 11 21 6 6 7 13 2 16 -5 3 -14 -3 -21
-14z"/>
<path d="M3186 2815 c-12 -48 17 -62 36 -19 10 21 9 27 -3 35 -22 13 -26 11
-33 -16z"/>
<path d="M3244 2796 c-8 -22 3 -33 18 -18 9 9 9 15 0 24 -9 9 -13 7 -18 -6z"/>
<path d="M3287 2713 c-34 -39 -29 -113 8 -113 19 0 19 8 0 26 -23 23 -18 43
16 75 27 25 28 29 12 29 -11 0 -27 -8 -36 -17z"/>
<path d="M3357 2604 c-14 -14 -6 -25 13 -19 12 4 28 1 37 -6 13 -11 15 -11 12
6 -4 20 -47 33 -62 19z"/>
<path d="M2907 2791 c-10 -10 -38 -24 -63 -31 -31 -9 -43 -17 -40 -27 3 -7 -8
-26 -24 -41 -21 -21 -31 -41 -36 -78 -3 -27 -10 -54 -16 -61 -13 -16 -1 -53
18 -53 8 0 14 7 14 15 0 21 34 37 48 23 9 -9 12 -9 12 0 0 7 -5 12 -10 12 -14
0 -8 52 8 69 7 7 11 20 8 27 -3 9 0 11 11 7 12 -5 15 -2 10 10 -4 11 -2 14 9
10 7 -3 14 0 14 6 0 6 7 8 15 5 10 -4 15 0 15 16 0 11 5 18 10 15 6 -3 10 -1
10 5 0 6 5 8 10 5 6 -4 16 -2 23 3 7 6 31 9 55 8 47 -3 49 -1 25 28 -18 21
-18 21 2 5 20 -17 85 -36 85 -25 0 12 -73 54 -85 50 -7 -3 -16 -1 -20 5 -11
18 -88 12 -108 -8z"/>
<path d="M2925 2550 c4 -6 11 -8 16 -5 14 9 11 15 -7 15 -8 0 -12 -5 -9 -10z"/>
<path d="M4073 2337 c5 -17 56 -27 83 -17 29 11 32 24 4 15 -10 -3 -35 -2 -55
4 -26 7 -35 7 -32 -2z"/>
<path d="M2016 2253 c-4 -9 -1 -20 5 -24 8 -4 4 -9 -10 -14 -28 -9 -27 -28 2
-20 21 6 21 6 3 -9 -11 -9 -30 -16 -43 -16 -30 0 -30 -17 0 -23 16 -3 13 -5
-11 -6 -19 0 -35 -7 -38 -16 -4 -9 -19 -15 -35 -15 -16 0 -29 -4 -29 -10 0
-13 71 -13 105 0 14 5 24 14 21 19 -3 5 4 11 15 14 12 3 18 10 15 16 -4 5 2
14 12 20 11 6 18 20 17 38 0 15 4 31 9 34 11 9 -1 29 -19 29 -7 0 -16 -8 -19
-17z m-53 -140 c-7 -2 -19 -2 -25 0 -7 3 -2 5 12 5 14 0 19 -2 13 -5z"/>
<path d="M2230 2251 c0 -18 18 -21 30 -6 10 13 9 15 -9 15 -11 0 -21 -4 -21
-9z"/>
<path d="M2232 2219 c-13 -5 -21 -13 -17 -18 7 -12 47 1 53 17 4 14 -4 14 -36
1z"/>
<path d="M3063 2189 c-33 -12 -46 -44 -31 -71 7 -12 18 -28 25 -35 7 -8 10
-19 7 -26 -2 -7 11 -29 30 -50 18 -20 31 -39 27 -42 -4 -2 -8 -23 -9 -47 l0
-43 18 39 c10 23 16 53 14 75 -2 20 -4 45 -4 56 0 30 -21 76 -31 69 -5 -3 -7
1 -4 8 3 7 1 20 -5 28 -8 13 -11 12 -24 -5 -9 -11 -16 -16 -16 -11 0 5 7 17
16 27 21 24 15 39 -13 28z"/>
<path d="M2215 2172 c-24 -13 -26 -17 -12 -20 25 -5 11 -22 -19 -22 -14 0 -27
-6 -30 -14 -3 -8 -15 -17 -27 -22 -19 -6 -16 -8 15 -11 39 -4 82 12 73 27 -3
5 1 12 8 17 11 6 35 66 25 62 -2 -1 -16 -8 -33 -17z"/>
<path d="M2583 2148 c-10 -17 -49 -38 -68 -38 -8 0 -15 -7 -15 -15 0 -11 -11
-15 -41 -15 -28 0 -39 -4 -36 -12 12 -38 185 40 187 85 0 12 -18 8 -27 -5z"/>
<path d="M2927 2105 c-10 -14 -28 -30 -40 -36 l-22 -12 20 23 20 23 -21 -11
c-27 -14 -50 -42 -35 -42 6 0 11 -7 11 -15 0 -8 4 -15 9 -15 8 0 68 69 85 98
13 22 -9 12 -27 -13z"/>
<path d="M2125 2060 c-52 -4 -57 -7 -40 -17 17 -11 13 -12 -32 -13 -33 0 -57
5 -67 15 -18 19 -26 19 -26 1 0 -13 36 -32 70 -38 25 -4 90 12 90 22 0 6 13
10 29 10 17 0 33 5 36 11 10 14 8 15 -60 9z"/>
<path d="M2200 2030 c0 -20 88 -26 113 -7 14 10 7 12 -48 13 -36 0 -65 -2 -65
-6z"/>
<path d="M2470 1976 c0 -8 -8 -17 -17 -20 -18 -6 -69 -75 -65 -88 1 -4 -12
-16 -28 -28 -16 -11 -27 -27 -24 -34 3 -7 -2 -16 -11 -20 -9 -3 -14 -10 -11
-15 3 -5 -1 -12 -10 -15 -9 -4 -14 -9 -11 -12 8 -9 -65 -81 -90 -89 -21 -6
-33 -25 -15 -25 44 0 127 43 117 60 -2 4 13 15 35 25 22 10 46 25 53 34 11 14
10 15 -8 2 -11 -7 -8 -2 7 12 15 14 28 39 31 58 8 58 18 77 46 89 19 7 32 23
39 46 10 32 9 34 -14 34 -14 0 -24 -6 -24 -14z"/>
<path d="M3617 2124 c-3 -4 -2 -16 4 -26 13 -24 35 -9 26 16 -7 17 -19 21 -30
10z"/>
<path d="M3435 1983 c-56 -29 -87 -95 -50 -109 8 -3 17 -14 20 -25 9 -28 35
-23 78 16 41 37 45 56 21 103 -17 36 -26 38 -69 15z"/>
<path d="M3418 1293 c7 -3 16 -2 19 1 4 3 -2 6 -13 5 -11 0 -14 -3 -6 -6z"/>
<path d="M2187 1481 c-30 -11 -24 -25 11 -27 20 -1 32 3 32 11 0 7 6 16 13 18
6 3 1 5 -13 6 -14 0 -33 -4 -43 -8z"/>
<path d="M2330 1470 c-12 -8 -12 -10 2 -15 9 -4 14 -13 11 -21 -7 -19 11 -18
28 2 10 13 10 17 0 24 -11 6 -11 9 0 13 9 3 7 6 -6 6 -11 0 -27 -3 -35 -9z"/>
<path d="M2296 1415 c-3 -8 -10 -15 -16 -15 -6 0 -8 5 -4 11 10 18 -39 -1 -53
-20 -14 -18 -17 -41 -5 -41 4 0 19 6 33 14 24 12 26 12 22 -5 -10 -35 12 -19
35 26 17 35 19 45 8 45 -8 0 -16 -7 -20 -15z"/>
<path d="M2160 1330 c-18 -16 -38 -27 -42 -24 -5 3 -7 0 -6 -7 2 -7 -8 -15
-21 -18 -30 -8 -37 -24 -16 -41 12 -10 15 -10 15 5 0 11 5 15 16 11 10 -4 13
-2 8 6 -5 8 -2 9 9 5 10 -3 17 -3 17 1 0 4 13 21 28 37 15 17 23 25 18 18 -5
-8 -4 -13 2 -13 16 0 24 18 15 35 -7 12 -14 9 -43 -15z"/>
<path d="M1800 1020 c0 -5 5 -10 11 -10 5 0 7 5 4 10 -3 6 -8 10 -11 10 -2 0
-4 -4 -4 -10z"/>
<path d="M1950 920 c0 -5 20 -10 45 -10 25 0 45 5 45 10 0 6 -20 10 -45 10
-25 0 -45 -4 -45 -10z"/>
<path d="M2631 1434 c0 -11 3 -14 6 -6 3 7 2 16 -1 19 -3 4 -6 -2 -5 -13z"/>
<path d="M3757 1289 c7 -7 15 -10 18 -7 3 3 -2 9 -12 12 -14 6 -15 5 -6 -5z"/>
<path d="M2695 1110 c-3 -5 -1 -10 4 -10 6 0 11 5 11 10 0 6 -2 10 -4 10 -3 0
-8 -4 -11 -10z"/>
<path d="M3005 750 c3 -5 8 -10 11 -10 2 0 4 5 4 10 0 6 -5 10 -11 10 -5 0 -7
-4 -4 -10z"/>
<path d="M3070 3610 c0 -14 4 -51 10 -83 8 -49 6 -65 -10 -102 -11 -25 -21
-45 -24 -45 -3 0 -2 38 1 85 4 61 3 85 -6 85 -6 0 -11 -11 -11 -24 0 -42 -37
-182 -55 -210 -10 -15 -14 -30 -10 -34 4 -4 10 -2 12 4 2 6 10 20 18 30 15 18
15 18 9 -1 -6 -16 -4 -18 6 -8 7 6 19 9 26 6 8 -3 14 1 14 8 0 8 8 23 17 34
15 19 15 19 9 -10 -3 -16 -8 -40 -12 -51 -7 -25 16 -27 54 -6 12 7 22 11 22 8
0 -12 60 17 80 40 28 29 20 42 -16 25 l-26 -12 26 31 c24 29 34 60 21 60 -3 0
-28 -21 -55 -46 l-50 -47 0 31 c0 17 11 52 25 78 31 58 33 79 6 64 -29 -15
-31 -13 -31 24 0 23 -9 45 -25 63 l-24 28 -1 -25z m27 -62 c-3 -7 -5 -2 -5 12
0 14 2 19 5 13 2 -7 2 -19 0 -25z m7 -117 c-14 -23 -28 -41 -30 -41 -7 0 31
75 41 82 20 14 16 -1 -11 -41z m96 -34 c0 -2 -10 -12 -22 -23 l-23 -19 19 23
c18 21 26 27 26 19z"/>
<path d="M2035 3463 c-4 -12 -12 -20 -19 -17 -6 2 -22 -9 -34 -26 l-23 -30 24
0 c30 0 70 45 64 73 l-4 22 -8 -22z"/>
<path d="M2122 3443 c-18 -32 -15 -43 12 -43 15 0 26 -7 29 -20 3 -11 10 -20
16 -20 8 0 9 6 1 19 -5 11 -10 31 -10 45 0 29 -19 36 -21 9 -1 -12 -4 -9 -8 7
l-7 25 -12 -22z"/>
<path d="M3990 3051 c0 -5 7 -12 16 -15 24 -9 28 -7 14 9 -14 17 -30 20 -30 6z"/>
<path d="M4052 3020 c-31 -49 -2 -120 49 -120 16 0 29 5 29 10 0 6 -11 10 -25
10 -41 0 -54 45 -30 103 10 23 -7 22 -23 -3z"/>
<path d="M4042 2889 c5 -17 48 -25 48 -10 0 6 -4 11 -9 11 -5 0 -17 3 -27 7
-12 4 -15 2 -12 -8z"/>
<path d="M4070 2803 c0 -21 5 -45 10 -53 7 -11 10 -2 10 32 0 26 -4 50 -10 53
-6 4 -10 -9 -10 -32z"/>
<path d="M4113 2788 c5 -29 10 -65 11 -80 0 -16 5 -28 10 -28 8 0 -1 137 -10
152 -15 23 -20 2 -11 -44z"/>
<path d="M4077 2625 c-4 -8 -2 -17 2 -20 5 -2 11 4 14 15 6 23 -8 27 -16 5z"/>
<path d="M4120 2590 c0 -5 5 -10 10 -10 6 0 10 5 10 10 0 6 -4 10 -10 10 -5 0
-10 -4 -10 -10z"/>
<path d="M4160 2569 c0 -5 5 -7 10 -4 6 3 10 8 10 11 0 2 -4 4 -10 4 -5 0 -10
-5 -10 -11z"/>
<path d="M4732 2283 c-18 -20 -20 -28 -10 -34 10 -7 10 -11 0 -21 -19 -19 -14
-31 13 -26 19 4 23 2 15 -7 -8 -9 -7 -14 2 -17 7 -3 12 -17 13 -33 0 -15 6
-30 13 -32 7 -3 12 5 12 20 0 15 10 34 25 45 27 21 34 48 11 39 -8 -3 -17 1
-20 9 -3 8 0 14 6 14 9 0 9 3 1 11 -8 8 -18 6 -37 -6 -14 -10 -26 -13 -26 -7
0 6 5 14 10 17 6 3 10 16 10 28 0 18 2 19 11 7 9 -13 10 -13 6 0 -6 25 -30 22
-55 -7z"/>
<path d="M500 2094 c0 -3 9 -17 20 -31 11 -14 20 -34 20 -44 0 -28 17 -32 40
-9 24 24 39 26 46 5 4 -8 10 -15 15 -15 28 0 -18 62 -47 65 -11 0 -31 9 -44
18 -24 17 -50 23 -50 11z m80 -66 c0 -18 -17 -7 -29 19 -13 28 -13 28 8 9 12
-11 21 -23 21 -28z"/>
<path d="M452 2002 c2 -4 12 -29 23 -55 20 -47 35 -61 35 -31 0 21 -41 94 -53
94 -5 0 -7 -4 -5 -8z"/>
<path d="M797 1729 c-4 -28 -8 -53 -10 -55 -9 -10 -57 23 -59 41 -4 27 -32 25
-36 -2 -3 -22 -22 -33 -22 -13 0 6 -7 10 -15 10 -8 0 -15 -7 -15 -15 0 -19 0
-19 -58 10 -80 40 -116 29 -57 -18 22 -18 32 -34 31 -51 0 -13 -5 -22 -9 -19
-5 3 -11 -4 -14 -16 -3 -12 -10 -21 -15 -21 -5 0 -7 4 -4 9 7 11 -44 5 -56 -7
-5 -5 8 -14 32 -22 22 -7 47 -21 56 -32 25 -27 33 -22 27 17 -5 33 -4 35 21
35 14 0 26 5 26 11 0 5 -4 7 -10 4 -5 -3 -10 -1 -10 4 0 23 20 9 36 -25 9 -20
23 -38 31 -41 7 -3 11 -8 9 -12 -3 -4 14 -7 37 -6 28 1 49 -5 63 -18 25 -21
41 -8 25 21 -9 17 -7 18 14 14 20 -3 25 0 25 15 0 10 -4 23 -10 29 -6 6 -6 15
0 24 7 10 10 11 10 3 0 -7 -1 -15 -2 -18 -2 -2 6 -11 17 -19 14 -10 24 -11 33
-4 15 13 13 15 39 -38 16 -32 19 -44 10 -53 -9 -9 -8 -11 6 -6 9 4 17 6 17 4
0 -2 4 -19 10 -37 8 -28 7 -32 -5 -22 -8 6 -11 19 -8 27 4 10 2 14 -3 10 -6
-3 -22 5 -37 19 -28 25 -69 35 -49 11 10 -12 2 -40 -12 -38 -10 2 -9 -2 8 -43
18 -44 20 -60 6 -51 -6 4 -7 11 -4 17 4 6 1 9 -7 6 -18 -7 -51 10 -44 22 3 6
-1 8 -9 5 -52 -16 -52 -16 -18 -31 19 -7 31 -18 27 -24 -4 -6 -3 -9 2 -8 4 2
18 -7 30 -19 21 -21 53 -22 53 -1 0 5 5 6 10 3 6 -4 10 -3 9 2 -1 4 1 16 5 25
4 9 2 27 -4 40 -11 21 -9 20 14 -4 28 -29 43 -37 30 -16 -4 6 -3 8 3 5 6 -4
16 -20 23 -37 7 -16 17 -30 22 -30 11 0 6 74 -6 103 -5 11 -4 17 4 17 6 0 9
-3 7 -7 -3 -5 10 -19 28 -33 38 -29 66 -75 59 -95 -4 -8 -1 -15 6 -15 7 0 10
-11 8 -27 -2 -20 1 -27 11 -25 8 2 18 -3 24 -10 6 -10 7 -8 3 4 -3 10 -1 20 4
23 6 3 6 15 0 30 -6 16 -6 25 0 25 6 0 10 -9 10 -20 0 -11 6 -20 13 -20 8 0 7
-4 -3 -10 -20 -13 -4 -13 21 0 23 13 26 66 5 95 -7 11 -15 25 -16 30 -1 6 -6
9 -11 7 -5 -1 -9 2 -9 8 0 15 16 12 30 -5 7 -8 10 -15 6 -15 -3 0 2 -9 12 -20
9 -12 17 -24 17 -28 0 -4 10 -20 22 -35 26 -33 42 -27 86 34 40 55 33 78 -13
44 -19 -14 -33 -28 -32 -31 2 -3 0 -9 -4 -12 -4 -4 -4 4 -1 18 3 14 9 49 13
78 8 60 -6 69 -34 23 -9 -15 -21 -28 -25 -29 -5 0 -12 -4 -15 -8 -4 -4 -1 -4
6 0 12 7 17 -6 5 -17 -3 -4 -12 2 -20 13 -8 11 -21 20 -29 20 -9 0 -12 5 -8
12 5 7 2 9 -8 5 -12 -4 -22 11 -43 69 -15 41 -31 74 -36 74 -5 0 -9 6 -9 14 0
16 58 28 66 14 4 -5 12 -7 20 -4 7 3 16 0 20 -6 5 -7 2 -8 -7 -3 -8 5 -10 4
-6 0 7 -9 23 -13 60 -17 9 -1 17 -6 17 -10 0 -4 7 -8 15 -8 21 0 19 4 -15 42
-25 27 -32 30 -40 18 -7 -11 -11 -9 -20 14 -7 19 -15 26 -26 22 -8 -3 -17 1
-20 9 -7 17 -31 20 -36 5 -1 -5 -13 -7 -25 -4 -16 4 -26 21 -40 65 -10 32 -22
57 -28 56 -5 -2 -11 -27 -13 -55 -2 -42 -6 -50 -19 -45 -13 5 -15 1 -9 -23 5
-20 4 -25 -3 -15 -7 12 -13 5 -27 -28 -17 -42 -28 -44 -36 -6 -2 11 -9 19 -15
18 -7 -2 -15 7 -18 18 -5 13 -12 18 -24 14 -15 -4 -19 4 -27 57 -11 78 -29 86
-37 17z m-224 -44 c8 -8 17 -11 21 -8 3 4 6 0 6 -7 0 -7 3 -10 7 -7 7 8 33
-11 33 -24 0 -18 -26 -7 -64 26 -22 19 -34 35 -28 35 6 0 17 -7 25 -15z m464
-7 c-3 -8 -6 -5 -6 6 -1 11 2 17 5 13 3 -3 4 -12 1 -19z m-219 -13 c-3 -13 0
-27 6 -30 8 -3 7 -7 -2 -11 -6 -3 -9 -11 -6 -16 4 -6 3 -8 -3 -5 -6 4 -9 21
-8 39 4 46 4 48 11 48 4 0 4 -11 2 -25z m-122 -16 c4 -7 9 -8 13 -1 4 6 11 4
19 -4 7 -8 9 -14 4 -14 -5 0 -9 -7 -9 -15 0 -8 4 -15 8 -15 3 0 9 -12 12 -27
5 -26 3 -25 -34 16 -37 42 -50 71 -30 71 6 0 13 -5 17 -11z m360 -5 c-3 -8 -2
-12 4 -9 5 3 9 -13 9 -37 0 -82 3 -118 11 -113 4 3 10 -7 13 -21 l4 -25 -21
23 c-11 12 -20 26 -19 30 2 4 -4 5 -13 1 -10 -4 -14 -13 -10 -26 4 -18 3 -19
-10 -5 -8 8 -17 27 -20 43 -3 16 -8 33 -11 38 -4 6 1 8 10 4 19 -7 24 17 7 28
-18 11 -11 23 10 18 17 -5 20 0 20 31 0 20 5 36 11 36 6 0 8 -7 5 -16z m-281
-14 c3 -5 2 -10 -4 -10 -5 0 -13 5 -16 10 -3 6 -2 10 4 10 5 0 13 -4 16 -10z
m-119 -19 c-3 -5 1 -12 10 -15 8 -3 12 -11 8 -17 -5 -9 -11 -6 -21 6 -16 23
-17 35 -2 35 5 0 8 -4 5 -9z m139 -27 c9 -15 12 -23 6 -20 -11 7 -35 46 -28
46 3 0 12 -12 22 -26z m-70 -44 c8 -13 -11 -13 -36 1 -11 5 -17 14 -14 20 7
10 39 -4 50 -21z m232 24 c-3 -4 0 -13 8 -21 8 -8 15 -20 15 -26 -1 -7 -9 -1
-20 12 -18 21 -19 41 -3 41 4 0 4 -3 0 -6z m-54 -148 c-3 -4 -9 -2 -14 5 -13
22 -11 31 5 17 8 -7 12 -17 9 -22z m107 24 c0 -5 -4 -10 -10 -10 -5 0 -10 5
-10 10 0 6 5 10 10 10 6 0 10 -4 10 -10z m50 -35 c0 -5 -5 -3 -10 5 -5 8 -10
20 -10 25 0 6 5 3 10 -5 5 -8 10 -19 10 -25z m83 -6 c5 -4 7 -15 2 -25 -7 -18
-8 -18 -15 1 -5 11 -9 29 -9 40 1 14 2 16 6 5 3 -8 10 -18 16 -21z m134 -31
c-3 -8 -6 -5 -6 6 -1 11 2 17 5 13 3 -3 4 -12 1 -19z"/>
<path d="M1180 1753 l0 -26 -24 22 c-30 28 -39 16 -21 -27 16 -36 14 -36 50
-22 17 7 25 15 22 25 -4 9 -1 12 8 8 8 -3 12 -10 9 -17 -3 -6 1 -3 9 7 10 12
17 14 22 8 3 -6 15 -11 26 -11 16 0 14 5 -13 29 -26 23 -36 27 -47 18 -12 -9
-13 -9 -7 1 5 8 0 12 -13 12 -16 0 -21 -6 -21 -27z"/>
<path d="M4542 1697 c-12 -7 -20 -15 -17 -18 8 -9 -27 -37 -69 -54 -36 -15
-38 -15 -43 5 -6 23 -8 24 -33 10 -15 -8 -17 -6 -13 10 7 27 -9 25 -47 -6 -26
-23 -60 -72 -60 -88 0 -9 100 -4 106 5 2 4 12 5 20 2 9 -3 21 3 30 16 11 15
22 20 35 16 10 -4 19 -2 19 3 0 6 7 12 15 16 26 10 -4 -26 -47 -57 -41 -29
-45 -57 -5 -35 12 6 24 12 27 12 3 1 4 4 3 7 -1 3 5 6 13 6 10 0 7 -8 -11 -27
-14 -14 -25 -29 -25 -32 0 -13 42 -15 54 -2 8 8 21 14 28 14 7 0 -2 -10 -19
-21 -36 -23 -41 -34 -19 -42 8 -3 22 4 31 16 9 12 13 16 10 10 -4 -8 -1 -11 9
-7 9 3 14 9 11 14 -2 4 7 13 20 20 28 15 33 40 9 40 -10 0 -14 6 -10 15 7 18
2 19 -27 4 -21 -12 -21 -11 -4 8 9 11 17 27 17 37 0 14 -4 15 -22 5 -17 -8
-16 -4 7 16 17 14 23 24 15 20 -13 -6 -13 -5 0 7 8 7 16 25 18 41 4 31 5 31
-26 14z"/>
<path d="M1290 1691 c0 -5 7 -25 15 -45 16 -37 35 -48 35 -20 0 12 6 15 23 9
50 -15 67 -17 67 -6 0 6 -8 11 -18 11 -10 0 -22 4 -27 9 -11 10 -83 51 -90 51
-3 0 -5 -4 -5 -9z"/>
<path d="M1853 1612 c-13 -2 -23 -7 -23 -12 0 -5 -22 -12 -50 -16 -27 -4 -50
-10 -50 -14 0 -5 -9 -6 -20 -3 -23 6 -25 -4 -7 -28 13 -16 52 -35 43 -20 -3 5
9 12 27 16 17 4 34 9 37 10 3 1 18 5 33 10 16 4 40 18 53 30 l24 23 -22 3
c-13 3 -33 3 -45 1z"/>
<path d="M4180 1539 c0 -5 -5 -7 -10 -4 -6 4 -10 3 -9 -2 4 -17 -13 -63 -22
-57 -5 3 -6 -3 -2 -12 4 -12 3 -15 -6 -10 -18 11 -52 -28 -44 -51 5 -15 3 -16
-8 -5 -11 10 -15 4 -25 -30 -6 -24 -14 -50 -18 -59 -5 -11 -1 -19 9 -23 9 -3
13 -2 10 4 -3 6 1 10 10 10 10 0 13 -5 9 -12 -4 -7 -3 -8 4 -4 7 4 12 19 12
34 0 21 7 30 30 39 27 10 30 9 30 -9 0 -16 5 -19 22 -15 12 4 27 2 34 -4 8 -7
15 -6 20 2 5 8 3 9 -6 4 -9 -5 -11 -4 -6 4 4 6 12 9 17 6 5 -4 9 -1 9 6 0 7 3
9 7 6 4 -4 -3 -20 -14 -35 -17 -22 -18 -30 -7 -40 16 -15 31 -15 40 0 5 7 2 9
-7 4 -8 -4 -4 1 9 10 12 9 22 24 21 33 0 12 -2 12 -10 -4 l-9 -20 4 20 c2 11
5 26 7 34 5 16 -47 34 -55 20 -2 -5 -3 -4 -1 3 1 7 7 12 12 11 6 -1 8 9 5 22
-2 14 -10 25 -17 25 -7 0 -15 3 -18 8 -2 4 -3 2 -1 -5 1 -6 -6 -19 -17 -29
-18 -16 -19 -16 -19 4 0 12 4 22 8 22 4 0 8 8 9 18 1 9 4 34 8 55 5 25 4 37
-4 37 -6 0 -11 -5 -11 -11z m-33 -141 c-3 -8 -6 -5 -6 6 -1 11 2 17 5 13 3 -3
4 -12 1 -19z"/>
<path d="M3772 1494 c-49 -53 -52 -66 -14 -58 16 3 44 1 64 -4 28 -8 37 -6 46
7 6 9 11 11 11 5 1 -6 -10 -21 -23 -33 -23 -22 -25 -51 -4 -51 5 0 6 6 3 13
-4 6 5 0 18 -15 33 -35 67 -34 67 3 0 15 -3 29 -7 32 -5 2 -2 2 6 0 7 -2 20 5
28 14 8 10 11 11 7 3 -7 -13 -5 -13 9 -1 21 17 22 41 2 41 -8 0 -15 4 -15 10
0 5 -6 7 -14 4 -8 -3 -16 4 -19 17 -4 17 -9 20 -19 12 -7 -5 -22 -13 -33 -17
-16 -6 -18 -5 -7 5 19 20 15 42 -7 36 -12 -3 -22 1 -25 9 -9 25 -32 15 -74
-32z m68 -18 c0 -2 -8 -10 -17 -17 -16 -13 -17 -12 -4 4 13 16 21 21 21 13z
m50 -76 c0 -5 -5 -10 -11 -10 -5 0 -7 5 -4 10 3 6 8 10 11 10 2 0 4 -4 4 -10z"/>
<path d="M5770 1501 c0 -14 5 -18 20 -14 11 3 20 12 20 19 0 8 -9 14 -20 14
-13 0 -20 -7 -20 -19z"/>
<path d="M1654 1453 c3 -7 0 -15 -6 -19 -7 -5 -8 -2 -3 6 6 9 2 10 -16 5 -42
-13 -41 -19 9 -30 27 -5 32 -4 32 12 0 13 2 15 9 5 6 -10 10 -10 21 3 7 8 19
15 26 15 8 0 14 3 14 8 0 4 -20 7 -45 7 -32 0 -44 -3 -41 -12z"/>
<path d="M4960 1180 c0 -49 1 -50 30 -50 29 0 30 1 30 50 0 49 -1 50 -30 50
-29 0 -30 -1 -30 -50z"/>
<path d="M4690 1155 c0 -20 5 -25 25 -25 23 0 25 -3 25 -50 0 -38 4 -50 15
-50 11 0 15 12 15 50 0 38 -4 50 -15 50 -9 0 -15 9 -15 25 0 20 -5 25 -25 25
-20 0 -25 -5 -25 -25z"/>
<path d="M190 1140 c0 -5 9 -10 20 -10 11 0 20 5 20 10 0 6 -9 10 -20 10 -11
0 -20 -4 -20 -10z"/>
<path d="M716 951 c-4 -5 -3 -16 0 -24 5 -14 8 -13 23 1 11 11 13 20 7 24 -15
10 -24 10 -30 -1z"/>
</g>
</svg>
