<?xml version="1.0" standalone="no"?>
<!DOCTYPE svg PUBLIC "-//W3C//DTD SVG 20010904//EN"
 "http://www.w3.org/TR/2001/REC-SVG-20010904/DTD/svg10.dtd">
<svg version="1.0" xmlns="http://www.w3.org/2000/svg"
 width="1591.000000pt" height="533.000000pt" 
 viewBox="-500 0 1591.000000 533.000000"
 preserveAspectRatio="xMidYMid meet">

<g transform="translate(0.000000,533.000000) scale(0.100000,-0.100000)"
fill="#000000" stroke="none">
<path d="M5023 5135 l6 -34 -60 -12 c-33 -6 -61 -15 -64 -18 -2 -4 6 -21 17
-39 14 -22 28 -32 45 -32 24 0 25 -1 10 -22 -10 -16 -23 -22 -41 -20 -24 3
-26 0 -26 -39 0 -29 -7 -50 -25 -71 -26 -30 -29 -45 -19 -72 8 -22 31 -20 46
4 20 32 28 24 28 -30 0 -38 4 -52 17 -57 23 -9 63 40 63 78 0 29 0 29 25 13
28 -18 33 -34 10 -34 -10 0 -15 -10 -15 -30 0 -37 12 -38 39 -5 l20 26 47 -36
c41 -32 52 -36 83 -30 48 9 81 31 81 55 0 17 -7 20 -49 20 -27 0 -63 6 -81 13
l-32 14 27 19 c24 18 25 22 15 46 -11 22 -9 31 14 64 14 21 26 48 26 60 0 26
-24 48 -45 40 -24 -9 -18 20 10 50 29 31 29 34 14 68 -14 31 -34 39 -60 25
-15 -7 -23 -6 -35 6 -9 8 -33 15 -56 15 l-41 0 6 -35z m22 -281 c7 -3 22 -1
33 5 16 8 21 7 26 -4 7 -19 -3 -45 -18 -45 -22 1 -64 45 -66 70 -3 39 3 49 7
12 3 -18 10 -35 18 -38z"/>
<path d="M4042 5048 c3 -7 13 -15 24 -17 16 -3 17 -1 5 13 -16 19 -34 21 -29
4z"/>
<path d="M220 4971 c0 -6 4 -13 10 -16 6 -3 7 1 4 9 -7 18 -14 21 -14 7z"/>
<path d="M3222 4890 c0 -14 2 -19 5 -12 2 6 2 18 0 25 -3 6 -5 1 -5 -13z"/>
<path d="M1270 4841 c0 -5 11 -11 25 -13 28 -6 34 6 9 16 -22 8 -34 7 -34 -3z"/>
<path d="M4683 4776 c-45 -22 -60 -53 -20 -41 12 4 26 11 32 16 16 16 25 10
25 -17 0 -19 -4 -25 -15 -20 -19 7 -19 -3 0 -28 24 -32 45 -13 45 42 0 26 5
53 12 60 20 20 -31 12 -79 -12z"/>
<path d="M5105 4658 c0 -25 -6 -36 -22 -43 -25 -11 -32 -31 -8 -21 8 3 22 9
31 12 12 5 15 2 12 -12 -2 -10 -12 -20 -23 -22 -42 -7 -46 -11 -35 -32 6 -11
21 -27 34 -35 20 -14 26 -13 55 1 43 22 52 10 10 -15 -22 -14 -42 -18 -62 -14
-27 5 -29 4 -22 -13 4 -10 9 -41 12 -69 7 -82 11 -95 31 -89 9 3 2 -8 -17 -25
-28 -25 -31 -31 -18 -37 27 -10 52 0 55 23 2 12 17 36 33 54 24 26 32 29 44
19 8 -7 22 -9 31 -6 13 5 14 14 9 47 -9 55 -9 129 0 152 4 11 8 35 9 55 1 33
-2 37 -26 40 -15 2 -38 -4 -50 -12 -12 -9 -26 -16 -30 -16 -14 0 -8 31 7 36
19 8 20 24 1 24 -7 0 -19 7 -26 15 -20 25 -35 17 -35 -17z m117 -83 c-12 -22
-27 -2 -18 22 5 12 10 13 17 6 7 -7 8 -17 1 -28z m-49 -15 c-3 -11 -7 -20 -9
-20 -2 0 -4 9 -4 20 0 11 4 20 9 20 5 0 7 -9 4 -20z m-43 -10 c0 -5 -4 -10
-10 -10 -5 0 -10 5 -10 10 0 6 5 10 10 10 6 0 10 -4 10 -10z m60 -94 c-20 -18
-60 -30 -60 -18 0 17 54 52 65 41 6 -6 4 -14 -5 -23z m-10 -41 c-35 -20 -62
-19 -36 0 11 8 29 15 40 15 19 -1 19 -2 -4 -15z m24 -33 c-16 -15 -64 -32 -64
-24 0 10 63 42 69 36 3 -3 0 -8 -5 -12z"/>
<path d="M1038 4633 c-18 -15 -40 -36 -49 -45 -9 -10 -25 -18 -35 -18 -31 0
-64 -29 -80 -70 -12 -29 -23 -40 -45 -45 -46 -10 -86 -51 -124 -126 -29 -59
-33 -73 -23 -89 10 -15 10 -22 0 -32 -6 -6 -12 -19 -12 -27 1 -12 4 -11 13 4
15 24 37 30 37 10 0 -17 26 -20 36 -4 3 6 0 15 -7 20 -9 6 -2 8 21 5 28 -3 35
-8 33 -24 -2 -13 5 -23 17 -27 11 -4 20 -15 20 -25 0 -10 5 -22 10 -25 16 -10
12 -23 -9 -30 -18 -5 -75 -82 -109 -145 -8 -14 -20 -59 -28 -100 -25 -135 -43
-212 -54 -225 -7 -8 -8 -130 -4 -366 3 -195 7 -430 8 -524 2 -164 3 -172 29
-223 16 -30 42 -62 62 -75 19 -12 35 -29 36 -37 1 -8 2 -22 3 -30 2 -8 3 -23
4 -33 1 -10 6 -15 12 -12 5 3 8 22 5 41 -2 18 -1 34 3 34 20 -1 30 -21 35 -78
5 -62 15 -89 24 -64 3 6 9 12 14 12 10 0 12 -31 3 -54 -6 -15 -8 -15 -19 1
-11 15 -13 15 -25 -6 -9 -17 -17 -21 -36 -17 -20 5 -24 3 -24 -15 0 -15 4 -19
16 -15 14 5 15 1 10 -26 -3 -18 -6 -88 -7 -156 -1 -67 -5 -125 -10 -128 -5 -3
-9 -13 -9 -22 0 -13 2 -13 15 4 11 15 14 16 15 3 0 -8 -7 -24 -15 -35 -9 -12
-14 -14 -15 -6 0 15 -20 6 -20 -9 0 -5 22 -21 50 -37 27 -15 50 -30 50 -34 0
-15 -26 -8 -63 18 -21 14 -41 24 -43 21 -5 -5 62 -50 89 -60 11 -4 17 -17 17
-37 0 -27 -6 -33 -46 -50 -51 -22 -68 -25 -59 -10 3 6 -1 17 -10 26 -14 15
-18 15 -49 0 -19 -9 -39 -16 -46 -16 -7 0 -28 -7 -48 -16 -21 -9 -46 -20 -57
-25 -11 -5 -32 -13 -47 -18 -36 -14 -59 -65 -50 -116 6 -35 13 -43 49 -60 42
-20 42 -21 41 -68 -1 -27 -7 -52 -15 -59 -21 -17 -43 -64 -43 -90 0 -18 -2
-20 -10 -8 -5 8 -12 12 -15 8 -3 -3 0 -12 8 -19 7 -8 12 -20 9 -27 -2 -7 1
-18 7 -25 5 -7 8 -22 5 -34 -3 -11 0 -26 8 -34 7 -8 13 -18 13 -24 1 -5 6 -28
12 -50 6 -22 14 -60 18 -85 10 -75 16 -114 21 -140 22 -112 11 -178 -33 -213
-13 -10 -21 -22 -18 -27 3 -5 0 -10 -6 -12 -17 -6 17 -37 49 -45 17 -4 38 0
61 13 28 15 37 26 39 52 2 17 5 32 6 32 2 0 28 -11 57 -24 30 -13 68 -26 85
-30 27 -6 32 -12 38 -46 9 -57 36 -108 60 -114 29 -8 70 38 61 68 -28 92 -28
116 2 116 9 0 34 9 57 20 56 26 118 52 134 56 8 1 16 5 19 8 3 3 19 -2 35 -10
27 -14 32 -14 54 1 13 8 24 22 24 30 0 19 39 45 67 45 21 0 22 -4 21 -89 -1
-48 2 -93 6 -100 4 -6 23 -18 43 -26 33 -14 37 -13 64 6 29 20 36 37 41 94 3
27 1 30 -25 27 l-28 -4 2 134 c1 93 7 154 20 203 21 82 23 98 9 90 -16 -10
-12 11 5 25 8 7 12 16 9 21 -3 5 -1 9 5 9 6 0 10 20 9 48 -1 26 1 53 5 60 5 7
3 12 -7 12 -21 0 -28 32 -21 84 7 42 9 45 50 55 56 14 93 60 77 96 -7 16 -7
26 1 34 8 8 8 11 -1 11 -7 0 -12 -4 -12 -10 0 -5 -8 -10 -18 -10 -21 0 -52 29
-52 48 0 16 -17 15 -23 0 -2 -7 -7 -10 -11 -6 -4 3 -2 15 6 27 11 18 10 22 -6
34 -29 21 -14 47 27 47 44 0 68 27 74 83 l5 43 57 -4 c31 -2 58 -6 60 -8 2 -2
-3 -12 -11 -21 -9 -10 -27 -47 -42 -83 -22 -56 -24 -71 -15 -108 12 -54 19
-503 7 -496 -12 8 -10 -13 4 -36 9 -15 9 -30 -1 -69 -11 -45 -11 -55 6 -88 16
-33 22 -38 53 -38 l35 0 8 65 c4 35 10 66 13 69 2 3 53 11 112 18 182 21 223
29 233 44 5 9 7 -6 3 -39 -11 -118 -11 -136 -4 -164 5 -16 5 -30 -1 -34 -6 -4
-6 -10 0 -18 6 -7 12 -28 13 -46 1 -19 11 -43 20 -52 10 -10 18 -16 18 -13 0
3 17 -3 38 -14 l39 -20 22 52 c21 48 23 62 18 173 l-6 120 57 -4 c36 -2 85 4
132 16 41 11 76 19 78 17 7 -6 -3 -193 -14 -260 -2 -16 -7 -100 -10 -185 -3
-85 -8 -162 -11 -170 -10 -25 -2 -64 15 -76 23 -17 140 -6 169 15 31 23 35 69
10 110 -21 34 -23 68 -10 181 7 70 7 83 -1 105 -6 16 -6 17 3 5 11 -16 12 -8
17 125 3 96 12 122 42 128 15 3 44 0 65 -6 l39 -12 -4 -54 c-3 -34 -10 -57
-20 -62 -18 -10 -13 -52 9 -70 8 -7 39 -14 70 -15 76 -4 82 6 83 126 0 68 4
102 15 117 13 19 12 23 -12 47 l-26 26 48 0 c65 0 166 26 239 61 33 16 61 28
62 26 9 -8 -26 -141 -42 -158 -18 -20 -18 -21 1 -35 10 -8 29 -14 42 -14 32 0
44 35 41 126 -1 41 0 76 3 78 2 2 23 6 47 10 24 3 49 9 55 13 7 4 22 9 35 11
12 1 39 12 60 23 20 12 38 17 40 11 4 -13 82 7 82 20 0 6 11 7 25 4 14 -4 25
-2 25 3 0 5 11 11 25 13 13 3 22 1 19 -3 -9 -14 6 -10 22 6 9 8 28 15 43 15
15 0 31 4 37 10 5 5 23 11 39 13 17 2 46 9 65 15 36 12 64 11 76 -1 4 -4 22
-7 41 -7 31 0 33 -2 33 -33 0 -46 28 -71 70 -62 36 8 36 19 0 -105 -20 -71
-47 -216 -55 -295 -12 -132 -26 -231 -40 -288 -23 -89 -22 -90 5 -104 36 -19
84 -16 111 7 13 10 21 19 16 20 -4 0 0 17 8 37 11 26 17 81 20 173 3 104 10
158 30 235 48 183 54 210 60 261 3 28 14 75 25 105 11 29 20 55 20 56 0 1 13
9 30 18 27 14 29 20 28 61 -2 28 2 48 11 53 7 5 51 11 98 15 96 7 120 17 129
51 8 32 -1 56 -37 96 -39 43 -98 170 -105 224 -6 50 -35 129 -56 154 -9 10
-18 34 -21 52 -3 19 -10 63 -15 99 -19 126 -31 152 -80 184 -39 26 -48 28 -73
19 -28 -11 -29 -10 -29 19 0 40 -17 68 -40 68 -16 0 -20 6 -18 28 4 68 -3 163
-12 157 -13 -8 -13 -1 1 46 10 31 9 40 -3 53 -14 13 -16 11 -16 -27 -1 -28 -7
-46 -19 -55 -13 -10 -14 -16 -6 -19 10 -3 9 -11 -2 -33 -8 -16 -15 -36 -15
-45 0 -9 -7 -29 -15 -45 -12 -23 -22 -30 -45 -30 -17 0 -30 5 -30 13 0 17 38
77 48 77 5 0 14 12 20 26 10 21 8 36 -17 97 -16 40 -31 79 -34 87 -11 30 -6
-37 7 -104 13 -68 13 -71 -14 -127 -15 -31 -44 -73 -64 -93 -30 -28 -37 -41
-34 -65 3 -37 -29 -75 -87 -101 -78 -36 -79 -35 -105 20 -18 39 -21 53 -12 62
9 9 12 6 12 -15 0 -32 33 -69 55 -61 19 8 19 10 -4 119 -30 143 -40 173 -71
208 -24 28 -123 87 -145 87 -13 0 -106 -105 -110 -125 -28 -137 -50 -224 -62
-241 -12 -19 -12 -24 3 -39 11 -10 25 -14 40 -11 12 3 26 2 29 -4 11 -18 43
-10 63 15 13 16 26 23 36 19 11 -4 16 -1 16 10 0 9 -4 16 -10 16 -5 0 -10 4
-10 9 0 16 80 5 108 -15 15 -11 36 -39 47 -61 11 -23 43 -65 71 -95 28 -30 59
-69 69 -88 23 -45 51 -74 64 -65 22 13 16 22 -107 153 -23 25 -41 46 -40 47 2
1 17 5 33 9 23 6 27 5 18 -4 -8 -9 -6 -21 9 -47 12 -19 27 -37 34 -40 7 -3 22
-21 34 -40 16 -27 26 -34 43 -31 36 7 45 -10 38 -71 -1 -11 -5 -10 -21 4 -16
15 -22 16 -35 5 -12 -10 -19 -10 -27 -2 -14 14 -28 16 -28 3 0 -5 12 -12 26
-15 14 -4 24 -12 21 -19 -3 -8 -28 -12 -79 -11 -57 1 -92 9 -151 33 -42 16
-99 33 -125 37 -45 6 -51 4 -71 -21 -12 -16 -23 -26 -25 -24 -1 2 -21 30 -44
61 -23 31 -46 60 -52 63 -6 4 -22 24 -36 46 -13 22 -42 52 -64 67 -35 24 -39
32 -40 69 0 34 4 43 21 48 11 4 18 9 15 12 -12 13 -56 -28 -56 -52 0 -25 -14
-33 -25 -15 -3 6 -13 10 -21 10 -8 0 -12 -5 -9 -11 4 -6 -2 -13 -14 -16 -21
-5 -30 -23 -11 -23 5 0 21 -17 34 -37 14 -21 35 -49 47 -63 l21 -25 -15 25
c-52 81 -63 106 -52 117 26 24 219 -166 200 -197 -3 -5 2 -10 13 -10 18 0 49
-47 38 -58 -3 -3 9 -16 27 -29 l32 -24 -30 7 c-16 4 -39 10 -50 14 -24 9 -152
-35 -214 -74 -28 -18 -67 -31 -110 -37 -36 -5 -71 -11 -78 -13 -16 -6 -10 24
8 35 9 5 10 9 2 9 -6 0 -26 -13 -44 -30 -18 -16 -35 -27 -38 -24 -3 3 0 8 6
12 8 5 1 18 -21 40 -22 21 -46 65 -71 130 -21 53 -43 103 -48 109 -13 17 14
18 31 1 9 -9 12 -9 12 3 0 8 -5 20 -12 27 -9 9 -7 16 7 32 10 11 14 20 10 20
-5 0 -4 5 3 12 7 7 12 21 12 31 0 15 -5 18 -24 15 -46 -9 -48 8 -4 37 45 30
178 155 178 168 0 16 -21 6 -31 -15 -6 -13 -24 -32 -40 -43 -128 -88 -168
-113 -191 -119 -16 -3 -25 -11 -23 -19 4 -9 -32 -17 -132 -29 -76 -9 -139 -15
-141 -13 -2 2 1 12 7 23 7 13 7 38 1 78 -14 83 -13 281 1 290 8 4 9 -1 5 -17
-6 -22 -6 -23 7 -6 8 9 18 17 22 17 5 0 16 6 24 14 9 7 44 16 77 19 57 5 61 4
56 -15 -2 -10 1 -30 8 -43 16 -30 3 -49 -47 -70 -37 -15 -44 -35 -13 -35 25 0
26 -17 1 -25 -28 -9 -33 -41 -7 -59 21 -14 21 -15 -11 -22 -46 -9 -42 -28 3
-21 52 9 86 34 79 57 -4 11 -3 25 1 31 4 7 8 28 10 47 2 20 9 40 15 46 9 8 10
6 5 -7 -17 -50 -18 -67 -4 -62 9 4 19 -4 26 -20 15 -33 15 -35 -2 -35 -8 0
-17 -8 -21 -19 -8 -26 11 -71 31 -71 14 0 15 7 10 40 -5 33 -4 38 9 34 8 -4
12 -10 9 -15 -3 -5 0 -9 6 -9 7 0 9 7 6 16 -3 9 -9 28 -12 42 -5 24 -4 24 12
-6 18 -36 40 -38 37 -3 -2 13 3 21 12 21 8 0 15 3 15 8 0 4 9 13 21 20 17 11
20 11 13 0 -4 -7 2 -5 14 5 11 11 29 16 39 13 13 -3 24 5 41 30 12 20 22 39
22 43 0 5 8 15 18 22 15 13 16 12 3 -3 -11 -15 -11 -19 3 -24 16 -6 16 -8 0
-25 -16 -18 -11 -45 7 -34 5 4 7 -18 5 -51 -3 -36 -1 -52 5 -43 5 8 9 21 9 30
0 9 7 19 15 23 8 3 15 16 15 29 0 14 9 36 20 50 11 14 20 36 21 49 l0 23 12
-23 c15 -32 -7 -136 -36 -173 -12 -15 -25 -28 -28 -28 -4 -1 -27 -21 -51 -46
-36 -35 -42 -47 -32 -56 17 -14 46 2 76 43 12 18 30 40 38 50 32 36 39 47 49
82 5 21 7 44 4 52 -8 21 6 86 18 79 10 -7 13 -48 3 -57 -3 -4 -7 -32 -8 -64
-3 -50 -1 -55 11 -39 7 11 13 29 13 41 0 12 7 27 15 34 9 7 15 20 13 29 -1 9
0 21 3 26 4 6 12 27 18 48 7 20 19 37 27 37 12 0 12 -4 2 -20 -7 -10 -9 -23
-5 -27 5 -4 12 -1 16 6 6 9 11 10 15 2 4 -6 3 -11 -3 -11 -5 0 -12 -14 -16
-31 -12 -52 -81 -159 -104 -159 -6 0 -18 -15 -27 -33 -9 -17 -23 -40 -32 -49
-8 -10 -10 -18 -5 -18 16 0 104 51 126 73 20 20 69 124 88 187 7 22 16 40 20
40 4 0 6 23 4 50 -3 57 1 62 17 23 11 -28 11 -28 19 17 11 69 13 74 32 89 14
9 16 16 8 24 -16 16 -13 27 4 20 13 -4 15 2 9 38 -3 24 -12 56 -19 72 -12 25
-8 36 8 20 4 -3 19 -8 33 -9 29 -3 56 18 59 45 1 9 7 29 14 44 14 35 14 37 -2
37 -28 0 -35 20 -21 66 7 24 11 51 8 58 -3 8 4 24 16 36 25 25 21 35 -9 25
-12 -3 -24 -17 -27 -31 -3 -13 -8 -24 -11 -24 -4 0 -45 20 -52 26 -1 1 15 22
38 45 27 29 38 46 31 53 -12 12 -13 69 -1 62 5 -3 20 9 35 28 22 30 24 35 10
47 -12 10 -20 7 -43 -22 -16 -19 -32 -31 -36 -27 -5 4 -3 14 4 22 6 8 10 20 9
27 -2 8 4 13 14 11 12 -2 16 2 12 13 -3 8 -1 15 4 15 12 0 28 87 18 98 -4 3
-17 -6 -29 -20 -27 -33 -77 -48 -77 -24 0 9 -4 16 -10 16 -5 0 -10 -6 -10 -14
0 -13 -49 -56 -64 -56 -3 0 -6 15 -7 33 l0 32 -17 -24 c-9 -14 -25 -34 -34
-45 -18 -20 -18 -20 -12 21 5 35 3 43 -16 53 -12 6 -24 9 -27 6 -4 -3 -12 -1
-19 5 -8 6 -21 9 -29 5 -20 -7 -20 -56 0 -56 8 0 15 -9 15 -20 0 -22 20 -26
38 -8 9 9 12 7 12 -10 0 -12 5 -22 11 -22 7 0 9 -12 5 -36 -6 -31 -4 -36 13
-41 14 -3 22 -14 23 -32 3 -51 4 -56 9 -66 4 -6 7 -29 7 -52 1 -32 -4 -46 -23
-65 -14 -12 -25 -28 -25 -34 0 -7 -21 -10 -55 -8 -56 3 -69 -8 -43 -34 9 -9 5
-10 -18 -3 -16 4 -36 6 -44 3 -21 -7 -5 8 22 22 14 7 24 22 26 39 3 21 -2 29
-22 37 -30 11 -35 30 -7 30 10 0 24 6 30 14 15 18 -9 39 -41 34 -19 -2 -24 2
-26 25 -2 15 -8 27 -13 27 -5 0 -9 7 -9 15 0 8 -4 15 -9 15 -8 0 -5 -21 14
-92 10 -40 -3 -35 -21 7 -17 42 -39 48 -29 8 3 -16 13 -35 21 -44 16 -18 9
-30 -14 -22 -11 5 -14 2 -10 -8 4 -9 -3 -21 -15 -29 -15 -9 -22 -10 -25 -1 -6
19 -36 12 -65 -14 -33 -31 -33 -35 -5 -70 l22 -28 -29 19 c-27 18 -29 18 -22
1 4 -11 1 -20 -8 -23 -8 -4 -13 -9 -11 -13 3 -4 -4 -7 -15 -7 -10 0 -19 4 -19
8 0 4 7 8 15 8 8 0 15 7 15 15 0 8 -7 15 -15 15 -7 0 -18 7 -23 16 -7 12 -14
14 -28 6 -10 -5 -25 -7 -32 -5 -7 3 -19 -1 -27 -7 -11 -9 -15 -9 -15 -1 0 6
-7 11 -17 11 -9 0 -14 3 -11 6 4 3 0 17 -7 31 -12 23 -12 28 3 39 15 12 14 15
-15 40 -18 15 -33 31 -33 36 0 15 24 35 37 31 9 -3 9 6 -2 37 -19 53 -19 50 6
50 18 0 19 3 9 15 -10 12 -9 16 5 21 13 5 15 14 10 45 -5 31 -3 39 14 49 12 6
21 16 21 23 0 7 9 13 19 14 15 1 22 -8 31 -45 6 -26 12 -62 12 -79 0 -18 3
-33 7 -33 3 0 32 -4 64 -10 63 -10 87 -6 87 17 0 25 -55 71 -93 78 -41 8 -44
13 -22 41 8 10 15 28 15 39 1 11 4 14 7 8 7 -19 23 -16 23 3 0 33 49 -31 56
-73 13 -81 37 -84 40 -5 1 56 12 92 26 92 5 0 12 -9 15 -20 3 -11 12 -20 19
-20 8 0 14 -4 14 -10 0 -5 -4 -10 -9 -10 -12 0 -22 -57 -15 -86 5 -18 13 -24
33 -24 14 0 31 4 37 8 16 10 34 70 34 110 l0 36 -33 -32 -33 -32 0 35 c0 34 7
40 41 36 14 -1 12 58 -4 87 -10 18 -20 22 -61 22 l-50 0 11 28 c22 57 30 126
18 154 -19 47 -28 31 -24 -44 4 -67 4 -69 -6 -28 -5 25 -11 65 -12 88 -2 41
-4 45 -42 57 -71 25 -202 4 -155 -25 10 -6 3 -9 -25 -12 -21 -2 -41 -9 -45
-18 -4 -8 -12 -25 -19 -38 -18 -36 -4 -108 25 -127 27 -17 32 -35 9 -35 -8 0
-22 -8 -32 -18 -28 -29 -49 -33 -69 -11 -9 10 -23 19 -31 19 -7 0 -13 11 -13
24 0 13 -7 26 -15 30 -17 6 -19 -3 -6 -36 4 -13 11 -42 15 -65 6 -39 4 -43
-14 -43 -11 0 -20 7 -20 15 0 25 -31 66 -44 58 -7 -4 -6 -1 2 9 10 12 8 21
-12 51 -13 19 -22 38 -19 41 3 3 -8 21 -25 40 -16 19 -32 40 -35 48 -4 10 -7
10 -14 0 -7 -9 -16 0 -32 30 -41 77 -69 123 -87 141 -32 32 -34 17 -4 -32 17
-26 30 -52 30 -56 0 -5 11 -23 25 -40 37 -50 113 -207 125 -260 13 -60 20 -71
31 -54 7 11 9 10 9 -3 0 -10 -4 -18 -10 -18 -5 0 -10 -5 -10 -11 0 -6 7 -8 16
-5 12 5 14 1 9 -14 -4 -13 1 -34 14 -55 11 -19 16 -35 11 -35 -5 0 -12 5 -15
11 -4 6 -13 8 -19 6 -14 -5 -120 45 -148 70 -10 9 -22 12 -30 7 -16 -10 -59
-6 -75 8 -15 12 -16 1 -4 -82 9 -59 5 -67 -45 -93 -27 -14 -45 -57 -24 -57 6
0 5 -12 -1 -27 -8 -22 -7 -30 5 -39 9 -6 12 -14 8 -18 -6 -7 31 -1 66 10 6 2
12 -1 12 -6 0 -6 -9 -10 -19 -10 -13 0 -19 -6 -19 -17 1 -10 -2 -27 -5 -38 -6
-16 -2 -20 18 -21 14 -1 25 3 25 8 0 6 6 5 15 -2 11 -9 18 -10 28 -1 11 8 16
5 25 -15 15 -31 15 -61 2 -69 -6 -3 -10 -18 -10 -32 0 -18 4 -24 14 -20 10 4
13 1 9 -9 -6 -17 8 -18 27 -1 7 6 0 -6 -17 -28 -47 -63 -47 -64 -18 -91 31
-29 28 -36 -29 -63 -41 -20 -50 -33 -84 -116 -2 -5 12 8 32 30 20 22 36 45 36
52 0 7 7 13 15 13 8 0 15 -4 15 -9 0 -17 -130 -170 -150 -176 -11 -3 -42 -30
-69 -58 -46 -48 -52 -51 -72 -39 -27 17 -32 11 -13 -16 34 -49 71 -27 190 113
50 60 94 103 101 100 8 -3 13 4 13 19 0 24 22 48 54 60 15 5 17 4 7 -8 -6 -7
-10 -20 -8 -27 2 -8 2 -10 -1 -6 -4 9 -42 -41 -42 -55 0 -5 7 -8 15 -8 8 0 15
-3 15 -6 0 -17 -57 -197 -85 -269 -18 -47 -29 -82 -24 -79 11 6 29 47 74 164
18 47 38 85 44 84 6 -1 22 -2 34 -2 23 -2 24 -3 15 -59 -14 -86 0 -249 24
-279 11 -15 -8 -22 -77 -30 -44 -5 -58 -3 -82 13 -29 21 -73 36 -73 25 0 -3
12 -16 27 -28 l28 -22 -40 -11 c-22 -6 -51 -11 -64 -11 -20 0 -23 -4 -19 -30
3 -19 0 -31 -10 -35 -20 -7 -22 -7 -22 9 0 16 -18 31 -27 23 -3 -3 2 -20 11
-38 9 -18 16 -39 16 -48 0 -9 7 -27 16 -39 18 -27 11 -112 -13 -148 -11 -18
-11 -23 -1 -27 10 -4 10 -6 1 -6 -17 -1 -16 -43 1 -106 7 -28 10 -59 5 -70 -6
-15 -8 -16 -8 -4 -1 21 -9 24 -106 40 -58 9 -86 19 -105 36 l-25 24 85 -3 c98
-3 118 11 38 28 -67 15 -175 36 -208 40 -61 8 -180 17 -187 13 -4 -2 -10 10
-13 26 -4 21 -15 35 -39 47 -18 9 -44 27 -58 40 -22 21 -24 27 -17 88 4 36 12
86 19 113 7 26 9 47 4 47 -4 0 -10 -6 -12 -12 -4 -9 -6 -8 -6 3 -1 8 4 20 10
26 13 13 3 36 -12 27 -5 -3 -21 -8 -36 -10 -42 -8 -43 -11 -43 -91 0 -64 -2
-74 -16 -69 -8 3 -44 14 -80 23 -51 14 -63 21 -58 33 3 8 12 36 19 62 17 61
21 68 61 84 45 19 61 18 67 -6 7 -26 59 -27 108 -1 35 19 36 19 47 0 7 -10 18
-19 26 -19 9 0 15 -17 18 -56 6 -64 30 -97 66 -88 16 5 22 14 22 33 0 48 27
33 35 -18 8 -56 29 -97 54 -111 11 -5 23 -19 26 -31 5 -16 14 -19 38 -17 26 2
34 9 42 35 5 18 14 33 20 33 44 0 72 92 56 179 -14 70 -5 77 46 35 42 -35 45
-35 38 -13 -9 34 -61 79 -90 79 -16 0 -25 6 -25 15 0 29 39 15 84 -31 l45 -45
68 6 c70 7 97 15 50 15 -26 0 -35 11 -72 88 -8 17 -19 32 -24 32 -5 0 -28 16
-52 36 -37 31 -48 35 -78 29 -26 -4 -32 -3 -21 4 13 9 13 14 -2 38 -9 15 -32
37 -51 48 -20 11 -55 32 -79 48 -41 24 -49 26 -93 18 -43 -8 -58 -18 -115 -78
-36 -37 -73 -79 -83 -93 -15 -21 -16 -22 -7 -2 6 12 13 64 15 115 6 126 15
228 21 250 4 11 0 17 -10 17 -11 0 -16 10 -16 31 0 20 -4 29 -12 27 -8 -3 -16
-34 -20 -79 -5 -41 -9 -83 -10 -94 -2 -12 3 -20 12 -20 8 0 16 -10 18 -22 6
-39 -16 -235 -27 -246 -8 -8 -11 0 -11 27 0 20 -5 46 -11 57 -8 16 -7 25 5 38
16 18 28 121 14 121 -4 0 -8 -12 -8 -27 0 -55 -18 -59 -26 -7 -5 27 -8 56 -7
64 8 75 9 151 2 156 -5 3 -5 13 1 24 11 21 16 202 6 218 -3 6 -2 13 3 17 6 3
9 11 7 18 -1 7 -1 9 1 5 3 -5 10 -8 17 -8 9 0 16 27 23 78 l10 77 3 -115 c5
-171 7 -182 22 -156 10 17 18 62 34 188 4 30 2 53 -5 61 -17 21 -3 27 63 27
72 0 107 8 105 24 -1 6 1 19 5 29 14 30 -1 45 -60 57 -45 9 -64 20 -88 46 -16
19 -37 34 -45 34 -9 1 -27 10 -40 20 -19 17 -22 26 -17 53 4 17 9 66 12 107 3
41 12 88 20 104 18 37 18 46 0 46 -24 0 -54 -52 -61 -105 -10 -77 -18 -85 -26
-25 -3 30 -10 66 -13 80 -6 25 -6 25 5 3 37 -71 24 53 -16 148 -14 35 -33 89
-40 119 -12 48 -12 52 1 36 10 -14 14 -16 14 -5 0 16 -19 49 -20 34 -1 -5 -10
18 -21 52 -12 37 -29 70 -44 81 -14 11 -25 26 -25 33 1 19 39 87 40 71 0 -10
5 -10 20 -2 22 12 25 8 33 -40 3 -18 5 -15 6 11 0 20 7 39 14 42 9 3 13 29 12
90 0 94 -10 114 -66 137 -32 14 -50 7 -31 -12 7 -7 12 -17 12 -22 -1 -18 -40
35 -40 53 0 23 -23 86 -39 104 -14 17 -64 14 -89 -6 -10 -8 -12 -5 -7 14 4 17
-1 31 -20 52 -32 34 -55 34 -97 0z m47 -31 c-3 -3 -11 0 -18 7 -9 10 -8 11 6
5 10 -3 15 -9 12 -12z m142 -54 c-3 -8 -6 -5 -6 6 -1 11 2 17 5 13 3 -3 4 -12
1 -19z m103 -212 c0 -2 -7 -9 -15 -16 -13 -11 -14 -10 -9 4 5 14 24 23 24 12z
m27 -18 c-3 -8 -6 -5 -6 6 -1 11 2 17 5 13 3 -3 4 -12 1 -19z m-613 -7 c3 -5
-1 -11 -9 -15 -9 -3 -15 0 -15 9 0 16 16 20 24 6z m22 -68 c-6 -13 -9 -14 -19
-3 -9 10 -9 13 1 17 6 3 13 12 13 21 1 14 2 14 6 -1 3 -10 2 -25 -1 -34z m511
-35 c-3 -8 -6 -5 -6 6 -1 11 2 17 5 13 3 -3 4 -12 1 -19z m-333 -102 c7 3 20
-6 29 -19 15 -23 15 -25 -3 -30 -11 -3 -23 -1 -26 4 -3 5 0 9 5 9 6 0 11 7 11
15 0 8 -4 15 -10 15 -5 0 -10 -4 -10 -10 0 -5 -4 -10 -10 -10 -5 0 -10 10 -9
23 0 12 3 17 5 10 3 -7 11 -10 18 -7z m216 -49 c0 -8 -7 -14 -15 -14 -25 0
-17 17 13 26 1 1 2 -5 2 -12z m177 -119 c-3 -7 -5 -2 -5 12 0 14 2 19 5 13 2
-7 2 -19 0 -25z m-47 -93 c-6 -15 -13 -25 -16 -23 -2 3 1 17 7 32 16 34 23 27
9 -9z m-74 -70 c-9 -29 -20 -57 -26 -60 -11 -7 -33 32 -27 48 3 7 9 1 15 -13
10 -24 11 -24 11 -3 1 12 5 24 10 28 6 3 13 27 18 53 4 30 9 39 11 24 2 -12
-4 -47 -12 -77z m-130 14 c1 -5 2 -10 3 -11 1 -2 4 -20 5 -42 2 -21 0 -32 -4
-25 -11 21 -22 105 -13 95 4 -4 9 -12 9 -17z m319 0 c11 -17 0 -20 -21 -4 -17
13 -17 14 -2 15 9 0 20 -5 23 -11z m5 -79 c8 -5 12 -11 10 -14 -3 -2 -14 2
-24 10 -22 15 -10 19 14 4z m-237 -26 c16 -6 12 -44 -5 -44 -6 0 -8 7 -4 15 3
8 1 15 -4 15 -5 0 -18 -19 -29 -42 -20 -44 -24 -42 -35 19 -5 30 -3 32 27 36
18 2 33 5 34 5 1 1 8 -1 16 -4z m160 -1 c-7 -2 -19 -2 -25 0 -7 3 -2 5 12 5
14 0 19 -2 13 -5z m1435 -28 c-3 -3 -9 2 -12 12 -6 14 -5 15 5 6 7 -7 10 -15
7 -18z m-1248 -4 c-5 -11 -10 -38 -10 -61 0 -47 -26 -160 -41 -175 -5 -5 -9 1
-9 16 0 14 4 29 9 35 5 5 12 34 15 64 9 92 22 140 37 140 6 0 6 -7 -1 -19z
m-94 -99 c6 -37 7 -78 3 -92 -7 -25 -7 -25 -10 5 -1 17 -2 44 -3 61 -1 17 -7
38 -14 46 -6 8 -11 27 -10 41 4 45 22 12 34 -61z m1074 50 c0 -15 -2 -15 -10
-2 -13 20 -13 33 0 25 6 -3 10 -14 10 -23z m-1332 1 c-10 -2 -18 -9 -18 -15 0
-6 -3 -9 -6 -5 -10 10 6 27 24 26 15 -1 15 -2 0 -6z m-21 -75 c-3 -7 -5 -2 -5
12 0 14 2 19 5 13 2 -7 2 -19 0 -25z m1383 -18 c0 -5 -5 -10 -11 -10 -5 0 -7
5 -4 10 3 6 8 10 11 10 2 0 4 -4 4 -10z m577 -22 c-3 -8 -6 -5 -6 6 -1 11 2
17 5 13 3 -3 4 -12 1 -19z m-1900 -50 c-3 -8 -6 -5 -6 6 -1 11 2 17 5 13 3 -3
4 -12 1 -19z m-236 -11 c-1 -12 -15 -9 -19 4 -3 6 1 10 8 8 6 -3 11 -8 11 -12z
m70 -114 c13 -15 12 -15 -9 -2 -20 12 -24 12 -32 -1 -5 -8 -10 -10 -10 -4 0
27 31 32 51 7z m1519 -12 c5 -11 10 -26 9 -33 0 -7 -4 -3 -10 10 -5 13 -13 20
-19 17 -5 -3 -10 1 -10 9 0 22 17 20 30 -3z m-1635 -1 c-3 -5 -10 -10 -16 -10
-5 0 -9 5 -9 10 0 6 7 10 16 10 8 0 12 -4 9 -10z m1685 -33 c0 -5 -4 -5 -10
-2 -5 3 -10 14 -10 23 0 15 2 15 10 2 5 -8 10 -19 10 -23z m-1685 -7 c-6 -18
-3 -19 25 -14 25 6 29 4 24 -10 -4 -11 -1 -16 10 -16 9 0 16 -4 16 -10 0 -5
-5 -10 -11 -10 -5 0 -7 -5 -3 -11 4 -8 9 -7 15 2 8 12 11 11 19 -1 7 -11 5
-16 -11 -18 -23 -4 -52 16 -43 29 3 5 -1 9 -9 9 -7 0 -23 10 -35 23 -17 18
-19 26 -10 35 17 17 20 15 13 -8z m2590 -10 c-3 -5 -13 -10 -21 -10 -8 0 -12
5 -9 10 3 6 13 10 21 10 8 0 12 -4 9 -10z m-2152 -17 c-7 -2 -19 -2 -25 0 -7
3 -2 5 12 5 14 0 19 -2 13 -5z m1182 -23 c-4 -12 -9 -19 -12 -17 -3 3 -2 15 2
27 4 12 9 19 12 17 3 -3 2 -15 -2 -27z m73 -5 c15 -32 15 -46 1 -22 -20 33
-32 19 -25 -30 5 -35 4 -44 -4 -33 -13 19 -8 110 6 110 6 0 16 -11 22 -25z
m-1928 -77 c-1 -51 1 -108 5 -125 6 -27 4 -33 -9 -33 -12 0 -16 11 -16 48 0
65 12 202 17 202 3 0 4 -42 3 -92z m2825 82 c-3 -5 -12 -10 -18 -10 -7 0 -6 4
3 10 19 12 23 12 15 0z m-2567 -53 c17 -16 21 -28 17 -51 -5 -31 7 -276 24
-454 5 -51 5 -107 1 -125 l-7 -32 -11 37 c-5 21 -18 45 -27 54 -13 13 -15 26
-9 53 4 20 7 56 7 81 1 80 -14 334 -20 343 -3 5 -9 35 -12 67 -8 62 -5 64 37
27z m1587 -36 c4 -20 10 -45 15 -57 6 -15 4 -21 -6 -21 -8 0 -16 17 -20 46 -4
25 -11 57 -16 70 -7 21 -7 22 6 11 9 -6 18 -28 21 -49z m-151 31 c9 -14 -8
-29 -31 -27 -30 2 -42 15 -14 15 12 0 19 4 16 10 -3 6 1 10 9 10 8 0 17 -4 20
-8z m-1094 -18 c0 -14 -3 -14 -15 -4 -8 7 -15 14 -15 16 0 2 7 4 15 4 8 0 15
-7 15 -16z m92 4 c-9 -9 -15 -9 -24 0 -9 9 -7 12 12 12 19 0 21 -3 12 -12z
m-342 -38 c0 -5 -5 -10 -11 -10 -5 0 -7 5 -4 10 3 6 8 10 11 10 2 0 4 -4 4
-10z m100 -2 c0 -9 4 -8 10 2 7 11 10 5 10 -22 0 -27 -4 -38 -15 -38 -8 0 -15
1 -15 3 0 1 -4 17 -9 35 -8 25 -7 32 5 32 8 0 14 -6 14 -12z m2004 -8 c35 -13
33 -30 -4 -30 -23 0 -30 4 -30 20 0 23 0 23 34 10z m-2121 -50 c3 -11 1 -20
-4 -20 -5 0 -9 9 -9 20 0 11 2 20 4 20 2 0 6 -9 9 -20z m1967 -22 c0 -13 -23
-5 -28 10 -2 7 2 10 12 6 9 -3 16 -11 16 -16z m-435 2 c3 -5 1 -10 -4 -10 -6
0 -11 5 -11 10 0 6 2 10 4 10 3 0 8 -4 11 -10z m522 4 c-3 -3 -12 -4 -19 -1
-8 3 -5 6 6 6 11 1 17 -2 13 -5z m-2032 -36 c4 -12 35 -320 35 -347 0 -6 7
-11 16 -11 13 0 15 -11 12 -67 -3 -58 -1 -68 15 -71 13 -3 17 -13 17 -42 0
-21 -4 -42 -10 -45 -5 -3 -10 -19 -10 -36 0 -17 -5 -29 -13 -29 -7 0 -21 -19
-32 -42 -10 -24 -23 -46 -28 -50 -7 -4 -7 -11 1 -21 10 -12 9 -16 -3 -21 -17
-6 -21 -36 -5 -36 6 0 10 5 10 10 0 6 6 5 14 -2 9 -8 10 -15 3 -19 -23 -15 3
-38 45 -41 l43 -3 1 -57 c1 -31 4 -63 7 -71 4 -10 -25 -26 -96 -55 l-102 -42
-17 22 c-18 25 -17 102 2 138 6 10 10 30 10 44 0 19 9 29 35 42 19 9 35 20 35
25 0 18 -21 18 -54 -2 -23 -13 -42 -18 -54 -13 -9 4 -23 6 -29 5 -7 -1 -13 5
-13 14 0 9 5 13 10 10 6 -4 10 11 10 38 0 27 6 49 15 57 22 18 19 30 -17 67
l-32 33 27 0 c15 0 39 8 54 17 24 16 26 16 39 -2 22 -30 38 -4 39 67 0 35 6
82 13 106 21 71 18 250 -8 381 -12 65 -12 61 0 61 6 0 13 -6 15 -12z m2042
-28 c2 -17 -1 -18 -18 -7 -24 15 -25 37 -1 30 10 -2 18 -13 19 -23z m-1869 -5
c-3 -3 -9 2 -12 12 -6 14 -5 15 5 6 7 -7 10 -15 7 -18z m-131 -17 c-3 -8 -6
-5 -6 6 -1 11 2 17 5 13 3 -3 4 -12 1 -19z m-383 -15 c-4 -16 -8 -29 -8 -30
-1 -1 -7 11 -13 27 -10 27 -9 30 8 30 16 0 18 -5 13 -27z m2404 -53 c-3 -16
-1 -30 3 -30 7 0 39 -56 39 -68 0 -3 -11 5 -24 17 -15 14 -38 23 -60 24 -29 1
-33 3 -19 10 31 17 53 45 47 61 -4 9 -1 16 6 16 8 0 11 -11 8 -30z m136 18 c3
3 6 0 6 -7 0 -7 5 -9 10 -6 6 3 10 2 10 -4 0 -5 15 -25 33 -43 19 -18 36 -43
39 -55 6 -21 5 -21 -18 -6 -13 8 -24 12 -24 8 0 -5 -9 0 -20 10 -11 10 -34 18
-52 19 -18 1 -38 7 -44 15 -6 8 -18 11 -28 8 -18 -7 -20 1 -7 22 5 8 14 10 21
6 9 -5 11 -4 6 3 -4 7 -2 12 4 12 7 0 10 6 7 14 -5 11 0 13 23 6 16 -4 31 -6
34 -2z m-2146 -84 l-3 -39 -5 47 c-3 26 -1 43 3 39 5 -5 7 -26 5 -47z m1917
-29 c0 -69 -36 -88 -48 -26 -3 16 -13 36 -22 44 -22 22 -19 28 10 21 14 -3 25
-2 25 4 0 6 8 8 18 5 13 -3 17 -14 17 -48z m-1777 -55 c0 -42 -2 -49 -8 -30
-11 35 -11 131 0 105 5 -11 8 -45 8 -75z m1312 35 c-7 -9 -15 -13 -18 -10 -3
2 1 11 8 20 7 9 15 13 18 10 3 -2 -1 -11 -8 -20z m-110 -25 c0 -5 -7 -10 -16
-10 -8 0 -12 5 -9 10 3 6 10 10 16 10 5 0 9 -4 9 -10z m677 -6 c2 -5 -6 -10
-17 -10 -11 0 -20 6 -20 12 0 14 32 12 37 -2z m-617 2 c0 -2 -7 -9 -15 -16
-13 -11 -14 -10 -9 4 5 14 24 23 24 12z m877 -18 c-3 -8 -6 -5 -6 6 -1 11 2
17 5 13 3 -3 4 -12 1 -19z m-2650 -20 c-3 -7 -5 -2 -5 12 0 14 2 19 5 13 2 -7
2 -19 0 -25z m2670 -18 c-3 -11 -1 -23 4 -26 5 -3 9 -13 9 -22 -1 -15 -2 -15
-15 2 -18 23 -20 66 -4 66 6 0 9 -9 6 -20z m-925 -52 c-7 -7 -12 -8 -12 -2 0
14 12 26 19 19 2 -3 -1 -11 -7 -17z m79 -20 c-34 -26 -48 -22 -21 7 12 13 27
22 33 18 6 -4 1 -14 -12 -25z m-71 -30 c0 -18 -11 -31 -37 -46 -29 -15 -29 -3
-2 32 22 28 39 34 39 14z m100 8 c0 -2 -7 -6 -15 -10 -8 -3 -15 -1 -15 4 0 6
7 10 15 10 8 0 15 -2 15 -4z m10 -35 c2 -1 -1 -6 -8 -13 -9 -9 -15 -9 -23 -1
-6 6 -18 9 -25 6 -8 -3 -14 0 -14 6 0 9 17 10 70 2z m321 -32 c-9 -22 -10 -22
-10 -3 -1 11 2 24 6 27 12 12 14 0 4 -24z m55 -11 c-7 -18 -16 -42 -20 -52 -3
-10 -9 -17 -11 -14 -7 7 26 98 35 98 5 0 3 -15 -4 -32z m738 18 c51 -21 89
-78 92 -137 3 -38 0 -49 -11 -49 -8 0 -15 -6 -15 -12 0 -9 -3 -9 -9 1 -8 13
-12 13 -27 0 -16 -13 -16 -12 -5 9 6 12 18 22 25 22 16 0 41 28 33 36 -3 3
-15 0 -27 -6 -19 -10 -21 -9 -16 7 3 10 2 24 -3 31 -10 16 -41 -54 -41 -93 0
-13 -4 -27 -10 -30 -5 -3 -10 1 -10 10 0 9 -4 13 -10 10 -5 -3 -10 -1 -10 4 0
6 4 11 9 11 8 0 43 80 48 114 4 22 -14 46 -33 46 -8 0 -14 -7 -14 -15 0 -12
-7 -9 -27 9 -25 24 -29 24 -50 11 -13 -9 -23 -11 -23 -6 0 9 65 40 88 40 7 1
28 -5 46 -13z m-1234 -12 c0 -8 -5 -12 -10 -9 -6 4 -8 11 -5 16 9 14 15 11 15
-7z m557 -42 c-8 -21 -18 -46 -22 -57 -5 -13 -9 -16 -12 -7 -3 7 -1 20 3 30 4
9 8 20 8 24 1 4 7 13 14 20 6 6 12 21 13 33 0 12 3 15 6 7 3 -8 -2 -30 -10
-50z m-43 -9 c-4 -15 -16 -36 -26 -48 -16 -17 -16 -13 4 27 26 55 31 59 22 21z
m-1180 -32 c21 -5 53 -23 70 -39 17 -16 40 -33 51 -37 13 -5 15 -9 8 -12 -7
-3 -13 -12 -13 -20 0 -13 -3 -13 -15 -3 -21 18 -32 4 -13 -17 28 -33 32 -49 8
-28 l-23 20 6 -25 c4 -14 7 -33 7 -42 0 -23 30 -12 30 11 1 19 34 -52 44 -91
5 -23 3 -28 -13 -28 -11 0 -22 6 -24 13 -3 6 -6 3 -7 -8 l-1 -20 -9 20 c-5 11
-9 32 -9 48 -1 17 -6 27 -16 27 -10 0 -15 10 -15 28 0 29 -24 72 -41 72 -12 0
-12 -27 1 -32 15 -5 17 -50 2 -55 -7 -3 -13 1 -11 8 3 29 -2 39 -21 39 -22 0
-25 5 -35 63 -4 23 -11 37 -20 37 -8 0 -15 7 -15 15 0 9 -10 19 -22 24 -17 6
-31 2 -55 -17 -34 -25 -47 -17 -15 10 50 45 95 55 166 39z m1783 -13 c-3 -8
-6 -5 -6 6 -1 11 2 17 5 13 3 -3 4 -12 1 -19z m-34 -38 c-3 -11 0 -26 6 -34 9
-10 9 -23 2 -48 l-11 -33 4 37 c3 21 0 40 -5 43 -12 8 -12 55 0 55 5 0 7 -9 4
-20z m76 -33 c-5 -21 -7 -47 -4 -57 4 -13 1 -22 -10 -26 -9 -4 -13 -13 -11
-23 3 -9 2 -22 -3 -29 -6 -10 -10 -5 -14 17 -8 39 1 69 15 49 6 -9 8 -1 5 22
-3 20 2 47 10 63 19 38 25 30 12 -16z m-759 23 c0 -5 -4 -10 -10 -10 -5 0 -10
5 -10 10 0 6 5 10 10 10 6 0 10 -4 10 -10z m-840 -50 c6 -11 8 -20 5 -20 -3 0
2 -11 11 -25 17 -26 44 -34 44 -13 0 9 3 9 11 1 8 -8 7 -21 -2 -47 l-13 -36
-13 25 c-8 14 -20 25 -27 25 -7 0 -19 7 -26 15 -7 8 -23 15 -36 15 -32 0 -63
28 -57 51 4 12 17 19 42 22 20 2 39 4 43 5 4 1 12 -7 18 -18z m-390 -16 c0 -8
-4 -12 -10 -9 -5 3 -10 13 -10 21 0 8 5 12 10 9 6 -3 10 -13 10 -21z m2110 -4
c0 -5 -7 -10 -16 -10 -8 0 -12 5 -9 10 3 6 10 10 16 10 5 0 9 -4 9 -10z m38
-12 c-3 -7 -13 -15 -24 -17 -16 -3 -17 -1 -5 13 16 19 34 21 29 4z m-2676 -13
c0 -5 -5 -11 -11 -13 -6 -2 -11 4 -11 13 0 9 5 15 11 13 6 -2 11 -8 11 -13z
m470 -37 c-2 -11 -11 -22 -18 -25 -28 -10 -33 3 -12 35 22 35 40 29 30 -10z
m2596 5 c2 -9 -7 -13 -27 -13 -30 0 -39 9 -24 24 11 10 46 3 51 -11z m-2835
-18 c-3 -9 -8 -14 -10 -11 -3 3 -2 9 2 15 9 16 15 13 8 -4z m286 8 c0 -5 -4
-17 -9 -28 -8 -18 -9 -17 -9 8 -1 15 4 27 9 27 6 0 10 -3 9 -7z m511 -38 c10
-12 10 -15 -4 -15 -9 0 -16 7 -16 15 0 8 2 15 4 15 2 0 9 -7 16 -15z m-270
-30 c0 -14 -4 -25 -10 -25 -11 0 -14 33 -3 43 11 11 13 8 13 -18z m-194 1 c18
-18 18 -23 0 -23 -8 0 -17 9 -19 19 -6 22 0 23 19 4z m2519 -6 c8 -13 -55 -13
-75 0 -11 7 -4 10 27 10 23 0 45 -4 48 -10z m-2428 -32 c-3 -8 -6 -5 -6 6 -1
11 2 17 5 13 3 -3 4 -12 1 -19z m-498 -13 c0 -11 -5 -29 -10 -40 -7 -17 -8
-15 -6 10 1 18 -3 30 -10 30 -7 0 -18 6 -24 12 -10 10 -6 12 19 10 25 -1 32
-7 31 -22z m424 -5 c3 -11 1 -23 -4 -26 -5 -3 -9 6 -9 20 0 31 6 34 13 6z m40
-5 c4 -8 2 -17 -3 -20 -6 -4 -10 3 -10 14 0 25 6 27 13 6z m217 -21 c0 -2 -7
-4 -15 -4 -8 0 -15 4 -15 10 0 5 7 7 15 4 8 -4 15 -8 15 -10z m-280 -4 c0 -5
-2 -10 -4 -10 -3 0 -8 5 -11 10 -3 6 -1 10 4 10 6 0 11 -4 11 -10z m2397 -15
c9 -24 -1 -27 -15 -5 -8 13 -8 20 -2 20 6 0 13 -7 17 -15z m-2097 -24 c0 -5
-9 -11 -20 -14 -22 -6 -28 8 -7 16 19 8 27 8 27 -2z m858 -72 c1 -19 10 -55
21 -80 11 -24 21 -61 21 -81 0 -41 18 -61 27 -29 6 24 23 28 23 6 0 -8 9 -20
20 -27 24 -15 26 -41 5 -58 -8 -7 -12 -16 -9 -21 3 -5 -2 -9 -11 -9 -9 0 -27
-11 -40 -24 -37 -38 -58 -40 -72 -9 -9 19 -10 29 -2 33 6 4 7 18 4 33 -4 15
-12 24 -18 20 -6 -3 -7 -1 -3 6 10 15 -2 51 -18 51 -7 0 -25 13 -41 30 -33 35
-83 60 -119 60 -40 0 -31 -17 13 -25 52 -9 104 -53 104 -88 0 -56 -72 -93
-119 -62 -13 8 -31 15 -40 15 -23 0 -54 29 -54 50 0 22 -25 44 -40 35 -12 -8
-13 -42 -1 -49 4 -3 11 -23 14 -45 3 -22 14 -53 26 -70 12 -16 21 -40 21 -53
0 -36 19 -48 75 -49 44 0 47 -2 25 -10 -14 -6 -44 -8 -67 -4 -40 6 -43 9 -54
48 -6 23 -15 51 -19 62 -5 11 -14 38 -21 60 -15 49 -35 80 -43 67 -3 -6 -3
-17 0 -26 3 -9 1 -16 -5 -16 -6 0 -10 -3 -10 -7 1 -5 1 -26 0 -47 -1 -37 -2
-38 -15 -21 -8 11 -12 23 -10 26 2 4 -3 12 -11 19 -13 11 -14 10 -8 -6 8 -23
37 -75 61 -112 9 -14 12 -23 5 -19 -25 15 -82 125 -101 192 -22 80 -57 158
-78 176 -8 6 -14 18 -14 27 0 8 -7 23 -15 32 -14 16 -13 17 24 17 21 0 70 8
109 17 38 10 81 16 93 14 19 -4 16 -6 -15 -13 -21 -4 -47 -16 -57 -26 -21 -21
-25 -34 -8 -24 6 4 16 -1 24 -11 13 -19 9 -43 -9 -57 -7 -4 -2 -9 12 -13 12
-4 22 -11 22 -16 0 -11 63 -1 105 17 17 7 38 15 48 19 9 3 17 15 17 27 0 18 4
20 25 15 14 -4 25 -2 25 3 0 5 20 14 44 20 51 12 92 43 82 59 -4 7 -18 10 -34
6 -21 -4 -24 -3 -12 5 8 6 27 8 43 5 19 -4 27 -2 27 8 0 29 27 -40 28 -73z
m-941 9 c-3 -8 -6 -5 -6 6 -1 11 2 17 5 13 3 -3 4 -12 1 -19z m64 -11 c-16
-16 -26 0 -10 19 9 11 15 12 17 4 2 -6 -1 -17 -7 -23z m-697 -13 c4 -9 5 -18
4 -19 -24 -19 -220 -87 -227 -78 -4 3 -1 7 4 9 6 2 53 26 105 52 114 58 106
56 114 36z m1286 -4 c0 -5 -5 -10 -11 -10 -5 0 -7 5 -4 10 3 6 8 10 11 10 2 0
4 -4 4 -10z m1182 -56 c45 -23 43 -35 -4 -28 -77 12 -103 10 -123 -8 -21 -17
-21 -17 -21 16 0 19 3 33 7 30 4 -2 11 0 14 6 8 14 89 3 127 -16z m382 10 c20
-8 21 -44 1 -44 -8 0 -15 4 -15 9 0 5 -3 16 -6 25 -7 18 -4 19 20 10z m-64
-24 c0 -5 -2 -10 -4 -10 -3 0 -8 5 -11 10 -3 6 -1 10 4 10 6 0 11 -4 11 -10z
m17 -54 c3 -3 -30 -6 -75 -6 -44 0 -83 4 -86 9 -7 10 151 8 161 -3z m-3197
-41 c0 -37 -18 -47 -40 -20 -16 19 -3 55 21 55 15 0 19 -7 19 -35z m2450 -5
c-8 -5 -22 -10 -30 -10 -13 0 -13 1 0 10 8 5 22 10 30 10 13 0 13 -1 0 -10z
m830 -30 c0 -3 -36 -5 -80 -5 -88 0 -103 9 -37 22 39 8 117 -3 117 -17z m-191
-11 c-6 -12 -4 -22 6 -33 8 -8 15 -21 15 -28 0 -11 16 -13 70 -11 43 2 70 0
70 -7 0 -5 -11 -10 -24 -10 -12 0 -36 -12 -51 -26 -15 -14 -25 -19 -22 -10 5
13 -2 14 -46 9 -29 -3 -53 -10 -55 -15 -2 -4 -9 -8 -17 -8 -7 0 -18 -7 -25
-15 -9 -10 -9 -15 -1 -15 16 0 14 -16 -5 -35 -12 -11 -20 -13 -27 -6 -15 15
-27 14 -27 -4 0 -10 -11 -16 -32 -17 -18 0 -51 -2 -73 -3 -44 -2 -89 -18 -100
-34 -3 -6 -26 -11 -50 -11 -32 0 -48 -5 -57 -19 -10 -15 -31 -20 -92 -25 -44
-4 -110 -14 -148 -22 -38 -9 -76 -13 -84 -10 -9 3 -12 1 -9 -4 6 -9 -25 -15
-50 -10 -5 1 -34 -1 -62 -5 -72 -9 -70 -30 2 -22 43 4 55 3 55 -8 0 -8 -6 -12
-14 -9 -19 7 -102 -22 -99 -35 4 -16 -23 -13 -37 4 -7 8 -24 15 -39 16 -25 1
-25 1 6 12 65 24 45 37 -27 17 -33 -9 -34 -8 -15 6 20 15 20 15 -3 32 l-23 18
23 11 c38 18 89 33 116 33 24 0 67 11 117 30 11 5 36 14 55 20 69 25 120 52
120 65 0 20 30 27 46 10 17 -17 44 -20 44 -5 0 6 9 10 19 10 23 0 36 16 21 25
-8 5 -8 11 0 20 18 22 2 55 -26 55 -17 0 -24 -6 -24 -19 0 -10 -6 -21 -13 -24
-9 -3 -13 5 -13 30 0 28 3 33 18 30 10 -3 20 -1 23 3 3 5 24 11 48 15 23 4 77
13 119 22 70 13 79 13 100 -1 22 -16 22 -16 -14 -16 -51 0 -57 -17 -8 -22 22
-2 40 0 40 4 0 5 7 8 16 8 10 0 14 6 10 15 -3 8 -1 15 4 15 6 0 10 -5 10 -11
0 -6 6 -9 14 -6 7 3 19 0 25 -6 8 -8 14 -8 23 1 20 20 40 15 29 -7 -8 -14 -7
-20 4 -25 8 -3 17 0 21 5 3 6 18 9 33 6 29 -6 60 7 48 20 -4 4 -20 9 -34 11
-15 2 -36 8 -47 15 -20 11 -20 11 9 17 17 3 51 6 77 6 41 0 46 -2 37 -17z
m-2866 -110 c-5 -26 -7 -26 -41 -17 -21 5 -44 17 -52 25 -16 17 -15 17 38 -4
15 -6 15 -5 3 10 -7 9 -20 17 -27 17 -8 0 -14 5 -14 11 0 6 7 8 15 5 8 -3 22
-9 30 -12 17 -7 21 11 5 21 -5 3 -10 11 -10 18 0 6 13 -2 29 -18 23 -23 28
-36 24 -56z m1452 51 c10 -11 14 -20 9 -20 -5 0 -15 9 -22 20 -7 11 -11 20 -9
20 2 0 12 -9 22 -20z m255 0 c0 -11 -83 -90 -89 -84 -3 2 7 17 21 32 14 15 31
37 37 50 11 21 31 22 31 2z m1447 -37 l22 -33 -27 -2 c-68 -3 -187 -24 -204
-34 -10 -6 -9 -3 1 9 8 10 16 15 19 12 3 -2 20 4 38 16 18 11 45 19 60 17 35
-4 43 18 9 26 -40 10 -29 25 18 23 36 -2 46 -7 64 -34z m-1542 1 c-22 -16 -95
-16 -107 1 -5 6 -8 5 -8 -2 0 -16 -26 -17 -36 -1 -5 8 -2 9 9 5 10 -3 17 -3
17 1 0 4 33 8 73 9 66 2 70 1 52 -13z m580 -24 c3 -5 1 -10 -4 -10 -6 0 -11 5
-11 10 0 6 2 10 4 10 3 0 8 -4 11 -10z m-2250 -22 c22 -6 43 -11 48 -10 4 1 7
-9 7 -23 0 -14 -4 -25 -10 -25 -5 0 -10 4 -10 9 0 4 -20 16 -45 25 -77 30 -69
47 10 24z m1642 -13 c-7 -17 -97 -22 -97 -5 0 6 18 10 39 10 22 0 43 5 46 11
10 15 19 3 12 -16z m1303 -25 c-20 -13 -40 -13 -40 0 0 6 12 10 28 10 21 0 24
-2 12 -10z m-890 -41 c0 -10 -4 -19 -10 -19 -5 0 -10 12 -10 26 0 14 4 23 10
19 6 -3 10 -15 10 -26z m-1070 -5 c0 -8 -5 -12 -10 -9 -6 4 -8 11 -5 16 9 14
15 11 15 -7z m-1100 -111 c0 -5 -10 1 -68 41 -23 16 -42 35 -42 43 0 8 23 -6
55 -33 30 -26 55 -49 55 -51z m1257 55 c-3 -7 -5 -2 -5 12 0 14 2 19 5 13 2
-7 2 -19 0 -25z m2156 25 c-18 -2 -33 -8 -33 -14 0 -5 -4 -9 -10 -9 -5 0 -10
7 -10 15 0 11 11 15 43 13 36 -1 38 -2 10 -5z m-2845 -35 c-3 -7 -25 -16 -49
-20 -24 -4 -97 -25 -161 -46 -89 -31 -118 -37 -122 -27 -7 19 27 31 156 55 25
5 66 17 90 28 50 24 92 28 86 10z m529 -19 c9 -24 10 -52 1 -112 -10 -77 -9
-82 10 -98 16 -12 33 -15 69 -11 26 3 51 10 55 16 21 32 29 -52 18 -185 l-5
-56 -92 -12 c-50 -6 -134 -11 -186 -11 l-94 0 -1 29 c0 17 -5 38 -10 48 -27
55 -4 276 30 282 7 1 49 5 93 8 83 5 104 17 105 59 0 23 -42 48 -57 33 -5 -5
-35 -4 -73 3 l-65 12 75 8 c41 4 82 10 90 12 8 2 17 4 20 5 3 0 11 -13 17 -30z
m1986 11 c4 -15 0 -20 -13 -20 -13 0 -17 5 -13 20 3 11 9 20 13 20 4 0 10 -9
13 -20z m-1673 -35 c0 -13 -7 -26 -16 -29 -22 -8 -23 -7 -17 31 6 37 33 35 33
-2z m-163 -7 c-3 -8 -6 -5 -6 6 -1 11 2 17 5 13 3 -3 4 -12 1 -19z m1718 12
c3 -5 12 -7 20 -3 8 3 15 0 15 -7 0 -15 -52 -9 -58 8 -4 14 14 17 23 2z m75 0
c0 -5 -8 -10 -17 -10 -15 0 -16 2 -3 10 19 12 20 12 20 0z m-487 -32 c-31 -9
-36 -6 -28 14 5 13 11 13 30 4 l24 -11 -26 -7z m363 19 c8 3 14 0 14 -5 0 -6
-9 -13 -20 -16 -71 -20 -68 -21 -40 5 14 13 26 21 28 17 2 -4 10 -4 18 -1z
m-406 -20 c0 -8 -26 -22 -59 -32 -59 -19 -75 -46 -23 -38 26 4 26 4 8 -11 -11
-9 -29 -17 -40 -18 -41 -3 -45 -3 -51 -10 -11 -11 -69 3 -78 18 -4 7 -14 11
-22 8 -8 -4 -15 -1 -15 5 0 6 8 11 18 12 11 0 7 5 -12 13 l-28 13 33 8 c19 4
52 11 74 17 22 5 74 13 115 17 41 4 76 9 78 9 1 1 2 -4 2 -11z m-2490 -33 c0
-2 -9 0 -20 6 -11 6 -20 13 -20 16 0 2 9 0 20 -6 11 -6 20 -13 20 -16z m190
-4 c-20 -13 -33 -13 -25 0 3 6 14 10 23 10 15 0 15 -2 2 -10z m917 -12 c-3 -8
-6 -5 -6 6 -1 11 2 17 5 13 3 -3 4 -12 1 -19z m330 -5 c31 -5 36 -12 58 -78 3
-11 6 -22 5 -24 -1 -2 3 -7 8 -10 5 -3 19 -26 32 -50 18 -37 19 -43 5 -38 -9
4 -14 3 -10 -3 3 -6 12 -10 20 -10 7 0 16 -9 20 -19 3 -11 16 -35 29 -54 13
-19 27 -48 30 -63 l6 -29 -126 -3 c-79 -2 -130 1 -138 8 -9 7 -14 41 -14 103
-1 50 -4 131 -8 178 -7 96 -2 114 30 104 11 -3 35 -8 53 -12z m107 -23 c28
-43 35 -68 10 -35 -19 24 -46 75 -41 75 3 0 16 -18 31 -40z m1717 -2 c-6 -17
-17 -24 -42 -26 -89 -7 -296 -45 -308 -57 -9 -9 -22 -10 -42 -5 -20 6 -41 4
-66 -7 -20 -8 -57 -17 -82 -20 -25 -2 -89 -13 -141 -23 -52 -11 -115 -22 -139
-24 -24 -3 -49 -10 -55 -16 -5 -5 -21 -10 -33 -10 -13 0 -38 -7 -54 -16 -17
-8 -36 -13 -42 -11 -7 2 -32 -2 -57 -9 -25 -8 -64 -16 -88 -19 -24 -3 -55 -10
-69 -16 -31 -12 -35 -9 -20 12 11 15 73 40 107 44 36 5 98 16 135 26 22 6 51
13 64 16 13 2 40 11 60 19 20 8 52 17 71 19 49 5 90 15 109 25 23 12 171 41
180 36 4 -3 39 -1 78 4 96 12 118 17 140 28 19 11 172 40 238 45 22 2 45 4 52
5 9 1 10 -5 4 -20z m90 -1 c-10 -9 -11 -8 -5 6 3 10 9 15 12 12 3 -3 0 -11 -7
-18z m-2180 -39 c11 -21 11 -22 -4 -9 -10 7 -17 17 -17 22 0 15 9 10 21 -13z
m2169 -48 c0 -11 -4 -20 -9 -20 -14 0 -23 18 -16 30 10 17 25 11 25 -10z
m-3537 -80 c15 -7 27 -16 27 -20 0 -4 20 -29 44 -55 l44 -47 -14 -67 c-7 -36
-14 -90 -14 -119 l0 -53 -72 -34 c-40 -19 -77 -35 -83 -35 -12 0 -31 105 -39
215 -3 39 -15 96 -26 127 -22 63 -26 133 -9 144 8 4 9 0 4 -15 -3 -11 -3 -21
2 -21 15 0 33 39 26 57 -3 10 13 1 38 -23 24 -22 56 -46 72 -54z m636 9 c19
-7 33 -20 37 -34 3 -12 -4 -78 -15 -145 -12 -67 -21 -135 -21 -151 0 -35 -3
-35 -60 0 -51 31 -49 20 -35 198 6 75 5 106 -4 117 -10 12 -8 15 11 19 41 8
55 7 87 -4z m-226 -175 l5 -100 -44 -13 c-24 -7 -51 -10 -60 -7 -8 3 -34 -3
-57 -14 -49 -24 -63 -25 -71 -5 -8 22 11 116 34 159 10 21 17 43 14 50 -6 17
147 56 163 42 7 -7 14 -52 16 -112z m1717 46 c0 -12 -9 -22 -24 -26 -31 -7
-46 1 -46 27 0 15 7 19 35 19 28 0 35 -4 35 -20z m-80 6 c0 -3 -4 -8 -10 -11
-5 -3 -10 -1 -10 4 0 6 5 11 10 11 6 0 10 -2 10 -4z m-1489 -253 c13 -16 12
-17 -3 -4 -10 7 -18 15 -18 17 0 8 8 3 21 -13z m-146 -40 c16 -100 27 -86
-101 -133 -63 -23 -117 -41 -119 -39 -5 6 -9 67 -7 119 2 43 4 47 40 60 41 15
101 27 149 29 30 1 33 -2 38 -36z m148 -1 l27 -28 -30 -11 c-17 -6 -30 -8 -30
-3 0 4 -3 22 -6 39 -8 38 4 39 39 3z m32 18 c3 -5 1 -10 -4 -10 -6 0 -11 5
-11 10 0 6 2 10 4 10 3 0 8 -4 11 -10z m-504 -77 c1 -10 2 -40 2 -66 l2 -48
-35 6 c-47 9 -70 23 -70 41 0 10 -6 14 -15 10 -8 -3 -15 -2 -15 2 0 7 106 68
123 71 4 0 7 -7 8 -16z"/>
<path d="M1080 2365 c0 -8 5 -15 10 -15 6 0 10 7 10 15 0 8 -4 15 -10 15 -5 0
-10 -7 -10 -15z"/>
<path d="M940 2320 c0 -5 5 -10 10 -10 6 0 10 5 10 10 0 6 -4 10 -10 10 -5 0
-10 -4 -10 -10z"/>
<path d="M995 2260 c-3 -5 -2 -10 4 -10 5 0 13 5 16 10 3 6 2 10 -4 10 -5 0
-13 -4 -16 -10z"/>
<path d="M1850 2360 c19 -17 41 -30 49 -30 17 0 16 2 -32 34 -51 35 -60 32
-17 -4z"/>
<path d="M2265 1950 c3 -5 8 -10 11 -10 2 0 4 5 4 10 0 6 -5 10 -11 10 -5 0
-7 -4 -4 -10z"/>
<path d="M2260 1916 c0 -9 30 -14 35 -6 4 6 -3 10 -14 10 -12 0 -21 -2 -21 -4z"/>
<path d="M2528 1826 c-19 -14 -24 -36 -9 -36 12 0 33 28 29 39 -2 6 -10 4 -20
-3z"/>
<path d="M2340 1770 c0 -8 5 -22 10 -30 9 -13 10 -13 10 0 0 8 -5 22 -10 30
-9 13 -10 13 -10 0z"/>
<path d="M2910 1730 c6 -11 13 -20 16 -20 2 0 0 9 -6 20 -6 11 -13 20 -16 20
-2 0 0 -9 6 -20z"/>
<path d="M827 1786 c-4 -10 -5 -21 -2 -24 9 -9 17 6 13 25 -3 17 -4 17 -11 -1z"/>
<path d="M3918 1623 c6 -2 18 -2 25 0 6 3 1 5 -13 5 -14 0 -19 -2 -12 -5z"/>
<path d="M2097 1104 c-8 -8 3 -34 14 -34 11 0 12 27 0 34 -4 3 -11 3 -14 0z"/>
<path d="M4955 4639 c-9 -13 27 -40 39 -29 12 12 0 40 -18 40 -8 0 -18 -5 -21
-11z"/>
<path d="M4693 4607 c-60 -12 -73 -32 -14 -22 31 5 40 3 45 -11 5 -13 2 -15
-14 -11 -24 6 -34 -13 -45 -87 l-7 -47 37 7 c27 5 36 4 31 -5 -4 -6 -14 -11
-22 -11 -8 0 -14 -4 -14 -10 0 -5 7 -10 16 -10 9 0 14 -6 12 -12 -3 -7 -15
-13 -29 -13 -38 0 -30 -29 9 -33 l33 -3 -25 -34 c-31 -40 -34 -60 -8 -46 11 6
24 6 35 0 21 -12 37 -4 37 19 0 12 3 13 11 5 15 -15 39 -5 39 17 0 21 -25 44
-40 35 -14 -9 -13 8 3 24 10 10 8 14 -7 23 -15 8 -16 12 -5 19 11 6 11 11 1
21 -19 19 -15 28 19 40 28 10 30 13 27 56 -3 39 -7 47 -27 52 -31 7 -40 30
-12 30 11 0 23 5 26 10 8 12 -40 11 -112 -3z m97 -78 c0 -11 -4 -17 -10 -14
-5 3 -10 13 -10 21 0 8 5 14 10 14 6 0 10 -9 10 -21z m-73 -31 c-3 -8 -6 -5
-6 6 -1 11 2 17 5 13 3 -3 4 -12 1 -19z m38 -28 c-28 -12 -47 -12 -40 0 3 6
18 10 33 9 24 0 25 -1 7 -9z m-5 -170 c0 -11 -7 -20 -15 -20 -13 0 -14 4 -5
20 6 11 13 20 15 20 3 0 5 -9 5 -20z"/>
<path d="M4928 4566 c-40 -12 -68 -27 -68 -35 0 -9 6 -11 18 -6 51 23 120 44
140 45 13 0 20 4 17 10 -9 14 -29 11 -107 -14z"/>
<path d="M4948 4527 c-54 -25 -63 -43 -18 -33 37 7 38 1 3 -17 -25 -14 -27
-19 -29 -92 -3 -86 -7 -83 79 -53 39 13 44 22 49 88 3 32 1 35 -22 34 -14 -1
-34 -4 -45 -9 -11 -4 -3 5 18 20 40 31 47 45 20 46 -14 0 -13 2 5 9 12 5 22
14 22 20 0 16 -31 11 -82 -13z m45 -132 c-6 -17 -12 -18 -32 -6 -11 7 -10 11
5 19 23 13 35 7 27 -13z"/>
<path d="M5265 4320 c-3 -5 -19 -10 -35 -10 -58 0 -45 -44 17 -56 43 -8 55 3
47 44 -7 32 -18 41 -29 22z"/>
<path d="M4633 4304 c-7 -19 2 -28 22 -21 19 8 19 23 0 31 -9 3 -18 -1 -22
-10z"/>
<path d="M655 4299 c-4 -6 -5 -12 -2 -15 2 -3 7 2 10 11 7 17 1 20 -8 4z"/>
<path d="M630 4249 c0 -5 5 -7 10 -4 6 3 10 8 10 11 0 2 -4 4 -10 4 -5 0 -10
-5 -10 -11z"/>
<path d="M4680 4230 c0 -5 7 -10 16 -10 8 0 12 5 9 10 -3 6 -10 10 -16 10 -5
0 -9 -4 -9 -10z"/>
<path d="M4789 4213 c-37 -45 -43 -58 -16 -34 15 14 27 20 27 15 0 -6 6 -18
13 -28 11 -15 12 -12 9 23 -4 45 -12 50 -33 24z"/>
<path d="M4665 4200 c-11 -5 -14 -9 -6 -9 11 -1 11 -4 1 -16 -6 -8 -9 -18 -6
-24 3 -5 0 -12 -6 -14 -10 -4 -10 -7 0 -15 11 -7 7 -14 -15 -30 -15 -11 -25
-24 -21 -28 8 -7 105 77 100 86 -2 3 -12 4 -23 3 -26 -4 -24 3 7 32 23 22 24
25 8 24 -10 0 -28 -4 -39 -9z"/>
<path d="M5095 4161 c-60 -20 -104 -40 -98 -44 6 -4 31 1 55 12 48 20 155 47
162 40 7 -7 26 -203 26 -264 0 -29 -4 -55 -9 -57 -5 -1 -3 -12 5 -22 27 -37
34 -6 23 104 -6 58 -9 137 -7 176 3 60 0 74 -14 83 -22 14 -13 16 -143 -28z"/>
<path d="M2270 4180 c0 -5 5 -10 10 -10 6 0 10 5 10 10 0 6 -4 10 -10 10 -5 0
-10 -4 -10 -10z"/>
<path d="M440 4160 c0 -5 5 -10 11 -10 5 0 7 5 4 10 -3 6 -8 10 -11 10 -2 0
-4 -4 -4 -10z"/>
<path d="M4717 4120 c-14 -16 -30 -30 -36 -30 -6 0 -11 -11 -11 -25 0 -14 5
-25 10 -25 6 0 10 6 10 13 0 7 14 32 31 55 35 48 33 56 -4 12z"/>
<path d="M4894 4113 c4 -10 9 -81 12 -158 4 -122 7 -140 22 -144 9 -2 22 -7
29 -13 8 -6 20 -5 34 3 13 6 58 15 101 20 43 4 81 10 86 13 9 5 -9 140 -20
151 -3 4 -16 2 -27 -5 -17 -8 -21 -8 -21 3 0 8 9 17 20 20 11 3 20 10 20 16 0
6 -9 11 -20 11 -11 0 -20 5 -20 10 0 6 4 10 9 10 5 0 12 8 15 18 2 9 8 28 11
41 7 22 5 23 -21 18 -105 -18 -146 -65 -82 -91 l32 -14 -32 -16 c-17 -9 -45
-16 -62 -16 -20 0 -30 -5 -30 -15 0 -8 6 -15 13 -15 12 0 43 -97 35 -106 -2
-1 -15 -5 -29 -9 -26 -6 -26 -6 -34 67 -4 40 -8 106 -9 146 -1 63 -3 72 -20
72 -13 0 -16 -5 -12 -17z m158 -155 c-11 -11 -32 -3 -32 12 0 12 34 18 39 7 2
-5 -1 -13 -7 -19z m86 -43 l3 -30 -19 23 c-12 16 -24 21 -37 17 -20 -7 -20 -6
0 9 28 24 50 16 53 -19z m-38 -36 c0 -11 -4 -17 -10 -14 -5 3 -10 13 -10 21 0
8 5 14 10 14 6 0 10 -9 10 -21z"/>
<path d="M4813 4079 c3 -9 0 -23 -6 -30 -7 -8 -3 -6 8 3 16 15 17 20 6 30 -11
11 -13 10 -8 -3z"/>
<path d="M4719 4020 c-23 -22 -39 -43 -35 -47 4 -4 18 7 32 25 14 18 30 32 36
32 6 0 5 -6 -3 -16 -7 -9 -13 -24 -14 -34 -1 -10 -16 -36 -34 -59 -19 -23 -31
-44 -28 -47 11 -12 28 9 62 76 19 37 40 70 47 72 10 4 9 9 -4 21 -16 16 -19
15 -59 -23z"/>
<path d="M4800 3995 c0 -9 5 -15 11 -13 6 2 11 8 11 13 0 5 -5 11 -11 13 -6 2
-11 -4 -11 -13z"/>
<path d="M4760 3921 c0 -12 6 -21 16 -21 9 0 14 7 12 17 -5 25 -28 28 -28 4z"/>
<path d="M3240 3783 c1 -5 7 -19 15 -33 10 -18 14 -20 15 -8 0 23 -11 48 -21
48 -5 0 -9 -3 -9 -7z"/>
<path d="M4110 3725 c-1 -16 -3 -70 -4 -120 -4 -233 -4 -235 -29 -244 -13 -5
-29 -16 -36 -24 -18 -23 11 -35 95 -41 119 -8 111 0 116 -139 2 -67 1 -139 -3
-159 -4 -27 -2 -41 10 -53 15 -15 15 -16 -1 -10 -20 8 -27 -19 -30 -120 -2
-78 7 -115 27 -115 7 0 15 10 19 23 10 38 7 136 -6 157 -10 15 -9 23 7 40 15
17 17 26 8 55 -9 27 -8 37 3 46 11 9 13 24 8 61 -10 76 -11 91 -2 121 4 16 3
39 -2 53 -8 21 -6 26 18 37 14 7 34 19 43 29 10 9 33 24 53 33 41 20 108 84
100 97 -8 12 -86 9 -112 -5 l-23 -13 28 -13 c20 -10 23 -15 13 -18 -8 -3 -36
-13 -62 -24 -33 -13 -59 -17 -86 -13 -25 4 -51 0 -76 -10 -21 -9 -54 -16 -74
-16 -40 0 -36 12 4 14 21 1 32 10 46 38 18 34 19 45 8 110 -6 40 -20 102 -30
138 -11 36 -21 76 -23 90 -4 23 -4 23 -7 -5z"/>
<path d="M3268 3704 c-2 -10 2 -44 9 -74 7 -30 12 -73 11 -95 -2 -30 1 -41 14
-43 25 -5 41 35 35 82 -7 52 -63 158 -69 130z"/>
<path d="M3190 3515 c0 -14 5 -25 10 -25 6 0 10 2 10 4 0 2 3 11 6 19 3 8 -2
17 -10 20 -12 5 -16 0 -16 -18z"/>
<path d="M4270 3430 c-18 -12 -2 -12 25 0 13 6 15 9 5 9 -8 0 -22 -4 -30 -9z"/>
<path d="M3717 3413 c-44 -9 -72 -20 -66 -24 7 -4 22 -4 34 1 11 4 51 5 88 1
55 -6 72 -12 97 -36 16 -16 30 -34 30 -40 0 -7 17 -32 38 -56 49 -55 58 -85
76 -236 8 -67 17 -127 21 -134 4 -6 13 -32 20 -58 13 -46 13 -46 14 -11 1 19
-4 51 -10 70 -6 19 -14 100 -18 180 -6 135 -9 150 -34 193 -15 25 -33 50 -40
54 -7 4 -23 22 -35 39 -48 69 -94 81 -215 57z"/>
<path d="M4228 3413 c7 -3 16 -2 19 1 4 3 -2 6 -13 5 -11 0 -14 -3 -6 -6z"/>
<path d="M2751 3388 c0 -7 4 -22 9 -33 7 -17 9 -15 9 13 1 17 -3 32 -9 32 -5
0 -10 -6 -9 -12z"/>
<path d="M2795 3310 c-3 -5 1 -10 9 -10 8 0 18 5 21 10 3 6 -1 10 -9 10 -8 0
-18 -4 -21 -10z"/>
<path d="M3140 3250 c0 -5 7 -7 15 -4 8 4 15 8 15 10 0 2 -7 4 -15 4 -8 0 -15
-4 -15 -10z"/>
<path d="M2878 3206 c-10 -7 -18 -17 -18 -21 0 -5 8 -1 18 7 9 9 24 18 32 21
13 5 13 5 0 6 -8 0 -23 -6 -32 -13z"/>
<path d="M2044 3174 c-32 -20 -81 -50 -109 -66 -27 -17 -63 -39 -78 -50 -16
-11 -64 -35 -107 -53 -90 -37 -153 -84 -171 -126 -12 -30 -16 -145 -5 -156 3
-4 6 12 6 35 0 23 8 58 19 77 22 42 85 95 115 96 30 1 83 34 170 107 42 34 78
62 81 62 5 0 89 61 135 97 29 24 3 13 -56 -23z"/>
<path d="M2950 3191 c15 -29 12 -41 -10 -41 -13 0 -20 -7 -20 -20 0 -26 -24
-26 -51 1 -11 11 -23 18 -27 15 -8 -9 28 -42 53 -50 22 -6 82 25 91 48 3 8 -2
26 -11 40 -20 30 -41 36 -25 7z"/>
<path d="M3205 3191 c-3 -5 -1 -12 5 -16 5 -3 10 1 10 9 0 18 -6 21 -15 7z"/>
<path d="M3535 3170 c-3 -5 -2 -10 4 -10 5 0 13 5 16 10 3 6 2 10 -4 10 -5 0
-13 -4 -16 -10z"/>
<path d="M3500 3130 c0 -5 7 -7 15 -4 8 4 15 8 15 10 0 2 -7 4 -15 4 -8 0 -15
-4 -15 -10z"/>
<path d="M2960 3105 c-13 -14 -38 -28 -57 -31 -38 -7 -45 -24 -10 -24 27 0
110 58 101 71 -7 12 -7 12 -34 -16z"/>
<path d="M587 3013 c-4 -3 -7 -11 -7 -17 0 -6 5 -5 12 2 6 6 9 14 7 17 -3 3
-9 2 -12 -2z"/>
<path d="M3594 3000 c3 -14 6 -56 7 -95 1 -60 -3 -79 -30 -135 -17 -36 -31
-71 -31 -78 0 -22 19 -3 42 41 l21 42 15 -35 c12 -29 12 -43 3 -80 -9 -31 -9
-46 -2 -48 6 -2 8 -9 4 -15 -4 -7 9 2 29 18 20 17 57 46 82 65 25 19 46 42 46
51 0 9 10 29 22 44 l21 28 -24 -13 c-25 -13 -89 -79 -89 -92 0 -8 -53 -59 -57
-55 -5 6 57 238 72 266 16 33 20 87 6 95 -4 3 -17 -1 -27 -9 -14 -11 -16 -17
-7 -23 16 -10 -12 -152 -33 -168 -8 -6 -14 -21 -14 -33 0 -11 -4 -21 -10 -21
-14 0 -16 22 -19 151 -1 61 -5 91 -17 105 -15 18 -15 18 -10 -6z"/>
<path d="M2150 2869 c0 -5 5 -7 10 -4 6 3 10 8 10 11 0 2 -4 4 -10 4 -5 0 -10
-5 -10 -11z"/>
<path d="M2280 2845 c0 -8 5 -15 10 -15 6 0 10 7 10 15 0 8 -4 15 -10 15 -5 0
-10 -7 -10 -15z"/>
<path d="M2350 2849 c0 -5 5 -7 10 -4 6 3 10 8 10 11 0 2 -4 4 -10 4 -5 0 -10
-5 -10 -11z"/>
<path d="M2296 2791 c-7 -11 -87 -49 -141 -68 l-40 -13 41 5 c56 7 137 42 152
65 7 11 8 20 3 20 -6 0 -12 -4 -15 -9z"/>
<path d="M3869 2711 c-38 -12 -120 -60 -157 -92 -34 -30 -31 -41 4 -14 38 29
99 15 184 -42 19 -13 17 -8 -9 20 -21 22 -48 39 -68 43 -44 8 -32 25 14 19 44
-6 108 -43 152 -89 34 -35 61 -46 61 -26 0 28 -79 144 -120 177 -17 14 -25 14
-61 4z m63 -52 c22 -12 81 -87 76 -98 -1 -5 -28 14 -59 42 -31 29 -64 58 -75
64 -17 11 -15 12 11 6 17 -3 37 -10 47 -14z"/>
<path d="M4890 2710 c0 -5 5 -10 10 -10 6 0 10 5 10 10 0 6 -4 10 -10 10 -5 0
-10 -4 -10 -10z"/>
<path d="M1583 2665 c0 -27 2 -38 4 -22 2 15 2 37 0 50 -2 12 -4 0 -4 -28z"/>
<path d="M1710 2695 l-25 -14 30 -1 c17 0 39 -8 51 -18 24 -20 108 -122 101
-122 -17 0 -98 42 -131 69 -21 17 -47 31 -58 31 -19 0 -19 -1 1 -29 24 -33 61
-52 146 -76 41 -11 74 -29 103 -56 24 -21 54 -42 68 -45 26 -7 103 25 104 42
0 7 38 47 85 89 47 43 83 80 80 83 -2 3 -22 -11 -43 -30 -42 -38 -126 -98
-138 -98 -4 0 -22 -11 -40 -25 -18 -14 -40 -25 -49 -25 -29 0 -72 38 -126 113
-96 132 -109 141 -159 112z"/>
<path d="M3578 2642 c-10 -20 -31 -67 -48 -103 -16 -36 -30 -70 -30 -75 1 -12
39 38 40 51 0 6 16 40 35 75 19 36 35 71 35 78 0 24 -15 11 -32 -26z"/>
<path d="M2210 2545 c-7 -9 -10 -18 -7 -21 3 -3 10 4 17 15 13 25 8 27 -10 6z"/>
<path d="M3293 2435 c0 -8 4 -12 9 -9 5 3 6 10 3 15 -9 13 -12 11 -12 -6z"/>
<path d="M253 2314 c-18 -18 -33 -36 -33 -39 0 -11 51 28 61 47 17 31 7 28
-28 -8z"/>
<path d="M5035 2281 c4 -20 2 -30 -9 -34 -8 -3 -16 -1 -18 4 -2 6 -16 1 -31
-11 -15 -12 -27 -17 -27 -11 0 18 -20 13 -27 -6 -4 -10 -14 -23 -24 -30 -30
-22 -30 -52 1 -86 16 -18 31 -29 35 -26 3 4 -6 20 -20 35 -26 28 -26 29 -5 38
11 5 19 15 16 23 -3 7 0 13 7 13 7 0 24 10 36 22 22 19 24 20 33 4 7 -13 13
-14 23 -6 10 8 15 6 20 -10 3 -11 11 -18 16 -14 6 3 8 12 5 19 -6 16 20 40 28
27 3 -5 1 -23 -4 -40 -5 -18 -5 -34 0 -37 13 -8 0 -35 -16 -35 -8 0 -14 4 -14
10 0 5 -13 16 -30 25 -18 9 -27 21 -24 29 3 8 1 17 -5 21 -7 3 -11 -2 -11 -14
0 -12 -4 -21 -10 -21 -5 0 -7 7 -3 16 4 12 2 15 -8 12 -22 -7 -17 -43 6 -43
22 0 52 -19 74 -47 17 -23 8 -23 -14 -2 -23 24 -30 10 -10 -20 13 -20 26 -26
51 -26 41 0 43 -12 7 -38 -33 -24 -24 -40 13 -23 41 18 41 5 1 -33 -21 -19
-37 -37 -37 -40 0 -10 58 -7 65 4 3 5 12 7 20 4 18 -7 9 -31 -23 -66 -34 -37
-20 -49 16 -15 16 15 36 27 46 27 18 0 18 -1 0 -27 -9 -16 -26 -34 -36 -41
-10 -7 -18 -19 -18 -26 0 -7 -11 -23 -25 -36 -25 -24 -32 -40 -17 -40 14 0 73
64 129 139 22 30 29 -16 8 -52 -13 -22 -15 -32 -7 -35 17 -5 15 -37 -3 -52
-22 -18 -32 -3 -16 23 l14 22 -24 -20 c-53 -44 -67 -62 -79 -100 -8 -22 -13
-50 -12 -63 1 -13 -2 -20 -8 -17 -6 3 -10 16 -11 28 0 21 -1 21 -9 2 -5 -11
-9 -32 -9 -47 -1 -34 -50 -135 -68 -142 -21 -8 -29 25 -10 39 10 7 17 18 17
25 0 7 8 19 18 26 13 11 14 15 4 22 -10 7 -8 14 8 34 26 33 25 41 -1 33 l-22
-7 22 30 c24 35 27 50 6 32 -27 -22 -18 12 11 43 25 27 27 54 2 29 -7 -7 -16
-12 -20 -12 -13 0 -9 27 6 39 13 11 12 15 -5 32 -20 20 -18 39 5 39 8 0 19 7
27 16 10 13 10 17 -2 25 -8 5 -24 8 -36 6 -13 -2 -24 2 -28 10 -8 23 3 32 36
28 21 -3 29 0 26 8 -2 7 -9 12 -15 12 -6 0 -21 8 -33 19 -18 15 -23 15 -30 5
-6 -10 -9 -3 -9 19 0 23 -5 32 -16 32 -9 0 -14 6 -11 13 25 66 13 79 -20 20
-29 -54 -34 -82 -22 -144 6 -30 13 -74 17 -99 6 -39 10 -45 30 -42 16 2 22 -2
22 -16 0 -28 -11 -34 -26 -14 -12 15 -13 14 -14 -10 0 -26 12 -34 43 -29 5 1
7 -4 4 -11 -2 -7 -14 -13 -26 -12 -14 0 -21 -5 -21 -19 0 -16 5 -18 26 -13
l27 7 -7 -70 c-7 -76 -39 -150 -52 -118 -3 9 -13 17 -20 17 -12 0 -12 -5 1
-30 16 -30 70 -50 97 -35 7 4 -2 -6 -19 -23 -38 -35 -42 -66 -13 -82 17 -9 25
-6 46 17 25 27 27 27 127 23 56 -2 117 -3 136 -2 56 1 98 57 49 64 -13 2 -24
11 -26 21 -4 22 16 22 40 0 17 -15 18 -15 18 8 0 14 -8 36 -17 49 -22 31 -23
112 -4 222 17 97 4 154 -44 197 -46 40 -64 70 -70 116 -2 22 -14 52 -25 67
-11 15 -24 54 -29 88 -6 51 -13 66 -40 91 -18 16 -36 27 -41 24 -5 -3 -16 8
-25 25 -20 39 -39 40 -30 1z m-85 -507 c0 -8 -5 -12 -10 -9 -6 4 -8 11 -5 16
9 14 15 11 15 -7z m323 -96 c-13 -12 -25 -19 -29 -15 -10 10 16 37 34 37 13 0
12 -4 -5 -22z m-53 -29 c14 -25 8 -33 -55 -78 -54 -39 -58 -29 -9 27 35 42 35
42 8 32 -33 -13 -39 -8 -24 19 15 28 65 29 80 0z m58 -57 c-20 -25 -68 -65
-107 -89 -34 -20 -50 -17 -51 10 0 13 91 66 106 60 8 -3 17 5 24 21 6 17 14
24 25 20 13 -5 13 -9 3 -22z m-174 -120 c-8 -2 -14 -8 -14 -13 0 -5 -7 -9 -16
-9 -12 0 -14 5 -9 18 4 9 10 30 13 46 l5 29 18 -34 c14 -28 15 -35 3 -37z
m148 25 c-12 -13 -40 -33 -61 -45 -31 -18 -40 -19 -44 -8 -10 25 59 75 102 76
l24 0 -21 -23z m-9 -88 c-5 -5 -39 -10 -75 -10 -54 -1 -70 3 -86 19 l-21 21
32 -1 c18 -1 37 -8 44 -17 11 -15 15 -14 50 4 32 17 40 18 52 7 9 -8 10 -17 4
-23z m37 -69 c0 -13 -11 -13 -30 0 -12 8 -11 10 8 10 12 0 22 -4 22 -10z"/>
<path d="M3380 2211 c-16 -31 -12 -39 30 -66 22 -14 40 -31 40 -38 0 -7 7 -22
15 -33 13 -17 14 -16 4 14 -6 18 -27 45 -45 60 -36 28 -42 50 -22 70 9 9 9 12
0 12 -6 0 -16 -9 -22 -19z"/>
<path d="M3690 2205 c7 -8 17 -15 22 -15 6 0 5 7 -2 15 -7 8 -17 15 -22 15 -6
0 -5 -7 2 -15z"/>
<path d="M2560 2192 c0 -5 9 -17 21 -28 21 -19 21 -19 8 9 -12 26 -29 37 -29
19z"/>
<path d="M3680 2163 c0 -5 22 -35 50 -68 27 -32 47 -62 44 -67 -8 -13 26 -37
51 -37 19 0 19 0 2 10 -10 6 -26 23 -35 38 -22 36 -112 136 -112 124z"/>
<path d="M3751 2155 c11 -20 134 -180 144 -187 16 -12 21 3 5 15 -8 7 -34 37
-57 67 -43 56 -103 125 -92 105z"/>
<path d="M3122 2142 c-13 -4 -23 -10 -22 -14 2 -16 40 -98 45 -98 3 0 -2 17
-11 38 -9 20 -18 43 -21 50 -7 17 27 15 46 -2 14 -13 16 -12 16 10 0 25 -10
28 -53 16z"/>
<path d="M329 2123 c-13 -16 -12 -17 4 -4 9 7 17 15 17 17 0 8 -8 3 -21 -13z"/>
<path d="M3522 2090 l36 -55 65 -1 c36 -1 82 -5 101 -8 20 -4 36 -5 36 -2 0
14 -49 29 -86 27 -37 -2 -44 2 -63 31 l-22 33 6 -32 c6 -28 4 -33 -13 -33 -12
0 -29 14 -41 34 -12 19 -29 40 -38 47 -9 8 0 -11 19 -41z"/>
<path d="M2998 2123 c7 -3 16 -2 19 1 4 3 -2 6 -13 5 -11 0 -14 -3 -6 -6z"/>
<path d="M3665 2100 c10 -11 20 -18 23 -15 7 6 -18 35 -31 35 -5 0 -2 -9 8
-20z"/>
<path d="M3010 2090 c-8 -5 -10 -10 -5 -10 6 0 17 5 25 10 8 5 11 10 5 10 -5
0 -17 -5 -25 -10z"/>
<path d="M3041 2033 c36 -61 54 -73 24 -15 -16 28 -32 52 -37 52 -5 0 0 -17
13 -37z"/>
<path d="M2960 2046 c0 -10 40 -76 46 -76 2 0 -2 12 -8 28 -13 29 -38 62 -38
48z"/>
<path d="M3481 2045 c0 -5 9 -21 19 -34 17 -19 23 -21 35 -11 8 7 15 17 15 22
0 6 -7 4 -16 -3 -14 -11 -19 -9 -35 11 -10 14 -19 21 -18 15z"/>
<path d="M3348 2033 c6 -2 18 -2 25 0 6 3 1 5 -13 5 -14 0 -19 -2 -12 -5z"/>
<path d="M2934 1966 c15 -22 29 -51 33 -65 18 -73 76 -119 121 -96 21 11 19
13 -26 19 l-48 6 -32 68 c-17 38 -41 77 -53 88 -18 16 -17 13 5 -20z"/>
<path d="M3570 1985 l-25 -15 30 7 c43 10 54 8 113 -16 62 -25 60 -8 -2 20
-49 22 -82 23 -116 4z"/>
<path d="M3358 1970 c6 -8 12 -22 12 -33 0 -10 5 -17 12 -15 21 7 18 23 -10
42 -15 11 -21 13 -14 6z"/>
<path d="M3023 1934 c9 -17 23 -36 31 -43 27 -22 17 2 -15 39 l-31 35 15 -31z"/>
<path d="M3198 1940 c19 -22 15 -28 -20 -32 -27 -3 -30 -5 -15 -12 12 -6 36
-3 65 7 34 11 40 15 23 16 -14 1 -34 9 -45 18 -12 10 -15 11 -8 3z"/>
<path d="M3109 1923 c12 -24 31 -39 31 -25 0 5 -10 17 -21 28 -22 19 -22 19
-10 -3z"/>
<path d="M3285 1920 c4 -6 11 -8 16 -5 14 9 11 15 -7 15 -8 0 -12 -5 -9 -10z"/>
<path d="M3328 1923 c7 -3 16 -2 19 1 4 3 -2 6 -13 5 -11 0 -14 -3 -6 -6z"/>
<path d="M3138 1823 c7 -3 16 -2 19 1 4 3 -2 6 -13 5 -11 0 -14 -3 -6 -6z"/>
<path d="M4930 1553 c0 -7 4 -13 9 -13 5 0 13 6 19 13 8 10 6 13 -9 13 -10 0
-19 -6 -19 -13z"/>
<path d="M5397 1493 c-57 -17 -57 -38 -1 -38 38 0 39 -1 42 -40 2 -22 1 -63
-3 -92 l-6 -51 -71 -12 c-38 -7 -101 -10 -139 -8 -38 2 -69 0 -69 -4 0 -8 1
-8 -127 -7 -83 0 -145 -12 -219 -41 -17 -7 -27 -3 -47 18 -13 15 -31 41 -38
57 -10 21 -21 30 -39 30 -21 0 -24 -5 -27 -40 -1 -21 2 -44 6 -50 8 -10 0
-177 -19 -402 -10 -116 -44 -277 -70 -335 -11 -23 -10 -31 10 -62 12 -20 26
-36 30 -36 19 0 40 47 40 87 0 41 1 43 30 43 l29 0 -5 -53 c-3 -28 -12 -74
-20 -101 -16 -52 -12 -111 12 -158 27 -53 84 -44 84 13 0 24 6 30 40 40 21 7
37 15 35 20 -3 4 16 5 42 3 27 -3 55 -5 63 -5 8 1 34 1 58 2 27 0 40 5 35 12
-4 7 0 8 13 1 10 -4 56 -9 102 -10 45 -1 85 -4 89 -7 3 -4 1 -29 -4 -57 -14
-70 -1 -88 52 -69 20 8 39 18 41 24 1 5 5 53 8 105 3 52 9 111 14 130 4 19 8
86 7 147 0 62 4 114 9 116 5 2 11 38 14 80 2 43 9 80 13 83 5 3 9 19 9 35 0
17 5 40 12 52 7 13 13 67 14 127 1 115 8 152 35 190 11 16 21 61 28 123 11 93
10 100 -10 128 -23 32 -33 33 -102 12z m-32 -294 c14 -21 5 -170 -15 -254 -11
-47 -20 -104 -20 -127 0 -88 -8 -26 -14 112 -7 156 6 280 30 280 7 0 16 -5 19
-11z m-91 -182 c-2 -105 -12 -231 -22 -297 l-18 -115 -84 -7 c-47 -3 -147 -8
-222 -10 l-138 -4 0 64 c0 34 6 77 14 95 23 57 45 159 51 242 6 74 20 139 35
158 4 4 60 17 126 28 65 11 119 21 121 22 1 1 33 3 71 4 l70 2 -4 -182z m-498
-58 c-10 -70 -26 -161 -37 -204 -10 -43 -19 -99 -19 -126 0 -45 -2 -49 -23
-49 -33 0 -35 5 -26 53 4 23 11 114 14 202 4 88 11 176 16 195 5 19 9 49 9 67
0 59 8 63 47 24 l36 -36 -17 -126z m545 -332 c-8 -8 -11 9 -11 54 0 85 14 99
18 18 2 -34 -2 -67 -7 -72z m-10 -80 c-8 -8 -11 -7 -11 4 0 20 13 34 18 19 3
-7 -1 -17 -7 -23z m-93 -27 c5 -40 24 -70 45 -70 17 0 18 -5 12 -52 -4 -29 -9
-56 -11 -59 -2 -3 -63 -9 -136 -13 -73 -4 -164 -11 -203 -16 -38 -5 -87 -6
-107 -3 -32 5 -38 10 -39 32 -2 39 -2 91 -1 137 l2 41 73 8 c72 7 290 20 337
20 19 0 26 -6 28 -25z"/>
<path d="M4773 1480 c-29 -12 -20 -40 14 -40 28 0 83 26 83 40 0 12 -67 12
-97 0z"/>
<path d="M4905 1480 c-3 -5 -1 -10 4 -10 6 0 11 5 11 10 0 6 -2 10 -4 10 -3 0
-8 -4 -11 -10z"/>
<path d="M1520 1250 c0 -5 5 -10 10 -10 6 0 10 5 10 10 0 6 -4 10 -10 10 -5 0
-10 -4 -10 -10z"/>
<path d="M1570 1130 c6 -11 15 -20 20 -20 6 0 5 9 -2 20 -7 11 -16 20 -21 20
-4 0 -3 -9 3 -20z"/>
<path d="M4050 1027 c0 -8 7 -17 15 -21 8 -3 15 -2 15 3 0 5 -7 14 -15 21 -12
10 -15 10 -15 -3z"/>
<path d="M1540 820 c0 -5 5 -10 11 -10 5 0 7 5 4 10 -3 6 -8 10 -11 10 -2 0
-4 -4 -4 -10z"/>
<path d="M1870 795 c-19 -23 -8 -26 19 -4 16 13 18 19 8 19 -8 0 -20 -7 -27
-15z"/>
<path d="M390 430 c0 -5 5 -10 10 -10 6 0 10 5 10 10 0 6 -4 10 -10 10 -5 0
-10 -4 -10 -10z"/>
<path d="M510 220 c0 -5 5 -10 10 -10 6 0 10 5 10 10 0 6 -4 10 -10 10 -5 0
-10 -4 -10 -10z"/>
<path d="M1365 160 c3 -5 8 -10 11 -10 2 0 4 5 4 10 0 6 -5 10 -11 10 -5 0 -7
-4 -4 -10z"/>
<path d="M3970 130 c0 -16 2 -30 4 -30 2 0 6 13 8 30 3 17 1 30 -4 30 -4 0 -8
-13 -8 -30z"/>
<path d="M3705 10 c-3 -5 3 -10 14 -10 12 0 21 5 21 10 0 6 -6 10 -14 10 -8 0
-18 -4 -21 -10z"/>
</g>
</svg>
