<svg xmlns="http://www.w3.org/2000/svg" xmlns:xlink="http://www.w3.org/1999/xlink" width="355" height="343" version="1.1" viewBox="0 0 355 343"><title>Group 161</title><desc>Created with Sketch.</desc><defs><polygon id="path-1" points=".965 .921 89.672 .921 89.672 89.57 .965 89.57"/><polygon id="path-3" points=".587 .959 143.646 .959 143.646 144 .587 144"/><polygon id="path-5" points="0 .011 120.73 .011 120.73 139.75 0 139.75"/></defs><g id="Page-1" fill="none" fill-rule="evenodd" stroke="none" stroke-width="1"><g id="Group-161" transform="translate(0.000000, -1.000000)"><polygon id="Fill-1" fill="#EAE8EB" points="186.007 3.384 37.301 89.239 37.301 260.81 334.715 260.81 334.715 89.239"/><g id="Group-26" transform="translate(211.000000, 0.079000)"><path id="Fill-2" fill="#FFF" d="M19.4677,75.7457 C36.4827,92.7607 64.0697,92.7607 81.0847,75.7457 C98.0997,58.7307 98.0997,31.1437 81.0847,14.1287 C64.0697,-2.8863 36.4827,-2.8863 19.4677,14.1287 C2.4527,31.1437 2.4527,58.7307 19.4677,75.7457"/><g id="Group-6" transform="translate(5.000000, 0.000000)"><mask id="mask-2" fill="#fff"><use xlink:href="#path-1"/></mask><path id="Fill-4" fill="#000" d="M16.3427,11.2784 C2.9607,23.2094 -2.6803,43.0084 3.4137,60.0734 C9.2937,76.5404 25.5787,88.3804 42.9537,89.4894 C60.9277,90.6374 78.5127,79.3594 85.9467,63.1224 C93.2707,47.1224 89.4277,27.4444 77.6357,14.5944 C62.9057,-1.4586 37.7737,-3.2376 19.9157,8.5234 C18.9937,9.1304 19.8557,10.6224 20.7847,10.0104 C35.6107,0.2464 55.9367,-0.1706 70.4947,10.4704 C84.3737,20.6154 91.0867,39.6934 86.6087,56.2824 C82.1277,72.8794 66.5987,85.9064 49.5267,87.6504 C32.8347,89.3564 15.7807,79.9984 7.6947,65.4014 C-1.9373,48.0134 2.9887,25.4884 17.5607,12.4964 C18.3897,11.7574 17.1687,10.5424 16.3427,11.2784" mask="url(#mask-2)"/></g><path id="Fill-7" fill="#58C1B6" d="M30.6117,26.3731 C43.6797,24.7231 56.9547,24.7141 70.0247,26.3461 L69.8897,26.4261 C69.8777,39.2921 69.8637,52.1591 69.8507,65.0251 L69.7287,64.8461 C56.8597,63.3461 43.7957,63.5191 30.9707,65.3621 L31.2727,65.0251 L31.2727,26.7531 L30.6117,26.3731 Z"/><path id="Fill-9" fill="#FFF" d="M35.5219,30.983 C35.1629,40.009 35.3789,49.059 36.1689,58.058 C38.3929,55.388 40.6169,52.717 42.8409,50.046 C43.2169,49.596 43.6559,49.111 44.2399,49.065 C44.7639,49.023 45.2369,49.35 45.6529,49.67 C48.1729,51.614 50.4209,53.91 52.3119,56.471 C54.0679,54.907 55.8239,53.344 57.5809,51.781 C60.3409,54.65 63.1019,57.519 65.8619,60.388 C65.9119,50.33 65.9609,40.272 66.0109,30.213 C55.5459,29.939 45.0679,30.174 34.6259,30.916"/><path id="Fill-11" fill="#58C1B6" d="M52.1527,30.8062 C50.8897,30.4242 49.3877,31.2392 49.0357,32.5112 C48.6837,33.7822 49.5687,35.2632 50.8587,35.5392 C52.1497,35.8152 53.5707,34.8072 53.7207,33.4962 C53.8717,32.1852 52.6977,30.8762 51.3787,30.9002"/><path id="Fill-13" fill="#FFF" d="M21.8896,322.1505 C49.5816,349.8425 94.4806,349.8425 122.1726,322.1505 C149.8656,294.4585 149.8656,249.5605 122.1726,221.8675 C94.4806,194.1755 49.5816,194.1755 21.8896,221.8675 C-5.8024,249.5605 -5.8024,294.4585 21.8896,322.1505"/><g id="Group-17" transform="translate(0.000000, 200.000000)"><mask id="mask-4" fill="#fff"><use xlink:href="#path-3"/></mask><path id="Fill-15" fill="#000" d="M25.4023,17.6895 C3.6523,36.7045 -5.1767,68.9385 4.4693,96.3065 C13.9353,123.1635 40.7463,142.4355 69.0383,143.9135 C98.0533,145.4285 126.2623,126.9495 137.9593,100.6085 C149.5173,74.5805 142.8473,42.7975 123.4863,22.2855 C99.8023,-2.8075 59.3283,-5.7015 31.0853,13.3075 C30.2883,13.8435 31.0383,15.1435 31.8423,14.6025 C56.3713,-1.9065 90.8943,-1.9575 114.5953,16.2635 C136.5883,33.1705 147.2193,63.8055 139.9283,90.6465 C132.5333,117.8695 107.1653,139.2725 79.1213,142.1605 C51.1383,145.0415 22.6013,129.1055 9.5893,104.3105 C-5.2047,76.1235 2.7513,39.4795 26.4633,18.7505 C27.1913,18.1135 26.1263,17.0565 25.4023,17.6895" mask="url(#mask-4)"/></g><path id="Fill-18" fill="#FFBB4B" d="M41.8119,239.0914 C52.2349,247.3704 61.8789,256.6304 70.5759,266.7094 C69.9489,253.4824 69.3229,240.2564 68.6959,227.0304 C58.5499,228.5394 48.8029,232.6594 40.6509,238.8854"/><path id="Fill-20" fill="#57C1B6" d="M39.1889,243.0079 C30.9999,250.2519 26.0249,261.0049 25.8059,271.9349 C25.5869,282.8649 30.1259,293.8099 38.0189,301.3749 C47.3109,292.4659 56.6019,283.5569 65.8939,274.6479 C66.5259,274.0419 67.1979,273.3559 67.2739,272.4839 C67.3669,271.4139 66.5399,270.5109 65.7729,269.7599 C56.5279,260.6999 47.2819,251.6399 38.0359,242.5799"/><path id="Fill-22" fill="#9E56AF" d="M68.994,277.1778 C60.862,285.4938 52.73,293.8108 44.598,302.1268 C43.732,303.0128 42.807,304.0398 42.83,305.2788 C42.855,306.5748 43.911,307.5938 44.922,308.4068 C51.793,313.9298 60.332,317.3488 69.116,318.0938 C69.578,304.4018 70.04,290.7098 70.502,277.0178"/><path id="Fill-24" fill="#B73774" d="M75.2846,226.8292 C75.5136,256.2472 75.7426,285.6662 75.9716,315.0852 C75.9766,315.7382 75.9886,316.4182 76.2836,317.0012 C77.0736,318.5582 79.2766,318.5532 80.9916,318.2252 C95.6636,315.4192 108.6786,305.0502 114.6926,291.3752 C120.7066,277.7002 119.5516,261.1002 111.7016,248.3902 C103.8526,235.6792 89.5276,227.2122 74.6066,226.4662"/></g><g id="Group-160" transform="translate(0.000000, 1.079000)"><path id="Fill-27" fill="#FFF" d="M98.8886,69.2081 C98.8886,93.2211 118.3546,112.6871 142.3666,112.6871 C166.3796,112.6871 185.8456,93.2211 185.8456,69.2081 C185.8456,45.1961 166.3796,25.7301 142.3666,25.7301 C118.3546,25.7301 98.8886,45.1961 98.8886,69.2081"/><path id="Fill-29" fill="#000" d="M145.7011,24.5709 C127.2181,23.5499 108.7951,34.1899 101.4131,51.4049 C94.5811,67.3379 98.2981,87.1609 110.1991,99.7189 C122.5721,112.7749 143.0171,116.6449 159.5551,109.9009 C176.5301,102.9789 187.4821,84.6769 186.6791,66.5139 C185.7801,46.1919 169.7861,29.1859 150.1971,25.1539 C149.0221,24.9119 148.5201,26.7129 149.7001,26.9559 C165.8811,30.2869 179.8171,42.7199 183.7491,59.0019 C187.7671,75.6349 180.4501,94.3049 166.4321,104.0539 C151.8061,114.2259 131.0111,113.4989 116.7631,102.9999 C103.0871,92.9219 96.9921,74.2649 101.1761,57.9129 C106.2061,38.2599 125.8271,25.3419 145.7011,26.4399 C146.9031,26.5069 146.8991,24.6369 145.7011,24.5709"/><path id="Fill-31" fill="#000" d="M65.765,19.1763 L66.1,39.9353 C66.1,39.9353 56.807,37.6863 52.571,44.8773 C48.336,52.0693 53.9,60.5223 61.533,60.9153 L52.857,100.8563 C52.857,100.8563 25.407,128.7073 22.855,135.8053 C22.855,135.8053 10.758,125.3153 9.501,108.9733 C8.244,92.6313 19.338,80.3423 21.702,78.2673 C24.066,76.1933 38.833,67.1293 34.908,55.0693 C30.982,43.0093 25.974,32.3273 34.414,19.1763 C42.854,6.0253 63.932,-1.5627 80.621,2.0983 C99.234,6.1813 120.485,17.5513 120.485,17.5513 C120.485,17.5513 113.531,25.3753 97.064,25.0183 C80.598,24.6613 65.765,19.1763 65.765,19.1763"/><path id="Fill-33" fill="#FFF" d="M42.9496,102.2183 C43.5406,103.2053 44.2046,104.1383 44.9306,105.0313 C45.2016,105.3643 45.7646,105.3073 46.0476,105.0313 C46.3786,104.7073 46.3156,104.2423 46.0476,103.9133 C45.4076,103.1263 44.8346,102.2913 44.3136,101.4213 C43.7926,100.5493 42.4266,101.3433 42.9496,102.2183"/><path id="Fill-35" fill="#FFF" d="M32.6557,108.0928 C33.6937,109.8948 34.9037,111.5768 36.2717,113.1428 C36.9417,113.9098 38.0557,112.7888 37.3887,112.0258 C36.1077,110.5588 34.9907,108.9828 34.0197,107.2958 C33.5117,106.4148 32.1467,107.2088 32.6557,108.0928"/><path id="Fill-37" fill="#FFF" d="M19.6908,111.9009 C21.5308,115.8639 23.9028,119.4829 26.7708,122.7769 C27.4388,123.5459 28.5528,122.4239 27.8878,121.6599 C25.1058,118.4639 22.8378,114.9449 21.0548,111.1039 C20.6268,110.1819 19.2648,110.9839 19.6908,111.9009"/><path id="Fill-39" fill="#000" d="M94.4369,86.8126 C93.2069,86.8586 88.4789,100.1486 91.0269,106.6246 L101.2549,116.5916 C101.2549,116.5916 110.0859,107.0906 110.3819,98.4156 C110.6789,89.7396 106.7989,80.2386 106.7989,80.2386 C106.7989,80.2386 100.8759,83.7726 98.9689,84.7396 C97.0619,85.7066 94.4369,86.8126 94.4369,86.8126"/><path id="Fill-41" fill="#FFF" d="M111.8315,23.1368 C111.8315,23.1368 118.1975,60.8388 116.5445,65.4708 C114.8915,70.1038 112.8735,79.3758 94.4365,86.8128 C93.5205,87.6238 87.8215,97.6948 91.0275,106.6248 C91.0275,106.6248 82.6975,108.1138 73.8075,106.7838 C64.9165,105.4538 53.9115,100.8568 53.9115,100.8568 L62.5865,60.9148 C62.5865,60.9148 55.6675,58.6168 53.3445,54.8838 C51.0205,51.1498 52.2795,44.7238 55.5685,42.3038 C58.8575,39.8848 63.2065,38.6788 67.1545,39.9348 L66.8185,19.1768 C66.8185,19.1768 83.3245,24.0428 90.7215,24.5308 C98.1185,25.0188 111.8315,23.1368 111.8315,23.1368"/><path id="Fill-43" fill="#3F46AD" d="M17.2553,259.753 L121.2013,259.753 L130.1193,174.062 L169.8683,167.977 C169.8683,167.977 174.8043,161.232 174.8943,151.07 C174.9843,140.91 170.0563,134.436 170.0563,134.436 C170.0563,134.436 145.9903,133.656 136.7463,132.225 C127.5013,130.794 117.0503,128.577 117.0503,128.577 C117.0503,128.577 96.3053,110.918 93.8623,106.605 C93.8623,106.605 83.1983,108.978 73.5703,106.792 C63.9423,104.606 50.1263,99.808 50.1263,99.808 C50.1263,99.808 21.4123,128.072 14.7723,140.989 C8.1323,153.907 -14.4927,192.885 17.2553,226.723 L17.2553,259.753 Z"/><path id="Fill-45" fill="#5B61B9" d="M30.476,237.5919 C43.51,222.7539 61.844,198.8819 46.657,179.1509 C41.72,172.7359 33.354,168.3819 25.206,170.7169 C17.961,172.7919 11.652,180.0089 12.425,187.8249 C13.358,197.2709 23.078,203.8539 31.167,206.9839 C40.594,210.6309 51.399,210.8349 60.899,207.3369 C79.043,200.6539 90.595,181.3059 88.31,162.1979 C87.133,152.3579 82.581,142.9049 75.616,135.8539 C69.088,129.2459 58.662,123.2299 49.159,126.8039 C42.483,129.3159 37.209,137.5019 40.476,144.4849 C44.174,152.3849 54.974,153.2489 62.518,153.6599 C77.89,154.4969 111.238,152.3689 112.071,130.8899 C112.341,123.9249 107.752,117.0939 100.228,117.4659 C93.343,117.8059 87.235,123.8439 86.356,130.5679 C85.01,140.8669 93.569,150.0909 102.412,153.8619 C113.645,158.6519 122.949,155.0329 130.6,146.2589 C135.674,140.4379 145.333,130.1599 152.893,138.8799 C158.548,145.4029 154.358,158.0249 148.633,163.4479 C145.817,166.1159 137.384,168.7269 139.732,158.6809 C140.15,156.8949 142.1,155.2089 143.292,153.9089 C145.763,151.2169 148.654,148.8869 151.786,147.0099 C158.163,143.1889 165.287,141.3429 172.699,141.3529 C173.716,141.3539 173.717,139.7749 172.699,139.7729 C164.766,139.7619 157.049,141.8349 150.312,146.0709 C145.51,149.0919 137.853,154.7909 137.347,161.0239 C136.938,166.0649 142.037,168.4759 146.355,166.8429 C152.619,164.4759 156.472,154.5539 157.061,148.4719 C157.598,142.9489 155.336,136.6659 149.717,134.6949 C142.635,132.2099 135.993,137.7499 131.614,142.6659 C128.457,146.2109 125.549,150.1829 121.293,152.5049 C115.643,155.5879 108.748,154.8099 103.041,152.3749 C93.755,148.4139 83.441,136.6279 89.5,126.0809 C91.86,121.9729 96.607,118.7899 101.453,119.0409 C108.116,119.3869 111.056,126.2999 110.342,132.1109 C108.952,143.4199 96.812,147.9329 87.151,150.0799 C76.389,152.4699 64.317,153.2999 53.441,151.0439 C48.675,150.0539 43.132,147.8669 41.484,142.7879 C39.399,136.3659 44.897,129.5339 50.913,127.8999 C62.227,124.8269 73.613,134.3399 79.494,143.0699 C85.143,151.4569 87.938,161.7959 86.798,171.8829 C84.545,191.8239 67.344,207.9309 47.22,208.2589 C36.29,208.4359 22.928,203.9999 16.622,194.4769 C7.94,181.3629 23.453,167.6129 36.513,173.1179 C48.762,178.2829 52.36,192.4589 49.456,204.4459 C46.41,217.0229 37.684,226.9969 29.359,236.4749 C28.69,237.2359 29.803,238.3579 30.476,237.5919"/><path id="Fill-47" fill="#FFF" d="M91.7309,164.4752 C91.7309,164.4752 105.8089,146.5732 106.7419,145.9492 C107.6759,145.3262 110.6809,144.2872 111.2059,146.8892 C111.7309,149.4912 109.8739,152.6732 109.8739,152.6732 C109.8739,152.6732 116.9809,153.8082 118.8459,160.1742 C120.7099,166.5392 121.0679,175.6392 110.6079,187.7462 C110.6079,187.7462 107.4379,173.9132 102.1659,168.9252 C96.8949,163.9362 91.7309,164.4752 91.7309,164.4752"/><path id="Fill-49" fill="#FFF" d="M170.0565,134.4356 L176.9075,134.2456 C176.9075,134.2456 187.9985,123.6456 189.1565,126.1676 C190.3135,128.6896 187.3065,134.8826 187.3065,134.8826 C187.3065,134.8826 203.9625,131.7606 205.6935,131.8636 C207.4235,131.9666 215.3695,135.5286 211.1945,145.2096 C207.0195,154.8906 194.9705,163.3956 169.8685,167.9766 C169.8685,167.9766 176.3165,157.6706 174.8105,149.3616 C173.3045,141.0526 170.0565,134.4356 170.0565,134.4356"/><path id="Fill-51" fill="#FFF" d="M54.3026,190.6016 L40.4446,141.1266 L102.1896,123.8316 L108.1246,145.0196 C108.1246,145.0196 97.1666,158.1736 91.7306,164.4756 C86.2956,170.7766 73.5726,190.4726 54.3026,190.6016"/><path id="Fill-53" fill="#FFF" d="M65.8788,233.7642 L66.6628,236.5612 L128.4078,219.2662 L116.8238,177.9112 C116.8238,177.9112 101.5438,203.8262 89.3498,216.5922 C77.1568,229.3582 65.8788,233.7642 65.8788,233.7642"/><path id="Fill-55" fill="#EFEFEF" d="M64.9433,61.1397 C64.9433,61.1397 64.2643,93.4397 78.1953,107.1807 C78.1953,107.1807 68.9323,109.6087 52.8573,100.8567 L61.5323,60.9147 L64.9433,61.1397 Z"/><path id="Fill-57" fill="#363E8E" d="M14.7724,140.9893 C14.7724,140.9893 4.7004,217.8643 50.7904,218.9293 C96.8804,219.9943 108.6414,181.6533 108.6414,181.6533 L110.6074,187.7463 C110.6074,187.7463 82.7834,241.9273 44.3214,238.0183 C5.8604,234.1103 -15.7416,189.5103 14.7724,140.9893"/><path id="Fill-59" fill="#363E8E" d="M132.0058,151.3043 C132.0058,151.3043 142.5288,165.3163 173.3908,160.4813 L169.8678,167.9763 L130.1188,174.0623 C130.1188,174.0623 134.7778,155.9873 132.0058,151.3043"/><path id="Fill-61" fill="#EFEFEF" d="M72.164,184.1944 C55.274,162.5024 48.16,138.9654 48.16,138.9654 L40.444,141.1274 L54.181,191.1294 C58.642,190.3614 65.997,188.1134 72.164,184.1944"/><path id="Fill-63" fill="#EFEFEF" d="M97.433,207.8033 C93.444,212.8973 81.908,226.2903 65.841,233.5713 L66.662,236.5613 L128.408,219.2663 C116.64,217.7113 106.356,213.5123 97.433,207.8033"/><path id="Fill-65" fill="#EFEFEF" d="M173.391,160.4815 C173.391,160.4815 199.547,158.0435 206.362,152.9545 C206.362,152.9545 190.699,167.6585 169.868,167.9765 L173.391,160.4815 Z"/><path id="Fill-67" fill="#FEBB4B" d="M160.9452,69.8008 C159.1522,78.0008 152.4222,85.3638 143.9282,86.5218 C132.9362,88.0218 121.8082,79.1628 124.3422,67.6188 C126.4592,57.9788 132.6992,50.3248 143.1562,50.3058 C143.2932,50.3058 143.4192,50.2898 143.5402,50.2668 C153.6782,52.5358 163.6762,57.3078 160.9452,69.8008 M143.2102,46.3778 C142.6522,46.2638 142.1732,46.3858 141.7942,46.6358 C129.8092,47.3398 122.0852,56.9138 120.3572,68.5708 C118.5352,80.8578 129.7462,90.4068 141.5152,90.4598 C153.0462,90.5118 162.6712,80.8398 164.7202,69.8568 C167.4872,55.0258 155.7112,48.9218 143.2102,46.3778"/><path id="Fill-69" fill="#FEBB4B" d="M139.0785,60.0557 C138.5135,66.7157 138.4335,73.4157 138.8425,80.0877 C142.1865,75.8247 145.5325,71.5617 148.8775,67.2997 C145.9755,63.9937 142.7385,60.9827 139.2305,58.3287 C139.1205,58.6547 139.0105,58.9797 138.9005,59.3057"/><path id="Fill-71" fill="#000" d="M90.9413,58.8741 C93.7203,59.5681 97.1123,59.8341 98.1453,56.5311 C98.8703,54.2091 98.0303,50.9481 97.8383,48.5971 C97.5543,45.1101 97.2693,41.6231 96.9843,38.1351 C96.9023,37.1291 95.3223,37.1211 95.4053,38.1351 C95.6683,41.3541 95.9303,44.5731 96.1933,47.7921 C96.4633,51.1021 98.1903,59.0571 91.3613,57.3511 C90.3743,57.1041 89.9533,58.6271 90.9413,58.8741"/><path id="Fill-73" fill="#000" d="M92.2953,87.4444 C90.0163,93.6764 88.6653,100.1374 89.4613,106.7834 C89.5813,107.7804 91.1623,107.7924 91.0413,106.7834 C90.2613,100.2704 91.5863,93.9714 93.8183,87.8644 C94.1683,86.9084 92.6423,86.4954 92.2953,87.4444"/><path id="Fill-75" fill="#000" d="M80.2094,66.5865 C82.1164,69.2855 84.6624,71.2665 87.7434,72.4595 C88.6924,72.8265 89.1034,71.2995 88.1634,70.9355 C85.4954,69.9035 83.2234,68.1255 81.5734,65.7895 C80.9914,64.9655 79.6214,65.7535 80.2094,66.5865"/><path id="Fill-77" fill="#000" d="M104.8178,42.2603 C106.9338,42.7203 107.6518,39.4323 105.5328,38.9713 C103.4168,38.5113 102.6988,41.7993 104.8178,42.2603"/><path id="Fill-79" fill="#000" d="M60.661,61.21 C57.806,74.356 54.951,87.501 52.096,100.647 C51.881,101.638 53.403,102.061 53.619,101.066 C56.474,87.921 59.329,74.775 62.184,61.63 C62.4,60.639 60.877,60.215 60.661,61.21"/><path id="Fill-81" fill="#000" d="M69.7587,41.4171 C62.6737,35.8911 51.8887,39.2991 50.5377,48.5791 C49.2007,57.7621 58.5367,64.3741 66.9087,60.9401 C67.8367,60.5591 67.4307,59.0301 66.4887,59.4171 C59.6127,62.2371 51.5457,57.5921 51.9957,49.7621 C52.4797,41.3561 62.1767,37.4921 68.6417,42.5341 C69.4347,43.1521 70.5597,42.0421 69.7587,41.4171"/><path id="Fill-83" fill="#000" d="M60.5951,46.0547 C62.7591,45.3257 65.0541,45.6927 66.8171,47.1797 C67.5891,47.8307 68.7121,46.7187 67.9331,46.0627 C65.7551,44.2247 62.8941,43.6147 60.1751,44.5317 C59.2171,44.8547 59.6281,46.3807 60.5951,46.0547"/><path id="Fill-85" fill="#000" d="M65.5551,19.938 C83.9321,25.13 104.7291,30.251 121.8681,18.755 C122.7071,18.192 121.9171,16.823 121.0701,17.391 C104.2761,28.655 83.9591,23.496 65.9751,18.415 C64.9951,18.138 64.5761,19.662 65.5551,19.938"/><path id="Fill-87" fill="#000" d="M49.7274,100.4898 C64.5304,107.5268 78.1124,110.3888 94.3994,107.5538 C95.3994,107.3798 94.9754,105.8568 93.9794,106.0308 C78.1794,108.7808 64.8724,105.9458 50.5244,99.1258 C49.6114,98.6908 48.8094,100.0528 49.7274,100.4898"/><path id="Fill-89" fill="#000" d="M66.89,39.9351 C66.778,33.0161 66.666,26.0961 66.555,19.1761 C66.538,18.1611 64.958,18.1581 64.975,19.1761 C65.087,26.0961 65.199,33.0161 65.31,39.9351 C65.327,40.9511 66.907,40.9541 66.89,39.9351"/><path id="Fill-91" fill="#000" d="M50.7904,192.1695 C69.6154,192.7155 82.4674,176.8495 93.4264,163.7025 C96.8834,159.5555 100.2044,155.2895 103.5774,151.0745 C104.6024,149.7935 105.6064,148.0205 106.8654,146.9645 C108.2814,145.7745 109.9934,145.1755 110.4794,147.7205 C110.9314,150.0845 107.8844,153.6965 106.6144,155.4175 C106.0104,156.2355 107.3804,157.0245 107.9784,156.2145 C109.4894,154.1685 115.5154,145.2275 109.4164,144.2655 C105.6744,143.6755 102.3434,150.1045 100.5214,152.3785 C87.9804,168.0375 73.1734,191.2395 50.7904,190.5895 C49.7734,190.5605 49.7744,192.1395 50.7904,192.1695"/><path id="Fill-93" fill="#000" d="M91.9408,165.7457 C102.5148,163.5667 108.1538,180.5707 109.2818,188.2387 C109.4288,189.2417 110.9518,188.8147 110.8048,187.8187 C109.4988,178.9327 103.1998,161.8157 91.5208,164.2227 C90.5258,164.4277 90.9468,165.9507 91.9408,165.7457"/><path id="Fill-95" fill="#000" d="M93.789,176.1412 C94.463,174.5362 95.446,173.1052 96.666,171.8692 C97.381,171.1442 96.265,170.0262 95.549,170.7512 C94.126,172.1942 93.049,173.8542 92.266,175.7212 C91.872,176.6572 93.401,177.0662 93.789,176.1412"/><path id="Fill-97" fill="#000" d="M99.5273,182.2115 C100.6283,180.9645 101.7283,179.7175 102.8283,178.4705 C103.4983,177.7105 102.3853,176.5885 101.7113,177.3535 C100.6103,178.6005 99.5103,179.8475 98.4103,181.0945 C97.7393,181.8545 98.8533,182.9755 99.5273,182.2115"/><path id="Fill-99" fill="#000" d="M102.7245,189.8297 C103.5445,188.8137 104.3645,187.7977 105.1845,186.7807 C105.8175,185.9967 104.7065,184.8717 104.0675,185.6637 C103.2475,186.6807 102.4275,187.6967 101.6075,188.7127 C100.9745,189.4967 102.0855,190.6217 102.7245,189.8297"/><path id="Fill-101" fill="#000" d="M108.8861,144.8096 C106.9081,137.7476 104.9291,130.6846 102.9511,123.6216 C102.8371,123.2116 102.3931,122.9546 101.9801,123.0696 C81.3981,128.8346 60.8161,134.6006 40.2341,140.3656 C39.8241,140.4796 39.5671,140.9236 39.6821,141.3366 C44.3021,157.8286 48.9211,174.3206 53.5411,190.8116 C53.8151,191.7886 55.3391,191.3736 55.0641,190.3916 C52.0151,179.5076 48.9671,168.6226 45.9181,157.7386 C45.1781,155.0996 44.4391,152.4606 43.7001,149.8226 C43.1511,147.8606 41.2041,143.8876 42.2001,142.1146 C43.1971,140.3396 47.6261,139.9356 49.5891,139.3856 C52.5681,138.5516 55.5461,137.7176 58.5251,136.8826 C69.1151,133.9166 79.7041,130.9506 90.2941,127.9836 C92.9421,127.2426 95.5891,126.5006 98.2371,125.7596 C98.8981,125.5736 99.5601,125.3886 100.2221,125.2036 C101.8851,124.0956 102.5061,124.1306 102.0881,125.3076 C102.3421,125.6176 102.6041,128.2396 102.7771,128.8566 L107.3631,145.2296 C107.6361,146.2066 109.1611,145.7916 108.8861,144.8096"/><path id="Fill-103" fill="#000" d="M102.6088,126.3497 C83.1098,131.8117 63.6108,137.2737 44.1118,142.7357 C43.7028,142.8497 43.4438,143.2937 43.5608,143.7067 C47.9588,159.4087 52.3568,175.1097 56.7548,190.8117 C57.0288,191.7887 58.5528,191.3737 58.2778,190.3917 C55.8958,181.8867 53.5138,173.3817 51.1308,164.8767 C49.9398,160.6237 48.7488,156.3717 47.5578,152.1197 C47.1588,150.6967 45.1908,146.5727 45.6328,145.2497 C46.3618,143.0747 48.6488,143.1057 50.5838,142.5637 C68.0658,137.6667 85.5468,132.7697 103.0288,127.8727 C104.0058,127.5997 103.5908,126.0747 102.6088,126.3497"/><path id="Fill-105" fill="#000" d="M65.1171,233.9742 C65.3781,234.9072 65.6391,235.8392 65.9011,236.7712 C66.0151,237.1812 66.4591,237.4392 66.8721,237.3232 C87.4541,231.5582 108.0361,225.7932 128.6171,220.0282 C129.0271,219.9132 129.2851,219.4692 129.1691,219.0562 C125.2661,205.1202 121.3631,191.1852 117.4591,177.2492 C117.1851,176.2712 115.6601,176.6872 115.9351,177.6692 C118.3521,186.2962 120.7681,194.9232 123.1851,203.5502 C123.9291,206.2042 124.6721,208.8582 125.4151,211.5132 C125.8081,212.9152 127.4851,216.2782 127.0881,217.4852 C126.0241,220.7192 118.2041,221.3032 115.2911,222.1202 C106.6871,224.5302 98.0831,226.9402 89.4781,229.3502 C85.1761,230.5552 80.8741,231.7602 76.5721,232.9652 C74.5861,233.5212 72.6011,234.0782 70.6151,234.6342 C69.2911,235.0042 67.9681,235.3752 66.6441,235.7462 C67.1951,235.0662 67.1941,234.3352 66.6401,233.5542 C66.3671,232.5772 64.8421,232.9922 65.1171,233.9742"/><path id="Fill-107" fill="#000" d="M68.9662,231.9673 C69.1712,233.1433 69.8162,234.2073 70.0212,235.3833 C70.1952,236.3833 71.7182,235.9593 71.5442,234.9633 C71.3392,233.7873 70.6942,232.7233 70.4892,231.5473 C70.3152,230.5473 68.7922,230.9713 68.9662,231.9673"/><path id="Fill-109" fill="#000" d="M111.14,23.3467 C111.988,29.4247 112.863,35.4977 113.732,41.5727 C114.638,47.9077 116.151,54.5037 116.139,60.9097 C116.114,74.7337 100.651,85.7747 87.996,87.5387 C86.994,87.6787 87.42,89.2007 88.416,89.0617 C99.792,87.4757 114.219,78.1197 117.157,66.3557 C118.733,60.0457 116.931,52.9507 116.039,46.6547 C114.919,38.7437 113.767,30.8387 112.663,22.9267 C112.524,21.9237 111.001,22.3507 111.14,23.3467"/><path id="Fill-111" fill="#000" d="M130.119,174.8521 C143.268,173.3451 156.418,171.6471 169.358,168.8171 C180.562,166.3671 193.491,163.6971 202.993,156.8751 C209.171,152.4391 215.186,143.7611 212.326,135.7661 C211.395,133.1641 209.583,131.3961 206.786,131.0821 C203.998,130.7701 200.827,131.7881 198.121,132.2481 C194.446,132.8721 190.771,133.4961 187.097,134.1211 C186.097,134.2901 186.52,135.8131 187.516,135.6441 C192.111,134.8631 196.898,133.5581 201.548,133.2601 C207.281,132.8931 211.424,134.0061 211.352,140.0291 C211.325,142.4201 210.644,144.8291 209.607,146.9741 C205.354,155.7751 195.741,159.6461 187.015,162.4631 C168.577,168.4171 149.306,171.0731 130.119,173.2721 C129.12,173.3871 129.109,174.9681 130.119,174.8521"/><path id="Fill-113" fill="#000" d="M118.6357,129.8843 C137.8237,133.8783 157.3167,135.6103 176.9087,135.0403 C177.9237,135.0103 177.9277,133.4303 176.9087,133.4603 C157.4577,134.0263 138.1097,132.3273 119.0557,128.3613 C118.0637,128.1543 117.6387,129.6763 118.6357,129.8843"/><path id="Fill-115" fill="#000" d="M80.621,41.4551 L86.872,41.4551 C87.889,41.4551 87.891,39.8751 86.872,39.8751 L80.621,39.8751 C79.605,39.8751 79.603,41.4551 80.621,41.4551"/><path id="Fill-117" fill="#000" d="M20.4457,132.2422 C6.5047,115.8652 7.0697,92.3432 23.4107,77.7892 C28.4457,73.3052 34.7537,69.2912 36.0177,62.1372 C37.3887,54.3842 32.4727,47.2922 31.0087,39.9472 C26.9507,19.5762 46.1537,4.2742 64.5417,2.3292 C84.8347,0.1842 103.6067,9.7312 121.0787,18.7452 C121.9807,19.2112 122.7807,17.8482 121.8767,17.3812 C97.5017,4.8062 60.7167,-11.6128 37.9177,13.2342 C33.7477,17.7802 30.6477,23.4592 29.4657,29.5382 C28.1357,36.3712 29.8747,42.3752 32.1337,48.7982 C33.7577,53.4122 35.5817,58.4612 34.1107,63.3782 C32.8127,67.7192 29.2357,70.8142 25.9007,73.6392 C20.3977,78.3032 15.6147,83.0132 12.4927,89.6352 C5.4527,104.5662 8.8267,121.0232 19.3287,133.3592 C19.9877,134.1352 21.1017,133.0132 20.4457,132.2422"/><path id="Fill-119" fill="#000" d="M103.1132,115.7095 C107.0612,110.9805 110.4402,105.6495 111.0872,99.3765 C111.7752,92.7175 108.9252,86.4155 107.5612,80.0285 C107.3482,79.0345 105.8252,79.4555 106.0372,80.4485 C107.1752,85.7775 109.5682,91.1435 109.6022,96.6455 C109.6442,103.5755 106.3222,109.4095 101.9962,114.5925 C101.3492,115.3675 102.4612,116.4905 103.1132,115.7095"/><path id="Fill-121" fill="#000" d="M18.0453,259.7296 L18.0453,226.7226 C18.0453,225.7066 16.4653,225.7046 16.4653,226.7226 L16.4653,259.7296 L18.0453,259.7296 Z"/><path id="Fill-123" fill="#000" d="M170.5497,168.3751 C177.2187,157.8511 177.2887,144.6361 170.7387,134.0371 C170.2047,133.1741 168.8377,133.9661 169.3747,134.8341 C175.6427,144.9781 175.5687,157.5051 169.1857,167.5781 C168.6397,168.4391 170.0067,169.2321 170.5497,168.3751"/><path id="Fill-125" fill="#000" d="M160.9716,142.462 C162.7806,142.311 164.5906,142.161 166.3996,142.01 C167.4056,141.926 167.4136,140.345 166.3996,140.43 C164.5906,140.581 162.7806,140.732 160.9716,140.882 C159.9656,140.966 159.9566,142.546 160.9716,142.462"/><path id="Fill-127" fill="#000" d="M162.8544,152.0943 C164.5054,152.0163 166.1574,151.9383 167.8084,151.8603 C168.8204,151.8123 168.8264,150.2323 167.8084,150.2813 C166.1574,150.3583 164.5054,150.4363 162.8544,150.5143 C161.8424,150.5623 161.8364,152.1423 162.8544,152.0943"/><path id="Fill-129" fill="#000" d="M162.8422,162.5093 C164.4132,162.2603 165.9842,162.0123 167.5542,161.7643 C168.5562,161.6063 168.1312,160.0833 167.1342,160.2403 C165.5642,160.4893 163.9932,160.7373 162.4222,160.9863 C161.4212,161.1443 161.8462,162.6663 162.8422,162.5093"/><path id="Fill-131" fill="#FFF" d="M68.9936,20.8736 C64.8546,19.1126 60.5426,18.7226 56.1616,19.7766 C55.1746,20.0146 55.5926,21.5386 56.5826,21.2996 C60.5186,20.3526 64.4626,20.6496 68.1966,22.2376 C69.1206,22.6316 69.9276,21.2706 68.9936,20.8736"/><g id="Group-135" transform="translate(0.000000, 99.000000)"><mask id="mask-6" fill="#fff"><use xlink:href="#path-5"/></mask><path id="Fill-133" fill="#000" d="M109.8739,54.4634 C115.3699,55.0514 118.6779,60.6624 119.1519,65.7114 C119.6549,71.0664 117.1669,76.2544 114.5119,80.7344 C110.1359,88.1174 105.5659,95.4184 100.5869,102.4394 C88.9879,118.7954 73.6669,134.1804 53.0569,137.6334 C33.7039,140.8774 16.3119,130.0864 7.5079,113.1264 C-2.0981,94.6224 0.8889,72.6094 9.2819,54.2544 C18.7279,33.5974 35.0929,17.4414 50.6849,1.3664 C51.3929,0.6354 50.2769,-0.4826 49.5679,0.2494 C33.0209,17.3094 15.7339,34.4954 6.4509,56.8144 C-1.5811,76.1234 -3.2291,98.7594 7.9789,117.1774 C17.8269,133.3604 35.3769,142.5184 54.3019,139.0034 C76.9119,134.8044 92.8119,116.9104 105.0599,98.7274 C108.1989,94.0674 111.2559,89.3184 114.0439,84.4714 C116.6989,79.8574 119.6419,75.4894 120.5139,70.1194 C121.6919,62.8654 118.0479,53.7584 109.8739,52.8834 C108.8639,52.7754 108.8719,54.3564 109.8739,54.4634" mask="url(#mask-6)"/></g><path id="Fill-136" fill="#000" d="M125.5849,206.6793 C127.3479,194.2143 129.6179,181.8623 131.7939,169.4673 C133.3329,160.7073 134.3649,151.3503 130.2079,143.1433 C122.4029,127.7383 105.0179,120.0203 95.1419,106.2063 C94.5559,105.3873 93.1849,106.1743 93.7779,107.0043 C103.0079,119.9143 118.0589,127.4213 126.8979,140.6363 C133.0719,149.8643 131.8329,160.5843 129.9159,171.0053 C127.7599,182.7283 125.7309,194.4553 124.0619,206.2593 C123.9209,207.2533 125.4429,207.6833 125.5849,206.6793"/><path id="Fill-138" fill="#000" d="M121.9838,259.7296 C122.7688,247.7776 122.4268,233.2426 123.6478,221.7546 C123.7548,220.7456 122.1748,220.7526 122.0678,221.7546 C120.7898,233.7866 121.2258,247.5746 120.2858,259.7296 L121.9838,259.7296 Z"/><path id="Fill-140" fill="#000" d="M51.4916,107.2325 C59.2836,110.4045 67.2896,112.4225 75.6456,113.3725 C76.6536,113.4875 76.6456,111.9065 75.6456,111.7935 C67.4406,110.8595 59.5566,108.8215 51.9116,105.7095 C50.9706,105.3255 50.5606,106.8535 51.4916,107.2325"/><path id="Fill-142" fill="#EAE8EB" d="M86.0917,157.1763 C87.0197,160.3703 85.1827,163.7123 81.9887,164.6393 C78.7947,165.5683 75.4527,163.7313 74.5257,160.5373 C73.5967,157.3433 75.4337,154.0013 78.6287,153.0733 C81.8217,152.1453 85.1637,153.9823 86.0917,157.1763"/><path id="Fill-144" fill="#000" d="M99.6391,135.3731 C100.0111,136.6531 99.2751,137.9921 97.9951,138.3641 C96.7151,138.7361 95.3761,138.0001 95.0041,136.7201 C94.6321,135.4401 95.3681,134.1011 96.6481,133.7291 C97.9281,133.3571 99.2671,134.0931 99.6391,135.3731"/><path id="Fill-146" fill="#FFF" d="M236.6742,96.586 C208.1632,96.586 185.0502,119.699 185.0502,148.21 C185.0502,176.721 208.1632,199.834 236.6742,199.834 C265.1852,199.834 288.2982,176.721 288.2982,148.21 C288.2982,119.699 265.1852,96.586 236.6742,96.586"/><path id="Fill-148" fill="#000" d="M289.4032,152.169 C290.7172,130.617 278.2832,109.036 258.4112,100.146 C239.1852,91.544 214.9522,96.094 199.9672,110.854 C185.0912,125.506 180.7382,149.261 188.5922,168.481 C196.6932,188.307 217.8562,201.196 239.0982,200.592 C263.3342,199.902 284.0242,180.846 288.7212,157.435 C288.9332,156.38 287.3162,155.929 287.1042,156.988 C283.1352,176.762 267.5402,193.581 247.6262,197.885 C227.2402,202.291 204.6292,192.497 193.6722,174.797 C183.0522,157.642 184.3032,134.246 196.0512,117.966 C208.1512,101.198 231.1752,93.793 250.9602,99.243 C273.9032,105.563 289.1532,128.76 287.7252,152.169 C287.6602,153.247 289.3382,153.243 289.4032,152.169"/><path id="Fill-150" fill="#FFF" d="M176.9897,135.879 C176.9897,135.879 180.4827,130.189 189.3717,125.827 C189.3717,125.827 193.1007,126.079 189.8297,131.744 C185.8967,138.554 185.7427,138.679 185.7427,138.679 L176.9897,135.879 Z"/><path id="Fill-152" fill="#000" d="M177.7221,134.8043 C179.0281,133.5703 180.3581,132.3633 181.7311,131.2043 C183.2181,129.9503 184.7771,128.3193 186.5171,127.4483 C187.7941,126.8093 189.3641,126.6583 188.8831,128.5333 C188.6601,129.4003 188.3371,130.2563 188.0471,131.1013 C187.3851,133.0243 186.6431,134.9163 185.8441,136.7863 C184.2971,140.4053 185.6601,141.2033 187.2081,137.5833 C188.4041,134.7883 189.6471,131.9043 190.4061,128.9533 C190.7661,127.5533 190.8901,125.8163 189.2641,125.1803 C187.1711,124.3633 185.0211,126.5773 183.5661,127.7033 C181.1431,129.5783 178.8311,131.5823 176.6051,133.6873 C175.8651,134.3873 176.9831,135.5023 177.7221,134.8043"/><path id="Fill-154" fill="#B73775" d="M234.4521,122.7881 C236.3721,123.5041 235.0851,125.8751 233.3941,125.3361 C233.3731,125.3301 233.3551,125.3301 233.3351,125.3241 C233.2821,125.2771 233.2311,125.2281 233.1731,125.1851 C232.0231,124.3301 233.0271,122.2561 234.4521,122.7881 M246.5381,148.1471 C249.8201,139.5161 245.2251,130.1031 237.1061,127.5311 C237.7171,127.0061 238.2201,126.3521 238.5211,125.5861 C239.4431,123.2461 238.1231,120.7551 235.8971,119.7851 C233.6381,118.8001 230.9671,119.5601 229.8891,121.8651 C229.0661,123.6231 229.3261,125.5521 230.4161,127.0061 C225.4531,127.7091 221.0581,131.0371 218.8741,135.5331 C215.6961,142.0771 221.1711,155.9651 212.7951,159.0521 C211.1181,159.6701 211.2311,162.4091 213.2421,162.3471 C221.7171,162.0871 230.1931,161.8271 238.6681,161.5671 C240.8231,161.5001 240.8321,158.1441 238.6681,158.2111 C231.9331,158.4181 225.1971,158.6241 218.4611,158.8311 C221.7431,154.2801 220.2721,147.2201 220.8241,141.4471 C221.4871,134.5221 227.7011,128.8711 234.9351,130.4551 C242.7381,132.1631 245.9981,140.1681 243.3031,147.2551 C242.5351,149.2751 245.7771,150.1491 246.5381,148.1471"/><path id="Fill-156" fill="#B73775" d="M237.518,164.5811 C235.511,164.7111 233.504,164.8421 231.497,164.9721 C230.322,164.2051 228.34,165.0851 228.928,166.7271 C229.708,168.9081 231.639,170.5731 234.04,170.5681 C236.436,170.5631 238.37,168.8881 239.136,166.7051 C239.483,165.7141 238.561,164.5131 237.518,164.5811"/><path id="Fill-158" fill="#B73775" d="M254.4037,163.6046 L249.3487,163.6046 L249.3487,162.3956 L251.1447,162.3956 L251.1447,157.1086 L249.4747,158.1116 L249.4747,156.7866 L251.7557,155.4046 L252.6187,155.4046 L252.6187,162.3956 L254.4037,162.3956 L254.4037,163.6046 Z M259.4227,155.0846 C258.6617,153.8566 257.4227,152.9856 256.0927,152.4196 C254.7637,151.8536 253.3367,151.5656 251.9197,151.2826 L252.0997,151.3866 C249.7167,151.2716 247.3067,152.3606 245.8177,154.2256 C244.8937,155.3816 244.3277,156.7846 243.9187,158.2076 C243.5497,159.4916 243.2997,160.8556 243.5927,162.1586 C243.8817,163.4426 244.6837,164.5656 245.6607,165.4466 C247.5077,167.1136 250.0817,167.9966 252.5467,167.6526 C255.9877,167.1726 258.8337,164.3396 259.8677,161.0226 C260.4777,159.0686 260.5007,156.8256 259.4227,155.0846 L259.4227,155.0846 Z"/></g></g></g></svg>