<svg xmlns="http://www.w3.org/2000/svg" xmlns:xlink="http://www.w3.org/1999/xlink" id="1c549851-e1f5-47c2-9f19-cda9fc007f23" width="742" height="751" data-name="Layer 1" viewBox="0 0 742 751"><defs><linearGradient id="293c43c5-f5dc-4f36-9ea4-ed10593f05c6" x1="294.5" x2="294.5" y1="751" y2="73" gradientUnits="userSpaceOnUse"><stop offset="0" stop-color="gray" stop-opacity=".25"/><stop offset=".54" stop-color="gray" stop-opacity=".12"/><stop offset="1" stop-color="gray" stop-opacity=".1"/></linearGradient><linearGradient id="41fd0ec7-182b-4282-83b7-ab7a020e918b" x1="295.5" x2="295.5" y1="394" y2="175" xlink:href="#293c43c5-f5dc-4f36-9ea4-ed10593f05c6"/><linearGradient id="f8c73f52-cb57-4dfb-aa28-3dc50b136682" x1="472" x2="472" y1="709" y2=".67" xlink:href="#293c43c5-f5dc-4f36-9ea4-ed10593f05c6"/><linearGradient id="f7f8622f-4980-4731-9af3-3a9e922a0253" x1="472" x2="472" y1="269.98" gradientUnits="userSpaceOnUse"><stop offset="0" stop-color="#b3b3b3" stop-opacity=".25"/><stop offset=".54" stop-color="#b3b3b3" stop-opacity=".1"/><stop offset="1" stop-color="#b3b3b3" stop-opacity=".05"/></linearGradient><linearGradient id="b4700321-3280-4bc3-a158-9252876dd1e5" x1="713.21" x2="718.93" y1="420.46" y2="557.24" gradientTransform="matrix(-1, 0.01, -0.01, -1, 1253.94, 688.13)" gradientUnits="userSpaceOnUse"><stop offset="0" stop-opacity=".12"/><stop offset=".55" stop-opacity=".09"/><stop offset="1" stop-opacity=".02"/></linearGradient></defs><title>resume</title><rect width="551" height="678" x="19" y="73" fill="url(#293c43c5-f5dc-4f36-9ea4-ed10593f05c6)"/><rect width="535.57" height="658.44" x="26.6" y="80.56" fill="#f5f5f5"/><rect width="535.57" height="81.73" x="26.6" y="80" fill="#6c63ff"/><rect width="43.19" height="10.36" x="40.79" y="89.21" fill="#fff"/><rect width="43.19" height="10.36" x="40.79" y="108.78" fill="#fff"/><rect width="43.19" height="10.36" x="40.79" y="128.35" fill="#fff"/><rect width="591" height="219" y="175" fill="url(#41fd0ec7-182b-4282-83b7-ab7a020e918b)"/><rect width="578.76" height="204.34" x="5" y="182.46" fill="#fff"/><rect width="145.61" height="10.36" x="129.02" y="258.72" fill="#bdbdbd"/><rect width="145.61" height="10.36" x="129.02" y="300.17" fill="#69f0ae"/><rect width="420.8" height="10.36" x="129.02" y="279.44" fill="#e0e0e0"/><ellipse cx="66.7" cy="284.62" fill="#69f0ae" rx="25.91" ry="24.18"/><rect width="538.76" height="708.33" x="202.62" y=".67" fill="url(#f8c73f52-cb57-4dfb-aa28-3dc50b136682)"/><rect width="540" height="269.98" x="202" fill="url(#f7f8622f-4980-4731-9af3-3a9e922a0253)"/><rect width="524.97" height="691.85" x="209.52" y="6.15" fill="#fff"/><rect width="526.18" height="263.69" x="208.91" y="5.5" fill="#6c63ff"/><rect width="142.73" height="10.89" x="319.59" y="343.59" fill="#bdbdbd"/><rect width="142.73" height="10.89" x="319.59" y="387.13" fill="#f5f5f5"/><rect width="372.56" height="10.89" x="319.59" y="365.36" fill="#69f0ae"/><rect width="142.73" height="10.89" x="415.15" y="104.08" fill="#fff"/><rect width="229.83" height="10.89" x="415.15" y="128.28" fill="#fff"/><rect width="142.73" height="12.1" x="458.69" y="159.72" opacity=".2" rx="5" ry="5"/><circle cx="258.5" cy="356.29" r="25.4" fill="#69f0ae"/><rect width="142.73" height="10.89" x="319.59" y="448.82" fill="#bdbdbd"/><rect width="142.73" height="10.89" x="319.59" y="492.37" fill="#f5f5f5"/><rect width="372.56" height="10.89" x="319.59" y="470.59" fill="#e0e0e0"/><circle cx="258.5" cy="461.52" r="25.4" fill="#e0e0e0"/><rect width="142.73" height="10.89" x="319.59" y="554.06" fill="#bdbdbd"/><rect width="142.73" height="10.89" x="319.59" y="597.6" fill="#f5f5f5"/><rect width="372.56" height="10.89" x="319.59" y="575.83" fill="#e0e0e0"/><circle cx="258.5" cy="566.76" r="25.4" fill="#e0e0e0"/><path fill="url(#b4700321-3280-4bc3-a158-9252876dd1e5)" d="M461.9,207.23a70,70,0,1,0,93-67l.22,18a23.79,23.79,0,0,1-23.43,24h0a23.79,23.79,0,0,1-24-23.43l-.22-18A70.07,70.07,0,0,0,461.9,207.23Z" transform="translate(-229 -74.5)"/><path fill="#6c63ff" d="M602,199.86a70,70,0,1,0-93.76,65.92v-18A23.79,23.79,0,0,1,532,224h0a23.79,23.79,0,0,1,23.72,23.72v18A70.07,70.07,0,0,0,602,199.86Z" transform="translate(-229 -74.5)"/><circle cx="303" cy="115.73" r="26.92" fill="#fff" stroke="#fff" stroke-miterlimit="10"/><path fill="#fff" stroke="#fff" stroke-miterlimit="10" d="M532,224h0a23.79,23.79,0,0,0-23.72,23.72v18a70.3,70.3,0,0,0,47.43,0v-18A23.79,23.79,0,0,0,532,224Z" transform="translate(-229 -74.5)"/><path fill="#fff" stroke="#fff" stroke-miterlimit="10" d="M504.85,188.74A26.12,26.12,0,0,1,502,175.19a18.11,18.11,0,0,1,6-12.28c3.92-3.34,9.24-4.53,14.38-4.94s10.34-.16,15.4-1.16a32.19,32.19,0,0,0,20.56-13.94c.32,4,.65,8-.11,11.85s-2.76,7.71-6.14,9.79c4.09-1.89,3.64,2.54,2.76,5.2,2,2.45,7,2.85,7.2,6a19.92,19.92,0,0,1-1,9.36c-1.24,2.92.09,8.07-3.07,8.29" transform="translate(-229 -74.5)"/><path fill="#fff" d="M553.51,163.87s18.79,1.64,5.41,29.52" transform="translate(-229 -74.5)"/></svg>